<svg width="71" height="71" viewBox="0 0 71 71" fill="none" xmlns="http://www.w3.org/2000/svg">
<circle cx="35.5" cy="35.5" r="35.5" fill="#407BFF"/>
<g clip-path="url(#clip0)">
<path d="M51.0817 35.4789H50.0261V31.2123C50.0243 29.7404 48.844 28.5474 47.3872 28.5456H45.8899L47.315 26.0503C47.525 25.6826 47.582 25.2453 47.4732 24.8352C47.3642 24.425 47.0985 24.0755 46.7344 23.8636L34.8469 16.9302C34.0892 16.494 33.1256 16.7557 32.6865 17.5169L26.3878 28.5456H22.053C20.5962 28.5474 19.4159 29.7404 19.4141 31.2123V46.1456C19.4159 47.6178 20.5962 48.8105 22.053 48.8123H47.3872C48.844 48.8105 50.0243 47.6178 50.0261 46.1456V41.8789H51.0817V35.4789ZM46.4024 25.5164L43.4514 30.6789H33.9078L39.5061 20.8779L46.2092 24.7883C46.4581 24.938 46.5437 25.2607 46.4024 25.5164ZM30.2509 30.6789L36.7658 19.2794L38.592 20.3461L32.6896 30.6789H30.2509ZM33.6045 18.0503C33.7503 17.7958 34.0722 17.7089 34.3243 17.8555L35.8512 18.7461L29.0321 30.6789H26.3872L33.6045 18.0503ZM48.9705 46.1456C48.9705 47.0292 48.2616 47.7456 47.3872 47.7456H22.053C21.1786 47.7456 20.4697 47.0292 20.4697 46.1456V31.2123C20.4697 30.3287 21.1786 29.6123 22.053 29.6123H25.7783L25.167 30.6789H22.5808V31.7456H46.8594V30.6789H44.6701L45.2801 29.6123H47.3872C48.2616 29.6123 48.9705 30.3287 48.9705 31.2123V35.4789H43.1648C41.708 35.4808 40.5276 36.6737 40.5258 38.1456V39.2123C40.5276 40.6844 41.708 41.8771 43.1648 41.8789H48.9705V46.1456ZM50.0261 40.8123H43.1648C42.2904 40.8123 41.5814 40.0959 41.5814 39.2123V38.1456C41.5814 37.262 42.2904 36.5456 43.1648 36.5456H50.0261V40.8123Z" fill="white"/>
<path d="M51.0817 35.4789H50.0261V31.2123C50.0243 29.7404 48.844 28.5474 47.3872 28.5456H45.8899L47.315 26.0503C47.525 25.6826 47.582 25.2453 47.4732 24.8352C47.3642 24.425 47.0985 24.0755 46.7344 23.8636L34.8469 16.9302C34.0892 16.494 33.1256 16.7557 32.6865 17.5169L26.3878 28.5456H22.053C20.5962 28.5474 19.4159 29.7404 19.4141 31.2123V46.1456C19.4159 47.6178 20.5962 48.8105 22.053 48.8123H47.3872C48.844 48.8105 50.0243 47.6178 50.0261 46.1456V41.8789H51.0817V35.4789ZM46.4024 25.5164L43.4514 30.6789H33.9078L39.5061 20.8779L46.2092 24.7883C46.4581 24.938 46.5437 25.2607 46.4024 25.5164ZM30.2509 30.6789L36.7658 19.2794L38.592 20.3461L32.6896 30.6789H30.2509ZM33.6045 18.0503C33.7503 17.7958 34.0722 17.7089 34.3243 17.8555L35.8512 18.7461L29.0321 30.6789H26.3872L33.6045 18.0503ZM48.9705 46.1456C48.9705 47.0292 48.2616 47.7456 47.3872 47.7456H22.053C21.1786 47.7456 20.4697 47.0292 20.4697 46.1456V31.2123C20.4697 30.3287 21.1786 29.6123 22.053 29.6123H25.7783L25.167 30.6789H22.5808V31.7456H46.8594V30.6789H44.6701L45.2801 29.6123H47.3872C48.2616 29.6123 48.9705 30.3287 48.9705 31.2123V35.4789H43.1648C41.708 35.4808 40.5276 36.6737 40.5258 38.1456V39.2123C40.5276 40.6844 41.708 41.8771 43.1648 41.8789H48.9705V46.1456ZM50.0261 40.8123H43.1648C42.2904 40.8123 41.5814 40.0959 41.5814 39.2123V38.1456C41.5814 37.262 42.2904 36.5456 43.1648 36.5456H50.0261V40.8123Z" stroke="white"/>
<path d="M42.1091 38.6791C42.1091 39.5627 42.8181 40.2791 43.6925 40.2791C44.5669 40.2791 45.2759 39.5627 45.2759 38.6791C45.2759 37.7955 44.5669 37.0791 43.6925 37.0791C42.8181 37.0791 42.1091 37.7955 42.1091 38.6791ZM43.6925 38.1458C43.984 38.1458 44.2203 38.3846 44.2203 38.6791C44.2203 38.9736 43.984 39.2124 43.6925 39.2124C43.401 39.2124 43.1647 38.9736 43.1647 38.6791C43.1647 38.3846 43.401 38.1458 43.6925 38.1458Z" fill="white"/>
<path d="M42.1091 38.6791C42.1091 39.5627 42.8181 40.2791 43.6925 40.2791C44.5669 40.2791 45.2759 39.5627 45.2759 38.6791C45.2759 37.7955 44.5669 37.0791 43.6925 37.0791C42.8181 37.0791 42.1091 37.7955 42.1091 38.6791ZM43.6925 38.1458C43.984 38.1458 44.2203 38.3846 44.2203 38.6791C44.2203 38.9736 43.984 39.2124 43.6925 39.2124C43.401 39.2124 43.1647 38.9736 43.1647 38.6791C43.1647 38.3846 43.401 38.1458 43.6925 38.1458Z" stroke="white"/>
</g>
<defs>
<clipPath id="clip0">
<rect width="32.7266" height="33.2812" fill="white" transform="translate(18.8594 16.0859)"/>
</clipPath>
</defs>
</svg>
