<svg width="71" height="71" viewBox="0 0 71 71" fill="none" xmlns="http://www.w3.org/2000/svg">
<circle cx="35.5" cy="35.5" r="35.5" fill="#407BFF"/>
<mask id="path-2-inside-1" fill="white">
<path d="M25.691 42.777C25.6607 42.664 25.6013 42.561 25.5187 42.4783C25.4361 42.3956 25.3332 42.3361 25.2204 42.3058L21.5083 41.3102C21.3954 41.2799 21.2766 41.2799 21.1637 41.3102C21.0509 41.3405 20.9479 41.4001 20.8653 41.4828L18.1483 44.2038C18.0658 44.2865 18.0064 44.3894 17.9762 44.5023C17.9459 44.6151 17.9458 44.734 17.9759 44.8469L18.9704 48.5636C19.0006 48.6765 19.06 48.7795 19.1426 48.8623C19.2252 48.945 19.3281 49.0044 19.4409 49.0347L23.153 50.0304C23.209 50.0454 23.2668 50.0531 23.3247 50.053C23.5013 50.053 23.6705 49.9827 23.7953 49.8577L26.513 47.1374C26.5956 47.0547 26.6551 46.9517 26.6853 46.8387C26.7156 46.7257 26.7156 46.6067 26.6854 46.4936L25.691 42.777ZM23.1264 48.6415L20.1565 47.8418L19.3611 44.8762L21.5349 42.6997L24.5042 43.4994L25.3029 46.4723L23.1264 48.6415Z"/>
<path d="M54.8064 43.3169L51.0391 39.5449C50.9772 39.4828 50.9034 39.4338 50.8223 39.4006C50.7411 39.3674 50.6542 39.3508 50.5666 39.3516C50.4799 39.3508 50.394 39.3675 50.3139 39.4007C50.2338 39.4339 50.1613 39.4829 50.1006 39.5449L49.648 39.9981C48.8505 39.0779 48.3514 37.9367 48.217 36.7259L47.7377 32.4475C47.5882 31.0933 46.9853 29.8296 46.0271 28.8621L45.8674 28.7022L46.726 27.8358C46.7867 27.772 46.8601 27.7218 46.9416 27.6885C47.0231 27.6551 47.1107 27.6395 47.1986 27.6426C48.4255 27.7188 49.6518 27.4839 50.764 26.9598C51.8762 26.4357 52.8384 25.6392 53.5617 24.644C54.2849 23.6488 54.7458 22.487 54.9017 21.2662C55.0577 20.0454 54.9035 18.8049 54.4537 17.6595C54.414 17.5559 54.349 17.4638 54.2648 17.3916C54.1805 17.3194 54.0795 17.2695 53.9711 17.2463C53.8626 17.2232 53.7501 17.2275 53.6438 17.2589C53.5374 17.2903 53.4406 17.3479 53.3621 17.4263L49.2886 21.5115L46.8125 21.1583L46.4598 18.6792L50.5399 14.6007C50.6182 14.5227 50.6756 14.4263 50.707 14.3204C50.7384 14.2144 50.7428 14.1023 50.7196 13.9942C50.6962 13.8854 50.6462 13.784 50.5742 13.6992C50.5022 13.6143 50.4104 13.5485 50.307 13.5077C49.163 13.0573 47.924 12.903 46.7047 13.0591C45.4854 13.2152 44.3251 13.6767 43.3311 14.4008C42.3371 15.125 41.5416 16.0884 41.0181 17.202C40.4947 18.3156 40.2601 19.5433 40.3362 20.7717C40.3377 20.8596 40.3214 20.9468 40.2882 21.0281C40.255 21.1095 40.2057 21.1832 40.1432 21.2449L37.3942 23.9972L35.5106 22.1113C35.1531 21.7494 34.6992 21.4982 34.2031 21.3875C33.707 21.2768 33.1895 21.3113 32.7124 21.4869C32.2353 21.6625 31.8187 21.9718 31.5124 22.3779C31.206 22.784 31.0227 23.2698 30.9845 23.7773C30.493 23.6483 29.9748 23.664 29.492 23.8225C29.0092 23.981 28.5823 24.2757 28.2626 24.6711C27.9429 25.0664 27.7439 25.5458 27.6895 26.0516C27.6351 26.5574 27.7277 27.0682 27.956 27.5226C27.4301 27.6116 26.9444 27.8606 26.5649 28.2357C26.2375 28.5652 26.0024 28.9751 25.8833 29.4242C25.7641 29.8734 25.765 30.3461 25.886 30.7948C25.3795 30.8292 24.8938 31.0094 24.4872 31.3137C24.0806 31.618 23.7704 32.0333 23.594 32.5099C23.4175 32.9864 23.3823 33.5038 23.4925 34C23.6027 34.4961 23.8537 34.9497 24.2153 35.3064L25.1538 36.2461L23.2435 38.1587C23.1817 38.2229 23.1071 38.2733 23.0245 38.3066C22.9419 38.3399 22.8532 38.3554 22.7643 38.352C22.6178 38.3453 22.4781 38.3453 22.325 38.3387C21.3635 38.3382 20.4113 38.5274 19.5228 38.8954C18.6344 39.2634 17.827 39.803 17.1468 40.4834C15.7731 41.8576 15.0009 43.7218 15 45.666C14.9991 47.6102 15.7697 49.4752 17.1421 50.8505C18.5146 52.2259 20.3765 52.9991 22.3183 53H22.3383C23.2994 52.9996 24.251 52.8098 25.1387 52.4411C26.0265 52.0725 26.8331 51.5324 27.5123 50.8517C28.1916 50.171 28.7303 49.3629 29.0977 48.4737C29.465 47.5845 29.6538 46.6316 29.6533 45.6693C29.6533 45.5227 29.6466 45.3761 29.64 45.2362C29.6357 45.147 29.6507 45.0579 29.684 44.9751C29.7173 44.8923 29.7682 44.8176 29.833 44.7563L31.7433 42.8437L39.2779 50.381L38.8053 50.8541C38.7424 50.9158 38.6924 50.9894 38.6581 51.0707C38.6239 51.1519 38.606 51.2391 38.6056 51.3273C38.606 51.4145 38.6239 51.5007 38.6582 51.5808C38.6925 51.661 38.7425 51.7334 38.8053 51.7938L39.7438 52.7401C39.8704 52.8634 40.0398 52.9327 40.2164 52.9334C40.3927 52.9314 40.5617 52.8623 40.689 52.7401C40.8137 52.6143 40.8837 52.4442 40.8837 52.2669C40.8837 52.0897 40.8137 51.9196 40.689 51.7938L40.2164 51.3273L50.5666 40.9577L53.8613 44.2565C53.987 44.3814 54.1568 44.4514 54.3339 44.4514C54.5109 44.4514 54.6808 44.3814 54.8064 44.2565C54.9304 44.1317 55 43.9627 55 43.7867C55 43.6106 54.9304 43.4417 54.8064 43.3169ZM41.0817 22.1846C41.2787 21.9913 41.4322 21.7581 41.5321 21.5007C41.6319 21.2433 41.6758 20.9675 41.6608 20.6918C41.606 19.777 41.7614 18.8618 42.1152 18.0166C42.4689 17.1714 43.0115 16.4186 43.7012 15.8162C44.391 15.2138 45.2095 14.7778 46.0939 14.5416C46.9783 14.3055 47.9049 14.2755 48.8027 14.454L45.2883 17.9728C45.2146 18.0458 45.1588 18.135 45.1253 18.2333C45.0918 18.3316 45.0815 18.4363 45.0953 18.5392L45.5679 21.838C45.5881 21.9811 45.6542 22.1137 45.7562 22.2159C45.8583 22.318 45.9907 22.3842 46.1336 22.4045L49.4284 22.8776C49.5312 22.8914 49.6358 22.8811 49.7339 22.8476C49.8321 22.814 49.9212 22.7582 49.9941 22.6844L53.5085 19.1657C53.6868 20.0645 53.6569 20.9923 53.421 21.8778C53.1852 22.7633 52.7497 23.5828 52.148 24.2734C51.5463 24.964 50.7945 25.5073 49.9503 25.8614C49.1062 26.2156 48.1921 26.3712 47.2785 26.3164C47.0031 26.3019 46.7278 26.3461 46.4708 26.446C46.2138 26.546 45.9809 26.6994 45.7875 26.8962L44.9222 27.7625L43.0386 25.8765C42.531 25.3917 41.8564 25.1213 41.1549 25.1213C40.4534 25.1213 39.7788 25.3917 39.2713 25.8765L38.3327 24.9369L41.0817 22.1846ZM32.6818 23.0509C32.9364 22.8102 33.2734 22.676 33.6236 22.676C33.9738 22.676 34.3108 22.8102 34.5654 23.0509L38.3327 26.8229L36.4491 28.7088L32.6818 24.9369C32.4339 24.6858 32.2949 24.347 32.2949 23.9939C32.2949 23.6408 32.4339 23.302 32.6818 23.0509ZM29.387 25.41C29.6401 25.1663 29.9777 25.0301 30.3289 25.0301C30.6801 25.0301 31.0176 25.1663 31.2707 25.41L35.5106 29.6485L35.5905 29.7485C35.4656 30.0119 35.4008 30.2999 35.4008 30.5915C35.4008 30.8831 35.4656 31.1711 35.5905 31.4345L35.5106 31.5345C35.2559 31.7752 34.919 31.9094 34.5688 31.9094C34.2185 31.9094 33.8816 31.7752 33.6269 31.5345L29.387 27.2894C29.2636 27.1661 29.1657 27.0196 29.0989 26.8584C29.0321 26.6971 28.9977 26.5243 28.9977 26.3497C28.9977 26.1751 29.0321 26.0023 29.0989 25.8411C29.1657 25.6798 29.2636 25.5334 29.387 25.41ZM27.51 29.1753C27.7594 28.9271 28.0968 28.7878 28.4485 28.7878C28.8002 28.7878 29.1376 28.9271 29.387 29.1753L32.6818 32.4741H32.6884L33.6269 33.4205C33.8767 33.6706 34.017 34.0098 34.017 34.3635C34.017 34.7171 33.8767 35.0564 33.6269 35.3064C33.3771 35.5565 33.0384 35.697 32.6851 35.697C32.3318 35.697 31.9931 35.5565 31.7433 35.3064L27.976 31.5345L27.51 31.0613C27.3863 30.9375 27.2881 30.7905 27.2211 30.6287C27.1541 30.4669 27.1196 30.2935 27.1196 30.1183C27.1196 29.9432 27.1541 29.7697 27.2211 29.6079C27.2881 29.4461 27.3863 29.2991 27.51 29.1753ZM24.7611 33.4205C24.7605 33.2445 24.795 33.0702 24.8624 32.9078C24.9298 32.7453 25.0289 32.5979 25.1538 32.4741C25.404 32.2273 25.741 32.0885 26.0923 32.0876C26.2676 32.0859 26.4415 32.1191 26.6038 32.1855C26.7661 32.2519 26.9135 32.35 27.0374 32.4741L30.8048 36.2461L31.2707 36.7193C31.5205 36.9694 31.6608 37.3086 31.6608 37.6623C31.6608 38.0159 31.5205 38.3551 31.2707 38.6052C31.0209 38.8553 30.6821 38.9958 30.3289 38.9958C29.9756 38.9958 29.6368 38.8553 29.387 38.6052L25.1538 34.3601C25.0295 34.2373 24.9308 34.091 24.8634 33.9297C24.796 33.7684 24.7612 33.5953 24.7611 33.4205ZM40.2164 49.4413L32.6818 41.904L39.7438 34.8333C39.8685 34.7075 39.9385 34.5374 39.9385 34.3601C39.9385 34.1829 39.8685 34.0128 39.7438 33.887C39.6191 33.7628 39.4504 33.6932 39.2746 33.6932C39.0987 33.6932 38.93 33.7628 38.8053 33.887L28.8878 43.8167C28.6916 44.0105 28.5386 44.2438 28.4388 44.501C28.339 44.7583 28.2947 45.0338 28.3088 45.3095C28.3154 45.4294 28.3221 45.5494 28.3221 45.6693C28.3221 47.2589 27.6918 48.7835 26.5699 49.9081C25.4479 51.0327 23.9259 51.6654 22.3383 51.6672H22.3183C20.7296 51.6663 19.2062 51.0335 18.0834 49.9081C16.9606 48.7826 16.3303 47.2567 16.3312 45.666C16.3321 44.0753 16.9641 42.5501 18.0881 41.4259C19.2122 40.3017 20.7362 39.6706 22.325 39.6715C22.4248 39.6715 22.5712 39.6782 22.6911 39.6849C22.9662 39.6974 23.2409 39.6523 23.4976 39.5525C23.7544 39.4527 23.9875 39.3003 24.182 39.1051L26.0923 37.1858L28.4485 39.5449C28.8595 39.9591 29.3953 40.2263 29.9731 40.3052C30.5509 40.3841 31.1386 40.2702 31.6453 39.9813C32.1521 39.6923 32.5497 39.2444 32.7767 38.7066C33.0037 38.1688 33.0476 37.5711 32.9014 37.0058C33.3319 36.9741 33.748 36.837 34.1131 36.6066C34.4783 36.3762 34.7813 36.0596 34.9956 35.6844C35.2098 35.3093 35.3288 34.8872 35.342 34.4553C35.3552 34.0233 35.2623 33.5948 35.0713 33.2072C35.5945 33.1093 36.0753 32.8535 36.4491 32.4741C36.4691 32.4608 36.4757 32.4408 36.4957 32.4275C37.1364 32.8504 37.9031 33.0396 38.6668 32.9631C39.4305 32.8867 40.1446 32.5493 40.689 32.0076C40.8149 31.8857 40.9831 31.8176 41.1582 31.8176C41.3334 31.8176 41.5016 31.8857 41.6275 32.0076C41.6894 32.0684 41.7384 32.141 41.7715 32.2212C41.8047 32.3013 41.8214 32.3874 41.8205 32.4741C41.8214 32.5619 41.8048 32.649 41.7716 32.7302C41.7385 32.8114 41.6895 32.8853 41.6275 32.9473L41.1549 33.4205C40.2822 34.2959 39.792 35.4823 39.792 36.7193C39.792 37.9562 40.2822 39.1426 41.1549 40.0181L41.6275 40.4846C41.6882 40.5478 41.7611 40.5981 41.8417 40.6325C41.9224 40.6669 42.0091 40.6846 42.0967 40.6846C42.1844 40.6846 42.2711 40.6669 42.3517 40.6325C42.4324 40.5981 42.5053 40.5478 42.566 40.4846C42.69 40.3597 42.7595 40.1908 42.7595 40.0147C42.7595 39.8387 42.69 39.6698 42.566 39.5449L42.1001 39.0717C41.4762 38.4469 41.1257 37.5995 41.1257 36.7159C41.1257 35.8324 41.4762 34.985 42.1001 34.3601L42.566 33.887C42.7516 33.7016 42.8989 33.4814 42.9994 33.239C43.0999 32.9965 43.1516 32.7366 43.1516 32.4741C43.1516 32.2117 43.0999 31.9517 42.9994 31.7093C42.8989 31.4669 42.7516 31.2467 42.566 31.0613C42.1855 30.6987 41.6802 30.4965 41.1549 30.4965C40.6296 30.4965 40.1244 30.6987 39.7438 31.0613C39.3694 31.4357 38.8619 31.646 38.3327 31.646C37.8036 31.646 37.2961 31.4357 36.9217 31.0613C36.7977 30.9365 36.7281 30.7676 36.7281 30.5915C36.7281 30.4154 36.7977 30.2465 36.9217 30.1217L40.2164 26.8229C40.4695 26.5791 40.807 26.4429 41.1582 26.4429C41.5094 26.4429 41.847 26.5791 42.1001 26.8229L45.082 29.8018C45.8268 30.5569 46.2978 31.5399 46.4198 32.5941L46.8991 36.8725C47.0669 38.3815 47.6969 39.8015 48.7029 40.9377L40.2164 49.4413Z"/>
</mask>
<path d="M25.691 42.777C25.6607 42.664 25.6013 42.561 25.5187 42.4783C25.4361 42.3956 25.3332 42.3361 25.2204 42.3058L21.5083 41.3102C21.3954 41.2799 21.2766 41.2799 21.1637 41.3102C21.0509 41.3405 20.9479 41.4001 20.8653 41.4828L18.1483 44.2038C18.0658 44.2865 18.0064 44.3894 17.9762 44.5023C17.9459 44.6151 17.9458 44.734 17.9759 44.8469L18.9704 48.5636C19.0006 48.6765 19.06 48.7795 19.1426 48.8623C19.2252 48.945 19.3281 49.0044 19.4409 49.0347L23.153 50.0304C23.209 50.0454 23.2668 50.0531 23.3247 50.053C23.5013 50.053 23.6705 49.9827 23.7953 49.8577L26.513 47.1374C26.5956 47.0547 26.6551 46.9517 26.6853 46.8387C26.7156 46.7257 26.7156 46.6067 26.6854 46.4936L25.691 42.777ZM23.1264 48.6415L20.1565 47.8418L19.3611 44.8762L21.5349 42.6997L24.5042 43.4994L25.3029 46.4723L23.1264 48.6415Z" fill="white"/>
<path d="M54.8064 43.3169L51.0391 39.5449C50.9772 39.4828 50.9034 39.4338 50.8223 39.4006C50.7411 39.3674 50.6542 39.3508 50.5666 39.3516C50.4799 39.3508 50.394 39.3675 50.3139 39.4007C50.2338 39.4339 50.1613 39.4829 50.1006 39.5449L49.648 39.9981C48.8505 39.0779 48.3514 37.9367 48.217 36.7259L47.7377 32.4475C47.5882 31.0933 46.9853 29.8296 46.0271 28.8621L45.8674 28.7022L46.726 27.8358C46.7867 27.772 46.8601 27.7218 46.9416 27.6885C47.0231 27.6551 47.1107 27.6395 47.1986 27.6426C48.4255 27.7188 49.6518 27.4839 50.764 26.9598C51.8762 26.4357 52.8384 25.6392 53.5617 24.644C54.2849 23.6488 54.7458 22.487 54.9017 21.2662C55.0577 20.0454 54.9035 18.8049 54.4537 17.6595C54.414 17.5559 54.349 17.4638 54.2648 17.3916C54.1805 17.3194 54.0795 17.2695 53.9711 17.2463C53.8626 17.2232 53.7501 17.2275 53.6438 17.2589C53.5374 17.2903 53.4406 17.3479 53.3621 17.4263L49.2886 21.5115L46.8125 21.1583L46.4598 18.6792L50.5399 14.6007C50.6182 14.5227 50.6756 14.4263 50.707 14.3204C50.7384 14.2144 50.7428 14.1023 50.7196 13.9942C50.6962 13.8854 50.6462 13.784 50.5742 13.6992C50.5022 13.6143 50.4104 13.5485 50.307 13.5077C49.163 13.0573 47.924 12.903 46.7047 13.0591C45.4854 13.2152 44.3251 13.6767 43.3311 14.4008C42.3371 15.125 41.5416 16.0884 41.0181 17.202C40.4947 18.3156 40.2601 19.5433 40.3362 20.7717C40.3377 20.8596 40.3214 20.9468 40.2882 21.0281C40.255 21.1095 40.2057 21.1832 40.1432 21.2449L37.3942 23.9972L35.5106 22.1113C35.1531 21.7494 34.6992 21.4982 34.2031 21.3875C33.707 21.2768 33.1895 21.3113 32.7124 21.4869C32.2353 21.6625 31.8187 21.9718 31.5124 22.3779C31.206 22.784 31.0227 23.2698 30.9845 23.7773C30.493 23.6483 29.9748 23.664 29.492 23.8225C29.0092 23.981 28.5823 24.2757 28.2626 24.6711C27.9429 25.0664 27.7439 25.5458 27.6895 26.0516C27.6351 26.5574 27.7277 27.0682 27.956 27.5226C27.4301 27.6116 26.9444 27.8606 26.5649 28.2357C26.2375 28.5652 26.0024 28.9751 25.8833 29.4242C25.7641 29.8734 25.765 30.3461 25.886 30.7948C25.3795 30.8292 24.8938 31.0094 24.4872 31.3137C24.0806 31.618 23.7704 32.0333 23.594 32.5099C23.4175 32.9864 23.3823 33.5038 23.4925 34C23.6027 34.4961 23.8537 34.9497 24.2153 35.3064L25.1538 36.2461L23.2435 38.1587C23.1817 38.2229 23.1071 38.2733 23.0245 38.3066C22.9419 38.3399 22.8532 38.3554 22.7643 38.352C22.6178 38.3453 22.4781 38.3453 22.325 38.3387C21.3635 38.3382 20.4113 38.5274 19.5228 38.8954C18.6344 39.2634 17.827 39.803 17.1468 40.4834C15.7731 41.8576 15.0009 43.7218 15 45.666C14.9991 47.6102 15.7697 49.4752 17.1421 50.8505C18.5146 52.2259 20.3765 52.9991 22.3183 53H22.3383C23.2994 52.9996 24.251 52.8098 25.1387 52.4411C26.0265 52.0725 26.8331 51.5324 27.5123 50.8517C28.1916 50.171 28.7303 49.3629 29.0977 48.4737C29.465 47.5845 29.6538 46.6316 29.6533 45.6693C29.6533 45.5227 29.6466 45.3761 29.64 45.2362C29.6357 45.147 29.6507 45.0579 29.684 44.9751C29.7173 44.8923 29.7682 44.8176 29.833 44.7563L31.7433 42.8437L39.2779 50.381L38.8053 50.8541C38.7424 50.9158 38.6924 50.9894 38.6581 51.0707C38.6239 51.1519 38.606 51.2391 38.6056 51.3273C38.606 51.4145 38.6239 51.5007 38.6582 51.5808C38.6925 51.661 38.7425 51.7334 38.8053 51.7938L39.7438 52.7401C39.8704 52.8634 40.0398 52.9327 40.2164 52.9334C40.3927 52.9314 40.5617 52.8623 40.689 52.7401C40.8137 52.6143 40.8837 52.4442 40.8837 52.2669C40.8837 52.0897 40.8137 51.9196 40.689 51.7938L40.2164 51.3273L50.5666 40.9577L53.8613 44.2565C53.987 44.3814 54.1568 44.4514 54.3339 44.4514C54.5109 44.4514 54.6808 44.3814 54.8064 44.2565C54.9304 44.1317 55 43.9627 55 43.7867C55 43.6106 54.9304 43.4417 54.8064 43.3169ZM41.0817 22.1846C41.2787 21.9913 41.4322 21.7581 41.5321 21.5007C41.6319 21.2433 41.6758 20.9675 41.6608 20.6918C41.606 19.777 41.7614 18.8618 42.1152 18.0166C42.4689 17.1714 43.0115 16.4186 43.7012 15.8162C44.391 15.2138 45.2095 14.7778 46.0939 14.5416C46.9783 14.3055 47.9049 14.2755 48.8027 14.454L45.2883 17.9728C45.2146 18.0458 45.1588 18.135 45.1253 18.2333C45.0918 18.3316 45.0815 18.4363 45.0953 18.5392L45.5679 21.838C45.5881 21.9811 45.6542 22.1137 45.7562 22.2159C45.8583 22.318 45.9907 22.3842 46.1336 22.4045L49.4284 22.8776C49.5312 22.8914 49.6358 22.8811 49.7339 22.8476C49.8321 22.814 49.9212 22.7582 49.9941 22.6844L53.5085 19.1657C53.6868 20.0645 53.6569 20.9923 53.421 21.8778C53.1852 22.7633 52.7497 23.5828 52.148 24.2734C51.5463 24.964 50.7945 25.5073 49.9503 25.8614C49.1062 26.2156 48.1921 26.3712 47.2785 26.3164C47.0031 26.3019 46.7278 26.3461 46.4708 26.446C46.2138 26.546 45.9809 26.6994 45.7875 26.8962L44.9222 27.7625L43.0386 25.8765C42.531 25.3917 41.8564 25.1213 41.1549 25.1213C40.4534 25.1213 39.7788 25.3917 39.2713 25.8765L38.3327 24.9369L41.0817 22.1846ZM32.6818 23.0509C32.9364 22.8102 33.2734 22.676 33.6236 22.676C33.9738 22.676 34.3108 22.8102 34.5654 23.0509L38.3327 26.8229L36.4491 28.7088L32.6818 24.9369C32.4339 24.6858 32.2949 24.347 32.2949 23.9939C32.2949 23.6408 32.4339 23.302 32.6818 23.0509ZM29.387 25.41C29.6401 25.1663 29.9777 25.0301 30.3289 25.0301C30.6801 25.0301 31.0176 25.1663 31.2707 25.41L35.5106 29.6485L35.5905 29.7485C35.4656 30.0119 35.4008 30.2999 35.4008 30.5915C35.4008 30.8831 35.4656 31.1711 35.5905 31.4345L35.5106 31.5345C35.2559 31.7752 34.919 31.9094 34.5688 31.9094C34.2185 31.9094 33.8816 31.7752 33.6269 31.5345L29.387 27.2894C29.2636 27.1661 29.1657 27.0196 29.0989 26.8584C29.0321 26.6971 28.9977 26.5243 28.9977 26.3497C28.9977 26.1751 29.0321 26.0023 29.0989 25.8411C29.1657 25.6798 29.2636 25.5334 29.387 25.41ZM27.51 29.1753C27.7594 28.9271 28.0968 28.7878 28.4485 28.7878C28.8002 28.7878 29.1376 28.9271 29.387 29.1753L32.6818 32.4741H32.6884L33.6269 33.4205C33.8767 33.6706 34.017 34.0098 34.017 34.3635C34.017 34.7171 33.8767 35.0564 33.6269 35.3064C33.3771 35.5565 33.0384 35.697 32.6851 35.697C32.3318 35.697 31.9931 35.5565 31.7433 35.3064L27.976 31.5345L27.51 31.0613C27.3863 30.9375 27.2881 30.7905 27.2211 30.6287C27.1541 30.4669 27.1196 30.2935 27.1196 30.1183C27.1196 29.9432 27.1541 29.7697 27.2211 29.6079C27.2881 29.4461 27.3863 29.2991 27.51 29.1753ZM24.7611 33.4205C24.7605 33.2445 24.795 33.0702 24.8624 32.9078C24.9298 32.7453 25.0289 32.5979 25.1538 32.4741C25.404 32.2273 25.741 32.0885 26.0923 32.0876C26.2676 32.0859 26.4415 32.1191 26.6038 32.1855C26.7661 32.2519 26.9135 32.35 27.0374 32.4741L30.8048 36.2461L31.2707 36.7193C31.5205 36.9694 31.6608 37.3086 31.6608 37.6623C31.6608 38.0159 31.5205 38.3551 31.2707 38.6052C31.0209 38.8553 30.6821 38.9958 30.3289 38.9958C29.9756 38.9958 29.6368 38.8553 29.387 38.6052L25.1538 34.3601C25.0295 34.2373 24.9308 34.091 24.8634 33.9297C24.796 33.7684 24.7612 33.5953 24.7611 33.4205ZM40.2164 49.4413L32.6818 41.904L39.7438 34.8333C39.8685 34.7075 39.9385 34.5374 39.9385 34.3601C39.9385 34.1829 39.8685 34.0128 39.7438 33.887C39.6191 33.7628 39.4504 33.6932 39.2746 33.6932C39.0987 33.6932 38.93 33.7628 38.8053 33.887L28.8878 43.8167C28.6916 44.0105 28.5386 44.2438 28.4388 44.501C28.339 44.7583 28.2947 45.0338 28.3088 45.3095C28.3154 45.4294 28.3221 45.5494 28.3221 45.6693C28.3221 47.2589 27.6918 48.7835 26.5699 49.9081C25.4479 51.0327 23.9259 51.6654 22.3383 51.6672H22.3183C20.7296 51.6663 19.2062 51.0335 18.0834 49.9081C16.9606 48.7826 16.3303 47.2567 16.3312 45.666C16.3321 44.0753 16.9641 42.5501 18.0881 41.4259C19.2122 40.3017 20.7362 39.6706 22.325 39.6715C22.4248 39.6715 22.5712 39.6782 22.6911 39.6849C22.9662 39.6974 23.2409 39.6523 23.4976 39.5525C23.7544 39.4527 23.9875 39.3003 24.182 39.1051L26.0923 37.1858L28.4485 39.5449C28.8595 39.9591 29.3953 40.2263 29.9731 40.3052C30.5509 40.3841 31.1386 40.2702 31.6453 39.9813C32.1521 39.6923 32.5497 39.2444 32.7767 38.7066C33.0037 38.1688 33.0476 37.5711 32.9014 37.0058C33.3319 36.9741 33.748 36.837 34.1131 36.6066C34.4783 36.3762 34.7813 36.0596 34.9956 35.6844C35.2098 35.3093 35.3288 34.8872 35.342 34.4553C35.3552 34.0233 35.2623 33.5948 35.0713 33.2072C35.5945 33.1093 36.0753 32.8535 36.4491 32.4741C36.4691 32.4608 36.4757 32.4408 36.4957 32.4275C37.1364 32.8504 37.9031 33.0396 38.6668 32.9631C39.4305 32.8867 40.1446 32.5493 40.689 32.0076C40.8149 31.8857 40.9831 31.8176 41.1582 31.8176C41.3334 31.8176 41.5016 31.8857 41.6275 32.0076C41.6894 32.0684 41.7384 32.141 41.7715 32.2212C41.8047 32.3013 41.8214 32.3874 41.8205 32.4741C41.8214 32.5619 41.8048 32.649 41.7716 32.7302C41.7385 32.8114 41.6895 32.8853 41.6275 32.9473L41.1549 33.4205C40.2822 34.2959 39.792 35.4823 39.792 36.7193C39.792 37.9562 40.2822 39.1426 41.1549 40.0181L41.6275 40.4846C41.6882 40.5478 41.7611 40.5981 41.8417 40.6325C41.9224 40.6669 42.0091 40.6846 42.0967 40.6846C42.1844 40.6846 42.2711 40.6669 42.3517 40.6325C42.4324 40.5981 42.5053 40.5478 42.566 40.4846C42.69 40.3597 42.7595 40.1908 42.7595 40.0147C42.7595 39.8387 42.69 39.6698 42.566 39.5449L42.1001 39.0717C41.4762 38.4469 41.1257 37.5995 41.1257 36.7159C41.1257 35.8324 41.4762 34.985 42.1001 34.3601L42.566 33.887C42.7516 33.7016 42.8989 33.4814 42.9994 33.239C43.0999 32.9965 43.1516 32.7366 43.1516 32.4741C43.1516 32.2117 43.0999 31.9517 42.9994 31.7093C42.8989 31.4669 42.7516 31.2467 42.566 31.0613C42.1855 30.6987 41.6802 30.4965 41.1549 30.4965C40.6296 30.4965 40.1244 30.6987 39.7438 31.0613C39.3694 31.4357 38.8619 31.646 38.3327 31.646C37.8036 31.646 37.2961 31.4357 36.9217 31.0613C36.7977 30.9365 36.7281 30.7676 36.7281 30.5915C36.7281 30.4154 36.7977 30.2465 36.9217 30.1217L40.2164 26.8229C40.4695 26.5791 40.807 26.4429 41.1582 26.4429C41.5094 26.4429 41.847 26.5791 42.1001 26.8229L45.082 29.8018C45.8268 30.5569 46.2978 31.5399 46.4198 32.5941L46.8991 36.8725C47.0669 38.3815 47.6969 39.8015 48.7029 40.9377L40.2164 49.4413Z" fill="white"/>
<path d="M25.691 42.777C25.6607 42.664 25.6013 42.561 25.5187 42.4783C25.4361 42.3956 25.3332 42.3361 25.2204 42.3058L21.5083 41.3102C21.3954 41.2799 21.2766 41.2799 21.1637 41.3102C21.0509 41.3405 20.9479 41.4001 20.8653 41.4828L18.1483 44.2038C18.0658 44.2865 18.0064 44.3894 17.9762 44.5023C17.9459 44.6151 17.9458 44.734 17.9759 44.8469L18.9704 48.5636C19.0006 48.6765 19.06 48.7795 19.1426 48.8623C19.2252 48.945 19.3281 49.0044 19.4409 49.0347L23.153 50.0304C23.209 50.0454 23.2668 50.0531 23.3247 50.053C23.5013 50.053 23.6705 49.9827 23.7953 49.8577L26.513 47.1374C26.5956 47.0547 26.6551 46.9517 26.6853 46.8387C26.7156 46.7257 26.7156 46.6067 26.6854 46.4936L25.691 42.777ZM23.1264 48.6415L20.1565 47.8418L19.3611 44.8762L21.5349 42.6997L24.5042 43.4994L25.3029 46.4723L23.1264 48.6415Z" stroke="#407BFF" stroke-width="0.2" mask="url(#path-2-inside-1)"/>
<path d="M54.8064 43.3169L51.0391 39.5449C50.9772 39.4828 50.9034 39.4338 50.8223 39.4006C50.7411 39.3674 50.6542 39.3508 50.5666 39.3516C50.4799 39.3508 50.394 39.3675 50.3139 39.4007C50.2338 39.4339 50.1613 39.4829 50.1006 39.5449L49.648 39.9981C48.8505 39.0779 48.3514 37.9367 48.217 36.7259L47.7377 32.4475C47.5882 31.0933 46.9853 29.8296 46.0271 28.8621L45.8674 28.7022L46.726 27.8358C46.7867 27.772 46.8601 27.7218 46.9416 27.6885C47.0231 27.6551 47.1107 27.6395 47.1986 27.6426C48.4255 27.7188 49.6518 27.4839 50.764 26.9598C51.8762 26.4357 52.8384 25.6392 53.5617 24.644C54.2849 23.6488 54.7458 22.487 54.9017 21.2662C55.0577 20.0454 54.9035 18.8049 54.4537 17.6595C54.414 17.5559 54.349 17.4638 54.2648 17.3916C54.1805 17.3194 54.0795 17.2695 53.9711 17.2463C53.8626 17.2232 53.7501 17.2275 53.6438 17.2589C53.5374 17.2903 53.4406 17.3479 53.3621 17.4263L49.2886 21.5115L46.8125 21.1583L46.4598 18.6792L50.5399 14.6007C50.6182 14.5227 50.6756 14.4263 50.707 14.3204C50.7384 14.2144 50.7428 14.1023 50.7196 13.9942C50.6962 13.8854 50.6462 13.784 50.5742 13.6992C50.5022 13.6143 50.4104 13.5485 50.307 13.5077C49.163 13.0573 47.924 12.903 46.7047 13.0591C45.4854 13.2152 44.3251 13.6767 43.3311 14.4008C42.3371 15.125 41.5416 16.0884 41.0181 17.202C40.4947 18.3156 40.2601 19.5433 40.3362 20.7717C40.3377 20.8596 40.3214 20.9468 40.2882 21.0281C40.255 21.1095 40.2057 21.1832 40.1432 21.2449L37.3942 23.9972L35.5106 22.1113C35.1531 21.7494 34.6992 21.4982 34.2031 21.3875C33.707 21.2768 33.1895 21.3113 32.7124 21.4869C32.2353 21.6625 31.8187 21.9718 31.5124 22.3779C31.206 22.784 31.0227 23.2698 30.9845 23.7773C30.493 23.6483 29.9748 23.664 29.492 23.8225C29.0092 23.981 28.5823 24.2757 28.2626 24.6711C27.9429 25.0664 27.7439 25.5458 27.6895 26.0516C27.6351 26.5574 27.7277 27.0682 27.956 27.5226C27.4301 27.6116 26.9444 27.8606 26.5649 28.2357C26.2375 28.5652 26.0024 28.9751 25.8833 29.4242C25.7641 29.8734 25.765 30.3461 25.886 30.7948C25.3795 30.8292 24.8938 31.0094 24.4872 31.3137C24.0806 31.618 23.7704 32.0333 23.594 32.5099C23.4175 32.9864 23.3823 33.5038 23.4925 34C23.6027 34.4961 23.8537 34.9497 24.2153 35.3064L25.1538 36.2461L23.2435 38.1587C23.1817 38.2229 23.1071 38.2733 23.0245 38.3066C22.9419 38.3399 22.8532 38.3554 22.7643 38.352C22.6178 38.3453 22.4781 38.3453 22.325 38.3387C21.3635 38.3382 20.4113 38.5274 19.5228 38.8954C18.6344 39.2634 17.827 39.803 17.1468 40.4834C15.7731 41.8576 15.0009 43.7218 15 45.666C14.9991 47.6102 15.7697 49.4752 17.1421 50.8505C18.5146 52.2259 20.3765 52.9991 22.3183 53H22.3383C23.2994 52.9996 24.251 52.8098 25.1387 52.4411C26.0265 52.0725 26.8331 51.5324 27.5123 50.8517C28.1916 50.171 28.7303 49.3629 29.0977 48.4737C29.465 47.5845 29.6538 46.6316 29.6533 45.6693C29.6533 45.5227 29.6466 45.3761 29.64 45.2362C29.6357 45.147 29.6507 45.0579 29.684 44.9751C29.7173 44.8923 29.7682 44.8176 29.833 44.7563L31.7433 42.8437L39.2779 50.381L38.8053 50.8541C38.7424 50.9158 38.6924 50.9894 38.6581 51.0707C38.6239 51.1519 38.606 51.2391 38.6056 51.3273C38.606 51.4145 38.6239 51.5007 38.6582 51.5808C38.6925 51.661 38.7425 51.7334 38.8053 51.7938L39.7438 52.7401C39.8704 52.8634 40.0398 52.9327 40.2164 52.9334C40.3927 52.9314 40.5617 52.8623 40.689 52.7401C40.8137 52.6143 40.8837 52.4442 40.8837 52.2669C40.8837 52.0897 40.8137 51.9196 40.689 51.7938L40.2164 51.3273L50.5666 40.9577L53.8613 44.2565C53.987 44.3814 54.1568 44.4514 54.3339 44.4514C54.5109 44.4514 54.6808 44.3814 54.8064 44.2565C54.9304 44.1317 55 43.9627 55 43.7867C55 43.6106 54.9304 43.4417 54.8064 43.3169ZM41.0817 22.1846C41.2787 21.9913 41.4322 21.7581 41.5321 21.5007C41.6319 21.2433 41.6758 20.9675 41.6608 20.6918C41.606 19.777 41.7614 18.8618 42.1152 18.0166C42.4689 17.1714 43.0115 16.4186 43.7012 15.8162C44.391 15.2138 45.2095 14.7778 46.0939 14.5416C46.9783 14.3055 47.9049 14.2755 48.8027 14.454L45.2883 17.9728C45.2146 18.0458 45.1588 18.135 45.1253 18.2333C45.0918 18.3316 45.0815 18.4363 45.0953 18.5392L45.5679 21.838C45.5881 21.9811 45.6542 22.1137 45.7562 22.2159C45.8583 22.318 45.9907 22.3842 46.1336 22.4045L49.4284 22.8776C49.5312 22.8914 49.6358 22.8811 49.7339 22.8476C49.8321 22.814 49.9212 22.7582 49.9941 22.6844L53.5085 19.1657C53.6868 20.0645 53.6569 20.9923 53.421 21.8778C53.1852 22.7633 52.7497 23.5828 52.148 24.2734C51.5463 24.964 50.7945 25.5073 49.9503 25.8614C49.1062 26.2156 48.1921 26.3712 47.2785 26.3164C47.0031 26.3019 46.7278 26.3461 46.4708 26.446C46.2138 26.546 45.9809 26.6994 45.7875 26.8962L44.9222 27.7625L43.0386 25.8765C42.531 25.3917 41.8564 25.1213 41.1549 25.1213C40.4534 25.1213 39.7788 25.3917 39.2713 25.8765L38.3327 24.9369L41.0817 22.1846ZM32.6818 23.0509C32.9364 22.8102 33.2734 22.676 33.6236 22.676C33.9738 22.676 34.3108 22.8102 34.5654 23.0509L38.3327 26.8229L36.4491 28.7088L32.6818 24.9369C32.4339 24.6858 32.2949 24.347 32.2949 23.9939C32.2949 23.6408 32.4339 23.302 32.6818 23.0509ZM29.387 25.41C29.6401 25.1663 29.9777 25.0301 30.3289 25.0301C30.6801 25.0301 31.0176 25.1663 31.2707 25.41L35.5106 29.6485L35.5905 29.7485C35.4656 30.0119 35.4008 30.2999 35.4008 30.5915C35.4008 30.8831 35.4656 31.1711 35.5905 31.4345L35.5106 31.5345C35.2559 31.7752 34.919 31.9094 34.5688 31.9094C34.2185 31.9094 33.8816 31.7752 33.6269 31.5345L29.387 27.2894C29.2636 27.1661 29.1657 27.0196 29.0989 26.8584C29.0321 26.6971 28.9977 26.5243 28.9977 26.3497C28.9977 26.1751 29.0321 26.0023 29.0989 25.8411C29.1657 25.6798 29.2636 25.5334 29.387 25.41ZM27.51 29.1753C27.7594 28.9271 28.0968 28.7878 28.4485 28.7878C28.8002 28.7878 29.1376 28.9271 29.387 29.1753L32.6818 32.4741H32.6884L33.6269 33.4205C33.8767 33.6706 34.017 34.0098 34.017 34.3635C34.017 34.7171 33.8767 35.0564 33.6269 35.3064C33.3771 35.5565 33.0384 35.697 32.6851 35.697C32.3318 35.697 31.9931 35.5565 31.7433 35.3064L27.976 31.5345L27.51 31.0613C27.3863 30.9375 27.2881 30.7905 27.2211 30.6287C27.1541 30.4669 27.1196 30.2935 27.1196 30.1183C27.1196 29.9432 27.1541 29.7697 27.2211 29.6079C27.2881 29.4461 27.3863 29.2991 27.51 29.1753ZM24.7611 33.4205C24.7605 33.2445 24.795 33.0702 24.8624 32.9078C24.9298 32.7453 25.0289 32.5979 25.1538 32.4741C25.404 32.2273 25.741 32.0885 26.0923 32.0876C26.2676 32.0859 26.4415 32.1191 26.6038 32.1855C26.7661 32.2519 26.9135 32.35 27.0374 32.4741L30.8048 36.2461L31.2707 36.7193C31.5205 36.9694 31.6608 37.3086 31.6608 37.6623C31.6608 38.0159 31.5205 38.3551 31.2707 38.6052C31.0209 38.8553 30.6821 38.9958 30.3289 38.9958C29.9756 38.9958 29.6368 38.8553 29.387 38.6052L25.1538 34.3601C25.0295 34.2373 24.9308 34.091 24.8634 33.9297C24.796 33.7684 24.7612 33.5953 24.7611 33.4205ZM40.2164 49.4413L32.6818 41.904L39.7438 34.8333C39.8685 34.7075 39.9385 34.5374 39.9385 34.3601C39.9385 34.1829 39.8685 34.0128 39.7438 33.887C39.6191 33.7628 39.4504 33.6932 39.2746 33.6932C39.0987 33.6932 38.93 33.7628 38.8053 33.887L28.8878 43.8167C28.6916 44.0105 28.5386 44.2438 28.4388 44.501C28.339 44.7583 28.2947 45.0338 28.3088 45.3095C28.3154 45.4294 28.3221 45.5494 28.3221 45.6693C28.3221 47.2589 27.6918 48.7835 26.5699 49.9081C25.4479 51.0327 23.9259 51.6654 22.3383 51.6672H22.3183C20.7296 51.6663 19.2062 51.0335 18.0834 49.9081C16.9606 48.7826 16.3303 47.2567 16.3312 45.666C16.3321 44.0753 16.9641 42.5501 18.0881 41.4259C19.2122 40.3017 20.7362 39.6706 22.325 39.6715C22.4248 39.6715 22.5712 39.6782 22.6911 39.6849C22.9662 39.6974 23.2409 39.6523 23.4976 39.5525C23.7544 39.4527 23.9875 39.3003 24.182 39.1051L26.0923 37.1858L28.4485 39.5449C28.8595 39.9591 29.3953 40.2263 29.9731 40.3052C30.5509 40.3841 31.1386 40.2702 31.6453 39.9813C32.1521 39.6923 32.5497 39.2444 32.7767 38.7066C33.0037 38.1688 33.0476 37.5711 32.9014 37.0058C33.3319 36.9741 33.748 36.837 34.1131 36.6066C34.4783 36.3762 34.7813 36.0596 34.9956 35.6844C35.2098 35.3093 35.3288 34.8872 35.342 34.4553C35.3552 34.0233 35.2623 33.5948 35.0713 33.2072C35.5945 33.1093 36.0753 32.8535 36.4491 32.4741C36.4691 32.4608 36.4757 32.4408 36.4957 32.4275C37.1364 32.8504 37.9031 33.0396 38.6668 32.9631C39.4305 32.8867 40.1446 32.5493 40.689 32.0076C40.8149 31.8857 40.9831 31.8176 41.1582 31.8176C41.3334 31.8176 41.5016 31.8857 41.6275 32.0076C41.6894 32.0684 41.7384 32.141 41.7715 32.2212C41.8047 32.3013 41.8214 32.3874 41.8205 32.4741C41.8214 32.5619 41.8048 32.649 41.7716 32.7302C41.7385 32.8114 41.6895 32.8853 41.6275 32.9473L41.1549 33.4205C40.2822 34.2959 39.792 35.4823 39.792 36.7193C39.792 37.9562 40.2822 39.1426 41.1549 40.0181L41.6275 40.4846C41.6882 40.5478 41.7611 40.5981 41.8417 40.6325C41.9224 40.6669 42.0091 40.6846 42.0967 40.6846C42.1844 40.6846 42.2711 40.6669 42.3517 40.6325C42.4324 40.5981 42.5053 40.5478 42.566 40.4846C42.69 40.3597 42.7595 40.1908 42.7595 40.0147C42.7595 39.8387 42.69 39.6698 42.566 39.5449L42.1001 39.0717C41.4762 38.4469 41.1257 37.5995 41.1257 36.7159C41.1257 35.8324 41.4762 34.985 42.1001 34.3601L42.566 33.887C42.7516 33.7016 42.8989 33.4814 42.9994 33.239C43.0999 32.9965 43.1516 32.7366 43.1516 32.4741C43.1516 32.2117 43.0999 31.9517 42.9994 31.7093C42.8989 31.4669 42.7516 31.2467 42.566 31.0613C42.1855 30.6987 41.6802 30.4965 41.1549 30.4965C40.6296 30.4965 40.1244 30.6987 39.7438 31.0613C39.3694 31.4357 38.8619 31.646 38.3327 31.646C37.8036 31.646 37.2961 31.4357 36.9217 31.0613C36.7977 30.9365 36.7281 30.7676 36.7281 30.5915C36.7281 30.4154 36.7977 30.2465 36.9217 30.1217L40.2164 26.8229C40.4695 26.5791 40.807 26.4429 41.1582 26.4429C41.5094 26.4429 41.847 26.5791 42.1001 26.8229L45.082 29.8018C45.8268 30.5569 46.2978 31.5399 46.4198 32.5941L46.8991 36.8725C47.0669 38.3815 47.6969 39.8015 48.7029 40.9377L40.2164 49.4413Z" stroke="#407BFF" stroke-width="0.2" mask="url(#path-2-inside-1)"/>
</svg>
