<svg width="71" height="71" viewBox="0 0 71 71" fill="none" xmlns="http://www.w3.org/2000/svg">
<circle cx="35.5" cy="35.5" r="35.5" fill="#407BFF"/>
<path d="M48.2932 39.7684C49.7636 40.7238 50.4583 43.5432 50.6029 44.5512L51.6994 51.9525L52.8451 51.818L51.7495 44.408C51.7264 44.2442 51.1463 40.3409 48.9773 38.9407C48.2508 38.5061 47.4722 38.1448 46.6551 37.8646C46.6059 37.831 46.5529 37.8043 46.4942 37.7862L46.0172 37.6353C45.2964 37.3861 44.5439 37.1533 43.8212 36.9515L43.3751 36.8118C43.3307 36.7972 43.2855 36.7886 43.2382 36.7843C42.0299 36.442 40.969 36.1893 40.4005 36.0565V34.9253C42.1263 33.8217 43.1515 32.0403 43.1496 30.1425V29.2717C43.3423 29.3346 43.5456 29.3674 43.7489 29.37C44.7135 29.37 45.4949 28.6707 45.4949 27.8076V26.4143C45.4949 26.0358 45.3388 25.671 45.0584 25.39C45.2444 25.1244 45.3388 24.8157 45.3311 24.5036V23.9087C45.3581 23.475 45.2049 23.0473 44.9023 22.7067C44.7453 22.5601 44.5439 22.455 44.3223 22.4058C44.1854 20.9943 43.4367 16.8505 39.4427 15.2312H39.408C38.3674 14.832 37.2506 14.6182 36.1203 14.6018H35.7879C34.7067 14.582 33.6304 14.7337 32.6071 15.0493H32.5801C28.1573 16.5047 27.3604 20.9271 27.2351 22.392C27.0126 22.4412 26.8102 22.5455 26.6541 22.6929C26.3371 23.0292 26.1714 23.4577 26.1916 23.8957V24.5079C26.1829 24.82 26.2774 25.1278 26.4624 25.3917C26.1839 25.6754 26.0268 26.0401 26.0268 26.4186V27.8145C26.0268 28.6776 26.8092 29.376 27.7728 29.376C27.9781 29.376 28.1795 29.3424 28.3712 29.2777V30.152C28.3751 32.0282 29.3781 33.7898 31.0721 34.8951V36.0565C29.0293 36.5333 27.0164 37.1119 25.0459 37.7922H25.0199C24.1469 38.0845 23.3144 38.4665 22.5367 38.9269C20.3677 40.3409 19.7886 44.2399 19.7645 44.3951L18.6689 51.8094L19.8146 51.9422L20.9102 44.5279C21.0567 43.5225 21.7495 40.7065 23.2016 39.7434C23.6632 39.4684 24.1527 39.2338 24.6643 39.0424V43.4837C23.8202 43.7614 22.7555 44.5382 22.7555 46.1782V51.8878C22.7555 52.1698 23.0108 52.4 23.3278 52.4H48.2132C48.5302 52.4 48.7846 52.1698 48.7846 51.8878V46.1877C48.7846 44.5477 47.7131 43.7717 46.8757 43.4949V39.0536C47.3739 39.2502 47.847 39.4899 48.2932 39.7684ZM44.3598 26.4143V27.812C44.3348 28.1068 44.0448 28.3276 43.7152 28.3043C43.4223 28.2827 43.1891 28.0741 43.165 27.812V26.4143C43.14 26.1185 43.3847 25.8607 43.7152 25.8357C44.0448 25.8125 44.3348 26.0332 44.3598 26.3281C44.3637 26.3565 44.3637 26.3858 44.3598 26.4143ZM36.5703 15.6511C37.267 15.6986 37.954 15.8339 38.6102 16.0495V18.6439C38.138 19.2518 37.3932 19.6424 36.5703 19.7131V15.6511ZM33.3857 15.9072C34.0486 15.7374 34.7337 15.6434 35.4256 15.627V19.7269C34.6027 19.6562 33.8559 19.2647 33.3857 18.6569V15.9072ZM28.3568 27.8076C28.3307 28.1025 28.0407 28.3241 27.7121 28.3C27.4192 28.2801 27.186 28.0715 27.1619 27.8076V26.4143C27.1349 26.1185 27.3816 25.8607 27.7121 25.8357C28.0407 25.8125 28.3307 26.0332 28.3568 26.3281C28.3596 26.3565 28.3596 26.3858 28.3568 26.4143V27.8076ZM27.7574 24.8493C27.6485 24.8493 27.5425 24.8588 27.4375 24.8761C27.3488 24.77 27.3065 24.6364 27.3219 24.5036V23.8828C27.3151 23.7198 27.3604 23.5595 27.4558 23.4206C27.478 23.4043 27.5069 23.3982 27.5367 23.4017H27.7574C28.0735 23.4017 28.3307 23.1715 28.3307 22.8878C28.3307 22.649 28.4059 18.1033 32.2371 16.3194V18.781C32.2371 18.8569 32.2563 18.931 32.293 18.9992C32.3325 19.0707 33.2662 20.7762 35.9931 20.7762C38.7191 20.7762 39.6566 19.0681 39.6942 18.9992C39.7289 18.931 39.7491 18.8569 39.7462 18.781V16.566C43.1043 18.4836 43.1843 22.6584 43.1843 22.8878C43.1843 23.1715 43.4416 23.4017 43.7566 23.4017H43.9783C44.0351 23.4017 44.0476 23.4017 44.0582 23.4206C44.1556 23.5629 44.2009 23.7267 44.1922 23.894V24.5036C44.2076 24.6381 44.1633 24.7726 44.0698 24.8761C43.508 24.7769 42.927 24.9356 42.5242 25.3012H28.9975C28.669 25.0089 28.2228 24.8485 27.7613 24.8528L27.7574 24.8493ZM29.5024 30.152V26.3263H42.027V30.152C42.0222 32.8387 39.5872 35.0132 36.5857 35.0107H34.9361C31.9374 35.0098 29.5063 32.8361 29.5024 30.152ZM39.2693 35.5202V36.2781L35.757 40.297L32.2053 36.2781V35.4987C33.0619 35.8548 33.9937 36.0384 34.9361 36.0393H36.5857C37.5117 36.0393 38.4271 35.8617 39.2693 35.5202ZM28.8954 37.6767C29.9871 37.3783 30.9276 37.1507 31.4151 37.0369L35.7647 41.9576L40.0652 37.0369C40.5595 37.1533 41.5154 37.3783 42.6312 37.6896V43.5596H28.8829L28.8954 37.6767ZM47.6408 46.1877V51.3843H23.9002V46.1877C23.9002 44.6408 25.1798 44.4184 25.3167 44.3968C25.6009 44.3615 25.81 44.1442 25.81 43.889V38.626C26.4392 38.407 27.108 38.1992 27.7574 38.0112V44.0726C27.7574 44.3563 28.0137 44.5865 28.3307 44.5865H43.2219C43.5379 44.5865 43.7952 44.3563 43.7952 44.0726V38.0215L45.7233 38.626V43.889C45.7233 44.1451 45.9363 44.3641 46.2195 44.3968C46.2783 44.4037 47.6408 44.5865 47.6408 46.1877Z" fill="white"/>
<path d="M25.2261 45.542H28.3182V46.4611H25.2261V45.542Z" fill="white"/>
<path d="M43.2031 45.542H46.2972V46.4611H43.2031V45.542Z" fill="white"/>
</svg>
