<svg width="71" height="71" viewBox="0 0 71 71" fill="none" xmlns="http://www.w3.org/2000/svg">
<circle cx="35.5" cy="35.5" r="35.5" fill="#407BFF"/>
<path d="M51.2475 19.8815C51.1742 19.8292 51.0894 19.7948 51.0001 19.7813C50.9107 19.7677 50.8194 19.7754 50.7337 19.8035L46.3865 21.2375C45.8978 20.131 45.0937 19.1895 44.0727 18.5284C43.0516 17.8673 41.858 17.5151 40.6378 17.5151C39.4177 17.5151 38.224 17.8673 37.203 18.5284C36.182 19.1895 35.3779 20.131 34.8892 21.2375L30.5426 19.8035V19.8069C30.426 19.7671 30.2996 19.7659 30.1823 19.8035L19.9067 23.1935C19.7928 23.2309 19.6938 23.3028 19.6236 23.3991C19.5534 23.4953 19.5156 23.611 19.5156 23.7297V50.8497C19.5156 50.9995 19.5758 51.1432 19.6828 51.2492C19.7899 51.3552 19.9351 51.4147 20.0865 51.4147C20.1478 51.4146 20.2087 51.4049 20.2669 51.3859L30.3622 48.0552L40.4574 51.3859C40.5744 51.4251 40.7012 51.4251 40.8182 51.3859L51.0939 47.9959C51.2076 47.9584 51.3065 47.8864 51.3766 47.7902C51.4467 47.694 51.4844 47.5783 51.4844 47.4597V20.3397C51.4844 20.2502 51.4629 20.162 51.4217 20.0824C51.3805 20.0027 51.3208 19.9339 51.2475 19.8815ZM40.6378 18.6447C42 18.6464 43.3058 19.1826 44.269 20.1359C45.2322 21.0892 45.774 22.3816 45.7757 23.7297C45.7757 25.918 42.3921 30.382 40.6378 32.4635C38.883 30.3826 35.5 25.9191 35.5 23.7297C35.5017 22.3816 36.0435 21.0892 37.0067 20.1359C37.9698 19.1826 39.2757 18.6464 40.6378 18.6447ZM20.6574 50.066V43.3471L21.3498 43.1211C21.4211 43.0977 21.4869 43.0606 21.5437 43.012C21.6004 42.9634 21.6469 42.9042 21.6806 42.8378C21.7142 42.7714 21.7343 42.6991 21.7397 42.625C21.7451 42.551 21.7357 42.4765 21.712 42.4061C21.6884 42.3356 21.6509 42.2704 21.6018 42.2142C21.5527 42.1581 21.4929 42.112 21.4258 42.0787C21.3588 42.0454 21.2857 42.0256 21.2109 42.0202C21.136 42.0149 21.0608 42.0242 20.9896 42.0476L20.6574 42.156V24.1371L29.7913 21.1234V39.1423L29.6543 39.1875C29.5281 39.2274 29.4199 39.3096 29.3485 39.42C29.2771 39.5304 29.2469 39.662 29.2632 39.7921C29.2794 39.9222 29.3411 40.0426 29.4375 40.1325C29.534 40.2223 29.6591 40.276 29.7913 40.2842V47.0523L20.6574 50.066ZM41.2087 50.066V43.3471L41.9012 43.1211C41.9724 43.0977 42.0383 43.0606 42.095 43.012C42.1517 42.9634 42.1983 42.9042 42.2319 42.8378C42.2655 42.7714 42.2856 42.6991 42.291 42.625C42.2964 42.551 42.287 42.4765 42.2634 42.4061C42.2397 42.3356 42.2023 42.2704 42.1532 42.2142C42.1041 42.1581 42.0443 42.112 41.9772 42.0787C41.9101 42.0454 41.8371 42.0256 41.7622 42.0202C41.6874 42.0149 41.6122 42.0242 41.541 42.0476L41.2087 42.156V35.5947C41.2087 35.4449 41.1486 35.3011 41.0415 35.1952C40.9344 35.0892 40.7892 35.0297 40.6378 35.0297C40.4864 35.0297 40.3412 35.0892 40.2342 35.1952C40.1271 35.3011 40.067 35.4449 40.067 35.5947V42.2018C39.9352 42.2114 39.8109 42.2659 39.7152 42.356C39.6195 42.4462 39.5583 42.5664 39.5422 42.6962C39.526 42.8259 39.5558 42.9573 39.6265 43.0677C39.6973 43.1782 39.8045 43.2609 39.93 43.3019L40.067 43.3471V50.0655L30.933 47.0523V40.3334L31.2653 40.443C31.4091 40.4902 31.566 40.479 31.7015 40.4118C31.837 40.3446 31.94 40.2268 31.9877 40.0845C32.0355 39.9421 32.0242 39.7868 31.9562 39.6527C31.8883 39.5186 31.7693 39.4167 31.6255 39.3695L30.933 39.1423V21.1239L34.5295 22.3104C34.4172 22.7754 34.3597 23.2517 34.3583 23.7297C34.3583 27.0242 39.9688 33.4347 40.2074 33.7059C40.261 33.7668 40.3271 33.8156 40.4014 33.849C40.4756 33.8825 40.5563 33.8998 40.6378 33.8998C40.7194 33.8998 40.8 33.8825 40.8743 33.849C40.9485 33.8156 41.0147 33.7668 41.0683 33.7059C41.3069 33.4347 46.9174 27.0242 46.9174 23.7297C46.9159 23.2517 46.8585 22.7754 46.7461 22.3104L50.3426 21.1239V39.1423L50.2056 39.1875C50.0794 39.2274 49.9713 39.3096 49.8999 39.42C49.8284 39.5304 49.7982 39.662 49.8145 39.7921C49.8307 39.9222 49.8924 40.0426 49.9889 40.1325C50.0853 40.2223 50.2104 40.276 50.3426 40.2842V47.0523L41.2087 50.066Z" fill="white"/>
<path d="M42.9215 23.1643C42.9215 22.7173 42.7875 22.2804 42.5366 21.9087C42.2857 21.5371 41.9291 21.2474 41.5118 21.0763C41.0946 20.9053 40.6354 20.8605 40.1925 20.9477C39.7495 21.0349 39.3427 21.2502 39.0233 21.5662C38.704 21.8823 38.4865 22.285 38.3984 22.7234C38.3103 23.1618 38.3555 23.6162 38.5283 24.0292C38.7011 24.4421 38.9938 24.7951 39.3693 25.0434C39.7449 25.2917 40.1863 25.4243 40.638 25.4243C41.2436 25.4243 41.8244 25.1862 42.2526 24.7624C42.6809 24.3385 42.9215 23.7637 42.9215 23.1643ZM39.4962 23.1643C39.4962 22.9408 39.5632 22.7223 39.6887 22.5365C39.8141 22.3507 39.9924 22.2058 40.2011 22.1203C40.4097 22.0348 40.6392 22.0124 40.8607 22.056C41.0822 22.0996 41.2856 22.2072 41.4453 22.3653C41.605 22.5233 41.7137 22.7246 41.7578 22.9438C41.8018 23.163 41.7792 23.3902 41.6928 23.5967C41.6064 23.8032 41.4601 23.9797 41.2723 24.1039C41.0845 24.228 40.8638 24.2943 40.638 24.2943C40.3352 24.2943 40.0448 24.1752 39.8306 23.9633C39.6165 23.7514 39.4962 23.464 39.4962 23.1643Z" fill="white"/>
<path d="M42.9215 23.1643C42.9215 22.7173 42.7875 22.2804 42.5366 21.9087C42.2857 21.5371 41.9291 21.2474 41.5118 21.0763C41.0946 20.9053 40.6354 20.8605 40.1925 20.9477C39.7495 21.0349 39.3427 21.2502 39.0233 21.5662C38.704 21.8823 38.4865 22.285 38.3984 22.7234C38.3103 23.1618 38.3555 23.6162 38.5283 24.0292C38.7011 24.4421 38.9938 24.7951 39.3693 25.0434C39.7449 25.2917 40.1863 25.4243 40.638 25.4243C41.2436 25.4243 41.8244 25.1862 42.2526 24.7624C42.6809 24.3385 42.9215 23.7637 42.9215 23.1643ZM39.4962 23.1643C39.4962 22.9408 39.5632 22.7223 39.6887 22.5365C39.8141 22.3507 39.9924 22.2058 40.2011 22.1203C40.4097 22.0348 40.6392 22.0124 40.8607 22.056C41.0822 22.0996 41.2856 22.2072 41.4453 22.3653C41.605 22.5233 41.7137 22.7246 41.7578 22.9438C41.8018 23.163 41.7792 23.3902 41.6928 23.5967C41.6064 23.8032 41.4601 23.9797 41.2723 24.1039C41.0845 24.228 40.8638 24.2943 40.638 24.2943C40.3352 24.2943 40.0448 24.1752 39.8306 23.9633C39.6165 23.7514 39.4962 23.464 39.4962 23.1643Z" stroke="white"/>
<path d="M48.0398 39.902L46.9551 40.2591C46.8839 40.2826 46.818 40.3197 46.7613 40.3683C46.7046 40.4169 46.6581 40.4762 46.6245 40.5426C46.5909 40.609 46.5708 40.6813 46.5654 40.7554C46.5601 40.8295 46.5695 40.9039 46.5932 40.9744C46.6169 41.0449 46.6544 41.1101 46.7035 41.1662C46.7526 41.2224 46.8125 41.2684 46.8796 41.3017C46.9467 41.3349 47.0198 41.3548 47.0946 41.3601C47.1695 41.3654 47.2447 41.3561 47.3159 41.3326L48.4006 40.975C48.5444 40.9276 48.6633 40.8257 48.7312 40.6915C48.7991 40.5574 48.8103 40.402 48.7625 40.2597C48.7146 40.1173 48.6116 39.9996 48.4761 39.9324C48.3406 39.8653 48.1836 39.8541 48.0398 39.9015V39.902Z" fill="white"/>
<path d="M48.0398 39.902L46.9551 40.2591C46.8839 40.2826 46.818 40.3197 46.7613 40.3683C46.7046 40.4169 46.6581 40.4762 46.6245 40.5426C46.5909 40.609 46.5708 40.6813 46.5654 40.7554C46.5601 40.8295 46.5695 40.9039 46.5932 40.9744C46.6169 41.0449 46.6544 41.1101 46.7035 41.1662C46.7526 41.2224 46.8125 41.2684 46.8796 41.3017C46.9467 41.3349 47.0198 41.3548 47.0946 41.3601C47.1695 41.3654 47.2447 41.3561 47.3159 41.3326L48.4006 40.975C48.5444 40.9276 48.6633 40.8257 48.7312 40.6915C48.7991 40.5574 48.8103 40.402 48.7625 40.2597C48.7146 40.1173 48.6116 39.9996 48.4761 39.9324C48.3406 39.8653 48.1836 39.8541 48.0398 39.9015V39.902Z" stroke="white"/>
<path d="M44.7898 40.9737L43.7051 41.3313C43.5613 41.3787 43.4423 41.4806 43.3745 41.6148C43.3066 41.7489 43.2953 41.9042 43.3432 42.0466C43.391 42.1889 43.494 42.3067 43.6296 42.3738C43.7651 42.441 43.9221 42.4522 44.0659 42.4048L45.1506 42.0477C45.2944 42.0004 45.4133 41.8984 45.4812 41.7643C45.5491 41.6301 45.5603 41.4748 45.5125 41.3324C45.4646 41.1901 45.3616 41.0724 45.2261 41.0052C45.0905 40.938 44.9336 40.9269 44.7898 40.9742V40.9737Z" fill="white"/>
<path d="M44.7898 40.9737L43.7051 41.3313C43.5613 41.3787 43.4423 41.4806 43.3745 41.6148C43.3066 41.7489 43.2953 41.9042 43.3432 42.0466C43.391 42.1889 43.494 42.3067 43.6296 42.3738C43.7651 42.441 43.9221 42.4522 44.0659 42.4048L45.1506 42.0477C45.2944 42.0004 45.4133 41.8984 45.4812 41.7643C45.5491 41.6301 45.5603 41.4748 45.5125 41.3324C45.4646 41.1901 45.3616 41.0724 45.2261 41.0052C45.0905 40.938 44.9336 40.9269 44.7898 40.9742V40.9737Z" stroke="white"/>
<path d="M38.1261 41.515L37.0415 41.1573C36.8977 41.11 36.7407 41.1211 36.6052 41.1883C36.4696 41.2555 36.3666 41.3732 36.3188 41.5155C36.2709 41.6579 36.2822 41.8132 36.3501 41.9474C36.4179 42.0815 36.5369 42.1835 36.6807 42.2308L37.7654 42.5879C37.9092 42.6353 38.0661 42.6241 38.2017 42.557C38.3372 42.4898 38.4402 42.3721 38.4881 42.2297C38.5359 42.0873 38.5247 41.932 38.4568 41.7979C38.3889 41.6637 38.27 41.5618 38.1261 41.5144V41.515Z" fill="white"/>
<path d="M38.1261 41.515L37.0415 41.1573C36.8977 41.11 36.7407 41.1211 36.6052 41.1883C36.4696 41.2555 36.3666 41.3732 36.3188 41.5155C36.2709 41.6579 36.2822 41.8132 36.3501 41.9474C36.4179 42.0815 36.5369 42.1835 36.6807 42.2308L37.7654 42.5879C37.9092 42.6353 38.0661 42.6241 38.2017 42.557C38.3372 42.4898 38.4402 42.3721 38.4881 42.2297C38.5359 42.0873 38.5247 41.932 38.4568 41.7979C38.3889 41.6637 38.27 41.5618 38.1261 41.5144V41.515Z" stroke="white"/>
<path d="M34.8747 40.4426L33.79 40.0856C33.7188 40.0621 33.6436 40.0528 33.5688 40.0581C33.4939 40.0634 33.4208 40.0833 33.3537 40.1165C33.2866 40.1498 33.2268 40.1958 33.1776 40.2519C33.1285 40.3081 33.091 40.3733 33.0673 40.4438C33.0436 40.5143 33.0342 40.5887 33.0395 40.6628C33.0449 40.7369 33.065 40.8092 33.0986 40.8756C33.1322 40.942 33.1787 41.0012 33.2354 41.0499C33.2922 41.0985 33.358 41.1356 33.4292 41.1591L34.5139 41.5167C34.5851 41.5401 34.6603 41.5495 34.7352 41.5442C34.81 41.5389 34.8831 41.519 34.9502 41.4857C35.0173 41.4525 35.0772 41.4065 35.1263 41.3503C35.1754 41.2942 35.2129 41.229 35.2366 41.1585C35.2603 41.088 35.2697 41.0136 35.2644 40.9395C35.259 40.8654 35.2389 40.7931 35.2053 40.7267C35.1717 40.6602 35.1252 40.601 35.0685 40.5524C35.0118 40.5037 34.9459 40.4666 34.8747 40.4432V40.4426Z" fill="white"/>
<path d="M34.8747 40.4426L33.79 40.0856C33.7188 40.0621 33.6436 40.0528 33.5688 40.0581C33.4939 40.0634 33.4208 40.0833 33.3537 40.1165C33.2866 40.1498 33.2268 40.1958 33.1776 40.2519C33.1285 40.3081 33.091 40.3733 33.0673 40.4438C33.0436 40.5143 33.0342 40.5887 33.0395 40.6628C33.0449 40.7369 33.065 40.8092 33.0986 40.8756C33.1322 40.942 33.1787 41.0012 33.2354 41.0499C33.2922 41.0985 33.358 41.1356 33.4292 41.1591L34.5139 41.5167C34.5851 41.5401 34.6603 41.5495 34.7352 41.5442C34.81 41.5389 34.8831 41.519 34.9502 41.4857C35.0173 41.4525 35.0772 41.4065 35.1263 41.3503C35.1754 41.2942 35.2129 41.229 35.2366 41.1585C35.2603 41.088 35.2697 41.0136 35.2644 40.9395C35.259 40.8654 35.2389 40.7931 35.2053 40.7267C35.1717 40.6602 35.1252 40.601 35.0685 40.5524C35.0118 40.5037 34.9459 40.4666 34.8747 40.4432V40.4426Z" stroke="white"/>
<path d="M27.4885 39.902L26.4038 40.2591C26.3326 40.2826 26.2668 40.3197 26.21 40.3683C26.1533 40.4169 26.1068 40.4762 26.0732 40.5426C26.0396 40.609 26.0195 40.6813 26.0142 40.7554C26.0088 40.8295 26.0182 40.9039 26.0419 40.9744C26.0656 41.0449 26.1031 41.1101 26.1522 41.1662C26.2014 41.2224 26.2612 41.2684 26.3283 41.3017C26.3954 41.3349 26.4685 41.3548 26.5434 41.3601C26.6182 41.3654 26.6934 41.3561 26.7646 41.3326L27.8493 40.975C27.9931 40.9276 28.1121 40.8257 28.1799 40.6915C28.2478 40.5574 28.2591 40.402 28.2112 40.2597C28.1634 40.1173 28.0604 39.9996 27.9248 39.9324C27.7893 39.8653 27.6323 39.8541 27.4885 39.9015V39.902Z" fill="white"/>
<path d="M27.4885 39.902L26.4038 40.2591C26.3326 40.2826 26.2668 40.3197 26.21 40.3683C26.1533 40.4169 26.1068 40.4762 26.0732 40.5426C26.0396 40.609 26.0195 40.6813 26.0142 40.7554C26.0088 40.8295 26.0182 40.9039 26.0419 40.9744C26.0656 41.0449 26.1031 41.1101 26.1522 41.1662C26.2014 41.2224 26.2612 41.2684 26.3283 41.3017C26.3954 41.3349 26.4685 41.3548 26.5434 41.3601C26.6182 41.3654 26.6934 41.3561 26.7646 41.3326L27.8493 40.975C27.9931 40.9276 28.1121 40.8257 28.1799 40.6915C28.2478 40.5574 28.2591 40.402 28.2112 40.2597C28.1634 40.1173 28.0604 39.9996 27.9248 39.9324C27.7893 39.8653 27.6323 39.8541 27.4885 39.9015V39.902Z" stroke="white"/>
<path d="M24.2385 40.9737L23.1538 41.3313C23.0826 41.3548 23.0168 41.3919 22.96 41.4405C22.9033 41.4891 22.8568 41.5483 22.8232 41.6148C22.7896 41.6812 22.7695 41.7535 22.7642 41.8276C22.7588 41.9017 22.7682 41.9761 22.7919 42.0466C22.8156 42.1171 22.8531 42.1823 22.9022 42.2384C22.9514 42.2946 23.0112 42.3406 23.0783 42.3738C23.1454 42.4071 23.2185 42.427 23.2934 42.4323C23.3682 42.4376 23.4434 42.4283 23.5146 42.4048L24.5993 42.0477C24.7431 42.0004 24.8621 41.8984 24.9299 41.7643C24.9978 41.6301 25.0091 41.4748 24.9612 41.3324C24.9134 41.1901 24.8104 41.0724 24.6748 41.0052C24.5393 40.938 24.3823 40.9269 24.2385 40.9742V40.9737Z" fill="white"/>
<path d="M24.2385 40.9737L23.1538 41.3313C23.0826 41.3548 23.0168 41.3919 22.96 41.4405C22.9033 41.4891 22.8568 41.5483 22.8232 41.6148C22.7896 41.6812 22.7695 41.7535 22.7642 41.8276C22.7588 41.9017 22.7682 41.9761 22.7919 42.0466C22.8156 42.1171 22.8531 42.1823 22.9022 42.2384C22.9514 42.2946 23.0112 42.3406 23.0783 42.3738C23.1454 42.4071 23.2185 42.427 23.2934 42.4323C23.3682 42.4376 23.4434 42.4283 23.5146 42.4048L24.5993 42.0477C24.7431 42.0004 24.8621 41.8984 24.9299 41.7643C24.9978 41.6301 25.0091 41.4748 24.9612 41.3324C24.9134 41.1901 24.8104 41.0724 24.6748 41.0052C24.5393 40.938 24.3823 40.9269 24.2385 40.9742V40.9737Z" stroke="white"/>
</svg>
