<svg width="71" height="71" viewBox="0 0 71 71" fill="none" xmlns="http://www.w3.org/2000/svg">
<circle cx="35.5" cy="35.5" r="35.5" fill="#407BFF"/>
<mask id="path-2-inside-1" fill="white">
<path d="M51.3846 23.1666H48.3077V18.85C48.3077 18.3593 48.1132 17.8888 47.767 17.5418C47.4207 17.1949 46.9512 17 46.4615 17H30.4615C30.2983 17 30.1418 17.065 30.0265 17.1807L20.1803 27.0472C20.0649 27.1628 20 27.3196 20 27.4832V49.6828C20 50.1735 20.1945 50.644 20.5407 50.9909C20.8869 51.3379 21.3565 51.5328 21.8462 51.5328H36.2351L37.2923 53.6584C37.3433 53.761 37.4219 53.8474 37.5192 53.9077C37.6165 53.968 37.7287 54 37.8431 54C37.9575 54 38.0696 53.968 38.1669 53.9077C38.2642 53.8474 38.3428 53.761 38.3938 53.6584L39.4572 51.5328H43.3846V53.3828C43.3846 53.5463 43.4494 53.7032 43.5649 53.8188C43.6803 53.9345 43.8368 53.9994 44 53.9994H51.3846C51.5478 53.9994 51.7044 53.9345 51.8198 53.8188C51.9352 53.7032 52 53.5463 52 53.3828V23.7832C52 23.6197 51.9352 23.4628 51.8198 23.3472C51.7044 23.2315 51.5478 23.1666 51.3846 23.1666ZM29.8462 19.1053V26.2499C29.8462 26.4134 29.7813 26.5703 29.6659 26.6859C29.5505 26.8015 29.394 26.8665 29.2308 26.8665H22.1009L29.8462 19.1053ZM37.8462 52.0039L37.1212 50.5511C37.3352 50.4058 37.5877 50.3281 37.8462 50.3281C38.1046 50.3281 38.3571 50.4058 38.5711 50.5511L37.8462 52.0039ZM39.1249 49.4411C38.7432 49.1963 38.2994 49.0662 37.8462 49.0662C37.3929 49.0662 36.9491 49.1963 36.5674 49.4411L36.1366 48.571L37.8462 46.8548L39.5588 48.5728L39.1249 49.4411ZM36 46.9609V33.0331H37.2308V45.7276L36 46.9609ZM39.6923 46.9609L38.4615 45.7276V33.0331H39.6923V46.9609ZM39.6923 31.7998H36V30.5665H39.6923V31.7998ZM39.6923 29.3331H36V28.7165C36 28.2258 36.1945 27.7553 36.5407 27.4084C36.8869 27.0614 37.3565 26.8665 37.8462 26.8665C38.3358 26.8665 38.8054 27.0614 39.1516 27.4084C39.4978 27.7553 39.6923 28.2258 39.6923 28.7165V29.3331ZM43.3846 23.7832V50.2995H40.0726L40.8615 48.7252C40.9031 48.6393 40.9241 48.5449 40.9231 48.4495V28.7165C40.9231 27.8987 40.5989 27.1145 40.0219 26.5363C39.4448 25.958 38.6622 25.6332 37.8462 25.6332C37.0301 25.6332 36.2475 25.958 35.6704 26.5363C35.0934 27.1145 34.7692 27.8987 34.7692 28.7165V48.4495C34.7691 48.5452 34.7913 48.6395 34.8338 48.7252L35.6197 50.2995H21.8462C21.6829 50.2995 21.5264 50.2345 21.411 50.1189C21.2956 50.0032 21.2308 49.8464 21.2308 49.6828V28.0998H29.2308C29.7204 28.0998 30.19 27.9049 30.5362 27.558C30.8824 27.211 31.0769 26.7405 31.0769 26.2499V18.2333H46.4615C46.6247 18.2333 46.7813 18.2983 46.8967 18.4139C47.0121 18.5296 47.0769 18.6864 47.0769 18.85V23.1666H44C43.8368 23.1666 43.6803 23.2315 43.5649 23.3472C43.4494 23.4628 43.3846 23.6197 43.3846 23.7832ZM48.9231 31.7998H50.7692V34.2664H48.9231C48.7599 34.2664 48.6033 34.3314 48.4879 34.447C48.3725 34.5627 48.3077 34.7195 48.3077 34.8831C48.3077 35.0466 48.3725 35.2035 48.4879 35.3191C48.6033 35.4347 48.7599 35.4997 48.9231 35.4997H50.7692V37.9663H48.9231C48.7599 37.9663 48.6033 38.0313 48.4879 38.147C48.3725 38.2626 48.3077 38.4195 48.3077 38.583C48.3077 38.7465 48.3725 38.9034 48.4879 39.019C48.6033 39.1347 48.7599 39.1997 48.9231 39.1997H50.7692V41.6663H48.9231C48.7599 41.6663 48.6033 41.7313 48.4879 41.8469C48.3725 41.9625 48.3077 42.1194 48.3077 42.2829C48.3077 42.4465 48.3725 42.6033 48.4879 42.719C48.6033 42.8346 48.7599 42.8996 48.9231 42.8996H50.7692V45.3662H48.9231C48.7599 45.3662 48.6033 45.4312 48.4879 45.5468C48.3725 45.6625 48.3077 45.8193 48.3077 45.9829C48.3077 46.1464 48.3725 46.3033 48.4879 46.4189C48.6033 46.5346 48.7599 46.5995 48.9231 46.5995H50.7692V49.0662H48.9231C48.7599 49.0662 48.6033 49.1311 48.4879 49.2468C48.3725 49.3624 48.3077 49.5193 48.3077 49.6828C48.3077 49.8464 48.3725 50.0032 48.4879 50.1189C48.6033 50.2345 48.7599 50.2995 48.9231 50.2995H50.7692V52.7661H44.6154V24.3999H50.7692V26.8665H48.9231C48.7599 26.8665 48.6033 26.9315 48.4879 27.0471C48.3725 27.1628 48.3077 27.3196 48.3077 27.4832C48.3077 27.6467 48.3725 27.8036 48.4879 27.9192C48.6033 28.0349 48.7599 28.0998 48.9231 28.0998H50.7692V30.5665H48.9231C48.7599 30.5665 48.6033 30.6314 48.4879 30.7471C48.3725 30.8627 48.3077 31.0196 48.3077 31.1831C48.3077 31.3467 48.3725 31.5035 48.4879 31.6192C48.6033 31.7348 48.7599 31.7998 48.9231 31.7998Z"/>
</mask>
<path d="M51.3846 23.1666H48.3077V18.85C48.3077 18.3593 48.1132 17.8888 47.767 17.5418C47.4207 17.1949 46.9512 17 46.4615 17H30.4615C30.2983 17 30.1418 17.065 30.0265 17.1807L20.1803 27.0472C20.0649 27.1628 20 27.3196 20 27.4832V49.6828C20 50.1735 20.1945 50.644 20.5407 50.9909C20.8869 51.3379 21.3565 51.5328 21.8462 51.5328H36.2351L37.2923 53.6584C37.3433 53.761 37.4219 53.8474 37.5192 53.9077C37.6165 53.968 37.7287 54 37.8431 54C37.9575 54 38.0696 53.968 38.1669 53.9077C38.2642 53.8474 38.3428 53.761 38.3938 53.6584L39.4572 51.5328H43.3846V53.3828C43.3846 53.5463 43.4494 53.7032 43.5649 53.8188C43.6803 53.9345 43.8368 53.9994 44 53.9994H51.3846C51.5478 53.9994 51.7044 53.9345 51.8198 53.8188C51.9352 53.7032 52 53.5463 52 53.3828V23.7832C52 23.6197 51.9352 23.4628 51.8198 23.3472C51.7044 23.2315 51.5478 23.1666 51.3846 23.1666ZM29.8462 19.1053V26.2499C29.8462 26.4134 29.7813 26.5703 29.6659 26.6859C29.5505 26.8015 29.394 26.8665 29.2308 26.8665H22.1009L29.8462 19.1053ZM37.8462 52.0039L37.1212 50.5511C37.3352 50.4058 37.5877 50.3281 37.8462 50.3281C38.1046 50.3281 38.3571 50.4058 38.5711 50.5511L37.8462 52.0039ZM39.1249 49.4411C38.7432 49.1963 38.2994 49.0662 37.8462 49.0662C37.3929 49.0662 36.9491 49.1963 36.5674 49.4411L36.1366 48.571L37.8462 46.8548L39.5588 48.5728L39.1249 49.4411ZM36 46.9609V33.0331H37.2308V45.7276L36 46.9609ZM39.6923 46.9609L38.4615 45.7276V33.0331H39.6923V46.9609ZM39.6923 31.7998H36V30.5665H39.6923V31.7998ZM39.6923 29.3331H36V28.7165C36 28.2258 36.1945 27.7553 36.5407 27.4084C36.8869 27.0614 37.3565 26.8665 37.8462 26.8665C38.3358 26.8665 38.8054 27.0614 39.1516 27.4084C39.4978 27.7553 39.6923 28.2258 39.6923 28.7165V29.3331ZM43.3846 23.7832V50.2995H40.0726L40.8615 48.7252C40.9031 48.6393 40.9241 48.5449 40.9231 48.4495V28.7165C40.9231 27.8987 40.5989 27.1145 40.0219 26.5363C39.4448 25.958 38.6622 25.6332 37.8462 25.6332C37.0301 25.6332 36.2475 25.958 35.6704 26.5363C35.0934 27.1145 34.7692 27.8987 34.7692 28.7165V48.4495C34.7691 48.5452 34.7913 48.6395 34.8338 48.7252L35.6197 50.2995H21.8462C21.6829 50.2995 21.5264 50.2345 21.411 50.1189C21.2956 50.0032 21.2308 49.8464 21.2308 49.6828V28.0998H29.2308C29.7204 28.0998 30.19 27.9049 30.5362 27.558C30.8824 27.211 31.0769 26.7405 31.0769 26.2499V18.2333H46.4615C46.6247 18.2333 46.7813 18.2983 46.8967 18.4139C47.0121 18.5296 47.0769 18.6864 47.0769 18.85V23.1666H44C43.8368 23.1666 43.6803 23.2315 43.5649 23.3472C43.4494 23.4628 43.3846 23.6197 43.3846 23.7832ZM48.9231 31.7998H50.7692V34.2664H48.9231C48.7599 34.2664 48.6033 34.3314 48.4879 34.447C48.3725 34.5627 48.3077 34.7195 48.3077 34.8831C48.3077 35.0466 48.3725 35.2035 48.4879 35.3191C48.6033 35.4347 48.7599 35.4997 48.9231 35.4997H50.7692V37.9663H48.9231C48.7599 37.9663 48.6033 38.0313 48.4879 38.147C48.3725 38.2626 48.3077 38.4195 48.3077 38.583C48.3077 38.7465 48.3725 38.9034 48.4879 39.019C48.6033 39.1347 48.7599 39.1997 48.9231 39.1997H50.7692V41.6663H48.9231C48.7599 41.6663 48.6033 41.7313 48.4879 41.8469C48.3725 41.9625 48.3077 42.1194 48.3077 42.2829C48.3077 42.4465 48.3725 42.6033 48.4879 42.719C48.6033 42.8346 48.7599 42.8996 48.9231 42.8996H50.7692V45.3662H48.9231C48.7599 45.3662 48.6033 45.4312 48.4879 45.5468C48.3725 45.6625 48.3077 45.8193 48.3077 45.9829C48.3077 46.1464 48.3725 46.3033 48.4879 46.4189C48.6033 46.5346 48.7599 46.5995 48.9231 46.5995H50.7692V49.0662H48.9231C48.7599 49.0662 48.6033 49.1311 48.4879 49.2468C48.3725 49.3624 48.3077 49.5193 48.3077 49.6828C48.3077 49.8464 48.3725 50.0032 48.4879 50.1189C48.6033 50.2345 48.7599 50.2995 48.9231 50.2995H50.7692V52.7661H44.6154V24.3999H50.7692V26.8665H48.9231C48.7599 26.8665 48.6033 26.9315 48.4879 27.0471C48.3725 27.1628 48.3077 27.3196 48.3077 27.4832C48.3077 27.6467 48.3725 27.8036 48.4879 27.9192C48.6033 28.0349 48.7599 28.0998 48.9231 28.0998H50.7692V30.5665H48.9231C48.7599 30.5665 48.6033 30.6314 48.4879 30.7471C48.3725 30.8627 48.3077 31.0196 48.3077 31.1831C48.3077 31.3467 48.3725 31.5035 48.4879 31.6192C48.6033 31.7348 48.7599 31.7998 48.9231 31.7998Z" fill="white" stroke="#407BFF" stroke-width="0.2" mask="url(#path-2-inside-1)"/>
</svg>
