<svg width="71" height="71" viewBox="0 0 71 71" fill="none" xmlns="http://www.w3.org/2000/svg">
<circle cx="35.5" cy="35.5" r="35.5" fill="#407BFF"/>
<path d="M39.9667 38.8334H39.3433C39.1089 38.8338 38.8991 38.6875 38.8186 38.4673C38.7495 38.286 38.6752 38.1086 38.5953 37.9329C38.496 37.7193 38.5414 37.4664 38.7087 37.3005L39.1529 36.8557C39.8125 36.1904 39.8113 35.1174 39.1501 34.4536L37.5487 32.8522C36.8841 32.1915 35.8107 32.1915 35.146 32.8522L34.7018 33.2959C34.5356 33.4626 34.2831 33.5079 34.0694 33.4093C33.8937 33.3294 33.7163 33.2551 33.5344 33.1826C33.3131 33.1026 33.1658 32.8921 33.1667 32.6567V32.0334C33.1667 31.0945 32.4056 30.3334 31.4667 30.3334H29.2C28.2611 30.3334 27.5 31.0945 27.5 32.0334V32.6567C27.5004 32.8912 27.3542 33.1009 27.1339 33.1815C26.9526 33.2506 26.7752 33.3248 26.5996 33.4047C26.3859 33.5035 26.1333 33.4583 25.9672 33.2914L25.5223 32.8471C24.8578 32.1868 23.7848 32.1868 23.1202 32.8471L21.5188 34.4536C20.8581 35.1182 20.8581 36.1916 21.5188 36.8563L21.9625 37.3005C22.1298 37.4664 22.1752 37.7193 22.0759 37.9329C21.996 38.1086 21.9217 38.286 21.852 38.4679C21.7709 38.6894 21.5592 38.8358 21.3233 38.8334H20.7C19.7611 38.8334 19 39.5945 19 40.5334V42.8C19 43.7389 19.7611 44.5 20.7 44.5H21.3233C21.5578 44.4996 21.7675 44.6459 21.8481 44.8661C21.9172 45.0474 21.9914 45.2248 22.0713 45.4005C22.1706 45.6141 22.1253 45.867 21.958 46.0329L21.5137 46.4777C20.8534 47.1422 20.8534 48.2152 21.5137 48.8798L23.1151 50.4812C23.7798 51.1419 24.8532 51.1419 25.5178 50.4812L25.9621 50.0375C26.1282 49.8708 26.3808 49.8255 26.5945 49.9241C26.7701 50.004 26.9475 50.0783 27.1294 50.1508C27.3519 50.2299 27.5004 50.4406 27.5 50.6767V51.3C27.5 52.2389 28.2611 53 29.2 53H31.4667C32.4056 53 33.1667 52.2389 33.1667 51.3V50.6767C33.1662 50.4422 33.3125 50.2325 33.5327 50.1519C33.7141 50.0828 33.8914 50.0086 34.0671 49.9287C34.2808 49.8299 34.5334 49.8751 34.6995 50.042L35.1443 50.4863C35.8098 51.1455 36.8825 51.1442 37.5464 50.4834L39.1478 48.882C39.8086 48.2174 39.8086 47.144 39.1478 46.4794L38.7041 46.0351C38.5368 45.8693 38.4915 45.6164 38.5908 45.4027C38.6707 45.2271 38.7449 45.0497 38.8175 44.8678C38.8974 44.6464 39.108 44.4992 39.3433 44.5H39.9667C40.9056 44.5 41.6667 43.7389 41.6667 42.8V40.5334C41.6667 39.5945 40.9056 38.8334 39.9667 38.8334ZM40.5333 42.8C40.5333 43.113 40.2796 43.3667 39.9667 43.3667H39.3433C38.6389 43.3693 38.0085 43.8047 37.7567 44.4626C37.6966 44.6213 37.6316 44.7775 37.5617 44.9313C37.2704 45.5744 37.4055 46.3306 37.9017 46.833L38.3449 47.2767C38.5663 47.4978 38.5665 47.8567 38.3453 48.0781C38.3451 48.0782 38.345 48.0784 38.3449 48.0785L36.7435 49.6799C36.5222 49.9011 36.1635 49.9011 35.9422 49.6799L35.4979 49.2362C34.9958 48.7396 34.2393 48.6044 33.5962 48.8962C33.4426 48.9659 33.2862 49.0311 33.1287 49.0911C32.4713 49.3429 32.0362 49.9727 32.0333 50.6767V51.3C32.0333 51.6129 31.7796 51.8667 31.4667 51.8667H29.2C28.8871 51.8667 28.6333 51.6129 28.6333 51.3V50.6767C28.6307 49.9722 28.1953 49.3418 27.5374 49.09C27.3787 49.0299 27.2225 48.965 27.0688 48.8951C26.4256 48.6039 25.6695 48.7391 25.167 49.2351L24.7233 49.6782C24.5022 49.8996 24.1434 49.8998 23.9219 49.6786C23.9218 49.6785 23.9216 49.6784 23.9215 49.6782L22.3201 48.0785C22.0989 47.8572 22.0989 47.4985 22.3201 47.2772L22.7638 46.833C23.26 46.3306 23.3951 45.5744 23.1038 44.9313C23.0341 44.7777 22.9689 44.6213 22.9089 44.4638C22.6577 43.8056 22.0277 43.3698 21.3233 43.3667H20.7C20.3871 43.3667 20.1333 43.113 20.1333 42.8V40.5334C20.1333 40.2204 20.3871 39.9667 20.7 39.9667H21.3233C22.0278 39.9641 22.6582 39.5287 22.91 38.8708C22.9701 38.7121 23.035 38.5559 23.1049 38.4021C23.3963 37.759 23.2611 37.0028 22.7649 36.5004L22.3195 36.0567C22.0981 35.8356 22.0979 35.4767 22.3191 35.2553C22.3193 35.2552 22.3194 35.255 22.3195 35.2549L23.9209 33.6535C24.1422 33.4323 24.5009 33.4323 24.7222 33.6535L25.1665 34.0972C25.6686 34.5938 26.4251 34.729 27.0682 34.4372C27.2218 34.3675 27.3782 34.3023 27.5357 34.2422C28.194 33.9913 28.6301 33.3612 28.6333 32.6567V32.0334C28.6333 31.7204 28.8871 31.4667 29.2 31.4667H31.4667C31.7796 31.4667 32.0333 31.7204 32.0333 32.0334V32.6567C32.036 33.3612 32.4714 33.9916 33.1293 34.2434C33.2879 34.3034 33.4441 34.3684 33.5979 34.4383C34.241 34.7301 34.9975 34.5949 35.4996 34.0983L35.9433 33.6552C36.1655 33.4355 36.523 33.4355 36.7452 33.6552L38.3466 35.2566C38.5678 35.4779 38.5678 35.8366 38.3466 36.0578L37.9029 36.5021C37.4068 37.0045 37.2715 37.7607 37.5629 38.4038C37.6326 38.5574 37.6977 38.7138 37.7578 38.8713C38.0095 39.5287 38.6394 39.9639 39.3433 39.9667H39.9667C40.2796 39.9667 40.5333 40.2204 40.5333 40.5334V42.8Z" fill="white"/>
<path d="M35.422 41.4399C35.4163 41.3039 35.4067 41.1685 35.3903 41.0336C35.3721 40.8885 35.3506 40.7446 35.3206 40.6035C35.3007 40.5111 35.2747 40.4199 35.2497 40.3281C35.218 40.2114 35.1823 40.0963 35.1426 39.983C35.1149 39.9042 35.086 39.826 35.0565 39.7484C34.9835 39.5669 34.9001 39.3898 34.8066 39.218C34.7992 39.205 34.7947 39.1908 34.7873 39.1778C34.6399 38.9154 34.4692 38.6667 34.2773 38.4349C34.2609 38.4145 34.2422 38.3952 34.2252 38.3754C34.147 38.283 34.0665 38.1935 33.9821 38.1079C33.9379 38.062 33.8914 38.0189 33.845 37.9747C33.7883 37.922 33.7316 37.8699 33.675 37.82C33.6062 37.7603 33.5361 37.7025 33.4647 37.6466L33.3718 37.5775C32.495 36.9207 31.4288 36.566 30.3333 36.5666C30.2767 36.5666 30.22 36.5751 30.1633 36.5773C30.0426 36.5807 29.9214 36.5875 29.7995 36.6C29.7355 36.6068 29.6709 36.6142 29.6069 36.6233C29.4221 36.6475 29.2388 36.6818 29.0578 36.7258C26.3292 37.4309 24.6888 40.2145 25.3939 42.9431C25.8586 44.7411 27.2633 46.1447 29.0617 46.6079C29.0708 46.6079 29.0804 46.6107 29.0901 46.613C29.2858 46.6618 29.484 46.6997 29.6839 46.7263C29.816 46.7428 29.948 46.7462 30.0806 46.7524C30.169 46.7569 30.2506 46.77 30.343 46.77C30.5045 46.77 30.6722 46.7592 30.8433 46.7422C30.8615 46.7422 30.8796 46.7371 30.9 46.7348C31.0377 46.7195 31.1771 46.6991 31.3193 46.6708C31.376 46.66 31.4287 46.6459 31.4831 46.6334C31.5828 46.6102 31.682 46.5858 31.784 46.5558C31.8633 46.532 31.9404 46.5042 32.018 46.477C32.0957 46.4498 32.1761 46.4203 32.2566 46.3897C32.3371 46.3591 32.4045 46.324 32.4776 46.29C32.5728 46.2464 32.6674 46.2033 32.7609 46.1523H32.7643C33.2932 45.8692 33.7816 45.5164 34.2167 45.1034C34.3342 44.9937 34.4364 44.8687 34.5204 44.7317C34.9627 44.0226 35.2533 43.2296 35.3738 42.4027C35.3897 42.2933 35.4039 42.1839 35.4124 42.0723C35.4203 41.9697 35.426 41.8677 35.4282 41.7657C35.4282 41.7334 35.4328 41.7028 35.4328 41.6705C35.4333 41.5906 35.4254 41.517 35.422 41.4399ZM34.2926 41.8111C34.2926 41.8581 34.2887 41.9051 34.2858 41.9516C34.2756 42.0887 34.2581 42.2259 34.2348 42.3636C34.023 43.5417 33.2915 44.5617 32.2436 45.1402C32.1733 45.1771 32.1042 45.2116 32.035 45.2434L31.988 45.266C31.6588 45.4155 31.3113 45.5207 30.9544 45.5788C30.9295 45.5828 30.904 45.5873 30.8785 45.5907C30.8076 45.6009 30.7379 45.6094 30.6688 45.6157C30.5776 45.6236 30.4858 45.6281 30.3923 45.6298C30.3526 45.6298 30.3135 45.6298 30.2738 45.6298C30.1397 45.6283 30.0059 45.62 29.8726 45.6049L29.8046 45.597C29.6488 45.5766 29.4942 45.5474 29.3417 45.5097C27.2194 44.9665 25.9393 42.8056 26.4824 40.6833C26.8413 39.281 27.9357 38.1855 29.3377 37.8251V37.8246C29.6632 37.7425 29.9976 37.7006 30.3333 37.6999C30.4953 37.7008 30.6572 37.7118 30.8178 37.7328C30.8609 37.7379 30.9034 37.7458 30.9459 37.752C31.0683 37.7713 31.1896 37.7957 31.3091 37.8263C31.3482 37.8365 31.3873 37.8455 31.4259 37.8563C31.7272 37.9433 32.0173 38.0654 32.29 38.2201C32.3337 38.2456 32.3762 38.2722 32.4192 38.2989C32.5088 38.3555 32.5955 38.4122 32.681 38.4768C32.7269 38.5102 32.7734 38.5431 32.8176 38.5788C32.9288 38.6676 33.0353 38.7622 33.1366 38.8621C33.1769 38.9029 33.2137 38.9477 33.2528 38.9902C33.318 39.061 33.3814 39.1336 33.4421 39.2101C33.484 39.2628 33.5242 39.3172 33.5639 39.3721C33.6206 39.4537 33.6772 39.5387 33.7282 39.6249C33.7566 39.6719 33.7849 39.7178 33.8138 39.766C33.8869 39.9005 33.952 40.0392 34.0087 40.1813C34.0314 40.238 34.0507 40.2947 34.0711 40.3513C34.1079 40.4556 34.1396 40.561 34.1674 40.6675C34.1816 40.7242 34.1974 40.7746 34.2093 40.8296C34.2424 40.9827 34.2664 41.1377 34.2813 41.2937C34.2847 41.3351 34.2847 41.377 34.2875 41.4184C34.2955 41.5487 34.2977 41.6796 34.2926 41.8111Z" fill="white"/>
<path d="M51.3 30.9H49.5178C49.2802 30.9024 49.0676 30.7527 48.9897 30.5282C48.814 30.0019 48.6013 29.4885 48.3533 28.992C48.2481 28.7776 48.2919 28.5198 48.4621 28.3522L49.7258 27.0869C50.3891 26.4231 50.3891 25.3474 49.7258 24.6837L47.3163 22.2782C46.6526 21.6149 45.5769 21.6149 44.9131 22.2782L43.65 23.5407C43.4826 23.7108 43.2252 23.7549 43.0108 23.6501C42.5143 23.4008 42.0007 23.187 41.474 23.0103C41.2486 22.9332 41.0979 22.7204 41.1 22.4822V20.7C41.1 19.7611 40.3389 19 39.4 19H36C35.0611 19 34.3 19.7611 34.3 20.7V22.4822C34.3024 22.7198 34.1528 22.9324 33.9283 23.0103C33.4018 23.1869 32.8884 23.4006 32.392 23.6495C32.1776 23.7551 31.9197 23.7113 31.7523 23.5407L30.4869 22.277C29.8223 21.6157 28.7482 21.6157 28.0837 22.277L25.6787 24.682C25.0151 25.3458 25.0151 26.4219 25.6787 27.0857L27.5368 28.9472C27.7616 29.165 28.1204 29.1593 28.3381 28.9345C28.5505 28.7152 28.551 28.367 28.3392 28.1471L26.48 26.2862C26.2588 26.0649 26.2588 25.7062 26.48 25.4849L28.8849 23.08C29.1062 22.8588 29.4649 22.8588 29.6862 23.08L30.9521 24.3437C31.4643 24.8589 32.2492 24.9877 32.8992 24.6633C33.3481 24.4385 33.8122 24.2455 34.2881 24.0858C34.975 23.8533 35.4363 23.2074 35.4333 22.4822V20.7C35.4333 20.3871 35.6871 20.1333 36 20.1333H39.4C39.7129 20.1333 39.9667 20.3871 39.9667 20.7V22.4822C39.9638 23.2073 40.425 23.8529 41.1119 24.0853C41.588 24.2451 42.0524 24.4381 42.5014 24.6633C43.1515 24.986 43.9353 24.8571 44.4479 24.3431L45.7138 23.08C45.9351 22.8588 46.2938 22.8588 46.5151 23.08L48.92 25.4855C49.1409 25.7067 49.1409 26.065 48.92 26.2862L47.6563 27.5521C47.1416 28.0646 47.0129 28.8491 47.3367 29.4992C47.5615 29.948 47.7544 30.4121 47.9142 30.8881C48.1466 31.5751 48.7925 32.0364 49.5178 32.0333H51.3C51.6129 32.0333 51.8667 32.287 51.8667 32.6V36C51.8667 36.3129 51.6129 36.5666 51.3 36.5666H49.5178C48.7927 36.5637 48.1471 37.025 47.9147 37.7118C47.755 38.188 47.5618 38.6523 47.3367 39.1013C47.0134 39.7514 47.1424 40.5355 47.6569 41.0478L48.9206 42.3137C49.1418 42.535 49.1418 42.8937 48.9206 43.115L46.5145 45.5199C46.2933 45.7408 45.935 45.7408 45.7138 45.5199L43.8517 43.6618C43.634 43.437 43.2752 43.4313 43.0505 43.6491C42.8256 43.8668 42.82 44.2256 43.0377 44.4503C43.0422 44.455 43.0469 44.4597 43.0516 44.4642L44.9131 46.3223C45.5769 46.9856 46.6526 46.9856 47.3163 46.3223L49.7213 43.918C50.3849 43.2541 50.3849 42.178 49.7213 41.5142L48.4593 40.2499C48.2893 40.0825 48.2453 39.8252 48.3499 39.6107C48.5992 39.1142 48.813 38.6007 48.9897 38.0739C49.0668 37.8486 49.2796 37.6978 49.5178 37.6999H51.3C52.2389 37.6999 53 36.9388 53 36V32.6C53 31.6611 52.2389 30.9 51.3 30.9Z" fill="white"/>
<path d="M42.9088 29.0913C40.0303 26.2188 35.3697 26.2188 32.4912 29.0913C32.2738 29.3164 32.28 29.6751 32.5052 29.8925C32.7247 30.1046 33.0729 30.1046 33.2925 29.8925C35.7104 27.442 39.657 27.4156 42.1075 29.8334C44.5581 32.2513 44.5845 36.1979 42.1666 38.6485C42.1471 38.6683 42.1274 38.688 42.1075 38.7076C41.8824 38.925 41.8762 39.2837 42.0937 39.5088C42.3111 39.7339 42.6698 39.7402 42.8949 39.5227C42.8996 39.5182 42.9043 39.5135 42.9088 39.5088C45.7813 36.6303 45.7813 31.9698 42.9088 29.0913Z" fill="white"/>
</svg>
