<svg width="1205" height="940" viewBox="0 0 1205 940" fill="none" xmlns="http://www.w3.org/2000/svg">
<g opacity="0.3">
<path d="M1036.57 432.111H1039.07V565.65H1036.57V432.111Z" fill="#E0E0E0"/>
<path d="M1079.01 434.167H1081.52V567.705H1079.01V434.167Z" fill="#E0E0E0"/>
<path d="M1121.46 431.76H1123.96V565.298H1121.46V431.76Z" fill="#E0E0E0"/>
<path d="M1163.9 434.167H1166.41V567.705H1163.9V434.167Z" fill="#E0E0E0"/>
<path d="M863.531 537.898H1167.96V939.617H863.531V537.898Z" fill="#EBEBEB"/>
<path d="M863.531 537.898H1006.27V939.617H863.531V537.898Z" fill="#E0E0E0"/>
<path d="M1076.78 592.297H1104.14V658.828H1076.78V592.297Z" fill="#F5F5F5"/>
<path d="M1076.78 852.681H1104.14V919.212H1076.78V852.681Z" fill="#F5F5F5"/>
<path d="M1006.27 684.924C1006.27 685.677 1042.48 686.278 1087.11 686.278C1131.73 686.278 1167.96 685.677 1167.96 684.924C1167.96 684.172 1131.78 683.571 1087.11 683.571C1042.43 683.571 1006.27 684.197 1006.27 684.924Z" fill="#F5F5F5"/>
<path d="M1076.78 723.479H1104.14V790.011H1076.78V723.479Z" fill="#F5F5F5"/>
<path d="M1006.27 816.132C1006.27 816.859 1042.48 817.486 1087.11 817.486C1131.73 817.486 1167.96 816.859 1167.96 816.132C1167.96 815.405 1131.78 814.778 1087.11 814.778C1042.43 814.778 1006.27 815.38 1006.27 816.132Z" fill="#F5F5F5"/>
<path d="M948.596 592.297H975.957V658.828H948.596V592.297Z" fill="#F5F5F5"/>
<path d="M889.213 592.297H916.574V658.828H889.213V592.297Z" fill="#F5F5F5"/>
<path d="M948.596 718.541H975.957V785.072H948.596V718.541Z" fill="#F5F5F5"/>
<path d="M889.213 718.541H916.574V785.072H889.213V718.541Z" fill="#F5F5F5"/>
<path d="M948.596 844.785H975.957V911.316H948.596V844.785Z" fill="#F5F5F5"/>
<path d="M889.213 844.785H916.574V911.316H889.213V844.785Z" fill="#F5F5F5"/>
<path d="M1006.27 544.792V508.569H975.957V488.69H934.915V470.941H863.531V541.935L1006.27 544.792Z" fill="#E0E0E0"/>
<path d="M1005.12 412.006H1007.63V545.545H1005.12V412.006Z" fill="#E0E0E0"/>
<path d="M974.704 412.006H977.21V545.545H974.704V412.006Z" fill="#E0E0E0"/>
<path d="M933.662 393.18H936.167V526.719H933.662V393.18Z" fill="#E0E0E0"/>
<path d="M864.383 393.18H866.888V526.719H864.383V393.18Z" fill="#E0E0E0"/>
<path d="M899.034 393.18H901.54V526.719H899.034V393.18Z" fill="#E0E0E0"/>
<path d="M1006.3 502.277H1164.03V504.784H1006.3V502.277Z" fill="#E0E0E0"/>
<path d="M934.589 469.688H1163.7V472.194H934.589V469.688Z" fill="#E0E0E0"/>
<path d="M970.82 43.9035H970.67C970.464 43.8847 970.272 43.7893 970.133 43.6362C969.994 43.483 969.917 43.2832 969.918 43.0763V42.3994V18.735C969.922 16.2728 970.591 13.8576 971.856 11.7456C973.121 9.63364 974.934 7.90366 977.102 6.73928C979.271 5.5749 981.714 5.01956 984.172 5.1322C986.63 5.24484 989.012 6.02125 991.065 7.37904L1001.64 5.1229C1002.02 3.98209 1002.67 2.95004 1003.54 2.11347C1004.4 1.27691 1005.46 0.660272 1006.61 0.315374C1007.76 -0.0295251 1008.98 -0.0926095 1010.16 0.131424C1011.34 0.355457 1012.46 0.860064 1013.4 1.60284C1014.35 2.34562 1015.1 3.30486 1015.6 4.39997C1016.1 5.49509 1016.33 6.69408 1016.27 7.8962C1016.21 9.09831 1015.86 10.2684 1015.26 11.3082C1014.65 12.3481 1013.8 13.2272 1012.79 13.8717C1011.38 14.7487 1009.73 15.1365 1008.08 14.9747L997.129 27.91V42.4245V43.1013C997.127 43.2618 997.079 43.4183 996.99 43.5519C996.901 43.6854 996.775 43.7902 996.628 43.8534C996.52 43.8764 996.409 43.8764 996.302 43.8534H996.026L1001.79 133.673H998.557L997.279 113.919L984.751 130.314L987.382 133.673H984.876L983.573 131.993L982.296 133.673H979.79L982.296 130.339L969.567 113.919L968.264 133.748H965.007L970.82 43.9035ZM982.922 43.9035L974.528 61.4513H992.894L984.25 43.7782L982.922 43.9035ZM980.667 43.9035H974.077L973.025 59.9973L980.667 43.9035ZM989.938 43.9035H986.505L993.796 58.769L992.844 43.9035H989.938ZM994.448 68.9718L984.601 84.9152L996.653 103.917L994.448 68.9718ZM993.17 67.1669H973.351L983.373 83.01L993.17 67.1669ZM972.399 69.4481L970.093 104.544L982.095 84.9152L972.399 69.4481ZM983.448 86.8204L971.647 105.973H995.6L983.448 86.8204ZM996.628 111.563H970.194L983.624 128.76L996.628 111.563Z" fill="#E0E0E0"/>
<path d="M958.042 191.857H961.274V210.683L975.055 195.467L960.873 180.426H959.194V175.813H993.296V180.351H991.016L977.285 195.392L992.068 211.235V191.757H998.031V657.174H992.118V653.214H961.324V657.199H955.361V191.857H958.042ZM991.016 580.641L977.285 595.682L992.068 611.5V580.666L991.016 580.641ZM988.786 580.641H963.128L976.157 594.579L988.786 580.641ZM990.54 576.104L976.182 560.737L962.276 576.104H990.54ZM992.068 575.351V544.367H991.016L977.285 559.408L992.068 575.351ZM988.786 544.367H963.128L976.157 558.305L988.786 544.367ZM990.54 539.83L976.182 524.463L962.276 539.83H990.54ZM992.118 539.078V508.093H991.066L977.335 523.134L992.118 539.078ZM988.836 508.093H963.178L976.207 522.031L988.836 508.093ZM990.59 503.556L976.233 488.189L962.326 503.556H990.59ZM992.118 502.779V471.82H991.066L977.335 486.861L992.118 502.779ZM988.836 471.82H963.178L976.207 485.783L988.836 471.82ZM990.59 467.282L976.233 451.915L962.326 467.257L990.59 467.282ZM992.118 466.505V435.546H991.066L977.335 450.587L992.118 466.505ZM988.836 435.546H963.178L976.207 449.509L988.836 435.546ZM990.59 431.008L976.233 415.642L962.326 430.983L990.59 431.008ZM992.118 430.231V399.272H991.066L977.335 414.313L992.118 430.231ZM988.836 399.272H963.178L976.207 413.235L988.836 399.272ZM990.59 394.735L976.233 379.368L962.326 394.71L990.59 394.735ZM992.118 393.958V362.998H991.066L977.335 378.039L992.118 393.958ZM988.836 362.998H963.178L976.207 376.936L988.836 362.998ZM990.59 358.461L976.233 343.094L962.326 358.436L990.59 358.461ZM992.118 357.684V326.699H991.066L977.335 341.866L992.118 357.684ZM988.836 326.699H963.178L976.207 340.637L988.836 326.699ZM990.59 322.162L976.233 306.795L962.326 322.162H990.59ZM992.118 321.41V290.426H991.066L977.335 305.467L992.118 321.41ZM988.836 290.426H963.178L976.207 304.364L988.836 290.426ZM990.59 285.888L976.233 270.521L962.326 285.888H990.59ZM992.118 285.136V254.152H991.066L977.335 269.193L992.118 285.136ZM988.836 254.152H963.178L976.207 268.09L988.836 254.152ZM990.59 612.402L976.233 597.036L962.326 612.377L990.59 612.402ZM975.105 595.807L961.324 581.067V611.024L975.105 595.807ZM975.105 559.533L961.324 544.768V574.85L975.105 559.533ZM975.105 523.26L961.324 508.494V538.576L975.105 523.26ZM975.105 486.986L961.324 472.221V502.303L975.105 486.986ZM975.105 450.712L961.324 435.947V466.029L975.105 450.712ZM975.105 414.438L961.324 399.673V429.755L975.105 414.438ZM975.105 378.139L961.324 363.399V393.481L975.105 378.139ZM975.105 341.866L961.324 327.1V357.182L975.105 341.866ZM975.105 305.592L961.324 290.827V320.909L975.105 305.592ZM975.105 269.318L961.324 254.553V284.635L975.105 269.318ZM961.775 249.589H991.116L976.082 233.596L961.775 249.589ZM975.105 232.418L961.324 217.652V247.734L975.105 232.418ZM992.118 248.286V217.251H991.066L977.335 232.292L992.118 248.286ZM992.118 616.99H991.066L977.335 632.031L992.118 647.849V616.99ZM988.836 616.99H963.178L976.207 630.953L988.836 616.99ZM961.274 617.391V647.473L975.055 632.231L961.274 617.391ZM976.157 231.34L988.685 217.402H963.028L976.157 231.34ZM976.157 633.46L962.251 648.801H990.54L976.157 633.46ZM988.685 180.501H963.028L976.057 194.439L988.685 180.501ZM961.625 212.864H991.116L976.082 196.871L961.625 212.864Z" fill="#E0E0E0"/>
<path d="M507.134 170.573L551.909 137.358C554.078 135.731 556.715 134.851 559.426 134.851H1146.16V140.817H1143.46V171.626H1146.19V177.592H509.264C508.318 177.593 507.41 177.218 506.739 176.551C506.068 175.885 505.687 174.979 505.681 174.033V173.431C505.685 172.875 505.818 172.327 506.07 171.831C506.322 171.335 506.687 170.904 507.134 170.573ZM579.796 154.605L594.554 140.817H564.487L579.796 154.605ZM563.234 141.845V170.097L578.694 155.733L563.234 141.845ZM594.955 142.697L581.024 155.733L594.955 168.267V142.697ZM616.052 154.605L630.81 140.817H600.743L616.052 154.605ZM599.49 141.845V170.097L614.85 155.733L599.49 141.845ZM631.312 142.697L617.355 155.733L631.286 168.267L631.312 142.697ZM652.384 154.605L667.142 140.817H637.074L652.384 154.605ZM635.847 141.845V170.097L651.206 155.733L635.847 141.845ZM667.568 142.697L653.611 155.733L667.543 168.267L667.568 142.697ZM688.64 154.605L703.398 140.817H673.331L688.64 154.605ZM672.103 141.845V170.097L687.462 155.733L672.103 141.845ZM703.824 142.697L689.868 155.733L703.799 168.267L703.824 142.697ZM724.921 154.605L739.654 140.817H709.587L724.921 154.605ZM708.359 141.845V170.097L723.718 155.733L708.359 141.845ZM740.08 142.697L726.149 155.733L740.055 168.267L740.08 142.697ZM761.177 154.605L775.935 140.817H745.868L761.177 154.605ZM744.615 141.845V170.097L759.974 155.733L744.615 141.845ZM776.336 142.697L762.405 155.733L776.336 168.267V142.697ZM797.433 154.605L812.191 140.817H782.124L797.433 154.605ZM780.871 141.845V170.097L796.23 155.733L780.871 141.845ZM812.592 142.697L798.661 155.733L812.592 168.267V142.697ZM833.689 154.605L848.447 140.817H818.38L833.689 154.605ZM817.127 141.845V170.097L832.486 155.733L817.127 141.845ZM848.873 142.697L834.917 155.733L848.848 168.267L848.873 142.697ZM853.383 170.097L868.743 155.733L853.408 141.845L853.383 170.097ZM848.848 170.573L833.814 156.861L817.979 171.626H848.823L848.848 170.573ZM812.592 170.573L797.558 156.861L781.648 171.626H812.567L812.592 170.573ZM776.336 170.573L761.177 156.861L745.367 171.626H776.311L776.336 170.573ZM740.055 170.573L725.021 156.861L708.985 171.626H740.03L740.055 170.573ZM703.799 170.573L688.765 156.861L672.955 171.626H703.774L703.799 170.573ZM667.543 170.573L652.509 156.861L636.699 171.626H667.518L667.543 170.573ZM631.312 170.573L616.278 156.861L600.468 171.626H631.312V170.573ZM595.056 170.573L580.022 156.861L564.186 171.626H595.005L595.056 170.573ZM854.711 140.817L869.92 154.605L884.678 140.817H854.611H854.711ZM1138.92 142.697L1124.97 155.733L1138.9 168.267L1138.92 142.697ZM1138.5 140.817H1108.43L1123.64 154.605L1138.5 140.817ZM906.176 154.605L920.934 140.817H890.867L906.176 154.605ZM889.639 141.845V170.097L904.999 155.733L889.639 141.845ZM921.36 142.697L907.404 155.733L921.335 168.267L921.36 142.697ZM942.432 154.605L957.19 140.817H927.123L942.432 154.605ZM925.895 141.845V170.097L941.255 155.733L925.895 141.845ZM957.616 142.697L943.66 155.733L957.591 168.267L957.616 142.697ZM978.713 154.605L993.446 140.817H963.504L978.713 154.605ZM962.051 141.845V170.097L977.411 155.733L962.051 141.845ZM993.772 142.697L979.841 155.733L993.772 168.267V142.697ZM1014.87 154.605L1029.7 140.817H999.635L1014.87 154.605ZM998.307 141.845V170.097L1013.64 155.733L998.307 141.845ZM1030.03 142.697L1016.1 155.733L1030.03 168.267V142.697ZM1051.13 154.605L1065.88 140.817H1035.82L1051.13 154.605ZM1034.71 141.845V170.097L1050.07 155.733L1034.71 141.845ZM1066.43 142.697L1052.5 155.733L1066.43 168.267V142.697ZM1087.53 154.605L1102.29 140.817H1072.22L1087.53 154.605ZM1070.97 141.845V170.097L1086.33 155.733L1070.97 141.845ZM1102.72 142.697L1088.76 155.733L1102.69 168.267L1102.72 142.697ZM1107.25 141.845V170.097L1122.41 155.733L1107.25 141.845ZM1102.64 170.573L1087.61 156.861L1071.8 171.626H1102.64V170.573ZM1066.38 170.573L1051.35 156.861L1035.52 171.626H1066.38V170.573ZM1030.13 170.573L1014.97 156.861L999.159 171.626H1030.13V170.573ZM993.847 170.573L978.814 156.861L963.003 171.626H993.847V170.573ZM957.591 170.573L942.558 156.861L926.747 171.626H957.591V170.573ZM921.335 170.573L906.302 156.861L890.491 171.626H921.335V170.573ZM885.104 142.697L871.148 155.733L885.079 168.267L885.104 142.697ZM1138.9 170.573L1123.86 156.861L1108.05 171.626H1138.9V170.573ZM885.079 171.626V170.573L870.045 156.861L854.235 171.626H885.079ZM558.749 171.626V140.893C556.253 141.013 553.841 141.829 551.784 143.249L511.043 171.626H558.749Z" fill="#E0E0E0"/>
<path d="M1015.4 134.325C1015.04 154.179 1015.7 214.117 1015.7 214.117H943.735L945.665 202.285C945.889 201.075 945.889 199.835 945.665 198.625L940.403 172.529L953.307 132.42C953.67 131.156 954.427 130.041 955.469 129.238C956.51 128.435 957.78 127.987 959.095 127.958H1009.21C1010.04 127.954 1010.86 128.117 1011.62 128.438C1012.38 128.759 1013.08 129.231 1013.65 129.825C1014.23 130.419 1014.68 131.124 1014.98 131.897C1015.28 132.671 1015.42 133.496 1015.4 134.325Z" fill="#EBEBEB"/>
<path d="M982.372 133.748V177.592H947.945L944.387 172.854L957.742 133.748H982.372Z" fill="#F5F5F5"/>
<path d="M559.451 134.851C559.451 134.851 560.002 134.851 561.08 134.475L565.79 133.171L583.906 128.158L650.404 109.156L869.72 45.8585L1006.23 6.32582L1005.67 6.20048C1044.74 42.8754 1077.94 73.6592 1101.29 95.1928C1112.94 105.972 1122.18 114.42 1128.55 120.261C1131.71 123.119 1134.19 125.275 1135.87 126.754C1137.54 128.233 1138.37 128.834 1138.37 128.834L1137.74 128.258C1137.32 127.882 1136.67 127.38 1135.87 126.603L1128.67 119.985L1101.64 94.7917L1006.43 5.44843L1006.17 5.19775H1005.87L869.344 44.6051L650.154 108.153L583.705 127.581L565.665 132.921L560.979 134.324C559.977 134.65 559.451 134.851 559.451 134.851Z" fill="#E0E0E0"/>
<path d="M1168.69 126.327C1169.75 126.328 1170.8 126.57 1171.76 127.034C1172.72 127.499 1173.56 128.174 1174.23 129.01C1177.56 133.146 1182.59 140.742 1183.07 141.544C1183.55 142.346 1183.3 167.815 1183.07 180.475C1183.05 182.337 1182.3 184.116 1180.97 185.425C1179.65 186.735 1177.87 187.469 1176 187.469H1112.39C1110.51 187.462 1108.71 186.712 1107.39 185.382C1106.06 184.053 1105.32 182.252 1105.32 180.375V133.372C1105.32 131.494 1106.06 129.694 1107.39 128.364C1108.71 127.034 1110.51 126.284 1112.39 126.277L1168.69 126.327Z" fill="#EBEBEB"/>
<path d="M973.777 20.1645C973.777 22.0446 974.335 23.8825 975.379 25.4455C976.424 27.0084 977.908 28.2262 979.645 28.9445C981.382 29.6629 983.292 29.8496 985.135 29.4809C986.978 29.1123 988.67 28.2049 989.997 26.8737C991.324 25.5425 992.227 23.8472 992.59 22.0026C992.954 20.158 992.762 18.2469 992.039 16.5113C991.317 14.7756 990.096 13.2935 988.531 12.2526C986.966 11.2116 985.127 10.6586 983.248 10.6636C982.002 10.6636 980.769 10.9095 979.618 11.3873C978.467 11.8651 977.422 12.5653 976.542 13.4479C975.662 14.3304 974.965 15.378 974.491 16.5306C974.016 17.6831 973.774 18.918 973.777 20.1645Z" fill="#EBEBEB"/>
<path d="M1003.19 7.62973C1003.19 8.67588 1003.5 9.69853 1004.08 10.5684C1004.66 11.4382 1005.49 12.1162 1006.46 12.5165C1007.42 12.9168 1008.49 13.0216 1009.51 12.8175C1010.54 12.6134 1011.48 12.1096 1012.22 11.3699C1012.96 10.6302 1013.46 9.68769 1013.66 8.66164C1013.87 7.6356 1013.76 6.57208 1013.36 5.60557C1012.96 4.63906 1012.29 3.81297 1011.42 3.23176C1010.55 2.65055 1009.52 2.34033 1008.48 2.34033C1007.08 2.34033 1005.73 2.89761 1004.74 3.88956C1003.75 4.88152 1003.19 6.2269 1003.19 7.62973Z" fill="#EBEBEB"/>
<path d="M6.11308 305.992H214.629V939.317H6.11308V305.992Z" fill="#F5F5F5"/>
<path d="M6.11381 305.992H110.372V937.487H6.11381V305.992Z" fill="#EBEBEB"/>
<path d="M117.162 241.09H190.802V305.992H117.162V241.09Z" fill="#F5F5F5"/>
<path d="M117.187 241.09H134.726V305.992H117.187V241.09Z" fill="#EBEBEB"/>
<path d="M231.994 305.992V302.207H-0.000198364V305.992" fill="#E0E0E0"/>
<path d="M155.823 334.32H173.462V371.546H155.823V334.32Z" fill="#FAFAFA"/>
<path d="M110.371 386.16C110.371 386.561 133.698 386.862 162.488 386.862C191.277 386.862 214.629 386.561 214.629 386.16C214.629 385.759 191.277 385.458 162.488 385.458C133.698 385.458 110.371 385.759 110.371 386.16Z" fill="#E0E0E0"/>
<path d="M50.6624 334.32H68.3018V371.546H50.6624V334.32Z" fill="#E0E0E0"/>
<path d="M5.18618 386.16C5.18618 386.561 28.5384 386.862 57.3278 386.862C86.1172 386.862 109.444 386.561 109.444 386.16C109.444 385.759 86.1172 385.458 57.3278 385.458C28.5384 385.458 5.18618 385.759 5.18618 386.16Z" fill="#E0E0E0"/>
<path d="M50.6624 408.246H68.3018V445.472H50.6624V408.246Z" fill="#E0E0E0"/>
<path d="M5.18618 460.087C5.18618 460.488 28.5384 460.814 57.3278 460.814C86.1172 460.814 109.444 460.488 109.444 460.087C109.444 459.686 86.1172 459.385 57.3278 459.385C28.5384 459.385 5.18618 459.711 5.18618 460.087Z" fill="#E0E0E0"/>
<path d="M50.6624 484.403H68.3018V521.629H50.6624V484.403Z" fill="#E0E0E0"/>
<path d="M5.18618 536.245C5.18618 536.646 28.5384 536.972 57.3278 536.972C86.1172 536.972 109.444 536.646 109.444 536.245C109.444 535.844 86.1172 535.543 57.3278 535.543C28.5384 535.543 5.18618 535.869 5.18618 536.245Z" fill="#E0E0E0"/>
<path d="M50.6624 560.56H68.3018V597.786H50.6624V560.56Z" fill="#E0E0E0"/>
<path d="M5.18618 612.402C5.18618 612.803 28.5384 613.129 57.3278 613.129C86.1172 613.129 109.444 612.803 109.444 612.402C109.444 612.001 86.1172 611.7 57.3278 611.7C28.5384 611.7 5.18618 612.026 5.18618 612.402Z" fill="#E0E0E0"/>
<path d="M50.6624 634.537H68.3018V671.763H50.6624V634.537Z" fill="#E0E0E0"/>
<path d="M5.18618 686.379C5.18618 686.78 28.5384 687.106 57.3278 687.106C86.1172 687.106 109.444 686.78 109.444 686.379C109.444 685.978 86.1172 685.677 57.3278 685.677C28.5384 685.677 5.18618 686.003 5.18618 686.379Z" fill="#E0E0E0"/>
<path d="M50.6624 708.814H68.3018V746.04H50.6624V708.814Z" fill="#E0E0E0"/>
<path d="M50.6624 784.069H68.3018V821.295H50.6624V784.069Z" fill="#E0E0E0"/>
<path d="M5.18618 760.68C5.18618 761.056 28.5384 761.382 57.3278 761.382C86.1172 761.382 109.444 761.056 109.444 760.68C109.444 760.304 86.1172 759.953 57.3278 759.953C28.5384 759.953 5.18618 760.279 5.18618 760.68Z" fill="#E0E0E0"/>
<path d="M155.823 409.374H173.462V446.6H155.823V409.374Z" fill="#FAFAFA"/>
<path d="M110.371 461.215C110.371 461.616 133.698 461.942 162.488 461.942C191.277 461.942 214.629 461.616 214.629 461.215C214.629 460.814 191.277 460.513 162.488 460.513C133.698 460.513 110.371 460.839 110.371 461.215Z" fill="#E0E0E0"/>
<path d="M155.823 484.428H173.462V521.655H155.823V484.428Z" fill="#FAFAFA"/>
<path d="M110.371 536.269C110.371 536.67 133.698 536.996 162.488 536.996C191.277 536.996 214.629 536.67 214.629 536.269C214.629 535.868 191.277 535.567 162.488 535.567C133.698 535.567 110.371 535.893 110.371 536.269Z" fill="#E0E0E0"/>
<path d="M155.823 559.482H173.462V596.709H155.823V559.482Z" fill="#FAFAFA"/>
<path d="M110.371 611.324C110.371 611.726 133.698 612.051 162.488 612.051C191.277 612.051 214.629 611.726 214.629 611.324C214.629 610.923 191.277 610.623 162.488 610.623C133.698 610.623 110.371 610.948 110.371 611.324Z" fill="#E0E0E0"/>
<path d="M155.823 634.537H173.462V671.763H155.823V634.537Z" fill="#FAFAFA"/>
<path d="M110.371 686.379C110.371 686.78 133.698 687.106 162.488 687.106C191.277 687.106 214.629 686.78 214.629 686.379C214.629 685.978 191.277 685.677 162.488 685.677C133.698 685.677 110.371 686.003 110.371 686.379Z" fill="#E0E0E0"/>
<path d="M155.823 709.591H173.462V746.818H155.823V709.591Z" fill="#FAFAFA"/>
<path d="M110.371 761.457C110.371 761.833 133.698 762.159 162.488 762.159C191.277 762.159 214.629 761.833 214.629 761.457C214.629 761.081 191.277 760.73 162.488 760.73C133.698 760.73 110.371 761.056 110.371 761.457Z" fill="#E0E0E0"/>
<path d="M155.823 784.646H173.462V821.872H155.823V784.646Z" fill="#FAFAFA"/>
<path d="M330.113 430.005H332.619V563.543H330.113V430.005Z" fill="#E0E0E0"/>
<path d="M372.557 432.061H375.062V565.599H372.557V432.061Z" fill="#E0E0E0"/>
<path d="M415.003 429.628H417.508V563.167H415.003V429.628Z" fill="#E0E0E0"/>
<path d="M457.448 432.061H459.953V565.599H457.448V432.061Z" fill="#E0E0E0"/>
<path d="M157.075 535.793H461.506V937.512H157.075V535.793Z" fill="#EBEBEB"/>
<path d="M157.075 535.793H299.819V937.512H157.075V535.793Z" fill="#E0E0E0"/>
<path d="M370.302 590.166H397.664V656.697H370.302V590.166Z" fill="#F5F5F5"/>
<path d="M370.302 850.575H397.664V917.106H370.302V850.575Z" fill="#F5F5F5"/>
<path d="M299.819 682.819C299.819 683.571 336 684.172 380.65 684.172C425.3 684.172 461.506 683.571 461.506 682.819C461.506 682.066 425.3 681.465 380.65 681.465C336 681.465 299.819 681.966 299.819 682.819Z" fill="#F5F5F5"/>
<path d="M370.302 721.373H397.664V787.904H370.302V721.373Z" fill="#F5F5F5"/>
<path d="M299.819 814C299.819 814.752 336 815.353 380.65 815.353C425.3 815.353 461.506 814.752 461.506 814C461.506 813.248 425.3 812.646 380.65 812.646C336 812.646 299.819 813.273 299.819 814Z" fill="#F5F5F5"/>
<path d="M242.141 590.166H269.502V656.697H242.141V590.166Z" fill="#F5F5F5"/>
<path d="M182.759 590.166H210.12V656.697H182.759V590.166Z" fill="#F5F5F5"/>
<path d="M242.141 716.435H269.502V782.966H242.141V716.435Z" fill="#F5F5F5"/>
<path d="M182.759 716.435H210.12V782.966H182.759V716.435Z" fill="#F5F5F5"/>
<path d="M242.141 842.679H269.502V909.21H242.141V842.679Z" fill="#F5F5F5"/>
<path d="M182.759 842.679H210.12V909.21H182.759V842.679Z" fill="#F5F5F5"/>
<path d="M299.819 542.661V506.463H269.501V486.584H228.46V468.835H157.075V539.829L299.819 542.661Z" fill="#E0E0E0"/>
<path d="M298.667 409.875H301.173V543.414H298.667V409.875Z" fill="#E0E0E0"/>
<path d="M268.249 409.875H270.754V543.414H268.249V409.875Z" fill="#E0E0E0"/>
<path d="M227.183 391.074H229.688V524.613H227.183V391.074Z" fill="#E0E0E0"/>
<path d="M157.928 391.074H160.434V524.613H157.928V391.074Z" fill="#E0E0E0"/>
<path d="M192.555 391.074H195.061V524.613H192.555V391.074Z" fill="#E0E0E0"/>
<path d="M299.82 500.171H457.548V502.678H299.82V500.171Z" fill="#E0E0E0"/>
<path d="M228.109 467.582H457.222V470.089H228.109V467.582Z" fill="#E0E0E0"/>
</g>
</svg>
