<svg width="38" height="29" viewBox="0 0 38 29" fill="none" xmlns="http://www.w3.org/2000/svg">
<path d="M35.7515 0.338379H1.95441C0.917262 0.338379 0.0766602 1.21193 0.0766602 2.28972V24.4035C0.0766602 25.481 0.917262 26.3549 1.95441 26.3549H3.20614V28.3059C3.20614 28.6653 3.48634 28.9565 3.83187 28.9565H8.83881C9.18462 28.9565 9.46482 28.6653 9.46482 28.3059V26.3549H28.2411V28.3059C28.2411 28.6653 28.5213 28.9565 28.8671 28.9565H33.8741C34.2196 28.9565 34.4998 28.6653 34.4998 28.3059V26.3549H35.7518C36.7887 26.3549 37.6293 25.481 37.6293 24.4035V2.28972C37.6293 1.21193 36.7887 0.338379 35.7515 0.338379V0.338379ZM8.21308 27.6557H4.45788V26.3546H8.21308V27.6557ZM33.2481 27.6557H29.4929V26.3546H33.2481V27.6557ZM36.3775 24.4035C36.3775 24.7626 36.0973 25.0538 35.7515 25.0538H1.95441C1.6086 25.0538 1.3284 24.7626 1.3284 24.4035V2.28972C1.3284 1.93036 1.6086 1.63917 1.95441 1.63917H35.7515C36.0973 1.63917 36.3775 1.93036 36.3775 2.28972V24.4035Z" fill="#D7D7D7"/>
<path d="M33.248 3.59082H25.7376C24.7005 3.59082 23.8599 4.46437 23.8599 5.54186V21.1517C23.8599 22.2295 24.7005 23.1031 25.7376 23.1031H33.248C34.2852 23.1031 35.1258 22.2295 35.1258 21.1517V5.54186C35.1258 4.46437 34.2852 3.59082 33.248 3.59082ZM25.1116 10.7453H33.874V15.9485H25.1116V10.7453ZM25.7376 4.89162H33.248C33.5938 4.89162 33.874 5.1828 33.874 5.54186V9.44455H25.1116V5.54186C25.1116 5.1828 25.3918 4.89162 25.7376 4.89162ZM33.248 21.8023H25.7376C25.3918 21.8023 25.1116 21.5111 25.1116 21.1517V17.2493H33.874V21.1517C33.874 21.5111 33.5938 21.8023 33.248 21.8023Z" fill="#D7D7D7"/>
<path d="M12.5942 2.93994C7.06358 2.93994 2.58008 7.59917 2.58008 13.3466C2.58008 19.094 7.06358 23.753 12.5942 23.753C18.1246 23.753 22.6081 19.094 22.6081 13.3466C22.6015 7.60214 18.122 2.94679 12.5942 2.93994ZM12.5942 22.4522C7.75491 22.4522 3.83181 18.3756 3.83181 13.3466C3.83181 8.3176 7.75491 4.24074 12.5942 4.24074C17.4333 4.24074 21.3564 8.3176 21.3564 13.3466C21.3512 18.3732 17.4313 22.4468 12.5942 22.4522Z" fill="#D7D7D7"/>
<path d="M14.4715 13.3464C14.4695 13.2681 14.4629 13.1901 14.4515 13.113C15.3067 12.101 15.7611 10.7901 15.7233 9.44405C15.7233 6.89099 14.3463 4.89111 12.5941 4.89111C12.2483 4.89111 11.9681 5.1823 11.9681 5.54136V11.5198C11.7873 11.5839 11.6168 11.6764 11.463 11.7943C10.194 11.53 8.87583 11.7762 7.7748 12.4833C6.61646 13.1255 5.74205 14.2084 5.33379 15.505C5.13266 16.1969 5.2103 16.9439 5.54924 17.5751C5.72229 17.8851 6.1042 17.9911 6.40273 17.8121L11.3825 14.8241C11.5243 14.9545 11.685 15.0611 11.8586 15.1403C12.2755 16.414 13.1424 17.476 14.2839 18.1113C15.1185 18.6261 16.0674 18.9069 17.0378 18.9262C17.3712 18.9277 17.7033 18.884 18.0259 18.7961C18.7015 18.6315 19.2839 18.19 19.6409 17.5719C19.8131 17.261 19.7105 16.8638 19.4117 16.684L14.4291 13.6924C14.4529 13.5787 14.4672 13.4628 14.4715 13.3464ZM12.4901 13.9857C12.1509 13.9282 11.9211 13.5959 11.9764 13.2434C11.9939 13.1321 12.0391 13.0276 12.1076 12.9397C12.3219 12.6602 12.7136 12.6137 12.9826 12.8364C13.0763 12.9135 13.1465 13.0174 13.1848 13.135C13.2101 13.2023 13.2218 13.2741 13.2198 13.3464C13.2201 13.4605 13.1914 13.5727 13.1367 13.6716C13.1063 13.7237 13.07 13.7719 13.0284 13.8148C13.0026 13.8386 12.9751 13.8603 12.9465 13.8797C12.9304 13.8925 12.9141 13.9044 12.8969 13.9154C12.8611 13.9356 12.8236 13.952 12.7849 13.9642C12.7706 13.9693 12.7568 13.9746 12.7416 13.9785C12.7061 13.9866 12.6703 13.9913 12.6339 13.9934C12.5924 13.9982 12.5505 13.9982 12.5087 13.9934C12.5033 13.9872 12.499 13.9877 12.4901 13.9857ZM13.2198 6.38692C13.9409 6.84216 14.4715 8.06108 14.4715 9.44405C14.4873 10.3018 14.2615 11.1462 13.822 11.8727C13.8046 11.8569 13.7839 11.8459 13.7656 11.8304C13.7083 11.7824 13.6481 11.7378 13.586 11.697C13.5542 11.6761 13.5235 11.6565 13.4897 11.6377C13.4235 11.6008 13.3556 11.5678 13.2857 11.5395C13.2631 11.5297 13.2424 11.516 13.2198 11.5076V6.38692ZM6.48238 16.2627C6.48754 16.1201 6.50845 15.9784 6.54484 15.8408C6.87117 14.8809 7.53385 14.0845 8.40052 13.6105C9.04172 13.213 9.7703 12.9933 10.5166 12.9725C10.5954 12.9725 10.6739 12.9725 10.7496 12.9814V12.9978C10.7284 13.1127 10.7172 13.2294 10.7163 13.3464C10.7166 13.4661 10.7272 13.5858 10.7481 13.7034L6.48238 16.2627ZM17.6999 17.5409C16.7349 17.7326 15.7356 17.5334 14.9079 16.9835C14.185 16.5718 13.5943 15.9489 13.2092 15.1915C13.3215 15.151 13.4298 15.0995 13.5327 15.0376H13.5367C13.6361 14.9777 13.7301 14.908 13.8169 14.83L18.0803 17.3882C17.9597 17.4545 17.8322 17.5058 17.6999 17.5409Z" fill="#D7D7D7"/>
</svg>
