<svg width="64" height="48" viewBox="0 0 64 48" fill="none" xmlns="http://www.w3.org/2000/svg">
<path d="M60.2129 0.560059H3.29143C1.54466 0.560059 0.128906 2.00593 0.128906 3.78987V40.392C0.128906 42.1755 1.54466 43.6218 3.29143 43.6218H5.39961V46.8512C5.39961 47.446 5.87153 47.9279 6.45346 47.9279H14.8862C15.4686 47.9279 15.9405 47.446 15.9405 46.8512V43.6218H47.5638V46.8512C47.5638 47.446 48.0357 47.9279 48.6181 47.9279H57.0509C57.6328 47.9279 58.1047 47.446 58.1047 46.8512V43.6218H60.2134C61.9597 43.6218 63.3754 42.1755 63.3754 40.392V3.78987C63.3754 2.00593 61.9597 0.560059 60.2129 0.560059V0.560059ZM13.8324 45.7749H7.5078V43.6214H13.8324V45.7749ZM55.9965 45.7749H49.672V43.6214H55.9965V45.7749ZM61.2672 40.392C61.2672 40.9864 60.7953 41.4683 60.2129 41.4683H3.29143C2.70901 41.4683 2.23709 40.9864 2.23709 40.392V3.78987C2.23709 3.19506 2.70901 2.7131 3.29143 2.7131H60.2129C60.7953 2.7131 61.2672 3.19506 61.2672 3.78987V40.392Z" fill="#115AD4"/>
<path d="M55.9967 5.94287H43.3476C41.6008 5.94287 40.1851 7.38874 40.1851 9.17219V35.0092C40.1851 36.7931 41.6008 38.239 43.3476 38.239H55.9967C57.7435 38.239 59.1592 36.7931 59.1592 35.0092V9.17219C59.1592 7.38874 57.7435 5.94287 55.9967 5.94287ZM42.2932 17.7848H57.051V26.397H42.2932V17.7848ZM43.3476 8.09591H55.9967C56.5791 8.09591 57.051 8.57787 57.051 9.17219V15.6318H42.2932V9.17219C42.2932 8.57787 42.7652 8.09591 43.3476 8.09591ZM55.9967 36.0859H43.3476C42.7652 36.0859 42.2932 35.604 42.2932 35.0092V28.55H57.051V35.0092C57.051 35.604 56.5791 36.0859 55.9967 36.0859Z" fill="#115AD4"/>
<path d="M21.2112 4.86621C11.8964 4.86621 4.34521 12.578 4.34521 22.091C4.34521 31.604 11.8964 39.3153 21.2112 39.3153C30.5255 39.3153 38.0767 31.604 38.0767 22.091C38.0656 12.583 30.5212 4.87755 21.2112 4.86621ZM21.2112 37.1623C13.0607 37.1623 6.4534 30.4149 6.4534 22.091C6.4534 13.7672 13.0607 7.01925 21.2112 7.01925C29.3612 7.01925 35.9685 13.7672 35.9685 22.091C35.9598 30.411 29.3578 37.1534 21.2112 37.1623Z" fill="#115AD4"/>
<path d="M24.3734 22.0907C24.37 21.9611 24.3589 21.832 24.3396 21.7044C25.78 20.0293 26.5453 17.8595 26.4816 15.6316C26.4816 11.4058 24.1626 8.0957 21.2114 8.0957C20.629 8.0957 20.1571 8.57766 20.1571 9.17198V19.0674C19.8526 19.1733 19.5655 19.3266 19.3063 19.5217C17.1692 19.0841 14.9491 19.4917 13.0947 20.6621C11.1438 21.7251 9.67114 23.5174 8.98353 25.6635C8.64479 26.8088 8.77556 28.0452 9.34639 29.0899C9.63784 29.6029 10.2811 29.7784 10.7839 29.4822L19.1708 24.5365C19.4096 24.7523 19.6803 24.9287 19.9727 25.0598C20.6748 27.168 22.135 28.9258 24.0574 29.9775C25.463 30.8295 27.0611 31.2942 28.6955 31.3263C29.2571 31.3287 29.8164 31.2563 30.3597 31.1109C31.4975 30.8384 32.4785 30.1076 33.0798 29.0845C33.3698 28.57 33.197 27.9126 32.6937 27.615L24.302 22.6633C24.3421 22.4751 24.3662 22.2834 24.3734 22.0907ZM21.0362 23.1488C20.4649 23.0536 20.0779 22.5037 20.171 21.9202C20.2005 21.7359 20.2767 21.5629 20.392 21.4175C20.753 20.9548 21.4126 20.8779 21.8657 21.2465C22.0235 21.3742 22.1417 21.5462 22.2064 21.7408C22.2488 21.8522 22.2686 21.971 22.2652 22.0907C22.2657 22.2795 22.2175 22.4652 22.1253 22.6288C22.0742 22.7151 22.0129 22.7949 21.9429 22.8659C21.8995 22.9053 21.8532 22.9413 21.8049 22.9733C21.7779 22.9945 21.7504 23.0142 21.7214 23.0325C21.6611 23.066 21.5979 23.0931 21.5328 23.1133C21.5086 23.1216 21.4855 23.1305 21.4599 23.1369C21.4001 23.1502 21.3397 23.1581 21.2785 23.1616C21.2085 23.1694 21.138 23.1694 21.0676 23.1616C21.0584 23.1512 21.0512 23.1522 21.0362 23.1488ZM22.2652 10.5715C23.4798 11.325 24.3734 13.3425 24.3734 15.6316C24.4 17.0513 24.0197 18.4489 23.2795 19.6514C23.2501 19.6252 23.2153 19.607 23.1845 19.5814C23.088 19.502 22.9866 19.4281 22.8819 19.3606C22.8284 19.3261 22.7767 19.2936 22.7198 19.2625C22.6083 19.2014 22.494 19.1467 22.3762 19.0999C22.3381 19.0836 22.3034 19.061 22.2652 19.0472V10.5715ZM10.918 26.9177C10.9267 26.6816 10.9619 26.4471 11.0232 26.2194C11.5728 24.6306 12.6889 23.3124 14.1486 22.5278C15.2285 21.8699 16.4555 21.5063 17.7125 21.4718C17.8452 21.4718 17.9775 21.4718 18.1048 21.4865V21.5136C18.0691 21.7039 18.0503 21.897 18.0489 22.0907C18.0494 22.2888 18.0672 22.4869 18.1024 22.6816L10.918 26.9177ZM29.8106 29.0333C28.1854 29.3506 26.5024 29.0209 25.1083 28.1107C23.8909 27.4292 22.8959 26.3983 22.2474 25.1446C22.4365 25.0776 22.6189 24.9923 22.7922 24.8898H22.7989C22.9664 24.7908 23.1246 24.6754 23.2708 24.5463L30.4514 28.7805C30.2483 28.8904 30.0335 28.9751 29.8106 29.0333Z" fill="#115AD4"/>
</svg>
