<svg width="39" height="32" viewBox="0 0 39 32" fill="none" xmlns="http://www.w3.org/2000/svg">
<path fill-rule="evenodd" clip-rule="evenodd" d="M38.0711 30.5672H37.3607V19.8209C37.3607 19.5628 37.2391 19.3247 37.0426 19.1975C36.846 19.0703 36.6049 19.0738 36.4113 19.2066L34.0175 20.848L34.0176 19.821C34.0176 19.5629 33.8961 19.3248 33.6996 19.1975C33.5031 19.0704 33.2619 19.0738 33.0683 19.2066L30.6742 20.848L30.6743 19.8209C30.6743 19.5628 30.5528 19.3247 30.3563 19.1974C30.1598 19.0703 29.9185 19.0737 29.725 19.2065L27.331 20.848L27.3311 19.8209C27.3311 19.5628 27.2097 19.3246 27.0132 19.1974C26.8166 19.0702 26.5754 19.0737 26.3817 19.2065L23.9879 20.848V19.8209C23.9879 19.5628 23.8664 19.3247 23.6699 19.1974C23.4734 19.0702 23.2322 19.0737 23.0386 19.2065L20.6445 20.8481V19.8209C20.6445 19.5628 20.523 19.3247 20.3265 19.1975C20.1299 19.0703 19.8887 19.0738 19.6951 19.2066L16.3518 21.4991C16.163 21.6286 16.0475 21.8618 16.0475 22.1134V30.5672H15.2695L14.9013 20.555C14.8883 20.2002 14.6509 19.9152 14.3496 19.8742L13.9756 4.48955H13.9998C14.346 4.48955 14.6267 4.16879 14.6267 3.77313V0.716418C14.6267 0.320764 14.346 0 13.9998 0H9.98791C9.64172 0 9.36106 0.320764 9.36106 0.716418V3.77313C9.36106 4.16879 9.64172 4.48955 9.98791 4.48955H10.0121L9.63813 19.8742C9.33682 19.9152 9.09945 20.2002 9.08641 20.555L8.71824 30.5672H7.91436L7.54618 20.555C7.53314 20.2002 7.29577 19.9152 6.99447 19.8742L6.62052 4.48955H6.64468C6.99087 4.48955 7.27154 4.16879 7.27154 3.77313V0.716418C7.27154 0.320764 6.99087 0 6.64468 0H2.6328C2.28661 0 2.00594 0.320764 2.00594 0.716418V3.77313C2.00594 4.16879 2.28661 4.48955 2.6328 4.48955H2.65695L2.28301 19.8742C1.9817 19.9152 1.74433 20.2002 1.73129 20.555L1.36312 30.5672H0.626857C0.280665 30.5672 0 30.8879 0 31.2836C0 31.6792 0.280665 32 0.626857 32H38.0711C38.4173 32 38.6979 31.6792 38.6979 31.2836C38.6979 30.8879 38.4173 30.5672 38.0711 30.5672ZM17.3012 22.5191L19.3908 21.0863V22.1134C19.3908 22.3715 19.5122 22.6097 19.7088 22.7368C19.9053 22.864 20.1465 22.8605 20.3402 22.7277L22.7342 21.0862V22.1133C22.7342 22.3714 22.8557 22.6096 23.0523 22.7368C23.2488 22.864 23.4899 22.8605 23.6836 22.7277L26.0772 21.0863V22.1133C26.0772 22.3714 26.1987 22.6097 26.3952 22.7368C26.5917 22.864 26.8329 22.8605 27.0265 22.7277L29.4205 21.0863V22.1134C29.4205 22.3715 29.5419 22.6097 29.7384 22.7369C29.9349 22.864 30.1761 22.8606 30.3698 22.7278L32.7639 21.0863L32.7637 22.1134C32.7637 22.3715 32.8851 22.6097 33.0817 22.7369C33.2782 22.8641 33.5194 22.8606 33.7131 22.7278L36.1069 21.0863V30.5672H17.3012V22.5191ZM10.6148 1.43284H13.3729V3.05672H10.6148V1.43284ZM12.7215 4.48955L13.0953 19.8687H10.8925L11.2663 4.48955H12.7215ZM10.3137 21.3015H13.6739L14.0147 30.5672H9.97295L10.3137 21.3015ZM3.25965 1.43284H6.01782V3.05672H3.25965V1.43284ZM5.36639 4.48955L5.74017 19.8687H3.53731L3.91108 4.48955H5.36639ZM2.9586 21.3015H6.3188L6.65956 30.5672H2.61792L2.9586 21.3015ZM20.6863 27.5106H19.3491C19.0029 27.5106 18.7222 27.8313 18.7222 28.227C18.7222 28.6226 19.0029 28.9434 19.3491 28.9434H20.6863C21.0325 28.9434 21.3132 28.6226 21.3132 28.227C21.3132 27.8313 21.0325 27.5106 20.6863 27.5106ZM22.6923 27.5106H24.0296C24.3758 27.5106 24.6565 27.8313 24.6565 28.227C24.6565 28.6226 24.3758 28.9434 24.0296 28.9434H22.6923C22.3462 28.9434 22.0655 28.6226 22.0655 28.227C22.0655 27.8313 22.3462 27.5106 22.6923 27.5106ZM27.3727 27.5106H26.0354C25.6892 27.5106 25.4085 27.8313 25.4085 28.227C25.4085 28.6226 25.6892 28.9434 26.0354 28.9434H27.3727C27.7189 28.9434 27.9996 28.6226 27.9996 28.227C27.9996 27.8313 27.7189 27.5106 27.3727 27.5106ZM29.3787 27.5106H30.716C31.0622 27.5106 31.3428 27.8313 31.3428 28.227C31.3428 28.6226 31.0622 28.9434 30.716 28.9434H29.3787C29.0325 28.9434 28.7518 28.6226 28.7518 28.227C28.7518 27.8313 29.0325 27.5106 29.3787 27.5106ZM34.0593 27.5106H32.722C32.3758 27.5106 32.0951 27.8313 32.0951 28.227C32.0951 28.6226 32.3758 28.9434 32.722 28.9434H34.0593C34.4055 28.9434 34.6861 28.6226 34.6861 28.227C34.6861 27.8313 34.4055 27.5106 34.0593 27.5106ZM19.3491 24.454H20.6863C21.0325 24.454 21.3132 24.7748 21.3132 25.1705C21.3132 25.5661 21.0325 25.8869 20.6863 25.8869H19.3491C19.0029 25.8869 18.7222 25.5661 18.7222 25.1705C18.7222 24.7748 19.0029 24.454 19.3491 24.454ZM24.0296 24.454H22.6923C22.3462 24.454 22.0655 24.7748 22.0655 25.1705C22.0655 25.5661 22.3462 25.8869 22.6923 25.8869H24.0296C24.3758 25.8869 24.6565 25.5661 24.6565 25.1705C24.6565 24.7748 24.3758 24.454 24.0296 24.454ZM26.0354 24.454H27.3727C27.7189 24.454 27.9996 24.7748 27.9996 25.1705C27.9996 25.5661 27.7189 25.8869 27.3727 25.8869H26.0354C25.6892 25.8869 25.4085 25.5661 25.4085 25.1705C25.4085 24.7748 25.6892 24.454 26.0354 24.454ZM30.716 24.454H29.3787C29.0325 24.454 28.7518 24.7748 28.7518 25.1705C28.7518 25.5661 29.0325 25.8869 29.3787 25.8869H30.716C31.0622 25.8869 31.3428 25.5661 31.3428 25.1705C31.3428 24.7748 31.0622 24.454 30.716 24.454ZM34.0593 25.8869H32.722C32.3758 25.8869 32.0951 25.5661 32.0951 25.1705C32.0951 24.7748 32.3758 24.454 32.722 24.454H34.0593C34.4055 24.454 34.6861 24.7748 34.6861 25.1705C34.6861 25.5661 34.4055 25.8869 34.0593 25.8869Z" fill="#D7D7D7"/>
</svg>
