<svg width="57" height="47" viewBox="0 0 57 47" fill="none" xmlns="http://www.w3.org/2000/svg">
<path fill-rule="evenodd" clip-rule="evenodd" d="M55.8455 44.8382H54.8034V29.0747C54.8034 28.6961 54.6251 28.3468 54.3369 28.1603C54.0485 27.9737 53.6948 27.9789 53.4107 28.1736L49.8994 30.5815L49.8995 29.0749C49.8995 28.6963 49.7214 28.347 49.4331 28.1603C49.1448 27.9738 48.791 27.9789 48.507 28.1736L44.9952 30.5815L44.9953 29.0747C44.9953 28.6961 44.8171 28.3468 44.5289 28.1602C44.2407 27.9737 43.8867 27.9787 43.6028 28.1735L40.0912 30.5813L40.0913 29.0747C40.0913 28.6961 39.9132 28.3467 39.6249 28.1602C39.3366 27.9736 38.9827 27.9787 38.6987 28.1735L35.1872 30.5815V29.0747C35.1872 28.6961 35.009 28.3468 34.7208 28.1602C34.4324 27.9736 34.0787 27.9787 33.7947 28.1735L30.2828 30.5816V29.0747C30.2828 28.6961 30.1047 28.3468 29.8163 28.1603C29.528 27.9737 29.1743 27.9789 28.8902 28.1736L23.9861 31.5365C23.7091 31.7264 23.5397 32.0685 23.5397 32.4376V44.8382H22.3984L21.8583 30.1516C21.8392 29.6312 21.491 29.213 21.049 29.1529L20.5005 6.58561H20.5359C21.0438 6.58561 21.4555 6.11509 21.4555 5.53471V1.05089C21.4555 0.470521 21.0438 0 20.5359 0H14.651C14.1432 0 13.7315 0.470521 13.7315 1.05089V5.53471C13.7315 6.11509 14.1432 6.58561 14.651 6.58561H14.6864L14.1379 29.1529C13.6959 29.213 13.3477 29.6312 13.3286 30.1516L12.7886 44.8382H11.6094L11.0693 30.1516C11.0502 29.6312 10.702 29.213 10.26 29.1529L9.71147 6.58561H9.74691C10.2547 6.58561 10.6664 6.11509 10.6664 5.53471V1.05089C10.6664 0.470521 10.2547 0 9.74691 0H3.86198C3.35416 0 2.94246 0.470521 2.94246 1.05089V5.53471C2.94246 6.11509 3.35416 6.58561 3.86198 6.58561H3.89741L3.34889 29.1529C2.90691 29.213 2.55872 29.6312 2.53959 30.1516L1.99953 44.8382H0.919519C0.4117 44.8382 0 45.3087 0 45.8891C0 46.4694 0.4117 46.94 0.919519 46.94H55.8455C56.3533 46.94 56.765 46.4694 56.765 45.8891C56.765 45.3087 56.3533 44.8382 55.8455 44.8382ZM25.3787 33.0327L28.4438 30.9309V32.4376C28.4438 32.8162 28.6219 33.1655 28.9103 33.352C29.1985 33.5387 29.5524 33.5335 29.8364 33.3387L33.3483 30.9308V32.4375C33.3483 32.8161 33.5264 33.1654 33.8148 33.352C34.103 33.5387 34.4567 33.5335 34.7409 33.3387L38.252 30.9309V32.4375C38.252 32.8161 38.4301 33.1655 38.7184 33.352C39.0066 33.5385 39.3605 33.5335 39.6445 33.3387L43.1561 30.9309V32.4376C43.1561 32.8162 43.3343 33.1655 43.6225 33.3522C43.9107 33.5387 44.2646 33.5336 44.5486 33.3389L48.0605 30.9309L48.0602 32.4376C48.0602 32.8162 48.2384 33.1655 48.5267 33.3522C48.815 33.5388 49.1687 33.5336 49.4529 33.3389L52.9643 30.9309V44.8382H25.3787V33.0327ZM15.5705 2.10179H19.6164V4.48382H15.5705V2.10179ZM18.6608 6.58561L19.2091 29.1448H15.9779L16.5262 6.58561H18.6608ZM15.1289 31.2466H20.0579L20.5578 44.8382H14.6291L15.1289 31.2466ZM4.7815 2.10179H8.82739V4.48382H4.7815V2.10179ZM7.87182 6.58561L8.4201 29.1448H5.18879L5.73707 6.58561H7.87182ZM4.33989 31.2466H9.26888L9.76873 44.8382H3.84016L4.33989 31.2466ZM30.3442 40.3545H28.3826C27.8747 40.3545 27.463 40.825 27.463 41.4054C27.463 41.9858 27.8747 42.4563 28.3826 42.4563H30.3442C30.852 42.4563 31.2637 41.9858 31.2637 41.4054C31.2637 40.825 30.852 40.3545 30.3442 40.3545ZM33.2868 40.3545H35.2484C35.7563 40.3545 36.168 40.825 36.168 41.4054C36.168 41.9858 35.7563 42.4563 35.2484 42.4563H33.2868C32.779 42.4563 32.3673 41.9858 32.3673 41.4054C32.3673 40.825 32.779 40.3545 33.2868 40.3545ZM40.1522 40.3545H38.1906C37.6828 40.3545 37.2711 40.825 37.2711 41.4054C37.2711 41.9858 37.6828 42.4563 38.1906 42.4563H40.1522C40.66 42.4563 41.0717 41.9858 41.0717 41.4054C41.0717 40.825 40.66 40.3545 40.1522 40.3545ZM43.0948 40.3545H45.0564C45.5643 40.3545 45.976 40.825 45.976 41.4054C45.976 41.9858 45.5643 42.4563 45.0564 42.4563H43.0948C42.587 42.4563 42.1753 41.9858 42.1753 41.4054C42.1753 40.825 42.587 40.3545 43.0948 40.3545ZM49.9607 40.3545H47.999C47.4912 40.3545 47.0795 40.825 47.0795 41.4054C47.0795 41.9858 47.4912 42.4563 47.999 42.4563H49.9607C50.4685 42.4563 50.8802 41.9858 50.8802 41.4054C50.8802 40.825 50.4685 40.3545 49.9607 40.3545ZM28.3826 35.8711H30.3442C30.852 35.8711 31.2637 36.3416 31.2637 36.922C31.2637 37.5024 30.852 37.9729 30.3442 37.9729H28.3826C27.8747 37.9729 27.463 37.5024 27.463 36.922C27.463 36.3416 27.8747 35.8711 28.3826 35.8711ZM35.2484 35.8711H33.2868C32.779 35.8711 32.3673 36.3416 32.3673 36.922C32.3673 37.5024 32.779 37.9729 33.2868 37.9729H35.2484C35.7563 37.9729 36.168 37.5024 36.168 36.922C36.168 36.3416 35.7563 35.8711 35.2484 35.8711ZM38.1906 35.8711H40.1522C40.66 35.8711 41.0717 36.3416 41.0717 36.922C41.0717 37.5024 40.66 37.9729 40.1522 37.9729H38.1906C37.6828 37.9729 37.2711 37.5024 37.2711 36.922C37.2711 36.3416 37.6828 35.8711 38.1906 35.8711ZM45.0564 35.8711H43.0948C42.587 35.8711 42.1753 36.3416 42.1753 36.922C42.1753 37.5024 42.587 37.9729 43.0948 37.9729H45.0564C45.5643 37.9729 45.976 37.5024 45.976 36.922C45.976 36.3416 45.5643 35.8711 45.0564 35.8711ZM49.9607 37.9729H47.999C47.4912 37.9729 47.0795 37.5024 47.0795 36.922C47.0795 36.3416 47.4912 35.8711 47.999 35.8711H49.9607C50.4685 35.8711 50.8802 36.3416 50.8802 36.922C50.8802 37.5024 50.4685 37.9729 49.9607 37.9729Z" fill="#115AD4"/>
</svg>
