<svg width="763" height="846" viewBox="0 0 763 846" fill="none" xmlns="http://www.w3.org/2000/svg">
<path d="M47.6896 212.287V319.608H201.857L207.413 213.039L47.6896 212.287Z" fill="#E0E0E0"/>
<path d="M207.413 213.024V319.381H53.2451V213.024H207.413Z" fill="white"/>
<path d="M52.5272 320.115H208.198V212.271H52.5762L52.5272 320.115ZM206.679 318.661H53.9814V213.824H206.679V318.661Z" fill="#E0E0E0"/>
<path d="M69.9449 226.242H190.714V306.177H69.9449V226.242Z" fill="white"/>
<path d="M69.9448 226.243H70.5494H72.2651H78.8991L103.785 226.341L190.714 226.52L190.371 226.161C190.371 250.671 190.371 277.648 190.371 306.08L190.746 305.704H69.9775L70.288 306.014C70.288 281.684 70.1572 261.749 70.1245 247.86C70.1245 240.916 70.1246 235.491 70.0429 231.782C70.0429 229.935 70.0429 228.514 70.0429 227.55C70.0429 226.586 70.0429 226.079 70.0429 226.079C70.0429 226.079 70.0429 226.553 70.0429 227.484C70.0429 228.416 70.0429 229.837 70.0429 231.651C70.0429 235.36 70.0428 240.753 69.9611 247.664C69.9611 261.602 69.8794 281.603 69.8141 306.014V306.309H70.1082L190.877 306.39H191.253V306.014C191.253 277.583 191.253 250.459 191.253 226.096V225.752H190.893L103.736 225.916L78.9318 226.014H72.3958H70.1572L69.9448 226.243Z" fill="#E0E0E0"/>
<path d="M207.413 212.73C206.47 213.17 205.582 213.718 204.766 214.364C203.132 215.508 201.041 217.125 198.72 218.972C196.4 220.818 194.357 222.583 192.92 223.874C192.089 224.526 191.347 225.284 190.714 226.129C193.648 224.094 196.479 221.912 199.194 219.593C202.08 217.486 204.825 215.194 207.413 212.73Z" fill="#E0E0E0"/>
<path d="M53.2465 213.04C55.8044 215.527 58.5345 217.831 61.4165 219.935C64.1242 222.236 66.9909 224.344 69.9951 226.242C67.44 223.752 64.7097 221.447 61.825 219.347C59.1289 217.031 56.2612 214.922 53.2465 213.04Z" fill="#E0E0E0"/>
<path d="M53.3759 319.397L70.5654 305.475L53.3759 319.397Z" fill="white"/>
<path d="M70.5654 305.475C67.4726 307.497 64.5193 309.724 61.7255 312.142C58.7847 314.373 55.9953 316.796 53.3759 319.397C56.4733 317.382 59.4271 315.154 62.2158 312.73C65.1611 310.505 67.9508 308.081 70.5654 305.475Z" fill="#E0E0E0"/>
<path d="M207.413 319.396C204.912 316.918 202.23 314.63 199.39 312.549C196.711 310.273 193.871 308.193 190.893 306.324C193.402 308.788 196.083 311.07 198.916 313.154C201.595 315.436 204.435 317.522 207.413 319.396Z" fill="#E0E0E0"/>
<path d="M166.188 251.144V277.909H90.2066V251.144H166.188Z" fill="#E0E0E0"/>
<path d="M493.868 32.1244C493.868 32.1244 493.999 32.1244 494.244 32.01L495.339 31.5852L499.457 29.9512L514.555 23.4152L564.245 1.76472L565.96 1.01308H565.601L614.294 21.8302L629 28.0068L633.02 29.6408C633.478 29.851 633.954 30.0205 634.441 30.1473C634.006 29.8925 633.552 29.6686 633.085 29.4774L629.147 27.68L614.441 21.144L565.862 0.0816987L565.683 0L565.503 0.0816987L563.787 0.83334L514.212 22.7289L499.212 29.461L495.159 31.3238L494.113 31.8303C494.025 31.9227 493.943 32.0209 493.868 32.1244Z" fill="#E0E0E0"/>
<path d="M416.369 25H735.473V263.94H416.369V25Z" fill="#E0E0E0"/>
<path d="M426.32 36.1099H724.312V254.118H426.32V36.1099Z" fill="#FAFAFA"/>
<path d="M658.495 131.406C658.495 131.406 658.185 168.007 656.322 179.168L610.423 176.994C610.423 176.994 614.459 141.046 612.907 131.406H658.495Z" fill="#E0E0E0"/>
<path d="M635.897 136.537C635.897 136.537 635.897 136.537 635.717 136.537H635.227C634.588 136.513 633.948 136.546 633.315 136.635C632.304 136.787 631.32 137.078 630.39 137.501C629.17 138.111 628.09 138.968 627.22 140.018C626.163 141.31 625.409 142.824 625.014 144.446C624.662 146.345 624.831 148.305 625.504 150.116C625.85 151.095 626.282 152.041 626.795 152.943C627.302 153.874 627.825 154.789 628.266 155.802C629.183 157.884 629.805 160.084 630.112 162.338V162.485H630.259L634.785 162.567H639.54H639.704V162.453C639.902 160.212 640.654 158.056 641.893 156.178C642.449 155.247 643.054 154.364 643.625 153.466C644.197 152.567 644.786 151.832 645.259 150.835C646.107 149.102 646.36 147.138 645.978 145.247C645.717 143.615 645.116 142.056 644.214 140.671C643.429 139.562 642.408 138.641 641.223 137.975C640.339 137.491 639.394 137.128 638.413 136.897C637.796 136.744 637.167 136.64 636.534 136.586H636.044C635.929 136.586 635.88 136.586 635.88 136.586H636.044H636.534C637.157 136.662 637.774 136.782 638.38 136.946C639.347 137.198 640.275 137.577 641.142 138.073C642.289 138.733 643.272 139.643 644.018 140.737C644.868 142.105 645.424 143.635 645.652 145.23C646.008 147.063 645.756 148.963 644.933 150.639C644.432 151.532 643.887 152.399 643.299 153.237C642.743 154.103 642.122 155.002 641.567 155.949C640.289 157.873 639.514 160.087 639.312 162.387L639.475 162.207H634.72H630.194L630.357 162.371C630.036 160.088 629.398 157.86 628.462 155.753C628.021 154.74 627.482 153.776 626.975 152.861C626.455 151.982 626.028 151.051 625.7 150.083C625.035 148.292 624.882 146.351 625.259 144.479C625.629 142.896 626.349 141.416 627.367 140.148C628.208 139.113 629.254 138.261 630.439 137.648C631.345 137.216 632.308 136.913 633.299 136.75C633.926 136.654 634.559 136.599 635.194 136.586H635.864L635.897 136.537Z" fill="white"/>
<path d="M633.527 162.027C633.531 161.978 633.531 161.929 633.527 161.88V161.455C633.527 161.079 633.674 160.524 633.789 159.821C633.985 158.399 634.295 156.324 634.508 153.759C634.508 153.122 634.508 152.452 634.622 151.749C634.737 151.046 634.622 150.311 634.622 149.543C634.599 148.754 634.421 147.977 634.099 147.256C633.758 146.473 633.134 145.848 632.351 145.507C631.934 145.332 631.474 145.283 631.03 145.368C630.585 145.452 630.175 145.665 629.851 145.981C629.683 146.145 629.548 146.34 629.456 146.556C629.363 146.772 629.314 147.004 629.312 147.239C629.327 147.714 629.493 148.172 629.786 148.546C630.074 148.935 630.456 149.244 630.897 149.445C631.328 149.65 631.784 149.799 632.253 149.886C633.204 150.091 634.172 150.206 635.145 150.229C636.122 150.263 637.101 150.214 638.07 150.082C638.544 150.019 639.007 149.887 639.443 149.69C639.879 149.497 640.273 149.219 640.603 148.873C640.931 148.532 641.162 148.109 641.273 147.648C641.368 147.185 641.31 146.703 641.109 146.275C640.916 145.855 640.572 145.522 640.145 145.344C639.726 145.171 639.257 145.171 638.838 145.344C638.442 145.528 638.103 145.816 637.858 146.177C637.628 146.525 637.467 146.913 637.384 147.321C637.231 148.091 637.149 148.873 637.139 149.658C637.139 151.161 636.992 152.566 636.926 153.857C636.795 156.422 636.697 158.497 636.616 159.952C636.616 160.654 636.616 161.21 636.616 161.586V162.011C636.612 162.06 636.612 162.109 636.616 162.158C636.623 162.109 636.623 162.059 636.616 162.011C636.616 161.913 636.616 161.765 636.616 161.586C636.616 161.406 636.616 160.654 636.73 159.952C636.73 158.514 636.926 156.422 637.073 153.857C637.073 152.582 637.22 151.177 637.318 149.658C637.331 148.879 637.408 148.103 637.547 147.337C637.64 146.947 637.8 146.577 638.021 146.242C638.257 145.91 638.572 145.641 638.936 145.458C639.324 145.303 639.757 145.303 640.145 145.458C640.541 145.62 640.858 145.931 641.027 146.324C641.229 146.717 641.286 147.168 641.191 147.599C641.084 148.035 640.864 148.435 640.554 148.759C639.884 149.413 639.016 149.827 638.086 149.935C636.171 150.175 634.229 150.109 632.335 149.739C631.871 149.649 631.421 149.501 630.995 149.298C630.585 149.099 630.228 148.808 629.949 148.448C629.672 148.099 629.517 147.669 629.508 147.223C629.503 147.006 629.544 146.79 629.629 146.59C629.713 146.39 629.839 146.21 629.998 146.063C630.304 145.768 630.689 145.568 631.107 145.486C631.524 145.405 631.956 145.447 632.351 145.605C633.071 145.941 633.649 146.52 633.985 147.239C634.301 147.951 634.478 148.716 634.508 149.494C634.508 150.246 634.508 150.981 634.508 151.667C634.508 152.354 634.508 153.04 634.41 153.693C634.214 156.259 633.92 158.318 633.724 159.739C633.724 160.458 633.56 160.997 633.511 161.373V161.798C633.534 161.872 633.54 161.95 633.527 162.027Z" fill="white"/>
<path d="M639.573 162.273C639.573 162.273 639.573 162.845 639.459 163.793C639.344 164.74 639.328 166.227 639.246 167.763V167.665L636.158 171.227H636.305L632.743 171.031H632.89L631.109 168.858L630.227 167.763V167.91C630.227 165.819 630.325 163.825 630.374 162.028L630.178 162.208H636.844H639.492C639.28 162.187 639.066 162.187 638.854 162.208L636.975 162.11L630.178 161.848H629.998V162.044C629.998 163.858 629.884 165.835 629.835 167.927L630.717 169.005L632.498 171.178L636.076 171.358H636.175L639.197 167.747C639.197 166.113 639.197 164.806 639.197 163.662C639.36 163.21 639.485 162.745 639.573 162.273Z" fill="white"/>
<path d="M630.358 167.435L630.702 167.288C631.004 167.15 631.315 167.03 631.633 166.929C632.682 166.561 633.79 166.395 634.901 166.439C635.996 166.471 637.076 166.704 638.087 167.125C638.395 167.248 638.695 167.39 638.986 167.55L639.329 167.713C639.241 167.623 639.135 167.551 639.019 167.501C638.735 167.324 638.44 167.166 638.136 167.027C637.104 166.574 635.995 166.324 634.868 166.292C633.755 166.268 632.647 166.451 631.6 166.831C631.287 166.947 630.981 167.083 630.685 167.239C630.57 167.294 630.461 167.36 630.358 167.435Z" fill="white"/>
<path d="M630.358 166.014L630.701 165.867C630.913 165.769 631.224 165.638 631.632 165.491C633.719 164.771 635.998 164.84 638.037 165.688C638.43 165.851 638.74 165.998 638.952 166.112C639.165 166.227 639.263 166.292 639.279 166.276L638.969 166.063C638.686 165.89 638.391 165.737 638.086 165.606C637.057 165.145 635.946 164.895 634.818 164.87C633.704 164.825 632.592 165.009 631.551 165.41C631.23 165.523 630.919 165.659 630.619 165.818C630.526 165.875 630.438 165.94 630.358 166.014Z" fill="white"/>
<path d="M630.439 164.642C630.439 164.642 630.57 164.642 630.782 164.511C630.994 164.38 631.305 164.282 631.713 164.135C632.765 163.777 633.871 163.611 634.981 163.645C636.104 163.665 637.213 163.898 638.249 164.331C638.642 164.495 638.952 164.642 639.164 164.756C639.264 164.827 639.374 164.883 639.491 164.92L639.181 164.707C638.902 164.527 638.606 164.374 638.298 164.25C637.268 163.789 636.158 163.533 635.03 163.498C633.917 163.472 632.809 163.655 631.762 164.037C631.448 164.158 631.142 164.3 630.847 164.462L630.439 164.642Z" fill="white"/>
<path d="M709.623 71.521C709.623 71.521 709.313 108.123 707.45 119.283L661.551 117.126C661.551 117.126 665.587 81.1779 664.034 71.521H709.623Z" fill="#EBEBEB"/>
<path d="M671.012 86.8959C676.106 87.6521 681.24 88.1104 686.388 88.2684C691.515 88.7317 696.666 88.8954 701.812 88.7586C696.719 87.9915 691.585 87.5277 686.437 87.3697C681.308 86.9161 676.158 86.7579 671.012 86.8959Z" fill="white"/>
<path d="M670.931 94.6571C676.026 95.4027 681.16 95.8609 686.307 96.0296C691.435 96.4831 696.585 96.6414 701.731 96.5035C696.637 95.7472 691.503 95.2889 686.356 95.1309C681.228 94.6675 676.077 94.5093 670.931 94.6571Z" fill="white"/>
<path d="M678.741 102.256C681.613 102.886 684.543 103.215 687.483 103.237C690.411 103.534 693.362 103.534 696.29 103.237C693.411 102.616 690.477 102.287 687.532 102.256C684.609 101.959 681.664 101.959 678.741 102.256Z" fill="white"/>
<path d="M711.861 179.201C711.861 179.201 711.551 215.786 709.688 226.962L663.789 224.789C663.789 224.789 667.825 188.841 666.273 179.201H711.861Z" fill="#EBEBEB"/>
<path d="M673.119 194.577C678.214 195.323 683.348 195.782 688.495 195.949C693.623 196.403 698.773 196.561 703.92 196.423C698.826 195.667 693.692 195.209 688.544 195.051C683.417 194.577 678.266 194.419 673.119 194.577Z" fill="white"/>
<path d="M673.103 202.321C678.198 203.076 683.332 203.535 688.479 203.694C693.607 204.157 698.758 204.315 703.904 204.168C698.81 203.411 693.676 202.953 688.528 202.795C683.4 202.341 678.25 202.183 673.103 202.321Z" fill="white"/>
<path d="M680.914 209.937C683.787 210.557 686.716 210.886 689.656 210.918C692.584 211.211 695.534 211.211 698.463 210.918C695.584 210.298 692.649 209.975 689.705 209.954C686.782 209.651 683.837 209.645 680.914 209.937Z" fill="white"/>
<path d="M586.354 81.2261L581.811 186.782L450.029 188.367L455.944 82.615L586.354 81.2261Z" fill="#EBEBEB"/>
<path d="M456.973 80.4741H587.873V179.315H456.973V80.4741Z" fill="#F5F5F5"/>
<path d="M456.958 179.314C456.958 179.314 456.958 178.677 456.958 177.468C456.958 176.258 456.958 174.494 456.958 172.206C456.958 167.566 456.958 160.768 457.04 152.206C457.04 134.967 457.154 110.31 457.236 80.4733L456.876 80.8328H587.76L587.319 80.3916C587.319 115.931 587.319 149.592 587.319 179.232L587.727 178.824L493.315 179.02L466.468 179.134H459.327H457.481H456.844H457.432H459.229H466.288L493.053 179.232L587.727 179.428H588.136V179.02C588.136 149.379 588.136 115.719 588.136 80.1792V79.7217H587.678H456.795H456.419V80.0975C456.501 110.032 456.566 134.771 456.615 151.993C456.615 160.572 456.615 167.288 456.713 171.912C456.713 174.167 456.713 175.899 456.713 177.108C456.713 178.317 456.958 179.314 456.958 179.314Z" fill="#E0E0E0"/>
<path d="M519.033 101.406H572.089V168.187H519.033V101.406Z" fill="#F5F5F5"/>
<path d="M519.05 168.187C519.057 168.073 519.057 167.959 519.05 167.844V166.897C519.05 166.014 519.05 164.805 519.05 163.253C519.05 159.985 519.05 155.393 519.164 149.543C519.164 137.795 519.279 121.161 519.36 101.406L518.968 101.814H572.024C572.122 101.912 571.175 100.965 571.567 101.373V105.948C571.567 107.484 571.567 109.004 571.567 110.524V119.527C571.567 125.458 571.567 131.243 571.567 136.847C571.567 148.073 571.567 158.579 571.567 168.122L571.943 167.746L533.527 167.942L522.743 168.04H519.883C519.23 168.04 518.887 168.04 518.887 168.04C519.191 168.064 519.497 168.064 519.802 168.04H522.596L533.282 168.138L571.943 168.334H572.318V167.959C572.318 158.416 572.318 147.909 572.318 136.684C572.318 131.079 572.318 125.246 572.318 119.363V101.438L571.861 100.981H518.805H518.396V101.373C518.396 121.243 518.543 137.958 518.592 149.772C518.592 155.589 518.592 160.181 518.707 163.383C518.707 164.908 518.707 166.101 518.707 166.962C518.707 167.321 518.707 167.632 518.707 167.861C518.707 168.089 519.05 168.204 519.05 168.187Z" fill="#E0E0E0"/>
<path d="M468.38 86.1279H570.063V95.7522H468.38V86.1279Z" fill="#F5F5F5"/>
<path d="M468.395 95.752C468.419 95.5348 468.419 95.3157 468.395 95.0984C468.395 94.6246 468.395 94.0036 468.395 93.2193C468.395 91.5853 468.395 89.1833 468.493 86.1277L468.313 86.3075C485.47 86.4709 524.556 86.5853 569.997 86.5853L569.54 86.1277V95.7194L569.997 95.2618L497.971 95.4579L476.336 95.5886H470.454H468.918H468.362H468.853H470.34H476.124L497.644 95.7194L570.063 95.8991H570.504V86.1604L570.063 85.7192C524.621 85.7192 485.536 85.8173 468.379 85.9807H468.199V86.1604C468.199 89.265 468.232 91.667 468.297 93.3664C468.297 94.1344 468.297 94.7226 468.297 95.1965C468.297 95.6703 468.395 95.7684 468.395 95.752Z" fill="#E0E0E0"/>
<path d="M468.363 101.406H512.53V141.651H468.363V101.406Z" fill="#F5F5F5"/>
<path d="M468.396 141.652C468.415 141.397 468.415 141.14 468.396 140.884V138.695C468.396 136.734 468.396 133.973 468.494 130.525C468.494 123.45 468.609 113.45 468.69 101.44L468.298 101.832H512.416L511.975 101.391V122.633C511.975 129.381 511.975 135.705 511.975 141.685L512.514 141.211L480.651 141.407L471.615 141.522H469.213H468.347C468.603 141.545 468.86 141.545 469.115 141.522H471.452L480.406 141.62L512.514 141.832H512.906V141.424C512.906 135.525 512.906 129.12 512.906 122.371V112.224C512.906 110.459 512.906 108.662 512.906 106.865V101.423L512.449 100.966H468.331H467.955V101.342C468.037 113.45 468.102 123.531 468.151 130.754C468.151 134.185 468.151 136.914 468.249 138.924C468.249 139.795 468.249 140.498 468.249 141.031C468.275 141.243 468.324 141.452 468.396 141.652Z" fill="#E0E0E0"/>
<path d="M468.363 147.958H512.53V168.187H468.363V147.958Z" fill="#F5F5F5"/>
<path d="M468.395 168.187C468.432 167.698 468.432 167.206 468.395 166.717V162.664C468.395 159.086 468.509 154.102 468.574 147.958L468.248 148.285L512.366 148.416C512.774 148.824 511.826 147.86 511.925 147.975V158.351C511.925 161.733 511.925 165.017 511.925 168.155L512.349 167.73L480.764 167.926L471.565 168.057H469.081H468.182C468.449 168.08 468.717 168.08 468.983 168.057H471.369L480.486 168.171L512.349 168.367H512.774V167.942C512.774 164.805 512.774 161.521 512.774 158.138C512.774 156.504 512.774 154.74 512.774 152.991V147.762C512.872 147.762 511.908 146.896 512.317 147.305L468.199 147.419H467.872V147.73C467.954 153.955 468.003 159.021 468.052 162.632C468.052 164.266 468.052 165.622 468.133 166.619C468.178 167.148 468.266 167.672 468.395 168.187Z" fill="#E0E0E0"/>
<path d="M520.34 101.521C536.762 124.217 555.667 145.508 572.089 168.188L520.34 101.521Z" fill="white"/>
<path d="M572.089 168.189C571.98 167.922 571.831 167.674 571.648 167.453L570.275 165.411C569.05 163.646 567.236 161.146 564.965 158.09C560.389 151.947 553.87 143.646 546.566 134.577C539.262 125.508 532.66 117.273 527.971 111.244L522.448 104.103L520.928 102.159C520.569 101.734 520.373 101.505 520.34 101.521C520.45 101.792 520.598 102.045 520.781 102.273C521.157 102.829 521.598 103.498 522.154 104.299C523.379 106.064 525.193 108.564 527.464 111.636C532.023 117.763 538.559 126.064 545.863 135.149C553.167 144.234 559.768 152.437 564.458 158.466L569.981 165.623C570.602 166.391 571.092 167.028 571.501 167.551C571.909 168.074 572.056 168.205 572.089 168.189Z" fill="#E0E0E0"/>
<path d="M519.05 168.187C519.246 168.35 531.272 153.481 545.929 135.082C560.586 116.683 572.302 101.569 572.073 101.405C571.844 101.242 559.851 116.111 545.194 134.526C530.537 152.941 518.837 168.04 519.05 168.187Z" fill="#E0E0E0"/>
<path d="M581.812 101.553C581.812 103.194 582.298 104.799 583.211 106.164C584.123 107.529 585.419 108.593 586.936 109.222C588.453 109.85 590.122 110.014 591.732 109.694C593.342 109.374 594.821 108.583 595.982 107.422C597.143 106.261 597.933 104.782 598.254 103.172C598.574 101.562 598.409 99.8929 597.781 98.3761C597.153 96.8594 596.089 95.563 594.724 94.6509C593.359 93.7388 591.754 93.252 590.112 93.252C587.911 93.252 585.8 94.1265 584.243 95.6832C582.686 97.2399 581.812 99.3512 581.812 101.553Z" fill="#E0E0E0"/>
<path d="M446.042 81.4057C446.042 83.0474 446.529 84.6523 447.441 86.0173C448.353 87.3824 449.65 88.4463 451.166 89.0746C452.683 89.7028 454.352 89.8672 455.962 89.5469C457.572 89.2266 459.051 88.4361 460.212 87.2752C461.373 86.1143 462.164 84.6353 462.484 83.0251C462.804 81.4149 462.64 79.7459 462.012 78.2292C461.383 76.7124 460.32 75.416 458.954 74.5039C457.589 73.5918 455.985 73.105 454.343 73.105C452.141 73.105 450.03 73.9795 448.473 75.5362C446.917 77.0929 446.042 79.2042 446.042 81.4057Z" fill="#E0E0E0"/>
<path d="M185.159 776.999V814.205H191.368V818.257H185.159V843.159H69.0306V820.496H77.6254V815.594H69.0306V808.192H65.207V804.826H69.7495V777.048L185.159 776.999Z" fill="#F5F5F5"/>
<path d="M99.8633 777.113V842.734H69.0297V820.071H77.6245V815.561L69.0297 815.708V808.306H65.1245L65.2061 804.482L69.7486 804.368V776.999L99.8633 777.113Z" fill="#E0E0E0"/>
<path d="M97.6733 817.719C97.6733 817.947 118.687 818.127 144.602 818.127C170.517 818.127 191.53 817.947 191.53 817.719C191.53 817.49 170.517 817.31 144.602 817.31C118.687 817.31 97.6733 817.49 97.6733 817.719Z" fill="#E0E0E0"/>
<path d="M97.6733 813.943C97.6733 814.172 118.687 814.351 144.602 814.351C170.517 814.351 191.53 814.172 191.53 813.943C191.53 813.714 170.517 813.518 144.602 813.518C118.687 813.518 97.6733 813.714 97.6733 813.943Z" fill="#E0E0E0"/>
<path d="M91.644 803.699C91.644 803.928 112.657 804.108 138.573 804.108C164.488 804.108 185.501 803.928 185.501 803.699C185.501 803.47 164.488 803.291 138.573 803.291C112.657 803.291 91.644 803.536 91.644 803.699Z" fill="#E0E0E0"/>
<path d="M91.0563 831.476C91.0563 831.705 112.07 831.901 137.985 831.901C163.9 831.901 184.93 831.705 184.93 831.476C184.93 831.248 163.916 831.068 137.985 831.068C112.053 831.068 91.0563 831.264 91.0563 831.476Z" fill="#E0E0E0"/>
<path d="M617.505 658.943H528.909C525.919 658.943 523.051 657.755 520.937 655.641C518.823 653.526 517.635 650.658 517.635 647.668V620.364C517.635 617.866 518.127 615.393 519.083 613.085C520.038 610.778 521.439 608.681 523.206 606.915C524.972 605.149 527.068 603.748 529.376 602.792C531.684 601.836 534.157 601.344 536.655 601.344H618.175L617.505 658.943Z" fill="#EBEBEB"/>
<path d="M530.396 676.115H704.596C706.862 676.097 709.029 675.187 710.626 673.58C712.223 671.974 713.122 669.802 713.126 667.536C713.122 665.258 712.215 663.074 710.604 661.464C708.993 659.853 706.809 658.946 704.531 658.941H530.396C528.119 658.946 525.937 659.853 524.329 661.465C522.721 663.076 521.817 665.26 521.817 667.536C521.817 669.811 522.721 671.993 524.33 673.602C525.939 675.211 528.121 676.115 530.396 676.115Z" fill="#EBEBEB"/>
<path d="M740.104 430.232L644.27 428.598L583.436 658.518L713.127 659.743L762.147 458.206C762.96 454.872 763.004 451.396 762.275 448.042C761.546 444.689 760.063 441.545 757.939 438.85C755.815 436.154 753.105 433.977 750.015 432.484C746.925 430.991 743.536 430.221 740.104 430.232Z" fill="#E0E0E0"/>
<path d="M692.357 676.115L721.034 842.75H713.175L675.478 676.115H692.357Z" fill="#EBEBEB"/>
<path d="M624.76 676.115L655.234 842.75H647.375L607.881 676.115H624.76Z" fill="#E0E0E0"/>
<path d="M549.987 676.115L516 842.75H523.86L566.883 676.115H549.987Z" fill="#EBEBEB"/>
<path d="M655.234 428.531L607.848 658.696H571.476L609.466 455.329C610.859 447.804 614.843 441.004 620.726 436.109C626.608 431.214 634.019 428.533 641.672 428.531H655.234Z" fill="#EBEBEB"/>
<path d="M38.8832 843.667C38.8832 843.896 190.044 844.092 376.484 844.092C562.923 844.092 714.117 843.896 714.117 843.667C714.117 843.438 562.989 843.242 376.484 843.242C189.979 843.242 38.8832 843.422 38.8832 843.667Z" fill="#263238"/>
<path d="M467.138 844.141H592.073L582.629 753.192L467.138 752.44V844.141Z" fill="#407BFF"/>
<g opacity="0.4">
<path opacity="0.4" d="M467.138 844.141H592.073L582.629 753.192L467.138 752.44V844.141Z" fill="black"/>
</g>
<path d="M448.919 752.44H573.854V844.124H448.919V752.44Z" fill="#407BFF"/>
<g opacity="0.2">
<path opacity="0.2" d="M448.919 752.44H573.854V844.124H448.919V752.44Z" fill="black"/>
</g>
<path d="M447.873 796.836C447.873 797.065 475.978 797.261 510.635 797.261C545.292 797.261 573.43 797.065 573.43 796.836C573.43 796.607 545.325 796.395 510.635 796.395C475.945 796.395 447.873 796.591 447.873 796.836Z" fill="#263238"/>
<path d="M551.6 805.66C552.166 801.097 552.166 796.481 551.6 791.918C551.033 796.481 551.033 801.097 551.6 805.66Z" fill="#263238"/>
<path d="M464.735 805.17C465.302 801.099 465.302 796.969 464.735 792.898C464.169 796.969 464.169 801.099 464.735 805.17Z" fill="#263238"/>
<path d="M492.252 752.914C492.252 752.914 492.252 751.917 492.546 750.201C492.982 747.77 493.929 745.459 495.324 743.42C497.383 740.394 500.239 737.997 503.576 736.492C507.687 734.682 512.159 733.838 516.648 734.025C521.163 734.061 525.619 735.059 529.72 736.95C533.039 738.501 535.911 740.868 538.069 743.829C539.516 745.829 540.554 748.094 541.125 750.496C541.517 752.211 541.533 753.192 541.615 753.192C541.64 752.953 541.64 752.712 541.615 752.473C541.613 751.787 541.547 751.104 541.419 750.43C540.961 747.936 539.975 745.568 538.527 743.486C536.373 740.374 533.444 737.879 530.03 736.247C525.865 734.272 521.322 733.224 516.713 733.175C512.098 732.984 507.503 733.88 503.298 735.79C499.863 737.386 496.947 739.917 494.883 743.094C493.485 745.215 492.596 747.631 492.285 750.152C492.225 750.832 492.225 751.515 492.285 752.195C492.233 752.431 492.222 752.674 492.252 752.914Z" fill="#263238"/>
<path d="M539.115 398.793C533.145 395.989 526.432 395.175 519.964 396.473C516.484 397.044 512.857 398.107 510.504 400.688C508.151 403.27 507.693 407.894 510.406 410.133C512.156 411.318 514.265 411.855 516.37 411.652C521.435 411.652 527.04 410.705 531.076 413.744C533.38 415.476 534.916 418.368 537.612 419.218C538.991 419.535 540.436 419.396 541.73 418.821C543.023 418.247 544.095 417.268 544.785 416.031C546.094 413.513 546.386 410.589 545.602 407.861C545.291 405.953 544.544 404.141 543.419 402.568C542.294 400.995 540.821 399.703 539.115 398.793Z" fill="#407BFF"/>
<path d="M552.448 373.026C548.886 378.124 541.974 376.441 538.755 373.336C535.537 370.232 534.197 365.722 532.955 361.441C530.144 351.637 527.301 341.343 529.393 331.359C529.901 328.335 531.229 325.509 533.233 323.189C534.249 322.047 535.548 321.192 536.999 320.711C538.451 320.229 540.003 320.137 541.501 320.444C544.997 321.359 547.171 324.774 548.739 328.042C553.357 337.644 555.774 348.155 555.814 358.81C555.814 363.712 555.259 368.957 552.448 373.042" fill="#407BFF"/>
<path d="M562.237 380.33C560.405 377.942 559.185 375.142 558.684 372.174C558.182 369.206 558.415 366.161 559.361 363.303C561.298 357.564 564.788 352.474 569.442 348.597C574.719 343.924 580.858 340.327 587.515 338.009C590.103 336.953 592.892 336.479 595.685 336.62C597.072 336.7 598.418 337.118 599.606 337.839C600.794 338.559 601.787 339.561 602.498 340.754C604.41 344.382 602.498 348.777 600.619 352.356C597.139 358.681 593.167 364.724 588.74 370.428C585.194 375.019 581.109 379.545 575.668 381.604C570.227 383.663 564.606 383.434 561.73 379.676" fill="#407BFF"/>
<path d="M552.694 449.775C552.513 449.013 552.403 448.236 552.367 447.454C552.204 445.82 552.007 443.664 551.762 441.147C551.445 438.042 550.97 434.956 550.341 431.899C549.518 428.175 548.392 424.524 546.975 420.984C545.596 417.441 543.719 414.112 541.403 411.098C539.515 408.643 537.103 406.639 534.344 405.232C532.493 404.307 530.508 403.678 528.461 403.369C527.684 403.341 526.912 403.231 526.157 403.042C526.94 402.958 527.728 402.958 528.51 403.042C530.649 403.223 532.739 403.776 534.687 404.676C537.594 406.047 540.144 408.071 542.138 410.591C544.553 413.645 546.497 417.044 547.906 420.673C549.313 424.271 550.406 427.983 551.174 431.768C551.772 434.867 552.181 437.999 552.4 441.147C552.596 443.827 552.677 446.049 552.71 447.487C552.785 448.248 552.78 449.015 552.694 449.775Z" fill="#263238"/>
<path d="M552.268 444.922C552.22 444.564 552.22 444.201 552.268 443.843V440.772C552.268 438.124 552.268 434.236 552.138 429.513C551.909 419.987 551.076 409.758 549.507 395.314C548.004 381.752 545.994 365.902 543.87 355.673C543.412 353.336 542.955 351.245 542.53 349.398C542.105 347.552 541.762 345.967 541.419 344.676C541.076 343.385 540.896 342.487 540.7 341.702C540.598 341.357 540.538 341 540.52 340.64C540.688 340.96 540.814 341.301 540.896 341.653L541.778 344.578C542.17 345.853 542.579 347.438 543.036 349.284C543.494 351.13 544.033 353.206 544.523 355.542C547.16 367.687 549.14 379.965 550.455 392.324C552.089 406.784 552.742 419.954 552.808 429.497C552.808 434.268 552.808 438.124 552.644 440.788C552.644 442.03 552.514 443.043 552.464 443.86C552.433 444.219 552.367 444.575 552.268 444.922Z" fill="#263238"/>
<path d="M552.204 419.513C552.111 418.426 552.111 417.332 552.204 416.245C552.318 414.186 552.613 411.212 553.184 407.569C553.886 403.303 554.83 399.08 556.011 394.921C557.39 389.804 559.159 384.8 561.305 379.954C564.968 371.017 570.229 362.822 576.828 355.771C577.971 354.557 579.194 353.422 580.489 352.372C581.044 351.898 581.534 351.424 582.123 351.048L583.544 350.068C584.395 349.449 585.297 348.902 586.24 348.434C583.129 350.868 580.176 353.499 577.4 356.31C571.017 363.424 565.894 371.574 562.253 380.411C560.155 385.233 558.381 390.19 556.943 395.248C555.727 399.366 554.723 403.544 553.936 407.765C553.266 411.376 552.89 414.301 552.662 416.359C552.587 417.421 552.434 418.475 552.204 419.513Z" fill="#263238"/>
<path d="M576.746 464.334L574.213 499.204H529.409L526.86 464.334H576.746Z" fill="#263238"/>
<path d="M521.517 450.574H581.076V464.316H521.517V450.574Z" fill="#263238"/>
<path d="M581.076 497.863V501.67H578.282H522.497V497.863H581.076Z" fill="#455A64"/>
<path d="M575.538 508.386L578.283 501.67H524.639L527.842 508.386H575.538Z" fill="#455A64"/>
<path d="M527.693 475.724C527.693 475.724 527.693 475.838 527.906 476.051L528.575 476.933L531.174 480.201L531.304 480.364L531.402 480.201L537.824 471.328H537.448L543.772 480.266L543.968 480.56L544.18 480.283C546.517 477.521 549.082 474.515 551.664 471.377H551.239L551.648 471.9L558.347 480.283L558.576 480.56L558.772 480.266L565.095 471.345H564.72L572.497 480.201L572.644 480.364L572.742 480.185L575.177 476.083L575.798 475.005C575.881 474.883 575.947 474.752 575.994 474.613C575.896 474.718 575.809 474.833 575.733 474.956L575.046 476.001L572.481 480.021H572.726L565.079 471.05L564.883 470.822L564.703 471.067C562.775 473.763 560.635 476.769 558.331 479.956H558.772L552.089 471.541L551.68 471.034L551.468 470.756L551.239 471.018C548.625 474.155 546.108 477.178 543.772 479.956H544.197L537.824 471.05L537.628 470.789L537.448 471.05L531.174 480.021H531.402C530.259 478.665 529.343 477.57 528.69 476.753L527.955 475.92C527.876 475.844 527.788 475.778 527.693 475.724Z" fill="#E0E0E0"/>
<path d="M526.24 464.105C526.24 464.252 537.466 464.383 551.306 464.383C565.146 464.383 576.388 464.252 576.388 464.105C576.388 463.958 565.162 463.828 551.338 463.828C537.515 463.828 526.24 463.942 526.24 464.105Z" fill="#455A64"/>
<path d="M523.968 502.047C523.968 502.211 536.174 502.325 551.223 502.325C566.272 502.325 578.462 502.211 578.462 502.047C578.462 501.884 566.272 501.77 551.223 501.77C536.174 501.77 523.968 501.9 523.968 502.047Z" fill="#263238"/>
<path d="M243.45 509.154H112.272V502.782H243.45V509.154Z" fill="#263238"/>
<path d="M91.9451 509.155L67.3371 416.964H169.773L192.044 509.155H91.9451Z" fill="#263238"/>
<path d="M185.899 502.178H94.4118L73.1045 421.229H165.082L185.899 502.178Z" fill="#455A64"/>
<path d="M93.775 503.043H186.913L165.671 420.444H72.0102L93.775 503.043ZM184.854 501.409H94.9842L74.118 422.078H164.364L184.854 501.409Z" fill="#263238"/>
<path d="M507.177 527.062H513.795V843.34H507.177V527.062Z" fill="#455A64"/>
<path d="M500.543 527.962H507.161V843.324H500.543V527.962Z" fill="#263238"/>
<path d="M99.0523 527.062H105.67V843.34H99.0523V527.062Z" fill="#455A64"/>
<path d="M92.4351 527.962H99.0527V843.324H92.4351V527.962Z" fill="#263238"/>
<path d="M-0.000427246 508.681H590.576V534.628H-0.000427246V508.681Z" fill="#455A64"/>
<path d="M102.354 534.628H323.875V577.57H102.354V534.628Z" fill="#455A64"/>
<path d="M203.237 553.126C203.237 554.096 203.524 555.043 204.063 555.85C204.602 556.656 205.367 557.284 206.263 557.655C207.159 558.026 208.144 558.123 209.095 557.934C210.046 557.745 210.92 557.278 211.605 556.592C212.291 555.907 212.758 555.033 212.947 554.082C213.136 553.132 213.039 552.146 212.668 551.25C212.297 550.355 211.669 549.589 210.862 549.05C210.056 548.512 209.109 548.224 208.139 548.224C206.839 548.224 205.592 548.741 204.673 549.66C203.753 550.579 203.237 551.826 203.237 553.126Z" fill="#263238"/>
<path d="M54.1018 534.628C54.1018 534.857 130.9 535.053 225.508 535.053C320.117 535.053 396.915 534.857 396.915 534.628C396.915 534.399 320.117 534.203 225.508 534.203C130.9 534.203 54.1018 534.399 54.1018 534.628Z" fill="#263238"/>
<path d="M307.251 229.379C306.369 229.379 294.424 231.372 294.424 231.372L278.264 251.732L275.829 255.588L297.627 269.526L307.251 255.278L315.421 249.967C314.205 249.038 312.756 248.463 311.234 248.304C309.711 248.146 308.175 248.41 306.793 249.069C303.572 250.423 300.107 251.101 296.614 251.062L299.489 242.892L308.346 241.127L307.251 229.379Z" fill="#FFBE9D"/>
<path d="M306.237 215.13C305.898 215.042 305.545 215.025 305.199 215.082C304.853 215.139 304.523 215.268 304.23 215.46C303.938 215.653 303.689 215.905 303.5 216.2C303.31 216.495 303.186 216.826 303.133 217.173C301.809 225.523 297.806 250.653 296.597 258.023C296.495 258.61 296.616 259.213 296.937 259.715C297.257 260.217 297.754 260.581 298.329 260.735L317.561 266.111C317.893 266.206 318.241 266.227 318.582 266.174C318.923 266.121 319.249 265.995 319.536 265.804C319.824 265.612 320.066 265.361 320.247 265.067C320.428 264.774 320.543 264.444 320.584 264.101L325.846 222.385C325.924 221.775 325.776 221.157 325.43 220.648C325.084 220.139 324.563 219.775 323.966 219.624L306.237 215.13Z" fill="#263238"/>
<path d="M319.146 260.964L299.538 255.49L304.734 220.784C304.803 220.317 304.971 219.869 305.225 219.471C305.479 219.073 305.815 218.733 306.21 218.474C306.605 218.214 307.051 218.041 307.517 217.967C307.984 217.892 308.461 217.916 308.917 218.039L324.62 222.206L319.146 260.964Z" fill="#EBEBEB"/>
<path d="M299.947 235.571L308.755 242.107C308.755 242.107 308.02 244.427 306.68 244.591C303.826 244.217 301.006 243.616 298.248 242.793L299.947 235.571Z" fill="#FFBE9D"/>
<path d="M301.009 230.293L310.241 234.345C310.241 234.345 310.829 237.352 307.382 236.927L310.47 239.149C310.47 239.149 309.702 240.489 305.846 240.653C301.989 240.816 298.247 235.456 298.247 235.456L301.009 230.293Z" fill="#FFBE9D"/>
<path d="M291.841 240.572C291.841 240.686 292.969 240.474 294.194 239.33C294.869 238.698 295.578 238.103 296.318 237.549C296.734 237.243 297.222 237.049 297.734 236.986C298.246 236.923 298.766 236.993 299.243 237.189C301.806 238.665 304.484 239.933 307.25 240.98C304.86 239.165 302.273 237.625 299.537 236.389C298.912 236.134 298.228 236.055 297.56 236.16C296.971 236.299 296.415 236.554 295.926 236.912C295.162 237.501 294.461 238.169 293.835 238.905C293.21 239.506 292.544 240.063 291.841 240.572Z" fill="#EB996E"/>
<path d="M293.656 263.578C295.238 261.666 296.222 259.331 296.483 256.863C296.745 254.396 296.273 251.906 295.126 249.705C295.574 252.03 295.744 254.399 295.633 256.764C295.249 259.106 294.585 261.394 293.656 263.578Z" fill="#EB996E"/>
<path d="M294.8 234.363C294.914 234.461 295.404 233.758 296.581 233.383C298.155 232.943 299.838 233.137 301.27 233.922C303.002 234.755 304.538 235.817 305.764 236.324C306.989 236.83 307.855 236.945 307.872 236.847C307.888 236.749 307.153 236.454 306.042 235.785C304.931 235.115 303.493 234.036 301.614 233.154C300.727 232.71 299.76 232.449 298.77 232.386C297.946 232.337 297.122 232.489 296.368 232.827C295.143 233.432 294.8 234.33 294.8 234.363Z" fill="#EB996E"/>
<path d="M295.567 292.255L247.544 323.088L260.273 359.494C260.273 359.494 293.133 349.347 292.528 348.285C291.924 347.223 295.567 292.255 295.567 292.255Z" fill="#407BFF"/>
<path d="M307.986 785.036L315.551 819.824C315.551 819.824 282.724 839.187 283.492 845.739L351.467 833.517L341.924 778.827L307.986 785.036Z" fill="#263238"/>
<path d="M351.467 833.518L350.29 828.044L285.551 841.819C285.551 841.819 282.774 843.682 283.493 845.741L351.467 833.518Z" fill="#455A64"/>
<path d="M385.307 788.861L386.435 824.433C386.435 824.433 350.634 837.505 350.209 844.123L419.278 844.433L419.801 788.877L385.307 788.861Z" fill="#263238"/>
<g opacity="0.6">
<path opacity="0.6" d="M419.279 844.433L419.116 838.829L352.955 840.642C352.955 840.642 349.867 841.966 350.21 844.123L419.279 844.433Z" fill="#455A64"/>
</g>
<path d="M375.29 205.424L368.248 287.124L327.398 283.856C327.152 279.085 327.496 260.621 327.496 260.621C327.496 260.621 310.486 257.974 310.273 241.013C310.175 232.745 311.352 215.686 312.593 200.31C313.234 192.102 317.066 184.471 323.267 179.055C329.468 173.64 337.544 170.869 345.764 171.339C349.96 171.583 354.065 172.666 357.836 174.523C361.607 176.38 364.967 178.974 367.72 182.151C370.472 185.328 372.56 189.024 373.86 193.021C375.16 197.019 375.646 201.236 375.29 205.424Z" fill="#FFBE9D"/>
<path d="M327.48 260.311C335.333 260.454 343.051 258.258 349.653 254.004C349.653 254.004 344.408 266.243 327.447 264.707L327.48 260.311Z" fill="#EB996E"/>
<path d="M319.147 212.189C319.142 212.823 319.386 213.434 319.825 213.892C320.265 214.35 320.866 214.618 321.5 214.64C321.809 214.664 322.119 214.626 322.413 214.529C322.707 214.431 322.979 214.276 323.212 214.072C323.445 213.868 323.634 213.619 323.77 213.341C323.905 213.062 323.983 212.759 324 212.45C324.005 211.818 323.764 211.209 323.328 210.752C322.891 210.294 322.295 210.024 321.663 209.999C321.354 209.975 321.042 210.012 320.747 210.109C320.452 210.207 320.18 210.362 319.946 210.566C319.711 210.769 319.52 211.018 319.383 211.297C319.246 211.575 319.165 211.878 319.147 212.189Z" fill="#263238"/>
<path d="M316.205 208.758C316.499 209.084 318.345 207.712 320.96 207.728C323.574 207.745 325.486 209.035 325.764 208.725C326.041 208.414 325.6 208.006 324.767 207.401C323.633 206.62 322.288 206.203 320.911 206.209C319.549 206.204 318.221 206.633 317.12 207.434C316.319 208.039 316.041 208.627 316.205 208.758Z" fill="#263238"/>
<path d="M344.245 212.19C344.236 212.823 344.476 213.435 344.912 213.893C345.349 214.351 345.949 214.62 346.581 214.641C346.891 214.666 347.202 214.628 347.497 214.531C347.792 214.434 348.065 214.278 348.299 214.075C348.533 213.871 348.725 213.622 348.862 213.344C348.999 213.065 349.079 212.762 349.098 212.452C349.098 211.818 348.853 211.209 348.415 210.752C347.976 210.295 347.378 210.026 346.745 210.001C346.436 209.978 346.127 210.018 345.834 210.116C345.541 210.214 345.27 210.37 345.038 210.573C344.805 210.777 344.615 211.025 344.479 211.302C344.343 211.58 344.263 211.882 344.245 212.19Z" fill="#263238"/>
<path d="M341.891 209.249C342.185 209.56 344.032 208.204 346.646 208.22C349.261 208.236 351.172 209.527 351.45 209.2C351.728 208.874 351.287 208.498 350.453 207.893C349.326 207.099 347.976 206.681 346.597 206.7C345.235 206.69 343.905 207.12 342.806 207.926C342.006 208.53 341.744 209.102 341.891 209.249Z" fill="#263238"/>
<path d="M332.382 228.627C331.003 228.197 329.576 227.939 328.133 227.859C327.48 227.859 326.842 227.663 326.728 227.205C326.675 226.517 326.828 225.829 327.169 225.228C327.807 223.594 328.46 221.96 329.146 220.147C331.891 212.908 333.869 206.96 333.575 206.862C333.28 206.764 330.829 212.532 328.084 219.754C327.431 221.552 326.793 223.251 326.205 224.869C325.783 225.677 325.656 226.607 325.846 227.5C325.943 227.736 326.094 227.946 326.287 228.114C326.48 228.281 326.709 228.401 326.957 228.464C327.324 228.567 327.703 228.622 328.084 228.627C329.511 228.814 330.955 228.814 332.382 228.627Z" fill="#263238"/>
<path d="M340.095 230.441C339.67 230.441 339.67 233.252 337.236 235.343C334.801 237.435 331.795 236.977 331.762 237.451C331.729 237.925 332.432 237.99 333.723 238.023C335.387 238.033 337.002 237.454 338.281 236.389C339.55 235.382 340.367 233.913 340.553 232.304C340.553 231.127 340.291 230.425 340.095 230.441Z" fill="#263238"/>
<path d="M341.205 199.004C341.466 199.723 344.081 199.38 347.153 199.756C350.225 200.131 352.692 200.965 353.1 200.328C353.28 200.017 352.855 199.347 351.842 198.694C350.511 197.845 349.002 197.314 347.432 197.142C345.863 196.969 344.274 197.159 342.79 197.697C341.663 198.105 341.107 198.677 341.205 199.004Z" fill="#263238"/>
<path d="M317.153 201.193C317.611 201.798 319.425 201.193 321.582 201.193C323.738 201.193 325.585 201.602 326.01 200.981C326.189 200.67 325.895 200.082 325.095 199.51C324.017 198.84 322.766 198.505 321.498 198.545C320.23 198.586 319.002 199.001 317.97 199.739C317.202 200.294 316.957 200.915 317.153 201.193Z" fill="#263238"/>
<path d="M356.891 186.781H356.989C359.676 188.93 361.431 192.032 361.891 195.441V195.784C362.561 200.686 362.43 205.588 363.149 210.49C363.868 215.392 365.535 220.294 369.13 223.562C370.6 224.935 373.198 225.883 374.407 224.281C374.821 223.615 375.032 222.843 375.012 222.059C375.927 210.343 379.13 199.951 379.097 187.745C379.115 186.104 378.74 184.483 378.004 183.016C377.268 181.549 376.191 180.28 374.865 179.314C372.3 177.483 369.179 175.572 366.319 176.928C363.46 178.284 359.783 183.611 357.577 185.866" fill="#263238"/>
<path d="M369.555 213.12C369.849 212.989 381.238 209.656 380.878 221.29C380.519 232.924 368.901 230.146 368.901 229.819C368.901 229.492 369.555 213.12 369.555 213.12Z" fill="#FFBE9D"/>
<path d="M372.595 225.524C372.595 225.524 372.791 225.671 373.118 225.834C373.594 226.058 374.139 226.087 374.637 225.916C375.402 225.465 376.034 224.818 376.467 224.043C376.901 223.268 377.121 222.392 377.104 221.504C377.165 220.506 377.003 219.507 376.631 218.579C376.537 218.207 376.354 217.864 376.098 217.58C375.842 217.295 375.52 217.077 375.16 216.945C374.929 216.878 374.681 216.891 374.459 216.984C374.236 217.076 374.051 217.241 373.935 217.452C373.771 217.778 373.837 218.007 373.771 218.023C373.706 218.04 373.542 217.827 373.64 217.353C373.716 217.064 373.889 216.81 374.131 216.635C374.462 216.413 374.863 216.32 375.258 216.373C375.731 216.489 376.168 216.722 376.527 217.05C376.887 217.378 377.158 217.792 377.317 218.252C377.779 219.276 377.982 220.399 377.905 221.52C377.758 223.873 376.484 226.014 374.801 226.422C374.484 226.502 374.154 226.51 373.835 226.445C373.515 226.38 373.214 226.244 372.954 226.046C372.595 225.801 372.546 225.54 372.595 225.524Z" fill="#EB996E"/>
<path d="M366.696 178.725C369.555 174.068 361.712 167.385 355.977 165.653C350.241 163.921 342.676 166.634 336.973 168.529C333.362 169.722 329.784 171.389 325.977 171.241C323.443 170.971 320.961 170.339 318.607 169.362C316.256 168.368 313.725 167.867 311.173 167.892C309.898 167.919 308.654 168.294 307.577 168.976C306.5 169.659 305.63 170.623 305.061 171.764C304.097 174.117 305.47 177.353 308.003 177.696C307.195 177.257 306.294 177.02 305.375 177.004C304.456 176.989 303.547 177.196 302.725 177.608C301.903 178.019 301.193 178.624 300.656 179.369C300.118 180.114 299.768 180.978 299.636 181.888C299.504 182.797 299.594 183.725 299.898 184.592C300.202 185.46 300.711 186.241 301.382 186.869C302.053 187.497 302.865 187.954 303.751 188.2C304.636 188.447 305.568 188.475 306.467 188.284C304.833 187.026 302.284 189.101 302.496 191.16C302.718 192.177 303.201 193.118 303.897 193.891C304.593 194.665 305.479 195.244 306.467 195.572C311.369 197.696 316.973 197.01 321.99 195.327C327.006 193.644 331.663 191.013 336.696 189.199C341.728 187.385 350.013 184.117 354.996 185.931C358.673 187.238 361.238 191.666 363.313 190.686C364.293 190.163 365.136 189.418 365.774 188.509C366.413 187.601 366.829 186.556 366.99 185.457C367.264 183.28 367.187 181.074 366.761 178.921" fill="#263238"/>
<path d="M306.614 177.32C306.712 177.32 307.202 178.17 308.46 179.526C310.24 181.42 312.456 182.851 314.915 183.692C318.53 184.992 322.509 184.834 326.01 183.251C329.964 181.47 333.346 177.875 337.284 174.607C340.895 171.225 345.458 169.034 350.356 168.333C352.378 168.085 354.43 168.302 356.356 168.967C358.282 169.633 360.03 170.729 361.467 172.173C362.395 173.181 363.107 174.367 363.562 175.659C364.017 176.951 364.205 178.322 364.114 179.689C364.05 180.423 363.88 181.145 363.608 181.83C363.395 182.287 363.265 182.516 363.232 182.5C363.453 181.57 363.6 180.625 363.673 179.673C363.671 177.085 362.67 174.597 360.879 172.728C359.489 171.415 357.822 170.43 356.001 169.848C354.179 169.265 352.25 169.099 350.356 169.362C345.699 170.103 341.372 172.226 337.938 175.457C334.114 178.725 330.617 182.369 326.385 184.215C323.265 185.549 319.799 185.841 316.499 185.05C313.2 184.258 310.243 182.424 308.068 179.82C307.603 179.265 307.198 178.662 306.859 178.022C306.679 177.581 306.581 177.336 306.614 177.32Z" fill="#455A64"/>
<path d="M372.529 212.614C372.529 212.614 372.023 212.287 371.582 211.372C371.008 210.046 370.805 208.589 370.993 207.157C371.255 203.415 374.572 199.395 374.997 194.215C375.292 191.823 374.841 189.397 373.706 187.271C372.714 185.591 371.199 184.282 369.392 183.545C368.165 183.028 366.824 182.842 365.503 183.006C364.572 183.17 364.065 183.382 364.016 183.284C364.405 182.926 364.886 182.683 365.405 182.581C366.814 182.214 368.301 182.283 369.67 182.777C371.708 183.496 373.438 184.892 374.572 186.732C375.876 189.037 376.408 191.7 376.092 194.33C375.79 196.884 375.031 199.364 373.853 201.65C372.919 203.428 372.232 205.324 371.81 207.287C371.489 209.095 371.741 210.957 372.529 212.614Z" fill="#455A64"/>
<path d="M304.277 814.875C304.277 814.875 268.868 641.181 268.836 637.717L332.088 604.351L356.598 808.192L304.277 814.875Z" fill="#263238"/>
<path d="M383.918 820.69L335.012 519.658V454.723L405.83 459.788C406.679 462.321 424.539 821.082 424.539 821.082L417.644 820.69H383.918Z" fill="#263238"/>
<path d="M296.564 450.133L268.835 637.716L330.829 622.683L356.091 456.244L296.564 450.133Z" fill="#263238"/>
<path d="M285.878 530.934C285.878 530.934 275.094 521.669 274.032 514.692C272.969 507.715 286.956 395.41 286.956 395.41L294.097 302.566C294.097 304.2 293.901 290.867 296.058 290.066C302.594 287.599 316.025 283.122 316.025 283.122L323.705 276.226C323.705 276.226 309.914 335.181 307.234 351.292L285.878 530.934Z" fill="#407BFF"/>
<path d="M374.424 269.821L386.026 277.55L429.539 294.658L410.209 367.55L412.807 409.904L415.274 436.783C415.274 436.783 428.232 503.336 439.67 543.777C439.67 543.777 426.908 567.96 416.418 571.327L412.055 573.925L396.5 460.018L383.15 442.044C381.859 440.312 380.666 438.531 379.539 436.701C376.271 431.358 368.787 419.217 362.823 409.855C354.947 397.485 344.849 369.38 347.839 357.387C350.829 345.393 374.424 269.821 374.424 269.821Z" fill="#407BFF"/>
<path d="M403.983 521.113C393.795 512.869 385.333 502.697 379.081 491.178L403.983 521.113Z" fill="#263238"/>
<path d="M374.425 269.821L363.951 337.028C364.236 345.62 365.659 354.137 368.183 362.355L386.876 422.813C386.876 422.813 401.582 455.771 396.501 459.986C391.419 464.202 351.892 459.986 351.892 459.986L298.395 452.225C297.202 452.05 296.121 451.424 295.376 450.475C294.631 449.526 294.279 448.328 294.392 447.127L302.333 365.067C305.013 359.397 306.108 347.796 307.235 343.678L323.706 276.243L327.072 275.802L334.392 280.818L338.248 281.129L370.618 265.458L374.425 269.821Z" fill="#EBEBEB"/>
<path d="M384.179 414.036C375.536 387.092 364.343 343.284 364.343 343.284C360.862 366.16 364.669 389.608 373.183 411.177C380.143 428.759 388.558 442.059 394.343 460.082L394.523 460.818C394.523 460.818 397.791 460.997 397.562 456.177C397.333 451.357 392.66 437.01 389.539 429.069C386.418 421.128 384.179 414.036 384.179 414.036Z" fill="#E0E0E0"/>
<path d="M332.529 286.521H339.8L341.974 296.473L335.617 304.169L329.212 303.531L327.121 296.391L328.836 292.404L332.529 286.521Z" fill="#407BFF"/>
<path d="M290.128 344.625C287.84 345.083 262.579 362.076 253.396 360.246C244.212 358.416 236.778 349.756 235.797 348.596C230.585 342.419 233.853 329.592 235.356 324.756C235.722 323.576 236.221 322.441 236.843 321.373L275.847 254.379L298.837 268.35L274.981 311.864L290.128 344.625Z" fill="#407BFF"/>
<path d="M478.249 425.621C479.76 421.668 480.417 417.44 480.175 413.215C479.932 408.991 478.797 404.865 476.844 401.111C471.55 390.637 463.151 373.725 461.386 368.17C458.772 359.918 434.327 296.6 429.539 294.64L408.297 366.356L432.971 418.317L404.049 472.811L428.151 498.792C428.151 498.792 473.755 435.196 477.514 427.337C477.775 426.77 478.02 426.198 478.249 425.621Z" fill="#407BFF"/>
<path d="M402.905 515.329C398.344 511.061 394.292 506.28 390.83 501.081C390.862 501.012 390.878 500.936 390.878 500.86C390.878 500.784 390.862 500.709 390.83 500.639C390.774 500.558 390.701 500.49 390.617 500.439C390.532 500.388 390.437 500.356 390.339 500.345C388.955 498.2 387.689 495.979 386.549 493.695C390.585 491.064 395.862 487.159 390.127 486.277C383.052 485.264 378.003 481.832 377.284 479.953C376.565 478.074 378.918 476.391 380.781 477.584C382.925 478.684 385.213 479.476 387.578 479.937C389.466 480.382 391.417 480.504 393.346 480.296C395.585 480.051 404.784 476.064 406.418 475.77L423.624 493.875C423.624 493.875 410.405 507.943 402.905 515.329Z" fill="#FFBE9D"/>
<path d="M290.29 346.618C290.572 345.975 290.775 345.301 290.895 344.609C291.238 343.301 291.663 341.341 292.136 339.004C293.347 332.818 294.236 326.573 294.8 320.295C295.362 314.015 295.591 307.71 295.486 301.406C295.486 298.987 295.355 297.043 295.257 295.687C295.244 294.984 295.167 294.284 295.029 293.595C294.913 294.291 294.88 294.999 294.931 295.703C294.931 297.223 294.931 299.134 294.931 301.406C294.931 306.308 294.653 312.844 293.999 320.229C293.346 327.615 292.365 334.151 291.581 338.906C291.205 341.145 290.878 343.04 290.617 344.543C290.443 345.223 290.333 345.918 290.29 346.618Z" fill="#263238"/>
<path d="M270.29 350.493C270.29 350.493 270.486 350.493 270.845 350.362C271.35 350.178 271.837 349.948 272.3 349.676C274.001 348.623 275.424 347.177 276.45 345.46C277.886 342.919 278.891 340.159 279.424 337.29C280.26 333.825 280.909 330.318 281.368 326.783C282.055 319.234 282.627 312.453 283.002 307.518C283.166 305.182 283.297 303.221 283.411 301.669C283.489 300.952 283.489 300.229 283.411 299.512C283.227 300.208 283.107 300.918 283.051 301.636C282.888 303.27 282.659 305.133 282.398 307.453C281.859 312.355 281.189 319.201 280.519 326.685C280.045 330.411 279.342 333.94 278.64 337.11C278.167 339.958 277.252 342.715 275.927 345.28C274.975 346.956 273.671 348.406 272.104 349.528C270.927 350.166 270.208 350.427 270.29 350.493Z" fill="#263238"/>
<g opacity="0.3">
<path opacity="0.3" d="M283.459 299.575C285.45 307.104 286.827 314.782 287.577 322.533C288.266 327.159 288.021 331.876 286.858 336.406C285.453 340.85 282.169 344.951 277.659 346.21C279.718 331.046 281.531 315.855 283.1 300.637" fill="black"/>
</g>
<g opacity="0.3">
<path opacity="0.3" d="M417.251 446.49C417.251 446.49 409.604 462.16 405.372 470.363C396.548 433.908 407.741 395.542 404.097 358.221L410.47 371.081L412.267 400.836L413.64 418.287C413.64 418.287 414.947 437.062 417.251 446.49Z" fill="black"/>
</g>
<path d="M411.074 295.328C410.58 295.961 410.148 296.639 409.783 297.354C409.375 298.024 408.917 298.858 408.427 299.838C407.937 300.818 407.332 301.946 406.793 303.22C405.461 306.198 404.309 309.254 403.345 312.371C401.02 320.03 399.853 327.994 399.881 335.998C399.89 339.277 400.114 342.553 400.551 345.802C400.682 347.191 400.943 348.433 401.139 349.512C401.335 350.59 401.532 351.538 401.711 352.289C401.857 353.083 402.082 353.86 402.381 354.61C402.337 353.806 402.222 353.008 402.038 352.224C401.907 351.456 401.744 350.59 401.597 349.43C401.45 348.27 401.254 347.11 401.139 345.737C400.803 342.518 400.645 339.283 400.666 336.047C400.716 332.094 401.016 328.149 401.564 324.234C402.168 320.323 403.014 316.454 404.097 312.648C405.01 309.544 406.102 306.494 407.365 303.514C407.855 302.224 408.427 301.112 408.868 300.099C409.309 299.086 409.734 298.253 410.094 297.567C410.495 296.855 410.823 296.105 411.074 295.328Z" fill="#263238"/>
<path d="M433.2 418.758C433.314 418.84 434.409 417.124 436.468 414.428C439.214 411.031 442.472 408.082 446.125 405.686C448.081 404.364 450.445 403.785 452.791 404.052C454.696 404.404 456.499 405.174 458.069 406.307C460.831 408.203 462.334 409.69 462.448 409.575C462.183 409.15 461.852 408.77 461.468 408.448C460.513 407.494 459.492 406.61 458.412 405.801C456.807 404.586 454.946 403.754 452.971 403.366C450.445 403.005 447.874 403.587 445.749 405C442.004 407.434 438.723 410.516 436.059 414.101C435.252 415.178 434.51 416.302 433.837 417.467C433.559 417.862 433.344 418.297 433.2 418.758Z" fill="#263238"/>
<path d="M438.592 401.587C435.349 406.536 433.487 412.262 433.2 418.172C433.461 418.172 434.099 414.348 435.602 409.79C437.105 405.231 438.772 401.734 438.592 401.587Z" fill="#263238"/>
<path d="M417.758 445.476C417.289 446.135 416.879 446.835 416.533 447.567L413.428 453.433C410.83 458.417 407.284 465.361 403.346 473.156L403.199 473.433L403.412 473.646L405.046 475.28C411.467 481.963 417.301 487.992 421.566 492.306L426.647 497.404C427.245 498.056 427.895 498.657 428.592 499.202C428.104 498.482 427.558 497.804 426.958 497.175L422.056 491.898C417.905 487.453 412.121 481.375 405.716 474.692L404.082 473.058V473.548C408.003 465.737 411.467 458.842 413.886 453.695L416.745 447.714C417.155 447.003 417.495 446.253 417.758 445.476Z" fill="#263238"/>
<path d="M385.928 412.601C385.971 412.128 385.971 411.652 385.928 411.179C385.928 410.182 385.928 408.842 385.928 407.143C385.846 403.565 385.732 398.499 385.585 392.29C385.438 386.081 385.274 378.564 384.931 370.28C384.723 361.249 383.495 352.27 381.271 343.515C380.036 339.028 378.304 334.693 376.108 330.59L375.797 331.211C377.831 330.863 379.68 329.817 381.026 328.254C382.309 326.788 383.242 325.051 383.755 323.172C384.503 319.695 384.789 316.135 384.605 312.583C384.605 305.933 384.605 299.985 384.605 295.018C384.605 290.051 384.605 286.178 384.605 283.368C384.605 282.06 384.605 281.015 384.605 280.23C384.643 279.872 384.643 279.51 384.605 279.152C384.543 279.508 384.515 279.869 384.523 280.23C384.523 281.015 384.523 282.06 384.441 283.368C384.441 286.178 384.343 290.116 384.261 295.002C384.18 299.887 384.147 305.917 384.082 312.583C384.245 316.066 383.948 319.555 383.199 322.959C382.711 324.712 381.834 326.331 380.634 327.698C379.416 329.117 377.739 330.065 375.895 330.378L375.307 330.476L375.585 330.999C377.75 335.044 379.454 339.319 380.667 343.744C382.866 352.438 384.104 361.348 384.359 370.313C384.735 378.581 384.948 386.048 385.209 392.323C385.471 398.597 385.667 403.565 385.814 407.159L386.01 411.195C385.959 411.662 385.932 412.131 385.928 412.601Z" fill="#263238"/>
<path d="M315.911 284.085C315.748 284.37 315.616 284.671 315.519 284.984C315.29 285.67 314.963 286.618 314.588 287.615L311.205 297.419C309.8 301.618 308.117 306.602 306.303 312.125C305.405 314.952 304.293 317.828 303.46 321.014C303.012 322.671 302.939 324.407 303.248 326.096C303.407 326.997 303.747 327.856 304.247 328.623C304.747 329.389 305.396 330.047 306.156 330.556L306.025 329.952C304.653 331.994 303.199 334.168 301.842 336.488C299.804 339.772 298.262 343.34 297.267 347.076C296.503 350.595 296.256 354.205 296.532 357.795C296.924 364.576 297.365 370.671 297.725 375.769C298.084 380.867 298.395 384.952 298.623 387.91C298.738 389.266 298.836 390.361 298.901 391.178C298.918 391.564 298.973 391.947 299.065 392.322C299.104 391.936 299.104 391.547 299.065 391.161C299.065 390.328 298.983 389.217 298.934 387.893C298.787 384.92 298.574 380.786 298.313 375.737C298.051 370.687 297.676 364.478 297.283 357.763C297.057 354.252 297.316 350.728 298.051 347.289C299.044 343.64 300.563 340.156 302.561 336.945C303.901 334.69 305.339 332.534 306.712 330.409L306.957 330.05L306.581 329.821C305.917 329.375 305.351 328.798 304.916 328.127C304.48 327.456 304.185 326.704 304.048 325.916C303.756 324.343 303.818 322.724 304.228 321.177C305.012 318.105 306.123 315.148 307.006 312.354C308.803 306.749 310.421 301.749 311.793 297.533C313.166 293.318 314.163 290.066 314.914 287.729C315.258 286.634 315.519 285.736 315.731 285.05C315.815 284.733 315.875 284.411 315.911 284.085Z" fill="#263238"/>
<path d="M379.506 487.127C379.686 487.61 379.94 488.062 380.258 488.467C380.781 489.301 381.565 490.477 382.562 491.915C384.571 494.791 387.464 498.696 390.732 502.912C394 507.128 397.17 510.82 399.49 513.435C400.65 514.742 401.614 515.788 402.3 516.49C402.987 517.193 403.379 517.569 403.428 517.536C402.368 515.963 401.205 514.462 399.947 513.043C397.741 510.33 394.702 506.507 391.402 502.389C388.101 498.271 385.176 494.35 383.052 491.556C381.968 490.004 380.784 488.524 379.506 487.127Z" fill="#455A64"/>
<path d="M353.902 466.047C353.902 466.047 353.902 466.357 353.902 466.962C353.902 467.566 354.065 468.498 354.196 469.658C354.457 472.044 354.866 475.524 355.372 479.985C356.434 488.956 358.019 501.946 360.111 517.959C364.245 550.002 370.519 594.201 377.268 643.025C380.634 667.454 383.804 690.722 386.353 711.931C387.023 717.225 387.562 722.405 388.313 727.421C389.065 732.438 389.833 737.225 390.552 741.964L394.506 768.108C396.908 784.089 398.804 797.014 400.046 805.968C400.666 810.429 401.124 813.909 401.402 816.278C401.532 817.455 401.63 818.354 401.663 818.958C401.678 819.187 401.678 819.416 401.663 819.644C401.663 819.84 401.549 819.644 401.549 819.644C401.549 819.644 401.68 819.644 401.663 819.563C401.694 819.335 401.694 819.104 401.663 818.876C401.663 818.272 401.581 817.357 401.467 816.18C401.255 813.811 400.846 810.314 400.274 805.837C399.13 796.866 397.333 783.925 395.013 767.945C393.82 759.938 392.529 751.196 391.157 741.801C390.438 737.095 389.719 732.242 388.967 727.242C388.215 722.242 387.693 717.062 387.023 711.768C384.441 690.526 381.369 667.274 378.019 642.846C371.271 594.005 364.947 549.838 360.601 517.812C358.493 501.831 356.794 488.874 355.601 479.887C355.029 475.426 354.571 471.962 354.261 469.56C354.098 468.416 353.983 467.517 353.902 466.88C353.82 466.243 353.902 466.047 353.902 466.047Z" fill="#455A64"/>
<path d="M316.613 813.257C316.591 812.961 316.552 812.667 316.499 812.375C316.401 811.754 316.27 810.888 316.09 809.76C315.682 807.44 315.11 804.09 314.456 799.777C312.937 791.067 310.731 778.535 308.018 763.061L286.384 641.932C285.755 639.058 285.579 636.103 285.861 633.174C286.237 630.265 286.727 627.324 287.152 624.448C288.035 618.664 288.912 612.972 289.783 607.373C291.548 596.197 293.296 585.412 294.995 575.151C298.411 554.628 301.711 536.18 304.652 520.722C307.594 505.264 310.192 492.797 312.152 484.219C313.084 479.921 313.934 476.604 314.456 474.415C314.701 473.32 314.898 472.454 315.045 471.849C315.192 471.245 315.224 470.967 315.224 470.967C315.122 471.251 315.035 471.54 314.963 471.833L314.277 474.382C313.705 476.62 312.806 479.921 311.826 484.186C309.767 492.732 307.087 505.199 304.064 520.64C301.041 536.082 297.692 554.53 294.26 575.053C292.528 585.314 290.78 596.099 288.999 607.275C288.127 612.885 287.245 618.577 286.352 624.35C285.91 627.259 285.437 630.135 285.044 633.109C284.757 636.13 284.939 639.179 285.584 642.145C294.097 689.384 301.793 732.162 307.381 763.159C310.208 778.616 312.496 791.133 314.081 799.826C314.881 804.139 315.518 807.489 315.943 809.793C316.156 810.904 316.335 811.77 316.45 812.375C316.564 812.979 316.613 813.257 316.613 813.257Z" fill="#455A64"/>
<path d="M335.013 517.535C334.768 517.535 337.66 537.012 341.467 560.966C345.274 584.921 348.526 604.349 348.722 604.349C348.918 604.349 346.059 584.872 342.268 560.917C338.477 536.963 335.242 517.502 335.013 517.535Z" fill="#455A64"/>
<path d="M383.329 820.152C383.861 820.308 384.41 820.401 384.963 820.43C385.993 820.544 387.496 820.691 389.359 820.838C393.068 821.133 398.215 821.41 403.901 821.492C409.587 821.574 414.751 821.492 418.476 821.312C420.339 821.312 421.842 821.149 422.872 821.051C423.425 821.06 423.976 820.983 424.506 820.822C422.5 820.668 420.486 820.635 418.476 820.724C414.751 820.724 409.62 820.724 403.934 820.642C398.248 820.561 393.133 820.381 389.408 820.234C387.386 820.07 385.355 820.043 383.329 820.152Z" fill="#455A64"/>
<path d="M304.277 814.874C304.971 814.905 305.666 814.866 306.352 814.759L311.973 814.171C316.712 813.632 323.247 812.815 330.47 811.883C337.692 810.952 344.228 810.053 348.95 809.367L354.539 808.517C355.229 808.434 355.912 808.298 356.581 808.109C355.883 808.043 355.18 808.07 354.49 808.19C353.166 808.305 351.222 808.501 348.869 808.762C344.13 809.302 337.578 810.102 330.355 811.034C323.133 811.965 316.613 812.88 311.891 813.566L306.303 814.432C305.613 814.499 304.932 814.647 304.277 814.874Z" fill="#455A64"/>
<path d="M373.232 280.687C372.597 281.015 371.995 281.403 371.435 281.847L366.631 285.115C362.546 287.909 356.827 291.651 350.291 295.377C347.84 296.782 345.389 298.089 343.232 299.266L343.82 299.527C342.448 294.102 341.239 289.445 340.356 286.161C339.931 284.625 339.572 283.35 339.278 282.305C339.174 281.836 339.015 281.38 338.804 280.948C338.815 281.429 338.887 281.907 339.016 282.37C339.245 283.432 339.523 284.723 339.85 286.275C340.618 289.543 341.712 294.282 343.118 299.723L343.232 300.213L343.69 299.984C345.928 298.824 348.347 297.517 350.798 296.112C356.401 292.912 361.824 289.405 367.04 285.605C369.033 284.151 370.618 282.909 371.696 282.043C372.257 281.649 372.772 281.194 373.232 280.687Z" fill="#263238"/>
<path d="M319.31 292.712C321.585 294.533 324 296.172 326.532 297.614L326.891 297.843L327.087 297.451L329.293 293.153C330.927 289.885 332.48 286.781 333.509 284.558C334.15 283.391 334.665 282.158 335.045 280.882C334.236 281.942 333.546 283.087 332.986 284.297C331.81 286.437 330.225 289.428 328.542 292.761L326.336 297.157L326.891 296.993C324.471 295.385 321.937 293.954 319.31 292.712Z" fill="#263238"/>
<path d="M329.963 291.111C330.399 291.54 330.881 291.918 331.401 292.239C332.3 292.909 333.574 293.873 334.996 294.771C336.417 295.67 337.708 296.602 338.656 297.222C339.173 297.579 339.72 297.891 340.29 298.154C339.853 297.722 339.371 297.339 338.852 297.01C337.937 296.356 336.663 295.458 335.257 294.494L331.597 292.043C331.08 291.686 330.534 291.374 329.963 291.111Z" fill="#263238"/>
<path d="M334.866 294.492C336.032 293.576 337.124 292.571 338.134 291.485C339.19 290.471 340.167 289.379 341.059 288.217C339.924 289.134 338.864 290.14 337.889 291.224C336.798 292.234 335.788 293.326 334.866 294.492Z" fill="#263238"/>
<path d="M365.65 439.447C365.167 443.531 364.025 447.51 362.268 451.228C360.271 454.82 357.699 458.061 354.653 460.82C355.773 460.296 356.787 459.571 357.643 458.679C362.081 454.614 364.92 449.098 365.65 443.124C365.868 441.908 365.868 440.663 365.65 439.447Z" fill="#263238"/>
<path d="M356.14 460.982C361.58 460.519 366.674 458.125 370.503 454.234C370.34 454.038 367.529 456.276 363.575 458.123C359.621 459.969 356.091 460.721 356.14 460.982Z" fill="#263238"/>
<path d="M324.212 408.68C323.931 409.232 323.727 409.82 323.607 410.428C323.264 411.572 322.823 413.239 322.333 415.33C321.32 419.464 320.127 425.232 319.179 431.67C318.232 438.108 317.692 443.958 317.447 448.222C317.333 450.347 317.268 452.062 317.268 453.255C317.187 453.868 317.187 454.489 317.268 455.102C317.42 454.503 317.507 453.889 317.529 453.272C317.66 451.899 317.807 450.232 317.987 448.255C318.379 444.039 319 438.206 319.947 431.801C320.895 425.395 322.006 419.627 322.856 415.461C323.248 413.516 323.591 411.866 323.869 410.559C324.053 409.947 324.168 409.317 324.212 408.68Z" fill="#263238"/>
<path d="M335.095 305.834C337.219 322.811 338.788 359.756 339.376 376.897C339.866 391.21 339.817 405.541 339.768 419.871C339.768 424.495 339.768 429.266 337.791 433.466C334.376 441.031 326.026 444.904 318.363 447.976L335.095 305.834Z" fill="#E0E0E0"/>
<path d="M316.042 445.525L307.267 424.021L329.212 303.53L335.617 304.168C335.617 304.168 334.718 429.397 335.013 430.525L316.042 445.525Z" fill="#407BFF"/>
<path d="M329.441 303.53C330.43 303.844 331.459 304.014 332.496 304.037C333.516 304.171 334.549 304.171 335.568 304.037C334.559 303.862 333.537 303.764 332.513 303.743C331.494 303.608 330.468 303.537 329.441 303.53Z" fill="#263238"/>
</svg>
