<svg width="62" height="54" viewBox="0 0 62 54" fill="none" xmlns="http://www.w3.org/2000/svg">
<path d="M33.1115 18.5443C33.6022 18.5443 34 18.1527 34 17.6695V13.9374C34 13.9049 33.9979 13.873 33.9944 13.8415C33.994 13.8372 33.993 13.8329 33.9924 13.8285C33.9878 13.792 33.9806 13.7564 33.9716 13.7214C33.9698 13.7143 33.968 13.7073 33.9661 13.7003C33.9551 13.6615 33.9417 13.6237 33.9256 13.5875C33.9241 13.584 33.9222 13.5807 33.9206 13.5773C33.905 13.5434 33.8872 13.5108 33.8676 13.4795C33.8639 13.4735 33.8604 13.4675 33.8565 13.4616C33.8349 13.4289 33.811 13.3976 33.7852 13.3681C33.78 13.362 33.7743 13.3563 33.7689 13.3504C33.7422 13.3214 33.7141 13.294 33.6838 13.2688C33.6825 13.2678 33.6816 13.2665 33.6803 13.2655L33.6772 13.2629C33.6768 13.2627 33.6765 13.2623 33.6762 13.2621L22.3873 4.00043L19.6063 0.349892C19.4384 0.129577 19.1752 0 18.8955 0H15.1045C14.8248 0 14.5616 0.129577 14.3937 0.349892L11.6128 4.00032L0.323889 13.262C0.323533 13.2622 0.323177 13.2625 0.322941 13.2628L0.31986 13.2653C0.318557 13.2664 0.31761 13.2677 0.316306 13.2687C0.285979 13.2939 0.257903 13.3214 0.231248 13.3502C0.225798 13.3562 0.22023 13.3619 0.214899 13.368C0.189074 13.3975 0.165261 13.4287 0.143582 13.4615C0.139672 13.4673 0.136237 13.4734 0.132565 13.4794C0.112899 13.5107 0.0950102 13.5433 0.079491 13.5772C0.0779509 13.5806 0.0760555 13.5839 0.0745154 13.5874C0.0584039 13.6237 0.0451362 13.6614 0.0340003 13.7001C0.0319864 13.7071 0.0303272 13.7141 0.0285502 13.7212C0.0195467 13.7562 0.0123208 13.7919 0.00770064 13.8284C0.0071083 13.8327 0.00615987 13.8371 0.005686 13.8414C0.00213199 13.873 0 13.9049 0 13.9374V17.6695C0 18.1527 0.397812 18.5443 0.888502 18.5443C1.37919 18.5443 1.777 18.1527 1.777 17.6695V14.8121H11.3728V22.8581L0.32377 31.9229C0.323415 31.9231 0.323059 31.9234 0.322822 31.9237L0.319742 31.9262C0.318439 31.9273 0.317491 31.9286 0.316188 31.9296C0.28586 31.9548 0.257784 31.9823 0.231128 32.0112C0.225679 32.0171 0.220112 32.0228 0.214781 32.0289C0.188955 32.0584 0.165143 32.0896 0.143463 32.1224C0.139554 32.1283 0.136118 32.1343 0.132446 32.1403C0.11278 32.1716 0.0948918 32.2042 0.0793726 32.2381C0.0778325 32.2415 0.0759371 32.2448 0.074397 32.2483C0.0582855 32.2846 0.0450178 32.3223 0.0338819 32.361C0.031868 32.368 0.0302088 32.375 0.0284318 32.3822C0.0194283 32.4171 0.0122024 32.4528 0.00758224 32.4893C0.0069899 32.4937 0.00604146 32.498 0.0055676 32.5023C0.00213206 32.5339 0 32.5658 0 32.5983V36.3305C0 36.8137 0.397812 37.2052 0.888502 37.2052C1.37919 37.2052 1.777 36.8137 1.777 36.3305V33.473H10.9928L4.05714 52.2505H2.78397C2.29328 52.2505 1.89547 52.6421 1.89547 53.1253C1.89547 53.6085 2.29328 54 2.78397 54H7.52265C8.01334 54 8.41115 53.6085 8.41115 53.1253C8.41115 52.6421 8.01334 52.2505 7.52265 52.2505H6.55442L17 39.6816L27.4456 52.2505H27.4251C26.9344 52.2505 26.5366 52.6421 26.5366 53.1253C26.5366 53.6085 26.9344 54 27.4251 54H32.1638C32.6545 54 33.0523 53.6085 33.0523 53.1253C33.0523 52.6421 32.6545 52.2505 32.1638 52.2505H29.9429L23.0072 33.473H32.223V36.3305C32.223 36.8137 32.6208 37.2052 33.1115 37.2052C33.6022 37.2052 34 36.8137 34 36.3305V32.5983C34 32.5658 33.9979 32.5339 33.9944 32.5024C33.994 32.4981 33.993 32.4938 33.9924 32.4895C33.9878 32.4529 33.9806 32.4173 33.9716 32.3823C33.9698 32.3752 33.968 32.3682 33.9661 32.3612C33.9551 32.3224 33.9417 32.2847 33.9256 32.2484C33.9241 32.2449 33.9222 32.2416 33.9206 32.2382C33.905 32.2043 33.8872 32.1718 33.8676 32.1404C33.8639 32.1344 33.8604 32.1284 33.8565 32.1225C33.8349 32.0898 33.811 32.0585 33.7852 32.029C33.78 32.0229 33.7743 32.0172 33.7689 32.0113C33.7422 31.9823 33.7141 31.9549 33.6838 31.9297C33.6825 31.9287 33.6816 31.9274 33.6803 31.9264L33.6772 31.9238C33.6768 31.9236 33.6765 31.9232 33.6762 31.923L22.6272 22.8581V14.8121H32.223V17.6695C32.223 18.1527 32.6208 18.5443 33.1115 18.5443ZM15.7434 9.27214L13.1498 11.8255V6.71874L15.7434 9.27214ZM14.4064 5.48164H19.5936L17 8.03504L14.4064 5.48164ZM14.4064 13.0626L17 10.5092L19.5936 13.0626H14.4064ZM19.5936 14.8121L17 17.3655L14.4064 14.8121H19.5936ZM15.7434 18.6026L13.1498 21.156V16.0492L15.7434 18.6026ZM14.4064 22.3931L17 19.8397L19.5936 22.3931H14.4064ZM19.5936 24.1425L17 26.6959L14.4064 24.1425H19.5936ZM15.7434 27.933L13.1498 30.4864V25.3796L15.7434 27.933ZM17 29.1701L19.5936 31.7235H14.4064L17 29.1701ZM19.8637 33.473L17 36.9189L14.1363 33.473H19.8637ZM18.2566 27.933L20.8502 25.3796V30.4864L18.2566 27.933ZM18.2566 18.6026L20.8502 16.0492V21.156L18.2566 18.6026ZM18.2566 9.27214L20.8502 6.71874V11.8255L18.2566 9.27214ZM15.5488 1.74946H18.4512L19.9617 3.73218H14.0383L15.5488 1.74946ZM11.3728 6.47452V13.0626H3.34254L11.3728 6.47452ZM11.3728 25.1354V31.7235H3.34254L11.3728 25.1354ZM7.29958 48.5911L12.5626 34.3421L15.8519 38.3002L7.29958 48.5911ZM18.1479 38.3002L21.4373 34.3421L26.7003 48.5911L18.1479 38.3002ZM22.6272 31.7235V25.1354L30.6575 31.7235H22.6272ZM22.6272 13.0626V6.47452L30.6575 13.0626H22.6272Z" fill="#115AD4"/>
<path d="M61.2352 12.6266C61.5693 12.6266 61.8401 12.36 61.8401 12.031V9.48979C61.8401 9.46771 61.8387 9.44595 61.8364 9.42451C61.836 9.42157 61.8354 9.41863 61.835 9.4157C61.8318 9.39084 61.8269 9.36654 61.8208 9.34272C61.8196 9.33787 61.8184 9.33311 61.8171 9.32834C61.8096 9.30198 61.8005 9.27625 61.7895 9.25155C61.7884 9.24917 61.7871 9.24695 61.7861 9.24464C61.7755 9.22153 61.7634 9.19938 61.75 9.17801C61.7475 9.17396 61.7451 9.16984 61.7425 9.16586C61.7277 9.14355 61.7115 9.12227 61.6939 9.10218C61.6904 9.09805 61.6865 9.09416 61.6828 9.09011C61.6646 9.07041 61.6455 9.05175 61.6249 9.0346C61.624 9.03388 61.6233 9.03301 61.6224 9.03229L61.6203 9.03055C61.6201 9.03039 61.6199 9.03015 61.6197 9.02999L53.9332 2.72385L52.0396 0.238237C51.9253 0.0882272 51.7461 0 51.5556 0H48.9744C48.784 0 48.6048 0.0882272 48.4905 0.238237L46.597 2.72377L38.9105 9.02991C38.9102 9.03007 38.91 9.03031 38.9098 9.03047L38.9077 9.03221C38.9068 9.03293 38.9062 9.0338 38.9053 9.03452C38.8847 9.05167 38.8655 9.07041 38.8474 9.09003C38.8437 9.09408 38.8399 9.09797 38.8363 9.1021C38.8187 9.12219 38.8025 9.14347 38.7877 9.16578C38.785 9.16976 38.7827 9.17389 38.7802 9.17794C38.7668 9.1993 38.7546 9.22145 38.7441 9.24456C38.743 9.24687 38.7417 9.24909 38.7407 9.25147C38.7297 9.27625 38.7207 9.3019 38.7131 9.32826C38.7117 9.33303 38.7106 9.33779 38.7094 9.34264C38.7033 9.36646 38.6983 9.39076 38.6952 9.41562C38.6948 9.41856 38.6941 9.42149 38.6938 9.42443C38.6914 9.44595 38.6899 9.46771 38.6899 9.48979V12.031C38.6899 12.36 38.9608 12.6266 39.2949 12.6266C39.629 12.6266 39.8999 12.36 39.8999 12.031V10.0854H46.4336V15.5638L38.9104 21.7359C38.9102 21.7361 38.9099 21.7363 38.9097 21.7365L38.9076 21.7382C38.9068 21.7389 38.9061 21.7398 38.9052 21.7405C38.8846 21.7577 38.8655 21.7764 38.8473 21.796C38.8436 21.8001 38.8398 21.804 38.8362 21.8081C38.8186 21.8282 38.8024 21.8495 38.7876 21.8718C38.785 21.8757 38.7826 21.8799 38.7801 21.8839C38.7667 21.9053 38.7546 21.9274 38.744 21.9506C38.7429 21.9529 38.7416 21.9551 38.7406 21.9575C38.7296 21.9822 38.7206 22.0079 38.713 22.0343C38.7116 22.039 38.7105 22.0438 38.7093 22.0486C38.7032 22.0725 38.6982 22.0968 38.6951 22.1216C38.6947 22.1245 38.6941 22.1275 38.6937 22.1304C38.6914 22.1519 38.6899 22.1737 38.6899 22.1958V24.737C38.6899 25.066 38.9608 25.3326 39.2949 25.3326C39.629 25.3326 39.8999 25.066 39.8999 24.737V22.7914H46.1748L41.4524 35.5768H40.5855C40.2514 35.5768 39.9805 35.8434 39.9805 36.1724C39.9805 36.5014 40.2514 36.768 40.5855 36.768H43.812C44.1461 36.768 44.417 36.5014 44.417 36.1724C44.417 35.8434 44.1461 35.5768 43.812 35.5768H43.1528L50.265 27.0187L57.3773 35.5768H57.3634C57.0293 35.5768 56.7584 35.8434 56.7584 36.1724C56.7584 36.5014 57.0293 36.768 57.3634 36.768H60.5899C60.924 36.768 61.1948 36.5014 61.1948 36.1724C61.1948 35.8434 60.924 35.5768 60.5899 35.5768H59.0777L54.3553 22.7914H60.6302V24.737C60.6302 25.066 60.9011 25.3326 61.2352 25.3326C61.5693 25.3326 61.8401 25.066 61.8401 24.737V22.1958C61.8401 22.1737 61.8387 22.1519 61.8364 22.1305C61.836 22.1276 61.8354 22.1246 61.835 22.1217C61.8318 22.0968 61.8269 22.0725 61.8208 22.0487C61.8196 22.0439 61.8184 22.0391 61.8171 22.0343C61.8096 22.008 61.8005 21.9822 61.7895 21.9575C61.7884 21.9552 61.7871 21.9529 61.7861 21.9506C61.7755 21.9275 61.7634 21.9054 61.75 21.884C61.7475 21.88 61.7451 21.8758 61.7425 21.8719C61.7277 21.8495 61.7115 21.8283 61.6939 21.8082C61.6904 21.804 61.6865 21.8001 61.6828 21.7961C61.6646 21.7764 61.6455 21.7577 61.6249 21.7406C61.624 21.7399 61.6233 21.739 61.6224 21.7383L61.6203 21.7365C61.6201 21.7364 61.6199 21.7361 61.6197 21.736L54.0965 15.5638V10.0854H60.6302V12.031C60.6302 12.36 60.9011 12.6266 61.2352 12.6266ZM49.4095 6.31329L47.6435 8.05187V4.57471L49.4095 6.31329ZM48.4991 3.73239H52.031L50.265 5.47096L48.4991 3.73239ZM48.4991 8.89419L50.265 7.15562L52.031 8.89419H48.4991ZM52.031 10.0854L50.265 11.824L48.4991 10.0854H52.031ZM49.4095 12.6663L47.6435 14.4049V10.9277L49.4095 12.6663ZM48.4991 15.2472L50.265 13.5086L52.031 15.2472H48.4991ZM52.031 16.4384L50.265 18.177L48.4991 16.4384H52.031ZM49.4095 19.0193L47.6435 20.7579V17.2807L49.4095 19.0193ZM50.265 19.8616L52.031 21.6002H48.4991L50.265 19.8616ZM52.2149 22.7914L50.265 25.1376L48.3152 22.7914H52.2149ZM51.1206 19.0193L52.8866 17.2807V20.7579L51.1206 19.0193ZM51.1206 12.6663L52.8866 10.9277V14.4049L51.1206 12.6663ZM51.1206 6.31329L52.8866 4.57471V8.05187L51.1206 6.31329ZM49.2769 1.19119H51.2532L52.2816 2.5412H48.2485L49.2769 1.19119ZM46.4336 4.40842V8.89419H40.9658L46.4336 4.40842ZM46.4336 17.1144V21.6002H40.9658L46.4336 17.1144ZM43.6601 33.0851L47.2437 23.3832L49.4833 26.0782L43.6601 33.0851ZM51.0467 26.0782L53.2863 23.3832L56.8699 33.0851L51.0467 26.0782ZM54.0965 21.6002V17.1144L59.5642 21.6002H54.0965ZM54.0965 8.89419V4.40842L59.5642 8.89419H54.0965Z" fill="#115AD4"/>
<path d="M24.0273 14.4576C26.6093 22.0561 42.0277 25.966 43.3558 10.1055" stroke="#115AD4" stroke-width="1.2"/>
<path d="M24.0273 32.8056C33.3964 44.5566 41.3636 37.9904 42.6917 22.1299" stroke="#115AD4" stroke-width="1.2"/>
</svg>
