<svg width="39" height="35" viewBox="0 0 39 35" fill="none" xmlns="http://www.w3.org/2000/svg">
<path d="M20.882 11.6951C21.1915 11.6951 21.4424 11.4482 21.4424 11.1434V8.78972C21.4424 8.76927 21.441 8.74911 21.4389 8.72925C21.4386 8.72653 21.438 8.72381 21.4376 8.72109C21.4347 8.69807 21.4301 8.67556 21.4245 8.65349C21.4233 8.64901 21.4222 8.64459 21.421 8.64018C21.4141 8.61576 21.4056 8.59193 21.3955 8.56905C21.3945 8.56685 21.3933 8.56479 21.3923 8.56265C21.3825 8.54125 21.3713 8.52073 21.3589 8.50094C21.3565 8.49719 21.3544 8.49337 21.3519 8.48969C21.3382 8.46902 21.3232 8.44931 21.3069 8.4307C21.3036 8.42687 21.3001 8.42327 21.2966 8.41952C21.2798 8.40128 21.2621 8.38399 21.243 8.3681C21.2422 8.36744 21.2416 8.36663 21.2407 8.36597L21.2388 8.36435C21.2386 8.36421 21.2383 8.36398 21.2382 8.36384L14.1187 2.52291L12.3649 0.220662C12.259 0.0817186 12.093 0 11.9166 0H9.5258C9.3494 0 9.18339 0.0817186 9.07752 0.220662L7.32373 2.52283L0.204263 8.36376C0.204039 8.36391 0.203815 8.36413 0.203665 8.36428L0.201723 8.3659C0.200901 8.36656 0.200303 8.36737 0.199481 8.36803C0.180355 8.38392 0.162649 8.40128 0.145838 8.41944C0.142402 8.4232 0.13889 8.4268 0.135528 8.43062C0.119241 8.44923 0.104223 8.46895 0.090551 8.48961C0.0880855 8.49329 0.0859192 8.49712 0.0836031 8.50087C0.0712009 8.52065 0.059919 8.54118 0.0501317 8.56258C0.0491604 8.56471 0.047965 8.56677 0.0469938 8.56898C0.0368329 8.59193 0.0284655 8.61569 0.0214426 8.64011C0.0201725 8.64452 0.0191261 8.64893 0.0180054 8.65342C0.0123273 8.67549 0.00777024 8.69799 0.00485647 8.72102C0.00448291 8.72374 0.00388477 8.72646 0.00358592 8.72918C0.00134456 8.74911 0 8.76927 0 8.78972V11.1434C0 11.4482 0.250883 11.6951 0.560341 11.6951C0.869799 11.6951 1.12068 11.4482 1.12068 11.1434V9.34137H7.17237V14.4156L0.204188 20.1324C0.203964 20.1326 0.20374 20.1328 0.20359 20.1329L0.201648 20.1346C0.200826 20.1352 0.200228 20.136 0.199407 20.1367C0.18028 20.1526 0.162573 20.1699 0.145763 20.1881C0.142326 20.1919 0.138815 20.1955 0.135453 20.1993C0.119166 20.2179 0.104149 20.2376 0.0904763 20.2583C0.0880108 20.262 0.085844 20.2658 0.0835279 20.2695C0.0711257 20.2893 0.0598443 20.3098 0.050057 20.3312C0.0490857 20.3334 0.0478904 20.3354 0.0469191 20.3376C0.0367582 20.3606 0.0283908 20.3843 0.0213679 20.4088C0.0200978 20.4132 0.0190514 20.4176 0.0179308 20.4221C0.0122526 20.4441 0.00769557 20.4667 0.0047818 20.4897C0.00440824 20.4924 0.0038101 20.4951 0.00351125 20.4978C0.0013446 20.5178 0 20.5379 0 20.5584V22.9121C0 23.2168 0.250883 23.4638 0.560341 23.4638C0.869799 23.4638 1.12068 23.2168 1.12068 22.9121V21.11H6.93269L2.55867 32.9522H1.75574C1.44628 32.9522 1.19539 33.1992 1.19539 33.5039C1.19539 33.8086 1.44628 34.0555 1.75574 34.0555H4.74422C5.05368 34.0555 5.30456 33.8086 5.30456 33.5039C5.30456 33.1992 5.05368 32.9522 4.74422 32.9522H4.1336L10.7212 25.0255L17.3088 32.9522H17.2959C16.9864 32.9522 16.7355 33.1992 16.7355 33.5039C16.7355 33.8086 16.9864 34.0555 17.2959 34.0555H20.2843C20.5938 34.0555 20.8447 33.8086 20.8447 33.5039C20.8447 33.1992 20.5938 32.9522 20.2843 32.9522H18.8837L14.5097 21.11H20.3217V22.9121C20.3217 23.2168 20.5726 23.4638 20.882 23.4638C21.1915 23.4638 21.4424 23.2168 21.4424 22.9121V20.5584C21.4424 20.5379 21.441 20.5178 21.4389 20.4979C21.4386 20.4952 21.438 20.4925 21.4376 20.4897C21.4347 20.4667 21.4301 20.4442 21.4245 20.4222C21.4233 20.4177 21.4222 20.4133 21.421 20.4088C21.4141 20.3844 21.4056 20.3606 21.3955 20.3377C21.3945 20.3355 21.3933 20.3334 21.3923 20.3313C21.3825 20.3099 21.3713 20.2894 21.3589 20.2696C21.3565 20.2658 21.3544 20.262 21.3519 20.2583C21.3382 20.2377 21.3232 20.218 21.3069 20.1994C21.3036 20.1955 21.3001 20.1919 21.2966 20.1882C21.2798 20.1699 21.2621 20.1526 21.243 20.1368C21.2422 20.1361 21.2416 20.1353 21.2407 20.1346L21.2388 20.133C21.2386 20.1329 21.2383 20.1326 21.2382 20.1325L14.27 14.4156V9.34137H20.3217V11.1434C20.3217 11.4482 20.5726 11.6951 20.882 11.6951ZM9.92872 5.84755L8.29305 7.45787V4.23723L9.92872 5.84755ZM9.08552 3.45704H12.3569L10.7212 5.06736L9.08552 3.45704ZM9.08552 8.23806L10.7212 6.62774L12.3569 8.23806H9.08552ZM12.3569 9.34137L10.7212 10.9517L9.08552 9.34137H12.3569ZM9.92872 11.7319L8.29305 13.3422V10.1216L9.92872 11.7319ZM9.08552 14.1224L10.7212 12.5121L12.3569 14.1224H9.08552ZM12.3569 15.2257L10.7212 16.836L9.08552 15.2257H12.3569ZM9.92872 17.6162L8.29305 19.2265V16.0059L9.92872 17.6162ZM10.7212 18.3964L12.3569 20.0067H9.08552L10.7212 18.3964ZM12.5272 21.11L10.7212 23.2832L8.91517 21.11H12.5272ZM11.5137 17.6162L13.1493 16.0059V19.2265L11.5137 17.6162ZM11.5137 11.7319L13.1493 10.1216V13.3422L11.5137 11.7319ZM11.5137 5.84755L13.1493 4.23723V7.45787L11.5137 5.84755ZM9.80597 1.10331H11.6364L12.589 2.35373H8.85339L9.80597 1.10331ZM7.17237 4.08321V8.23806H2.108L7.17237 4.08321ZM7.17237 15.8519V20.0067H2.108L7.17237 15.8519ZM4.60354 30.6444L7.9227 21.6582L9.99716 24.1544L4.60354 30.6444ZM11.4452 24.1544L13.5196 21.6582L16.8388 30.6444L11.4452 24.1544ZM14.27 20.0067V15.8519L19.3344 20.0067H14.27ZM14.27 8.23806V4.08321L19.3344 8.23806H14.27Z" fill="#D7D7D7"/>
<path d="M38.6182 7.96306C38.8289 7.96306 38.9998 7.79493 38.9998 7.58744V5.98481C38.9998 5.97089 38.9989 5.95717 38.9974 5.94365C38.9972 5.94179 38.9968 5.93994 38.9965 5.93809C38.9945 5.92241 38.9914 5.90709 38.9876 5.89206C38.9868 5.88901 38.986 5.886 38.9852 5.883C38.9805 5.86637 38.9747 5.85014 38.9678 5.83457C38.9672 5.83307 38.9663 5.83166 38.9657 5.83021C38.959 5.81564 38.9513 5.80166 38.9429 5.78819C38.9413 5.78564 38.9398 5.78303 38.9382 5.78053C38.9289 5.76646 38.9186 5.75303 38.9075 5.74036C38.9053 5.73776 38.9029 5.7353 38.9005 5.73275C38.8891 5.72033 38.877 5.70856 38.864 5.69774C38.8634 5.69729 38.863 5.69674 38.8625 5.69629L38.8611 5.69519C38.861 5.69509 38.8608 5.69494 38.8607 5.69484L34.0132 1.71782L32.819 0.150246C32.7469 0.0556412 32.6339 0 32.5138 0H30.8859C30.7658 0 30.6528 0.0556412 30.5807 0.150246L29.3865 1.71777L24.539 5.69479C24.5388 5.69489 24.5387 5.69504 24.5386 5.69514L24.5373 5.69624C24.5367 5.69669 24.5363 5.69724 24.5357 5.69769C24.5227 5.70851 24.5106 5.72033 24.4992 5.7327C24.4969 5.73525 24.4945 5.73771 24.4922 5.74031C24.4811 5.75298 24.4709 5.76641 24.4616 5.78048C24.4599 5.78298 24.4584 5.78559 24.4568 5.78814C24.4484 5.80161 24.4407 5.81559 24.434 5.83016C24.4334 5.83161 24.4326 5.83301 24.4319 5.83452C24.425 5.85014 24.4193 5.86632 24.4145 5.88295C24.4136 5.88595 24.4129 5.88896 24.4122 5.89201C24.4083 5.90704 24.4052 5.92236 24.4032 5.93804C24.403 5.93989 24.4025 5.94174 24.4023 5.9436C24.4008 5.95717 24.3999 5.97089 24.3999 5.98481V7.58744C24.3999 7.79493 24.5707 7.96306 24.7814 7.96306C24.9921 7.96306 25.163 7.79493 25.163 7.58744V6.36043H29.2835V9.81544L24.5389 13.7079C24.5388 13.708 24.5386 13.7082 24.5385 13.7083L24.5372 13.7094C24.5366 13.7098 24.5362 13.7104 24.5357 13.7108C24.5227 13.7217 24.5106 13.7335 24.4992 13.7458C24.4968 13.7484 24.4944 13.7508 24.4921 13.7535C24.481 13.7661 24.4708 13.7795 24.4615 13.7936C24.4598 13.7961 24.4584 13.7987 24.4568 13.8013C24.4483 13.8148 24.4406 13.8287 24.434 13.8433C24.4333 13.8448 24.4325 13.8462 24.4318 13.8477C24.4249 13.8633 24.4192 13.8795 24.4145 13.8961C24.4136 13.8991 24.4129 13.9021 24.4121 13.9052C24.4082 13.9202 24.4051 13.9355 24.4032 13.9512C24.4029 13.953 24.4025 13.9549 24.4023 13.9567C24.4008 13.9703 24.3999 13.984 24.3999 13.998V15.6006C24.3999 15.8081 24.5707 15.9762 24.7814 15.9762C24.9921 15.9762 25.163 15.8081 25.163 15.6006V14.3736H29.1203L26.1421 22.4368H25.5954C25.3847 22.4368 25.2138 22.6049 25.2138 22.8124C25.2138 23.0199 25.3847 23.188 25.5954 23.188H27.6302C27.8409 23.188 28.0117 23.0199 28.0117 22.8124C28.0117 22.6049 27.8409 22.4368 27.6302 22.4368H27.2144L31.6998 17.0396L36.1853 22.4368H36.1765C35.9657 22.4368 35.7949 22.6049 35.7949 22.8124C35.7949 23.0199 35.9657 23.188 36.1765 23.188H38.2113C38.422 23.188 38.5928 23.0199 38.5928 22.8124C38.5928 22.6049 38.422 22.4368 38.2113 22.4368H37.2576L34.2794 14.3736H38.2367V15.6006C38.2367 15.8081 38.4075 15.9762 38.6182 15.9762C38.8289 15.9762 38.9998 15.8081 38.9998 15.6006V13.998C38.9998 13.984 38.9989 13.9703 38.9974 13.9568C38.9972 13.9549 38.9968 13.9531 38.9965 13.9512C38.9945 13.9356 38.9914 13.9202 38.9876 13.9052C38.9868 13.9021 38.986 13.8991 38.9852 13.8961C38.9805 13.8795 38.9747 13.8633 38.9678 13.8477C38.9672 13.8462 38.9663 13.8448 38.9657 13.8434C38.959 13.8288 38.9513 13.8148 38.9429 13.8013C38.9413 13.7988 38.9398 13.7962 38.9382 13.7937C38.9289 13.7796 38.9186 13.7662 38.9075 13.7535C38.9053 13.7509 38.9029 13.7484 38.9005 13.7459C38.8891 13.7335 38.877 13.7217 38.864 13.7109C38.8634 13.7104 38.863 13.7099 38.8625 13.7094L38.8611 13.7083C38.861 13.7082 38.8608 13.7081 38.8607 13.708L34.1162 9.81544V6.36043H38.2367V7.58744C38.2367 7.79493 38.4075 7.96306 38.6182 7.96306ZM31.1603 3.98153L30.0465 5.07798V2.88508L31.1603 3.98153ZM30.5861 2.35386H32.8135L31.6998 3.45031L30.5861 2.35386ZM30.5861 5.6092L31.6998 4.51275L32.8135 5.6092H30.5861ZM32.8135 6.36043L31.6998 7.45688L30.5861 6.36043H32.8135ZM31.1603 7.9881L30.0465 9.08455V6.89165L31.1603 7.9881ZM30.5861 9.61577L31.6998 8.51932L32.8135 9.61577H30.5861ZM32.8135 10.367L31.6998 11.4634L30.5861 10.367H32.8135ZM31.1603 11.9947L30.0465 13.0911V10.8982L31.1603 11.9947ZM31.6998 12.5259L32.8135 13.6223H30.5861L31.6998 12.5259ZM32.9295 14.3736L31.6998 15.8532L30.4701 14.3736H32.9295ZM32.2394 11.9947L33.3531 10.8982V13.0911L32.2394 11.9947ZM32.2394 7.9881L33.3531 6.89165V9.08455L32.2394 7.9881ZM32.2394 3.98153L33.3531 2.88508V5.07798L32.2394 3.98153ZM31.0767 0.751232H32.323L32.9716 1.60263H30.4281L31.0767 0.751232ZM29.2835 2.78021V5.6092H25.8352L29.2835 2.78021ZM29.2835 10.7933V13.6223H25.8352L29.2835 10.7933ZM27.5344 20.8654L29.7944 14.7468L31.2068 16.4464L27.5344 20.8654ZM32.1928 16.4464L33.6052 14.7468L35.8652 20.8654L32.1928 16.4464ZM34.1162 13.6223V10.7933L37.5645 13.6223H34.1162ZM34.1162 5.6092V2.78021L37.5645 5.6092H34.1162Z" fill="#D7D7D7"/>
<path d="M15.1528 9.11773C16.7812 13.9098 26.5049 16.3756 27.3425 6.37305" stroke="#D7D7D7" stroke-width="1.2"/>
<path d="M15.1528 20.6892C21.0615 28.1002 26.0861 23.9591 26.9236 13.9565" stroke="#D7D7D7" stroke-width="1.2"/>
</svg>
