<svg width="34" height="35" viewBox="0 0 34 35" fill="none" xmlns="http://www.w3.org/2000/svg">
<path d="M11.7317 21.587L11.7316 21.587C11.4794 21.8339 11.475 22.2385 11.7218 22.4908L11.7219 22.4908C12.5792 23.3668 13.6582 24.0098 14.8424 24.3505C15.4982 24.5391 16.1592 24.6289 16.8101 24.6289C19.9069 24.6289 22.7654 22.5923 23.6634 19.4705L23.5193 19.429L23.6634 19.4705C24.75 15.693 22.5609 11.7362 18.7834 10.6495L18.742 10.7937L18.7834 10.6495C15.0059 9.56291 11.0492 11.7521 9.96248 15.5295L9.96248 15.5295C9.51305 17.092 9.60233 18.712 10.2207 20.2124L10.2207 20.2124C10.3553 20.5387 10.729 20.6941 11.0551 20.5598L11.0551 20.5598C11.3814 20.4252 11.537 20.0516 11.4025 19.7253C10.895 18.494 10.8218 17.1659 11.1909 15.8828C12.0826 12.783 15.3302 10.9863 18.4301 11.878L18.4715 11.7339L18.4301 11.878C21.5299 12.7697 23.3265 16.0174 22.4349 19.1172L22.579 19.1587L22.4349 19.1172C21.5432 22.217 18.2956 24.0138 15.1957 23.122C14.2234 22.8422 13.338 22.3147 12.6353 21.5967C12.3887 21.3445 11.984 21.3402 11.7317 21.587Z" fill="#D7D7D7" stroke="#D7D7D7" stroke-width="0.3"/>
<path d="M19.8124 16.4528C20.001 18.0966 19.5916 19.1451 18.9807 19.7834C18.364 20.4276 17.5215 20.6756 16.8126 20.6756C15.0615 20.6756 13.6366 19.2507 13.6366 17.4996C13.6366 15.7485 15.0615 14.3236 16.8127 14.3236C18.1644 14.3236 19.3679 15.1786 19.8124 16.4528ZM20.0025 20.4823C20.9047 19.5163 21.4532 18.0803 21.0574 16.1889C21.0522 16.1435 21.0421 16.098 21.0266 16.053C20.4091 14.254 18.7156 13.0453 16.8126 13.0453C14.3564 13.0453 12.3583 15.0433 12.3583 17.4996C12.3583 19.9559 14.3563 21.954 16.8126 21.954C17.8131 21.954 19.0877 21.4618 20.0025 20.4823Z" fill="#D7D7D7" stroke="#D7D7D7" stroke-width="0.3"/>
<mask id="path-3-outside-1" maskUnits="userSpaceOnUse" x="-0.687012" y="0" width="35" height="35" fill="black">
<rect fill="white" x="-0.687012" width="35" height="35"/>
<path d="M29.7154 15.196C29.5781 14.4838 29.3806 13.7803 29.1272 13.1011L31.8523 11.5278C31.9646 11.463 32.0466 11.3561 32.0802 11.2308C32.1138 11.1054 32.0962 10.972 32.0313 10.8596C31.5037 9.94575 30.6591 9.2681 29.6532 8.95151C28.6932 8.64935 27.6653 8.69975 26.7451 9.09156C26.2828 8.55835 25.7757 8.06019 25.2348 7.608L26.8513 4.80806C26.9864 4.57416 26.9062 4.27497 26.6722 4.13988C24.8192 3.07004 22.4311 3.58166 21.1762 5.29706C20.5211 5.06658 19.8444 4.88766 19.1605 4.76423V1.48922C19.1657 1.22644 18.9341 0.994866 18.6713 1.00009C18.0539 1.00009 17.4588 1.13099 16.9025 1.38919C16.6575 1.50288 16.551 1.79369 16.6647 2.03874C16.7784 2.28372 17.0693 2.39032 17.3143 2.2765C17.5919 2.14766 17.8824 2.0602 18.1821 2.01489V4.90628C18.1821 5.30267 18.465 5.6382 18.8548 5.70401C19.5726 5.82531 20.2833 6.01287 20.967 6.26127C21.3118 6.38662 21.6995 6.2603 21.9096 5.95402C22.7619 4.71112 24.3699 4.24326 25.7407 4.77512L24.3163 7.24249C24.1168 7.58776 24.1955 8.02101 24.5036 8.27276C25.0741 8.73913 25.6057 9.26068 26.0835 9.8229C26.3167 10.0972 26.7109 10.1822 27.0423 10.0297C28.4137 9.3979 29.9947 9.79557 30.9081 10.9433L28.5136 12.3257C28.166 12.5265 28.0184 12.9432 28.1626 13.3165C28.434 14.0197 28.6405 14.7527 28.7761 15.4948C28.8404 15.8462 29.1251 16.1104 29.4848 16.1523C30.9446 16.3227 32.0819 17.453 32.2973 18.8694H29.6337C29.2313 18.8694 28.895 19.1572 28.834 19.554C28.7166 20.3192 28.5245 21.0766 28.2629 21.8052C28.1442 22.1356 28.2506 22.5038 28.5276 22.7214C29.6496 23.6032 30.0417 25.1269 29.5373 26.4279L27.3112 25.1426C26.9637 24.9418 26.5294 25.022 26.2782 25.333C25.7802 25.9493 25.2194 26.5197 24.6113 27.0284C24.3462 27.2502 24.2503 27.617 24.3726 27.9413C24.873 29.2693 24.4503 30.7334 23.3691 31.5952L22.1148 29.4226C21.9154 29.0769 21.5007 28.9286 21.1287 29.0697C20.3764 29.3554 19.5918 29.5663 18.7966 29.6967C18.4593 29.7521 18.1923 30.0184 18.1321 30.3593C17.8883 31.7387 16.7938 32.7799 15.4432 32.9847V30.4848C15.4432 30.0886 15.16 29.753 14.7698 29.6871C13.9778 29.5531 13.1963 29.3389 12.4468 29.0506C12.1227 28.9257 11.7548 29.0218 11.5315 29.2894C10.6308 30.3681 9.15991 30.7252 7.88414 30.2255L9.15656 28.0216C9.35301 27.6815 9.27843 27.2516 8.97925 26.9994C8.37314 26.4885 7.81453 25.9161 7.31883 25.2979C7.0975 25.022 6.72632 24.9226 6.39497 25.0501C5.059 25.5658 3.58478 25.1467 2.71719 24.0566L4.9921 22.7431C5.33054 22.5478 5.48136 22.1397 5.35078 21.7729C5.09161 21.0448 4.90187 20.2881 4.78662 19.5238C4.73294 19.1685 4.44748 18.8875 4.09234 18.8406C2.65957 18.6515 1.54293 17.5251 1.32837 16.1305H4.05825C4.44857 16.1305 4.78321 15.8529 4.85385 15.4705C4.99062 14.7308 5.1977 14.0003 5.46937 13.2996C5.60259 12.9564 5.4887 12.5663 5.19261 12.3507C3.99019 11.4755 3.55894 9.91906 4.08719 8.57162L6.53386 9.98416C6.87191 10.1794 7.30065 10.1061 7.55324 9.80969C8.03264 9.24734 8.56566 8.72605 9.13748 8.26025C9.42281 8.0279 9.51136 7.63017 9.35301 7.29308C8.71693 5.93939 9.11937 4.32183 10.2569 3.4059L11.6967 5.89975C11.8931 6.24006 12.303 6.39017 12.6717 6.25669C13.3559 6.00893 14.0672 5.82222 14.7858 5.70163C15.1508 5.6404 15.4251 5.3367 15.4528 4.96326C15.488 4.49012 17.0826 2.68912 17.3143 2.2765C17.4465 2.04099 17.3628 1.74277 17.1272 1.61051C16.8917 1.47845 17.5097 1.25625 16.9025 1.48922C16.6216 1.98949 14.5488 4.19099 14.489 4.76024C13.8053 4.88231 13.1286 5.05981 12.4737 5.28881L10.8407 2.46058C10.7057 2.22661 10.4064 2.14656 10.1725 2.28153C9.25375 2.81197 8.57449 3.66171 8.25983 4.67426C7.96019 5.63846 8.01543 6.66835 8.41355 7.58924C7.8726 8.03938 7.36491 8.53566 6.90182 9.06713L4.12096 7.46156C3.89602 7.32563 3.57969 7.41051 3.45278 7.64061C2.39615 9.4708 2.85499 11.7779 4.51251 13.0632C4.25741 13.7404 4.05806 14.4419 3.91864 15.1523H0.802117C0.531933 15.1523 0.312988 15.3713 0.312988 15.6415C0.312988 17.701 1.81975 19.463 3.83853 19.7919C3.95693 20.5294 4.13952 21.2595 4.38219 21.966L1.77328 23.4722C1.54313 23.5991 1.45837 23.9155 1.59424 24.1404C2.09864 25.0141 2.90056 25.6777 3.85226 26.0089C4.75511 26.323 5.73768 26.321 6.63293 26.0052C7.11844 26.5992 7.65791 27.153 8.2394 27.6542L6.77427 30.192C6.6384 30.4169 6.72316 30.7332 6.95332 30.8601C8.69476 31.8655 10.8844 31.5031 12.2061 30.0058C12.9375 30.2796 13.6963 30.4883 14.465 30.6271V33.5109C14.465 33.7811 14.684 34 14.9542 34C16.9603 34 18.6747 32.5949 19.0741 30.6422C19.8447 30.5085 20.6054 30.3048 21.3391 30.0356L22.7849 32.5398C22.9118 32.7699 23.2281 32.8548 23.4531 32.7188C25.2116 31.7035 25.9876 29.6098 25.3273 27.7047C25.9127 27.2061 26.4565 26.6544 26.9464 26.0619L29.5047 27.5388C29.7386 27.6738 30.0378 27.5938 30.1728 27.3598C31.1925 25.5937 30.781 23.3224 29.2229 22.0259C29.4697 21.3185 29.6561 20.5871 29.7781 19.848H32.8236C33.0938 19.848 33.3128 19.6291 33.3128 19.3589C33.3126 17.2634 31.7744 15.4945 29.7154 15.196Z"/>
</mask>
<path d="M29.7154 15.196C29.5781 14.4838 29.3806 13.7803 29.1272 13.1011L31.8523 11.5278C31.9646 11.463 32.0466 11.3561 32.0802 11.2308C32.1138 11.1054 32.0962 10.972 32.0313 10.8596C31.5037 9.94575 30.6591 9.2681 29.6532 8.95151C28.6932 8.64935 27.6653 8.69975 26.7451 9.09156C26.2828 8.55835 25.7757 8.06019 25.2348 7.608L26.8513 4.80806C26.9864 4.57416 26.9062 4.27497 26.6722 4.13988C24.8192 3.07004 22.4311 3.58166 21.1762 5.29706C20.5211 5.06658 19.8444 4.88766 19.1605 4.76423V1.48922C19.1657 1.22644 18.9341 0.994866 18.6713 1.00009C18.0539 1.00009 17.4588 1.13099 16.9025 1.38919C16.6575 1.50288 16.551 1.79369 16.6647 2.03874C16.7784 2.28372 17.0693 2.39032 17.3143 2.2765C17.5919 2.14766 17.8824 2.0602 18.1821 2.01489V4.90628C18.1821 5.30267 18.465 5.6382 18.8548 5.70401C19.5726 5.82531 20.2833 6.01287 20.967 6.26127C21.3118 6.38662 21.6995 6.2603 21.9096 5.95402C22.7619 4.71112 24.3699 4.24326 25.7407 4.77512L24.3163 7.24249C24.1168 7.58776 24.1955 8.02101 24.5036 8.27276C25.0741 8.73913 25.6057 9.26068 26.0835 9.8229C26.3167 10.0972 26.7109 10.1822 27.0423 10.0297C28.4137 9.3979 29.9947 9.79557 30.9081 10.9433L28.5136 12.3257C28.166 12.5265 28.0184 12.9432 28.1626 13.3165C28.434 14.0197 28.6405 14.7527 28.7761 15.4948C28.8404 15.8462 29.1251 16.1104 29.4848 16.1523C30.9446 16.3227 32.0819 17.453 32.2973 18.8694H29.6337C29.2313 18.8694 28.895 19.1572 28.834 19.554C28.7166 20.3192 28.5245 21.0766 28.2629 21.8052C28.1442 22.1356 28.2506 22.5038 28.5276 22.7214C29.6496 23.6032 30.0417 25.1269 29.5373 26.4279L27.3112 25.1426C26.9637 24.9418 26.5294 25.022 26.2782 25.333C25.7802 25.9493 25.2194 26.5197 24.6113 27.0284C24.3462 27.2502 24.2503 27.617 24.3726 27.9413C24.873 29.2693 24.4503 30.7334 23.3691 31.5952L22.1148 29.4226C21.9154 29.0769 21.5007 28.9286 21.1287 29.0697C20.3764 29.3554 19.5918 29.5663 18.7966 29.6967C18.4593 29.7521 18.1923 30.0184 18.1321 30.3593C17.8883 31.7387 16.7938 32.7799 15.4432 32.9847V30.4848C15.4432 30.0886 15.16 29.753 14.7698 29.6871C13.9778 29.5531 13.1963 29.3389 12.4468 29.0506C12.1227 28.9257 11.7548 29.0218 11.5315 29.2894C10.6308 30.3681 9.15991 30.7252 7.88414 30.2255L9.15656 28.0216C9.35301 27.6815 9.27843 27.2516 8.97925 26.9994C8.37314 26.4885 7.81453 25.9161 7.31883 25.2979C7.0975 25.022 6.72632 24.9226 6.39497 25.0501C5.059 25.5658 3.58478 25.1467 2.71719 24.0566L4.9921 22.7431C5.33054 22.5478 5.48136 22.1397 5.35078 21.7729C5.09161 21.0448 4.90187 20.2881 4.78662 19.5238C4.73294 19.1685 4.44748 18.8875 4.09234 18.8406C2.65957 18.6515 1.54293 17.5251 1.32837 16.1305H4.05825C4.44857 16.1305 4.78321 15.8529 4.85385 15.4705C4.99062 14.7308 5.1977 14.0003 5.46937 13.2996C5.60259 12.9564 5.4887 12.5663 5.19261 12.3507C3.99019 11.4755 3.55894 9.91906 4.08719 8.57162L6.53386 9.98416C6.87191 10.1794 7.30065 10.1061 7.55324 9.80969C8.03264 9.24734 8.56566 8.72605 9.13748 8.26025C9.42281 8.0279 9.51136 7.63017 9.35301 7.29308C8.71693 5.93939 9.11937 4.32183 10.2569 3.4059L11.6967 5.89975C11.8931 6.24006 12.303 6.39017 12.6717 6.25669C13.3559 6.00893 14.0672 5.82222 14.7858 5.70163C15.1508 5.6404 15.4251 5.3367 15.4528 4.96326C15.488 4.49012 17.0826 2.68912 17.3143 2.2765C17.4465 2.04099 17.3628 1.74277 17.1272 1.61051C16.8917 1.47845 17.5097 1.25625 16.9025 1.48922C16.6216 1.98949 14.5488 4.19099 14.489 4.76024C13.8053 4.88231 13.1286 5.05981 12.4737 5.28881L10.8407 2.46058C10.7057 2.22661 10.4064 2.14656 10.1725 2.28153C9.25375 2.81197 8.57449 3.66171 8.25983 4.67426C7.96019 5.63846 8.01543 6.66835 8.41355 7.58924C7.8726 8.03938 7.36491 8.53566 6.90182 9.06713L4.12096 7.46156C3.89602 7.32563 3.57969 7.41051 3.45278 7.64061C2.39615 9.4708 2.85499 11.7779 4.51251 13.0632C4.25741 13.7404 4.05806 14.4419 3.91864 15.1523H0.802117C0.531933 15.1523 0.312988 15.3713 0.312988 15.6415C0.312988 17.701 1.81975 19.463 3.83853 19.7919C3.95693 20.5294 4.13952 21.2595 4.38219 21.966L1.77328 23.4722C1.54313 23.5991 1.45837 23.9155 1.59424 24.1404C2.09864 25.0141 2.90056 25.6777 3.85226 26.0089C4.75511 26.323 5.73768 26.321 6.63293 26.0052C7.11844 26.5992 7.65791 27.153 8.2394 27.6542L6.77427 30.192C6.6384 30.4169 6.72316 30.7332 6.95332 30.8601C8.69476 31.8655 10.8844 31.5031 12.2061 30.0058C12.9375 30.2796 13.6963 30.4883 14.465 30.6271V33.5109C14.465 33.7811 14.684 34 14.9542 34C16.9603 34 18.6747 32.5949 19.0741 30.6422C19.8447 30.5085 20.6054 30.3048 21.3391 30.0356L22.7849 32.5398C22.9118 32.7699 23.2281 32.8548 23.4531 32.7188C25.2116 31.7035 25.9876 29.6098 25.3273 27.7047C25.9127 27.2061 26.4565 26.6544 26.9464 26.0619L29.5047 27.5388C29.7386 27.6738 30.0378 27.5938 30.1728 27.3598C31.1925 25.5937 30.781 23.3224 29.2229 22.0259C29.4697 21.3185 29.6561 20.5871 29.7781 19.848H32.8236C33.0938 19.848 33.3128 19.6291 33.3128 19.3589C33.3126 17.2634 31.7744 15.4945 29.7154 15.196Z" fill="#D7D7D7"/>
<path d="M29.7154 15.196L29.4208 15.2527L29.4612 15.4622L29.6723 15.4929L29.7154 15.196ZM29.1272 13.1011L28.9772 12.8413L28.7575 12.9682L28.8462 13.2059L29.1272 13.1011ZM31.8523 11.5278L31.7023 11.268L31.7023 11.268L31.8523 11.5278ZM32.0802 11.2308L31.7904 11.153L31.7904 11.1531L32.0802 11.2308ZM32.0313 10.8596L32.2912 10.7097L32.2911 10.7096L32.0313 10.8596ZM29.6532 8.95151L29.7433 8.66534L29.7433 8.66534L29.6532 8.95151ZM26.7451 9.09156L26.5184 9.28809L26.6616 9.45318L26.8626 9.36758L26.7451 9.09156ZM25.2348 7.608L24.975 7.458L24.8489 7.67639L25.0424 7.83815L25.2348 7.608ZM26.8513 4.80806L26.5915 4.65802L26.5915 4.65806L26.8513 4.80806ZM26.6722 4.13988L26.8223 3.88008L26.8222 3.88007L26.6722 4.13988ZM21.1762 5.29706L21.0766 5.58005L21.2868 5.65399L21.4183 5.47419L21.1762 5.29706ZM19.1605 4.76423H18.8605V5.01494L19.1072 5.05946L19.1605 4.76423ZM19.1605 1.48922L18.8605 1.48326V1.48922H19.1605ZM18.6713 1.00009V1.30015L18.6773 1.30003L18.6713 1.00009ZM16.9025 1.38919L17.0288 1.66131L17.0288 1.6613L16.9025 1.38919ZM16.6647 2.03874L16.9369 1.91245L16.9368 1.91241L16.6647 2.03874ZM18.1821 2.01489H18.4821V1.66614L18.1373 1.71826L18.1821 2.01489ZM18.8548 5.70401L18.9048 5.4082L18.9048 5.4082L18.8548 5.70401ZM20.967 6.26127L21.0695 5.97932L21.0694 5.9793L20.967 6.26127ZM21.9096 5.95402L22.157 6.12373L22.157 6.12369L21.9096 5.95402ZM25.7407 4.77512L26.0005 4.92512L26.1755 4.62203L25.8492 4.49544L25.7407 4.77512ZM24.3163 7.24249L24.576 7.39256L24.5761 7.39248L24.3163 7.24249ZM24.5036 8.27276L24.6934 8.04049L24.6934 8.04047L24.5036 8.27276ZM26.0835 9.8229L25.855 10.0172L25.855 10.0172L26.0835 9.8229ZM27.0423 10.0297L27.1676 10.3023L27.1678 10.3022L27.0423 10.0297ZM30.9081 10.9433L31.0581 11.2031L31.3597 11.029L31.1429 10.7565L30.9081 10.9433ZM28.5136 12.3257L28.3636 12.0659L28.3635 12.0659L28.5136 12.3257ZM28.1626 13.3165L28.4425 13.2085L28.4424 13.2084L28.1626 13.3165ZM28.7761 15.4948L28.481 15.5488L28.481 15.5488L28.7761 15.4948ZM29.4848 16.1523L29.5195 15.8543L29.5195 15.8543L29.4848 16.1523ZM32.2973 18.8694V19.1694H32.6464L32.5939 18.8243L32.2973 18.8694ZM28.834 19.554L28.5375 19.5084L28.5374 19.5085L28.834 19.554ZM28.2629 21.8052L28.5452 21.9066L28.5452 21.9066L28.2629 21.8052ZM28.5276 22.7214L28.7129 22.4855L28.7129 22.4855L28.5276 22.7214ZM29.5373 26.4279L29.3874 26.6877L29.6905 26.8627L29.8171 26.5363L29.5373 26.4279ZM27.3112 25.1426L27.161 25.4024L27.1612 25.4024L27.3112 25.1426ZM26.2782 25.333L26.5115 25.5216L26.5116 25.5215L26.2782 25.333ZM24.6113 27.0284L24.4188 26.7983L24.4188 26.7983L24.6113 27.0284ZM24.3726 27.9413L24.6533 27.8355L24.6533 27.8354L24.3726 27.9413ZM23.3691 31.5952L23.1093 31.7452L23.2836 32.047L23.5561 31.8297L23.3691 31.5952ZM22.1148 29.4226L21.8549 29.5725L21.855 29.5726L22.1148 29.4226ZM21.1287 29.0697L21.0223 28.7892L21.0222 28.7893L21.1287 29.0697ZM18.7966 29.6967L18.7481 29.4007L18.748 29.4007L18.7966 29.6967ZM18.1321 30.3593L18.4275 30.4115L18.4275 30.4115L18.1321 30.3593ZM15.4432 32.9847H15.1432V33.3337L15.4882 33.2814L15.4432 32.9847ZM14.7698 29.6871L14.7198 29.9829L14.7199 29.9829L14.7698 29.6871ZM12.4468 29.0506L12.339 29.3306L12.3391 29.3306L12.4468 29.0506ZM11.5315 29.2894L11.7618 29.4816L11.7618 29.4816L11.5315 29.2894ZM7.88414 30.2255L7.62433 30.0755L7.44991 30.3777L7.77473 30.5049L7.88414 30.2255ZM9.15656 28.0216L8.89678 27.8715L8.89675 27.8716L9.15656 28.0216ZM8.97925 26.9994L9.1726 26.77L9.1726 26.77L8.97925 26.9994ZM7.31883 25.2979L7.55287 25.1102L7.55284 25.1102L7.31883 25.2979ZM6.39497 25.0501L6.28719 24.7702L6.28695 24.7703L6.39497 25.0501ZM2.71719 24.0566L2.56719 23.7967L2.26559 23.9709L2.48245 24.2434L2.71719 24.0566ZM4.9921 22.7431L4.84212 22.4833L4.8421 22.4833L4.9921 22.7431ZM5.35078 21.7729L5.06815 21.8735L5.06815 21.8735L5.35078 21.7729ZM4.78662 19.5238L5.08327 19.4791L5.08326 19.479L4.78662 19.5238ZM4.09234 18.8406L4.13164 18.5432L4.1316 18.5432L4.09234 18.8406ZM1.32837 16.1305V15.8305H0.978683L1.03186 16.1761L1.32837 16.1305ZM4.85385 15.4705L4.55885 15.4159L4.55884 15.416L4.85385 15.4705ZM5.46937 13.2996L5.1897 13.191L5.18965 13.1911L5.46937 13.2996ZM5.19261 12.3507L5.36916 12.1082L5.36915 12.1082L5.19261 12.3507ZM4.08719 8.57162L4.23718 8.31181L3.93517 8.13745L3.80788 8.46213L4.08719 8.57162ZM6.53386 9.98416L6.68389 9.72437L6.68386 9.72435L6.53386 9.98416ZM7.55324 9.80969L7.32494 9.61506L7.3249 9.61511L7.55324 9.80969ZM9.13748 8.26025L8.94804 8.02763L8.94801 8.02766L9.13748 8.26025ZM9.35301 7.29308L9.62454 7.16552L9.62453 7.1655L9.35301 7.29308ZM10.2569 3.4059L10.5167 3.2559L10.3416 2.95256L10.0687 3.17223L10.2569 3.4059ZM11.6967 5.89975L11.9566 5.7498L11.9566 5.74975L11.6967 5.89975ZM12.6717 6.25669L12.7738 6.53877L12.7738 6.53877L12.6717 6.25669ZM14.7858 5.70163L14.7362 5.40576L14.7362 5.40576L14.7858 5.70163ZM15.4528 4.96326L15.752 4.98551V4.98551L15.4528 4.96326ZM17.1272 1.61051L17.2741 1.34892L17.274 1.34885L17.1272 1.61051ZM16.9025 1.48922L16.795 1.20912L16.6939 1.24792L16.6409 1.34234L16.9025 1.48922ZM14.489 4.76024L14.5417 5.05556L14.7638 5.01592L14.7874 4.79158L14.489 4.76024ZM12.4737 5.28881L12.2139 5.43881L12.3381 5.65401L12.5727 5.572L12.4737 5.28881ZM10.8407 2.46058L10.5809 2.61053L10.5809 2.61058L10.8407 2.46058ZM10.1725 2.28153L10.0226 2.02168L10.0225 2.02172L10.1725 2.28153ZM8.25983 4.67426L8.54632 4.76328V4.76328L8.25983 4.67426ZM8.41355 7.58924L8.60544 7.81984L8.778 7.67625L8.68892 7.47019L8.41355 7.58924ZM6.90182 9.06713L6.75182 9.32694L6.96573 9.45045L7.128 9.26421L6.90182 9.06713ZM4.12096 7.46156L3.96577 7.71837L3.97096 7.72137L4.12096 7.46156ZM3.45278 7.64061L3.71264 7.79064L3.71548 7.7855L3.45278 7.64061ZM4.51251 13.0632L4.79325 13.169L4.8713 12.9618L4.69634 12.8262L4.51251 13.0632ZM3.91864 15.1523V15.4523H4.1655L4.21303 15.2101L3.91864 15.1523ZM3.83853 19.7919L4.13474 19.7444L4.10042 19.5306L3.88677 19.4958L3.83853 19.7919ZM4.38219 21.966L4.53219 22.2258L4.74619 22.1022L4.66591 21.8685L4.38219 21.966ZM1.77328 23.4722L1.91811 23.735L1.92328 23.732L1.77328 23.4722ZM1.59424 24.1404L1.85409 23.9904L1.85103 23.9853L1.59424 24.1404ZM3.85226 26.0089L3.75365 26.2922L3.75367 26.2922L3.85226 26.0089ZM6.63293 26.0052L6.8652 25.8153L6.73184 25.6522L6.53312 25.7223L6.63293 26.0052ZM8.2394 27.6542L8.49921 27.8041L8.62339 27.5891L8.43526 27.4269L8.2394 27.6542ZM6.77427 30.192L7.03111 30.3471L7.03408 30.342L6.77427 30.192ZM6.95332 30.8601L7.10334 30.6003L7.09817 30.5974L6.95332 30.8601ZM12.2061 30.0058L12.3112 29.7248L12.1178 29.6524L11.9811 29.8072L12.2061 30.0058ZM14.465 30.6271H14.765V30.3764L14.5184 30.3319L14.465 30.6271ZM19.0741 30.6422L19.0228 30.3466L18.8212 30.3816L18.7802 30.5821L19.0741 30.6422ZM21.3391 30.0356L21.5989 29.8856L21.4728 29.667L21.2358 29.754L21.3391 30.0356ZM22.7849 32.5398L23.0477 32.3949L23.0447 32.3898L22.7849 32.5398ZM23.4531 32.7188L23.3031 32.459L23.2979 32.4621L23.4531 32.7188ZM25.3273 27.7047L25.1328 27.4763L24.9767 27.6092L25.0439 27.8029L25.3273 27.7047ZM26.9464 26.0619L27.0964 25.802L26.8768 25.6752L26.7152 25.8707L26.9464 26.0619ZM29.5047 27.5388L29.3547 27.7987L29.3548 27.7987L29.5047 27.5388ZM30.1728 27.3598L30.4326 27.5098L30.4327 27.5098L30.1728 27.3598ZM29.2229 22.0259L28.9396 21.927L28.8711 22.1234L29.031 22.2565L29.2229 22.0259ZM29.7781 19.848V19.548H29.5235L29.4821 19.7991L29.7781 19.848ZM33.3128 19.3589H33.6128V19.3589L33.3128 19.3589ZM30.0099 15.1392C29.8696 14.4107 29.6675 13.6911 29.4083 12.9962L28.8462 13.2059C29.0937 13.8696 29.2867 14.557 29.4208 15.2527L30.0099 15.1392ZM29.2772 13.3609L32.0023 11.7876L31.7023 11.268L28.9772 12.8413L29.2772 13.3609ZM32.0022 11.7876C32.1835 11.683 32.3158 11.5106 32.37 11.3085L31.7904 11.1531C31.7774 11.2016 31.7457 11.2429 31.7023 11.268L32.0022 11.7876ZM32.3699 11.3086C32.4243 11.1062 32.3957 10.8908 32.2912 10.7097L31.7715 11.0096C31.7966 11.0531 31.8034 11.1047 31.7904 11.153L32.3699 11.3086ZM32.2911 10.7096C31.7259 9.73077 30.8209 9.0045 29.7433 8.66534L29.5632 9.23767C30.4974 9.53169 31.2814 10.1607 31.7715 11.0096L32.2911 10.7096ZM29.7433 8.66534C28.7152 8.34179 27.6138 8.39565 26.6276 8.81554L26.8626 9.36758C27.7169 9.00386 28.6711 8.95692 29.5632 9.23767L29.7433 8.66534ZM26.9717 8.89503C26.4989 8.34973 25.9804 7.84033 25.4273 7.37785L25.0424 7.83815C25.5709 8.28006 26.0666 8.76696 26.5184 9.28809L26.9717 8.89503ZM25.4946 7.75799L27.1111 4.95805L26.5915 4.65806L24.975 7.458L25.4946 7.75799ZM27.1111 4.9581C27.3291 4.58066 27.1997 4.09799 26.8223 3.88008L26.5222 4.39968C26.6128 4.45195 26.6437 4.56767 26.5915 4.65802L27.1111 4.9581ZM26.8222 3.88007C24.8362 2.73343 22.2792 3.28125 20.9341 5.11993L21.4183 5.47419C22.583 3.88207 24.8023 3.40664 26.5222 4.39969L26.8222 3.88007ZM21.2758 5.01406C20.6056 4.77828 19.9134 4.59527 19.2137 4.469L19.1072 5.05946C19.7754 5.18005 20.4366 5.35488 21.0766 5.58005L21.2758 5.01406ZM19.4605 4.76423V1.48922H18.8605V4.76423H19.4605ZM19.4604 1.49517C19.469 1.06208 19.0985 0.691541 18.6654 0.700146L18.6773 1.30003C18.7697 1.29819 18.8624 1.39081 18.8605 1.48326L19.4604 1.49517ZM18.6713 0.700087C18.0106 0.700087 17.3723 0.840374 16.7762 1.11707L17.0288 1.6613C17.5452 1.4216 18.0973 1.30009 18.6713 1.30009V0.700087ZM16.7762 1.11706C16.381 1.30047 16.2091 1.76964 16.3926 2.16506L16.9368 1.91241C16.8929 1.81774 16.934 1.70528 17.0288 1.66131L16.7762 1.11706ZM16.3926 2.16502C16.576 2.56017 17.0452 2.73231 17.4407 2.54857L17.1879 2.00443C17.0934 2.04834 16.9809 2.00727 16.9369 1.91245L16.3926 2.16502ZM17.4406 2.54862C17.6925 2.43171 17.9556 2.35254 18.227 2.31152L18.1373 1.71826C17.8092 1.76785 17.4913 1.86361 17.188 2.00438L17.4406 2.54862ZM17.8821 2.01489V4.90628H18.4821V2.01489H17.8821ZM17.8821 4.90628C17.8821 5.44843 18.2701 5.90954 18.8049 5.99983L18.9048 5.4082C18.66 5.36687 18.4821 5.1569 18.4821 4.90628H17.8821ZM18.8048 5.99982C19.5048 6.11809 20.1979 6.30102 20.8646 6.54323L21.0694 5.9793C20.3687 5.72472 19.6405 5.53252 18.9048 5.4082L18.8048 5.99982ZM20.8645 6.54321C21.3401 6.71612 21.8708 6.54087 22.157 6.12373L21.6622 5.78431C21.5282 5.97972 21.2835 6.05713 21.0695 5.97932L20.8645 6.54321ZM22.157 6.12369C22.9289 4.99804 24.3885 4.57224 25.6322 5.05481L25.8492 4.49544C24.3514 3.91429 22.5949 4.4242 21.6622 5.78436L22.157 6.12369ZM25.4809 4.62513L24.0564 7.09249L24.5761 7.39248L26.0005 4.92512L25.4809 4.62513ZM24.0565 7.09241C23.7837 7.56458 23.8914 8.15987 24.3137 8.50504L24.6934 8.04047C24.4997 7.88214 24.4499 7.61094 24.576 7.39256L24.0565 7.09241ZM24.3137 8.50503C24.8702 8.95993 25.3888 9.46876 25.855 10.0172L26.3121 9.62862C25.8226 9.05261 25.278 8.51834 24.6934 8.04049L24.3137 8.50503ZM25.855 10.0172C26.1769 10.3959 26.7164 10.5098 27.1676 10.3023L26.9169 9.75717C26.7053 9.8545 26.4565 9.79847 26.3121 9.62859L25.855 10.0172ZM27.1678 10.3022C28.4124 9.72878 29.8451 10.0894 30.6734 11.1301L31.1429 10.7565C30.1443 9.50177 28.4149 9.06702 26.9167 9.75725L27.1678 10.3022ZM30.7581 10.6835L28.3636 12.0659L28.6636 12.5855L31.0581 11.2031L30.7581 10.6835ZM28.3635 12.0659C27.8885 12.3403 27.6851 12.9128 27.8827 13.4246L28.4424 13.2084C28.3517 12.9735 28.4434 12.7127 28.6636 12.5855L28.3635 12.0659ZM27.8827 13.4245C28.1474 14.1102 28.3488 14.8251 28.481 15.5488L29.0712 15.4409C28.9322 14.6803 28.7206 13.9292 28.4425 13.2085L27.8827 13.4245ZM28.481 15.5488C28.5694 16.0323 28.9619 16.3933 29.45 16.4503L29.5195 15.8543C29.2883 15.8274 29.1113 15.66 29.0712 15.4409L28.481 15.5488ZM29.45 16.4503C30.7734 16.6047 31.8053 17.6297 32.0007 18.9145L32.5939 18.8243C32.3584 17.2764 31.1158 16.0406 29.5195 15.8543L29.45 16.4503ZM32.2973 18.5694H29.6337V19.1694H32.2973V18.5694ZM29.6337 18.5694C29.0838 18.5694 28.621 18.9646 28.5375 19.5084L29.1305 19.5995C29.1689 19.3498 29.3787 19.1694 29.6337 19.1694V18.5694ZM28.5374 19.5085C28.423 20.2547 28.2357 20.9934 27.9805 21.7038L28.5452 21.9066C28.8134 21.1598 29.0102 20.3837 29.1305 19.5995L28.5374 19.5085ZM27.9805 21.7038C27.818 22.1563 27.9641 22.6603 28.3423 22.9573L28.7129 22.4855C28.537 22.3474 28.4704 22.1149 28.5452 21.9066L27.9805 21.7038ZM28.3422 22.9573C29.3583 23.7558 29.7153 25.1389 29.2576 26.3194L29.8171 26.5363C30.3681 25.1149 29.9409 23.4506 28.7129 22.4855L28.3422 22.9573ZM29.6873 26.1681L27.4612 24.8828L27.1612 25.4024L29.3874 26.6877L29.6873 26.1681ZM27.4613 24.8829C26.9865 24.6085 26.3892 24.718 26.0448 25.1446L26.5116 25.5215C26.6695 25.326 26.9409 25.2751 27.161 25.4024L27.4613 24.8829ZM26.0448 25.1445C25.5591 25.7456 25.012 26.3021 24.4188 26.7983L24.8037 27.2585C25.4268 26.7373 26.0013 26.153 26.5115 25.5216L26.0448 25.1445ZM24.4188 26.7983C24.0554 27.1023 23.9248 27.604 24.0919 28.0471L24.6533 27.8354C24.5758 27.63 24.6369 27.3981 24.8038 27.2585L24.4188 26.7983ZM24.0919 28.0471C24.5458 29.2519 24.1627 30.5789 23.1821 31.3606L23.5561 31.8297C24.7378 30.8878 25.2001 29.2867 24.6533 27.8355L24.0919 28.0471ZM23.6289 31.4451L22.3746 29.2726L21.855 29.5726L23.1093 31.7452L23.6289 31.4451ZM22.3746 29.2727C22.1021 28.8001 21.5324 28.5956 21.0223 28.7892L21.2351 29.3502C21.4689 29.2615 21.7288 29.3538 21.8549 29.5725L22.3746 29.2727ZM21.0222 28.7893C20.2886 29.0678 19.5235 29.2735 18.7481 29.4007L18.8452 29.9928C19.6601 29.8591 20.4641 29.643 21.2352 29.3502L21.0222 28.7893ZM18.748 29.4007C18.2828 29.4771 17.9186 29.843 17.8366 30.3071L18.4275 30.4115C18.4659 30.1938 18.6358 30.0272 18.8453 29.9927L18.748 29.4007ZM17.8366 30.3071C17.6156 31.558 16.6232 32.5024 15.3982 32.6881L15.4882 33.2814C16.9643 33.0575 18.161 31.9193 18.4275 30.4115L17.8366 30.3071ZM15.7432 32.9847V30.4848H15.1432V32.9847H15.7432ZM15.7432 30.4848C15.7432 29.9426 15.3548 29.4816 14.8198 29.3913L14.7199 29.9829C14.9653 30.0243 15.1432 30.2346 15.1432 30.4848H15.7432ZM14.8199 29.3913C14.0476 29.2606 13.2854 29.0518 12.5546 28.7706L12.3391 29.3306C13.1072 29.6261 13.9081 29.8456 14.7198 29.9829L14.8199 29.3913ZM12.5547 28.7707C12.1101 28.5993 11.6064 28.7314 11.3012 29.0972L11.7618 29.4816C11.9033 29.3121 12.1354 29.2521 12.339 29.3306L12.5547 28.7707ZM11.3012 29.0971C10.4843 30.0755 9.15071 30.3994 7.99355 29.9462L7.77473 30.5049C9.1691 31.051 10.7773 30.6607 11.7618 29.4816L11.3012 29.0971ZM8.14395 30.3755L9.41637 28.1716L8.89675 27.8716L7.62433 30.0755L8.14395 30.3755ZM9.41634 28.1716C9.68508 27.7064 9.58355 27.1164 9.1726 26.77L8.78589 27.2288C8.97332 27.3868 9.02093 27.6566 8.89678 27.8715L9.41634 28.1716ZM9.1726 26.77C8.58136 26.2716 8.03639 25.7132 7.55287 25.1102L7.08478 25.4856C7.59267 26.1189 8.16491 26.7053 8.78589 27.2288L9.1726 26.77ZM7.55284 25.1102C7.24926 24.7317 6.7396 24.596 6.28719 24.7702L6.50274 25.3301C6.71303 25.2492 6.94573 25.3122 7.08481 25.4856L7.55284 25.1102ZM6.28695 24.7703C5.07445 25.2382 3.73865 24.8583 2.95192 23.8697L2.48245 24.2434C3.43092 25.4351 5.04355 25.8933 6.50299 25.33L6.28695 24.7703ZM2.86719 24.3164L5.1421 23.003L4.8421 22.4833L2.56719 23.7967L2.86719 24.3164ZM5.14207 23.003C5.60528 22.7356 5.81279 22.1762 5.6334 21.6723L5.06815 21.8735C5.14992 22.1032 5.05579 22.36 4.84212 22.4833L5.14207 23.003ZM5.6334 21.6723C5.3807 20.9624 5.19565 20.2244 5.08327 19.4791L4.48998 19.5685C4.60808 20.3518 4.80252 21.1273 5.06815 21.8735L5.6334 21.6723ZM5.08326 19.479C5.0097 18.9922 4.61986 18.6077 4.13164 18.5432L4.05305 19.138C4.27509 19.1674 4.45617 19.3448 4.48999 19.5686L5.08326 19.479ZM4.1316 18.5432C2.83347 18.3719 1.81955 17.3502 1.62488 16.0849L1.03186 16.1761C1.26631 17.7 2.48566 18.9312 4.05309 19.138L4.1316 18.5432ZM1.32837 16.4305H4.05825V15.8305H1.32837V16.4305ZM4.05825 16.4305C4.59244 16.4305 5.0518 16.0505 5.14886 15.525L4.55884 15.416C4.51462 15.6554 4.3047 15.8305 4.05825 15.8305V16.4305ZM5.14885 15.525C5.28222 14.8037 5.48419 14.0913 5.74908 13.408L5.18965 13.1911C4.91121 13.9093 4.69901 14.6579 4.55885 15.4159L5.14885 15.525ZM5.74903 13.4082C5.93119 12.939 5.77602 12.4043 5.36916 12.1082L5.01606 12.5933C5.20139 12.7282 5.27399 12.9739 5.1897 13.191L5.74903 13.4082ZM5.36915 12.1082C4.27853 11.3143 3.88739 9.90319 4.36649 8.68112L3.80788 8.46213C3.23048 9.93494 3.70184 11.6367 5.01606 12.5933L5.36915 12.1082ZM3.93719 8.83143L6.38387 10.244L6.68386 9.72435L4.23718 8.31181L3.93719 8.83143ZM6.38383 10.244C6.84667 10.5112 7.4347 10.4113 7.78158 10.0043L7.3249 9.61511C7.1666 9.80087 6.89716 9.84753 6.68389 9.72437L6.38383 10.244ZM7.78154 10.0043C8.24919 9.45575 8.76921 8.94717 9.32695 8.49285L8.94801 8.02766C8.3621 8.50493 7.81609 9.03893 7.32494 9.61506L7.78154 10.0043ZM9.32691 8.49288C9.72097 8.17199 9.84041 7.62503 9.62454 7.16552L9.08148 7.42064C9.18233 7.63531 9.12465 7.88382 8.94804 8.02763L9.32691 8.49288ZM9.62453 7.1655C9.04862 5.93988 9.41283 4.4707 10.445 3.63956L10.0687 3.17223C8.8259 4.17296 8.38523 5.9389 9.08149 7.42067L9.62453 7.1655ZM9.99708 3.5559L11.4369 6.04976L11.9566 5.74975L10.5167 3.2559L9.99708 3.5559ZM11.4369 6.0497C11.7057 6.51551 12.2679 6.72193 12.7738 6.53877L12.5695 5.97461C12.3381 6.05841 12.0805 5.96461 11.9566 5.7498L11.4369 6.0497ZM12.7738 6.53877C13.4409 6.2972 14.1347 6.11509 14.8355 5.99749L14.7362 5.40576C13.9997 5.52935 13.2708 5.72067 12.5695 5.97461L12.7738 6.53877ZM14.8355 5.99749C15.3391 5.913 15.7142 5.49429 15.752 4.98551L15.1537 4.94101C15.136 5.1791 14.9625 5.36779 14.7362 5.40576L14.8355 5.99749ZM15.752 4.98551C15.7519 4.98767 15.7577 4.95163 15.802 4.8625C15.8421 4.78191 15.9012 4.68206 15.9771 4.566C16.1285 4.33431 16.3325 4.05946 16.5476 3.78023C16.7636 3.49974 16.9811 3.22708 17.1672 2.98829C17.3441 2.76141 17.5043 2.55092 17.5759 2.42339L17.0527 2.12961C17.0085 2.20839 16.8824 2.37776 16.694 2.6194C16.5149 2.84914 16.2882 3.13366 16.0722 3.41414C15.8552 3.69588 15.6395 3.98578 15.4748 4.23774C15.3926 4.36351 15.3196 4.48521 15.2648 4.59528C15.2143 4.69683 15.1626 4.82057 15.1537 4.94101L15.752 4.98551ZM17.5759 2.42334C17.7891 2.04344 17.6542 1.56233 17.2741 1.34892L16.9804 1.87211C17.0714 1.92321 17.1038 2.03854 17.0527 2.12966L17.5759 2.42334ZM17.274 1.34885C17.2817 1.35319 17.3295 1.38219 17.3559 1.45276C17.3837 1.5273 17.3668 1.59121 17.3539 1.62127C17.3427 1.64736 17.3307 1.65887 17.3343 1.65495C17.3362 1.65282 17.3407 1.64849 17.3516 1.63891C17.3546 1.63629 17.3647 1.62757 17.3719 1.62103C17.376 1.61735 17.3832 1.61064 17.3912 1.60233C17.3962 1.59722 17.4161 1.57677 17.4344 1.54669C17.4433 1.53218 17.4627 1.49812 17.4727 1.45004C17.4835 1.3979 17.4865 1.3075 17.4272 1.21989C17.3711 1.1371 17.2932 1.10765 17.2535 1.09733C17.2132 1.08683 17.1799 1.08715 17.1645 1.08775C17.1149 1.08969 17.0719 1.10473 17.07 1.10533C17.0276 1.11879 16.9362 1.15498 16.795 1.20912L17.01 1.76931C17.089 1.73899 17.1408 1.71889 17.1841 1.70228C17.2047 1.69441 17.2203 1.68848 17.2323 1.68405C17.2383 1.68186 17.2428 1.68023 17.2462 1.67902C17.2479 1.67843 17.2492 1.678 17.2501 1.6777C17.251 1.67739 17.2514 1.67727 17.2513 1.6773C17.2512 1.67732 17.2504 1.67758 17.2489 1.678C17.2475 1.6784 17.2449 1.67915 17.2413 1.68003C17.2378 1.68087 17.2319 1.68221 17.2243 1.68352C17.2173 1.68472 17.2044 1.68665 17.188 1.68729C17.1739 1.68784 17.1418 1.68824 17.1023 1.67796C17.0635 1.66786 16.9862 1.63876 16.9304 1.55646C16.9027 1.51545 16.8874 1.47112 16.8817 1.42891C16.8762 1.38829 16.8799 1.35351 16.8852 1.32816C16.8904 1.30285 16.8981 1.28258 16.9043 1.26845C16.9107 1.25404 16.9172 1.24246 16.9223 1.23411C16.9321 1.21797 16.9414 1.2063 16.9464 1.20026C16.952 1.19362 16.9566 1.18867 16.9593 1.18585C16.9622 1.18286 16.9645 1.18067 16.9657 1.17949C16.967 1.17826 16.9679 1.17748 16.9681 1.17727C16.9684 1.17703 16.9678 1.1775 16.9655 1.17952C16.9645 1.18046 16.9633 1.18146 16.9618 1.18277C16.9604 1.18401 16.9587 1.18549 16.9569 1.18705C16.9433 1.19894 16.9173 1.22178 16.8912 1.2504C16.8778 1.26508 16.8625 1.28323 16.8476 1.30452C16.8328 1.3256 16.8163 1.35256 16.8024 1.3849C16.7885 1.41736 16.7758 1.45864 16.772 1.50694C16.7681 1.55656 16.7741 1.60991 16.7939 1.6629C16.8339 1.76999 16.9139 1.83483 16.9805 1.87218L17.274 1.34885ZM16.6409 1.34234C16.5867 1.43889 16.4251 1.64691 16.1835 1.94083C15.9621 2.21023 15.6517 2.57824 15.3809 2.90867C15.0997 3.25164 14.8203 3.6029 14.6065 3.90666C14.4998 4.05832 14.4056 4.20346 14.3349 4.33335C14.2692 4.45407 14.2047 4.59495 14.1907 4.72889L14.7874 4.79158C14.7873 4.79255 14.7891 4.77822 14.8024 4.74421C14.815 4.71197 14.8343 4.67075 14.8619 4.62019C14.9171 4.51877 14.9968 4.39462 15.0972 4.25202C15.2976 3.96726 15.5652 3.63015 15.8449 3.28906C16.1348 2.93543 16.399 2.62368 16.6471 2.3218C16.875 2.04445 17.0779 1.78968 17.1641 1.63609L16.6409 1.34234ZM14.4363 4.46491C13.7369 4.58979 13.0447 4.77135 12.3746 5.00562L12.5727 5.572C13.2126 5.34827 13.8738 5.17483 14.5417 5.05556L14.4363 4.46491ZM12.7335 5.1388L11.1005 2.31057L10.5809 2.61058L12.2139 5.43881L12.7335 5.1388ZM11.1005 2.31062C10.8826 1.93301 10.3998 1.80401 10.0226 2.02168L10.3225 2.54137C10.413 2.48912 10.5287 2.52022 10.5809 2.61053L11.1005 2.31062ZM10.0225 2.02172C9.03844 2.58987 8.31041 3.50057 7.97335 4.58523L8.54632 4.76328C8.83856 3.82285 9.46906 3.03407 10.3225 2.54134L10.0225 2.02172ZM7.97335 4.58523C7.65249 5.61771 7.71153 6.72141 8.13818 7.70829L8.68892 7.47019C8.31932 6.61528 8.26789 5.65922 8.54632 4.76328L7.97335 4.58523ZM8.22166 7.35864C7.66839 7.81902 7.14924 8.32652 6.67564 8.87005L7.128 9.26421C7.58059 8.7448 8.07681 8.25973 8.60544 7.81984L8.22166 7.35864ZM7.05182 8.80733L4.27096 7.20176L3.97096 7.72137L6.75182 9.32694L7.05182 8.80733ZM4.27612 7.2048C3.90523 6.98067 3.39917 7.11664 3.19009 7.49572L3.71548 7.7855C3.76021 7.70439 3.88681 7.67059 3.9658 7.71832L4.27612 7.2048ZM3.19297 7.49061C2.06131 9.45076 2.55271 11.9232 4.32867 13.3003L4.69634 12.8262C3.15726 11.6327 2.73099 9.49084 3.71259 7.79061L3.19297 7.49061ZM4.23177 12.9575C3.97078 13.6502 3.76687 14.3678 3.62426 15.0946L4.21303 15.2101C4.34924 14.516 4.54403 13.8305 4.79325 13.169L4.23177 12.9575ZM3.91864 14.8523H0.802117V15.4523H3.91864V14.8523ZM0.802117 14.8523C0.366247 14.8523 0.0129883 15.2056 0.0129883 15.6415H0.612988C0.612988 15.537 0.697619 15.4523 0.802117 15.4523V14.8523ZM0.0129883 15.6415C0.0129883 17.8483 1.62662 19.7355 3.79029 20.088L3.88677 19.4958C2.01289 19.1905 0.612988 17.5536 0.612988 15.6415H0.0129883ZM3.54232 19.8395C3.66345 20.5939 3.85022 21.3407 4.09846 22.0634L4.66591 21.8685C4.42883 21.1783 4.25041 20.4649 4.13474 19.7444L3.54232 19.8395ZM4.23219 21.7062L1.62328 23.2124L1.92328 23.732L4.53219 22.2258L4.23219 21.7062ZM1.62849 23.2095C1.24909 23.4186 1.11353 23.9248 1.33744 24.2955L1.85103 23.9853C1.80321 23.9061 1.83716 23.7796 1.91808 23.735L1.62849 23.2095ZM1.33443 24.2904C1.87478 25.2263 2.73387 25.9373 3.75365 26.2922L3.95087 25.7255C3.06724 25.418 2.3225 24.8018 1.85404 23.9904L1.33443 24.2904ZM3.75367 26.2922C4.72053 26.6286 5.77306 26.6267 6.73273 26.2881L6.53312 25.7223C5.7023 26.0154 4.78969 26.0174 3.95084 25.7255L3.75367 26.2922ZM6.40065 26.1951C6.8972 26.8025 7.44885 27.3688 8.04354 27.8814L8.43526 27.4269C7.86697 26.9371 7.33969 26.3958 6.8652 25.8153L6.40065 26.1951ZM7.97959 27.5042L6.51446 30.042L7.03408 30.342L8.49921 27.8041L7.97959 27.5042ZM6.51748 30.0369C6.29354 30.4076 6.42917 30.9137 6.80846 31.1229L7.09817 30.5974C7.01715 30.5528 6.98327 30.4262 7.03106 30.3471L6.51748 30.0369ZM6.80332 31.1199C8.66841 32.1967 11.0149 31.8086 12.431 30.2043L11.9811 29.8072C10.7539 31.1975 8.7211 31.5343 7.10331 30.6003L6.80332 31.1199ZM12.1009 30.2867C12.8492 30.5668 13.6253 30.7803 14.4117 30.9223L14.5184 30.3319C13.7672 30.1962 13.0259 29.9923 12.3112 29.7248L12.1009 30.2867ZM14.165 30.6271V33.5109H14.765V30.6271H14.165ZM14.165 33.5109C14.165 33.9467 14.5183 34.3 14.9542 34.3V33.7C14.8497 33.7 14.765 33.6154 14.765 33.5109H14.165ZM14.9542 34.3C17.1028 34.3 18.9401 32.7946 19.368 30.7023L18.7802 30.5821C18.4094 32.3952 16.8177 33.7 14.9542 33.7V34.3ZM19.1254 30.9378C19.9138 30.801 20.6918 30.5926 21.4425 30.3172L21.2358 29.754C20.519 30.0169 19.7757 30.216 19.0228 30.3466L19.1254 30.9378ZM21.0793 30.1856L22.5251 32.6898L23.0447 32.3898L21.5989 29.8856L21.0793 30.1856ZM22.5222 32.6847C22.7313 33.0637 23.2373 33.1998 23.6083 32.9756L23.2979 32.4621C23.2189 32.5098 23.0924 32.476 23.0476 32.3949L22.5222 32.6847ZM23.6031 32.9786C25.4861 31.8914 26.3182 29.6476 25.6108 27.6064L25.0439 27.8029C25.6571 29.5721 24.9371 31.5156 23.3031 32.459L23.6031 32.9786ZM25.5218 27.9331C26.1205 27.4232 26.6766 26.8591 27.1776 26.253L26.7152 25.8707C26.2364 26.4498 25.7049 26.9891 25.1328 27.4763L25.5218 27.9331ZM26.7964 26.3217L29.3547 27.7987L29.6547 27.279L27.0964 25.802L26.7964 26.3217ZM29.3548 27.7987C29.7321 28.0164 30.2147 27.8873 30.4326 27.5098L29.913 27.2098C29.8608 27.3002 29.7452 27.3313 29.6546 27.279L29.3548 27.7987ZM30.4327 27.5098C31.5255 25.6169 31.085 23.185 29.4148 21.7952L29.031 22.2565C30.4771 23.4597 30.8595 25.5704 29.913 27.2098L30.4327 27.5098ZM29.5061 22.1247C29.7586 21.401 29.9493 20.653 30.0741 19.8969L29.4821 19.7991C29.3629 20.5213 29.1807 21.2359 28.9396 21.927L29.5061 22.1247ZM29.7781 20.148H32.8236V19.548H29.7781V20.148ZM32.8236 20.148C33.2595 20.148 33.6128 19.7948 33.6128 19.3589H33.0128C33.0128 19.4634 32.9281 19.548 32.8236 19.548V20.148ZM33.6128 19.3589C33.6126 17.1143 31.9648 15.219 29.7584 14.8991L29.6723 15.4929C31.5839 15.77 33.0126 17.4125 33.0128 19.3589L33.6128 19.3589Z" fill="#D7D7D7" mask="url(#path-3-outside-1)"/>
</svg>
