<svg width="57" height="58" viewBox="0 0 57 58" fill="none" xmlns="http://www.w3.org/2000/svg">
<path d="M19.8335 36.1368L19.8334 36.1369C19.4455 36.5166 19.4387 37.1389 19.8184 37.527L19.8184 37.527C21.2658 39.0058 23.0875 40.0914 25.0869 40.6666C26.1941 40.9851 27.3101 41.1367 28.4089 41.1367C33.6374 41.1367 38.4634 37.6979 39.9794 32.4277L39.8353 32.3862L39.9794 32.4277C41.8139 26.0501 38.1179 19.3697 31.7405 17.5351L31.6991 17.6793L31.7405 17.5351C25.363 15.7006 18.6826 19.3966 16.848 25.774L16.9921 25.8155L16.848 25.774C16.0891 28.4122 16.2399 31.1469 17.2839 33.6801L17.2839 33.6801C17.4909 34.1821 18.0657 34.4211 18.5673 34.2145L18.5673 34.2144C19.0692 34.0075 19.3085 33.4329 19.1016 32.931C18.2282 30.8118 18.1023 28.5255 18.7374 26.3174C20.2721 20.9822 25.8616 17.8898 31.197 19.4246L31.2385 19.2805L31.197 19.4246C36.5323 20.9594 39.6245 26.5489 38.0898 31.8842L38.234 31.9257L38.0898 31.8842C36.5552 37.2196 30.9656 40.312 25.6302 38.7771C23.9569 38.2956 22.433 37.3878 21.2234 36.1518C20.8441 35.7639 20.2217 35.7572 19.8335 36.1368Z" fill="#115AD4" stroke="#115AD4" stroke-width="0.3"/>
<path d="M33.6261 27.2942C33.9532 30.1237 33.2509 31.9467 32.1824 33.0631C31.1081 34.1855 29.6431 34.6153 28.4137 34.6153C25.3731 34.6153 22.8991 32.1413 22.8991 29.1006C22.8992 26.0601 25.3732 23.5861 28.4139 23.5861C30.7648 23.5861 32.8575 25.0757 33.6261 27.2942ZM33.7693 34.1086C35.2831 32.4877 36.2079 30.0753 35.5387 26.8848C35.5309 26.8135 35.5151 26.7419 35.4909 26.6712C34.4538 23.6499 31.6097 21.62 28.4137 21.62C24.2888 21.62 20.933 24.9757 20.933 29.1008C20.933 33.2259 24.2886 36.5815 28.4137 36.5815C30.0878 36.5815 32.2308 35.756 33.7693 34.1086Z" fill="#115AD4" stroke="#115AD4" stroke-width="0.3"/>
<mask id="path-3-outside-1" maskUnits="userSpaceOnUse" x="-0.687012" y="0" width="58" height="58" fill="black">
<rect fill="white" x="-0.687012" width="58" height="58"/>
<path d="M50.3884 25.1773C50.1547 23.9644 49.8183 22.7663 49.3868 21.6094L54.0278 18.93C54.2191 18.8195 54.3588 18.6375 54.416 18.4242C54.4733 18.2107 54.4432 17.9833 54.3328 17.792C53.4341 16.2356 51.9958 15.0815 50.2826 14.5423C48.6475 14.0277 46.897 14.1135 45.3297 14.7808C44.5423 13.8727 43.6787 13.0243 42.7576 12.2541L45.5106 7.48554C45.7407 7.08718 45.6041 6.57763 45.2057 6.34756C42.0498 4.5255 37.9825 5.39685 35.8453 8.31836C34.7296 7.92582 33.577 7.6211 32.4123 7.41089V1.83319C32.4212 1.38566 32.0268 0.991256 31.5792 1.00015C30.5278 1.00015 29.5141 1.22309 28.5667 1.66282C28.1495 1.85646 27.968 2.35174 28.1618 2.76908C28.3554 3.18631 28.8508 3.36787 29.268 3.17402C29.7408 2.95459 30.2355 2.80563 30.7461 2.72846V7.65282C30.7461 8.32791 31.2279 8.89936 31.8917 9.01144C33.1142 9.21802 34.3246 9.53745 35.489 9.9605C36.0763 10.174 36.7365 9.95886 37.0944 9.43723C38.546 7.32044 41.2846 6.52363 43.6192 7.42944L41.1932 11.6316C40.8534 12.2197 40.9876 12.9575 41.5121 13.3863C42.4838 14.1806 43.3892 15.0688 44.203 16.0264C44.6002 16.4935 45.2714 16.6382 45.8358 16.3786C48.1715 15.3025 50.8642 15.9798 52.4198 17.9345L48.3417 20.2889C47.7497 20.6308 47.4983 21.3405 47.7439 21.9763C48.2061 23.174 48.5578 24.4223 48.7887 25.6863C48.8982 26.2846 49.3831 26.7346 49.9957 26.806C52.4819 27.0961 54.4188 29.0213 54.7858 31.4336H50.2493C49.5639 31.4336 48.9912 31.9237 48.8873 32.5994C48.6874 33.9026 48.3603 35.1926 47.9147 36.4336C47.7126 36.9962 47.8937 37.6233 48.3655 37.9939C50.2765 39.4957 50.9442 42.0907 50.0852 44.3064L46.2938 42.1175C45.702 41.7755 44.9623 41.912 44.5345 42.4418C43.6865 43.4914 42.7313 44.4629 41.6956 45.3292C41.2441 45.7069 41.0809 46.3317 41.2891 46.8839C42.1413 49.1457 41.4214 51.6391 39.5801 53.1069L37.4438 49.4067C37.1042 48.8181 36.3979 48.5654 35.7644 48.8058C34.4831 49.2923 33.1468 49.6515 31.7926 49.8736C31.2181 49.968 30.7633 50.4215 30.6608 51.002C30.2456 53.3513 28.3815 55.1246 26.0813 55.4735V51.2159C26.0813 50.541 25.5991 49.9694 24.9346 49.8572C23.5857 49.629 22.2547 49.2643 20.9783 48.7733C20.4262 48.5605 19.7997 48.7241 19.4193 49.1799C17.8854 51.0171 15.3802 51.6253 13.2075 50.7743L15.3745 47.0207C15.7091 46.4414 15.5821 45.7093 15.0726 45.2798C14.0403 44.4096 13.0889 43.4347 12.2447 42.382C11.8677 41.912 11.2356 41.7428 10.6713 41.96C8.39596 42.8382 5.88521 42.1244 4.4076 40.2678L8.28202 38.0309C8.85842 37.6982 9.11528 37.0032 8.89288 36.3785C8.4515 35.1385 8.12834 33.8497 7.93207 32.5481C7.84064 31.9429 7.35447 31.4644 6.74964 31.3845C4.30947 31.0624 2.40772 29.144 2.04229 26.7689H6.69157C7.35633 26.7689 7.92626 26.2962 8.04656 25.6448C8.27949 24.3851 8.63218 23.1409 9.09486 21.9475C9.32175 21.3631 9.12779 20.6986 8.62351 20.3315C6.57565 18.841 5.84119 16.1901 6.74086 13.8953L10.9078 16.301C11.4835 16.6335 12.2137 16.5087 12.6439 16.0039C13.4604 15.0461 14.3682 14.1583 15.342 13.365C15.828 12.9693 15.9788 12.2919 15.7091 11.7178C14.6258 9.41232 15.3112 6.65744 17.2485 5.09751L19.7008 9.34481C20.0352 9.92439 20.7333 10.18 21.3611 9.95271C22.5264 9.53076 23.7379 9.21276 24.9618 9.00738C25.5834 8.9031 26.0505 8.38586 26.0978 7.74986C26.1577 6.94404 28.8734 3.87676 29.268 3.17402C29.4932 2.77292 29.3507 2.26502 28.9495 2.03977C28.5484 1.81486 29.6008 1.43643 28.5667 1.83319C28.0883 2.68522 24.5582 6.4346 24.4563 7.40409C23.2919 7.61199 22.1394 7.91429 21.0239 8.30431L18.2428 3.48752C18.0128 3.08906 17.5032 2.95272 17.1048 3.18258C15.5401 4.08598 14.3832 5.53318 13.8473 7.25765C13.337 8.8998 13.4311 10.6538 14.1091 12.2222C13.1878 12.9888 12.3232 13.834 11.5345 14.7392L6.79838 12.0047C6.41528 11.7732 5.87653 11.9178 5.6604 12.3097C3.86084 15.4267 4.64229 19.356 7.46522 21.545C7.03076 22.6982 6.69124 23.893 6.45381 25.103H1.14603C0.685875 25.103 0.312988 25.4758 0.312988 25.936C0.312988 29.4436 2.87917 32.4445 6.31737 33.0047C6.51901 34.2607 6.82999 35.5041 7.24327 36.7073L2.80003 39.2726C2.40804 39.4887 2.2637 40.0275 2.49509 40.4106C3.35415 41.8985 4.7199 43.0287 6.34075 43.5928C7.8784 44.1278 9.55183 44.1244 11.0765 43.5866C11.9034 44.5982 12.8222 45.5413 13.8125 46.3949L11.3172 50.7171C11.0859 51.1002 11.2302 51.6389 11.6222 51.855C14.588 53.5673 18.3172 52.95 20.5682 50.3999C21.8139 50.8662 23.1061 51.2217 24.4155 51.4581V56.3695C24.4155 56.8297 24.7884 57.2026 25.2485 57.2026C28.6651 57.2026 31.585 54.8095 32.2652 51.4839C33.5777 51.2561 34.8732 50.9092 36.1228 50.4508L38.5851 54.7156C38.8013 55.1075 39.3399 55.2522 39.7231 55.0206C42.7181 53.2914 44.0397 49.7256 42.9151 46.481C43.9121 45.6319 44.8383 44.6923 45.6726 43.6831L50.0296 46.1985C50.428 46.4284 50.9375 46.292 51.1676 45.8936C52.9041 42.8857 52.2033 39.0174 49.5497 36.8093C49.97 35.6046 50.2874 34.359 50.4952 33.1002H55.6821C56.1423 33.1002 56.5152 32.7273 56.5152 32.2672C56.5149 28.6983 53.8951 25.6857 50.3884 25.1773Z"/>
</mask>
<path d="M50.3884 25.1773C50.1547 23.9644 49.8183 22.7663 49.3868 21.6094L54.0278 18.93C54.2191 18.8195 54.3588 18.6375 54.416 18.4242C54.4733 18.2107 54.4432 17.9833 54.3328 17.792C53.4341 16.2356 51.9958 15.0815 50.2826 14.5423C48.6475 14.0277 46.897 14.1135 45.3297 14.7808C44.5423 13.8727 43.6787 13.0243 42.7576 12.2541L45.5106 7.48554C45.7407 7.08718 45.6041 6.57763 45.2057 6.34756C42.0498 4.5255 37.9825 5.39685 35.8453 8.31836C34.7296 7.92582 33.577 7.6211 32.4123 7.41089V1.83319C32.4212 1.38566 32.0268 0.991256 31.5792 1.00015C30.5278 1.00015 29.5141 1.22309 28.5667 1.66282C28.1495 1.85646 27.968 2.35174 28.1618 2.76908C28.3554 3.18631 28.8508 3.36787 29.268 3.17402C29.7408 2.95459 30.2355 2.80563 30.7461 2.72846V7.65282C30.7461 8.32791 31.2279 8.89936 31.8917 9.01144C33.1142 9.21802 34.3246 9.53745 35.489 9.9605C36.0763 10.174 36.7365 9.95886 37.0944 9.43723C38.546 7.32044 41.2846 6.52363 43.6192 7.42944L41.1932 11.6316C40.8534 12.2197 40.9876 12.9575 41.5121 13.3863C42.4838 14.1806 43.3892 15.0688 44.203 16.0264C44.6002 16.4935 45.2714 16.6382 45.8358 16.3786C48.1715 15.3025 50.8642 15.9798 52.4198 17.9345L48.3417 20.2889C47.7497 20.6308 47.4983 21.3405 47.7439 21.9763C48.2061 23.174 48.5578 24.4223 48.7887 25.6863C48.8982 26.2846 49.3831 26.7346 49.9957 26.806C52.4819 27.0961 54.4188 29.0213 54.7858 31.4336H50.2493C49.5639 31.4336 48.9912 31.9237 48.8873 32.5994C48.6874 33.9026 48.3603 35.1926 47.9147 36.4336C47.7126 36.9962 47.8937 37.6233 48.3655 37.9939C50.2765 39.4957 50.9442 42.0907 50.0852 44.3064L46.2938 42.1175C45.702 41.7755 44.9623 41.912 44.5345 42.4418C43.6865 43.4914 42.7313 44.4629 41.6956 45.3292C41.2441 45.7069 41.0809 46.3317 41.2891 46.8839C42.1413 49.1457 41.4214 51.6391 39.5801 53.1069L37.4438 49.4067C37.1042 48.8181 36.3979 48.5654 35.7644 48.8058C34.4831 49.2923 33.1468 49.6515 31.7926 49.8736C31.2181 49.968 30.7633 50.4215 30.6608 51.002C30.2456 53.3513 28.3815 55.1246 26.0813 55.4735V51.2159C26.0813 50.541 25.5991 49.9694 24.9346 49.8572C23.5857 49.629 22.2547 49.2643 20.9783 48.7733C20.4262 48.5605 19.7997 48.7241 19.4193 49.1799C17.8854 51.0171 15.3802 51.6253 13.2075 50.7743L15.3745 47.0207C15.7091 46.4414 15.5821 45.7093 15.0726 45.2798C14.0403 44.4096 13.0889 43.4347 12.2447 42.382C11.8677 41.912 11.2356 41.7428 10.6713 41.96C8.39596 42.8382 5.88521 42.1244 4.4076 40.2678L8.28202 38.0309C8.85842 37.6982 9.11528 37.0032 8.89288 36.3785C8.4515 35.1385 8.12834 33.8497 7.93207 32.5481C7.84064 31.9429 7.35447 31.4644 6.74964 31.3845C4.30947 31.0624 2.40772 29.144 2.04229 26.7689H6.69157C7.35633 26.7689 7.92626 26.2962 8.04656 25.6448C8.27949 24.3851 8.63218 23.1409 9.09486 21.9475C9.32175 21.3631 9.12779 20.6986 8.62351 20.3315C6.57565 18.841 5.84119 16.1901 6.74086 13.8953L10.9078 16.301C11.4835 16.6335 12.2137 16.5087 12.6439 16.0039C13.4604 15.0461 14.3682 14.1583 15.342 13.365C15.828 12.9693 15.9788 12.2919 15.7091 11.7178C14.6258 9.41232 15.3112 6.65744 17.2485 5.09751L19.7008 9.34481C20.0352 9.92439 20.7333 10.18 21.3611 9.95271C22.5264 9.53076 23.7379 9.21276 24.9618 9.00738C25.5834 8.9031 26.0505 8.38586 26.0978 7.74986C26.1577 6.94404 28.8734 3.87676 29.268 3.17402C29.4932 2.77292 29.3507 2.26502 28.9495 2.03977C28.5484 1.81486 29.6008 1.43643 28.5667 1.83319C28.0883 2.68522 24.5582 6.4346 24.4563 7.40409C23.2919 7.61199 22.1394 7.91429 21.0239 8.30431L18.2428 3.48752C18.0128 3.08906 17.5032 2.95272 17.1048 3.18258C15.5401 4.08598 14.3832 5.53318 13.8473 7.25765C13.337 8.8998 13.4311 10.6538 14.1091 12.2222C13.1878 12.9888 12.3232 13.834 11.5345 14.7392L6.79838 12.0047C6.41528 11.7732 5.87653 11.9178 5.6604 12.3097C3.86084 15.4267 4.64229 19.356 7.46522 21.545C7.03076 22.6982 6.69124 23.893 6.45381 25.103H1.14603C0.685875 25.103 0.312988 25.4758 0.312988 25.936C0.312988 29.4436 2.87917 32.4445 6.31737 33.0047C6.51901 34.2607 6.82999 35.5041 7.24327 36.7073L2.80003 39.2726C2.40804 39.4887 2.2637 40.0275 2.49509 40.4106C3.35415 41.8985 4.7199 43.0287 6.34075 43.5928C7.8784 44.1278 9.55183 44.1244 11.0765 43.5866C11.9034 44.5982 12.8222 45.5413 13.8125 46.3949L11.3172 50.7171C11.0859 51.1002 11.2302 51.6389 11.6222 51.855C14.588 53.5673 18.3172 52.95 20.5682 50.3999C21.8139 50.8662 23.1061 51.2217 24.4155 51.4581V56.3695C24.4155 56.8297 24.7884 57.2026 25.2485 57.2026C28.6651 57.2026 31.585 54.8095 32.2652 51.4839C33.5777 51.2561 34.8732 50.9092 36.1228 50.4508L38.5851 54.7156C38.8013 55.1075 39.3399 55.2522 39.7231 55.0206C42.7181 53.2914 44.0397 49.7256 42.9151 46.481C43.9121 45.6319 44.8383 44.6923 45.6726 43.6831L50.0296 46.1985C50.428 46.4284 50.9375 46.292 51.1676 45.8936C52.9041 42.8857 52.2033 39.0174 49.5497 36.8093C49.97 35.6046 50.2874 34.359 50.4952 33.1002H55.6821C56.1423 33.1002 56.5152 32.7273 56.5152 32.2672C56.5149 28.6983 53.8951 25.6857 50.3884 25.1773Z" fill="#115AD4"/>
<path d="M50.3884 25.1773L50.0938 25.234L50.1342 25.4435L50.3454 25.4742L50.3884 25.1773ZM49.3868 21.6094L49.2368 21.3496L49.017 21.4765L49.1057 21.7143L49.3868 21.6094ZM54.0278 18.93L53.8778 18.6701L53.8778 18.6702L54.0278 18.93ZM54.416 18.4242L54.1262 18.3464L54.1262 18.3465L54.416 18.4242ZM54.3328 17.792L54.5926 17.642L54.5926 17.642L54.3328 17.792ZM50.2826 14.5423L50.3727 14.2561L50.3727 14.2561L50.2826 14.5423ZM45.3297 14.7808L45.103 14.9773L45.2462 15.1424L45.4472 15.0568L45.3297 14.7808ZM42.7576 12.2541L42.4978 12.1041L42.3717 12.3225L42.5651 12.4843L42.7576 12.2541ZM45.5106 7.48554L45.2508 7.33549L45.2508 7.33554L45.5106 7.48554ZM45.2057 6.34756L45.3557 6.08776L45.3557 6.08775L45.2057 6.34756ZM35.8453 8.31836L35.7457 8.60135L35.9559 8.67529L36.0874 8.49548L35.8453 8.31836ZM32.4123 7.41089H32.1123V7.6616L32.359 7.70612L32.4123 7.41089ZM32.4123 1.83319L32.1123 1.82723V1.83319H32.4123ZM31.5792 1.00015V1.30021L31.5852 1.30009L31.5792 1.00015ZM28.5667 1.66282L28.693 1.93495L28.693 1.93494L28.5667 1.66282ZM28.1618 2.76908L28.4339 2.64279L28.4339 2.64276L28.1618 2.76908ZM30.7461 2.72846H31.0461V2.37971L30.7012 2.43183L30.7461 2.72846ZM31.8917 9.01144L31.9417 8.71563L31.9417 8.71562L31.8917 9.01144ZM35.489 9.9605L35.5915 9.67856L35.5914 9.67854L35.489 9.9605ZM37.0944 9.43723L37.3417 9.60695L37.3418 9.6069L37.0944 9.43723ZM43.6192 7.42944L43.879 7.57944L44.054 7.27635L43.7277 7.14976L43.6192 7.42944ZM41.1932 11.6316L41.4529 11.7817L41.453 11.7816L41.1932 11.6316ZM41.5121 13.3863L41.702 13.154L41.702 13.154L41.5121 13.3863ZM44.203 16.0264L43.9744 16.2206L43.9745 16.2207L44.203 16.0264ZM45.8358 16.3786L45.9612 16.6512L45.9614 16.6511L45.8358 16.3786ZM52.4198 17.9345L52.5698 18.1943L52.8714 18.0202L52.6545 17.7477L52.4198 17.9345ZM48.3417 20.2889L48.1917 20.0291L48.1916 20.0291L48.3417 20.2889ZM47.7439 21.9763L48.0237 21.8683L48.0237 21.8682L47.7439 21.9763ZM48.7887 25.6863L48.4936 25.7402L48.4936 25.7402L48.7887 25.6863ZM49.9957 26.806L50.0304 26.5081L50.0304 26.508L49.9957 26.806ZM54.7858 31.4336V31.7336H55.1349L55.0824 31.3885L54.7858 31.4336ZM48.8873 32.5994L48.5908 32.5539L48.5908 32.5539L48.8873 32.5994ZM47.9147 36.4336L48.197 36.535L48.197 36.535L47.9147 36.4336ZM48.3655 37.9939L48.5508 37.7581L48.5508 37.758L48.3655 37.9939ZM50.0852 44.3064L49.9352 44.5662L50.2384 44.7413L50.3649 44.4149L50.0852 44.3064ZM46.2938 42.1175L46.1437 42.3773L46.1438 42.3773L46.2938 42.1175ZM44.5345 42.4418L44.7679 42.6303L44.7679 42.6303L44.5345 42.4418ZM41.6956 45.3292L41.5031 45.099L41.5031 45.0991L41.6956 45.3292ZM41.2891 46.8839L41.5698 46.7781L41.5698 46.7781L41.2891 46.8839ZM39.5801 53.1069L39.3203 53.2569L39.4946 53.5587L39.7671 53.3414L39.5801 53.1069ZM37.4438 49.4067L37.1839 49.5566L37.184 49.5568L37.4438 49.4067ZM35.7644 48.8058L35.658 48.5253L35.6579 48.5253L35.7644 48.8058ZM31.7926 49.8736L31.7441 49.5776L31.744 49.5776L31.7926 49.8736ZM30.6608 51.002L30.9562 51.0542L30.9562 51.0542L30.6608 51.002ZM26.0813 55.4735H25.7813V55.8224L26.1263 55.7701L26.0813 55.4735ZM24.9346 49.8572L24.8845 50.153L24.8846 50.1531L24.9346 49.8572ZM20.9783 48.7733L20.8704 49.0532L20.8706 49.0533L20.9783 48.7733ZM19.4193 49.1799L19.6496 49.3721L19.6496 49.3721L19.4193 49.1799ZM13.2075 50.7743L12.9477 50.6243L12.7732 50.9264L13.0981 51.0536L13.2075 50.7743ZM15.3745 47.0207L15.1148 46.8706L15.1147 46.8707L15.3745 47.0207ZM15.0726 45.2798L15.2659 45.0504H15.2659L15.0726 45.2798ZM12.2447 42.382L12.4787 42.1943L12.4787 42.1942L12.2447 42.382ZM10.6713 41.96L10.5635 41.68L10.5632 41.6801L10.6713 41.96ZM4.4076 40.2678L4.2576 40.008L3.956 40.1821L4.17287 40.4546L4.4076 40.2678ZM8.28202 38.0309L8.13204 37.7711L8.13202 37.7711L8.28202 38.0309ZM8.89288 36.3785L8.61026 36.4791L8.61026 36.4791L8.89288 36.3785ZM7.93207 32.5481L8.22872 32.5033L8.22871 32.5032L7.93207 32.5481ZM6.74964 31.3845L6.78893 31.0871L6.78889 31.0871L6.74964 31.3845ZM2.04229 26.7689V26.4689H1.69261L1.74578 26.8145L2.04229 26.7689ZM8.04656 25.6448L7.75156 25.5902L7.75155 25.5903L8.04656 25.6448ZM9.09486 21.9475L8.8152 21.839L8.81514 21.8391L9.09486 21.9475ZM8.62351 20.3315L8.80006 20.089L8.80006 20.089L8.62351 20.3315ZM6.74086 13.8953L6.89085 13.6355L6.58884 13.4611L6.46155 13.7858L6.74086 13.8953ZM10.9078 16.301L11.0578 16.0412L11.0578 16.0412L10.9078 16.301ZM12.6439 16.0039L12.4156 15.8092L12.4156 15.8093L12.6439 16.0039ZM15.342 13.365L15.1526 13.1324L15.1526 13.1324L15.342 13.365ZM15.7091 11.7178L15.9806 11.5902L15.9806 11.5902L15.7091 11.7178ZM17.2485 5.09751L17.5083 4.9475L17.3332 4.64416L17.0604 4.86384L17.2485 5.09751ZM19.7008 9.34481L19.9606 9.19486L19.9606 9.19481L19.7008 9.34481ZM21.3611 9.95271L21.4633 10.2348L21.4633 10.2348L21.3611 9.95271ZM24.9618 9.00738L24.9122 8.71151L24.9121 8.71151L24.9618 9.00738ZM26.0978 7.74986L26.397 7.77211V7.77211L26.0978 7.74986ZM28.9495 2.03977L29.0964 1.77818L29.0962 1.77811L28.9495 2.03977ZM28.5667 1.83319L28.4593 1.55309L28.3581 1.59189L28.3051 1.68632L28.5667 1.83319ZM24.4563 7.40409L24.509 7.69942L24.7311 7.65977L24.7547 7.43544L24.4563 7.40409ZM21.0239 8.30431L20.7641 8.45431L20.8884 8.66951L21.1229 8.58749L21.0239 8.30431ZM18.2428 3.48752L17.983 3.63748L17.983 3.63752L18.2428 3.48752ZM17.1048 3.18258L16.9549 2.92274L16.9548 2.92277L17.1048 3.18258ZM13.8473 7.25765L14.1338 7.34668V7.34668L13.8473 7.25765ZM14.1091 12.2222L14.301 12.4528L14.4736 12.3092L14.3845 12.1031L14.1091 12.2222ZM11.5345 14.7392L11.3845 14.999L11.5984 15.1225L11.7607 14.9363L11.5345 14.7392ZM6.79838 12.0047L6.64319 12.2615L6.64837 12.2645L6.79838 12.0047ZM5.6604 12.3097L5.92026 12.4597L5.92309 12.4546L5.6604 12.3097ZM7.46522 21.545L7.74596 21.6508L7.82401 21.4436L7.64906 21.3079L7.46522 21.545ZM6.45381 25.103V25.403H6.70066L6.7482 25.1607L6.45381 25.103ZM6.31737 33.0047L6.61357 32.9571L6.57926 32.7434L6.36561 32.7086L6.31737 33.0047ZM7.24327 36.7073L7.39327 36.9671L7.60728 36.8436L7.527 36.6099L7.24327 36.7073ZM2.80003 39.2726L2.94486 39.5354L2.95003 39.5324L2.80003 39.2726ZM2.49509 40.4106L2.75495 40.2606L2.75188 40.2555L2.49509 40.4106ZM6.34075 43.5928L6.24214 43.8762L6.24216 43.8762L6.34075 43.5928ZM11.0765 43.5866L11.3088 43.3967L11.1754 43.2335L10.9767 43.3036L11.0765 43.5866ZM13.8125 46.3949L14.0723 46.5449L14.1965 46.3298L14.0084 46.1677L13.8125 46.3949ZM11.3172 50.7171L11.5741 50.8722L11.5771 50.8671L11.3172 50.7171ZM11.6222 51.855L11.7722 51.5952L11.767 51.5923L11.6222 51.855ZM20.5682 50.3999L20.6733 50.119L20.4799 50.0466L20.3433 50.2014L20.5682 50.3999ZM24.4155 51.4581H24.7155V51.2074L24.4688 51.1629L24.4155 51.4581ZM32.2652 51.4839L32.2139 51.1883L32.0123 51.2233L31.9713 51.4238L32.2652 51.4839ZM36.1228 50.4508L36.3826 50.3008L36.2564 50.0822L36.0195 50.1691L36.1228 50.4508ZM38.5851 54.7156L38.8479 54.5707L38.845 54.5656L38.5851 54.7156ZM39.7231 55.0206L39.5731 54.7607L39.5679 54.7638L39.7231 55.0206ZM42.9151 46.481L42.7206 46.2526L42.5645 46.3855L42.6316 46.5792L42.9151 46.481ZM45.6726 43.6831L45.8226 43.4232L45.603 43.2964L45.4414 43.4919L45.6726 43.6831ZM50.0296 46.1985L49.8796 46.4583L49.8797 46.4584L50.0296 46.1985ZM51.1676 45.8936L51.4274 46.0436L51.4274 46.0436L51.1676 45.8936ZM49.5497 36.8093L49.2664 36.7105L49.1979 36.9069L49.3578 37.0399L49.5497 36.8093ZM50.4952 33.1002V32.8002H50.2407L50.1992 33.0513L50.4952 33.1002ZM56.5152 32.2672H56.8152V32.2671L56.5152 32.2672ZM50.683 25.1205C50.4461 23.8913 50.1052 22.6771 49.6679 21.5046L49.1057 21.7143C49.5314 22.8555 49.8633 24.0376 50.0938 25.234L50.683 25.1205ZM49.5368 21.8692L54.1778 19.1898L53.8778 18.6702L49.2368 21.3496L49.5368 21.8692ZM54.1778 19.1898C54.4381 19.0396 54.628 18.792 54.7057 18.5018L54.1262 18.3465C54.0896 18.4831 54.0002 18.5995 53.8778 18.6701L54.1778 19.1898ZM54.7057 18.5019C54.7837 18.2114 54.7427 17.9021 54.5926 17.642L54.0729 17.942C54.1437 18.0645 54.1628 18.2099 54.1262 18.3464L54.7057 18.5019ZM54.5926 17.642C53.6564 16.0206 52.1575 14.8179 50.3727 14.2561L50.1925 14.8284C51.834 15.3451 53.2118 16.4506 54.073 17.942L54.5926 17.642ZM50.3727 14.2561C48.6695 13.7201 46.8454 13.8094 45.2122 14.5048L45.4472 15.0568C46.9485 14.4176 48.6254 14.3352 50.1925 14.8284L50.3727 14.2561ZM45.5564 14.5843C44.7585 13.6641 43.8834 12.8044 42.95 12.024L42.5651 12.4843C43.4739 13.2441 44.3261 14.0813 45.103 14.9773L45.5564 14.5843ZM43.0174 12.4041L45.7704 7.63553L45.2508 7.33554L42.4978 12.1041L43.0174 12.4041ZM45.7704 7.63558C46.0834 7.09368 45.8976 6.40065 45.3557 6.08776L45.0556 6.60736C45.3107 6.75461 45.398 7.08069 45.2508 7.33549L45.7704 7.63558ZM45.3557 6.08775C42.0668 4.18889 37.8306 5.09643 35.6032 8.14123L36.0874 8.49548C38.1344 5.69726 42.0328 4.8621 45.0557 6.60736L45.3557 6.08775ZM35.9449 8.03536C34.8141 7.63752 33.646 7.32871 32.4655 7.11566L32.359 7.70612C33.508 7.91349 34.6451 8.21412 35.7457 8.60135L35.9449 8.03536ZM32.7123 7.41089V1.83319H32.1123V7.41089H32.7123ZM32.7122 1.83915C32.7245 1.22129 32.1911 0.687931 31.5733 0.700207L31.5852 1.30009C31.8624 1.29458 32.1178 1.55002 32.1123 1.82723L32.7122 1.83915ZM31.5792 0.700147C30.4844 0.700147 29.4277 0.932474 28.4404 1.39071L28.693 1.93494C29.6006 1.5137 30.5711 1.30015 31.5792 1.30015V0.700147ZM28.4404 1.3907C27.873 1.65405 27.6261 2.32769 27.8897 2.8954L28.4339 2.64276C28.31 2.37579 28.426 2.05886 28.693 1.93495L28.4404 1.3907ZM27.8897 2.89537C28.153 3.46276 28.8267 3.70986 29.3944 3.44609L29.1416 2.90195C28.8749 3.02589 28.5578 2.90986 28.4339 2.64279L27.8897 2.89537ZM29.3943 3.44614C29.8414 3.23863 30.3087 3.09798 30.7909 3.0251L30.7012 2.43183C30.1624 2.51329 29.6402 2.67054 29.1417 2.9019L29.3943 3.44614ZM30.4461 2.72846V7.65282H31.0461V2.72846H30.4461ZM30.4461 7.65282C30.4461 8.47367 31.0329 9.1707 31.8418 9.30725L31.9417 8.71562C31.4228 8.62803 31.0461 8.18214 31.0461 7.65282H30.4461ZM31.8418 9.30724C33.0464 9.51081 34.2391 9.8256 35.3865 10.2425L35.5914 9.67854C34.41 9.2493 33.1821 8.92524 31.9417 8.71563L31.8418 9.30724ZM35.3865 10.2424C36.1045 10.5035 36.9078 10.2394 37.3417 9.60695L36.847 9.26752C36.5652 9.67828 36.048 9.84451 35.5915 9.67856L35.3865 10.2424ZM37.3418 9.6069C38.713 7.60736 41.3031 6.8526 43.5106 7.70913L43.7277 7.14976C41.2661 6.19465 38.3789 7.03352 36.847 9.26757L37.3418 9.6069ZM43.3594 7.27945L40.9333 11.4816L41.453 11.7816L43.879 7.57944L43.3594 7.27945ZM40.9334 11.4816C40.5203 12.1965 40.6834 13.0964 41.3223 13.6186L41.702 13.154C41.2917 12.8187 41.1865 12.2428 41.4529 11.7817L40.9334 11.4816ZM41.3223 13.6186C42.2799 14.4014 43.1723 15.2769 43.9744 16.2206L44.4316 15.8321C43.6061 14.8608 42.6877 13.9598 41.702 13.154L41.3223 13.6186ZM43.9745 16.2207C44.4604 16.7923 45.2769 16.9659 45.9612 16.6512L45.7105 16.1061C45.2659 16.3105 44.74 16.1948 44.4316 15.832L43.9745 16.2207ZM45.9614 16.6511C48.1703 15.6334 50.7146 16.2736 52.1851 18.1213L52.6545 17.7477C51.0137 15.686 48.1728 14.9717 45.7103 16.1061L45.9614 16.6511ZM52.2698 17.6747L48.1917 20.0291L48.4917 20.5487L52.5698 18.1943L52.2698 17.6747ZM48.1916 20.0291C47.4722 20.4447 47.165 21.3101 47.464 22.0844L48.0237 21.8682C47.8316 21.3709 48.0271 20.817 48.4917 20.5487L48.1916 20.0291ZM47.464 22.0843C47.9195 23.2645 48.2661 24.4947 48.4936 25.7402L49.0839 25.6323C48.8495 24.3499 48.4927 23.0835 48.0237 21.8683L47.464 22.0843ZM48.4936 25.7402C48.6273 26.4708 49.2199 27.0176 49.9609 27.104L50.0304 26.508C49.5464 26.4516 49.1691 26.0985 49.0839 25.6323L48.4936 25.7402ZM49.9609 27.104C52.3108 27.3782 54.1422 29.1979 54.4892 31.4787L55.0824 31.3885C54.6954 28.8446 52.6531 26.8141 50.0304 26.5081L49.9609 27.104ZM54.7858 31.1336H50.2493V31.7336H54.7858V31.1336ZM50.2493 31.1336C49.4165 31.1336 48.7172 31.7311 48.5908 32.5539L49.1838 32.645C49.2651 32.1163 49.7114 31.7336 50.2493 31.7336V31.1336ZM48.5908 32.5539C48.3938 33.8381 48.0715 35.1094 47.6323 36.3322L48.197 36.535C48.6492 35.2758 48.981 33.9671 49.1839 32.6449L48.5908 32.5539ZM47.6323 36.3322C47.3864 37.017 47.6072 37.7798 48.1802 38.2299L48.5508 37.758C48.1802 37.4669 48.0388 36.9755 48.197 36.535L47.6323 36.3322ZM48.1801 38.2298C49.9852 39.6483 50.6178 42.1027 49.8055 44.198L50.3649 44.4149C51.2706 42.0787 50.5677 39.343 48.5508 37.7581L48.1801 38.2298ZM50.2352 44.0466L46.4438 41.8577L46.1438 42.3773L49.9352 44.5662L50.2352 44.0466ZM46.4439 41.8578C45.7248 41.4422 44.8222 41.608 44.3011 42.2533L44.7679 42.6303C45.1024 42.216 45.6792 42.1088 46.1437 42.3773L46.4439 41.8578ZM44.3012 42.2532C43.4653 43.2877 42.5239 44.2452 41.5031 45.099L41.888 45.5593C42.9388 44.6805 43.9076 43.6951 44.7679 42.6303L44.3012 42.2532ZM41.5031 45.0991C40.9533 45.559 40.7553 46.3187 41.0084 46.9898L41.5698 46.7781C41.4064 46.3447 41.5348 45.8548 41.8881 45.5592L41.5031 45.0991ZM41.0084 46.9897C41.8142 49.1283 41.1338 51.4847 39.3931 52.8723L39.7671 53.3414C41.7089 51.7935 42.4685 49.1631 41.5698 46.7781L41.0084 46.9897ZM39.8399 52.9568L37.7036 49.2567L37.184 49.5568L39.3203 53.2569L39.8399 52.9568ZM37.7036 49.2569C37.2909 48.5412 36.4296 48.2325 35.658 48.5253L35.8708 49.0862C36.3661 48.8983 36.9176 49.0949 37.1839 49.5566L37.7036 49.2569ZM35.6579 48.5253C34.3953 49.0047 33.0785 49.3587 31.7441 49.5776L31.8412 50.1696C33.2152 49.9443 34.5708 49.5798 35.8709 49.0862L35.6579 48.5253ZM31.744 49.5776C31.0416 49.693 30.4897 50.246 30.3654 50.9499L30.9562 51.0542C31.037 50.5969 31.3946 50.243 31.8413 50.1696L31.744 49.5776ZM30.3654 50.9498C29.9729 53.1707 28.211 54.8471 26.0363 55.1769L26.1263 55.7701C28.5521 55.4022 30.5184 53.532 30.9562 51.0542L30.3654 50.9498ZM26.3813 55.4735V51.2159H25.7813V55.4735H26.3813ZM26.3813 51.2159C26.3813 50.395 25.7938 49.6981 24.9845 49.5614L24.8846 50.1531C25.4044 50.2408 25.7813 50.687 25.7813 51.2159H26.3813ZM24.9846 49.5614C23.6555 49.3366 22.3437 48.9771 21.086 48.4933L20.8706 49.0533C22.1656 49.5514 23.516 49.9215 24.8845 50.153L24.9846 49.5614ZM21.0861 48.4933C20.4136 48.2342 19.6512 48.4338 19.189 48.9876L19.6496 49.3721C19.9481 49.0144 20.4389 48.8869 20.8704 49.0532L21.0861 48.4933ZM19.189 48.9876C17.7389 50.7244 15.3711 51.2995 13.3169 50.4949L13.0981 51.0536C15.3894 51.9511 18.0319 51.3097 19.6496 49.3721L19.189 48.9876ZM13.4673 50.9243L15.6343 47.1707L15.1147 46.8707L12.9477 50.6243L13.4673 50.9243ZM15.6343 47.1707C16.0412 46.4663 15.8872 45.5741 15.2659 45.0504L14.8792 45.5091C15.277 45.8445 15.377 46.4166 15.1148 46.8706L15.6343 47.1707ZM15.2659 45.0504C14.2485 44.1928 13.3108 43.2319 12.4787 42.1943L12.0106 42.5696C12.8671 43.6376 13.8321 44.6265 14.8792 45.5091L15.2659 45.0504ZM12.4787 42.1942C12.0195 41.6218 11.2489 41.4162 10.5635 41.68L10.779 42.24C11.2223 42.0693 11.716 42.2023 12.0107 42.5697L12.4787 42.1942ZM10.5632 41.6801C8.4114 42.5106 6.03907 41.836 4.64234 40.081L4.17287 40.4546C5.73134 42.4129 8.38051 43.1657 10.7793 42.2399L10.5632 41.6801ZM4.5576 40.5276L8.43202 38.2907L8.13202 37.7711L4.2576 40.008L4.5576 40.5276ZM8.43199 38.2907C9.13316 37.886 9.44671 37.0396 9.17551 36.2778L8.61026 36.4791C8.78384 36.9667 8.58367 37.5104 8.13204 37.7711L8.43199 38.2907ZM9.17551 36.2779C8.74059 35.0561 8.42212 33.786 8.22872 32.5033L7.63543 32.5928C7.83456 33.9134 8.16241 35.2209 8.61026 36.4791L9.17551 36.2779ZM8.22871 32.5032C8.1174 31.7666 7.52685 31.1846 6.78893 31.0871L6.71034 31.6819C7.18208 31.7442 7.56387 32.1192 7.63544 32.5929L8.22871 32.5032ZM6.78889 31.0871C4.48337 30.7828 2.68433 28.9691 2.3388 26.7233L1.74578 26.8145C2.1311 29.3189 4.13556 31.3421 6.71038 31.6819L6.78889 31.0871ZM2.04229 27.0689H6.69157V26.4689H2.04229V27.0689ZM6.69157 27.0689C7.5002 27.0689 8.19485 26.4937 8.34157 25.6993L7.75155 25.5903C7.65767 26.0986 7.21247 26.4689 6.69157 26.4689V27.0689ZM8.34156 25.6993C8.5711 24.458 8.91867 23.2319 9.37457 22.056L8.81514 21.8391C8.34569 23.05 7.98789 24.3121 7.75156 25.5902L8.34156 25.6993ZM9.37452 22.0561C9.65035 21.3456 9.41511 20.5367 8.80006 20.089L8.44696 20.5741C8.84047 20.8605 8.99315 21.3806 8.8152 21.839L9.37452 22.0561ZM8.80006 20.089C6.864 18.6798 6.16964 16.1743 7.02016 14.0048L6.46155 13.7858C5.51273 16.206 6.28731 19.0021 8.44697 20.5741L8.80006 20.089ZM6.59086 14.1551L10.7578 16.5608L11.0578 16.0412L6.89085 13.6355L6.59086 14.1551ZM10.7578 16.5608C11.4583 16.9653 12.3478 16.8139 12.8723 16.1984L12.4156 15.8093C12.0797 16.2035 11.5088 16.3016 11.0578 16.0412L10.7578 16.5608ZM12.8722 16.1985C13.6769 15.2545 14.5717 14.3794 15.5315 13.5976L15.1526 13.1324C14.1646 13.9372 13.2438 14.8377 12.4156 15.8092L12.8722 16.1985ZM15.5315 13.5976C16.1262 13.1134 16.3079 12.2868 15.9806 11.5902L15.4376 11.8454C15.6498 12.297 15.5298 12.8252 15.1526 13.1324L15.5315 13.5976ZM15.9806 11.5902C14.9575 9.4128 15.6047 6.8063 17.4367 5.33117L17.0604 4.86384C15.0177 6.50857 14.2941 9.41183 15.4376 11.8454L15.9806 11.5902ZM16.9887 5.24751L19.441 9.49481L19.9606 9.19481L17.5083 4.9475L16.9887 5.24751ZM19.4409 9.49476C19.8478 10.1998 20.6982 10.5118 21.4633 10.2348L21.259 9.67063C20.7683 9.84828 20.2226 9.64894 19.9606 9.19486L19.4409 9.49476ZM21.4633 10.2348C22.6115 9.81902 23.8053 9.50562 25.0114 9.30324L24.9121 8.71151C23.6704 8.91989 22.4414 9.2425 21.259 9.67063L21.4633 10.2348ZM25.0114 9.30324C25.7717 9.1757 26.3396 8.54346 26.397 7.77211L25.7986 7.72761C25.7614 8.22827 25.3951 8.63049 24.9122 8.71151L25.0114 9.30324ZM26.397 7.77211C26.3999 7.73268 26.426 7.64047 26.5036 7.48432C26.5771 7.3367 26.6826 7.15896 26.8141 6.95789C27.0766 6.55616 27.4282 6.08277 27.7951 5.60633C28.163 5.12863 28.5367 4.66009 28.8512 4.25659C29.1565 3.865 29.4173 3.52097 29.5296 3.32091L29.0065 3.02713C28.9215 3.17844 28.6948 3.48135 28.378 3.8877C28.0705 4.28215 27.6876 4.76255 27.3197 5.24024C26.9509 5.71919 26.5876 6.20764 26.3118 6.62962C26.174 6.8404 26.0545 7.03999 25.9664 7.2171C25.8826 7.38567 25.8107 7.56558 25.7986 7.72761L26.397 7.77211ZM29.5296 3.32086C29.8358 2.77537 29.6421 2.08458 29.0964 1.77818L28.8026 2.30137C29.0593 2.44546 29.1505 2.77047 29.0064 3.02718L29.5296 3.32086ZM29.0962 1.77811C29.0833 1.77084 29.1197 1.78724 29.1413 1.84498C29.1644 1.90668 29.1491 1.9575 29.1416 1.975C29.1365 1.98703 29.1422 1.9735 29.1929 1.92928C29.2002 1.92289 29.2141 1.91089 29.2242 1.90167C29.2297 1.89666 29.2383 1.88876 29.2473 1.87942C29.2532 1.87328 29.2738 1.85196 29.2926 1.82118C29.3017 1.80632 29.3212 1.77196 29.3312 1.72361C29.3421 1.67121 29.3451 1.5806 29.2856 1.49282C29.2294 1.40986 29.1513 1.38028 29.1114 1.36988C29.0708 1.35931 29.0371 1.3596 29.0212 1.36022C28.9697 1.36223 28.9232 1.37813 28.9158 1.38047C28.8514 1.40086 28.7071 1.458 28.4593 1.55309L28.6742 2.11328C28.8066 2.06248 28.8983 2.02691 28.9709 1.99908C29.0446 1.97087 29.0807 1.9576 29.097 1.95244C29.1003 1.95141 29.0986 1.95204 29.0938 1.95321C29.0925 1.95352 29.0727 1.95867 29.0447 1.95976C29.0311 1.96029 28.9994 1.96072 28.9602 1.95052C28.9217 1.94049 28.8446 1.91152 28.7889 1.82939C28.73 1.74243 28.7331 1.65287 28.7438 1.60173C28.7535 1.55465 28.7724 1.52177 28.7804 1.5086C28.7972 1.4812 28.8143 1.46409 28.8154 1.46293C28.8196 1.45858 28.822 1.45645 28.8204 1.45792C28.8163 1.46167 28.8117 1.46553 28.7981 1.47742C28.7759 1.49685 28.7392 1.52925 28.7032 1.56867C28.6689 1.60631 28.6221 1.6642 28.5902 1.73863C28.5565 1.81703 28.533 1.93122 28.5793 2.05512C28.6241 2.17505 28.7154 2.25248 28.8028 2.30144L29.0962 1.77811ZM28.3051 1.68632C28.2016 1.8708 27.9118 2.24152 27.5052 2.73627C27.1187 3.2065 26.6063 3.81348 26.1383 4.3844C25.66 4.96785 25.1884 5.56112 24.8289 6.07177C24.6494 6.32687 24.494 6.56668 24.3791 6.77789C24.2691 6.97993 24.1773 7.18878 24.1579 7.37274L24.7547 7.43544C24.7608 7.37703 24.8016 7.25664 24.906 7.06473C25.0055 6.882 25.1464 6.66318 25.3196 6.41713C25.6656 5.92548 26.1256 5.34637 26.6023 4.76479C27.0894 4.17067 27.5556 3.61995 27.9687 3.11724C28.3618 2.63906 28.6927 2.22159 28.8283 1.98006L28.3051 1.68632ZM24.4036 7.10876C23.2234 7.31947 22.0555 7.62583 20.9249 8.02112L21.1229 8.58749C22.2233 8.20276 23.3603 7.90451 24.509 7.69942L24.4036 7.10876ZM21.2837 8.1543L18.5026 3.33751L17.983 3.63752L20.7641 8.45431L21.2837 8.1543ZM18.5026 3.33756C18.1898 2.79545 17.4966 2.61017 16.9549 2.92274L17.2548 3.44243C17.5098 3.29528 17.8359 3.38267 17.983 3.63748L18.5026 3.33756ZM16.9548 2.92277C15.3248 3.86388 14.1191 5.37204 13.5608 7.16863L14.1338 7.34668C14.6473 5.69432 15.7554 4.30808 17.2548 3.44239L16.9548 2.92277ZM13.5608 7.16863C13.0293 8.87905 13.1272 10.7069 13.8338 12.3412L14.3845 12.1031C13.735 10.6007 13.6447 8.92056 14.1338 7.34668L13.5608 7.16863ZM13.9172 11.9916C12.9836 12.7685 12.1075 13.6249 11.3083 14.5421L11.7607 14.9363C12.5388 14.0432 13.392 13.2092 14.301 12.4528L13.9172 11.9916ZM11.6845 14.4794L6.94838 11.7449L6.64837 12.2645L11.3845 14.999L11.6845 14.4794ZM6.95354 11.748C6.42449 11.4283 5.69601 11.6239 5.3977 12.1648L5.92309 12.4546C6.05705 12.2117 6.40607 12.1182 6.64322 12.2615L6.95354 11.748ZM5.40059 12.1597C3.526 15.4066 4.34001 19.5012 7.28139 21.7821L7.64906 21.3079C4.94456 19.2108 4.19568 15.4467 5.92021 12.4597L5.40059 12.1597ZM7.18449 21.4392C6.74413 22.6081 6.40006 23.8189 6.15943 25.0452L6.7482 25.1607C6.98243 23.9671 7.31738 22.7884 7.74596 21.6508L7.18449 21.4392ZM6.45381 24.803H1.14603V25.403H6.45381V24.803ZM1.14603 24.803C0.520189 24.803 0.0129883 25.3102 0.0129883 25.936H0.612988C0.612988 25.6415 0.851561 25.403 1.14603 25.403V24.803ZM0.0129883 25.936C0.0129883 29.5909 2.68604 32.717 6.26913 33.3008L6.36561 32.7086C3.07231 32.1721 0.612988 29.2962 0.612988 25.936H0.0129883ZM6.02116 33.0522C6.22553 34.3252 6.54068 35.5854 6.95954 36.8048L7.527 36.6099C7.1193 35.4229 6.8125 34.1962 6.61357 32.9571L6.02116 33.0522ZM7.09327 36.4475L2.65003 39.0128L2.95003 39.5324L7.39327 36.9671L7.09327 36.4475ZM2.65523 39.0099C2.11401 39.3082 1.91885 40.0368 2.2383 40.5657L2.75188 40.2555C2.60854 40.0182 2.70208 39.6692 2.94483 39.5354L2.65523 39.0099ZM2.23528 40.5606C3.13029 42.1108 4.55321 43.2884 6.24214 43.8762L6.43936 43.3095C4.88658 42.7691 3.57801 41.6863 2.7549 40.2606L2.23528 40.5606ZM6.24216 43.8762C7.84382 44.4334 9.58721 44.4301 11.1763 43.8695L10.9767 43.3036C9.51645 43.8188 7.91298 43.8222 6.43933 43.3095L6.24216 43.8762ZM10.8442 43.7764C11.6822 44.8016 12.6131 45.7572 13.6167 46.6221L14.0084 46.1677C13.0312 45.3255 12.1247 44.3948 11.3088 43.3967L10.8442 43.7764ZM13.5527 46.2449L11.0574 50.5671L11.5771 50.8671L14.0723 46.5449L13.5527 46.2449ZM11.0605 50.562C10.741 51.0909 10.9362 51.8194 11.4773 52.1178L11.767 51.5923C11.5242 51.4584 11.4307 51.1095 11.574 50.8722L11.0605 50.562ZM11.4722 52.1149C14.5617 53.8985 18.4477 53.2555 20.7931 50.5985L20.3433 50.2014C18.1868 52.6445 14.6144 53.2361 11.7722 51.5952L11.4722 52.1149ZM20.463 50.6809C21.7256 51.1535 23.0351 51.5137 24.3622 51.7533L24.4688 51.1629C23.1771 50.9296 21.9023 50.579 20.6733 50.119L20.463 50.6809ZM24.1155 51.4581V56.3695H24.7155V51.4581H24.1155ZM24.1155 56.3695C24.1155 56.9954 24.6227 57.5026 25.2485 57.5026V56.9026C24.954 56.9026 24.7155 56.664 24.7155 56.3695H24.1155ZM25.2485 57.5026C28.8076 57.5026 31.8504 55.0092 32.5591 51.544L31.9713 51.4238C31.3197 54.6098 28.5225 56.9026 25.2485 56.9026V57.5026ZM32.3165 51.7795C33.6467 51.5486 34.9596 51.197 36.2261 50.7324L36.0195 50.1691C34.7868 50.6213 33.5087 50.9636 32.2139 51.1883L32.3165 51.7795ZM35.863 50.6008L38.3253 54.8656L38.845 54.5656L36.3826 50.3008L35.863 50.6008ZM38.3224 54.8605C38.6207 55.4013 39.3491 55.5972 39.8783 55.2773L39.5679 54.7638C39.3307 54.9072 38.9818 54.8137 38.8478 54.5707L38.3224 54.8605ZM39.8731 55.2804C42.9926 53.4793 44.3703 49.7634 43.1986 46.3827L42.6316 46.5792C43.7091 49.6879 42.4435 53.1035 39.5731 54.7608L39.8731 55.2804ZM43.1096 46.7094C44.1199 45.849 45.0583 44.8969 45.9038 43.8742L45.4414 43.4919C44.6182 44.4876 43.7043 45.4148 42.7206 46.2526L43.1096 46.7094ZM45.5226 43.9429L49.8796 46.4583L50.1796 45.9387L45.8226 43.4232L45.5226 43.9429ZM49.8797 46.4584C50.4215 46.7709 51.1144 46.5856 51.4274 46.0436L50.9078 45.7436C50.7606 45.9985 50.4346 46.0858 50.1795 45.9387L49.8797 46.4584ZM51.4274 46.0436C53.2371 42.909 52.5073 38.8801 49.7416 36.5787L49.3578 37.0399C51.8994 39.1548 52.5711 42.8624 50.9077 45.7436L51.4274 46.0436ZM49.8329 36.9081C50.2589 35.6871 50.5806 34.4249 50.7912 33.1491L50.1992 33.0513C49.9942 34.2932 49.681 35.522 49.2664 36.7105L49.8329 36.9081ZM50.4952 33.4002H55.6821V32.8002H50.4952V33.4002ZM55.6821 33.4002C56.308 33.4002 56.8152 32.893 56.8152 32.2672H56.2152C56.2152 32.5616 55.9766 32.8002 55.6821 32.8002V33.4002ZM56.8152 32.2671C56.8148 28.5492 54.0856 25.4102 50.4315 24.8804L50.3454 25.4742C53.7046 25.9612 56.2149 28.8475 56.2152 32.2672L56.8152 32.2671Z" fill="#115AD4" mask="url(#path-3-outside-1)"/>
</svg>
