<svg width="52" height="52" viewBox="0 0 52 52" fill="none" xmlns="http://www.w3.org/2000/svg">
<path d="M7.13193 24.2593H6.23345C5.76814 24.2593 5.39111 24.6364 5.39111 25.1016C5.39111 25.5668 5.76814 25.9439 6.23345 25.9439H7.13193C7.59724 25.9439 7.97427 25.5668 7.97427 25.1016C7.97427 24.6364 7.59724 24.2593 7.13193 24.2593Z" fill="#115AD4"/>
<path d="M10.7257 24.2593H9.8272C9.36189 24.2593 8.98486 24.6364 8.98486 25.1016C8.98486 25.5668 9.36189 25.9439 9.8272 25.9439H10.7257C11.191 25.9439 11.568 25.5668 11.568 25.1016C11.568 24.6364 11.191 24.2593 10.7257 24.2593Z" fill="#115AD4"/>
<path d="M14.3194 24.2593H13.4209C12.9556 24.2593 12.5786 24.6364 12.5786 25.1016C12.5786 25.5668 12.9556 25.9439 13.4209 25.9439H14.3194C14.7847 25.9439 15.1618 25.5668 15.1618 25.1016C15.1618 24.6364 14.7847 24.2593 14.3194 24.2593Z" fill="#115AD4"/>
<path d="M49.3607 5.27862C50.816 5.27862 52 4.09464 52 2.63931C52 1.18398 50.816 0 49.3607 0H45.7667C45.76 0 45.7534 0.000786177 45.7466 0.0010108C45.7284 0.00146004 45.7102 0.00213391 45.6919 0.00370626C45.6815 0.00460475 45.6712 0.00617711 45.6608 0.00752484C45.6442 0.00965875 45.6276 0.0117927 45.611 0.0149374C45.5986 0.0172959 45.5865 0.0203283 45.5742 0.0232484C45.56 0.0266177 45.5456 0.0298747 45.5313 0.0340302C45.5168 0.0382981 45.5027 0.0433521 45.4885 0.0482937C45.4789 0.0516631 45.4692 0.0542462 45.4597 0.0579525L15.402 11.8258C14.8034 12.0386 14.3003 12.4749 14.0044 13.0668L10.2051 20.6652H2.63931C2.174 20.6652 1.79698 21.0424 1.79698 21.5076V27.8531H0.842333C0.377028 27.8531 0 28.2303 0 28.6955V32.2894C0 32.7546 0.377028 33.1317 0.842333 33.1317H6.28942V35.041H4.43629C2.98096 35.041 1.79698 36.225 1.79698 37.6803V50.3153H0.842333C0.377028 50.3153 0 50.6925 0 51.1577C0 51.6229 0.377028 52 0.842333 52H6.23326C6.69857 52 7.07559 51.6229 7.07559 51.1577V40.3197H17.9698V51.1577C17.9698 51.6229 18.3468 52 18.8121 52H24.203C24.6683 52 25.0454 51.6229 25.0454 51.1577C25.0454 50.6925 24.6683 50.3153 24.203 50.3153H23.2484V37.6803C23.2484 36.225 22.0644 35.041 20.6091 35.041H18.7559V33.1317H24.203C24.6683 33.1317 25.0454 32.7546 25.0454 32.2894V28.6955C25.0454 28.2303 24.6683 27.8531 24.203 27.8531H21.4818L27.2753 24.9564C27.3563 24.916 27.4302 24.8627 27.4942 24.7986L45.8229 6.46979V23.9075L42.4136 28.1693C42.2942 28.3187 42.2289 28.5042 42.2289 28.6955V35.8834C42.2289 36.3486 42.606 36.7257 43.0713 36.7257H50.2592C50.7245 36.7257 51.1015 36.3486 51.1015 35.8834V28.6955C51.1015 28.5042 51.0364 28.3187 50.9169 28.1693L47.5076 23.9075V5.27862H49.3607ZM18.7559 21.5076V14.1886C18.7559 13.5666 18.5278 12.9972 18.1516 12.5584L42.3223 3.0954L18.7559 26.6618V21.5076ZM15.511 13.8203C15.6514 13.5395 15.9338 13.365 16.2477 13.365C16.7018 13.365 17.0713 13.7345 17.0713 14.1886V20.6652H12.0886L15.511 13.8203ZM3.48164 22.3499H17.0713V27.8531H3.48164V22.3499ZM7.97408 33.1317H9.88337V35.041H7.97408V33.1317ZM13.4773 33.1317V35.041H11.568V33.1317H13.4773ZM5.39093 50.3153H3.48164V40.3197H5.39093V50.3153ZM19.6544 50.3153V40.3197H21.5637V50.3153H19.6544ZM21.5637 37.6803V38.635H3.48164V37.6803C3.48164 37.1539 3.90988 36.7257 4.43629 36.7257H20.6091C21.1355 36.7257 21.5637 37.1539 21.5637 37.6803ZM17.0713 35.041H15.162V33.1317H17.0713V35.041ZM23.3607 31.4471H1.68467V29.5378H23.3607V31.4471ZM26.3996 23.5107L22.1796 25.6207L46.1156 1.68467H49.3607C49.8871 1.68467 50.3153 2.11291 50.3153 2.63931C50.3153 3.16571 49.8871 3.59395 49.3607 3.59395H46.6652C46.4418 3.59395 46.2277 3.68268 46.0695 3.8407L26.3996 23.5107ZM46.6652 25.5514L48.5066 27.8531H44.8238L46.6652 25.5514ZM43.9136 35.041V29.5378H49.4168V35.041H43.9136Z" fill="#115AD4"/>
</svg>
