<svg width="33" height="33" viewBox="0 0 33 33" fill="none" xmlns="http://www.w3.org/2000/svg">
<path d="M4.52565 15.395H3.95546C3.66017 15.395 3.4209 15.6344 3.4209 15.9296C3.4209 16.2248 3.66017 16.4641 3.95546 16.4641H4.52565C4.82094 16.4641 5.06021 16.2248 5.06021 15.9296C5.06021 15.6344 4.82094 15.395 4.52565 15.395Z" fill="#D7D7D7"/>
<path d="M6.8069 15.395H6.23671C5.94142 15.395 5.70215 15.6344 5.70215 15.9296C5.70215 16.2248 5.94142 16.4641 6.23671 16.4641H6.8069C7.10219 16.4641 7.34146 16.2248 7.34146 15.9296C7.34146 15.6344 7.10219 15.395 6.8069 15.395Z" fill="#D7D7D7"/>
<path d="M9.08766 15.395H8.51747C8.22218 15.395 7.98291 15.6344 7.98291 15.9296C7.98291 16.2248 8.22218 16.4641 8.51747 16.4641H9.08766C9.38295 16.4641 9.62222 16.2248 9.62222 15.9296C9.62222 15.6344 9.38295 15.395 9.08766 15.395Z" fill="#D7D7D7"/>
<path d="M31.3251 3.34989C32.2486 3.34989 33 2.59852 33 1.67495C33 0.751374 32.2486 0 31.3251 0H29.0443C29.04 0 29.0358 0.00049892 29.0315 0.000641469C29.02 0.000926566 29.0084 0.00135421 28.9968 0.00235205C28.9902 0.00292225 28.9836 0.00392009 28.9771 0.00477538C28.9665 0.00612959 28.956 0.0074838 28.9454 0.00947948C28.9376 0.0109762 28.9299 0.0129006 28.9221 0.0147538C28.9131 0.016892 28.9039 0.018959 28.8949 0.0215961C28.8857 0.0243045 28.8767 0.0275119 28.8677 0.0306479C28.8616 0.0327862 28.8555 0.0344255 28.8494 0.0367775L9.77434 7.50483C9.39445 7.63989 9.07521 7.91679 8.88741 8.29241L6.47634 13.1145H1.67495C1.37966 13.1145 1.14039 13.3538 1.14039 13.649V17.676H0.534557C0.239268 17.676 0 17.9154 0 18.2106V20.4914C0 20.7866 0.239268 21.0259 0.534557 21.0259H3.99136V22.2376H2.81533C1.89176 22.2376 1.14039 22.989 1.14039 23.9125V31.9309H0.534557C0.239268 31.9309 0 32.1702 0 32.4654C0 32.7607 0.239268 33 0.534557 33H3.95572C4.25101 33 4.49028 32.7607 4.49028 32.4654V25.5875H11.4039V32.4654C11.4039 32.7607 11.6432 33 11.9384 33H15.3596C15.6549 33 15.8942 32.7607 15.8942 32.4654C15.8942 32.1702 15.6549 31.9309 15.3596 31.9309H14.7538V23.9125C14.7538 22.989 14.0024 22.2376 13.0788 22.2376H11.9028V21.0259H15.3596C15.6549 21.0259 15.8942 20.7866 15.8942 20.4914V18.2106C15.8942 17.9154 15.6549 17.676 15.3596 17.676H13.6327L17.3093 15.8377C17.3607 15.8121 17.4076 15.7783 17.4482 15.7376L29.0799 4.10583V15.1721L26.9163 17.8767C26.8405 17.9715 26.7991 18.0892 26.7991 18.2106V22.7721C26.7991 23.0674 27.0384 23.3067 27.3337 23.3067H31.8952C32.1905 23.3067 32.4298 23.0674 32.4298 22.7721V18.2106C32.4298 18.0892 32.3885 17.9715 32.3126 17.8767L30.149 15.1721V3.34989H31.3251ZM11.9028 13.649V9.0043C11.9028 8.60958 11.758 8.24822 11.5193 7.96975L26.8584 1.96439L11.9028 16.92V13.649ZM9.84355 8.77059C9.93264 8.5924 10.1118 8.48164 10.311 8.48164C10.5992 8.48164 10.8337 8.71613 10.8337 9.0043V13.1145H7.67161L9.84355 8.77059ZM2.2095 14.1836H10.8337V17.676H2.2095V14.1836ZM5.06047 21.0259H6.27214V22.2376H5.06047V21.0259ZM8.55292 21.0259V22.2376H7.34125V21.0259H8.55292ZM3.42117 31.9309H2.2095V25.5875H3.42117V31.9309ZM12.473 31.9309V25.5875H13.6847V31.9309H12.473ZM13.6847 23.9125V24.5184H2.2095V23.9125C2.2095 23.5785 2.48127 23.3067 2.81533 23.3067H13.0788C13.4129 23.3067 13.6847 23.5785 13.6847 23.9125ZM10.8337 22.2376H9.62203V21.0259H10.8337V22.2376ZM14.8251 19.9568H1.06911V18.7451H14.8251V19.9568ZM16.7536 14.9203L14.0755 16.2593L29.2657 1.06911H31.3251C31.6591 1.06911 31.9309 1.34088 31.9309 1.67495C31.9309 2.00901 31.6591 2.28078 31.3251 2.28078H29.6145C29.4727 2.28078 29.3368 2.33708 29.2364 2.43737L16.7536 14.9203ZM29.6145 16.2153L30.783 17.676H28.4459L29.6145 16.2153ZM27.8682 22.2376V18.7451H31.3607V22.2376H27.8682Z" fill="#D7D7D7"/>
</svg>
