<svg width="31" height="33" viewBox="0 0 31 33" fill="none" xmlns="http://www.w3.org/2000/svg">
<path d="M26.7762 12.5483V11.2796C26.7762 8.24307 25.7029 5.42143 23.7572 3.32773C21.763 1.17857 19.021 0 16.0297 0H14.9841C11.9928 0 9.25083 1.17857 7.25664 3.32773C5.31092 5.42143 4.23766 8.24307 4.23766 11.2796V12.5483C1.87648 12.7078 0 14.6767 0 17.0824V19.0651C0 21.5679 2.03574 23.6061 4.5354 23.6061H7.09046C7.54746 23.6061 7.92137 23.2317 7.92137 22.7742V13.3664C7.92137 12.9088 7.54746 12.5345 7.09046 12.5345H5.89948V11.2796C5.89948 5.7958 9.80477 1.66387 14.9772 1.66387H16.0228C21.2021 1.66387 25.1005 5.7958 25.1005 11.2796V12.5345H23.9095C23.4525 12.5345 23.0786 12.9088 23.0786 13.3664V22.7672C23.0786 23.2248 23.4525 23.5992 23.9095 23.5992H25.0728C24.7335 27.9391 21.7491 28.9443 20.3643 29.1731C19.9835 28.0015 18.8825 27.1557 17.5877 27.1557H15.5104C13.9039 27.1557 12.5953 28.466 12.5953 30.0744C12.5953 31.6828 13.9039 33 15.5104 33H17.5946C18.9379 33 20.0666 32.0849 20.4058 30.8508C21.0844 30.7538 22.1577 30.5111 23.224 29.8872C24.7266 29.0067 26.5061 27.2111 26.7416 23.5922C29.1166 23.4466 31 21.4708 31 19.0582V17.0754C31.0069 14.6767 29.1374 12.7008 26.7762 12.5483ZM6.27339 21.9353H4.54925C2.96359 21.9353 1.67567 20.6458 1.67567 19.0582V17.0754C1.67567 15.4878 2.96359 14.1983 4.54925 14.1983H6.27339V21.9353ZM17.5946 31.3361H15.5104C14.8179 31.3361 14.2571 30.7746 14.2571 30.0813C14.2571 29.388 14.8179 28.8265 15.5104 28.8265H17.5946C18.287 28.8265 18.8479 29.388 18.8479 30.0813C18.8479 30.7746 18.287 31.3361 17.5946 31.3361ZM29.3451 19.0582C29.3451 20.6458 28.0572 21.9353 26.4715 21.9353H24.7474V14.1983H26.4715C28.0572 14.1983 29.3451 15.4878 29.3451 17.0754V19.0582Z" fill="#FFDF7D"/>
</svg>
