<svg width="36" height="39" viewBox="0 0 36 39" fill="none" xmlns="http://www.w3.org/2000/svg">
<path d="M31.0949 14.8298V13.3305C31.0949 9.74181 29.8485 6.40714 27.589 3.93277C25.2732 1.39286 22.0889 0 18.6151 0H17.4009C13.9272 0 10.7429 1.39286 8.42707 3.93277C6.16752 6.40714 4.92115 9.74181 4.92115 13.3305V14.8298C2.17914 15.0183 0 17.3452 0 20.1882V22.5315C0 25.4893 2.36408 27.8981 5.26692 27.8981H8.23408C8.76479 27.8981 9.19901 27.4557 9.19901 26.9149V15.7966C9.19901 15.2559 8.76479 14.8134 8.23408 14.8134H6.85101V13.3305C6.85101 6.84958 11.3862 1.96639 17.3929 1.96639H18.6071C24.6218 1.96639 29.149 6.84958 29.149 13.3305V14.8134H27.7659C27.2352 14.8134 26.801 15.2559 26.801 15.7966V26.9067C26.801 27.4475 27.2352 27.8899 27.7659 27.8899H29.1168C28.7228 33.0189 25.2571 34.2069 23.6489 34.4773C23.2066 33.0926 21.9281 32.0931 20.4244 32.0931H18.012C16.1465 32.0931 14.6267 33.6416 14.6267 35.5424C14.6267 37.4433 16.1465 39 18.012 39H20.4324C21.9924 39 23.3031 37.9185 23.6971 36.4601C24.4851 36.3454 25.7315 36.0586 26.9698 35.3212C28.7147 34.2807 30.7813 32.1586 31.0547 27.8817C33.8128 27.7097 36 25.3746 36 22.5233V20.18C36.008 17.3452 33.8369 15.0101 31.0949 14.8298ZM7.28523 25.9235H5.283C3.44159 25.9235 1.94594 24.3996 1.94594 22.5233V20.18C1.94594 18.3038 3.44159 16.7798 5.283 16.7798H7.28523V25.9235ZM20.4324 37.0336H18.012C17.2079 37.0336 16.5566 36.37 16.5566 35.5506C16.5566 34.7313 17.2079 34.0676 18.012 34.0676H20.4324C21.2365 34.0676 21.8879 34.7313 21.8879 35.5506C21.8879 36.37 21.2365 37.0336 20.4324 37.0336ZM34.0782 22.5233C34.0782 24.3996 32.5825 25.9235 30.7411 25.9235H28.7389V16.7798H30.7411C32.5825 16.7798 34.0782 18.3038 34.0782 20.18V22.5233Z" fill="white"/>
</svg>
