<svg width="52" height="45" viewBox="0 0 52 45" fill="none" xmlns="http://www.w3.org/2000/svg">
<path d="M36.3462 8.65381C34.9148 8.65381 33.75 9.81862 33.75 11.25V33.75C33.75 35.1813 34.9148 36.3461 36.3462 36.3461C37.7775 36.3461 38.9423 35.1813 38.9423 33.75V11.25C38.9423 9.81862 37.7775 8.65381 36.3462 8.65381ZM37.2115 33.75C37.2115 34.2277 36.8238 34.6153 36.3462 34.6153C35.8685 34.6153 35.4808 34.2277 35.4808 33.75V11.25C35.4808 10.7723 35.8685 10.3846 36.3462 10.3846C36.8238 10.3846 37.2115 10.7723 37.2115 11.25V33.75Z" fill="#115AD4"/>
<path d="M27.6923 8.65381C26.261 8.65381 25.0962 9.81862 25.0962 11.25V33.75C25.0962 35.1813 26.261 36.3461 27.6923 36.3461C29.1237 36.3461 30.2885 35.1813 30.2885 33.75V11.25C30.2885 9.81862 29.1237 8.65381 27.6923 8.65381ZM28.5577 33.75C28.5577 34.2277 28.17 34.6153 27.6923 34.6153C27.2147 34.6153 26.827 34.2277 26.827 33.75V11.25C26.827 10.7723 27.2147 10.3846 27.6923 10.3846C28.17 10.3846 28.5577 10.7723 28.5577 11.25V33.75Z" fill="#115AD4"/>
<path d="M10.3847 8.65381C8.95338 8.65381 7.78857 9.81862 7.78857 11.25V33.75C7.78857 35.1813 8.95338 36.3461 10.3847 36.3461C11.8161 36.3461 12.9809 35.1813 12.9809 33.75V11.25C12.9809 9.81862 11.8161 8.65381 10.3847 8.65381ZM11.2501 33.75C11.2501 34.2277 10.8624 34.6153 10.3847 34.6153C9.90704 34.6153 9.51934 34.2277 9.51934 33.75V11.25C9.51934 10.7723 9.90704 10.3846 10.3847 10.3846C10.8624 10.3846 11.2501 10.7723 11.2501 11.25V33.75Z" fill="#115AD4"/>
<path d="M19.0385 8.65381C17.6072 8.65381 16.4424 9.81862 16.4424 11.25V33.75C16.4424 35.1813 17.6072 36.3461 19.0385 36.3461C20.4699 36.3461 21.6347 35.1813 21.6347 33.75V11.25C21.6347 9.81862 20.4699 8.65381 19.0385 8.65381ZM19.9039 33.75C19.9039 34.2277 19.5162 34.6153 19.0385 34.6153C18.5608 34.6153 18.1732 34.2277 18.1732 33.75V11.25C18.1732 10.7723 18.5608 10.3846 19.0385 10.3846C19.5162 10.3846 19.9039 10.7723 19.9039 11.25V33.75Z" fill="#115AD4"/>
<path d="M49.7596 11.25C50.953 11.25 51.9231 10.2799 51.9231 9.08654V6.49038C51.9231 5.29702 50.953 4.32692 49.7596 4.32692C48.5662 4.32692 47.5962 5.29702 47.5962 6.49038V6.92308H46.7308V4.32692H44.1346V3.46154C44.1346 1.5525 42.5821 0 40.6731 0C38.764 0 37.2115 1.5525 37.2115 3.46154V4.32692C37.2115 4.80462 36.8238 5.19231 36.3462 5.19231C35.8685 5.19231 35.4808 4.80462 35.4808 4.32692V3.46154C35.4808 1.5525 33.9283 0 32.0192 0C30.1102 0 28.5577 1.5525 28.5577 3.46154V4.32692C28.5577 4.80462 28.17 5.19231 27.6923 5.19231C27.2146 5.19231 26.8269 4.80462 26.8269 4.32692V3.46154C26.8269 1.5525 25.2744 0 23.3654 0C21.4563 0 19.9038 1.5525 19.9038 3.46154V4.32692C19.9038 4.80462 19.5162 5.19231 19.0385 5.19231C18.5608 5.19231 18.1731 4.80462 18.1731 4.32692V3.46154C18.1731 1.5525 16.6206 0 14.7115 0C12.8025 0 11.25 1.5525 11.25 3.46154V4.32692C11.25 4.80462 10.8623 5.19231 10.3846 5.19231C9.90692 5.19231 9.51923 4.80462 9.51923 4.32692V3.46154C9.51923 1.5525 7.96673 0 6.05769 0C4.14865 0 2.59615 1.5525 2.59615 3.46154V5.19231H0V11.25H2.59615V33.75H0V39.8077H2.59615V41.5385C2.59615 43.4475 4.14865 45 6.05769 45C7.96673 45 9.51923 43.4475 9.51923 41.5385V40.6731C9.51923 40.1954 9.90692 39.8077 10.3846 39.8077C10.8623 39.8077 11.25 40.1954 11.25 40.6731V41.5385C11.25 43.4475 12.8025 45 14.7115 45C16.6206 45 18.1731 43.4475 18.1731 41.5385V40.6731C18.1731 40.1954 18.5608 39.8077 19.0385 39.8077C19.5162 39.8077 19.9038 40.1954 19.9038 40.6731V41.5385C19.9038 43.4475 21.4563 45 23.3654 45C25.2744 45 26.8269 43.4475 26.8269 41.5385V40.6731C26.8269 40.1954 27.2146 39.8077 27.6923 39.8077C28.17 39.8077 28.5577 40.1954 28.5577 40.6731V41.5385C28.5577 43.4475 30.1102 45 32.0192 45C33.9283 45 35.4808 43.4475 35.4808 41.5385V40.6731C35.4808 40.1954 35.8685 39.8077 36.3462 39.8077C36.8238 39.8077 37.2115 40.1954 37.2115 40.6731V41.5385C37.2115 43.4475 38.764 45 40.6731 45C42.5821 45 44.1346 43.4475 44.1346 41.5385V39.8077H46.7308V38.9423H51.9231V34.6154H46.7308V33.75H44.1346V11.25H46.7308V8.65385H47.5962V9.08654C47.5962 10.2799 48.5662 11.25 49.7596 11.25ZM1.73077 9.51923V6.92308H2.59615V9.51923H1.73077ZM1.73077 38.0769V35.4808H2.59615V38.0769H1.73077ZM50.1923 36.3462V37.2115H46.7308V36.3462H50.1923ZM45 35.4808V38.0769H44.1346V35.4808H45ZM42.4038 33.75V39.8077V41.5385C42.4038 42.493 41.6276 43.2692 40.6731 43.2692C39.7186 43.2692 38.9423 42.493 38.9423 41.5385V40.6731C38.9423 39.2417 37.7775 38.0769 36.3462 38.0769C34.9148 38.0769 33.75 39.2417 33.75 40.6731V41.5385C33.75 42.493 32.9738 43.2692 32.0192 43.2692C31.0647 43.2692 30.2885 42.493 30.2885 41.5385V40.6731C30.2885 39.2417 29.1237 38.0769 27.6923 38.0769C26.261 38.0769 25.0962 39.2417 25.0962 40.6731V41.5385C25.0962 42.493 24.3199 43.2692 23.3654 43.2692C22.4109 43.2692 21.6346 42.493 21.6346 41.5385V40.6731C21.6346 39.2417 20.4698 38.0769 19.0385 38.0769C17.6071 38.0769 16.4423 39.2417 16.4423 40.6731V41.5385C16.4423 42.493 15.6661 43.2692 14.7115 43.2692C13.757 43.2692 12.9808 42.493 12.9808 41.5385V40.6731C12.9808 39.2417 11.816 38.0769 10.3846 38.0769C8.95327 38.0769 7.78846 39.2417 7.78846 40.6731V41.5385C7.78846 42.493 7.01221 43.2692 6.05769 43.2692C5.10317 43.2692 4.32692 42.493 4.32692 41.5385V39.8077V33.75V11.25V5.19231V3.46154C4.32692 2.50702 5.10317 1.73077 6.05769 1.73077C7.01221 1.73077 7.78846 2.50702 7.78846 3.46154V4.32692C7.78846 5.75827 8.95327 6.92308 10.3846 6.92308C11.816 6.92308 12.9808 5.75827 12.9808 4.32692V3.46154C12.9808 2.50702 13.757 1.73077 14.7115 1.73077C15.6661 1.73077 16.4423 2.50702 16.4423 3.46154V4.32692C16.4423 5.75827 17.6071 6.92308 19.0385 6.92308C20.4698 6.92308 21.6346 5.75827 21.6346 4.32692V3.46154C21.6346 2.50702 22.4109 1.73077 23.3654 1.73077C24.3199 1.73077 25.0962 2.50702 25.0962 3.46154V4.32692C25.0962 5.75827 26.261 6.92308 27.6923 6.92308C29.1237 6.92308 30.2885 5.75827 30.2885 4.32692V3.46154C30.2885 2.50702 31.0647 1.73077 32.0192 1.73077C32.9738 1.73077 33.75 2.50702 33.75 3.46154V4.32692C33.75 5.75827 34.9148 6.92308 36.3462 6.92308C37.7775 6.92308 38.9423 5.75827 38.9423 4.32692V3.46154C38.9423 2.50702 39.7186 1.73077 40.6731 1.73077C41.6276 1.73077 42.4038 2.50702 42.4038 3.46154V4.32692V11.25V33.75ZM45 9.51923H44.1346V6.05769H45V9.51923ZM49.3269 6.49038C49.3269 6.2524 49.5216 6.05769 49.7596 6.05769C49.9976 6.05769 50.1923 6.2524 50.1923 6.49038V9.08654C50.1923 9.32452 49.9976 9.51923 49.7596 9.51923C49.5216 9.51923 49.3269 9.32452 49.3269 9.08654V6.49038Z" fill="#115AD4"/>
</svg>
