<svg width="36" height="31" viewBox="0 0 36 31" fill="none" xmlns="http://www.w3.org/2000/svg">
<path d="M25.0385 5.96143C24.0524 5.96143 23.25 6.76385 23.25 7.74989V23.2499C23.25 24.2359 24.0524 25.0383 25.0385 25.0383C26.0245 25.0383 26.8269 24.2359 26.8269 23.2499V7.74989C26.8269 6.76385 26.0245 5.96143 25.0385 5.96143ZM25.6346 23.2499C25.6346 23.579 25.3675 23.846 25.0385 23.846C24.7094 23.846 24.4423 23.579 24.4423 23.2499V7.74989C24.4423 7.42081 24.7094 7.15373 25.0385 7.15373C25.3675 7.15373 25.6346 7.42081 25.6346 7.74989V23.2499Z" fill="#D7D7D7"/>
<path d="M19.077 5.96143C18.091 5.96143 17.2886 6.76385 17.2886 7.74989V23.2499C17.2886 24.2359 18.091 25.0383 19.077 25.0383C20.0631 25.0383 20.8655 24.2359 20.8655 23.2499V7.74989C20.8655 6.76385 20.0631 5.96143 19.077 5.96143ZM19.6732 23.2499C19.6732 23.579 19.4061 23.846 19.077 23.846C18.748 23.846 18.4809 23.579 18.4809 23.2499V7.74989C18.4809 7.42081 18.748 7.15373 19.077 7.15373C19.4061 7.15373 19.6732 7.42081 19.6732 7.74989V23.2499Z" fill="#D7D7D7"/>
<path d="M7.1537 5.96143C6.16766 5.96143 5.36523 6.76385 5.36523 7.74989V23.2499C5.36523 24.2359 6.16766 25.0383 7.1537 25.0383C8.13973 25.0383 8.94216 24.2359 8.94216 23.2499V7.74989C8.94216 6.76385 8.13973 5.96143 7.1537 5.96143ZM7.74985 23.2499C7.74985 23.579 7.48277 23.846 7.1537 23.846C6.82462 23.846 6.55754 23.579 6.55754 23.2499V7.74989C6.55754 7.42081 6.82462 7.15373 7.1537 7.15373C7.48277 7.15373 7.74985 7.42081 7.74985 7.74989V23.2499Z" fill="#D7D7D7"/>
<path d="M13.1156 5.96143C12.1296 5.96143 11.3271 6.76385 11.3271 7.74989V23.2499C11.3271 24.2359 12.1296 25.0383 13.1156 25.0383C14.1016 25.0383 14.9041 24.2359 14.9041 23.2499V7.74989C14.9041 6.76385 14.1016 5.96143 13.1156 5.96143ZM13.7118 23.2499C13.7118 23.579 13.4447 23.846 13.1156 23.846C12.7865 23.846 12.5195 23.579 12.5195 23.2499V7.74989C12.5195 7.42081 12.7865 7.15373 13.1156 7.15373C13.4447 7.15373 13.7118 7.42081 13.7118 7.74989V23.2499Z" fill="#D7D7D7"/>
<path d="M34.2788 7.75C35.1009 7.75 35.7692 7.08171 35.7692 6.25962V4.47115C35.7692 3.64906 35.1009 2.98077 34.2788 2.98077C33.4567 2.98077 32.7885 3.64906 32.7885 4.47115V4.76923H32.1923V2.98077H30.4038V2.38462C30.4038 1.0695 29.3343 0 28.0192 0C26.7041 0 25.6346 1.0695 25.6346 2.38462V2.98077C25.6346 3.30985 25.3675 3.57692 25.0385 3.57692C24.7094 3.57692 24.4423 3.30985 24.4423 2.98077V2.38462C24.4423 1.0695 23.3728 0 22.0577 0C20.7426 0 19.6731 1.0695 19.6731 2.38462V2.98077C19.6731 3.30985 19.406 3.57692 19.0769 3.57692C18.7478 3.57692 18.4808 3.30985 18.4808 2.98077V2.38462C18.4808 1.0695 17.4113 0 16.0962 0C14.781 0 13.7115 1.0695 13.7115 2.38462V2.98077C13.7115 3.30985 13.4445 3.57692 13.1154 3.57692C12.7863 3.57692 12.5192 3.30985 12.5192 2.98077V2.38462C12.5192 1.0695 11.4497 0 10.1346 0C8.8195 0 7.75 1.0695 7.75 2.38462V2.98077C7.75 3.30985 7.48292 3.57692 7.15385 3.57692C6.82477 3.57692 6.55769 3.30985 6.55769 2.98077V2.38462C6.55769 1.0695 5.48819 0 4.17308 0C2.85796 0 1.78846 1.0695 1.78846 2.38462V3.57692H0V7.75H1.78846V23.25H0V27.4231H1.78846V28.6154C1.78846 29.9305 2.85796 31 4.17308 31C5.48819 31 6.55769 29.9305 6.55769 28.6154V28.0192C6.55769 27.6902 6.82477 27.4231 7.15385 27.4231C7.48292 27.4231 7.75 27.6902 7.75 28.0192V28.6154C7.75 29.9305 8.8195 31 10.1346 31C11.4497 31 12.5192 29.9305 12.5192 28.6154V28.0192C12.5192 27.6902 12.7863 27.4231 13.1154 27.4231C13.4445 27.4231 13.7115 27.6902 13.7115 28.0192V28.6154C13.7115 29.9305 14.781 31 16.0962 31C17.4113 31 18.4808 29.9305 18.4808 28.6154V28.0192C18.4808 27.6902 18.7478 27.4231 19.0769 27.4231C19.406 27.4231 19.6731 27.6902 19.6731 28.0192V28.6154C19.6731 29.9305 20.7426 31 22.0577 31C23.3728 31 24.4423 29.9305 24.4423 28.6154V28.0192C24.4423 27.6902 24.7094 27.4231 25.0385 27.4231C25.3675 27.4231 25.6346 27.6902 25.6346 28.0192V28.6154C25.6346 29.9305 26.7041 31 28.0192 31C29.3343 31 30.4038 29.9305 30.4038 28.6154V27.4231H32.1923V26.8269H35.7692V23.8462H32.1923V23.25H30.4038V7.75H32.1923V5.96154H32.7885V6.25962C32.7885 7.08171 33.4567 7.75 34.2788 7.75ZM1.19231 6.55769V4.76923H1.78846V6.55769H1.19231ZM1.19231 26.2308V24.4423H1.78846V26.2308H1.19231ZM34.5769 25.0385V25.6346H32.1923V25.0385H34.5769ZM31 24.4423V26.2308H30.4038V24.4423H31ZM29.2115 23.25V27.4231V28.6154C29.2115 29.2729 28.6768 29.8077 28.0192 29.8077C27.3617 29.8077 26.8269 29.2729 26.8269 28.6154V28.0192C26.8269 27.0332 26.0245 26.2308 25.0385 26.2308C24.0524 26.2308 23.25 27.0332 23.25 28.0192V28.6154C23.25 29.2729 22.7153 29.8077 22.0577 29.8077C21.4001 29.8077 20.8654 29.2729 20.8654 28.6154V28.0192C20.8654 27.0332 20.063 26.2308 19.0769 26.2308C18.0909 26.2308 17.2885 27.0332 17.2885 28.0192V28.6154C17.2885 29.2729 16.7537 29.8077 16.0962 29.8077C15.4386 29.8077 14.9038 29.2729 14.9038 28.6154V28.0192C14.9038 27.0332 14.1014 26.2308 13.1154 26.2308C12.1293 26.2308 11.3269 27.0332 11.3269 28.0192V28.6154C11.3269 29.2729 10.7922 29.8077 10.1346 29.8077C9.47706 29.8077 8.94231 29.2729 8.94231 28.6154V28.0192C8.94231 27.0332 8.13988 26.2308 7.15385 26.2308C6.16781 26.2308 5.36538 27.0332 5.36538 28.0192V28.6154C5.36538 29.2729 4.83063 29.8077 4.17308 29.8077C3.51552 29.8077 2.98077 29.2729 2.98077 28.6154V27.4231V23.25V7.75V3.57692V2.38462C2.98077 1.72706 3.51552 1.19231 4.17308 1.19231C4.83063 1.19231 5.36538 1.72706 5.36538 2.38462V2.98077C5.36538 3.96681 6.16781 4.76923 7.15385 4.76923C8.13988 4.76923 8.94231 3.96681 8.94231 2.98077V2.38462C8.94231 1.72706 9.47706 1.19231 10.1346 1.19231C10.7922 1.19231 11.3269 1.72706 11.3269 2.38462V2.98077C11.3269 3.96681 12.1293 4.76923 13.1154 4.76923C14.1014 4.76923 14.9038 3.96681 14.9038 2.98077V2.38462C14.9038 1.72706 15.4386 1.19231 16.0962 1.19231C16.7537 1.19231 17.2885 1.72706 17.2885 2.38462V2.98077C17.2885 3.96681 18.0909 4.76923 19.0769 4.76923C20.063 4.76923 20.8654 3.96681 20.8654 2.98077V2.38462C20.8654 1.72706 21.4001 1.19231 22.0577 1.19231C22.7153 1.19231 23.25 1.72706 23.25 2.38462V2.98077C23.25 3.96681 24.0524 4.76923 25.0385 4.76923C26.0245 4.76923 26.8269 3.96681 26.8269 2.98077V2.38462C26.8269 1.72706 27.3617 1.19231 28.0192 1.19231C28.6768 1.19231 29.2115 1.72706 29.2115 2.38462V2.98077V7.75V23.25ZM31 6.55769H30.4038V4.17308H31V6.55769ZM33.9808 4.47115C33.9808 4.30721 34.1149 4.17308 34.2788 4.17308C34.4428 4.17308 34.5769 4.30721 34.5769 4.47115V6.25962C34.5769 6.42356 34.4428 6.55769 34.2788 6.55769C34.1149 6.55769 33.9808 6.42356 33.9808 6.25962V4.47115Z" fill="#D7D7D7"/>
</svg>
