<svg width="109" height="112" viewBox="0 0 109 112" fill="none" xmlns="http://www.w3.org/2000/svg">
<path d="M26.6782 93.0521L27.5435 92.5508L26.6782 93.0521C27.1139 93.804 27.9177 94.2655 28.7858 94.2655H79.4884C80.3565 94.2655 81.1603 93.804 81.596 93.0521L106.947 49.2961C107.383 48.5437 107.383 47.6163 106.947 46.864L81.596 3.10795C81.1603 2.356 80.3565 1.89453 79.4884 1.89453L28.7858 1.89453C27.9178 1.89453 27.1139 2.356 26.6782 3.10795L1.32692 46.864C0.891026 47.6163 0.891026 48.5437 1.32692 49.2961L26.6782 93.0521Z" fill="white" stroke="white" stroke-width="2"/>
<path opacity="0.2" d="M28.366 53.7019L33.0168 50.0954L34.0547 46.21L28.366 53.7019Z" fill="#263238"/>
<path opacity="0.2" d="M22.7547 43.874L22.4109 47.0849L21.1006 48.94V45.9886L22.7547 43.874Z" fill="#263238"/>
<path opacity="0.2" d="M42.4355 39.8657L36.7468 40.6311L39.1533 39.0938L42.4355 39.8657Z" fill="#263238"/>
<path opacity="0.2" d="M31.2135 44.77L26.8416 47.9419L27.607 44.9841L31.2135 44.77Z" fill="#263238"/>
<path opacity="0.2" d="M42.4414 22.729L48.4285 24.2598L44.6209 25.6415L42.4414 22.729Z" fill="#263238"/>
<path opacity="0.2" d="M26.9514 31.5508L23.1763 39.3736L24.3244 33.9573L26.9514 31.5508Z" fill="#263238"/>
<path opacity="0.2" d="M44.3748 46.2813L34.0547 46.21L40.6969 48.2857L44.3748 46.2813Z" fill="#263238"/>
<path opacity="0.2" d="M23.1897 39.3921L25.9205 42.311L32.2709 42.9986L23.1897 39.3921Z" fill="#263238"/>
<path opacity="0.2" d="M45.179 41.2148L44.3747 46.2808L40.6968 48.2852L45.179 41.2148Z" fill="#263238"/>
<path opacity="0.2" d="M50.6474 36.5054L48.1695 40.6633L45.1792 41.2146L50.6474 36.5054Z" fill="#263238"/>
<path opacity="0.2" d="M50.7249 32.6786L47.4038 30.1294L48.4611 33.1197L50.6147 36.5057L50.7249 32.6786Z" fill="#263238"/>
<path opacity="0.2" d="M25.0125 28.1577L27.0946 31.4399L33.2569 34.7221L25.0125 28.1577Z" fill="#263238"/>
<path opacity="0.2" d="M28.8074 16.1255L31.5771 21.1915L41.8583 26.8802L28.8074 16.1255Z" fill="#263238"/>
<path opacity="0.2" d="M43.2459 19.9201L36.0264 14.9189L37.4858 17.6563L43.2459 19.9201Z" fill="#263238"/>
<path opacity="0.2" d="M51.3089 18.5649L37.4861 17.6567L43.2461 19.9205L51.3089 18.5649Z" fill="#263238"/>
<path opacity="0.2" d="M61.5059 22.877L51.3091 18.5635L56.4464 24.6284L61.5059 22.877Z" fill="#263238"/>
<path opacity="0.2" d="M80.842 21.5541L76.4701 17.7271L68.0051 19.5173L80.842 21.5541Z" fill="#263238"/>
<path opacity="0.2" d="M82.2627 27.645L80.8422 21.5541L76.4702 17.7271L82.2627 27.645Z" fill="#263238"/>
<path opacity="0.2" d="M86.1676 38.8079L82.2627 27.6445L86.68 31.1083L86.1676 38.8079Z" fill="#263238"/>
<path opacity="0.2" d="M88.2822 45.2236L87.5168 47.961L80.6995 45.9501L88.2822 45.2236Z" fill="#263238"/>
<path opacity="0.2" d="M67.2785 69.8022L67.3499 80.3753L57.179 72.4228L67.2785 69.8022Z" fill="#263238"/>
<path opacity="0.2" d="M77.268 65.1313L60.4744 65.4103L67.2788 69.8017L77.268 65.1313Z" fill="#263238"/>
<path opacity="0.2" d="M53.9097 72.5192L48.9345 71.3711L48.3313 75.9117L53.9097 72.5192Z" fill="#263238"/>
<path opacity="0.2" d="M30.4675 91.9399L42.4806 76.0738L48.3315 75.9116L30.4675 91.9399Z" fill="#263238"/>
<path opacity="0.2" d="M83.7676 59.4678L67.2788 69.8008L77.2681 65.1305L83.7676 59.4678Z" fill="#263238"/>
<path opacity="0.2" d="M82.2629 27.6451L68.5698 32.8603L80.8424 21.5542L82.2629 27.6451Z" fill="#263238"/>
<path opacity="0.2" d="M87.3872 34.1777L86.1678 38.8091L75.5168 40.9043L87.3872 34.1777Z" fill="#263238"/>
<path opacity="0.2" d="M67.0451 18.9658L63.1013 27.8265L50.5044 26.7367L61.5769 22.981L67.0451 18.9658Z" fill="#263238"/>
<path opacity="0.2" d="M40.5736 48.396L31.0578 56.0566L18.8047 61.3042L40.5736 48.396Z" fill="#263238"/>
<path opacity="0.2" d="M27.0103 31.6611L23.2351 39.4839L24.3832 34.0676L27.0103 31.6611Z" fill="#263238"/>
<path opacity="0.2" d="M33.1334 34.8331L24.3831 34.0676L27.0101 31.6611L33.1334 34.8331Z" fill="#263238"/>
<path opacity="0.2" d="M31.5314 20.9966L26.1995 23.5912L28.7616 21.0485L31.5314 20.9966Z" fill="#263238"/>
<path opacity="0.2" d="M87.5039 48.0645L87.7245 55.5045L77.2292 65.0333L87.5039 48.0645Z" fill="#263238"/>
<path opacity="0.2" d="M31.0578 56.0571L19.1614 75.0173L18.8047 61.0907L31.0578 56.0571Z" fill="#263238"/>
<path opacity="0.2" d="M42.3254 33.8459L44.4011 31.874L48.3385 33.0805L42.3254 33.8459Z" fill="#263238"/>
<path opacity="0.2" d="M31.9658 10.6436L36.954 12.4274L40.9821 10.9355L36.4999 9.68359L31.9658 10.6436Z" fill="#263238"/>
<path opacity="0.2" d="M50.5044 26.7382L49.9919 25.1685L47.4038 30.1307L50.5044 26.7382Z" fill="#263238"/>
<path opacity="0.2" d="M33.0174 50.0957L30.9482 56.0893L18.6951 61.1942L33.0174 50.0957Z" fill="#263238"/>
<path opacity="0.2" d="M32.3684 43.252L40.5739 48.3958L34.1198 46.3201L32.3684 43.252Z" fill="#263238"/>
<path opacity="0.2" d="M88.7107 65.7929L83.3593 59.501L77.3333 65.1313L88.7107 65.7929Z" fill="#263238"/>
<path d="M106.107 47.5201L80.6606 3.46994C80.5548 3.27605 80.3993 3.11378 80.2101 2.9998C80.0209 2.88581 79.8047 2.8242 79.5839 2.82129L28.6904 2.82129C28.4695 2.8242 28.2534 2.88581 28.0641 2.9998C27.8749 3.11378 27.7194 3.27605 27.6136 3.46994L2.16685 47.5201C2.05755 47.7094 2 47.9242 2 48.1428C2 48.3614 2.05755 48.5762 2.16685 48.7655L27.6136 92.8417C27.7194 93.0356 27.8749 93.1978 28.0641 93.3118C28.2534 93.4258 28.4695 93.4874 28.6904 93.4903H79.5839C79.8047 93.4874 80.0209 93.4258 80.2101 93.3118C80.3993 93.1978 80.5548 93.0356 80.6606 92.8417L106.107 48.7655C106.217 48.5762 106.274 48.3614 106.274 48.1428C106.274 47.9242 106.217 47.7094 106.107 47.5201ZM18.9346 75.2242L12.6102 64.3462L12.7205 64.2943L18.8308 65.5916L19.0059 75.1334L18.9605 75.1658C18.9523 75.1731 18.9458 75.1821 18.9413 75.1922C18.9368 75.2023 18.9345 75.2132 18.9346 75.2242ZM12.941 64.197L15.5356 62.8997L18.6038 61.3105C18.6038 61.3105 18.6038 61.3105 18.6427 61.3105H18.6816L18.7595 65.4425L12.941 64.197ZM22.7552 43.9071H22.82C22.8328 43.9104 22.8462 43.9104 22.859 43.9071L27.1595 44.9839L26.2579 47.9677L22.4698 47.0596L22.7552 43.9395C22.7577 43.9289 22.7577 43.9178 22.7552 43.9071ZM61.9275 12.4992L65.7286 14.7241C65.7239 14.7343 65.7215 14.7453 65.7215 14.7565C65.7215 14.7677 65.7239 14.7788 65.7286 14.789L66.9675 18.7458L66.5394 19.0377L61.7393 19.9458L61.6226 12.5511H61.8561C61.8768 12.5511 61.8966 12.5429 61.9111 12.5283C61.9257 12.5137 61.9339 12.4939 61.9339 12.4733C61.9339 12.4733 61.9275 12.5057 61.9275 12.4992ZM24.3638 66.7787L33.445 68.7247C33.4485 68.8091 33.466 68.8924 33.4969 68.9711L19.2784 74.9842L24.3638 66.7787ZM19.1746 74.8999L19.0059 65.6371L24.1952 66.7463L19.1746 74.8999ZM32.0309 34.7481L32.4915 34.787L33.2374 35.1632L33.432 35.2281L36.2667 40.106C36.1858 40.1697 36.1213 40.2518 36.0784 40.3454C36.0355 40.439 36.0156 40.5415 36.0202 40.6444V40.813L32.485 42.8044C32.4496 42.7813 32.4099 42.7659 32.3682 42.759L32.0699 42.7266L25.3498 35.1308L25.7584 34.2746L32.0309 34.7481ZM25.8622 34.054L26.8612 31.9589L32.0958 34.6054H32.0439L25.8622 34.054ZM57.2052 15.7036L61.5448 19.9717L61.3891 22.6377L61.3112 22.6896L61.175 22.735L51.9447 18.7912L51.6138 18.389C51.5998 18.3768 51.5846 18.3659 51.5684 18.3566L52.3663 12.2527L57.2052 15.7036ZM52.5933 12.2333L61.4669 12.5511L61.5448 19.7512L57.3026 15.5803L52.5933 12.2333ZM85.0261 51.8012L81.1017 46.4109C81.1579 46.3505 81.1981 46.2769 81.2185 46.1969L87.3223 47.9936L85.0261 51.8012ZM85.0261 52.0802L87.5169 55.4986L82.7947 55.784L85.0261 52.0802ZM84.9288 51.9439L82.6066 55.797L74.8227 56.2705C74.7722 56.1629 74.6909 56.0726 74.5892 56.011L80.4271 46.4628C80.4986 46.5203 80.5858 46.5548 80.6773 46.5617C80.7688 46.5687 80.8602 46.5478 80.9395 46.5017L84.9288 51.9439ZM49.6095 57.3083L58.5999 45.412C58.7262 45.5102 58.8809 45.5649 59.0409 45.5677C59.0961 45.5631 59.1505 45.5522 59.2031 45.5352L63.7437 59.0856C63.6466 59.1537 63.5671 59.2439 63.5118 59.3488C63.4565 59.4537 63.4271 59.5703 63.4259 59.6889C63.4259 59.8852 63.5027 60.0738 63.6399 60.2143L60.3966 65.3322L49.7263 58.197C49.8057 58.0562 49.8373 57.8934 49.8162 57.7332C49.7952 57.5729 49.7226 57.4238 49.6095 57.3083ZM34.9564 68.7247C34.9564 68.7247 34.9564 68.6857 34.9564 68.6663C34.9542 68.551 34.9254 68.4377 34.8721 68.3355L48.4938 58.3786C48.5664 58.4569 48.6549 58.5188 48.7533 58.5602L44.4203 70.5085L34.9564 68.7247ZM44.3684 70.6706L42.4224 76.0609L33.2115 75.6782L34.152 69.4187H34.2364C34.3983 69.4177 34.5555 69.3639 34.6843 69.2656C34.813 69.1673 34.9062 69.0298 34.9499 68.8738L44.3684 70.6706ZM48.3122 57.8597C48.3159 57.9984 48.3586 58.1333 48.4354 58.2489L34.8137 68.2057C34.7341 68.0969 34.6265 68.0118 34.5023 67.9592L40.671 48.6293C40.7227 48.6311 40.774 48.6199 40.8202 48.5969L44.537 46.5731C44.5786 46.5497 44.6143 46.5171 44.6413 46.4777C44.6683 46.4383 44.6859 46.3933 44.6927 46.3461L45.4581 41.4747L48.0527 40.9882L49.0127 57.1137C48.8234 57.1268 48.646 57.2109 48.5161 57.3493C48.3862 57.4876 48.3134 57.6699 48.3122 57.8597ZM33.3931 29.5783L41.177 26.8475L41.3327 26.9318C41.3807 27.0076 41.445 27.0718 41.5208 27.1199L41.67 27.2107L39.7694 32.6983L33.3866 30.0648C33.448 29.9107 33.448 29.7389 33.3866 29.5848L33.3931 29.5783ZM35.8515 21.8723L42.0786 22.7026C42.0632 22.7317 42.0502 22.7621 42.0397 22.7934L41.2743 26.1729L40.697 25.8485L35.8515 21.8723ZM39.938 25.4399L32.8353 21.4766L35.5531 21.8399L39.938 25.4399ZM40.191 17.9479L41.5662 18.9209L38.8418 17.8636L40.191 17.9479ZM38.3878 17.669L37.8169 17.4485L38.4656 16.7998L39.9056 17.7923L38.3878 17.669ZM40.4894 17.9674L41.8451 18.0582L42.7273 19.3555L42.2148 19.1674L40.4894 17.9674ZM42.0462 18.0712L43.6289 18.175L43.2527 19.5566L42.9932 19.4528L42.0462 18.0712ZM43.7846 18.1879L49.6225 18.5771L43.4408 19.5501L43.7846 18.1879ZM59.6961 45.1785C59.7615 45.0684 59.7973 44.9432 59.7999 44.8152C59.7983 44.7054 59.7724 44.5973 59.7242 44.4986C59.676 44.4 59.6066 44.3132 59.521 44.2444L68.5502 33.0227L75.4 40.9492L68.7448 52.0866L59.6961 45.1785ZM68.667 52.2229L64.4183 58.9819C64.3434 58.9542 64.2646 58.9389 64.1848 58.9365C64.0797 58.9366 63.9759 58.9586 63.8799 59.0013L59.3393 45.4963C59.4366 45.4503 59.5229 45.3839 59.5923 45.3017L68.667 52.2229ZM59.3912 44.1536L59.268 44.1017L63.0107 28.4756C63.1561 28.4523 63.2914 28.3869 63.3999 28.2875L68.44 32.9059L59.3912 44.1536ZM59.1123 44.0693H59.0345C58.9142 44.0711 58.7962 44.1023 58.6907 44.1601L51.0171 33.0421V32.6919C51.0178 32.643 51.0071 32.5946 50.9857 32.5507C50.9643 32.5067 50.9328 32.4684 50.8938 32.4389L47.8841 30.1297L50.6473 27.094L51.1598 26.9123L62.135 27.8594C62.1578 28.0334 62.2411 28.1938 62.3704 28.3125C62.4997 28.4311 62.6667 28.5004 62.8421 28.508L59.1123 44.0693ZM45.4062 40.826H45.257L41.19 38.0043L42.2473 37.4076C42.2817 37.4586 42.3232 37.5045 42.3705 37.5438L45.6527 39.9503C45.7604 40.0283 45.8895 40.0713 46.0224 40.0736H46.1068C46.2694 40.0463 46.4155 39.9582 46.5154 39.8271L48.2668 37.4206C48.323 37.3413 48.3607 37.2504 48.3771 37.1546L48.9025 34.0151L50.2906 36.2011V36.5514L50.0506 36.947L45.4062 40.826ZM49.7911 37.3168L47.9425 40.359L45.7111 40.7741L49.7911 37.3168ZM42.0916 46.2228L44.7381 42.0455L44.0894 46.0477C44.0576 46.0724 44.0312 46.1033 44.0116 46.1385L43.83 46.2423L42.0916 46.2228ZM43.5511 46.3915L41.164 47.6888L41.9943 46.3915H43.5511ZM43.7457 43.3233L43.7911 43.2455C43.8705 43.1035 43.8937 42.9367 43.8559 42.7784L43.2073 40.2292L44.8354 41.3579L44.79 41.6563L43.7457 43.3233ZM42.3186 33.8465L48.2408 33.094L48.3446 33.1265V33.1978L48.39 33.2692L47.7414 37.0897L45.99 39.4963L42.7467 37.1287C42.7467 37.1287 42.7467 37.1287 42.7467 37.0768L42.3186 33.8465ZM42.4873 33.6648L44.4332 31.9654L47.8711 32.9773L42.4873 33.6648ZM44.6927 31.2518C44.5565 31.2023 44.4072 31.2023 44.2711 31.2518L42.3251 27.5999L46.8657 30.2529C46.9496 30.2986 47.0427 30.3252 47.1381 30.3308L47.2808 30.4151L47.456 30.5513L48.1046 32.374L44.6927 31.2518ZM47.177 29.6497L41.9878 26.6075L41.9229 26.575L48.0527 24.4215L47.177 29.6497ZM42.0721 27.4702L44.1608 31.3621H44.1089L41.8256 33.3081C41.774 33.3548 41.7302 33.4096 41.6959 33.4702L39.8926 32.7243L41.7867 27.2561L42.0721 27.4702ZM48.9544 33.827L49.0517 33.2562C49.0713 33.1106 49.0409 32.9626 48.9655 32.8365C48.8901 32.7105 48.7741 32.6137 48.6365 32.5621L48.2668 32.4389L47.6635 30.7135L50.4009 32.8086L50.3165 35.9481L48.9544 33.827ZM48.0527 29.0075L49.8171 25.6215L50.1284 26.7372L48.0527 29.0075ZM50.6928 26.4129L49.2981 21.4507L55.9144 24.5512L50.6928 26.4129ZM55.6809 24.2723L49.2398 21.2496L49.2008 21.1004C49.2026 21.081 49.2026 21.0614 49.2008 21.042L51.2765 18.9663L55.6809 24.2723ZM52.1393 19.0377L60.9545 22.7934L56.5501 24.3307L52.1393 19.0377ZM49.0971 20.8993L48.1176 19.4463L51.0236 18.9923L49.0971 20.8993ZM47.4365 19.5566L48.6235 21.3274L49.7717 25.4139L47.9295 28.9426L48.7014 24.2853C48.7219 24.1327 48.6875 23.9778 48.6043 23.8483C48.5211 23.7188 48.3946 23.6231 48.2473 23.5783L47.9489 23.5134L43.6094 20.1663L47.4365 19.5566ZM48.0852 24.1815V24.2464L44.5824 25.4788L42.6365 23.001V22.9426L48.0852 24.1815ZM44.4462 25.5242L41.8516 26.4323L42.5846 23.1891L44.4462 25.5242ZM39.8472 32.9059L41.6375 33.6454C41.6201 33.731 41.6201 33.8192 41.6375 33.9048L42.1305 37.2C42.1423 37.2473 42.1597 37.2931 42.1824 37.3362L41.0537 37.9849L38.9132 36.4995L38.8353 36.4605L38.6472 36.3957L39.8472 32.9059ZM41.3521 38.9254L40.0224 38.7308L40.5997 38.4065L41.3521 38.9254ZM41.8256 39.7946L37.0256 40.4433L38.9716 39.3406L41.8256 39.7946ZM42.364 39.879C42.3847 39.879 42.4045 39.8708 42.4191 39.8562C42.4337 39.8416 42.4419 39.8218 42.4419 39.8011C42.4419 39.7805 42.4337 39.7607 42.4191 39.7461C42.4045 39.7315 42.3847 39.7233 42.364 39.7233L41.7154 39.6195L42.4483 39.7298L43.2527 42.9406L41.3067 46.2358H41.1121L36.9737 44.212C36.9737 44.212 36.9737 44.212 36.9737 44.1731L36.6883 40.6444L42.364 39.879ZM39.6721 46.2163H37.2396L35.6375 45.2109L36.4677 44.6141C36.5179 44.6693 36.5771 44.7153 36.6429 44.7504L39.6721 46.2163ZM35.4948 45.1071L32.9001 43.4855L32.6082 42.9341L36.0267 40.9882L36.2926 44.2314C36.3018 44.318 36.3282 44.4018 36.3704 44.4779L35.4948 45.1071ZM35.3585 45.2044L34.2558 45.9958L33.0558 43.7514L35.3585 45.2044ZM35.5012 45.2952L36.9413 46.1969H34.8461L34.431 46.0477L35.5012 45.2952ZM37.1942 46.359L38.9716 47.4747L35.3196 46.3266L37.1942 46.359ZM37.4926 46.359H39.9964L41.0018 46.852C41.0809 46.8895 41.1673 46.909 41.2548 46.909C41.3423 46.909 41.4287 46.8895 41.5078 46.852L40.8591 47.825L40.5932 47.9677L39.5618 47.6434L37.4926 46.359ZM48.2408 40.9687C48.3129 40.948 48.3751 40.9019 48.416 40.839L50.8744 36.7914C50.8762 36.7719 50.8762 36.7524 50.8744 36.733C50.8994 36.6895 50.9128 36.6404 50.9133 36.5903C50.9145 36.5752 50.9145 36.56 50.9133 36.5449L51.0041 33.3016L58.5674 44.2379C58.4866 44.2999 58.4198 44.3782 58.3712 44.4677C58.3226 44.5573 58.2934 44.656 58.2855 44.7575C58.2775 44.8591 58.291 44.9611 58.325 45.0571C58.3591 45.1531 58.4129 45.2409 58.4831 45.3147L49.4863 57.2435C49.3908 57.1805 49.282 57.1405 49.1684 57.1267L48.2408 40.9687ZM63.7696 60.3116C63.8904 60.4001 64.0351 60.4499 64.1848 60.4543L65.7999 65.2868L60.6107 65.3711L63.7696 60.3116ZM65.8648 65.436L67.1102 69.1463C67.0088 69.1821 66.9221 69.2505 66.8637 69.3409L60.721 65.5203L65.8648 65.436ZM64.3469 60.4219C64.4941 60.3906 64.6282 60.3153 64.7314 60.2058C64.8346 60.0964 64.902 59.9581 64.9245 59.8094C64.9471 59.6607 64.9237 59.5086 64.8576 59.3735C64.7915 59.2384 64.6858 59.1267 64.5545 59.0532L68.8097 52.3137L73.8433 56.1602C73.79 56.2199 73.7496 56.29 73.7245 56.366C73.6995 56.442 73.6903 56.5223 73.6976 56.602C73.7049 56.6817 73.7285 56.759 73.767 56.8292C73.8054 56.8994 73.8579 56.9609 73.9211 57.0099L69.6789 65.2219L65.9945 65.2803L64.3469 60.4219ZM69.7502 65.3776L74.3946 65.2998L68.8097 68.7636L67.7264 69.2695L69.7502 65.3776ZM74.693 65.2998H76.373L69.9773 68.2641L74.693 65.2998ZM74.9525 65.1376L78.2606 63.0749L77.1709 64.8911L76.7492 65.0857L74.9525 65.1376ZM78.5395 62.8868L81.7828 60.8759L77.5536 64.5473L78.5395 62.8868ZM78.4228 62.7765L74.6476 65.1311L69.8281 65.2089L73.9989 57.0943C74.078 57.1321 74.1643 57.152 74.2519 57.1526C74.4136 57.1526 74.5687 57.0884 74.6831 56.9741C74.7974 56.8597 74.8616 56.7046 74.8616 56.5429C74.8637 56.5148 74.8637 56.4867 74.8616 56.4586L82.5223 56.011L78.4228 62.7765ZM80.3233 46.3785L74.453 55.9721C74.3664 55.9372 74.2721 55.926 74.1797 55.9397C74.0874 55.9534 74.0004 55.9915 73.9276 56.0499L68.8551 52.158L75.5103 41.0919L80.3558 45.8206C80.2866 45.9035 80.2488 46.0079 80.2488 46.1158C80.2488 46.2237 80.2866 46.3281 80.3558 46.4109L80.3233 46.3785ZM75.4584 40.8L68.68 32.9319L82.0812 27.8269L75.4584 40.8ZM68.5243 32.7697L63.4907 28.1578C63.5769 28.0363 63.6244 27.8916 63.6269 27.7426C63.6248 27.5631 63.558 27.3904 63.4388 27.2561L67.0389 19.4333L67.1362 19.3685L67.7848 19.7577C67.8246 19.7754 67.8677 19.7845 67.9113 19.7845C67.9549 19.7845 67.998 19.7754 68.0378 19.7577L68.3556 19.6539L74.8098 20.6788L68.5243 32.7697ZM74.9719 20.7371L78.4098 21.282L79.3244 22.8518L68.8097 32.5362L74.9719 20.7371ZM64.068 25.5242L63.3221 27.1459C63.1948 27.0439 63.0375 26.9869 62.8745 26.9837H62.8356L61.6745 23.2085L66.8054 19.6215L64.068 25.5242ZM61.5512 22.5145L61.6745 20.095L66.2151 19.2517L61.5512 22.5145ZM62.6799 27.0226C62.5316 27.0605 62.3985 27.143 62.2987 27.259C62.199 27.3751 62.1373 27.519 62.1221 27.6713L51.536 26.7826L56.5566 24.9858L61.5188 23.2799L62.6799 27.0226ZM51.4128 18.3241C51.3827 18.3197 51.3521 18.3197 51.3219 18.3241L50.2841 18.4863L43.7976 18.0517L45.0559 13.4268L45.1532 13.3814C45.2394 13.3424 45.3159 13.285 45.3776 13.2133C45.4392 13.1416 45.4844 13.0573 45.51 12.9663C45.5146 12.9231 45.5146 12.8796 45.51 12.8365L52.1782 12.2398L51.4128 18.3241ZM43.6678 18.0323L41.9359 17.9155L40.2689 15.4895L44.8743 13.4982L43.6678 18.0323ZM41.7219 17.9025L40.2689 17.7987L38.6343 16.6766L39.8408 15.4895C39.9147 15.5211 39.9939 15.5387 40.0743 15.5414H40.1456L41.7219 17.9025ZM38.4786 16.6052L36.5715 15.3079L36.3769 14.9187L36.7986 13.1414L39.6526 15.4052L38.4786 16.6052ZM38.3683 16.7155L37.6742 17.3901L36.7402 15.5609L38.3683 16.7155ZM37.3175 17.9479L43.1554 20.2117C43.2084 20.2264 43.2645 20.2264 43.3175 20.2117H43.4278L47.6181 23.455L42.8051 22.3653H42.6689C42.573 22.3637 42.4781 22.3853 42.3922 22.4282C42.3064 22.4711 42.2322 22.5341 42.1759 22.6118L35.618 21.6907L33.6007 20.0301L37.1553 17.7923C37.1902 17.8541 37.2451 17.9021 37.311 17.9285L37.3175 17.9479ZM35.3261 21.6323L32.485 21.269L32.0439 21.0226L33.4839 20.1144L35.3261 21.6323ZM31.8363 20.9382L31.6093 20.8085L31.6612 18.655L33.3023 20.0107L31.8363 20.9382ZM40.9175 26.7761L33.3153 29.4162C33.25 29.3018 33.1556 29.2067 33.0417 29.1406C32.9277 29.0745 32.7983 29.0398 32.6666 29.0399C32.6192 29.0352 32.5714 29.0352 32.5239 29.0399L31.6677 21.535L40.9175 26.7761ZM33.3218 30.2075L39.7045 32.8475L38.5045 36.3178H38.4332L33.1726 30.4151C33.2339 30.355 33.2843 30.2848 33.3218 30.2075ZM38.5953 37.0054L40.457 38.3027L39.7694 38.6919L39.1207 38.5946H39.0299C38.9207 38.5961 38.8136 38.6251 38.7186 38.6789L36.3769 40.0152L33.6396 35.3059L38.5953 37.0054ZM32.1088 43.3622L33.698 46.2812L33.5877 46.7028L31.9531 48.8758V44.8347C31.9531 44.6626 31.8848 44.4977 31.7631 44.376C31.6415 44.2544 31.4765 44.186 31.3044 44.186H31.2655L29.5271 44.3352L31.752 43.3428L32.1088 43.3622ZM30.9542 44.8412L26.9066 47.9936L27.7822 45.0877L27.899 45.0358L30.9542 44.8412ZM31.2331 44.8412H31.272L31.3109 49.6866L31.272 49.745C31.272 49.745 31.2331 49.745 31.2071 49.745L28.6709 50.9385H28.6579L26.8741 48.2271L31.2331 44.8412ZM31.5639 50.4066C31.6733 50.3545 31.7659 50.2729 31.8313 50.1708C31.8966 50.0688 31.9321 49.9505 31.9336 49.8293V49.1093L33.4645 47.0985L32.7055 49.9396L29.6958 52.0802L30.6753 50.7829L31.5639 50.4066ZM32.9001 50.5753L33.1466 50.4001C33.2071 50.3582 33.2508 50.2961 33.2699 50.225L34.2234 46.6574L40.0613 48.4931L31.9596 53.2931L32.9001 50.5753ZM39.6202 48.9472L31.1877 55.758L31.9661 53.5072L39.6202 48.9472ZM30.9153 55.9072L29.125 56.6597L20.6016 60.344L19.8492 60.6554L31.7001 53.624L30.9153 55.9072ZM30.9542 56.1991C30.9645 56.1952 30.9739 56.1892 30.9818 56.1813C30.9896 56.1735 30.9957 56.1641 30.9996 56.1537L31.0385 56.0305L40.3337 48.5515L40.4959 48.6034L34.3272 67.9333C34.2862 67.9297 34.2449 67.9297 34.2039 67.9333C34.023 67.9333 33.8482 67.9991 33.7121 68.1185C33.5761 68.2378 33.4881 68.4025 33.4645 68.5819L24.4417 66.636L30.8828 56.2251L30.9542 56.1991ZM33.6007 69.0944C33.6915 69.2281 33.8237 69.3283 33.9769 69.3798L33.0364 75.6653L19.4146 75.1009L33.6007 69.0944ZM33.1337 75.8209L42.2602 76.1972L30.818 91.246L33.1337 75.8209ZM42.4548 76.1972H42.4938L48.0722 76.0415L36.6299 86.3162L36.4742 86.4524L36.4288 86.4978L30.9931 91.3692L42.4548 76.1972ZM42.5392 76.022L44.4851 70.6771L48.3771 71.4101C48.3749 71.436 48.3749 71.462 48.3771 71.4879C48.3779 71.5966 48.4146 71.7019 48.4815 71.7875C48.5483 71.8731 48.6416 71.9343 48.7468 71.9614L48.2279 75.8534L42.5392 76.022ZM48.883 71.9809C48.9953 71.9781 49.1032 71.9365 49.1883 71.8632C49.2735 71.7899 49.3306 71.6894 49.35 71.5787L53.6701 72.5777L48.3965 75.7885L48.883 71.9809ZM49.3435 71.4231C49.3325 71.318 49.2875 71.2194 49.2154 71.1422C49.1434 71.065 49.0481 71.0133 48.9441 70.995C48.8401 70.9767 48.7329 70.9927 48.6388 71.0407C48.5447 71.0887 48.4688 71.166 48.4225 71.2609L44.5305 70.5279L48.9349 58.6056C48.9802 58.6099 49.0258 58.6099 49.0711 58.6056C49.1897 58.6044 49.3063 58.5749 49.4112 58.5197C49.5161 58.4644 49.6063 58.3849 49.6744 58.2878L60.3318 65.423L53.8906 72.4674L49.3435 71.4231ZM60.4356 65.5333L66.7275 69.6003L57.0561 72.1236L54.0139 72.5193L60.4356 65.5333ZM58.1588 72.4739L67.1037 74.822L67.1621 80.1864L65.2161 78.6361L57.8604 72.5712L58.1588 72.4739ZM58.4701 72.396L67.1491 70.1322V74.6728L58.4701 72.396ZM66.027 65.4295L69.5751 65.3711L67.5772 69.263C67.4893 69.1855 67.3766 69.1418 67.2594 69.1398L66.027 65.4295ZM67.3697 70.0868H67.4475L72.9092 76.4112L67.4021 80.1864L67.3308 70.1128L67.3697 70.0868ZM67.6032 70.009L77.3719 65.4684L77.9428 72.9279L73.0324 76.2945L67.6032 70.009ZM77.9817 73.1225L78.7276 82.8524L73.1622 76.4047L77.9817 73.1225ZM77.5601 65.5462L86.0704 67.3884L78.0919 72.876L77.5601 65.5462ZM77.5601 65.3906L77.813 65.17L88.4185 65.7798L86.2391 67.2717L77.5601 65.3906ZM88.6521 65.8122L88.7169 65.89L92.8164 68.7052L86.4531 67.3236L88.6521 65.8122ZM77.9817 65.0273L83.7288 60.0327L88.2694 65.3581L88.4899 65.6371L77.9817 65.0273ZM83.3266 59.5527L82.5482 60.2013L78.7536 62.5624L82.7104 56.011L87.5818 55.7126L83.3007 59.5656L83.3266 59.5527ZM85.1428 51.9699L87.3742 48.2596L87.6207 55.3624L85.1428 51.9699ZM87.5234 48.078L88.8207 51.6196L87.7439 55.3624L87.5234 48.078ZM87.452 47.9093L81.2509 46.0866C81.2521 46.0671 81.2521 46.0477 81.2509 46.0282L88.1785 45.3796L87.452 47.9093ZM81.186 45.8725L81.1536 45.8206L88.2045 41.786L88.2758 45.1979L81.186 45.8725ZM81.0368 45.7104C80.9581 45.6488 80.8611 45.6154 80.7612 45.6154C80.6612 45.6154 80.5642 45.6488 80.4855 45.7104L75.666 41.0076L86.1612 38.9384L88.1072 41.6563L81.0368 45.7104ZM86.051 38.7957L75.9449 40.7676L84.9417 35.6692L86.051 38.7957ZM85.0974 35.6043L86.3234 34.8843L86.0834 38.4519L85.0974 35.6043ZM86.4985 34.813L87.251 34.3848L86.2845 38.0562L86.4985 34.813ZM86.4985 34.6249L86.6996 31.6216L87.3093 34.1708L86.4985 34.6249ZM86.3364 34.7157L85.0391 35.4551L82.4314 27.9048L86.6023 31.1481L86.3364 34.7157ZM84.8963 35.533L75.6789 40.7546L82.2239 27.8918L84.8963 35.533ZM68.9005 32.6594L79.4087 22.9945L82.1266 27.6388L68.9005 32.6594ZM79.532 22.8647L80.7774 21.7166L82.0747 27.1718L79.532 22.8647ZM79.4541 22.7285L78.6174 21.3015L80.6541 21.6258L79.4541 22.7285ZM78.5395 21.1458L76.7817 18.136L80.5958 21.4701L78.5395 21.1458ZM78.3384 21.1458L75.0952 20.6269L76.4898 17.9544L78.3384 21.1458ZM74.92 20.6009L68.7189 19.615L69.6529 19.3166L76.3211 17.909L74.92 20.6009ZM68.0118 19.1869L67.3113 18.7652C67.2589 18.7327 67.1978 18.7169 67.1362 18.7198L65.9491 14.9317L68.4205 17.7404L69.3416 18.7069L68.0118 19.1869ZM52.3663 12.0711L51.3738 7.29701L53.5403 8.34783L61.7912 12.4344L52.3663 12.0711ZM52.2106 12.0711L45.5489 12.6679C45.538 12.6389 45.525 12.6107 45.51 12.5835L51.2311 7.36188L52.2106 12.0711ZM45.4581 12.4408L43.59 10.0538L47.6635 7.63431L51.1533 7.28404L45.4581 12.4408ZM44.9132 12.7457C44.9025 12.7526 44.8939 12.7623 44.8882 12.7737C44.8825 12.7851 44.8799 12.7979 44.8808 12.8106L40.0613 14.8992L36.9802 12.4863L43.0192 10.3522L44.9132 12.7457ZM36.7726 11.9025C36.693 11.9333 36.6202 11.9796 36.5586 12.0387C36.5179 12.0568 36.4818 12.0837 36.4527 12.1173C36.4235 12.1509 36.4021 12.1905 36.3899 12.2333L31.9661 10.6506L36.5067 9.80082L40.2299 10.683L36.7726 11.9025ZM36.3445 12.389L35.7283 14.8863C35.703 14.9554 35.703 15.0312 35.7283 15.1003L37.0256 17.656L33.4191 19.9263L31.6417 18.4604L31.8299 10.7868L36.3445 12.389ZM31.5444 18.3436L28.8396 16.1122L31.7261 10.8322L31.5444 18.3436ZM31.5444 18.5447L31.4926 20.7371L31.3174 20.6398L29.0471 16.4885L31.5444 18.5447ZM31.0385 21.1977L26.5628 23.4356L28.7747 21.2236L30.4807 21.1912H31.045L31.0385 21.1977ZM31.2007 21.2885L31.499 21.4572L32.3812 29.1372C32.2828 29.1787 32.1944 29.2406 32.1218 29.3189L26.193 23.8507V23.7729L31.2007 21.2885ZM32.0374 29.4162C31.9641 29.5306 31.9237 29.663 31.9207 29.7989C31.9172 29.9007 31.9342 30.0022 31.9708 30.0973C32.0074 30.1924 32.0627 30.2791 32.1336 30.3524C32.2044 30.4256 32.2892 30.4838 32.383 30.5236C32.4769 30.5633 32.5777 30.5838 32.6796 30.5837C32.8076 30.5812 32.9328 30.5454 33.0428 30.4799L38.1348 36.1881L33.4645 34.6054L32.5953 34.1708L25.0384 28.1188L26.1476 23.9999L32.0374 29.4162ZM31.9142 33.7816L27.1012 31.3621L25.2979 28.5145L31.9142 33.7816ZM25.6741 34.0021L24.4871 33.9567L26.686 31.9394L25.6741 34.0021ZM25.5639 34.2292L25.2071 34.9751L24.4741 34.1513L25.5639 34.2292ZM25.1357 35.1243L23.2611 39.0617L24.273 34.1513L25.1357 35.1243ZM25.246 35.2476L31.8363 42.7006L31.512 42.6617L23.2936 39.4184L25.246 35.2476ZM30.9088 42.5514L26.1736 41.9936H26.1347L23.54 39.613L30.9088 42.5514ZM26.1022 42.6163L31.4407 43.2649L29.086 44.3352L27.7887 44.4195C27.6675 44.4316 27.5521 44.4775 27.4557 44.552C27.3593 44.6266 27.2859 44.7268 27.2439 44.8412L23.0665 43.7968L25.9984 42.6033C26.0333 42.6287 26.0731 42.6463 26.1152 42.6552L26.1022 42.6163ZM22.3011 47.0531L21.153 48.8758L21.0168 46.0931L22.606 44.0239L22.3011 47.0531ZM21.2114 49.0445L22.4114 47.1698L26.232 48.0909C26.2157 48.2264 26.2454 48.3635 26.3163 48.4801L27.8925 50.8607H23.2481L21.2049 49.0769L21.2114 49.0445ZM27.9963 50.9904L28.1779 51.2629C28.2623 51.3821 28.3843 51.4693 28.5244 51.5105C28.6645 51.5517 28.8144 51.5444 28.9498 51.4899L30.2861 50.8931L29.2417 52.411L27.886 53.3775L25.5184 52.1191L23.4492 50.9904H27.9963ZM27.8406 54.0845L28.3206 53.7472H28.366L28.7617 53.4423L32.6536 50.6596L31.7845 53.4164L19.2654 60.8176L27.7822 54.1753C27.8093 54.1704 27.8355 54.1616 27.8601 54.1494L27.8406 54.0845ZM24.0525 59.0792L30.6558 56.3289L24.299 66.6036L18.993 65.4749L18.9151 61.3235L24.0525 59.0792ZM30.539 92.0244H30.4871L30.6104 91.9141L30.539 92.0244ZM30.539 91.6481C30.5328 91.659 30.5295 91.6713 30.5295 91.6838C30.5295 91.6963 30.5328 91.7086 30.539 91.7195L30.3834 91.927C30.3739 91.9403 30.3687 91.9562 30.3687 91.9725C30.3687 91.9887 30.3739 92.0046 30.3834 92.0179L28.6385 91.9206L18.9735 75.2955C18.9735 75.2955 18.9735 75.2955 19.0124 75.2955H19.0578L19.1292 75.2436L33.0104 75.8145L30.6558 91.5054L30.539 91.6481ZM30.7661 91.7779L31.6482 90.9865L30.7596 91.8233L30.7661 91.7779ZM31.259 92.206L36.8959 86.9L48.7273 76.4501L54.1825 73.1225L56.7771 72.7787C56.8072 72.7834 56.8379 72.7834 56.8679 72.7787L66.7535 80.8156L76.3925 92.18L31.259 92.206ZM77.0217 91.9141L67.3243 80.4783C67.3379 80.472 67.3495 80.462 67.3575 80.4493C67.3656 80.4367 67.3698 80.4219 67.3697 80.4069V80.355L72.9741 76.515L78.6433 83.0859L79.4606 92.1087L77.0217 91.9141ZM79.6812 92.0179L78.8833 83.1897L83.4239 85.3756L79.6812 92.0179ZM83.7742 84.7075L83.4758 85.2329L78.8703 83.0016V82.9562L78.1114 73.0123L86.2585 67.4273L92.9267 68.8738L83.7742 84.7075ZM93.3613 68.3419L93.3159 68.2965L89.1191 65.4165L84.1698 59.5786L88.0942 56.0434C88.1799 55.9643 88.2427 55.8634 88.2758 55.7515L89.4434 51.7429C89.4833 51.6162 89.4833 51.4803 89.4434 51.3537L88.198 47.9612L88.8467 45.3666C88.854 45.3106 88.854 45.2539 88.8467 45.1979L88.7753 41.6238C88.7711 41.4982 88.7306 41.3765 88.6586 41.2736L86.7839 38.6789L87.8802 34.294C87.9033 34.1959 87.9033 34.0938 87.8802 33.9957L87.1537 30.934C87.1191 30.7986 87.0417 30.6781 86.9331 30.5902L82.8012 27.295L81.465 21.4572C81.4349 21.3298 81.3671 21.2145 81.2704 21.1263L76.8919 17.2344C76.7761 17.1354 76.6292 17.0803 76.4768 17.0787H76.3536L69.9124 18.376L68.8356 17.2409L66.241 14.2701C66.1962 14.2189 66.1437 14.1751 66.0853 14.1403L62.1934 11.8765H62.1545L53.8193 7.7835L51.5555 6.71322C51.4705 6.67202 51.3775 6.64988 51.283 6.64835H51.2182L47.5727 7.0116C47.4835 7.02189 47.3973 7.0506 47.3197 7.09593L42.7792 9.79433L41.1381 10.2808L36.6169 9.19757H36.4742H36.3575L31.6872 10.0733C31.5967 10.0913 31.5112 10.1284 31.4363 10.1821C31.3613 10.2358 31.2987 10.3048 31.2526 10.3846L28.2687 15.8463C28.221 15.9385 28.196 16.0408 28.196 16.1447C28.196 16.2485 28.221 16.3508 28.2687 16.443L30.539 20.5555H28.7423C28.5806 20.5577 28.4256 20.6202 28.3077 20.7307L25.8298 23.1372C25.7498 23.2161 25.6917 23.3144 25.6611 23.4226L24.4222 28.0151C24.401 28.0979 24.3964 28.1841 24.4087 28.2687C24.4209 28.3533 24.4498 28.4346 24.4936 28.508L26.2709 31.3621L23.8709 33.6389C23.78 33.727 23.7168 33.8397 23.6892 33.9632L22.593 39.2887C22.5738 39.394 22.5809 39.5024 22.6137 39.6042C22.6465 39.7061 22.704 39.7982 22.7811 39.8725L25.3498 42.1947L22.4762 43.3558C22.374 43.3994 22.2846 43.4687 22.2168 43.5568L20.5368 45.7428C20.4485 45.8604 20.4027 46.0045 20.407 46.1515L20.5497 49.0704C20.5606 49.2398 20.6375 49.3981 20.7638 49.5115L23.0276 51.4575L23.1379 51.5353L27.2633 53.7796L18.4157 60.6943L15.2762 62.3224L12.3313 63.7949H12.2988L3.21768 48.1169L28.6904 4.06671H79.5839L105.031 48.1428L93.3613 68.3419Z" fill="#263238"/>
<path opacity="0.05" d="M88.7749 65.7982L83.7997 59.6943L77.9424 64.9484L88.7749 65.7982Z" fill="#263238"/>
<path d="M21.4347 100.695V104.976H25.2971L28.2274 100.701H30.5661L27.0386 105.814L30.8284 111.758H28.4284L25.3585 106.813H21.4514V111.752H19.3918V100.695H21.4347Z" fill="white"/>
<path d="M45.145 100.74V111.797H43.0798V102.576H38.1402L36.9067 109.051C36.8301 109.844 36.4449 110.575 35.834 111.087C35.2232 111.598 34.4357 111.849 33.6415 111.786H32.5251V109.888H33.5075C33.6743 109.908 33.8434 109.895 34.0052 109.85C34.167 109.805 34.3184 109.729 34.4506 109.625C34.5828 109.521 34.6932 109.392 34.7756 109.246C34.858 109.1 34.9107 108.938 34.9308 108.772L36.4657 100.712L45.145 100.74Z" fill="white"/>
<path d="M56.0739 100.762L60.7513 111.83H58.6135L57.8321 110.083H50.2915L49.5268 111.819H47.3723L52.2506 100.75L56.0739 100.762ZM51.0785 108.269H57.0395L54.7288 102.564H53.4729L51.0785 108.269Z" fill="white"/>
<path d="M70.1112 100.79C72.1094 100.79 73.488 101.906 73.4601 103.658C73.4883 104.047 73.4164 104.436 73.2513 104.789C73.0861 105.142 72.8332 105.446 72.5168 105.673C73.053 105.908 73.5046 106.301 73.8109 106.8C74.1172 107.299 74.2635 107.88 74.2303 108.464C74.2303 110.323 72.7456 111.863 70.5633 111.858H63.0059V100.801L70.1112 100.79ZM65.0878 109.999H70.5298C71.6907 109.999 72.2935 109.324 72.2935 108.464C72.3039 108.259 72.2702 108.055 72.1949 107.864C72.1195 107.674 72.0041 107.501 71.8566 107.359C71.709 107.217 71.5326 107.108 71.3394 107.039C71.1462 106.971 70.9405 106.945 70.7363 106.963H65.0989L65.0878 109.999ZM65.0878 105.177H70.2898C70.4538 105.179 70.6166 105.148 70.7682 105.085C70.9199 105.023 71.0571 104.93 71.1715 104.812C71.2859 104.694 71.3752 104.555 71.4337 104.402C71.4923 104.248 71.519 104.085 71.5121 103.921C71.5121 103.24 71.1549 102.62 69.994 102.62H65.0934L65.0878 105.177Z" fill="white"/>
<path d="M84.1992 100.812L88.8765 111.881H86.7387L85.9797 110.139H78.439L77.6743 111.875H75.4919L80.3535 100.824L84.1992 100.812ZM79.2037 108.32H85.1648L82.854 102.615H81.5926L79.2037 108.32Z" fill="white"/>
</svg>
