<svg width="80" height="81" viewBox="0 0 80 81" fill="none" xmlns="http://www.w3.org/2000/svg">
<path d="M2.03458 35.8852L2.89675 35.3856L2.03458 35.8852L20.1261 67.1109C20.4884 67.7362 21.1566 68.1196 21.8779 68.1196H58.061C58.7823 68.1196 59.4505 67.7362 59.8128 67.1109L77.9043 35.8852C78.2668 35.2595 78.2668 34.4881 77.9043 33.8624L77.0391 34.3637L77.9043 33.8624L59.8128 2.63668C59.4505 2.01138 58.7823 1.62793 58.061 1.62793L21.8779 1.62793C21.1566 1.62793 20.4884 2.01138 20.1261 2.63667L2.03458 33.8624L2.89633 34.3617L2.03458 33.8624C1.67207 34.4881 1.67207 35.2595 2.03458 35.8852Z" fill="#407BFF" stroke="#407BFF" stroke-width="2"/>
<path opacity="0.2" d="M21.5781 38.8861L24.8971 36.3123L25.6378 33.5396L21.5781 38.8861Z" fill="white"/>
<path opacity="0.2" d="M17.5749 31.8726L17.3296 34.1639L16.3945 35.4878V33.3816L17.5749 31.8726Z" fill="white"/>
<path opacity="0.2" d="M31.6202 29.0118L27.5605 29.558L29.2779 28.4609L31.6202 29.0118Z" fill="white"/>
<path opacity="0.2" d="M23.6102 32.5122L20.4902 34.7758L21.0365 32.665L23.6102 32.5122Z" fill="white"/>
<path opacity="0.2" d="M31.623 16.7822L35.8956 17.8747L33.1784 18.8607L31.623 16.7822Z" fill="white"/>
<path opacity="0.2" d="M20.5691 23.0781L17.875 28.6607L18.6943 24.7955L20.5691 23.0781Z" fill="white"/>
<path opacity="0.2" d="M33.0034 33.5905L25.6387 33.5396L30.3788 35.0208L33.0034 33.5905Z" fill="white"/>
<path opacity="0.2" d="M17.8838 28.6738L19.8326 30.7569L24.3644 31.2476L17.8838 28.6738Z" fill="white"/>
<path opacity="0.2" d="M33.5766 29.9746L33.0026 33.5899L30.3779 35.0202L33.5766 29.9746Z" fill="white"/>
<path opacity="0.2" d="M37.4794 26.6143L35.7111 29.5815L33.5771 29.9749L37.4794 26.6143Z" fill="white"/>
<path opacity="0.2" d="M37.5341 23.8827L35.1641 22.0635L35.9186 24.1975L37.4554 26.6138L37.5341 23.8827Z" fill="white"/>
<path opacity="0.2" d="M19.1855 20.6572L20.6715 22.9995L25.069 25.3418L19.1855 20.6572Z" fill="white"/>
<path opacity="0.2" d="M21.8936 12.0698L23.8701 15.6851L31.2071 19.7447L21.8936 12.0698Z" fill="white"/>
<path opacity="0.2" d="M32.197 14.778L27.0449 11.209L28.0865 13.1624L32.197 14.778Z" fill="white"/>
<path opacity="0.2" d="M37.9513 13.8111L28.0869 13.1631L32.1975 14.7786L37.9513 13.8111Z" fill="white"/>
<path opacity="0.2" d="M45.228 16.8884L37.9512 13.8101L41.6174 18.1382L45.228 16.8884Z" fill="white"/>
<path opacity="0.2" d="M59.027 15.9445L55.9071 13.2134L49.8662 14.491L59.027 15.9445Z" fill="white"/>
<path opacity="0.2" d="M60.0409 20.2911L59.0272 15.9445L55.9072 13.2134L60.0409 20.2911Z" fill="white"/>
<path opacity="0.2" d="M62.8277 28.2566L60.041 20.29L63.1934 22.7619L62.8277 28.2566Z" fill="white"/>
<path opacity="0.2" d="M64.3361 32.8354L63.7899 34.7889L58.9248 33.3539L64.3361 32.8354Z" fill="white"/>
<path opacity="0.2" d="M49.347 50.3755L49.3979 57.9208L42.1396 52.2456L49.347 50.3755Z" fill="white"/>
<path opacity="0.2" d="M56.4757 47.042L44.4912 47.241L49.347 50.3749L56.4757 47.042Z" fill="white"/>
<path opacity="0.2" d="M39.8061 52.3145L36.2557 51.4951L35.8252 54.7354L39.8061 52.3145Z" fill="white"/>
<path opacity="0.2" d="M23.0781 66.1732L31.6511 54.8506L35.8264 54.7349L23.0781 66.1732Z" fill="white"/>
<path opacity="0.2" d="M61.1146 43.0005L49.3477 50.3745L56.4763 47.0416L61.1146 43.0005Z" fill="white"/>
<path opacity="0.2" d="M60.0404 20.291L50.2686 24.0127L59.0267 15.9443L60.0404 20.291Z" fill="white"/>
<path opacity="0.2" d="M63.6977 24.9531L62.8274 28.2582L55.2266 29.7534L63.6977 24.9531Z" fill="white"/>
<path opacity="0.2" d="M49.1809 14.0972L46.3665 20.4204L37.377 19.6427L45.2787 16.9625L49.1809 14.0972Z" fill="white"/>
<path opacity="0.2" d="M30.2908 35.0991L23.5001 40.566L14.7559 44.3109L30.2908 35.0991Z" fill="white"/>
<path opacity="0.2" d="M20.6101 23.1567L17.916 28.7393L18.7353 24.8741L20.6101 23.1567Z" fill="white"/>
<path opacity="0.2" d="M24.9799 25.4203L18.7354 24.8741L20.6101 23.1567L24.9799 25.4203Z" fill="white"/>
<path opacity="0.2" d="M23.8363 15.5459L20.0312 17.3975L21.8597 15.5829L23.8363 15.5459Z" fill="white"/>
<path opacity="0.2" d="M63.7806 34.8623L63.938 40.1718L56.4482 46.9718L63.7806 34.8623Z" fill="white"/>
<path opacity="0.2" d="M23.5001 40.5664L15.0105 54.097L14.7559 44.1585L23.5001 40.5664Z" fill="white"/>
<path opacity="0.2" d="M31.54 24.7163L33.0213 23.3091L35.8311 24.1701L31.54 24.7163Z" fill="white"/>
<path opacity="0.2" d="M24.1475 8.15824L27.7072 9.43122L30.5818 8.36654L27.3831 7.47314L24.1475 8.15824Z" fill="white"/>
<path opacity="0.2" d="M37.3767 19.6437L37.011 18.5234L35.1641 22.0646L37.3767 19.6437Z" fill="white"/>
<path opacity="0.2" d="M24.8976 36.3125L23.421 40.5897L14.6768 44.2327L24.8976 36.3125Z" fill="white"/>
<path opacity="0.2" d="M24.4346 31.4287L30.2903 35.0995L25.6844 33.6182L24.4346 31.4287Z" fill="white"/>
<path opacity="0.2" d="M64.6418 47.5146L60.8228 43.0244L56.5225 47.0424L64.6418 47.5146Z" fill="white"/>
<path d="M77.0571 34.4742L58.8975 3.03859C58.822 2.90021 58.711 2.78442 58.576 2.70307C58.4409 2.62173 58.2867 2.57776 58.1291 2.57568H21.8098C21.6522 2.57776 21.498 2.62173 21.3629 2.70307C21.2279 2.78442 21.1169 2.90021 21.0414 3.03859L2.88177 34.4742C2.80376 34.6093 2.7627 34.7626 2.7627 34.9186C2.7627 35.0746 2.80376 35.2279 2.88177 35.363L21.0414 66.8172C21.1169 66.9555 21.2279 67.0713 21.3629 67.1527C21.498 67.234 21.6522 67.278 21.8098 67.2801H58.1291C58.2867 67.278 58.4409 67.234 58.576 67.1527C58.711 67.0713 58.822 66.9555 58.8975 66.8172L77.0571 35.363C77.1351 35.2279 77.1762 35.0746 77.1762 34.9186C77.1762 34.7626 77.1351 34.6093 77.0571 34.4742ZM14.8478 54.2448L10.3345 46.4819L10.4132 46.4449L14.7737 47.3707L14.8987 54.18L14.8663 54.2031C14.8604 54.2083 14.8558 54.2148 14.8526 54.222C14.8494 54.2291 14.8477 54.2369 14.8478 54.2448ZM10.5706 46.3754L12.4222 45.4496L14.6117 44.3155C14.6117 44.3155 14.6117 44.3155 14.6395 44.3155H14.6672L14.7228 47.2642L10.5706 46.3754ZM17.5743 31.8959H17.6206C17.6297 31.8982 17.6392 31.8982 17.6483 31.8959L20.7174 32.6643L20.0739 34.7936L17.3706 34.1456L17.5743 31.919C17.576 31.9114 17.576 31.9035 17.5743 31.8959ZM45.5289 9.48218L48.2415 11.0699C48.2382 11.0772 48.2365 11.0851 48.2365 11.0931C48.2365 11.1011 48.2382 11.109 48.2415 11.1162L49.1256 13.9399L48.8201 14.1482L45.3947 14.7963L45.3113 9.51921H45.478C45.4927 9.51921 45.5068 9.51336 45.5173 9.50294C45.5277 9.49252 45.5335 9.47839 45.5335 9.46366C45.5335 9.46366 45.5289 9.48681 45.5289 9.48218ZM18.7223 48.2178L25.2029 49.6065C25.2053 49.6668 25.2179 49.7262 25.2399 49.7824L15.0931 54.0735L18.7223 48.2178ZM15.019 54.0133L14.8987 47.4031L18.6019 48.1946L15.019 54.0133ZM24.1938 25.3597L24.5224 25.3875L25.0548 25.656L25.1936 25.7022L27.2165 29.1833C27.1588 29.2288 27.1127 29.2873 27.0822 29.3541C27.0516 29.4209 27.0373 29.4941 27.0406 29.5675V29.6878L24.5178 31.1089C24.4926 31.0925 24.4642 31.0815 24.4345 31.0765L24.2215 31.0534L19.4259 25.6328L19.7175 25.0218L24.1938 25.3597ZM19.7916 24.8644L20.5044 23.3692L24.2401 25.2579H24.203L19.7916 24.8644ZM42.159 11.7689L45.2558 14.8148L45.1447 16.7173L45.0891 16.7544L44.9919 16.7868L38.4048 13.9723L38.1688 13.6853C38.1587 13.6766 38.1479 13.6688 38.1364 13.6622L38.7057 9.30627L42.159 11.7689ZM38.8677 9.29239L45.2002 9.51921L45.2558 14.6574L42.2284 11.681L38.8677 9.29239ZM62.0128 37.5294L59.2123 33.6827C59.2524 33.6395 59.281 33.587 59.2956 33.5299L63.6515 34.8122L62.0128 37.5294ZM62.0128 37.7284L63.7904 40.1679L60.4204 40.3716L62.0128 37.7284ZM61.9434 37.6312L60.2862 40.3809L54.7314 40.7188C54.6953 40.642 54.6373 40.5776 54.5647 40.5336L58.7309 33.7197C58.7819 33.7607 58.8441 33.7853 58.9094 33.7903C58.9747 33.7953 59.0399 33.7803 59.0965 33.7475L61.9434 37.6312ZM36.7384 41.4594L43.1542 32.9698C43.2444 33.0399 43.3548 33.0789 43.469 33.0809C43.5083 33.0776 43.5471 33.0699 43.5847 33.0578L46.825 42.7278C46.7557 42.7763 46.699 42.8407 46.6595 42.9156C46.6201 42.9905 46.5991 43.0737 46.5982 43.1583C46.5982 43.2984 46.6531 43.433 46.751 43.5332L44.4365 47.1855L36.8217 42.0936C36.8784 41.9931 36.901 41.877 36.8859 41.7626C36.8709 41.6482 36.8191 41.5418 36.7384 41.4594ZM26.2814 49.6065C26.2814 49.6065 26.2814 49.5787 26.2814 49.5648C26.2799 49.4825 26.2593 49.4017 26.2213 49.3288L35.9422 42.2232C35.994 42.2791 36.0572 42.3232 36.1274 42.3528L33.0352 50.8795L26.2814 49.6065ZM32.9982 50.9952L31.6094 54.8419L25.0362 54.5688L25.7074 50.1018H25.7676C25.8832 50.101 25.9954 50.0627 26.0873 49.9926C26.1791 49.9224 26.2457 49.8243 26.2768 49.713L32.9982 50.9952ZM35.8126 41.8529C35.8153 41.9519 35.8457 42.0481 35.9005 42.1306L26.1796 49.2362C26.1228 49.1585 26.046 49.0977 25.9574 49.0603L30.3596 35.2658C30.3965 35.267 30.4331 35.2591 30.4661 35.2427L33.1185 33.7984C33.1482 33.7817 33.1737 33.7584 33.1929 33.7303C33.2122 33.7022 33.2247 33.6701 33.2296 33.6364L33.7758 30.16L35.6274 29.8128L36.3125 41.3205C36.1774 41.3299 36.0508 41.3899 35.9581 41.4886C35.8654 41.5874 35.8134 41.7175 35.8126 41.8529ZM25.1659 21.6704L30.7207 19.7216L30.8318 19.7817C30.8661 19.8358 30.9119 19.8817 30.966 19.916L31.0725 19.9808L29.7162 23.8969L25.1612 22.0176C25.205 21.9076 25.205 21.785 25.1612 21.675L25.1659 21.6704ZM26.9203 16.1711L31.3641 16.7636C31.3531 16.7844 31.3438 16.8061 31.3363 16.8284L30.7901 19.2401L30.3781 19.0087L26.9203 16.1711ZM29.8365 18.7171L24.7678 15.8887L26.7073 16.148L29.8365 18.7171ZM30.0171 13.3706L30.9984 14.0649L29.0542 13.3104L30.0171 13.3706ZM28.7302 13.1715L28.3228 13.0141L28.7857 12.5512L29.8134 13.2595L28.7302 13.1715ZM30.23 13.3844L31.1975 13.4492L31.827 14.375L31.4613 14.2408L30.23 13.3844ZM31.341 13.4585L32.4704 13.5326L32.202 14.5185L32.0168 14.4445L31.341 13.4585ZM32.5815 13.5418L36.7477 13.8196L32.3362 14.5139L32.5815 13.5418ZM43.9365 32.8032C43.9832 32.7246 44.0088 32.6353 44.0106 32.5439C44.0094 32.4656 43.991 32.3884 43.9566 32.318C43.9222 32.2476 43.8727 32.1856 43.8115 32.1366L50.2551 24.1284L55.1434 29.785L50.394 37.7331L43.9365 32.8032ZM50.3384 37.8303L47.3064 42.6537C47.253 42.634 47.1967 42.623 47.1398 42.6213C47.0648 42.6214 46.9907 42.6371 46.9222 42.6676L43.6819 33.03C43.7513 32.9971 43.8129 32.9498 43.8625 32.8911L50.3384 37.8303ZM43.719 32.0718L43.631 32.0347L46.3019 20.8834C46.4057 20.8668 46.5022 20.8202 46.5797 20.7492L50.1764 24.0451L43.719 32.0718ZM43.5199 32.0116H43.4644C43.3785 32.0129 43.2943 32.0352 43.219 32.0764L37.7429 24.1423V23.8923C37.7434 23.8574 37.7358 23.8229 37.7205 23.7915C37.7052 23.7602 37.6827 23.7328 37.6549 23.7118L35.5071 22.0638L37.479 19.8975L37.8447 19.7679L45.677 20.4437C45.6932 20.5679 45.7527 20.6824 45.845 20.767C45.9373 20.8517 46.0565 20.9011 46.1816 20.9066L43.5199 32.0116ZM33.7388 29.6971H33.6323L30.7299 27.6835L31.4845 27.2576C31.509 27.294 31.5386 27.3267 31.5724 27.3548L33.9147 29.0722C33.9916 29.1278 34.0837 29.1585 34.1786 29.1601H34.2387C34.3548 29.1407 34.459 29.0778 34.5304 28.9842L35.7802 27.2669C35.8203 27.2103 35.8472 27.1454 35.8589 27.0771L36.2338 24.8366L37.2244 26.3966V26.6466L37.0532 26.9289L33.7388 29.6971ZM36.868 27.1928L35.5487 29.3638L33.9564 29.6601L36.868 27.1928ZM31.3734 33.5484L33.262 30.5673L32.7991 33.4234C32.7764 33.4411 32.7575 33.4631 32.7436 33.4883L32.6139 33.5623L31.3734 33.5484ZM32.4149 33.6688L30.7114 34.5946L31.3039 33.6688H32.4149ZM32.5538 31.4793L32.5862 31.4237C32.6429 31.3224 32.6594 31.2034 32.6325 31.0904L32.1696 29.2712L33.3314 30.0767L33.299 30.2896L32.5538 31.4793ZM31.5354 24.7163L35.7617 24.1793L35.8357 24.2024V24.2534L35.8681 24.3043L35.4052 27.0308L34.1554 28.7481L31.8409 27.0586C31.8409 27.0586 31.8409 27.0586 31.8409 27.0215L31.5354 24.7163ZM31.6557 24.5867L33.0444 23.3739L35.4978 24.096L31.6557 24.5867ZM33.2296 22.8647C33.1324 22.8293 33.0259 22.8293 32.9287 22.8647L31.54 20.2585L34.7803 22.1518C34.8402 22.1844 34.9066 22.2034 34.9747 22.2073L35.0766 22.2675L35.2016 22.3647L35.6645 23.6655L33.2296 22.8647ZM35.0025 21.7213L31.2993 19.5503L31.253 19.5271L35.6274 17.9903L35.0025 21.7213ZM31.3595 20.1659L32.85 22.9434H32.813L31.1836 24.3321C31.1467 24.3654 31.1154 24.4045 31.091 24.4478L29.8041 23.9154L31.1558 20.0132L31.3595 20.1659ZM36.2709 24.7024L36.3403 24.295C36.3543 24.1911 36.3326 24.0855 36.2788 23.9956C36.225 23.9056 36.1422 23.8365 36.044 23.7997L35.7802 23.7118L35.3497 22.4805L37.3031 23.9756L37.243 26.2161L36.2709 24.7024ZM35.6274 21.263L36.8865 18.8467L37.1087 19.6429L35.6274 21.263ZM37.5114 19.4114L36.5162 15.8702L41.2378 18.0829L37.5114 19.4114ZM41.0712 17.8838L36.4745 15.7267L36.4468 15.6203C36.448 15.6064 36.448 15.5925 36.4468 15.5786L37.9281 14.0973L41.0712 17.8838ZM38.5437 14.1482L44.8345 16.8284L41.6914 17.9255L38.5437 14.1482ZM36.3727 15.4768L35.6737 14.4399L37.7475 14.1158L36.3727 15.4768ZM35.1877 14.5185L36.0348 15.7823L36.8541 18.6985L35.5395 21.2167L36.0903 17.8931C36.105 17.7842 36.0804 17.6737 36.0211 17.5813C35.9617 17.4888 35.8714 17.4205 35.7663 17.3885L35.5534 17.3422L32.4566 14.9537L35.1877 14.5185ZM35.6506 17.819V17.8653L33.1509 18.7448L31.7622 16.9766V16.9349L35.6506 17.819ZM33.0537 18.7772L31.2021 19.4253L31.7252 17.1108L33.0537 18.7772ZM29.7717 24.0451L31.0493 24.5728C31.0369 24.6339 31.0369 24.6968 31.0493 24.7579L31.4011 27.1095C31.4096 27.1432 31.422 27.1759 31.4382 27.2067L30.6327 27.6696L29.1051 26.6095L29.0496 26.5818L28.9154 26.5355L29.7717 24.0451ZM30.8457 28.3408L29.8967 28.2019L30.3087 27.9705L30.8457 28.3408ZM31.1836 28.9611L27.7581 29.424L29.1468 28.637L31.1836 28.9611ZM31.5678 29.0213C31.5825 29.0213 31.5966 29.0154 31.6071 29.005C31.6175 28.9946 31.6233 28.9804 31.6233 28.9657C31.6233 28.951 31.6175 28.9368 31.6071 28.9264C31.5966 28.916 31.5825 28.9102 31.5678 28.9102L31.1049 28.8361L31.628 28.9148L32.202 31.2062L30.8133 33.5577H30.6744L27.7211 32.1134C27.7211 32.1134 27.7211 32.1134 27.7211 32.0857L27.5174 29.5675L31.5678 29.0213ZM29.6467 33.5438H27.9109L26.7675 32.8263L27.36 32.4004C27.3958 32.4398 27.4381 32.4727 27.485 32.4976L29.6467 33.5438ZM26.6657 32.7522L24.814 31.595L24.6057 31.2015L27.0452 29.8128L27.235 32.1273C27.2416 32.1891 27.2604 32.2489 27.2906 32.3032L26.6657 32.7522ZM26.5684 32.8217L25.7815 33.3864L24.9251 31.7848L26.5684 32.8217ZM26.6703 32.8865L27.6979 33.5299H26.2028L25.9065 33.4234L26.6703 32.8865ZM27.8785 33.6456L29.1468 34.4418L26.5407 33.6225L27.8785 33.6456ZM28.0914 33.6456H29.8782L30.5957 33.9974C30.6521 34.0242 30.7138 34.0381 30.7762 34.0381C30.8387 34.0381 30.9003 34.0242 30.9568 33.9974L30.4939 34.6918L30.3041 34.7936L29.5681 34.5622L28.0914 33.6456ZM35.7617 29.7989C35.8131 29.7841 35.8575 29.7513 35.8867 29.7064L37.6411 26.8178C37.6424 26.804 37.6424 26.79 37.6411 26.7762C37.6589 26.7452 37.6685 26.7101 37.6688 26.6743C37.6697 26.6636 37.6697 26.6527 37.6688 26.6419L37.7336 24.3274L43.1311 32.132C43.0734 32.1762 43.0257 32.2321 42.991 32.296C42.9564 32.3598 42.9355 32.4303 42.9299 32.5028C42.9242 32.5752 42.9338 32.6481 42.9581 32.7166C42.9824 32.7851 43.0208 32.8477 43.0709 32.9004L36.6504 41.4131C36.5823 41.3682 36.5047 41.3397 36.4236 41.3298L35.7617 29.7989ZM46.8435 43.6027C46.9297 43.6658 47.033 43.7013 47.1398 43.7045L48.2924 47.1531L44.5892 47.2133L46.8435 43.6027ZM48.3387 47.2596L49.2275 49.9074C49.1551 49.9329 49.0933 49.9818 49.0516 50.0462L44.6679 47.3198L48.3387 47.2596ZM47.2555 43.6814C47.3605 43.6591 47.4562 43.6053 47.5299 43.5272C47.6035 43.4491 47.6516 43.3504 47.6677 43.2443C47.6838 43.1381 47.6671 43.0296 47.62 42.9332C47.5728 42.8368 47.4973 42.757 47.4037 42.7046L50.4403 37.8951L54.0324 40.6401C53.9944 40.6827 53.9656 40.7327 53.9477 40.7869C53.9298 40.8412 53.9233 40.8985 53.9285 40.9554C53.9337 41.0122 53.9505 41.0674 53.978 41.1175C54.0054 41.1676 54.0428 41.2115 54.088 41.2465L51.0606 47.1068L48.4313 47.1485L47.2555 43.6814ZM51.1115 47.2179L54.4259 47.1624L50.4403 49.6343L49.6672 49.9953L51.1115 47.2179ZM54.6388 47.1624H55.8377L51.2735 49.2778L54.6388 47.1624ZM54.824 47.0466L57.1848 45.5746L56.4071 46.8707L56.1062 47.0096L54.824 47.0466ZM57.3838 45.4404L59.6983 44.0054L56.6802 46.6254L57.3838 45.4404ZM57.3005 45.3617L54.6064 47.042L51.167 47.0976L54.1435 41.3067C54.1999 41.3336 54.2615 41.3479 54.324 41.3483C54.4394 41.3483 54.5501 41.3025 54.6317 41.2209C54.7133 41.1393 54.7592 41.0286 54.7592 40.9132C54.7607 40.8932 54.7607 40.8731 54.7592 40.853L60.226 40.5336L57.3005 45.3617ZM58.6568 33.6595L54.4675 40.5058C54.4057 40.481 54.3384 40.473 54.2725 40.4827C54.2066 40.4925 54.1445 40.5197 54.0926 40.5614L50.4727 37.784L55.2221 29.8869L58.6799 33.2614C58.6306 33.3205 58.6036 33.3951 58.6036 33.4721C58.6036 33.549 58.6306 33.6236 58.6799 33.6827L58.6568 33.6595ZM55.185 29.6786L50.3477 24.0636L59.9113 20.4205L55.185 29.6786ZM50.2366 23.9479L46.6445 20.6566C46.706 20.5699 46.7399 20.4667 46.7417 20.3604C46.7402 20.2323 46.6925 20.109 46.6075 20.0132L49.1766 14.4306L49.246 14.3843L49.7089 14.662C49.7373 14.6747 49.7681 14.6812 49.7992 14.6812C49.8303 14.6812 49.861 14.6747 49.8894 14.662L50.1163 14.588L54.7221 15.3194L50.2366 23.9479ZM54.8379 15.361L57.2912 15.7499L57.9439 16.8701L50.4403 23.7812L54.8379 15.361ZM47.0565 18.7772L46.5241 19.9345C46.4333 19.8618 46.321 19.8211 46.2047 19.8188H46.177L45.3484 17.1247L49.0099 14.5648L47.0565 18.7772ZM45.2604 16.6294L45.3484 14.9028L48.5887 14.301L45.2604 16.6294ZM46.0659 19.8465C45.96 19.8735 45.8651 19.9324 45.7939 20.0153C45.7226 20.0981 45.6786 20.2008 45.6678 20.3094L38.1132 19.6753L41.6961 18.393L45.2373 17.1756L46.0659 19.8465ZM38.0253 13.639C38.0038 13.6359 37.9819 13.6359 37.9605 13.639L37.2198 13.7548L32.5908 13.4446L33.4888 10.1441L33.5583 10.1117C33.6197 10.0839 33.6744 10.0429 33.7183 9.99176C33.7623 9.94059 33.7946 9.88042 33.8129 9.81547C33.8162 9.78469 33.8162 9.75366 33.8129 9.72289L38.5715 9.29702L38.0253 13.639ZM32.4982 13.4307L31.2623 13.3474L30.0726 11.6162L33.3592 10.195L32.4982 13.4307ZM31.1095 13.3381L30.0726 13.2641L28.9061 12.4633L29.7671 11.6162C29.8199 11.6387 29.8764 11.6513 29.9337 11.6532H29.9847L31.1095 13.3381ZM28.795 12.4123L27.4341 11.4865L27.2952 11.2088L27.5961 9.94045L29.6329 11.556L28.795 12.4123ZM28.7163 12.491L28.221 12.9725L27.5544 11.6671L28.7163 12.491ZM27.9664 13.3706L32.1325 14.9861C32.1704 14.9965 32.2104 14.9965 32.2483 14.9861H32.3269L35.3173 17.3006L31.8826 16.5229H31.7853C31.7169 16.5218 31.6492 16.5372 31.5879 16.5678C31.5267 16.5984 31.4737 16.6434 31.4335 16.6988L26.7536 16.0415L25.314 14.8565L27.8507 13.2595C27.8756 13.3036 27.9148 13.3379 27.9618 13.3567L27.9664 13.3706ZM26.5453 15.9998L24.5178 15.7406L24.203 15.5647L25.2307 14.9166L26.5453 15.9998ZM24.0549 15.5045L23.8929 15.4119L23.9299 13.8751L25.101 14.8426L24.0549 15.5045ZM30.5355 19.6706L25.1103 21.5547C25.0637 21.473 24.9963 21.4052 24.915 21.358C24.8337 21.3109 24.7414 21.2861 24.6474 21.2862C24.6135 21.2828 24.5794 21.2828 24.5456 21.2862L23.9345 15.9304L30.5355 19.6706ZM25.1149 22.1194L29.6699 24.0034L28.8135 26.4799H28.7626L25.0085 22.2675C25.0522 22.2246 25.0882 22.1745 25.1149 22.1194ZM28.8783 26.9706L30.2069 27.8964L29.7162 28.1741L29.2533 28.1047H29.1885C29.1105 28.1057 29.0341 28.1264 28.9663 28.1649L27.2952 29.1185L25.3418 25.7578L28.8783 26.9706ZM24.2493 31.507L25.3834 33.5901L25.3047 33.891L24.1382 35.4417V32.5578C24.1382 32.4351 24.0894 32.3173 24.0026 32.2305C23.9158 32.1437 23.7981 32.0949 23.6753 32.0949H23.6475L22.407 32.2014L23.9947 31.4932L24.2493 31.507ZM23.4253 32.5625L20.5368 34.8122L21.1618 32.7384L21.2451 32.7013L23.4253 32.5625ZM23.6244 32.5625H23.6522L23.6799 36.0203L23.6522 36.062C23.6522 36.062 23.6244 36.062 23.6059 36.062L21.7959 36.9137H21.7867L20.5137 34.9788L23.6244 32.5625ZM23.8605 36.5341C23.9385 36.497 24.0046 36.4387 24.0513 36.3659C24.0979 36.293 24.1232 36.2086 24.1243 36.1222V35.6083L25.2168 34.1734L24.6752 36.2009L22.5273 37.7284L23.2263 36.8026L23.8605 36.5341ZM24.814 36.6545L24.99 36.5295C25.0331 36.4996 25.0643 36.4553 25.0779 36.4045L25.7584 33.8586L29.9245 35.1686L24.1428 38.5941L24.814 36.6545ZM29.6097 35.4926L23.592 40.3531L24.1475 38.7468L29.6097 35.4926ZM23.3976 40.4596L22.12 40.9965L16.0374 43.6258L15.5005 43.848L23.9577 38.8301L23.3976 40.4596ZM23.4253 40.6679C23.4327 40.6651 23.4395 40.6607 23.445 40.6552C23.4506 40.6496 23.455 40.6429 23.4577 40.6355L23.4855 40.5475L30.1189 35.2103L30.2346 35.2473L25.8324 49.0418C25.8032 49.0392 25.7737 49.0392 25.7445 49.0418C25.6153 49.0418 25.4906 49.0887 25.3935 49.1739C25.2964 49.2591 25.2336 49.3766 25.2168 49.5047L18.7778 48.1159L23.3744 40.6864L23.4253 40.6679ZM25.314 49.8703C25.3788 49.9658 25.4731 50.0373 25.5825 50.074L24.9113 54.5595L15.1903 54.1568L25.314 49.8703ZM24.9807 54.6706L31.4937 54.9391L23.3281 65.6784L24.9807 54.6706ZM31.6326 54.9391H31.6604L35.6413 54.828L27.4757 62.1604L27.3646 62.2576L27.3322 62.29L23.4531 65.7664L31.6326 54.9391ZM31.6928 54.8141L33.0815 50.9998L35.8589 51.5229C35.8574 51.5414 35.8574 51.56 35.8589 51.5785C35.8595 51.656 35.8857 51.7311 35.9334 51.7922C35.9811 51.8534 36.0477 51.897 36.1227 51.9164L35.7524 54.6938L31.6928 54.8141ZM36.2199 51.9303C36.3001 51.9283 36.3771 51.8986 36.4378 51.8463C36.4986 51.794 36.5394 51.7222 36.5532 51.6433L39.6362 52.3561L35.8728 54.6475L36.2199 51.9303ZM36.5486 51.5322C36.5407 51.4572 36.5086 51.3868 36.4572 51.3317C36.4058 51.2766 36.3378 51.2397 36.2635 51.2267C36.1893 51.2136 36.1128 51.225 36.0457 51.2593C35.9785 51.2935 35.9243 51.3487 35.8913 51.4164L33.1139 50.8934L36.257 42.3852C36.2893 42.3883 36.3219 42.3883 36.3542 42.3852C36.4388 42.3844 36.522 42.3633 36.5969 42.3239C36.6717 42.2844 36.7361 42.2277 36.7847 42.1584L44.3902 47.2503L39.7935 52.2774L36.5486 51.5322ZM44.4642 47.329L48.9544 50.2314L42.0525 52.0321L39.8815 52.3145L44.4642 47.329ZM42.8394 52.2821L49.2229 53.9578L49.2645 57.786L47.8758 56.6796L42.6265 52.3515L42.8394 52.2821ZM43.0616 52.2265L49.2553 50.611V53.8513L43.0616 52.2265ZM48.4544 47.2549L50.9865 47.2133L49.5608 49.9907C49.498 49.9353 49.4176 49.9042 49.334 49.9027L48.4544 47.2549ZM49.4126 50.5786H49.4682L53.3658 55.0919L49.4358 57.786L49.3849 50.5971L49.4126 50.5786ZM49.5793 50.523L56.5506 47.2827L56.9579 52.6061L53.4538 55.0086L49.5793 50.523ZM56.9857 52.745L57.5181 59.6885L53.5464 55.0872L56.9857 52.745ZM56.6848 47.3383L62.7581 48.6529L57.0644 52.5691L56.6848 47.3383ZM56.6848 47.2272L56.8654 47.0698L64.4338 47.5049L62.8785 48.5696L56.6848 47.2272ZM64.6005 47.5281L64.6467 47.5836L67.5723 49.5926L63.0312 48.6066L64.6005 47.5281ZM56.9857 46.968L61.087 43.4036L64.3273 47.204L64.4847 47.4031L56.9857 46.968ZM60.8 43.0611L60.2445 43.524L57.5366 45.2089L60.3603 40.5336L63.8367 40.3207L60.7815 43.0703L60.8 43.0611ZM62.0961 37.6497L63.6885 35.0019L63.8644 40.0707L62.0961 37.6497ZM63.795 34.8723L64.7208 37.3998L63.9524 40.0707L63.795 34.8723ZM63.7441 34.752L59.3187 33.4512C59.3196 33.4373 59.3196 33.4234 59.3187 33.4096L64.2625 32.9467L63.7441 34.752ZM59.2725 33.2985L59.2493 33.2614L64.281 30.3822L64.332 32.817L59.2725 33.2985ZM59.166 33.1827C59.1098 33.1388 59.0406 33.115 58.9692 33.115C58.8979 33.115 58.8287 33.1388 58.7725 33.1827L55.3332 29.8267L62.8229 28.35L64.2116 30.2896L59.166 33.1827ZM62.7442 28.2482L55.5322 29.6554L61.9527 26.017L62.7442 28.2482ZM62.0638 25.9707L62.9386 25.4569L62.7674 28.0029L62.0638 25.9707ZM63.0636 25.406L63.6006 25.1005L62.9109 27.7205L63.0636 25.406ZM63.0636 25.2718L63.2071 23.1285L63.6422 24.9477L63.0636 25.2718ZM62.9479 25.3366L62.0221 25.8643L60.1612 20.4761L63.1377 22.7906L62.9479 25.3366ZM61.9202 25.9198L55.3424 29.6462L60.0131 20.4668L61.9202 25.9198ZM50.5051 23.8692L58.0041 16.9719L59.9437 20.2863L50.5051 23.8692ZM58.0921 16.8793L58.9808 16.06L59.9066 19.953L58.0921 16.8793ZM58.0365 16.7821L57.4394 15.7638L58.8929 15.9952L58.0365 16.7821ZM57.3838 15.6527L56.1293 13.5048L58.8512 15.8841L57.3838 15.6527ZM57.2403 15.6527L54.9258 15.2823L55.921 13.3752L57.2403 15.6527ZM54.8008 15.2638L50.3755 14.5602L51.0421 14.3473L55.8007 13.3428L54.8008 15.2638ZM49.8709 14.2547L49.371 13.9538C49.3336 13.9306 49.29 13.9193 49.246 13.9214L48.3989 11.2181L50.1625 13.2224L50.8199 13.9121L49.8709 14.2547ZM38.7057 9.17666L37.9975 5.76971L39.5436 6.51961L45.4317 9.43589L38.7057 9.17666ZM38.5946 9.17666L33.8406 9.60253C33.8328 9.58183 33.8235 9.56172 33.8129 9.54235L37.8957 5.816L38.5946 9.17666ZM33.7758 9.44052L32.4427 7.73704L35.3497 6.01041L37.8401 5.76045L33.7758 9.44052ZM33.387 9.65808C33.3793 9.66302 33.3732 9.66992 33.3691 9.67806C33.365 9.68621 33.3632 9.69529 33.3638 9.70437L29.9245 11.1949L27.7257 9.47292L32.0353 7.94997L33.387 9.65808ZM27.5776 9.05631C27.5208 9.07834 27.4688 9.11137 27.4248 9.15352C27.3958 9.16648 27.37 9.18563 27.3493 9.20962C27.3285 9.23361 27.3132 9.26186 27.3045 9.29239L24.1475 8.16291L27.3878 7.55651L30.0448 8.18605L27.5776 9.05631ZM27.2721 9.40348L26.8323 11.1857C26.8142 11.235 26.8142 11.2891 26.8323 11.3384L27.7581 13.1622L25.1844 14.7824L23.916 13.7362L24.0503 8.26012L27.2721 9.40348ZM23.8466 13.6529L21.9163 12.0605L23.9762 8.29252L23.8466 13.6529ZM23.8466 13.7964L23.8096 15.361L23.6846 15.2916L22.0644 12.329L23.8466 13.7964ZM23.4855 15.6897L20.2915 17.2867L21.87 15.7082L23.0874 15.6851H23.4902L23.4855 15.6897ZM23.6012 15.7545L23.8142 15.8748L24.4437 21.3556C24.3735 21.3852 24.3104 21.4294 24.2586 21.4852L20.0276 17.583V17.5274L23.6012 15.7545ZM24.1984 21.5547C24.146 21.6363 24.1172 21.7308 24.1151 21.8278C24.1126 21.9004 24.1248 21.9729 24.1509 22.0407C24.177 22.1086 24.2165 22.1705 24.267 22.2228C24.3175 22.275 24.3781 22.3166 24.445 22.3449C24.512 22.3733 24.584 22.3879 24.6567 22.3879C24.748 22.386 24.8374 22.3605 24.9159 22.3138L28.5497 26.3873L25.2168 25.2579L24.5965 24.9477L19.2037 20.6288L19.9952 17.6894L24.1984 21.5547ZM24.1104 24.67L20.6757 22.9434L19.3888 20.9112L24.1104 24.67ZM19.6573 24.8274L18.8102 24.795L20.3795 23.3553L19.6573 24.8274ZM19.5786 24.9894L19.324 25.5217L18.801 24.9338L19.5786 24.9894ZM19.2731 25.6282L17.9353 28.438L18.6575 24.9338L19.2731 25.6282ZM19.3518 25.7161L24.0549 31.0349L23.8234 31.0071L17.9585 28.6926L19.3518 25.7161ZM23.3929 30.9284L20.0138 30.5303H19.986L18.1344 28.8315L23.3929 30.9284ZM19.9628 30.9747L23.7725 31.4376L22.0922 32.2014L21.1664 32.2616C21.0799 32.2701 20.9975 32.3029 20.9287 32.3561C20.8599 32.4093 20.8076 32.4808 20.7775 32.5625L17.7965 31.8172L19.8888 30.9654C19.9136 30.9835 19.942 30.9962 19.9721 31.0025L19.9628 30.9747ZM17.2502 34.1409L16.4309 35.4417L16.3337 33.4559L17.4678 31.9792L17.2502 34.1409ZM16.4726 35.5621L17.3289 34.2243L20.0554 34.8816C20.0438 34.9783 20.065 35.0761 20.1156 35.1593L21.2404 36.8582H17.9261L16.4679 35.5852L16.4726 35.5621ZM21.3145 36.9508L21.4441 37.1452C21.5043 37.2302 21.5914 37.2925 21.6914 37.3219C21.7914 37.3513 21.8983 37.3461 21.995 37.3072L22.9486 36.8813L22.2033 37.9645L21.2358 38.6542L19.5462 37.7562L18.0696 36.9508H21.3145ZM21.2034 39.1588L21.546 38.9181H21.5784L21.8607 38.7005L24.6381 36.7147L24.0179 38.682L15.0839 43.9637L21.1618 39.2236C21.1811 39.2201 21.1998 39.2138 21.2173 39.2051L21.2034 39.1588ZM18.5001 42.7231L23.2124 40.7604L18.676 48.0928L14.8894 47.2874L14.8339 44.3248L18.5001 42.7231ZM23.1291 66.2339H23.0921L23.18 66.1552L23.1291 66.2339ZM23.1291 65.9654C23.1246 65.9732 23.1223 65.982 23.1223 65.9909C23.1223 65.9998 23.1246 66.0086 23.1291 66.0164L23.018 66.1645C23.0112 66.1739 23.0076 66.1853 23.0076 66.1969C23.0076 66.2085 23.0112 66.2198 23.018 66.2293L21.7728 66.1599L14.8756 54.2957C14.8756 54.2957 14.8756 54.2957 14.9033 54.2957H14.9357L14.9866 54.2587L24.8927 54.666L23.2124 65.8636L23.1291 65.9654ZM23.2911 66.058L23.9206 65.4933L23.2865 66.0904L23.2911 66.058ZM23.6429 66.3635L27.6655 62.577L36.1089 55.1197L40.0019 52.745L41.8535 52.4996C41.8749 52.5029 41.8968 52.5029 41.9183 52.4996L48.9729 58.235L55.8516 66.345L23.6429 66.3635ZM56.3006 66.1552L49.3802 57.9943C49.39 57.9898 49.3982 57.9826 49.404 57.9736C49.4097 57.9646 49.4127 57.9541 49.4126 57.9434V57.9063L53.4121 55.1659L57.4579 59.8551L58.0411 66.2941L56.3006 66.1552ZM58.1985 66.2293L57.6292 59.9292L60.8695 61.4892L58.1985 66.2293ZM61.1194 61.0124L60.9065 61.3873L57.6199 59.795V59.7626L57.0783 52.6663L62.8923 48.6807L67.651 49.713L61.1194 61.0124ZM67.9611 49.3334L67.9287 49.301L64.9337 47.2457L61.4018 43.0796L64.2024 40.5568C64.2635 40.5003 64.3083 40.4283 64.332 40.3485L65.1652 37.4877C65.1936 37.3973 65.1936 37.3004 65.1652 37.21L64.2764 34.789L64.7393 32.9374C64.7446 32.8975 64.7446 32.857 64.7393 32.817L64.6884 30.2665C64.6854 30.1768 64.6565 30.09 64.6051 30.0165L63.2673 28.1649L64.0496 25.0357C64.0661 24.9657 64.0661 24.8928 64.0496 24.8227L63.5312 22.6378C63.5065 22.5412 63.4513 22.4552 63.3738 22.3925L60.4251 20.041L59.4715 15.8748C59.4501 15.7839 59.4017 15.7017 59.3326 15.6388L56.208 12.8614C56.1254 12.7907 56.0205 12.7513 55.9118 12.7503H55.8238L51.2272 13.6761L50.4588 12.866L48.6072 10.7459C48.5752 10.7094 48.5378 10.6782 48.4961 10.6533L45.7187 9.03779H45.6909L39.7426 6.11688L38.1271 5.35309C38.0664 5.32369 38.0001 5.30789 37.9327 5.3068H37.8864L35.2849 5.56603C35.2212 5.57337 35.1597 5.59386 35.1044 5.62621L31.864 7.55188L30.6929 7.89905L27.4665 7.12601H27.3646H27.2813L23.9484 7.75092C23.8839 7.76379 23.8229 7.79027 23.7694 7.82858C23.7159 7.8669 23.6712 7.91617 23.6383 7.97312L21.5089 11.8707C21.4748 11.9366 21.4571 12.0096 21.4571 12.0837C21.4571 12.1578 21.4748 12.2308 21.5089 12.2966L23.1291 15.2314H21.8468C21.7315 15.233 21.6209 15.2775 21.5367 15.3564L19.7684 17.0738C19.7113 17.1301 19.6699 17.2003 19.6481 17.2774L18.7639 20.5548C18.7488 20.6139 18.7455 20.6754 18.7543 20.7358C18.763 20.7961 18.7836 20.8542 18.8148 20.9066L20.0832 22.9434L18.3705 24.5681C18.3056 24.631 18.2605 24.7114 18.2408 24.7996L17.4585 28.6C17.4448 28.6751 17.4499 28.7525 17.4733 28.8252C17.4967 28.8979 17.5378 28.9636 17.5928 29.0166L19.4259 30.6738L17.3752 31.5024C17.3022 31.5336 17.2385 31.583 17.1901 31.6459L15.9911 33.2059C15.9281 33.2898 15.8955 33.3926 15.8986 33.4975L16.0004 35.5806C16.0082 35.7014 16.063 35.8144 16.1532 35.8953L17.7687 37.284L17.8474 37.3396L20.7914 38.9412L14.4775 43.8758L12.237 45.0377L10.1354 46.0884H10.1123L3.63167 34.9001L21.8098 3.46445H58.1291L76.2887 34.9186L67.9611 49.3334Z" fill="white"/>
<path opacity="0.05" d="M64.6875 47.5185L61.137 43.1626L56.957 46.9121L64.6875 47.5185Z" fill="white"/>
<path d="M16.6317 72.4214V75.4765H19.388L21.4792 72.4254H23.1481L20.6308 76.074L23.3353 80.316H21.6226L19.4318 76.7869H16.6436V80.312H15.1738V72.4214H16.6317Z" fill="#407BFF"/>
<path d="M33.5528 72.4535V80.3442H32.0791V73.764H28.5539L27.6737 78.3845C27.619 78.9505 27.3441 79.4723 26.9082 79.8374C26.4723 80.2026 25.9103 80.3817 25.3435 80.3362H24.5469V78.9819H25.2479C25.3669 78.9964 25.4876 78.9873 25.6031 78.955C25.7186 78.9228 25.8266 78.8682 25.9209 78.7942C26.0152 78.7202 26.0941 78.6283 26.1529 78.5238C26.2117 78.4194 26.2493 78.3043 26.2636 78.1853L27.359 72.4336L33.5528 72.4535Z" fill="#407BFF"/>
<path d="M41.3514 72.4694L44.6893 80.368H43.1637L42.6061 79.1213H37.2248L36.6791 80.3601H35.1416L38.6229 72.4614L41.3514 72.4694ZM37.7864 77.8268H42.0405L40.3914 73.756H39.4952L37.7864 77.8268Z" fill="#407BFF"/>
<path d="M51.3694 72.4888C52.7954 72.4888 53.7792 73.2854 53.7593 74.5361C53.7794 74.8134 53.7281 75.0911 53.6103 75.3429C53.4924 75.5946 53.312 75.8119 53.0862 75.974C53.4688 76.1416 53.7911 76.4222 54.0097 76.7782C54.2282 77.1342 54.3327 77.5486 54.309 77.9656C54.309 79.292 53.2495 80.3914 51.692 80.3874H46.2988V72.4967L51.3694 72.4888ZM47.7846 79.061H51.6681C52.4966 79.061 52.9268 78.579 52.9268 77.9656C52.9342 77.8195 52.9102 77.6736 52.8564 77.5375C52.8026 77.4015 52.7203 77.2786 52.615 77.177C52.5097 77.0755 52.3838 76.9977 52.2459 76.9489C52.108 76.9001 51.9613 76.8814 51.8155 76.8942H47.7925L47.7846 79.061ZM47.7846 75.6195H51.4969C51.6139 75.6213 51.7301 75.5991 51.8383 75.5544C51.9465 75.5096 52.0444 75.4433 52.1261 75.3594C52.2078 75.2755 52.2714 75.1758 52.3132 75.0664C52.355 74.9571 52.3741 74.8403 52.3692 74.7233C52.3692 74.2374 52.1143 73.7952 51.2858 73.7952H47.7885L47.7846 75.6195Z" fill="#407BFF"/>
<path d="M61.4227 72.5054L64.7606 80.404H63.2351L62.6934 79.1612H57.3121L56.7664 80.4H55.209L58.6783 72.5133L61.4227 72.5054ZM57.8578 77.8627H62.1118L60.4628 73.7919H59.5626L57.8578 77.8627Z" fill="#407BFF"/>
</svg>
