<svg width="36" height="25" viewBox="0 0 36 25" fill="none" xmlns="http://www.w3.org/2000/svg">
<path d="M35.9298 4.07025C35.9298 3.00193 35.5198 2.03045 34.8533 1.30969C34.8329 1.2857 34.8117 1.26299 34.7896 1.2413C34.0778 0.506672 33.0917 0.0507812 32.0034 0.0507812H3.92632C1.76133 0.0507812 0 1.85394 0 4.07025V20.9292C0 21.9955 0.408491 22.9654 1.0727 23.6857C1.07439 23.6877 1.07572 23.6899 1.0774 23.6919C1.10625 23.7263 1.13705 23.7577 1.16898 23.7873C1.87853 24.5048 2.85263 24.9487 3.92639 24.9487H32.0036C33.0326 24.9487 33.97 24.5408 34.6709 23.8753C34.7435 23.8239 34.8116 23.7636 34.8719 23.6919C34.9037 23.6539 34.9314 23.6139 34.9573 23.573C35.5621 22.8658 35.93 21.9409 35.93 20.9292V4.07025H35.9298ZM3.92632 2.20631H32.0035V2.20624C32.0233 2.20624 32.0429 2.2071 32.0626 2.20775L18.6175 12.5656C18.2286 12.8575 17.7076 12.8575 17.3185 12.5656L3.87333 2.20768C3.89095 2.20718 3.90856 2.20631 3.92632 2.20631ZM2.10554 20.9292V4.07025C2.10554 3.90445 2.12709 3.74374 2.16695 3.59065L12.8986 11.8582L2.14779 21.3274C2.12042 21.199 2.10554 21.0659 2.10554 20.9292ZM32.0034 22.7932H3.92632C3.85825 22.7932 3.79116 22.7891 3.72505 22.7816L14.6208 13.1848L16.0573 14.2914L16.065 14.2973C16.6342 14.7276 17.301 14.9425 17.9681 14.9425C18.635 14.9425 19.3021 14.7274 19.8712 14.2973L21.3223 13.1794L32.2216 22.7794C32.15 22.7881 32.0774 22.7932 32.0034 22.7932ZM33.8243 20.9292C33.8243 21.0608 33.8107 21.1892 33.7853 21.3132L23.0444 11.8527L33.764 3.5946C33.8032 3.74647 33.8243 3.90588 33.8243 4.07025V20.9292Z" fill="white"/>
</svg>
