<svg width="32" height="32" viewBox="0 0 32 32" fill="none" xmlns="http://www.w3.org/2000/svg">
<path d="M25.2499 20.0541L25.25 20.0541L29.606 23.0976L29.5487 23.1796L29.606 23.0976C30.895 23.9983 31.43 25.6253 30.901 27.0555L30.9009 27.0557C30.7497 27.4626 30.5666 27.8398 30.3555 28.177L30.3527 28.1814L30.3526 28.1814L29.9287 28.7861L29.9261 28.79L29.926 28.7899C29.7864 28.9704 29.6561 29.1135 29.5203 29.2492C28.7726 29.9969 27.8282 30.5258 26.715 30.8235L26.7149 30.8235C26.0273 31.0072 25.2745 31.1 24.4776 31.1H24.4776H24.4776H24.4776H24.4775H24.4775H24.4775H24.4775H24.4775H24.4775H24.4775H24.4774H24.4774H24.4774H24.4774H24.4774H24.4774H24.4773H24.4773H24.4773H24.4773C19.8313 31.0993 13.8783 28.0135 8.9338 23.069C5.98783 20.1231 3.73439 16.8669 2.37431 13.755C1.01511 10.6451 0.543716 7.66869 1.17873 5.28827L1.17875 5.28819C1.47668 4.17502 2.00559 3.23058 2.75297 2.48353L25.2499 20.0541ZM25.2499 20.0541C24.6635 19.6452 23.9778 19.4294 23.2668 19.4294M25.2499 20.0541L23.2668 19.4294M3.84518 3.57574L3.84516 3.57577C3.29471 4.1259 2.89892 4.83532 2.67109 5.68723C2.12152 7.74792 2.59147 10.4534 3.88917 13.3345C5.18558 16.2127 7.30244 19.2531 10.026 21.9768C14.7097 26.6605 20.2502 29.5546 24.4776 29.5552C25.1425 29.5552 25.7608 29.4792 26.3164 29.3314C27.1676 29.1036 27.877 28.7078 28.4275 28.1576C28.5194 28.0651 28.6068 27.9712 28.6859 27.8695L29.067 27.3256C29.2016 27.1086 29.3378 26.8275 29.4524 26.5192C29.7353 25.7538 29.4392 24.8654 28.7209 24.3634C28.7209 24.3634 28.7209 24.3634 28.7209 24.3633L24.3663 21.3206C23.5258 20.7349 22.2778 20.9596 21.6954 21.7948L21.6954 21.7948L20.3116 23.7778L3.84518 3.57574ZM3.84518 3.57574C3.93792 3.48301 4.03163 3.39574 4.10677 3.33637L4.64767 2.95537C4.89641 2.79979 5.17728 2.66397 5.48323 2.55085C5.67345 2.48073 5.87315 2.44477 6.07694 2.44477C6.68746 2.44477 7.27214 2.75644 7.63916 3.28127C7.63917 3.28128 7.63917 3.28129 7.63918 3.2813L10.6815 7.63586C10.6815 7.63587 10.6815 7.63589 10.6816 7.6359C10.9758 8.05892 11.0886 8.56794 10.9994 9.07155C10.9101 9.57518 10.6296 10.0136 10.2078 10.307L10.2077 10.3071M3.84518 3.57574L10.2077 10.3071M10.2077 10.3071L8.225 11.6906L8.22495 11.6907M10.2077 10.3071L8.22495 11.6907M8.22495 11.6907C7.88713 11.9267 7.79354 12.386 8.01304 12.7353L8.01305 12.7353M8.22495 11.6907L8.01305 12.7353M8.01305 12.7353C9.21798 14.652 11.021 16.8456 13.0893 18.9133M8.01305 12.7353L13.0893 18.9133M19.2675 23.99L19.2672 23.9898C17.3512 22.7845 15.1575 20.9815 13.0893 18.9133C13.0893 18.9133 13.0893 18.9133 13.0893 18.9133M19.2675 23.99L13.16 18.8425L13.0893 18.9133M19.2675 23.99C19.6163 24.2077 20.0763 24.1154 20.3116 23.7779L19.2675 23.99ZM23.2668 19.4294C22.1362 19.4294 21.075 19.9838 20.4286 20.9115L23.2668 19.4294ZM3.18649 2.09641C3.03196 2.21652 2.88895 2.34754 2.75298 2.48351L20.4286 20.9115L19.4737 22.28C17.8063 21.1517 15.9518 19.5911 14.1815 17.821C12.4115 16.051 10.8511 14.1965 9.72318 12.5292L11.091 11.5743C11.8511 11.045 12.3591 10.2516 12.5204 9.34152L12.5204 9.34149C12.6813 8.43217 12.4783 7.51301 11.9485 6.75267L11.9484 6.75258L8.90559 2.39651L8.90557 2.39647C8.25115 1.46044 7.19433 0.9 6.07694 0.9C5.68947 0.9 5.30939 0.968435 4.94773 1.10186L4.94769 1.10187C4.5432 1.25126 4.16597 1.43485 3.79614 1.66716L3.79606 1.66704L3.79176 1.67008L3.19028 2.0936L3.19022 2.09351L3.18649 2.09641Z" fill="white" stroke="white" stroke-width="0.2"/>
</svg>
