<svg width="18" height="8" viewBox="0 0 18 8" fill="none" xmlns="http://www.w3.org/2000/svg">
<path d="M17.8724 3.71927L13.8777 0.0854919C13.7667 -0.00447178 13.6454 -0.0217809 13.5136 0.0336009C13.3819 0.0890554 13.3158 0.189346 13.3158 0.334764V2.66037H0.332891C0.235749 2.66037 0.155951 2.69146 0.0936073 2.75375C0.0312996 2.816 0 2.89564 0 2.99251V4.98582C0 5.08266 0.0311538 5.16229 0.0935709 5.22447C0.156061 5.28673 0.235858 5.31782 0.332854 5.31782H13.3159V7.64338C13.3159 7.782 13.3821 7.88229 13.5137 7.9444C13.6456 8 13.7669 7.97898 13.8779 7.88229L17.8726 4.20677C17.942 4.1376 17.9765 4.05469 17.9765 3.95771C17.9765 3.86797 17.9417 3.78847 17.8724 3.71927Z" fill="#407BFF"/>
</svg>
