<svg width="33" height="33" viewBox="0 0 33 33" fill="none" xmlns="http://www.w3.org/2000/svg">
<path d="M32.45 9.9H27.401C27.2868 9.57949 27.0767 9.30194 26.7992 9.10511C26.5217 8.90829 26.1902 8.80175 25.85 8.8H24.75C24.4098 8.80175 24.0783 8.90829 23.8008 9.10511C23.5233 9.30194 23.3132 9.57949 23.199 9.9H22.55C20.1516 9.90426 17.8464 10.8294 16.1105 12.4845C14.3746 14.1395 13.3406 16.398 13.222 18.7935C12.8957 18.9031 12.612 19.1122 12.4108 19.3914C12.2095 19.6706 12.1008 20.0058 12.1 20.35V21.45C12.1018 21.7902 12.2083 22.1217 12.4051 22.3992C12.6019 22.6767 12.8795 22.8868 13.2 23.001V23.65C13.2 24.3793 12.9103 25.0788 12.3945 25.5945C11.8788 26.1103 11.1793 26.4 10.45 26.4C9.72065 26.4 9.02118 26.1103 8.50546 25.5945C7.98973 25.0788 7.7 24.3793 7.7 23.65V4.301C8.02051 4.18684 8.29806 3.9767 8.49489 3.69918C8.69171 3.42166 8.79825 3.09023 8.8 2.75V1.65C8.79869 1.21279 8.62444 0.793869 8.31528 0.484716C8.00613 0.175564 7.58721 0.00130575 7.15 0H1.65C1.21279 0.00130575 0.793869 0.175564 0.484716 0.484716C0.175564 0.793869 0.00130575 1.21279 0 1.65V2.75C0.00175244 3.09023 0.10829 3.42166 0.305114 3.69918C0.501939 3.9767 0.779491 4.18684 1.1 4.301V23.65C1.1 26.1298 2.08509 28.508 3.83855 30.2614C5.59202 32.0149 7.97023 33 10.45 33C12.9298 33 15.308 32.0149 17.0614 30.2614C18.8149 28.508 19.8 26.1298 19.8 23.65V23.001C20.1205 22.8868 20.3981 22.6767 20.5949 22.3992C20.7917 22.1217 20.8982 21.7902 20.9 21.45V20.35C20.899 20.0176 20.7977 19.6933 20.6093 19.4195C20.4208 19.1457 20.1541 18.9352 19.844 18.8155C19.9461 18.1709 20.2746 17.5837 20.7705 17.1594C21.2664 16.735 21.8973 16.5012 22.55 16.5H23.199C23.3132 16.8205 23.5233 17.0981 23.8008 17.2949C24.0783 17.4917 24.4098 17.5982 24.75 17.6H25.85C26.1902 17.5982 26.5217 17.4917 26.7992 17.2949C27.0767 17.0981 27.2868 16.8205 27.401 16.5H32.45C32.5959 16.5 32.7358 16.4421 32.8389 16.3389C32.9421 16.2358 33 16.0959 33 15.95V10.45C33 10.3041 32.9421 10.1642 32.8389 10.0611C32.7358 9.95795 32.5959 9.9 32.45 9.9ZM1.1 2.75V1.65C1.1 1.50413 1.15795 1.36424 1.26109 1.26109C1.36424 1.15795 1.50413 1.1 1.65 1.1H7.15C7.29587 1.1 7.43576 1.15795 7.53891 1.26109C7.64205 1.36424 7.7 1.50413 7.7 1.65V2.75C7.7 2.89587 7.64205 3.03576 7.53891 3.13891C7.43576 3.24205 7.29587 3.3 7.15 3.3H1.65C1.50413 3.3 1.36424 3.24205 1.26109 3.13891C1.15795 3.03576 1.1 2.89587 1.1 2.75ZM18.7 23.65C18.7 25.838 17.8308 27.9365 16.2836 29.4836C14.7365 31.0308 12.638 31.9 10.45 31.9C8.26196 31.9 6.16354 31.0308 4.61637 29.4836C3.06919 27.9365 2.2 25.838 2.2 23.65V4.4H6.6V23.65C6.6 24.6711 7.00562 25.6503 7.72764 26.3724C8.44965 27.0944 9.42892 27.5 10.45 27.5C11.4711 27.5 12.4503 27.0944 13.1724 26.3724C13.8944 25.6503 14.3 24.6711 14.3 23.65V23.1H18.7V23.65ZM19.8 21.45C19.8 21.5959 19.7421 21.7358 19.6389 21.8389C19.5358 21.9421 19.3959 22 19.25 22H13.75C13.6041 22 13.4642 21.9421 13.3611 21.8389C13.2579 21.7358 13.2 21.5959 13.2 21.45V20.35C13.2 20.2041 13.2579 20.0642 13.3611 19.9611C13.4642 19.8579 13.6041 19.8 13.75 19.8H19.25C19.3959 19.8 19.5358 19.8579 19.6389 19.9611C19.7421 20.0642 19.8 20.2041 19.8 20.35V21.45ZM23.1 15.4H22.55C21.625 15.4011 20.7313 15.7352 20.0324 16.3411C19.3335 16.9471 18.8761 17.7845 18.744 18.7H14.3275C14.4688 16.6141 15.396 14.6594 16.9221 13.2304C18.4481 11.8013 20.4593 11.0043 22.55 11H23.1V15.4ZM26.4 15.95C26.4 16.0959 26.3421 16.2358 26.2389 16.3389C26.1358 16.4421 25.9959 16.5 25.85 16.5H24.75C24.6041 16.5 24.4642 16.4421 24.3611 16.3389C24.2579 16.2358 24.2 16.0959 24.2 15.95V10.45C24.2 10.3041 24.2579 10.1642 24.3611 10.0611C24.4642 9.95795 24.6041 9.9 24.75 9.9H25.85C25.9959 9.9 26.1358 9.95795 26.2389 10.0611C26.3421 10.1642 26.4 10.3041 26.4 10.45V15.95ZM31.9 15.4H27.5V11H31.9V15.4Z" fill="#D7D7D7"/>
<path d="M6.49609 29.6082C7.66736 30.3874 9.04325 30.8022 10.45 30.8V29.7C9.2599 29.7018 8.0959 29.351 7.10494 28.6919L6.49609 29.6082Z" fill="#D7D7D7"/>
<path d="M11.459 29.6166L11.6405 30.7012C12.0462 30.6335 12.4452 30.5304 12.8329 30.3932L12.4666 29.3564C12.1387 29.4717 11.8016 29.5587 11.459 29.6166Z" fill="#D7D7D7"/>
</svg>
