<svg width="58" height="58" viewBox="0 0 58 58" fill="none" xmlns="http://www.w3.org/2000/svg">
<path d="M57.0333 17.4H48.1593C47.9587 16.8367 47.5893 16.3489 47.1016 16.0029C46.6138 15.657 46.0313 15.4697 45.4333 15.4667H43.5C42.902 15.4697 42.3195 15.657 41.8317 16.0029C41.344 16.3489 40.9746 16.8367 40.774 17.4H39.6333C35.4179 17.4075 31.3663 19.0336 28.3154 21.9424C25.2644 24.8513 23.4471 28.8207 23.2387 33.031C22.6652 33.2236 22.1666 33.5911 21.8129 34.0818C21.4592 34.5725 21.2681 35.1618 21.2667 35.7667V37.7C21.2697 38.298 21.457 38.8805 21.8029 39.3682C22.1489 39.856 22.6367 40.2254 23.2 40.426V41.5667C23.2 42.8485 22.6908 44.0779 21.7843 44.9843C20.8779 45.8908 19.6485 46.4 18.3667 46.4C17.0848 46.4 15.8554 45.8908 14.949 44.9843C14.0426 44.0779 13.5333 42.8485 13.5333 41.5667V7.55933C14.0967 7.35869 14.5845 6.98935 14.9304 6.50159C15.2763 6.01382 15.4636 5.43131 15.4667 4.83333V2.9C15.4644 2.13158 15.1581 1.39528 14.6147 0.851926C14.0714 0.308567 13.3351 0.00229495 12.5667 0H2.9C2.13158 0.00229495 1.39528 0.308567 0.851926 0.851926C0.308567 1.39528 0.00229495 2.13158 0 2.9V4.83333C0.00308004 5.43131 0.190328 6.01382 0.536262 6.50159C0.882196 6.98935 1.37001 7.35869 1.93333 7.55933V41.5667C1.93333 45.9251 3.6647 50.1049 6.74655 53.1868C9.82839 56.2686 14.0083 58 18.3667 58C22.7251 58 26.9049 56.2686 29.9868 53.1868C33.0686 50.1049 34.8 45.9251 34.8 41.5667V40.426C35.3633 40.2254 35.8511 39.856 36.1971 39.3682C36.543 38.8805 36.7303 38.298 36.7333 37.7V35.7667C36.7316 35.1825 36.5535 34.6124 36.2223 34.1312C35.8911 33.65 35.4223 33.28 34.8773 33.0697C35.0568 31.9367 35.6342 30.9047 36.5058 30.1589C37.3774 29.413 38.4862 29.0022 39.6333 29H40.774C40.9746 29.5633 41.344 30.0511 41.8317 30.3971C42.3195 30.743 42.902 30.9303 43.5 30.9333H45.4333C46.0313 30.9303 46.6138 30.743 47.1016 30.3971C47.5893 30.0511 47.9587 29.5633 48.1593 29H57.0333C57.2897 29 57.5356 28.8982 57.7169 28.7169C57.8982 28.5356 58 28.2897 58 28.0333V18.3667C58 18.1103 57.8982 17.8644 57.7169 17.6831C57.5356 17.5018 57.2897 17.4 57.0333 17.4ZM1.93333 4.83333V2.9C1.93333 2.64362 2.03518 2.39775 2.21646 2.21646C2.39775 2.03518 2.64362 1.93333 2.9 1.93333H12.5667C12.823 1.93333 13.0689 2.03518 13.2502 2.21646C13.4315 2.39775 13.5333 2.64362 13.5333 2.9V4.83333C13.5333 5.08971 13.4315 5.33558 13.2502 5.51687C13.0689 5.69815 12.823 5.8 12.5667 5.8H2.9C2.64362 5.8 2.39775 5.69815 2.21646 5.51687C2.03518 5.33558 1.93333 5.08971 1.93333 4.83333ZM32.8667 41.5667C32.8667 45.4123 31.339 49.1004 28.6197 51.8197C25.9004 54.539 22.2123 56.0667 18.3667 56.0667C14.521 56.0667 10.8329 54.539 8.11362 51.8197C5.39434 49.1004 3.86667 45.4123 3.86667 41.5667V7.73333H11.6V41.5667C11.6 43.3613 12.3129 45.0824 13.5819 46.3514C14.8509 47.6204 16.572 48.3333 18.3667 48.3333C20.1613 48.3333 21.8824 47.6204 23.1514 46.3514C24.4204 45.0824 25.1333 43.3613 25.1333 41.5667V40.6H32.8667V41.5667ZM34.8 37.7C34.8 37.9564 34.6982 38.2023 34.5169 38.3835C34.3356 38.5648 34.0897 38.6667 33.8333 38.6667H24.1667C23.9103 38.6667 23.6644 38.5648 23.4831 38.3835C23.3018 38.2023 23.2 37.9564 23.2 37.7V35.7667C23.2 35.5103 23.3018 35.2644 23.4831 35.0831C23.6644 34.9018 23.9103 34.8 24.1667 34.8H33.8333C34.0897 34.8 34.3356 34.9018 34.5169 35.0831C34.6982 35.2644 34.8 35.5103 34.8 35.7667V37.7ZM40.6 27.0667H39.6333C38.0075 27.0686 36.4368 27.6558 35.2084 28.7208C33.9801 29.7859 33.1763 31.2576 32.944 32.8667H25.1817C25.4301 29.2005 27.0597 25.7651 29.7418 23.2534C32.4239 20.7417 35.9588 19.3408 39.6333 19.3333H40.6V27.0667ZM46.4 28.0333C46.4 28.2897 46.2982 28.5356 46.1169 28.7169C45.9356 28.8982 45.6897 29 45.4333 29H43.5C43.2436 29 42.9977 28.8982 42.8165 28.7169C42.6352 28.5356 42.5333 28.2897 42.5333 28.0333V18.3667C42.5333 18.1103 42.6352 17.8644 42.8165 17.6831C42.9977 17.5018 43.2436 17.4 43.5 17.4H45.4333C45.6897 17.4 45.9356 17.5018 46.1169 17.6831C46.2982 17.8644 46.4 18.1103 46.4 18.3667V28.0333ZM56.0667 27.0667H48.3333V19.3333H56.0667V27.0667Z" fill="#115AD4"/>
<path d="M11.4175 52.0387C13.4761 53.4083 15.8943 54.1372 18.3668 54.1335V52.2001C16.2751 52.2033 14.2293 51.5867 12.4876 50.4282L11.4175 52.0387Z" fill="#115AD4"/>
<path d="M20.1406 52.0529L20.4596 53.9592C21.1726 53.8402 21.8739 53.659 22.5554 53.4179L21.9116 51.5957C21.3353 51.7982 20.7429 51.9512 20.1406 52.0529Z" fill="#115AD4"/>
</svg>
