<svg width="56" height="58" viewBox="0 0 56 58" fill="none" xmlns="http://www.w3.org/2000/svg">
<mask id="path-1-outside-1" maskUnits="userSpaceOnUse" x="0" y="0" width="56" height="58" fill="black">
<rect fill="white" width="56" height="58"/>
<path d="M44.2 18.2655H35.2V17.3585C35.2 15.8553 33.9911 14.6374 32.5 14.6374H29.8V9.7555C29.9327 9.6058 30.0531 9.44547 30.1599 9.27585L39.5427 10.9938L39.7 11.0093C41.1216 11.0115 42.411 10.1691 42.9897 8.86042C43.5681 7.55214 43.3277 6.02242 42.3754 4.95861C41.4235 3.8948 39.9386 3.49621 38.5877 3.94175L30.6174 5.40194C30.9312 3.95238 30.3375 2.45587 29.1184 1.62414C27.8994 0.791955 26.3006 0.791955 25.0816 1.62414C23.8625 2.45587 23.2688 3.95238 23.5826 5.40194L15.6123 3.94175C14.2614 3.49621 12.7765 3.8948 11.8246 4.95861C10.8723 6.02242 10.6319 7.55214 11.2103 8.86042C11.789 10.1691 13.0784 11.0115 14.5 11.0093H14.5809L24.0401 9.27585C24.1469 9.44547 24.2673 9.6058 24.4 9.7555V14.6374H22.6C21.1089 14.6374 19.9 15.8553 19.9 17.3585V18.2655H6.4V11.0093H2.8V4.66011H1V46.3834H2.8V39.1272H6.4V30.9639H20.6893C22.3754 32.704 24.6865 33.685 27.1 33.685C29.5135 33.685 31.8246 32.704 33.5107 30.9639H42.2308C43.318 30.9648 44.1991 31.8528 44.2 32.9485V41.8482H48.4363L45.6939 51.9449C45.25 52.9985 45.3164 54.2005 45.8741 55.1979C46.3786 56.1169 47.3326 57.3311 48.3649 57.4746C48.5249 57.4959 48.6866 57.507 48.8483 57.5074C49.0113 57.507 51.1744 57.4959 51.3361 57.4746C52.3684 57.3298 53.2235 56.1142 53.7276 55.1948C54.2848 54.1979 54.3516 52.9968 53.9073 51.9431L51.1662 41.8482H55V29.1499C54.9934 23.1412 50.1621 18.2717 44.2 18.2655ZM52.1605 54.3024C51.9342 54.7262 51.5717 55.6061 51.0992 55.6761C50.9353 55.6978 48.7692 55.6978 48.6053 55.6761C48.132 55.6065 47.6701 54.7271 47.4425 54.3033C47.1608 53.7993 47.1274 53.1912 47.3524 52.6588L49.8061 44.2429L52.2585 52.6597C52.4809 53.193 52.4448 53.8002 52.1605 54.3024ZM25.3 7.38119C25.3 6.37894 26.106 5.56714 27.1 5.56714C28.094 5.56714 28.9 6.37894 28.9 7.38119C28.9 8.383 28.094 9.19525 27.1 9.19525C26.106 9.19525 25.3 8.383 25.3 7.38119ZM30.7 7.2315L38.9736 5.71373L39.1098 5.6783C39.2988 5.60788 39.4983 5.57024 39.7 5.56714C40.694 5.54676 41.5163 6.34218 41.5365 7.34443C41.5567 8.34624 40.767 9.17487 39.7729 9.19525L30.7 7.53089V7.2315ZM27.1 2.84605C27.9262 2.84827 28.6447 3.41693 28.8424 4.22564C27.7649 3.59541 26.4351 3.59541 25.3576 4.22564C25.5553 3.41693 26.2738 2.84827 27.1 2.84605ZM23.5 7.53089L14.4271 9.19525C13.433 9.17487 12.6433 8.34624 12.6635 7.34443C12.6837 6.34218 13.506 5.54676 14.5 5.56714C14.7017 5.57024 14.9012 5.60788 15.0902 5.6783L23.5 7.2315V7.53089ZM26.2 10.8804C26.788 11.0523 27.412 11.0523 28 10.8804V14.6374H26.2V10.8804ZM4.6 37.3131H2.8V12.8234H4.6V37.3131ZM53.2 40.0342H46V32.9485C45.9974 30.8514 44.3116 29.1521 42.2308 29.1499H32.7197L32.4495 29.451C31.0902 30.99 29.143 31.8705 27.0982 31.8705C25.0535 31.8705 23.1063 30.99 21.7466 29.451L21.4768 29.1499H6.4V20.0796H21.7V17.3585C21.7 16.8576 22.103 16.4515 22.6 16.4515H32.5C32.997 16.4515 33.4 16.8576 33.4 17.3585V20.0796H44.2C49.1685 20.0849 53.1947 24.1426 53.2 29.1499V40.0342Z"/>
</mask>
<path d="M44.2 18.2655H35.2V17.3585C35.2 15.8553 33.9911 14.6374 32.5 14.6374H29.8V9.7555C29.9327 9.6058 30.0531 9.44547 30.1599 9.27585L39.5427 10.9938L39.7 11.0093C41.1216 11.0115 42.411 10.1691 42.9897 8.86042C43.5681 7.55214 43.3277 6.02242 42.3754 4.95861C41.4235 3.8948 39.9386 3.49621 38.5877 3.94175L30.6174 5.40194C30.9312 3.95238 30.3375 2.45587 29.1184 1.62414C27.8994 0.791955 26.3006 0.791955 25.0816 1.62414C23.8625 2.45587 23.2688 3.95238 23.5826 5.40194L15.6123 3.94175C14.2614 3.49621 12.7765 3.8948 11.8246 4.95861C10.8723 6.02242 10.6319 7.55214 11.2103 8.86042C11.789 10.1691 13.0784 11.0115 14.5 11.0093H14.5809L24.0401 9.27585C24.1469 9.44547 24.2673 9.6058 24.4 9.7555V14.6374H22.6C21.1089 14.6374 19.9 15.8553 19.9 17.3585V18.2655H6.4V11.0093H2.8V4.66011H1V46.3834H2.8V39.1272H6.4V30.9639H20.6893C22.3754 32.704 24.6865 33.685 27.1 33.685C29.5135 33.685 31.8246 32.704 33.5107 30.9639H42.2308C43.318 30.9648 44.1991 31.8528 44.2 32.9485V41.8482H48.4363L45.6939 51.9449C45.25 52.9985 45.3164 54.2005 45.8741 55.1979C46.3786 56.1169 47.3326 57.3311 48.3649 57.4746C48.5249 57.4959 48.6866 57.507 48.8483 57.5074C49.0113 57.507 51.1744 57.4959 51.3361 57.4746C52.3684 57.3298 53.2235 56.1142 53.7276 55.1948C54.2848 54.1979 54.3516 52.9968 53.9073 51.9431L51.1662 41.8482H55V29.1499C54.9934 23.1412 50.1621 18.2717 44.2 18.2655ZM52.1605 54.3024C51.9342 54.7262 51.5717 55.6061 51.0992 55.6761C50.9353 55.6978 48.7692 55.6978 48.6053 55.6761C48.132 55.6065 47.6701 54.7271 47.4425 54.3033C47.1608 53.7993 47.1274 53.1912 47.3524 52.6588L49.8061 44.2429L52.2585 52.6597C52.4809 53.193 52.4448 53.8002 52.1605 54.3024ZM25.3 7.38119C25.3 6.37894 26.106 5.56714 27.1 5.56714C28.094 5.56714 28.9 6.37894 28.9 7.38119C28.9 8.383 28.094 9.19525 27.1 9.19525C26.106 9.19525 25.3 8.383 25.3 7.38119ZM30.7 7.2315L38.9736 5.71373L39.1098 5.6783C39.2988 5.60788 39.4983 5.57024 39.7 5.56714C40.694 5.54676 41.5163 6.34218 41.5365 7.34443C41.5567 8.34624 40.767 9.17487 39.7729 9.19525L30.7 7.53089V7.2315ZM27.1 2.84605C27.9262 2.84827 28.6447 3.41693 28.8424 4.22564C27.7649 3.59541 26.4351 3.59541 25.3576 4.22564C25.5553 3.41693 26.2738 2.84827 27.1 2.84605ZM23.5 7.53089L14.4271 9.19525C13.433 9.17487 12.6433 8.34624 12.6635 7.34443C12.6837 6.34218 13.506 5.54676 14.5 5.56714C14.7017 5.57024 14.9012 5.60788 15.0902 5.6783L23.5 7.2315V7.53089ZM26.2 10.8804C26.788 11.0523 27.412 11.0523 28 10.8804V14.6374H26.2V10.8804ZM4.6 37.3131H2.8V12.8234H4.6V37.3131ZM53.2 40.0342H46V32.9485C45.9974 30.8514 44.3116 29.1521 42.2308 29.1499H32.7197L32.4495 29.451C31.0902 30.99 29.143 31.8705 27.0982 31.8705C25.0535 31.8705 23.1063 30.99 21.7466 29.451L21.4768 29.1499H6.4V20.0796H21.7V17.3585C21.7 16.8576 22.103 16.4515 22.6 16.4515H32.5C32.997 16.4515 33.4 16.8576 33.4 17.3585V20.0796H44.2C49.1685 20.0849 53.1947 24.1426 53.2 29.1499V40.0342Z" fill="#115AD4"/>
<path d="M44.2 18.2655H35.2V17.3585C35.2 15.8553 33.9911 14.6374 32.5 14.6374H29.8V9.7555C29.9327 9.6058 30.0531 9.44547 30.1599 9.27585L39.5427 10.9938L39.7 11.0093C41.1216 11.0115 42.411 10.1691 42.9897 8.86042C43.5681 7.55214 43.3277 6.02242 42.3754 4.95861C41.4235 3.8948 39.9386 3.49621 38.5877 3.94175L30.6174 5.40194C30.9312 3.95238 30.3375 2.45587 29.1184 1.62414C27.8994 0.791955 26.3006 0.791955 25.0816 1.62414C23.8625 2.45587 23.2688 3.95238 23.5826 5.40194L15.6123 3.94175C14.2614 3.49621 12.7765 3.8948 11.8246 4.95861C10.8723 6.02242 10.6319 7.55214 11.2103 8.86042C11.789 10.1691 13.0784 11.0115 14.5 11.0093H14.5809L24.0401 9.27585C24.1469 9.44547 24.2673 9.6058 24.4 9.7555V14.6374H22.6C21.1089 14.6374 19.9 15.8553 19.9 17.3585V18.2655H6.4V11.0093H2.8V4.66011H1V46.3834H2.8V39.1272H6.4V30.9639H20.6893C22.3754 32.704 24.6865 33.685 27.1 33.685C29.5135 33.685 31.8246 32.704 33.5107 30.9639H42.2308C43.318 30.9648 44.1991 31.8528 44.2 32.9485V41.8482H48.4363L45.6939 51.9449C45.25 52.9985 45.3164 54.2005 45.8741 55.1979C46.3786 56.1169 47.3326 57.3311 48.3649 57.4746C48.5249 57.4959 48.6866 57.507 48.8483 57.5074C49.0113 57.507 51.1744 57.4959 51.3361 57.4746C52.3684 57.3298 53.2235 56.1142 53.7276 55.1948C54.2848 54.1979 54.3516 52.9968 53.9073 51.9431L51.1662 41.8482H55V29.1499C54.9934 23.1412 50.1621 18.2717 44.2 18.2655ZM52.1605 54.3024C51.9342 54.7262 51.5717 55.6061 51.0992 55.6761C50.9353 55.6978 48.7692 55.6978 48.6053 55.6761C48.132 55.6065 47.6701 54.7271 47.4425 54.3033C47.1608 53.7993 47.1274 53.1912 47.3524 52.6588L49.8061 44.2429L52.2585 52.6597C52.4809 53.193 52.4448 53.8002 52.1605 54.3024ZM25.3 7.38119C25.3 6.37894 26.106 5.56714 27.1 5.56714C28.094 5.56714 28.9 6.37894 28.9 7.38119C28.9 8.383 28.094 9.19525 27.1 9.19525C26.106 9.19525 25.3 8.383 25.3 7.38119ZM30.7 7.2315L38.9736 5.71373L39.1098 5.6783C39.2988 5.60788 39.4983 5.57024 39.7 5.56714C40.694 5.54676 41.5163 6.34218 41.5365 7.34443C41.5567 8.34624 40.767 9.17487 39.7729 9.19525L30.7 7.53089V7.2315ZM27.1 2.84605C27.9262 2.84827 28.6447 3.41693 28.8424 4.22564C27.7649 3.59541 26.4351 3.59541 25.3576 4.22564C25.5553 3.41693 26.2738 2.84827 27.1 2.84605ZM23.5 7.53089L14.4271 9.19525C13.433 9.17487 12.6433 8.34624 12.6635 7.34443C12.6837 6.34218 13.506 5.54676 14.5 5.56714C14.7017 5.57024 14.9012 5.60788 15.0902 5.6783L23.5 7.2315V7.53089ZM26.2 10.8804C26.788 11.0523 27.412 11.0523 28 10.8804V14.6374H26.2V10.8804ZM4.6 37.3131H2.8V12.8234H4.6V37.3131ZM53.2 40.0342H46V32.9485C45.9974 30.8514 44.3116 29.1521 42.2308 29.1499H32.7197L32.4495 29.451C31.0902 30.99 29.143 31.8705 27.0982 31.8705C25.0535 31.8705 23.1063 30.99 21.7466 29.451L21.4768 29.1499H6.4V20.0796H21.7V17.3585C21.7 16.8576 22.103 16.4515 22.6 16.4515H32.5C32.997 16.4515 33.4 16.8576 33.4 17.3585V20.0796H44.2C49.1685 20.0849 53.1947 24.1426 53.2 29.1499V40.0342Z" stroke="#115AD4" stroke-width="0.2" mask="url(#path-1-outside-1)"/>
<path d="M8.2002 25.3792H8.1502V25.4292V27.2433V27.2933H8.2002H19.9002H19.9502V27.2433V25.4292V25.3792H19.9002H8.2002Z" fill="#115AD4" stroke="#115AD4" stroke-width="0.1"/>
<path d="M34.2998 25.3792H34.2498V25.4292V27.2433V27.2933H34.2998H41.4998H41.5498V27.2433V25.4292V25.3792H41.4998H34.2998Z" fill="#115AD4" stroke="#115AD4" stroke-width="0.1"/>
</svg>
