<svg width="34" height="36" viewBox="0 0 34 36" fill="none" xmlns="http://www.w3.org/2000/svg">
<mask id="path-1-outside-1" maskUnits="userSpaceOnUse" x="0" y="0" width="34" height="36" fill="black">
<rect fill="white" width="34" height="36"/>
<path d="M26.6 11.3885H21.2667V10.8428C21.2667 9.93833 20.5503 9.20551 19.6667 9.20551H18.0667V6.2681C18.1453 6.17803 18.2167 6.08157 18.2799 5.97951L23.8401 7.01318L23.9333 7.02251C24.7758 7.02384 25.5398 6.517 25.8828 5.72955C26.2255 4.94237 26.0831 4.02195 25.5187 3.38186C24.9547 2.74178 24.0747 2.50195 23.2742 2.77002L18.551 3.64861C18.737 2.77642 18.3852 1.87599 17.6628 1.37554C16.9404 0.874821 15.993 0.874821 15.2706 1.37554C14.5482 1.87599 14.1964 2.77642 14.3823 3.64861L9.65911 2.77002C8.85859 2.50195 7.97865 2.74178 7.41458 3.38186C6.85026 4.02195 6.70781 4.94237 7.05052 5.72955C7.39349 6.517 8.15755 7.02384 9 7.02251H9.04792L14.6534 5.97951C14.7167 6.08157 14.788 6.17803 14.8667 6.2681V9.20551H13.8C12.9164 9.20551 12.2 9.93833 12.2 10.8428V11.3885H4.2V7.02251H2.06667V3.20226H1V28.3068H2.06667V23.9408H4.2V19.029H12.6677C13.6669 20.076 15.0365 20.6663 16.4667 20.6663C17.8969 20.6663 19.2664 20.076 20.2656 19.029H25.4331C26.0773 19.0296 26.5995 19.5638 26.6 20.2231V25.578H29.1104L27.4853 31.6531C27.2222 32.2871 27.2616 33.0103 27.592 33.6104C27.891 34.1633 28.4564 34.8939 29.0681 34.9803C29.1629 34.9931 29.2587 34.9997 29.3546 35C29.4512 34.9997 30.733 34.9931 30.8288 34.9803C31.4405 34.8931 31.9473 34.1617 32.246 33.6085C32.5762 33.0087 32.6158 32.286 32.3525 31.652L30.7281 25.578H33V17.9375C32.9961 14.3222 30.1331 11.3922 26.6 11.3885ZM31.3173 33.0716C31.1832 33.3266 30.9684 33.856 30.6884 33.8981C30.5913 33.9112 29.3077 33.9112 29.2105 33.8981C28.9301 33.8563 28.6564 33.3271 28.5215 33.0721C28.3545 32.7689 28.3347 32.403 28.4681 32.0827L29.9221 27.0189L31.3754 32.0832C31.5072 32.404 31.4858 32.7694 31.3173 33.0716ZM15.4 4.83951C15.4 4.23646 15.8776 3.74801 16.4667 3.74801C17.0557 3.74801 17.5333 4.23646 17.5333 4.83951C17.5333 5.44228 17.0557 5.93101 16.4667 5.93101C15.8776 5.93101 15.4 5.44228 15.4 4.83951ZM18.6 4.74944L23.5029 3.83621L23.5836 3.81489C23.6956 3.77252 23.8138 3.74987 23.9333 3.74801C24.5224 3.73575 25.0096 4.21434 25.0216 4.81739C25.0336 5.42017 24.5656 5.91875 23.9766 5.93101L18.6 4.92958V4.74944ZM16.4667 2.11075C16.9562 2.11209 17.382 2.45425 17.4992 2.94084C16.8607 2.56164 16.0727 2.56164 15.4341 2.94084C15.5513 2.45425 15.9771 2.11209 16.4667 2.11075ZM14.3333 4.92958L8.95677 5.93101C8.36771 5.91875 7.89974 5.42017 7.91172 4.81739C7.9237 4.21434 8.41094 3.73575 9 3.74801C9.11953 3.74987 9.23776 3.77252 9.34974 3.81489L14.3333 4.74944V4.92958ZM15.9333 6.94496C16.2818 7.04836 16.6516 7.04836 17 6.94496V9.20551H15.9333V6.94496ZM3.13333 22.8493H2.06667V8.11401H3.13333V22.8493ZM31.9333 24.4865H27.6667V20.2231C27.6651 18.9613 26.6661 17.9389 25.4331 17.9375H19.7969L19.6367 18.1187C18.8312 19.0447 17.6773 19.5745 16.4656 19.5745C15.2539 19.5745 14.1 19.0447 13.2943 18.1187L13.1344 17.9375H4.2V12.48H13.2667V10.8428C13.2667 10.5414 13.5055 10.297 13.8 10.297H19.6667C19.9612 10.297 20.2 10.5414 20.2 10.8428V12.48H26.6C29.5443 12.4832 31.9302 14.9247 31.9333 17.9375V24.4865Z"/>
</mask>
<path d="M26.6 11.3885H21.2667V10.8428C21.2667 9.93833 20.5503 9.20551 19.6667 9.20551H18.0667V6.2681C18.1453 6.17803 18.2167 6.08157 18.2799 5.97951L23.8401 7.01318L23.9333 7.02251C24.7758 7.02384 25.5398 6.517 25.8828 5.72955C26.2255 4.94237 26.0831 4.02195 25.5187 3.38186C24.9547 2.74178 24.0747 2.50195 23.2742 2.77002L18.551 3.64861C18.737 2.77642 18.3852 1.87599 17.6628 1.37554C16.9404 0.874821 15.993 0.874821 15.2706 1.37554C14.5482 1.87599 14.1964 2.77642 14.3823 3.64861L9.65911 2.77002C8.85859 2.50195 7.97865 2.74178 7.41458 3.38186C6.85026 4.02195 6.70781 4.94237 7.05052 5.72955C7.39349 6.517 8.15755 7.02384 9 7.02251H9.04792L14.6534 5.97951C14.7167 6.08157 14.788 6.17803 14.8667 6.2681V9.20551H13.8C12.9164 9.20551 12.2 9.93833 12.2 10.8428V11.3885H4.2V7.02251H2.06667V3.20226H1V28.3068H2.06667V23.9408H4.2V19.029H12.6677C13.6669 20.076 15.0365 20.6663 16.4667 20.6663C17.8969 20.6663 19.2664 20.076 20.2656 19.029H25.4331C26.0773 19.0296 26.5995 19.5638 26.6 20.2231V25.578H29.1104L27.4853 31.6531C27.2222 32.2871 27.2616 33.0103 27.592 33.6104C27.891 34.1633 28.4564 34.8939 29.0681 34.9803C29.1629 34.9931 29.2587 34.9997 29.3546 35C29.4512 34.9997 30.733 34.9931 30.8288 34.9803C31.4405 34.8931 31.9473 34.1617 32.246 33.6085C32.5762 33.0087 32.6158 32.286 32.3525 31.652L30.7281 25.578H33V17.9375C32.9961 14.3222 30.1331 11.3922 26.6 11.3885ZM31.3173 33.0716C31.1832 33.3266 30.9684 33.856 30.6884 33.8981C30.5913 33.9112 29.3077 33.9112 29.2105 33.8981C28.9301 33.8563 28.6564 33.3271 28.5215 33.0721C28.3545 32.7689 28.3347 32.403 28.4681 32.0827L29.9221 27.0189L31.3754 32.0832C31.5072 32.404 31.4858 32.7694 31.3173 33.0716ZM15.4 4.83951C15.4 4.23646 15.8776 3.74801 16.4667 3.74801C17.0557 3.74801 17.5333 4.23646 17.5333 4.83951C17.5333 5.44228 17.0557 5.93101 16.4667 5.93101C15.8776 5.93101 15.4 5.44228 15.4 4.83951ZM18.6 4.74944L23.5029 3.83621L23.5836 3.81489C23.6956 3.77252 23.8138 3.74987 23.9333 3.74801C24.5224 3.73575 25.0096 4.21434 25.0216 4.81739C25.0336 5.42017 24.5656 5.91875 23.9766 5.93101L18.6 4.92958V4.74944ZM16.4667 2.11075C16.9562 2.11209 17.382 2.45425 17.4992 2.94084C16.8607 2.56164 16.0727 2.56164 15.4341 2.94084C15.5513 2.45425 15.9771 2.11209 16.4667 2.11075ZM14.3333 4.92958L8.95677 5.93101C8.36771 5.91875 7.89974 5.42017 7.91172 4.81739C7.9237 4.21434 8.41094 3.73575 9 3.74801C9.11953 3.74987 9.23776 3.77252 9.34974 3.81489L14.3333 4.74944V4.92958ZM15.9333 6.94496C16.2818 7.04836 16.6516 7.04836 17 6.94496V9.20551H15.9333V6.94496ZM3.13333 22.8493H2.06667V8.11401H3.13333V22.8493ZM31.9333 24.4865H27.6667V20.2231C27.6651 18.9613 26.6661 17.9389 25.4331 17.9375H19.7969L19.6367 18.1187C18.8312 19.0447 17.6773 19.5745 16.4656 19.5745C15.2539 19.5745 14.1 19.0447 13.2943 18.1187L13.1344 17.9375H4.2V12.48H13.2667V10.8428C13.2667 10.5414 13.5055 10.297 13.8 10.297H19.6667C19.9612 10.297 20.2 10.5414 20.2 10.8428V12.48H26.6C29.5443 12.4832 31.9302 14.9247 31.9333 17.9375V24.4865Z" fill="#D7D7D7"/>
<path d="M26.6 11.3885H21.2667V10.8428C21.2667 9.93833 20.5503 9.20551 19.6667 9.20551H18.0667V6.2681C18.1453 6.17803 18.2167 6.08157 18.2799 5.97951L23.8401 7.01318L23.9333 7.02251C24.7758 7.02384 25.5398 6.517 25.8828 5.72955C26.2255 4.94237 26.0831 4.02195 25.5187 3.38186C24.9547 2.74178 24.0747 2.50195 23.2742 2.77002L18.551 3.64861C18.737 2.77642 18.3852 1.87599 17.6628 1.37554C16.9404 0.874821 15.993 0.874821 15.2706 1.37554C14.5482 1.87599 14.1964 2.77642 14.3823 3.64861L9.65911 2.77002C8.85859 2.50195 7.97865 2.74178 7.41458 3.38186C6.85026 4.02195 6.70781 4.94237 7.05052 5.72955C7.39349 6.517 8.15755 7.02384 9 7.02251H9.04792L14.6534 5.97951C14.7167 6.08157 14.788 6.17803 14.8667 6.2681V9.20551H13.8C12.9164 9.20551 12.2 9.93833 12.2 10.8428V11.3885H4.2V7.02251H2.06667V3.20226H1V28.3068H2.06667V23.9408H4.2V19.029H12.6677C13.6669 20.076 15.0365 20.6663 16.4667 20.6663C17.8969 20.6663 19.2664 20.076 20.2656 19.029H25.4331C26.0773 19.0296 26.5995 19.5638 26.6 20.2231V25.578H29.1104L27.4853 31.6531C27.2222 32.2871 27.2616 33.0103 27.592 33.6104C27.891 34.1633 28.4564 34.8939 29.0681 34.9803C29.1629 34.9931 29.2587 34.9997 29.3546 35C29.4512 34.9997 30.733 34.9931 30.8288 34.9803C31.4405 34.8931 31.9473 34.1617 32.246 33.6085C32.5762 33.0087 32.6158 32.286 32.3525 31.652L30.7281 25.578H33V17.9375C32.9961 14.3222 30.1331 11.3922 26.6 11.3885ZM31.3173 33.0716C31.1832 33.3266 30.9684 33.856 30.6884 33.8981C30.5913 33.9112 29.3077 33.9112 29.2105 33.8981C28.9301 33.8563 28.6564 33.3271 28.5215 33.0721C28.3545 32.7689 28.3347 32.403 28.4681 32.0827L29.9221 27.0189L31.3754 32.0832C31.5072 32.404 31.4858 32.7694 31.3173 33.0716ZM15.4 4.83951C15.4 4.23646 15.8776 3.74801 16.4667 3.74801C17.0557 3.74801 17.5333 4.23646 17.5333 4.83951C17.5333 5.44228 17.0557 5.93101 16.4667 5.93101C15.8776 5.93101 15.4 5.44228 15.4 4.83951ZM18.6 4.74944L23.5029 3.83621L23.5836 3.81489C23.6956 3.77252 23.8138 3.74987 23.9333 3.74801C24.5224 3.73575 25.0096 4.21434 25.0216 4.81739C25.0336 5.42017 24.5656 5.91875 23.9766 5.93101L18.6 4.92958V4.74944ZM16.4667 2.11075C16.9562 2.11209 17.382 2.45425 17.4992 2.94084C16.8607 2.56164 16.0727 2.56164 15.4341 2.94084C15.5513 2.45425 15.9771 2.11209 16.4667 2.11075ZM14.3333 4.92958L8.95677 5.93101C8.36771 5.91875 7.89974 5.42017 7.91172 4.81739C7.9237 4.21434 8.41094 3.73575 9 3.74801C9.11953 3.74987 9.23776 3.77252 9.34974 3.81489L14.3333 4.74944V4.92958ZM15.9333 6.94496C16.2818 7.04836 16.6516 7.04836 17 6.94496V9.20551H15.9333V6.94496ZM3.13333 22.8493H2.06667V8.11401H3.13333V22.8493ZM31.9333 24.4865H27.6667V20.2231C27.6651 18.9613 26.6661 17.9389 25.4331 17.9375H19.7969L19.6367 18.1187C18.8312 19.0447 17.6773 19.5745 16.4656 19.5745C15.2539 19.5745 14.1 19.0447 13.2943 18.1187L13.1344 17.9375H4.2V12.48H13.2667V10.8428C13.2667 10.5414 13.5055 10.297 13.8 10.297H19.6667C19.9612 10.297 20.2 10.5414 20.2 10.8428V12.48H26.6C29.5443 12.4832 31.9302 14.9247 31.9333 17.9375V24.4865Z" stroke="#D7D7D7" stroke-width="0.2" mask="url(#path-1-outside-1)"/>
</svg>
