<svg width="36" height="36" viewBox="0 0 36 36" fill="none" xmlns="http://www.w3.org/2000/svg">
<path d="M30.3931 0H5.60693C2.51529 0 0 2.51522 0 5.60693V30.3931C0 33.4848 2.51529 36 5.60693 36H30.393C33.4847 36 36 33.4848 36 30.3931V5.60693C36 2.51522 33.4847 0 30.3931 0ZM34.9453 30.3931C34.9453 32.9032 32.9032 34.9453 30.3931 34.9453H5.60693C3.09684 34.9453 1.05469 32.9032 1.05469 30.3931V5.60693C1.05469 3.09677 3.09684 1.05469 5.60693 1.05469H30.393C32.9032 1.05469 34.9453 3.09677 34.9453 5.60693V30.3931Z" fill="#D7D7D7"/>
<path d="M30.3932 2.50391H5.60708C3.89602 2.50391 2.50391 3.89595 2.50391 5.60708V7.205C2.50391 7.49623 2.74002 7.73234 3.03125 7.73234C3.32248 7.73234 3.55859 7.49623 3.55859 7.205V5.60708C3.55859 4.47758 4.47751 3.55859 5.60708 3.55859H30.3931C31.5226 3.55859 32.4416 4.47751 32.4416 5.60708V30.3931C32.4416 31.5227 31.5227 32.4416 30.3931 32.4416H5.60708C4.47758 32.4416 3.55859 31.5227 3.55859 30.3931V5.59482C3.55859 5.30359 3.32248 5.06748 3.03125 5.06748C2.74002 5.06748 2.50391 5.30359 2.50391 5.59482V30.3931C2.50391 32.1043 3.89595 33.4963 5.60708 33.4963H30.3931C32.1043 33.4963 33.4963 32.1043 33.4963 30.3931V5.60708C33.4963 3.89595 32.1043 2.50391 30.3932 2.50391Z" fill="#D7D7D7"/>
<path d="M27.4222 17.3337C25.7845 16.178 23.0291 15.7375 20.8224 16.241C20.595 15.8925 20.3049 15.5888 19.968 15.3457C20.4072 14.439 21.1723 13.771 22.4959 13.1149C23.1922 12.7696 24.0588 12.3399 24.0588 11.2006C24.0588 8.08909 20.927 6.16309 18.0253 6.16309C14.6985 6.16309 11.9919 8.42289 11.9919 11.2006C11.9919 12.5802 12.6678 14.4196 13.7138 15.8866C14.0498 16.3576 14.4068 16.7723 14.7782 17.1254C14.7055 17.3724 14.6596 17.6307 14.6458 17.8975C13.7194 17.83 12.8462 17.4126 11.7657 16.54L11.7512 16.5283C11.1532 16.0451 10.4089 15.4435 9.37349 15.9198C6.54654 17.2196 6.10509 20.8697 7.31733 23.506C8.59879 26.293 11.7015 28.1308 14.4147 26.883C16.3278 26.0033 18.2134 23.5835 18.7811 21.3458C18.9505 21.3056 19.1148 21.2528 19.2733 21.188C19.827 22.0142 20.0837 22.9985 19.8017 24.8121C19.6823 25.5801 19.5337 26.5359 20.4647 27.1929C22.9358 28.9368 26.324 27.6267 28.0592 25.1678C28.9277 23.9372 29.3895 22.4206 29.3264 21.0071C29.2572 19.4559 28.5809 18.1514 27.4222 17.3337ZM14.6679 15.2061C13.7682 13.9444 13.1638 12.3347 13.1638 11.2005C13.1638 9.06893 15.3447 7.33478 18.0254 7.33478C21.0284 7.33478 22.8871 9.34141 22.8871 11.2005C22.8871 11.5644 22.7038 11.7039 21.9755 12.065C20.4125 12.8399 19.4648 13.6896 18.9121 14.8359C18.6232 14.7548 18.3191 14.7105 18.0045 14.7105C16.9196 14.7105 15.9536 15.2273 15.3381 16.0272C15.1082 15.7829 14.8839 15.509 14.6679 15.2061ZM13.9252 25.8183C11.8201 26.7866 9.38731 25.2028 8.38201 23.0163C7.12743 20.288 8.17398 17.7609 9.86313 16.9842C10.194 16.8322 10.3942 16.9381 11.0148 17.4396L11.0294 17.4513C12.3835 18.545 13.538 19.0485 14.7944 19.0782C15.1784 20.3026 16.2451 21.227 17.5463 21.4052C16.9282 23.3352 15.2496 25.2093 13.9252 25.8183ZM18.0045 20.2655C16.7961 20.2655 15.8129 19.2824 15.8129 18.0739C15.8129 16.8654 16.7961 15.8823 18.0045 15.8823C19.213 15.8823 20.1962 16.8654 20.1962 18.0739C20.1962 19.2942 19.1985 20.2655 18.0045 20.2655ZM27.102 24.4921C25.7213 26.4486 23.0436 27.5786 21.1405 26.2354C20.8431 26.0256 20.8349 25.7955 20.9598 24.992C21.254 23.0994 21.053 21.7695 20.2633 20.5639C21.1574 19.7521 21.5518 18.5306 21.2868 17.3417C23.1213 16.9923 25.4505 17.3765 26.7466 18.2911C27.6026 18.8952 28.1031 19.8783 28.156 21.0592C28.2077 22.2184 27.8236 23.4696 27.102 24.4921Z" fill="#D7D7D7"/>
<path d="M27.2578 29.7773C27.2578 30.921 28.1883 31.8516 29.332 31.8516C30.4758 31.8516 31.4062 30.921 31.4062 29.7773C31.4062 28.6336 30.4758 27.7031 29.332 27.7031C28.1883 27.7031 27.2578 28.6336 27.2578 29.7773ZM30.3516 29.7773C30.3516 30.3395 29.8942 30.7969 29.332 30.7969C28.7699 30.7969 28.3125 30.3395 28.3125 29.7773C28.3125 29.2152 28.7699 28.7578 29.332 28.7578C29.8942 28.7578 30.3516 29.2152 30.3516 29.7773Z" fill="#D7D7D7"/>
</svg>
