<svg width="53" height="53" viewBox="0 0 53 53" fill="none" xmlns="http://www.w3.org/2000/svg">
<path d="M44.7454 0H8.25465C3.70306 0 0 3.70296 0 8.25465V44.7454C0 49.297 3.70306 53 8.25465 53H44.7453C49.2969 53 53 49.297 53 44.7454V8.25465C53 3.70296 49.2969 0 44.7454 0ZM51.4473 44.7454C51.4473 48.4409 48.4408 51.4473 44.7454 51.4473H8.25465C4.55924 51.4473 1.55273 48.4409 1.55273 44.7454V8.25465C1.55273 4.55914 4.55924 1.55273 8.25465 1.55273H44.7453C48.4408 1.55273 51.4473 4.55914 51.4473 8.25465V44.7454Z" fill="#115AD4"/>
<path d="M44.7453 3.68604H8.25459C5.73554 3.68604 3.68604 5.73544 3.68604 8.25459V10.6071C3.68604 11.0359 4.03364 11.3835 4.4624 11.3835C4.89116 11.3835 5.23877 11.0359 5.23877 10.6071V8.25459C5.23877 6.59172 6.59161 5.23877 8.25459 5.23877H44.7452C46.4081 5.23877 47.761 6.59162 47.761 8.25459V44.7452C47.761 46.4082 46.4082 47.761 44.7452 47.761H8.25459C6.59172 47.761 5.23877 46.4082 5.23877 44.7452V8.23655C5.23877 7.80779 4.89116 7.46019 4.4624 7.46019C4.03364 7.46019 3.68604 7.80779 3.68604 8.23655V44.7452C3.68604 47.2643 5.73544 49.3138 8.25459 49.3138H44.7452C47.2643 49.3138 49.3137 47.2643 49.3137 44.7452V8.25459C49.3137 5.73544 47.2644 3.68604 44.7453 3.68604Z" fill="#115AD4"/>
<path d="M40.3714 25.5194C37.9604 23.8179 33.9038 23.1694 30.6551 23.9106C30.3202 23.3976 29.8932 22.9504 29.3972 22.5925C30.0438 21.2578 31.1702 20.2743 33.1188 19.3084C34.1439 18.8 35.4198 18.1674 35.4198 16.4901C35.4198 11.9092 30.809 9.07373 26.5371 9.07373C21.6393 9.07373 17.6546 12.4007 17.6546 16.4901C17.6546 18.5211 18.6497 21.2291 20.1896 23.3888C20.6843 24.0823 21.2099 24.6928 21.7566 25.2127C21.6495 25.5763 21.582 25.9566 21.5617 26.3494C20.1978 26.25 18.9123 25.6355 17.3216 24.3509L17.3002 24.3336C16.4198 23.6222 15.324 22.7365 13.7997 23.4377C9.63781 25.3514 8.9879 30.7252 10.7726 34.6063C12.6592 38.7095 17.227 41.415 21.2215 39.578C24.038 38.2829 26.814 34.7204 27.6498 31.426C27.8992 31.3668 28.1412 31.2892 28.3744 31.1937C29.1896 32.41 29.5676 33.8591 29.1523 36.5293C28.9766 37.6599 28.7578 39.067 30.1284 40.0343C33.7664 42.6017 38.7546 40.673 41.3093 37.0529C42.5878 35.2412 43.2678 33.0084 43.1748 30.9274C43.0729 28.6438 42.0773 26.7231 40.3714 25.5194ZM21.5942 22.3871C20.2697 20.5295 19.3799 18.1597 19.3799 16.49C19.3799 13.3518 22.5907 10.7987 26.5373 10.7987C30.9583 10.7987 33.6948 13.7529 33.6948 16.49C33.6948 17.0257 33.4248 17.231 32.3526 17.7627C30.0515 18.9034 28.6564 20.1545 27.8426 21.842C27.4173 21.7226 26.9696 21.6574 26.5065 21.6574C24.9093 21.6574 23.487 22.4183 22.581 23.596C22.2424 23.2362 21.9122 22.833 21.5942 22.3871ZM20.5009 38.0106C17.4016 39.4361 13.8201 37.1044 12.34 33.8855C10.493 29.8687 12.0338 26.1483 14.5206 25.0048C15.0076 24.781 15.3024 24.937 16.216 25.6752L16.2376 25.6926C18.2312 27.3027 19.9308 28.0439 21.7805 28.0877C22.3458 29.8902 23.9162 31.2512 25.8319 31.5134C24.922 34.3549 22.4507 37.114 20.5009 38.0106ZM26.5065 29.8356C24.7274 29.8356 23.28 28.3882 23.28 26.6091C23.28 24.8299 24.7274 23.3825 26.5065 23.3825C28.2856 23.3825 29.7331 24.8299 29.7331 26.6091C29.7331 28.4057 28.2643 29.8356 26.5065 29.8356ZM39.9 36.0581C37.8673 38.9384 33.9251 40.6021 31.1233 38.6247C30.6855 38.3158 30.6734 37.977 30.8573 36.7941C31.2905 34.0077 30.9945 32.0498 29.8319 30.2749C31.1483 29.0798 31.7289 27.2815 31.3387 25.5312C34.0395 25.0168 37.4686 25.5824 39.3768 26.9289C40.6371 27.8182 41.3739 29.2656 41.4517 31.0042C41.5278 32.7107 40.9623 34.5527 39.9 36.0581Z" fill="#115AD4"/>
<path d="M40.1294 43.8389C40.1294 45.5227 41.4992 46.8926 43.1831 46.8926C44.867 46.8926 46.2368 45.5227 46.2368 43.8389C46.2368 42.1551 44.867 40.7852 43.1831 40.7852C41.4992 40.7852 40.1294 42.1551 40.1294 43.8389ZM44.6841 43.8389C44.6841 44.6665 44.0107 45.3398 43.1831 45.3398C42.3555 45.3398 41.6821 44.6665 41.6821 43.8389C41.6821 43.0113 42.3555 42.3379 43.1831 42.3379C44.0107 42.3379 44.6841 43.0113 44.6841 43.8389Z" fill="#115AD4"/>
</svg>
