<svg width="1220" height="884" fill="none" xmlns="http://www.w3.org/2000/svg"><path d="M1127.03 822.615v-2.546c0-2.813 1.12-5.512 3.11-7.501a10.597 10.597 0 017.5-3.107h89.97a10.614 10.614 0 0110.61 10.608v2.546h-111.19zm52.23-114.125l-32.62 100.9h69.51l-30.19-100.776a3.603 3.603 0 00-1.26-1.766 3.522 3.522 0 00-4.12-.076 3.53 3.53 0 00-1.32 1.718z" fill="#E0E0E0"/><path d="M1168.6 741.34h27.17l11.76 39.25h-51.59l12.66-39.25z" fill="#FAFAFA"/><path d="M471.544 820.352v-2.475a10.61 10.61 0 0110.608-10.608h89.973a10.608 10.608 0 0110.608 10.608v2.475H471.544zm52.173-114.054l-32.549 100.9h69.518l-30.215-100.776a3.539 3.539 0 00-3.332-2.55 3.534 3.534 0 00-3.422 2.426z" fill="#E0E0E0"/><path d="M513.109 739.147h27.192l11.757 39.25H500.45l12.659-39.25z" fill="#FAFAFA"/><path d="M477.449 148.512l-8.929-15.629-14.002 2.068-11.563-14.533 5.958-14.462-15.611-10.36-11.651 11.757-15.364-2.688-6.223-18.033-18.653 1.945-1.061 15.788-13.896 7.072-14.622-10.431-14.921 10.873 7.761 16.707-8.84 13.384-16.124-.848-4.226 19.89 15.364 5.905 1.309 16.725-15.912 9.141 7.602 17.255 16.478-2.546 10.926 12.588-5.711 15.7 15.081 10.608 11.775-12.747 16.354 4.42 5.074 16.867 18.158-1.22 2.351-15.152 15.559-8.946 12.747 10.166 16.106-12.005-8.15-14.144 7.938-14.144 16.337 1.203 4.879-18.582-14.02-7.585-1.874-16.884 13.596-9.123zm-63.259 54.49a36.711 36.711 0 01-40.689-2.77 36.708 36.708 0 01-13.012-38.652 36.708 36.708 0 0130.73-26.813 36.706 36.706 0 0136.531 18.129 36.683 36.683 0 01-13.56 50.053v.053z" fill="#EBEBEB"/><path d="M412.174 160.446a43.82 43.82 0 00-3.024-3.678 19.319 19.319 0 00-11.35-5.551 18.99 18.99 0 00-16.955 6.648 19.228 19.228 0 00-4.261 10.095 18.9 18.9 0 0011.156 19.448 18.509 18.509 0 005.481 1.503c1.812.228 3.648.18 5.445-.142a19.249 19.249 0 009.088-4.225 18.942 18.942 0 005.215-7.072 19.444 19.444 0 00.937-12.606 44.207 44.207 0 00-1.662-4.473 15.488 15.488 0 011.998 4.367 19.302 19.302 0 01-.672 12.959 19.605 19.605 0 01-14.745 11.863 18.634 18.634 0 01-5.71.177 18.271 18.271 0 01-5.746-1.556 19.765 19.765 0 01-11.758-20.243c.21-1.986.736-3.926 1.556-5.746a19.136 19.136 0 012.953-4.862 19.894 19.894 0 018.628-5.888 19.575 19.575 0 019.052-.866 19.45 19.45 0 0111.545 5.958 15.418 15.418 0 012.829 3.89z" fill="#EBEBEB"/><path d="M429.624 119.57c.213.141-4.755 8.08-11.12 17.68-6.365 9.6-11.669 17.362-11.881 17.238-.212-.124 4.756-8.08 11.12-17.68 6.365-9.6 11.669-17.38 11.881-17.238zm18.034 64.302a32.533 32.533 0 01-4.95-1.362 227.307 227.307 0 00-11.899-3.288 206.471 206.471 0 00-12.075-2.564 35.095 35.095 0 01-5.021-1.06 24.758 24.758 0 015.127.406c4.098.57 8.164 1.349 12.182 2.334 4.027.962 7.999 2.143 11.898 3.536a25.811 25.811 0 014.738 1.998zm-44.13 4.19a20.394 20.394 0 011.592 4.279c.848 2.705 1.891 6.453 2.864 10.608.972 4.154 1.768 8.026 2.121 10.82.31 1.495.47 3.017.478 4.543a22.32 22.32 0 01-1.114-4.437c-.601-2.741-1.415-6.542-2.387-10.732a578.979 578.979 0 00-2.581-10.608 24.783 24.783 0 01-.973-4.473zm-19.872-2.245a123.07 123.07 0 01-7.284 12.959 124.006 124.006 0 01-8.062 12.5 116.56 116.56 0 017.284-12.977 116.545 116.545 0 018.062-12.482zm-2.758-62.588a115.162 115.162 0 014.686 13.649 114.112 114.112 0 013.801 13.915 113.553 113.553 0 01-4.685-13.649 109.456 109.456 0 01-3.802-13.915zm-4.154 43.21a73.239 73.239 0 01-11.474-.636 72.816 72.816 0 01-11.369-1.538 68.27 68.27 0 0111.457.636c3.83.215 7.636.73 11.386 1.538zm31.665-3.783a15.134 15.134 0 11-26.265 15.041 15.134 15.134 0 0126.265-15.041z" fill="#EBEBEB"/><path d="M402.645 170.223a20.56 20.56 0 00-7.497-2.864 20.277 20.277 0 00-7.956 1.202c0-.106.672-.725 2.104-1.309a12.389 12.389 0 015.941-.813c2.019.225 3.954.935 5.64 2.069 1.255.884 1.856 1.644 1.768 1.715z" fill="#E0E0E0"/><path d="M396.581 161.365a49.56 49.56 0 00-2.281 7.072 49.857 49.857 0 00-.318 7.39 14.99 14.99 0 012.599-14.426v-.036zm279.131 302.364l-11.563-20.156-18.104 2.67-14.869-18.794 7.709-18.723-20.209-13.401-15.081 15.204-19.854-3.536-8.133-23.337-24.133 2.546-1.379 20.438-17.928 9.176-19.024-13.49-19.306 14.144 10.042 21.552-11.492 17.309-20.88-1.114-5.446 25.759 19.873 7.638 1.768 21.641-20.58 11.827 9.83 22.33 21.322-3.324 14.144 16.301-7.372 20.315 19.448 13.79 15.24-16.478 21.216 5.711 6.577 21.817 23.497-1.573 3.023-19.607 20.155-11.563 16.478 13.154 20.845-15.541-10.608-18.352 10.272-18.405 21.127 1.556 6.489-23.956-18.157-9.83-2.511-21.835 17.574-11.863zm-81.841 70.507a47.488 47.488 0 1117.539-64.832 47.507 47.507 0 01-17.539 64.832z" fill="#E0E0E0"/><path d="M591.273 479.234a47.607 47.607 0 00-3.872-4.791 24.94 24.94 0 00-14.727-7.249 24.575 24.575 0 00-11.333 1.202 24.982 24.982 0 00-10.697 7.426 24.76 24.76 0 00-5.64 13.171 24.544 24.544 0 0014.516 25.283 23.394 23.394 0 007.072 1.962c2.354.289 4.737.223 7.072-.194a24.92 24.92 0 0016.71-11.173 24.917 24.917 0 003.021-19.873 50.875 50.875 0 00-2.193-5.764c.083.11.154.229.212.353l.584 1.044c.328.566.612 1.157.849 1.768.356.813.652 1.652.884 2.51a23.452 23.452 0 011.025 7.249 25.426 25.426 0 01-8.84 18.988 25.564 25.564 0 01-12.164 5.746 23.642 23.642 0 01-7.337.23 24.17 24.17 0 01-7.39-1.998 25.402 25.402 0 01-15.046-26.219 25.554 25.554 0 015.887-13.614 25.533 25.533 0 0111.104-7.585 25.233 25.233 0 0120.827 1.981 23.566 23.566 0 015.746 4.526c.639.633 1.23 1.312 1.768 2.033.404.508.771 1.046 1.096 1.609l.601 1.043c.096.106.184.218.265.336z" fill="#E0E0E0"/><path d="M613.849 426.353c.23.141-6.276 10.378-14.497 22.86s-15.064 22.507-15.276 22.366c-.212-.142 6.294-10.379 14.516-22.861 8.221-12.482 15.045-22.506 15.257-22.365zm23.339 83.114a63.406 63.406 0 01-6.365-1.874 269.818 269.818 0 00-15.399-4.279 258.307 258.307 0 00-15.647-3.306 66.312 66.312 0 01-6.524-1.255 5.822 5.822 0 011.768 0c1.149.088 2.793.283 4.844.565 4.067.566 9.654 1.556 15.753 3.041 6.1 1.485 11.51 3.183 15.382 4.562 1.945.689 3.536 1.273 4.544 1.768a6.09 6.09 0 011.644.778zm-57.089 5.498c.804 1.8 1.46 3.663 1.962 5.57a228.211 228.211 0 013.66 13.772c1.255 5.41 2.21 10.396 2.776 14.003.407 1.932.644 3.896.707 5.87a43.337 43.337 0 01-1.344-5.764c-.742-3.536-1.768-8.487-3.041-13.897a775.119 775.119 0 00-3.394-13.808 42.95 42.95 0 01-1.326-5.746zm-25.654-2.917c.213.141-4.048 7.62-9.547 16.708a191.841 191.841 0 01-10.325 16.23c-.212-.124 4.049-7.603 9.547-16.708 5.499-9.105 10.113-16.354 10.325-16.23zm-3.641-80.957c.247 0 2.899 7.85 5.94 17.68 3.041 9.83 5.304 17.875 5.039 17.946-.265.07-2.9-7.833-5.923-17.68a186.294 186.294 0 01-5.056-17.946zm-5.376 55.905a122.188 122.188 0 01-14.833-.955 116.18 116.18 0 01-14.728-1.874c4.954.017 9.901.336 14.816.955 4.949.321 9.873.947 14.745 1.874zm43.384 7.967c1.778-10.672-5.431-20.765-16.103-22.543-10.672-1.778-20.765 5.432-22.543 16.104-1.778 10.671 5.432 20.764 16.103 22.542 10.672 1.779 20.765-5.431 22.543-16.103z" fill="#E0E0E0"/><path d="M578.95 491.893a29.002 29.002 0 01-2.687-1.591 18.147 18.147 0 00-14.339-1.556c-1.768.548-2.899 1.113-2.97.99-.071-.124.901-.867 2.758-1.609a16.275 16.275 0 0114.887 1.609 6.951 6.951 0 012.351 2.157z" fill="#EBEBEB"/><path d="M571.064 480.418a45.929 45.929 0 00-3.094 9.088 47.113 47.113 0 00-.265 9.6 20.323 20.323 0 013.359-18.688z" fill="#EBEBEB"/><path d="M682.448 123.035l-5.817-10.131-9.123 1.344-7.531-9.459 3.889-9.423-10.166-6.754-7.584 7.655-10.007-1.768-4.049-11.757-12.146 1.29-.69 10.273-9.017 4.703-9.582-6.772-9.724 7.072 5.056 10.891-5.781 8.699-10.502-.548-2.758 12.959 10.06 3.766.866 10.891-10.378 5.94 4.968 11.245 10.714-1.662 7.072 8.203-3.713 10.219 9.831 6.949 7.673-8.31 10.608 2.882 3.306 10.979 11.828-.795 1.52-9.866 10.149-5.817 8.291 6.613 10.485-7.815-5.304-9.246 5.18-9.247 10.608.778 3.306-12.04-9.141-4.951-1.237-10.961 8.84-6.029zm-41.194 35.501a23.907 23.907 0 01-26.496-1.814 23.902 23.902 0 0125.231-40.334 23.906 23.906 0 0110.105 9.511 23.901 23.901 0 01-8.805 32.637h-.035z" fill="#F5F5F5"/><path d="M640.016 130.832a20.874 20.874 0 00-1.945-2.422 12.663 12.663 0 00-7.408-3.643 12.25 12.25 0 00-5.71.619 12.37 12.37 0 00-5.304 3.731 12.372 12.372 0 00-2.829 6.63 12.375 12.375 0 001.556 7.567 12.55 12.55 0 005.622 5.198 11.76 11.76 0 003.536.972 11.49 11.49 0 003.536-.088 12.373 12.373 0 005.94-2.776 12.05 12.05 0 003.395-4.615 12.46 12.46 0 00.583-8.238 23.083 23.083 0 00-.972-2.935l.106.177.301.53c.161.284.303.58.424.884.177.407.325.827.442 1.255.359 1.18.532 2.409.513 3.642a12.615 12.615 0 01-.955 4.774 12.747 12.747 0 01-3.536 4.791 12.903 12.903 0 01-6.135 2.917 11.688 11.688 0 01-3.695.106 11.584 11.584 0 01-3.713-1.007 12.822 12.822 0 01-5.976-5.304 13.054 13.054 0 01-1.609-7.85 12.803 12.803 0 012.971-6.86 12.905 12.905 0 015.586-3.819 12.875 12.875 0 0110.485.99 12.386 12.386 0 013.023 2.245c.317.318.606.661.866 1.026.209.253.393.525.548.813l.319.531c.018.051.03.104.035.159z" fill="#F5F5F5"/><path d="M651.35 104.312c.106 0-3.165 5.304-7.302 11.51-4.137 6.206-7.567 11.333-7.691 11.262-.124-.071 3.165-5.304 7.302-11.51 4.137-6.205 7.584-11.421 7.691-11.262zm11.738 41.76a33.023 33.023 0 01-3.2-.955 153.637 153.637 0 00-7.761-2.157 113.67 113.67 0 00-7.868-1.644 26.967 26.967 0 01-3.271-.654c.294-.031.59-.031.884 0 .584 0 1.415.141 2.44.283 2.051.283 4.862.796 7.939 1.538a79.657 79.657 0 017.743 2.298c.973.336 1.768.637 2.281.867.293.095.568.238.813.424zm-28.73 2.759c.406.908.737 1.848.99 2.811a83.272 83.272 0 011.768 6.93c.566 2.723 1.114 5.304 1.397 7.072.216.976.334 1.971.354 2.97a21.155 21.155 0 01-.672-2.899 639.865 639.865 0 00-1.521-7.072 112.198 112.198 0 00-1.768-6.948 19.795 19.795 0 01-.548-2.864zm-12.906-1.468c.106 0-2.051 3.836-4.809 8.416-2.758 4.579-5.092 8.238-5.198 8.168-.106-.071 2.051-3.837 4.809-8.363s5.074-8.274 5.198-8.221zm-1.839-40.753c.124 0 1.45 3.961 2.988 8.84 1.538 4.88 2.67 8.999 2.546 9.035a92.397 92.397 0 01-2.988-8.84 92.464 92.464 0 01-2.546-9.035zm-2.704 28.147a61.628 61.628 0 01-7.461-.477 55.55 55.55 0 01-7.426-.955c2.495.009 4.987.175 7.461.495 2.492.16 4.972.473 7.426.937zm20.65-2.511a9.848 9.848 0 11-13.455-3.642 9.84 9.84 0 017.485-.976 9.854 9.854 0 013.446 1.713 9.849 9.849 0 012.524 2.905z" fill="#F5F5F5"/><path d="M633.775 137.214s-.513-.336-1.344-.795a9.775 9.775 0 00-3.536-1.132 9.367 9.367 0 00-3.695.354c-.919.265-1.45.548-1.485.495a3.253 3.253 0 011.379-.813 8.265 8.265 0 017.496.813c.472.264.878.633 1.185 1.078z" fill="#EBEBEB"/><path d="M629.832 131.451a23.529 23.529 0 00-1.555 4.561 23.703 23.703 0 00-.142 4.844 8.842 8.842 0 01-.318-4.915 8.578 8.578 0 012.015-4.49z" fill="#EBEBEB"/><path d="M436.555 372.765l-14.657-25.53-22.984 3.377-18.953-23.815 9.759-23.709-25.512-16.99-19.112 19.271-25.158-4.42-10.22-29.579-30.568 3.218-1.768 25.883-22.79 11.581-24.115-17.079-24.469 17.821 12.712 27.404-14.569 21.924-26.52-1.397-6.842 32.637 25.176 9.742 2.157 27.422-26.078 15.01 12.376 28.288 27.015-4.19 17.893 20.65-9.371 25.742 24.752 17.468 19.307-20.898 26.785 7.249 8.345 27.651 29.773-1.997 3.837-24.841 25.529-14.657 20.881 16.673 26.413-19.696-13.348-23.249 13.013-23.32 26.767 1.98 8.31-30.533-22.984-12.376-3.059-27.652 22.277-15.063zm-103.711 89.337A60.11 60.11 0 01246 429.107a60.106 60.106 0 0117.433-64.447 60.112 60.112 0 1169.411 97.442z" fill="#F5F5F5"/><path d="M329.537 392.496a57.32 57.32 0 00-4.897-6.082 31.821 31.821 0 00-18.652-9.193 31.304 31.304 0 00-27.935 10.943 29.285 29.285 0 00-4.72 7.638 28.926 28.926 0 00-2.422 9.052 31.121 31.121 0 0018.387 32.037 29.294 29.294 0 009.034 2.475c2.994.394 6.03.316 8.999-.23a31.557 31.557 0 0012.122-4.833 31.551 31.551 0 0013.698-21.549 31.545 31.545 0 00-.767-13.027 53.812 53.812 0 00-2.776-7.302s.106.142.283.425c.177.283.442.795.743 1.326.411.719.765 1.47 1.06 2.245.462 1.029.84 2.093 1.132 3.182a29.81 29.81 0 011.291 9.159 32.134 32.134 0 01-11.139 24.062 32.409 32.409 0 01-15.399 7.302 32.46 32.46 0 01-18.67-2.245 32.198 32.198 0 01-19.059-33.221 32.283 32.283 0 017.461-17.256 32.11 32.11 0 0140.452-7.072 29.941 29.941 0 017.266 5.746 21.43 21.43 0 012.051 2.528c.521.645.988 1.331 1.397 2.051.318.513.565.955.778 1.309.118.162.214.341.282.53z" fill="#F5F5F5"/><path d="M358.162 325.4c.265.177-7.956 13.154-18.369 28.978-10.414 15.823-19.095 28.518-19.36 28.288-.265-.23 7.956-13.136 18.387-28.978 10.431-15.841 19.077-28.376 19.342-28.288zm29.561 105.32a74.747 74.747 0 01-8.062-2.369 366.964 366.964 0 00-19.448-5.428c-7.603-1.891-14.728-3.253-19.82-4.172a72.852 72.852 0 01-8.256-1.609 8.836 8.836 0 012.263 0c1.45.124 3.536.371 6.117.725 5.163.707 12.252 1.98 19.961 3.854 7.708 1.874 14.603 4.031 19.448 5.782 2.457.866 4.42 1.608 5.763 2.174a8.36 8.36 0 012.034 1.043zm-72.347 6.966a41.876 41.876 0 012.493 7.072c1.343 4.42 3.041 10.608 4.65 17.45 1.609 6.842 2.775 13.172 3.536 17.68.51 2.451.806 4.941.884 7.443a54.518 54.518 0 01-1.768-7.284 821.69 821.69 0 00-3.855-17.68c-1.591-6.913-3.147-13.03-4.296-17.503a53.594 53.594 0 01-1.644-7.178zm-32.496-3.678c.265.159-5.145 9.636-12.093 21.216-6.948 11.581-12.8 20.739-13.083 20.58-.283-.159 5.127-9.653 12.093-21.216s12.8-20.756 13.083-20.58zm-4.614-102.596c.301 0 3.678 9.936 7.514 22.418 3.837 12.482 6.719 22.666 6.4 22.754-.318.088-3.677-9.936-7.514-22.418-3.836-12.482-6.718-22.666-6.4-22.754zm-6.807 70.844c0 .318-8.451-.23-18.794-1.22-10.342-.99-18.705-2.034-18.67-2.369.036-.336 8.434.229 18.776 1.219 10.343.991 18.706 2.051 18.688 2.37zm54.311 12.868c3.804-13.171-3.789-26.932-16.96-30.736-13.171-3.804-26.932 3.789-30.736 16.96-3.804 13.171 3.79 26.932 16.96 30.736 13.171 3.804 26.932-3.79 30.736-16.96z" fill="#F5F5F5"/><path d="M313.926 408.408a37.807 37.807 0 01-3.412-2.016 23.598 23.598 0 00-8.84-2.864 23.91 23.91 0 00-9.3.884c-1.23.491-2.487.91-3.766 1.255a8.683 8.683 0 013.536-2.033 20.85 20.85 0 019.689-1.273 20.614 20.614 0 019.176 3.324 8.728 8.728 0 012.917 2.723z" fill="#EBEBEB"/><path d="M303.972 393.91c.336.195-2.758 4.88-3.907 11.528-1.149 6.647 0 12.093-.336 12.164-.336.07-2.086-5.446-.813-12.376 1.273-6.931 4.879-11.528 5.056-11.316z" fill="#EBEBEB"/><path d="M1114.34 357.295l-14.64-25.53-22.99 3.377-18.95-23.815 9.78-23.727-25.6-16.972-19.12 19.324-25.155-4.403-10.201-29.596-30.587 3.236-1.768 25.883-22.789 11.58-24.115-17.078-24.47 17.821 12.712 27.386-14.55 21.941-26.52-1.396-6.736 32.548 25.158 9.689 2.175 27.422-26.096 14.975 12.376 28.288 27.051-4.19 17.892 20.667-9.353 25.725 24.752 17.485 19.307-20.897 26.802 7.248 8.328 27.652 29.777-2.016 3.83-24.752 25.53-14.656 20.9 16.654 26.4-19.678-13.35-23.267 13.01-23.302 26.79 1.963 8.22-30.357-22.99-12.376-3.06-27.669 22.25-15.187zm-103.73 89.337a60.112 60.112 0 1129.74-59.905c1.02 7.84.48 15.804-1.59 23.436a60.048 60.048 0 01-10.44 21.039 60.106 60.106 0 01-17.71 15.43z" fill="#F5F5F5"/><path d="M1007.3 376.955a53.522 53.522 0 00-4.9-6.082 31.412 31.412 0 00-10.836-7.223 31.461 31.461 0 00-25.469.967 31.464 31.464 0 00-10.261 8.024 31.36 31.36 0 00-7.072 16.69 31.153 31.153 0 0018.335 32.019c2.86 1.3 5.91 2.136 9.034 2.475 2.988.376 6.016.299 8.981-.23a31.37 31.37 0 0014.137-6.312 31.312 31.312 0 009.391-12.305 31.655 31.655 0 001.47-20.739 54.183 54.183 0 00-2.79-7.284s.12.124.28.425l.74 1.326c.42.709.78 1.455 1.06 2.227.46 1.033.85 2.096 1.15 3.183a30.33 30.33 0 011.29 9.176 32.028 32.028 0 01-2.97 13.234 32.125 32.125 0 01-8.16 10.828 32.491 32.491 0 01-15.421 7.302 32.23 32.23 0 01-18.652-2.263 32.142 32.142 0 01-19.077-33.221 32.302 32.302 0 017.461-17.238 32.316 32.316 0 0114.144-9.635 32.218 32.218 0 0126.396 2.51 30.405 30.405 0 017.269 5.746 23.9 23.9 0 012.17 2.581c.52.642.99 1.322 1.4 2.034l.76 1.308c.09.3.16.46.14.477z" fill="#F5F5F5"/><path d="M1035.94 309.93c.27.177-7.95 13.154-18.38 28.978-10.44 15.823-19.082 28.517-19.347 28.288-.265-.23 7.957-13.154 18.367-28.978 10.42-15.824 19.08-28.465 19.36-28.288zm29.56 105.32a78.625 78.625 0 01-8.08-2.369 356.643 356.643 0 00-19.44-5.428c-7.62-1.891-14.71-3.253-19.82-4.172-2.78-.39-5.54-.927-8.26-1.609a7.923 7.923 0 012.26 0c1.45.124 3.54.353 6.12.725 6.72.948 13.39 2.234 19.98 3.854 7.71 1.892 14.58 4.031 19.45 5.764 2.44.866 4.42 1.626 5.76 2.192.72.258 1.4.609 2.03 1.043zm-72.344 6.966a42.23 42.23 0 012.476 7.072c1.361 4.42 3.058 10.608 4.648 17.45a293.549 293.549 0 013.54 17.68c.51 2.451.81 4.941.9 7.443a53.76 53.76 0 01-1.77-7.302c-.94-4.508-2.24-10.749-3.836-17.68-1.591-6.93-3.164-13.03-4.314-17.503a52.848 52.848 0 01-1.644-7.16zm-32.513-3.695c.283.176-5.127 9.653-12.075 21.216-6.949 11.562-12.818 20.738-13.101 20.561-.283-.176 5.145-9.635 12.093-21.216 6.948-11.58 12.818-20.721 13.083-20.561zm-4.614-102.579c.318-.106 3.677 9.936 7.514 22.418 3.836 12.482 6.718 22.666 6.418 22.754-.301.089-3.678-9.936-7.532-22.418s-6.701-22.666-6.4-22.754zm-6.807 70.825c0 .336-8.451-.212-18.794-1.202s-18.705-2.051-18.67-2.369c.035-.318 8.451.23 18.794 1.202 10.342.973 18.705 2.051 18.67 2.369zm54.428 12.607c3.63-13.22-4.146-26.878-17.367-30.505-13.221-3.626-26.879 4.151-30.505 17.372-3.627 13.221 4.15 26.878 17.371 30.505 13.221 3.627 26.881-4.151 30.501-17.372z" fill="#F5F5F5"/><path d="M991.688 392.991a37.456 37.456 0 01-3.394-2.034 24.347 24.347 0 00-8.84-2.864 23.747 23.747 0 00-9.282.902 32.963 32.963 0 01-3.766 1.238 8.845 8.845 0 013.536-2.016 20.627 20.627 0 0118.865 2.051c1.998 1.397 3.041 2.617 2.881 2.723z" fill="#EBEBEB"/><path d="M981.753 378.44c.319.177-2.758 4.862-3.925 11.51-1.166 6.648 0 12.111-.335 12.164-.336.053-2.087-5.428-.796-12.376 1.291-6.949 4.862-11.51 5.056-11.298z" fill="#EBEBEB"/><path d="M843.69 515.124l-7.195-12.552-11.298 1.644-9.317-11.704 4.809-11.652-12.588-8.362-9.389 9.476-12.376-2.174-5.021-14.551-15.045 1.591-.849 12.73-11.209 5.693-11.863-8.398-12.023 8.84 6.259 13.472-7.16 10.785-13.013-.69-3.394 16.036 12.376 4.774 1.06 13.472-12.835 7.372 6.135 13.914 13.277-2.068 8.84 10.166-4.596 12.659 12.163 8.592 9.494-10.272 13.172 3.536 4.102 13.596 14.639-.99 1.892-12.199 12.552-7.214 10.272 8.204 12.978-9.689-6.56-11.439 6.4-11.456 13.172.954 4.031-14.922-11.297-6.117-1.503-13.613 10.908-7.444zm-50.989 43.935a29.594 29.594 0 01-42.789-16.215 29.593 29.593 0 0124.255-38.801 29.599 29.599 0 0129.46 14.617 29.594 29.594 0 01-10.926 40.399z" fill="#F5F5F5"/><path d="M791.074 524.795a26.115 26.115 0 00-2.404-3.005 15.58 15.58 0 00-9.176-4.509 15.44 15.44 0 00-13.738 5.304 14.314 14.314 0 00-2.316 3.766 14.501 14.501 0 00-1.202 4.438 15.329 15.329 0 009.052 15.753 15.495 15.495 0 008.84 1.114 15.594 15.594 0 007.355-3.43 15.632 15.632 0 004.933-15.912 27.42 27.42 0 00-1.362-3.536l.142.194.353.654c.208.356.385.729.531 1.114a14.734 14.734 0 011.184 6.064 15.39 15.39 0 01-1.184 5.906 15.627 15.627 0 01-4.279 5.922 15.895 15.895 0 01-7.584 3.536 15.11 15.11 0 01-4.562.142 14.484 14.484 0 01-4.614-1.255 15.77 15.77 0 01-9.371-16.319 15.784 15.784 0 013.66-8.486 16.02 16.02 0 016.913-4.739 15.707 15.707 0 017.284-.707 15.9 15.9 0 015.711 1.945 15.227 15.227 0 013.536 2.811c.383.399.737.824 1.06 1.273.254.319.484.656.69 1.008l.389.654.159.3z" fill="#F5F5F5"/><path d="M805.148 491.822c.141.088-3.907 6.471-9.035 14.25-5.127 7.779-9.388 14.038-9.512 13.95-.123-.089 3.908-6.471 9.035-14.251 5.127-7.779 9.388-14.02 9.512-13.949zm14.532 51.802s-1.52-.424-3.96-1.167c-2.44-.742-5.817-1.768-9.6-2.669-3.784-.902-7.232-1.609-9.742-2.051a37.197 37.197 0 01-4.066-.796c.37-.042.743-.042 1.113 0 .708 0 1.768.177 3.006.354 2.546.353 6.029.972 9.83 1.892 3.801.919 7.178 1.98 9.583 2.846 1.202.424 2.174.796 2.828 1.061.36.127.7.306 1.008.53zm-35.572 3.413a20.554 20.554 0 011.22 3.536c.672 2.175 1.503 5.198 2.299 8.593.795 3.394 1.361 6.47 1.768 8.716.255 1.204.403 2.429.442 3.66a28.85 28.85 0 01-.831-3.536 375.272 375.272 0 00-1.892-8.664 354.61 354.61 0 00-2.122-8.61 26.914 26.914 0 01-.884-3.695zm-15.983-1.804c.142.089-2.528 4.739-5.94 10.414-3.412 5.675-6.294 10.184-6.435 10.113-.142-.071 2.528-4.738 5.94-10.414a118.727 118.727 0 016.435-10.113zm-2.263-50.441c.142 0 1.768 4.88 3.695 11.015 1.239 3.674 2.29 7.41 3.147 11.191a114.708 114.708 0 01-3.695-11.014 115.77 115.77 0 01-3.147-11.192zm-3.358 34.83a151.263 151.263 0 01-18.423-1.768c3.092.005 6.18.206 9.247.601 3.08.192 6.145.582 9.176 1.167zm26.617 6.709c2.062-6.414-1.466-13.285-7.88-15.347-6.414-2.062-13.286 1.466-15.348 7.881-2.061 6.414 1.467 13.285 7.881 15.347 6.414 2.062 13.285-1.467 15.347-7.881z" fill="#F5F5F5"/><path d="M783.401 532.681s-.636-.425-1.768-1.008a12.068 12.068 0 00-4.367-1.397 11.463 11.463 0 00-4.561.442c-.606.237-1.226.437-1.856.601a4.329 4.329 0 011.768-.99 10.082 10.082 0 019.282 1.008 4.29 4.29 0 011.502 1.344z" fill="#EBEBEB"/><path d="M778.504 525.52a19.887 19.887 0 00-2.086 11.634 10.61 10.61 0 01-.407-6.065 10.805 10.805 0 012.493-5.569z" fill="#EBEBEB"/><path d="M929.633 161.772l-11.563-20.155-18.158 2.669-14.921-18.758 7.708-18.723-20.191-13.437-15.028 15.205-19.854-3.536-8.062-23.338-24.134 2.546-1.361 20.421-18.034 9.193-19.041-13.49-19.306 14.144 10.024 21.623-11.474 17.309-20.88-1.114-5.463 25.76 19.872 7.549 1.768 21.64-20.597 11.828 9.847 22.33 21.305-3.324 14.144 16.301-7.39 20.314 19.536 13.791 15.223-16.478 21.216 5.711 6.577 21.817 23.496-1.574 3.041-19.607 20.138-11.562 16.478 13.153 20.667-15.523-10.608-18.351 10.273-18.405 21.216 1.556 6.488-23.957-18.14-9.83-2.422-21.817 17.61-11.881zm-81.841 70.508a47.512 47.512 0 01-52.666-3.573 47.504 47.504 0 01-2.233-73.413 47.509 47.509 0 0152.352-6.767 47.502 47.502 0 0120.085 18.903 47.502 47.502 0 01-17.538 64.85z" fill="#E0E0E0"/><path d="M845.104 177.277a44.505 44.505 0 00-3.872-4.791 24.872 24.872 0 00-14.709-7.249 24.549 24.549 0 00-11.333 1.202 24.921 24.921 0 00-10.714 7.426 24.744 24.744 0 00-5.64 13.172 24.543 24.543 0 0014.515 25.282 23.526 23.526 0 007.072 1.962 23.82 23.82 0 007.072-.194 24.744 24.744 0 0018.564-14.674 25.07 25.07 0 001.149-16.372 43.446 43.446 0 00-2.192-5.764c.093.106.171.225.23.354l.583 1.043c.329.563.608 1.155.831 1.768.364.813.665 1.652.902 2.51a24.442 24.442 0 011.025 7.249 25.316 25.316 0 01-20.95 24.752 23.617 23.617 0 01-7.338.23 23.91 23.91 0 01-7.39-1.998 25.39 25.39 0 01-15.063-26.219c.276-2.553.95-5.046 1.998-7.39a23.894 23.894 0 014.066-6.312 25.474 25.474 0 0111.138-7.532 25.04 25.04 0 0111.669-1.149c3.229.444 6.343 1.5 9.176 3.112a24.202 24.202 0 015.675 4.543 16.214 16.214 0 011.768 2.034c.411.504.778 1.042 1.097 1.608l.618 1.044c.031.115.049.234.053.353z" fill="#E0E0E0"/><path d="M867.771 124.396c.212.142-6.277 10.379-14.498 22.861-8.221 12.482-15.063 22.471-15.24 22.365-.177-.106 6.276-10.378 14.497-22.86 8.222-12.482 15.028-22.507 15.241-22.366zm23.3 83.114a64.615 64.615 0 01-6.364-1.874 262.509 262.509 0 00-15.4-4.279 261.063 261.063 0 00-15.646-3.306 65.061 65.061 0 01-6.507-1.255 5.76 5.76 0 011.768 0c1.149 0 2.794.283 4.827.566 4.066.565 9.671 1.556 15.753 3.041a160.219 160.219 0 0115.399 4.561c1.927.69 3.536 1.273 4.544 1.768a5.76 5.76 0 011.626.778zm-57.07 5.481a32.77 32.77 0 011.962 5.587 240.733 240.733 0 013.678 13.772 206.838 206.838 0 012.776 14.003 32.36 32.36 0 01.689 5.87 43.614 43.614 0 01-1.344-5.764 550.016 550.016 0 00-3.023-13.897 541.18 541.18 0 00-3.412-13.808 42.244 42.244 0 01-1.326-5.763zm-25.654-2.9c.23.142-4.048 7.62-9.529 16.708-5.481 9.088-10.113 16.372-10.325 16.23-.212-.141 4.049-7.602 9.529-16.707 5.481-9.106 10.113-16.354 10.325-16.231zm-3.642-81.027c.248 0 2.9 7.85 5.941 17.68s5.304 17.892 5.056 17.963a186.06 186.06 0 01-5.94-17.68c-3.023-9.777-5.322-17.822-5.057-17.963zm-5.375 55.975a239.282 239.282 0 01-29.56-2.829 122 122 0 0114.833.955c4.943.32 9.862.946 14.727 1.874zm26.994 22.751c10.386-2.921 16.437-13.708 13.516-24.095-2.921-10.386-13.709-16.437-24.095-13.516-10.386 2.921-16.438 13.708-13.516 24.095 2.921 10.386 13.708 16.437 24.095 13.516z" fill="#E0E0E0"/><path d="M832.852 189.936c-.088.106-1.025-.672-2.687-1.591a18.127 18.127 0 00-14.338-1.556c-1.768.548-2.9 1.114-2.971.99a6.605 6.605 0 012.759-1.609 16.286 16.286 0 0114.886 1.609c1.644 1.114 2.44 2.086 2.351 2.157z" fill="#EBEBEB"/><path d="M825.002 178.462a48.146 48.146 0 00-3.076 9.087 48.001 48.001 0 00-.283 9.601 20.336 20.336 0 013.359-18.688zm-252.17 21.888l-3.006-5.304-4.685.689-3.978-4.791 1.998-4.862-5.304-3.536-3.907 3.942-5.145-.901-2.087-6.065-6.258.672-.354 5.304-4.65 2.369-4.932-3.536-5.004 3.643 2.599 5.604-2.988 4.473-5.41-.283-1.414 6.683 5.145 1.98.459 5.605-5.304 3.059 2.546 5.799 5.516-.867 3.731 4.332-1.91 5.304 5.057 3.536 3.96-4.279 5.481 1.486 1.768 5.657 6.1-.407.777-5.091 5.216-2.988 4.279 3.412 5.392-4.031-2.723-4.756 2.67-4.774 5.463.407 1.68-6.206-4.703-2.546-.619-5.657 4.544-3.076zm-21.216 18.263a12.375 12.375 0 11-12.448-21.393 12.375 12.375 0 0112.448 21.393z" fill="#EBEBEB"/><path d="M550.855 204.363s-.371-.46-1.096-1.149a6.517 6.517 0 00-3.766-1.768 6.117 6.117 0 104.898 8.522 6.634 6.634 0 00.406-4.12c-.23-.972-.512-1.485-.442-1.52.376.404.643.897.778 1.432a6.364 6.364 0 01-.141 4.455 6.79 6.79 0 01-5.092 4.173 6.898 6.898 0 01-3.697-13.236 6.868 6.868 0 013.379-.36 6.451 6.451 0 013.925 2.139c.398.399.69.891.848 1.432z" fill="#EBEBEB"/><path d="M556.708 190.661a27.013 27.013 0 01-3.536 6.1 26.525 26.525 0 01-4.243 5.622 26.894 26.894 0 013.536-6.117 26.702 26.702 0 014.243-5.605zm6.046 21.499a30.332 30.332 0 01-5.728-1.255 29.796 29.796 0 01-5.658-1.521 22.05 22.05 0 0111.386 2.776zm-14.798 1.467a12.978 12.978 0 011.768 4.933c.552 1.68.745 3.457.566 5.216a18.12 18.12 0 01-1.45-5.004 18.246 18.246 0 01-.884-5.145zm-6.647-.76a14.155 14.155 0 01-2.175 4.509 14.462 14.462 0 01-2.97 4.031 13.554 13.554 0 012.175-4.509 14.15 14.15 0 012.97-4.031zm-.937-20.986c.89 1.37 1.52 2.892 1.856 4.491a13.76 13.76 0 01.991 4.755 13.28 13.28 0 01-1.875-4.49 13.03 13.03 0 01-.972-4.756zm-1.397 14.498a8.725 8.725 0 01-3.872 0 8.468 8.468 0 01-3.801-.831 8.83 8.83 0 013.889 0 8.153 8.153 0 013.784.831zm10.625-1.291a5.072 5.072 0 01-8.223 5.862 5.074 5.074 0 118.223-5.862z" fill="#EBEBEB"/><path d="M547.656 207.634c-.177.195-1.167-.513-2.546-.654-1.379-.142-2.511.318-2.635.106-.123-.212.973-1.202 2.723-1.025 1.75.176 2.67 1.432 2.458 1.573z" fill="#E0E0E0"/><path d="M545.623 204.664c.212.159-.248 1.149-.46 2.422-.212 1.273-.159 2.351-.406 2.422-.248.071-.778-1.078-.495-2.581.282-1.503 1.166-2.422 1.361-2.263z" fill="#E0E0E0"/><path d="M1062.29 178.568l-4.88-8.486-7.62 1.114-6.32-7.903 3.19-7.956-8.51-5.658-6.34 6.418-8.37-1.468-3.3-9.847-10.17 1.078-.58 8.61-7.57 3.837-8.027-5.675-8.133 5.922 4.226 9.106-4.844 7.372-8.84-.477-2.281 10.855 8.363 3.218.724 9.123-8.68 4.968 4.137 9.406 8.981-1.397 5.994 6.736-3.112 8.54 8.221 5.816 6.421-6.948 8.84 2.405 2.77 9.193 9.9-.654 1.28-8.256 8.48-4.88 6.95 5.534 8.84-6.542-4.44-7.726 4.34-7.744 8.84.654 2.74-10.095-7.61-4.049-1.02-9.193 7.41-4.951zm-34.48 29.703a20.004 20.004 0 01-11.32 2.613 20.042 20.042 0 01-10.87-4.118 20.017 20.017 0 01-.94-30.93 20.043 20.043 0 0110.6-4.769 20.012 20.012 0 0119.92 9.888 19.989 19.989 0 011.93 15.149 19.958 19.958 0 01-9.32 12.096v.071z" fill="#EBEBEB"/><path d="M1026.71 185.021c-.09 0-.53-.778-1.76-1.944a10.742 10.742 0 00-6.16-2.935c-1.87-.23-3.78.068-5.49.859a10.205 10.205 0 00-4.23 3.62 10.197 10.197 0 00-.35 10.697 10.216 10.216 0 009.42 5.1 10.193 10.193 0 008.77-6.132 10.56 10.56 0 00.56-6.789c-.42-1.592-.92-2.405-.83-2.458.16.171.29.361.39.566.33.557.59 1.15.78 1.768.72 2.321.62 4.821-.3 7.072a10.988 10.988 0 01-3.23 4.34 10.945 10.945 0 01-4.92 2.254c-2.15.397-4.36.131-6.35-.76a10.853 10.853 0 01-5.12-4.569 10.899 10.899 0 01-1.37-6.728 10.84 10.84 0 012.55-5.87 10.899 10.899 0 019.81-3.713c2.43.351 4.66 1.532 6.31 3.342.45.476.84 1.004 1.17 1.573.15.218.27.456.35.707z" fill="#EBEBEB"/><path d="M1036.23 162.744a71.617 71.617 0 01-5.89 9.795 71.961 71.961 0 01-6.65 9.264c1.7-3.411 3.67-6.68 5.89-9.777a72.495 72.495 0 016.65-9.282zm9.82 35.007c0 .265-4.13-1.096-9.22-2.316-5.1-1.22-9.3-1.927-9.29-2.193 3.22-.048 6.42.387 9.5 1.291 3.15.622 6.18 1.706 9.01 3.218zm-24.04 2.316a30.816 30.816 0 012.63 8.097c.79 2.742 1.2 5.581 1.21 8.434a54.226 54.226 0 01-2.11-8.222 54.712 54.712 0 01-1.73-8.309zm-10.71-1.22c-1 2.527-2.27 4.935-3.81 7.178a34.878 34.878 0 01-4.57 6.7 36.153 36.153 0 013.8-7.178 34.479 34.479 0 014.58-6.7zm-1.63-34.105a34.655 34.655 0 012.76 7.373 35.39 35.39 0 011.87 7.655 34 34 0 01-2.76-7.372 33.657 33.657 0 01-1.87-7.656zm-2.26 23.55c-2.09.267-4.21.22-6.28-.142a21.497 21.497 0 01-6.17-1.043c4.161-.201 8.33.198 12.38 1.185h.07zm17.29-2.104a8.288 8.288 0 011.08 4.671 8.309 8.309 0 01-1.69 4.486 8.279 8.279 0 01-8.7 2.935 8.274 8.274 0 01-4.07-2.54 8.208 8.208 0 01-1.96-4.373c-.21-1.62.06-3.266.79-4.729a8.209 8.209 0 013.29-3.491 8.248 8.248 0 016.26-.816c1.04.283 2.02.769 2.88 1.431a8.23 8.23 0 012.12 2.426z" fill="#EBEBEB"/><path d="M1021.52 190.361a21.033 21.033 0 00-4.11-1.362c-1.45.003-2.89.151-4.31.442a4.82 4.82 0 014.4-1.361c2.74.318 4.25 2.157 4.02 2.281z" fill="#E0E0E0"/><path d="M1018.23 185.534c.21.142-.67 1.768-1.05 3.872-.37 2.104-.12 3.925-.37 3.996a5.248 5.248 0 01-.7-2.03c-.1-.717-.04-1.447.16-2.143.42-2.369 1.76-3.872 1.96-3.695z" fill="#E0E0E0"/><path d="M431.551 581.831l-4.879-8.486-7.62 1.131-6.312-7.92 3.253-7.886-8.504-5.64-6.347 6.401-8.363-1.468-3.395-9.883-10.166 1.061-.583 8.61-7.567 3.854-8.027-5.675-8.133 5.923 4.226 9.105-4.827 7.284-8.84-.46-2.298 10.838 8.38 3.218.707 9.123-8.663 4.968 4.137 9.406 8.982-1.397 5.94 6.878-3.076 8.592 8.239 5.799 6.418-6.948 8.84 2.422 2.775 9.176 9.901-.654 1.273-8.257 8.487-4.879 6.948 5.551 8.84-6.559-4.438-7.726 4.332-7.744 8.84.654 2.74-10.095-7.655-4.137-1.008-9.194 7.443-4.986zm-34.476 29.703a20.016 20.016 0 01-28.935-10.967 20.009 20.009 0 015.808-21.468 20.012 20.012 0 0132.478 20.307 20.014 20.014 0 01-9.351 12.128z" fill="#EBEBEB"/><path d="M396.032 588.373c-.088 0-.53-.796-1.768-1.963a10.732 10.732 0 00-6.152-2.935 10.188 10.188 0 00-11.414 9.779 10.186 10.186 0 0016.013 8.677 10.186 10.186 0 003.516-4.312 10.747 10.747 0 00.565-6.806c-.424-1.592-.919-2.405-.83-2.44.156.162.288.346.389.548.32.561.58 1.153.777 1.768a10.482 10.482 0 01-.3 7.072 10.939 10.939 0 01-6.017 5.979 10.92 10.92 0 01-8.481-.127 11.103 11.103 0 01-5.127-4.597 10.907 10.907 0 01-1.361-6.718 10.876 10.876 0 014.158-7.409 10.871 10.871 0 018.218-2.156 10.431 10.431 0 016.329 3.324 7.756 7.756 0 011.167 1.591c.149.22.257.466.318.725z" fill="#EBEBEB"/><path d="M405.491 566.096a71.385 71.385 0 01-5.887 9.777 71.947 71.947 0 01-6.648 9.264 141.889 141.889 0 0112.535-19.041zm9.83 35.024c-.106.248-4.137-1.114-9.229-2.334s-9.318-1.927-9.282-2.192a32.033 32.033 0 019.494 1.291 31.552 31.552 0 019.017 3.235zm-24.045 2.298a30.18 30.18 0 012.617 8.08 30.59 30.59 0 011.22 8.434 190.174 190.174 0 01-3.837-16.514zm-10.802-1.237a36.366 36.366 0 01-3.801 7.178 34.183 34.183 0 01-4.579 6.701 36.86 36.86 0 013.801-7.179 35.512 35.512 0 014.579-6.7zm-1.538-34.087a33.755 33.755 0 012.758 7.372 35.12 35.12 0 011.874 7.638 33.128 33.128 0 01-2.758-7.372 34.075 34.075 0 01-1.874-7.638zm-2.263 23.532a21.366 21.366 0 01-6.276-.124 21.868 21.868 0 01-6.188-.99 43.43 43.43 0 0112.376 1.184l.088-.07zm17.291-2.104a8.256 8.256 0 11-11.262-3.041 8.236 8.236 0 0111.262 3.041z" fill="#EBEBEB"/><path d="M390.728 593.694a20.913 20.913 0 00-4.102-1.361 19.624 19.624 0 00-4.314.46 4.728 4.728 0 014.403-1.362 4.789 4.789 0 014.013 2.263z" fill="#E0E0E0"/><path d="M387.475 588.868c.23.141-.672 1.768-1.025 3.872-.354 2.103-.124 3.924-.389 3.995a5.294 5.294 0 01-.531-4.155c.425-2.369 1.768-3.836 1.945-3.712z" fill="#E0E0E0"/><path d="M1265.39 823.004c0 .248-270.784.46-604.653.46s-604.815-.212-604.815-.46c0-.247 270.734-.46 604.815-.46 334.081 0 604.653.195 604.653.46zm-478.401-396.28V413.8l-9.476-3.73-2.016-13.189 8.84-6.896-6.029-12.057-11.492 3.164-8.61-7.178 2.599-13.49-12.376-5.445-6.329 9.459-11.192-.566-5.445-11.775-13.207 1.45-1.149 13.189-10.325 5.163-9.76-6.312-9.653 10.997 7.461 9.194-5.163 10.89H670.46l-1.432 13.49 11.192 4.314 2.227 11.616-9.175 7.761 5.586 12.058 11.917-3.748 8.61 8.61-2.794 12.447 11.775 5.746 6.896-8.61h12.906l4.314 10.908 14.338-1.768v-11.774l10.043-6.029 9.759 6.612 9.759-9.759-6.029-9.76 4.88-11.191 11.757-.867zm-58.98 11.333a26.413 26.413 0 1110.098-50.813 26.407 26.407 0 0116.298 24.417 26.396 26.396 0 01-26.396 26.396z" fill="#263238"/><path d="M741.976 410.83c-.106 0 0-1.255-.618-3.377a13.854 13.854 0 00-5.092-7.461 13.632 13.632 0 00-5.746-2.51 13.804 13.804 0 00-7.072.618 13.51 13.51 0 00-6.277 4.739 13.487 13.487 0 000 15.912 13.649 13.649 0 008.977 5.422 13.636 13.636 0 0010.171-2.558 13.882 13.882 0 005.092-7.479c.565-2.121.512-3.377.618-3.359.039.293.039.591 0 .884.005.864-.096 1.725-.3 2.564a13.865 13.865 0 01-5.057 7.903 14.298 14.298 0 01-10.726 2.85 14.322 14.322 0 01-5.341-1.877 14.322 14.322 0 01-4.194-3.802 14.321 14.321 0 010-17.044 14.252 14.252 0 016.718-5.003 14.461 14.461 0 017.55-.566 14.141 14.141 0 015.993 2.723 13.862 13.862 0 015.057 7.903c.204.839.305 1.7.3 2.563.026.32.008.641-.053.955z" fill="#263238"/><path d="M767.506 391.576a125.185 125.185 0 01-13.224 7.196 122.663 122.663 0 01-13.649 6.365 122.775 122.775 0 0113.224-7.178 124.775 124.775 0 0113.649-6.383zm-11.757 46.534c-.212.177-3.908-4.084-8.946-8.84-5.039-4.756-9.441-8.274-9.265-8.486a13.141 13.141 0 013.094 2.015 82.023 82.023 0 0112.942 12.376 13.468 13.468 0 012.175 2.935zm-29.101-13.154a77.633 77.633 0 01-6.471 21.428c-.248 0 1.361-4.844 3.129-10.749a109.219 109.219 0 013.342-10.679zm-11.51-8.504a63.393 63.393 0 01-9.123 5.587 61.925 61.925 0 01-9.582 4.791 63.154 63.154 0 019.14-5.587 61.44 61.44 0 019.565-4.791zm20.651-40.045a57.913 57.913 0 01-1.768 10.219 58.163 58.163 0 01-2.723 10.007 57.853 57.853 0 011.768-10.219 59.16 59.16 0 012.723-10.007zm-17.981 25.459a37.248 37.248 0 01-7.072-4.385 38.865 38.865 0 01-6.471-5.145 36.14 36.14 0 017.072 4.385 37.158 37.158 0 016.471 5.145zm21.092 8.964a10.89 10.89 0 11-21.78 0 10.89 10.89 0 0121.78 0z" fill="#263238"/><path d="M732.535 413.517a19.008 19.008 0 00-3.731-4.384 18.268 18.268 0 00-5.304-2.193c0-.124.69-.283 1.768-.159a8.834 8.834 0 016.825 4.968c.495 1.026.548 1.733.442 1.768z" fill="#455A64"/><path d="M731.951 405.809c.142.247-1.98 1.414-3.836 3.659-1.857 2.246-2.688 4.509-2.953 4.42a9.974 9.974 0 016.789-8.079z" fill="#455A64"/><path d="M727.32 272.784l-8.734-15.204-13.667 1.998-11.297-14.144 5.816-14.144-15.222-10.149-11.386 11.492-14.993-2.634-6.082-17.68-18.228 1.927-1.025 15.417-13.579 6.895-14.373-10.166L589.964 237l7.584 16.319-8.681 13.083-15.752-.849-4.12 19.448 14.993 5.764 1.29 16.336-15.54 8.929 7.425 16.866 16.089-2.51 10.608 12.376-5.569 15.346 14.745 10.414 11.492-12.376 15.912 4.314 4.968 16.477 17.68-1.202 2.281-14.798 15.205-8.734 12.376 9.936 15.735-11.739-7.956-13.844 7.761-13.896 15.912 1.167 4.898-18.087-13.702-7.408-1.768-16.495 13.49-9.053zm-61.792 53.235a35.848 35.848 0 01-20.283 4.675 35.847 35.847 0 01-31.545-24.329 35.85 35.85 0 0110.402-38.455 35.856 35.856 0 0154.668 9.153 35.872 35.872 0 01-13.242 48.956z" fill="#407BFF"/><path d="M663.566 284.506a42.242 42.242 0 00-2.953-3.536 18.921 18.921 0 00-11.103-5.41 18.443 18.443 0 00-8.504.92 18.644 18.644 0 00-8.062 5.516 17.05 17.05 0 00-2.793 4.526 17.52 17.52 0 00-1.432 5.304 18.435 18.435 0 0010.891 18.97 18.77 18.77 0 0010.608 1.344 18.787 18.787 0 008.84-4.137 18.6 18.6 0 005.091-6.877 18.86 18.86 0 00.902-12.376c-.463-1.476-1-2.928-1.609-4.35a14.682 14.682 0 011.963 4.261 18.97 18.97 0 01-.654 12.659 19.308 19.308 0 01-5.198 7.213 19.531 19.531 0 01-9.229 4.385 18.877 18.877 0 01-5.569.177 18.228 18.228 0 01-5.605-1.521 19.277 19.277 0 01-8.914-8.071 19.283 19.283 0 01-2.401-11.783 18.666 18.666 0 011.52-5.605 17.936 17.936 0 012.97-4.72 19.114 19.114 0 0117.274-6.613 18.885 18.885 0 0111.262 5.817 15.054 15.054 0 012.705 3.907z" fill="#263238"/><path d="M680.679 244.567c.212.142-4.632 7.903-10.855 17.327-6.224 9.423-11.404 16.973-11.616 16.831-.212-.141 4.65-7.903 10.855-17.326 6.206-9.424 11.333-16.973 11.616-16.832zm17.557 62.746a32.228 32.228 0 01-4.844-1.326 217.103 217.103 0 00-11.634-3.2 221.033 221.033 0 00-11.792-2.528 33.93 33.93 0 01-4.898-1.025 22.76 22.76 0 015.004.388 119.31 119.31 0 0111.916 2.263c3.931.977 7.808 2.158 11.616 3.536a23.893 23.893 0 014.632 1.892zm-43.104 4.155a21.085 21.085 0 011.556 4.19c.813 2.635 1.768 6.294 2.793 10.396 1.026 4.102 1.644 7.85 2.069 10.608.31 1.465.464 2.958.459 4.456a22.53 22.53 0 01-1.096-4.332c-.583-2.687-1.379-6.4-2.334-10.484a641.87 641.87 0 00-2.528-10.431 24.065 24.065 0 01-.919-4.403zm-19.377-2.192a115.29 115.29 0 01-7.072 12.676 118.002 118.002 0 01-7.885 12.2 108.477 108.477 0 017.072-12.677 113.461 113.461 0 017.885-12.199zm-2.812-61.12a108.417 108.417 0 014.579 13.313 106.776 106.776 0 013.713 13.596 107.707 107.707 0 01-4.597-13.331 107.825 107.825 0 01-3.695-13.578zm-3.995 42.202a68.65 68.65 0 01-11.209-.619 66.265 66.265 0 01-11.103-1.52c3.741-.1 7.484.107 11.191.619 3.743.193 7.463.702 11.121 1.52zm23.087 17.482c7.695-2.724 11.725-11.17 9.002-18.865-2.724-7.695-11.17-11.726-18.865-9.002-7.695 2.723-11.726 11.17-9.002 18.865 2.723 7.695 11.169 11.726 18.865 9.002z" fill="#263238"/><path d="M654.266 294.054a20.88 20.88 0 00-7.337-2.794 20.332 20.332 0 00-7.78 1.167c0-.106.672-.707 2.069-1.29a12.12 12.12 0 0111.297 1.219c1.256.867 1.821 1.627 1.751 1.698z" fill="#455A64"/><path d="M648.325 285.39a51.767 51.767 0 00-2.21 6.878 50.774 50.774 0 00-.318 7.231 11.843 11.843 0 01-.601-7.39 12.005 12.005 0 013.129-6.719z" fill="#455A64"/><path d="M785.08 315.906l-3.006-5.304-4.685.69-3.889-4.88 1.997-4.844-5.304-3.536-3.907 3.942-5.145-.901-2.015-5.817-6.259.654-.354 5.304-4.649 2.281-4.933-3.536-5.004 3.642 2.599 5.604-2.988 4.491-5.41-.283-1.414 6.666 5.145 1.98.442 5.604-5.304 3.077 2.546 5.781 5.516-.849 3.66 4.226-1.91 5.304 5.057 3.536 3.96-4.261 5.481 1.485 1.768 5.64 6.082-.407.795-5.074 5.216-3.005 4.278 3.412 5.393-4.031-2.811-4.809 2.652-4.756 5.481.389 1.768-6.206-4.703-2.546-.619-5.657 4.473-3.006zm-21.216 18.281a12.376 12.376 0 114.544-16.813 12.376 12.376 0 01-4.544 16.778v.035z" fill="#263238"/><path d="M763.192 320.007s-.371-.442-1.096-1.149a6.632 6.632 0 00-3.766-1.768 6.234 6.234 0 00-5.428 2.21 6.1 6.1 0 00-.601 6.931 6.14 6.14 0 008.803 1.972 6.13 6.13 0 002.123-2.573 6.627 6.627 0 00.407-4.12c-.23-.99-.53-1.485-.442-1.538.375.405.643.897.778 1.432a6.414 6.414 0 01-.142 4.473 6.826 6.826 0 01-5.091 4.173 6.915 6.915 0 01-8.121-7.446 6.911 6.911 0 011.632-3.852 6.775 6.775 0 016.223-2.281 6.434 6.434 0 013.925 2.122c.377.399.65.885.796 1.414z" fill="#263238"/><path d="M769.08 306.217a26.938 26.938 0 01-3.536 6.118 26.696 26.696 0 01-4.243 5.604 27.343 27.343 0 013.536-6.117 26.702 26.702 0 014.243-5.605zm6.011 21.552a31.273 31.273 0 01-5.728-1.273 28.318 28.318 0 01-5.658-1.52 14.535 14.535 0 015.87.618 14.147 14.147 0 015.516 2.175zm-14.852 1.415a13.294 13.294 0 011.768 4.95c.553 1.68.746 3.457.566 5.216a18.998 18.998 0 01-1.467-5.022 18.57 18.57 0 01-.867-5.144zm-6.594-.761a13.949 13.949 0 01-2.175 4.509 13.827 13.827 0 01-2.97 4.031 13.898 13.898 0 012.175-4.509 14.15 14.15 0 012.97-4.031zm-.955-20.968a12.875 12.875 0 011.875 4.473 13.84 13.84 0 01.99 4.756 12.892 12.892 0 01-1.874-4.473 13.812 13.812 0 01-.991-4.756zm-1.29 14.48c-1.274.3-2.599.3-3.872 0a8.587 8.587 0 01-3.801-.814 8.149 8.149 0 013.871-.088 8.59 8.59 0 013.802.902zm10.608-1.291a5.073 5.073 0 11-8.872 4.923 5.073 5.073 0 018.872-4.923z" fill="#263238"/><path d="M759.992 323.208c-.176.195-1.166-.53-2.545-.654s-2.511.318-2.635.088c-.124-.23.973-1.184 2.723-1.008 1.75.177 2.705 1.433 2.457 1.574z" fill="#455A64"/><path d="M757.958 320.238c.212.141-.247 1.131-.459 2.404-.213 1.273-.16 2.369-.407 2.44-.248.071-.778-1.096-.513-2.599.265-1.503 1.185-2.475 1.379-2.245z" fill="#455A64"/><path d="M871.357 318.24s-6.011-2.104-6.082-6.047c-.07-3.942 44.996-9.565 53.606 12.376 0 0-1.768 1.185-8.645.743" fill="#407BFF"/><path opacity=".5" d="M871.357 318.24s-6.011-2.104-6.082-6.047c-.07-3.942 44.996-9.565 53.606 12.376 0 0-1.768 1.185-8.645.743" fill="#000"/><path d="M908.751 381.888l-27.492-2.192c-.177-3.2 0-15.629 0-15.629s-11.439-1.768-11.581-13.207c-.141-11.439 1.768-37.712 1.768-37.712a39.75 39.75 0 0140.081 5.092l1.768 1.308-4.544 62.34z" fill="#FFBE9D"/><path d="M874.222 332.861a1.66 1.66 0 00-1.007-2.962 1.653 1.653 0 00-1.221.505 1.635 1.635 0 00-.548 1.141 1.635 1.635 0 00.425 1.192 1.646 1.646 0 001.15.55 1.655 1.655 0 001.201-.426z" fill="#263238"/><path d="M871.447 330.245c.176.194 1.308-.672 2.882-.672 1.573 0 2.722.813 2.899.601.177-.212-.106-.442-.601-.831a3.965 3.965 0 00-2.316-.725 3.84 3.84 0 00-2.281.796c-.406.389-.672.742-.583.831zm18.156 1.379a1.666 1.666 0 00-.643.72 1.667 1.667 0 00.287 1.826 1.665 1.665 0 001.797.432 1.662 1.662 0 10-1.441-2.978z" fill="#263238"/><path d="M888.561 331.641c.177.195 1.308-.672 2.882-.672 1.573 0 2.723.796 2.882.601.159-.194 0-.459-.584-.83a3.918 3.918 0 00-4.614 0c-.478.442-.654.813-.566.901zm-6.33 12.995a7.976 7.976 0 00-2.546-.548c-.424 0-.742-.141-.777-.354a2.295 2.295 0 01.3-1.184l1.255-3.2a44.059 44.059 0 002.688-8.416 43.324 43.324 0 00-3.536 8.098l-1.185 3.235a2.705 2.705 0 00-.212 1.768 1.05 1.05 0 00.707.654c.235.023.472.023.707 0a7.846 7.846 0 002.599-.053z" fill="#263238"/><path d="M887.358 346.369a28.811 28.811 0 01-7.726 2.245 4.363 4.363 0 005.145 1.768c3.412-1.29 2.581-4.013 2.581-4.013z" fill="#fff"/><path d="M881.312 363.96a26.509 26.509 0 0014.904-4.243s-3.536 8.239-14.94 7.196l.036-2.953z" fill="#EB996E"/><path d="M871.358 316.083s6.683 3.872 16.054 0c6.152-2.528 13.171-3.536 14.604-2.157 1.432 1.379 1.308 7.444 7.072 9.654 0 0-1.256 11.633 3.412 11.562 4.667-.07 3.111-18.352 3.111-18.352l-10.961-6.382-12.217-3.271-11.81.796-9.229 1.768-.036 6.382z" fill="#263238"/><path d="M911.827 331.377c.195-.089 7.85-2.334 7.603 5.498-.248 7.832-8.045 5.958-8.062 5.728-.018-.23.459-11.226.459-11.226z" fill="#FFBE9D"/><path d="M913.86 339.721s.124.001.354.213c.329.13.696.13 1.025 0a3.365 3.365 0 001.644-2.971 4.263 4.263 0 00-.318-1.98 1.506 1.506 0 00-.99-1.061.67.67 0 00-.813.336c-.106.213 0 .372-.106.389-.106.018-.159-.141-.089-.459a.885.885 0 01.319-.478c.223-.15.493-.213.76-.177a1.9 1.9 0 011.379 1.256c.318.685.458 1.439.406 2.192a3.534 3.534 0 01-2.086 3.324 1.443 1.443 0 01-1.237-.248c-.248-.159-.283-.336-.248-.336z" fill="#EB996E"/><path d="M917.131 307.137c0 .265-1.22.159-2.528.583-1.308.425-2.192 1.132-2.387.955-.194-.177.531-1.344 2.122-1.768 1.591-.424 2.882 0 2.793.23zm-4.437-4.933a5.308 5.308 0 01.247 3.731c-.424 2.121-1.768 3.377-1.927 3.2-.159-.177.672-1.503 1.026-3.395.353-1.892.371-3.518.654-3.536zm-33.592 25.477c-.247.46-1.768 0-3.536 0s-3.306.142-3.536-.336c-.23-.477 1.344-1.609 3.536-1.503 2.192.107 3.819 1.415 3.536 1.839zm17.556 0c-.248.46-1.768 0-3.536 0s-3.324.142-3.536-.336c-.212-.477 1.326-1.609 3.536-1.503 2.21.107 3.801 1.415 3.536 1.839z" fill="#263238"/><path d="M890.028 310.567c-20.615-2.245-24.558 1.397-24.752 1.573a4.341 4.341 0 01-1.061-2.033c-.725-6.099 6.665-7.814 6.665-7.814 4.615-21.093 23.586-18.936 23.586-18.936v-.159a3.415 3.415 0 013.995-2.705l2.97.566a3.407 3.407 0 012.18 1.438 3.41 3.41 0 01.526 2.558c22.223 7.408 14.851 27.969 14.851 27.969l3.253 3.925c2.882 5.852-3.377 7.62-3.377 7.62s-7.691-11.633-28.836-14.002z" fill="#407BFF"/><path opacity=".5" d="M900.406 303.371c.239-3.075.784-6.12 1.627-9.087a45.958 45.958 0 012.528-8.84 47.655 47.655 0 01-1.627 9.07 46.914 46.914 0 01-2.528 8.857zm-11.102-2.811a43.956 43.956 0 011.998-8.734 42.935 42.935 0 012.881-8.469 43.706 43.706 0 01-1.997 8.717 43.465 43.465 0 01-2.882 8.486zm-17.504 2.617a7.08 7.08 0 011.768-.637 35.802 35.802 0 015.109-1.007 48.057 48.057 0 0117.097 1.096 62.012 62.012 0 0115.912 6.435 53.93 53.93 0 014.402 2.758 7.554 7.554 0 011.503 1.167c0 .142-2.369-1.343-6.223-3.359a70.562 70.562 0 00-15.806-6.1 52.371 52.371 0 00-16.814-1.343c-4.296.389-6.913 1.167-6.948.99z" fill="#000"/><path opacity=".2" d="M899.416 307.102c1.25.026 2.486.259 3.66.689a41.378 41.378 0 0115.664 8.54 11.91 11.91 0 012.582 2.687 110.487 110.487 0 00-10.396-7.072 107.576 107.576 0 00-11.51-4.844zm3.341-20.686c-.229-.106 0-1.061-.282-2.157-.283-1.096-.743-1.909-.549-2.104.195-.194 1.185.495 1.45 1.927.265 1.433-.406 2.334-.619 2.334zm14.321 23.55c-1.273-.248-.813-6.241-3.995-12.164-3.183-5.923-8.275-8.981-7.762-10.166.212-.566 1.963-.566 4.402.619a17.569 17.569 0 019.335 17.68c-.406 2.74-1.467 4.172-1.98 4.031z" fill="#fff"/><path d="M752.018 457.099s-13.595-7.072-15.912-10.149c-2.316-3.076-3.394-14.356-3.394-14.356l23.196 8.663-3.89 15.842z" fill="#FFBE9D"/><path d="M853.253 427.856c-.795.265-15.788 33.698-27.828 33.875-12.04.177-73.407-4.685-73.407-4.685l3.818-15.912 58.857-1.892 19.289-26.114 19.271 14.728z" fill="#FFBE9D"/><path d="M961.385 809.55l2.74 11.439s18.723 24.328 24.487 23.143c3.783-.796-.866-7.072-7.991-25.601l-1.486-7.638-17.75-1.343z" fill="#407BFF"/><path d="M989.372 840.525a1.055 1.055 0 01-.141.354c-.187.309-.456.56-.778.725a3.01 3.01 0 01-1.768.371 4.477 4.477 0 01-2.122-.778 89.905 89.905 0 01-9.423-8.84 121.567 121.567 0 01-8.38-9.812 106.192 106.192 0 01-2.299-3.147l-.601-.884c-.124-.213-.194-.319-.177-.319l.248.266.636.848 2.405 3.076c2.051 2.582 4.968 6.082 8.433 9.707a104.663 104.663 0 009.3 8.84 3.542 3.542 0 003.536.495c.465-.17.862-.486 1.131-.902z" fill="#263238"/><path d="M986.72 832.728s-.583 0-1.503.088a9.199 9.199 0 00-3.377 1.273 6.883 6.883 0 00-2.528 2.529c-.442.813-.566 1.396-.619 1.379a3.122 3.122 0 01.389-1.503 6.476 6.476 0 012.564-2.723 7.98 7.98 0 013.536-1.22 2.927 2.927 0 011.538.177zM969.005 827s.195-.814.336-2.14a8.833 8.833 0 00-.937-5.021 8.333 8.333 0 00-3.536-3.536 15.445 15.445 0 00-2.033-.743c.199-.031.402-.031.601 0 .532.088 1.05.248 1.538.478a7.993 7.993 0 013.801 3.677 8.598 8.598 0 01.867 5.216 9.855 9.855 0 01-.372 1.573 1.756 1.756 0 01-.265.496z" fill="#263238"/><path d="M962.586 811.512a11.076 11.076 0 011.044 3.536c.335 2.033.707 3.642.618 3.677a11.99 11.99 0 01-.99-3.536c-.353-2.068-.76-3.677-.672-3.677zm18.371 8.628c0 .106-1.061.088-2.316.371-1.255.283-2.192.778-2.245.69a5.453 5.453 0 014.561-1.061zm.388 1.98c0 .106-.902 0-1.945.265-1.043.266-1.768.725-1.856.637a2.791 2.791 0 011.768-.99 2.917 2.917 0 012.033.088zm1.503 2.44a11.134 11.134 0 00-2.033 0c-.612.22-1.203.492-1.768.813a2.392 2.392 0 011.768-1.167 2.532 2.532 0 012.033.354zm-3.183-5.233a2.368 2.368 0 01-.618 0 12.545 12.545 0 01-1.662-.46 14.734 14.734 0 01-3.625-1.821 1.953 1.953 0 01-.937-1.45 1.108 1.108 0 01.515-.769 1.109 1.109 0 01.917-.115c.507.165.959.464 1.309.866.625.59 1.216 1.216 1.768 1.874.366.441.709.901 1.025 1.38.136.163.243.349.318.548 0 0-.583-.69-1.538-1.768a20.535 20.535 0 00-1.768-1.768 2.665 2.665 0 00-1.202-.796c-.424-.124-.972.106-.99.548-.018.442.407.849.778 1.132.404.286.823.551 1.255.795.721.42 1.471.786 2.245 1.096 1.362.46 2.228.637 2.21.708z" fill="#263238"/><path d="M978.693 819.079v-.566c0-.371 0-.902.124-1.556a8.364 8.364 0 01.584-2.263c.191-.433.441-.837.742-1.202a1.288 1.288 0 011.503-.477 1.437 1.437 0 01.513 1.502 5.168 5.168 0 01-.407 1.344 7.242 7.242 0 01-1.344 1.927 9.247 9.247 0 01-1.184 1.008 1.67 1.67 0 01-.495.283s.636-.513 1.502-1.468c.495-.566.9-1.203 1.203-1.891.179-.4.304-.823.371-1.256 0-.424 0-.937-.336-1.113-.336-.177-.778 0-1.061.388a4.81 4.81 0 00-.689 1.097 8.326 8.326 0 00-.637 2.157c-.09.702-.22 1.398-.389 2.086z" fill="#263238"/><path opacity=".4" d="M964.125 820.989l-1.326-5.499s4.597.849 5.781 4.279a14.421 14.421 0 01.884 5.887l9.989 10.732s2.493-4.88 7.072-3.713c0 0 3.536 7.85 3.536 9.813 0 1.962-2.404 1.768-3.217 1.361a41.137 41.137 0 01-8.929-7.072 205.983 205.983 0 01-13.79-15.788z" fill="#000"/><path d="M868.317 815.331l-.089-15.275 28.589-.336.371 22.33-1.768.141c-7.885.53-40.133 2.157-45.437.619-5.905-1.715 18.334-7.479 18.334-7.479z" fill="#407BFF"/><path opacity=".4" d="M886.811 821.961a9.949 9.949 0 013.536-6.153 9.654 9.654 0 016.647-2.157l.106 7.992-10.289.318z" fill="#000"/><path opacity=".4" d="M856.471 818.584s-8.486 2.564-7.408 3.96c1.079 1.397 33.734.973 48.125-.477v-.637l-38.082.814s-.973-3.66-2.635-3.66z" fill="#000"/><path d="M897.578 821.395a3.178 3.178 0 01-.478 0l-1.414.106-5.198.283c-4.385.212-10.449.442-17.167.53-6.719.089-12.765 0-17.168 0l-5.198-.159h-1.909 24.275c6.7 0 12.765-.265 17.149-.424l5.198-.177h1.414l.496-.159z" fill="#263238"/><path d="M859.071 822.668a12.64 12.64 0 00-1.008-2.475 11.29 11.29 0 00-1.768-1.963c.892.316 1.64.944 2.104 1.768.546.777.786 1.728.672 2.67zm8.38-4.385c-.089 0-.495-.442-.92-1.096-.424-.654-.707-1.22-.618-1.273.088-.053.477.442.901 1.096.314.366.532.803.637 1.273zm2.298-1.255s-.512-.23-1.025-.672c-.513-.442-.849-.848-.778-.919.071-.071.513.23 1.008.672.495.442.901.849.795.919zm1.432-2.722c0 .106-.671.194-1.485.212-.813.017-1.503 0-1.503-.142.473-.18.981-.253 1.486-.212a3.538 3.538 0 011.502.142zm.442-1.91a2.884 2.884 0 01-1.662.513 2.849 2.849 0 01-1.768-.212 8.38 8.38 0 011.68-.142c.578-.1 1.164-.154 1.75-.159z" fill="#263238"/><path d="M866.443 815.79c-.584.11-1.184.11-1.768 0a10.768 10.768 0 01-1.962-.406 5.633 5.633 0 01-1.114-.442 1.102 1.102 0 01-.478-.566.742.742 0 01.283-.743 3.364 3.364 0 014.173.937c.289.359.5.775.619 1.22.034.164.034.332 0 .495a5.295 5.295 0 00-.867-1.555 3.282 3.282 0 00-1.573-1.008 2.862 2.862 0 00-2.193.177c-.283.229-.176.565.159.76a6.14 6.14 0 001.044.424c.617.204 1.249.358 1.891.46 1.097.212 1.786.194 1.786.247z" fill="#263238"/><path d="M865.966 815.897a1.893 1.893 0 01-.23-1.273 3.29 3.29 0 01.584-1.344 1.852 1.852 0 011.52-.955.723.723 0 01.566.849 1.765 1.765 0 01-.301.831 5.284 5.284 0 01-.848 1.114 2.73 2.73 0 01-1.043.76s.371-.336.866-.919c.286-.345.535-.718.743-1.114.247-.389.424-1.096 0-1.167-.425-.071-.937.424-1.203.795-.255.36-.43.77-.512 1.203-.073.403-.121.81-.142 1.22zm30.94-2.316s-.831-.001-2.122.088a8.98 8.98 0 00-7.408 6.064 21.27 21.27 0 00-.513 2.051v-.566a7.782 7.782 0 01.301-1.556 8.628 8.628 0 017.62-6.223 6.369 6.369 0 011.573 0c.354.053.549.106.549.142zm-3.13-11.864c.235 1.948.347 3.908.336 5.87a48.712 48.712 0 010 5.87 54.036 54.036 0 01-.318-5.87 50.864 50.864 0 01-.018-5.87zm-10.59 17.486a15.569 15.569 0 01-4.173.477 16.361 16.361 0 01-4.19-.283c0-.106 1.874 0 4.173 0 2.298 0 4.172-.283 4.19-.194z" fill="#263238"/><path d="M888.791 819.132s-.159.389-.336.831c-.177.442-.283.814-.389.796-.106-.018-.141-.442 0-.937.141-.495.654-.76.725-.69zm2.069-2.652s-.106.354-.407.672c-.3.318-.583.495-.636.424-.053-.071.106-.371.389-.672.283-.3.583-.495.654-.424zm3.005-1.238c0 .089-.389.089-.814.248-.424.159-.707.371-.795.318-.089-.053.159-.46.689-.654.531-.195.955 0 .92.088zm2.156-.6c0 .088-.124.229-.371.335-.248.107-.46.089-.495 0-.035-.088.141-.229.371-.318.23-.088.46-.106.495-.017z" fill="#263238"/><path d="M935.271 516.256l-86.367 4.897c-.265-9.512 3.271-85.695 3.271-85.695l-4.756 8.84-24.752-22.047 21.605-29.189a42.772 42.772 0 0128.606-16.92c3.359-.46 5.905-.672 7.55-.884a48.688 48.688 0 0029.331 0c4.139.141 8.232.928 12.128 2.334a49.973 49.973 0 0119.448 12.535l25.866 43.457-31.364 19.731-4.526-13.667 3.96 76.608z" fill="#407BFF"/><path d="M848.852 512.101L862.2 808.754l44.536.937-7.39-248.351 50.087 250.243h42.344l-56.559-299.482" fill="#263238"/><path d="M947.224 807.552l1.025 4.385 43.528.583-.654-6.86-43.899 1.892zm-48.179-.46c.265 0 .495.583.53 1.308.036.725-.141 1.326-.389 1.344-.247.018-.495-.566-.53-1.291-.035-.725.141-1.344.389-1.361zm-.424-10.732c.247 0 .495 1.185.548 2.67.053 1.485-.106 2.687-.354 2.705-.247.018-.513-1.184-.566-2.67-.053-1.485.106-2.705.372-2.705zm-.336-10.749c.266 0 .495 1.184.548 2.669.053 1.486-.141 2.706-.389 2.706-.247 0-.495-1.185-.53-2.67-.035-1.485.124-2.705.371-2.705zm-.266-10.75c.266 0 .496 1.185.531 2.67.035 1.485-.142 2.705-.389 2.705-.248 0-.495-1.202-.531-2.687-.035-1.485.142-2.688.389-2.688zm-.247-10.767c.247 0 .477 1.203.53 2.688.053 1.485-.141 2.687-.406 2.705-.266.017-.478-1.203-.531-2.688-.053-1.485.142-2.687.407-2.705zm-.3-10.749c.247 0 .495 1.184.53 2.669.035 1.485-.124 2.688-.371 2.705-.248.018-.495-1.184-.548-2.687-.053-1.503.123-2.687.389-2.687zm-.425-10.785c.248 0 .513 1.167.584 2.652.07 1.485-.106 2.705-.354 2.705-.247 0-.513-1.167-.566-2.652-.053-1.485.089-2.705.336-2.705zm-.442-10.714c.265 0 .512 1.184.565 2.669.054 1.486-.088 2.688-.353 2.706-.265.017-.495-1.185-.566-2.67-.071-1.485.124-2.705.354-2.705zm-.389-10.75c.266 0 .513 1.185.566 2.67.053 1.485-.124 2.687-.371 2.705-.248.018-.495-1.185-.548-2.67-.053-1.485.106-2.705.353-2.705zm-.336-10.766c.248 0 .495 1.202.548 2.687.053 1.485-.124 2.687-.389 2.705-.265.018-.495-1.202-.53-2.687-.036-1.486.124-2.688.371-2.705zm-.283-10.732c.247 0 .477 1.184.53 2.669.053 1.486-.141 2.688-.406 2.705-.265.018-.478-1.202-.513-2.687-.035-1.485.124-2.687.389-2.687zm-.247-10.767c.265 0 .495 1.202.531 2.687.035 1.485-.159 2.687-.407 2.687-.248 0-.495-1.184-.513-2.669-.017-1.485.142-2.688.389-2.705zm-.177-10.75c.265 0 .477 1.202.512 2.687.036 1.485-.176 2.688-.424 2.688s-.477-1.185-.495-2.67c-.018-1.485.159-2.705.407-2.705zm-.124-10.749c.265 0 .477 1.202.495 2.687.017 1.485-.177 2.687-.442 2.687-.266 0-.46-1.202-.478-2.687-.018-1.485.177-2.687.425-2.687zm-.071-10.768c.265 0 .478 1.203.478 2.688s-.195 2.687-.442 2.705c-.248.018-.46-1.202-.478-2.687-.017-1.486.195-2.706.442-2.706zm0-10.749c.248 0 .46 1.203.46 2.688s-.212 2.687-.46 2.687c-.247 0-.459-1.202-.459-2.687 0-1.485.212-2.688.459-2.688zm.053-10.749c.248 0 .442 1.202.442 2.687 0 1.485-.23 2.687-.477 2.687-.248 0-.46-1.202-.442-2.687.017-1.485.23-2.687.477-2.687zm.107-10.768c.247 0 .442 1.22.424 2.705-.018 1.486-.23 2.688-.477 2.67-.248-.018-.46-1.202-.442-2.687.017-1.485.247-2.688.495-2.688zm.176-10.802c.247 0 .424 1.22.407 2.705-.018 1.485-.248 2.67-.513 2.67s-.425-1.202-.407-2.688c.018-1.485.248-2.687.513-2.687zm.212-10.608c.248 0 .442 1.202.407 2.687-.035 1.485-.265 2.688-.53 2.688-.266 0-.425-1.22-.389-2.705.035-1.485.265-2.776.512-2.67zm.337-10.856c.247 0 .407 1.22.353 2.706-.053 1.485-.282 2.687-.548 2.669-.265-.018-.424-1.22-.371-2.705.053-1.485.301-2.687.566-2.67zm.513-10.749c.247 0 .389 1.238.3 2.705-.088 1.467-.371 2.687-.618 2.67-.248-.018-.389-1.238-.301-2.723.088-1.485.424-2.67.619-2.652zm.989-10.714c.266 0 .354 1.238.195 2.723-.159 1.485-.46 2.652-.707 2.634-.248-.017-.354-1.237-.195-2.723.159-1.485.46-2.669.707-2.634zm1.026-7.956c.247 0 .371.654.265 1.379-.106.725-.389 1.273-.637 1.238-.247-.036-.371-.637-.265-1.379.106-.743.389-1.273.637-1.238z" fill="#455A64"/><path d="M861.033 810.186l47.1.778-.372-7.85-46.728.248v6.824z" fill="#455A64"/><path d="M913.773 521.118l-4.739-90.628H857.09l-8.415 93.209 65.098-2.581z" fill="#263238"/><path d="M925.035 378.847s-21.039 5.516-21.393 54.932h-8.486s-2.228-41.495 20.668-57.796c0 0 6.612-1.591 9.211 2.864zm-44.572-3.518s-14.939 7.072-15.293 56.576h-7.213s-.477-46.357 13.667-55.48a10.027 10.027 0 018.839-1.096z" fill="#263238"/><path d="M982.902 803.255c.247 0 .548.513.671 1.238.124.725 0 1.326-.247 1.379-.248.053-.548-.513-.672-1.238-.124-.724 0-1.343.248-1.379zm-1.662-10.307c.247 0 .636 1.079.866 2.493.23 1.414.23 2.617 0 2.652-.23.035-.636-1.078-.866-2.493-.23-1.414-.283-2.616 0-2.652zm-1.77-10.325c.266 0 .655 1.078.884 2.511.23 1.432.23 2.616 0 2.652-.229.035-.654-1.079-.884-2.511-.229-1.432-.212-2.599 0-2.652zm-1.679-10.29c.248 0 .654 1.061.884 2.493.23 1.432.23 2.617 0 2.652-.23.035-.654-1.079-.884-2.493-.229-1.414-.247-2.617 0-2.652zm-1.731-10.325c.247 0 .654 1.078.884 2.493.23 1.414.247 2.616 0 2.652-.248.035-.637-1.079-.884-2.493-.248-1.415-.248-2.652 0-2.652zm-1.751-10.29c.247 0 .654 1.079.901 2.493.248 1.415.23 2.617 0 2.652-.229.036-.654-1.061-.901-2.493-.248-1.432-.248-2.599 0-2.652zm-1.769-10.29c.266 0 .654 1.079.902 2.493.248 1.415.248 2.599 0 2.652-.248.053-.636-1.078-.884-2.493-.248-1.414-.265-2.616-.018-2.652zm-1.768-10.307c.248 0 .655 1.079.884 2.511.23 1.432.248 2.599 0 2.652-.247.053-.654-1.079-.901-2.511-.248-1.432-.248-2.599.017-2.652zm-1.803-10.29c.247 0 .654 1.079.902 2.493.247 1.414.247 2.617 0 2.652-.248.035-.655-1.061-.902-2.493-.248-1.432-.248-2.599 0-2.652zm-1.874-10.289c.248 0 .654 1.078.92 2.492.265 1.415.247 2.617 0 2.652-.248.036-.655-1.06-.92-2.492-.265-1.433-.194-2.599 0-2.652zm-1.767-10.272c.247 0 .654 1.06.901 2.475.248 1.414.265 2.616 0 2.652-.265.035-.672-1.061-.919-2.475-.248-1.415-.23-2.617.018-2.652zm-1.769-10.29c.247 0 .672 1.061.919 2.493.248 1.432.265 2.599 0 2.652-.265.053-.672-1.079-.919-2.493-.248-1.414-.336-2.617 0-2.652zm-1.945-10.29c.248 0 .655 1.078.92 2.493.265 1.414.265 2.617 0 2.652-.265.035-.672-1.061-.92-2.493-.247-1.432-.247-2.599 0-2.652zm-1.874-10.272c.248 0 .655 1.061.92 2.493s.265 2.599 0 2.652c-.265.053-.672-1.079-.92-2.493-.247-1.414-.247-2.599 0-2.652zm-1.892-10.272c.248 0 .654 1.06.92 2.475.265 1.414.265 2.616 0 2.652-.266.035-.654-1.061-.92-2.475-.265-1.415-.265-2.617 0-2.652zm-1.927-10.29c.265 0 .672 1.061.937 2.475.265 1.415.283 2.617 0 2.652-.283.035-.672-1.061-.937-2.475-.265-1.414-.248-2.652 0-2.652zm-1.909-10.254c.247 0 .654 1.06.919 2.475.265 1.414.283 2.616 0 2.652-.283.035-.672-1.061-.937-2.475-.265-1.415-.248-2.599.018-2.652zm-1.945-10.272c.248 0 .672 1.078.937 2.492.266 1.415.283 2.599 0 2.652-.282.053-.671-1.06-.937-2.492-.265-1.433-.247-2.599 0-2.652zm-1.962-10.255c.248 0 .672 1.061.937 2.475.265 1.414.301 2.599 0 2.652-.3.053-.671-1.061-.937-2.475-.265-1.415-.247-2.599 0-2.652zm-1.98-10.254c.247 0 .672 1.061.955 2.475.282 1.414.282 2.599 0 2.652-.283.053-.672-1.061-.937-2.475-.266-1.415-.266-2.617-.018-2.652zm-1.98-10.237c.247 0 .671 1.043.937 2.475.265 1.432.3 2.599 0 2.652-.301.053-.672-1.061-.955-2.475-.283-1.414-.248-2.652.018-2.652zm-2.033-10.272c.247 0 .672 1.043.954 2.475.283 1.432.301 2.599 0 2.652-.3.053-.671-1.061-.954-2.475-.283-1.414-.23-2.617 0-2.652zm-1.999-10.254c.248 0 .672 1.06.955 2.475.283 1.414.3 2.599 0 2.652-.301.053-.672-1.061-.955-2.475-.283-1.415-.247-2.599 0-2.652zm-2.051-10.255c.265 0 .69 1.061.973 2.475.282 1.415.3 2.599 0 2.652-.301.053-.672-1.06-.955-2.475-.283-1.414-.265-2.599-.018-2.652zm-2.05-10.237c.248 0 .69 1.061.973 2.476.283 1.414.318 2.599 0 2.634-.319.035-.672-1.043-.955-2.458-.283-1.414-.265-2.599-.018-2.652zm-2.069-10.254c.248 0 .69 1.043.973 2.458.282 1.414.318 2.599 0 2.652-.319.053-.69-1.044-.973-2.458-.283-1.414-.247-2.652 0-2.652zm-1.573-7.708c.247 0 .566.495.725 1.202.159.707 0 1.343-.195 1.396-.194.053-.565-.495-.707-1.202-.141-.707-.071-1.343.177-1.396zm-68.899-109.298c.351.825.502 1.721.442 2.616a6.365 6.365 0 01-.601 2.935 4.15 4.15 0 01-2.917 2.352 3.77 3.77 0 01-3.536-1.415 4.65 4.65 0 01-1.044-2.846c0-1.768.531-2.652.619-2.599.089.053-.141 1.025 0 2.546.094.87.451 1.691 1.026 2.351a3.07 3.07 0 002.705 1.061 3.543 3.543 0 002.316-1.768 6.7 6.7 0 00.689-2.564c.195-1.644.142-2.669.301-2.669z" fill="#455A64"/><path d="M861.705 430.596c0-.106.53-.336 1.149.212a1.488 1.488 0 01-.054 2.23 1.484 1.484 0 01-.759.334 1.525 1.525 0 01-1.627-.689 1.509 1.509 0 010-1.397c.372-.743.99-.743.973-.619-.018.124-.283.336-.354.831a.784.784 0 00.185.728.774.774 0 00.715.232.778.778 0 00.479-1.225c-.318-.425-.689-.495-.707-.637zm41.371-.972c.332.78.454 1.633.354 2.475a5.78 5.78 0 01-.743 2.741 3.66 3.66 0 01-3.006 1.856 4.518 4.518 0 01-3.306-1.22 5.313 5.313 0 01-1.432-2.44c-.424-1.556-.177-2.528 0-2.528s.159.972.672 2.316c.302.772.78 1.462 1.397 2.016.745.64 1.705.975 2.687.937a2.927 2.927 0 002.352-1.397 5.723 5.723 0 00.795-2.334c-.012-.813.065-1.625.23-2.422z" fill="#455A64"/><path d="M899.01 430.579c0-.107.46-.248.919.247a1.23 1.23 0 01.301 1.114 1.382 1.382 0 01-1.862.89 1.386 1.386 0 01-.596-.483 1.298 1.298 0 01-.088-1.15c.265-.618.778-.636.778-.512 0 .123-.142.318-.142.689 0 .371.195.707.654.637.46-.071.549-.46.425-.831-.124-.372-.389-.46-.389-.601zm2.086 21.905s-.389.354-1.22.866a38.94 38.94 0 01-3.536 1.892 54.071 54.071 0 01-12.695 4.102 53.39 53.39 0 01-13.33.849 34.869 34.869 0 01-3.996-.513 5.093 5.093 0 01-1.45-.336c0-.159 2.104 0 5.499.141a66.482 66.482 0 0013.118-1.113 64.944 64.944 0 0012.606-3.802c3.076-1.22 4.933-2.21 5.004-2.086z" fill="#455A64"/><path d="M942.149 531.903l-94.676-8.204v10.785l94.676 8.062v-10.643z" fill="#407BFF"/><path d="M877.352 525.839a31.645 31.645 0 01-3.943-.107c-2.44-.141-5.834-.336-9.83-.636l.442-.477 1.927 10.802.142.866-.425-.371 12.571.813-.407.407c-.212-3.306-.336-6.1-.424-8.08a29.76 29.76 0 010-3.217c.214.978.356 1.971.424 2.97.212 1.945.513 4.809.831 8.274v.442h-.442l-12.588-.654h-.371v-.354l-.159-.866-1.768-10.82-.089-.531h.531c4.154.389 7.637.778 10.042 1.061 1.187.089 2.368.249 3.536.478z" fill="#455A64"/><path d="M859.247 528.084a15.1 15.1 0 015.304-.106 15.567 15.567 0 015.216.813c-1.748.35-3.544.386-5.304.106a15.567 15.567 0 01-5.216-.813zm-.637 3.094a17.166 17.166 0 015.64.088c1.893.037 3.767.377 5.552 1.008-1.872.28-3.778.251-5.64-.088a17.693 17.693 0 01-5.552-1.008z" fill="#263238"/><path d="M752.937 432.647l-35.041-11.863-1.379 4.491s13.702 21.587 29.667 26.043l6.753-18.671z" fill="#455A64"/><path d="M857.108 495.411s-54.101-37.959-57.354-39.108c-3.253-1.149-26.52-1.202-32.266-.583-5.746.618-22.471-1.079-22.471-1.079l17.167-47.63-36.474-9.352 1.927-6.507s29.349-17.68 46.304-12.588c16.955 5.092 24.911 27.298 28.429 32.797 3.519 5.498 11.174 25.211 47.401 48.372l21.41 14.303-14.073 21.375z" fill="#455A64"/><path d="M798.747 418.715c-.061.187-.132.37-.213.548l-.636 1.485-2.422 5.623-8.84 20.261-.354-.477a45.189 45.189 0 016.223 0c2.26.029 4.492.491 6.577 1.361 4.049 2.281 7.992 5.039 12.217 7.868 8.398 5.71 17.468 12.057 26.927 18.758a8.1 8.1 0 003.943 1.892 6.547 6.547 0 005.749-2.052 6.54 6.54 0 001.552-5.904 6.644 6.644 0 00-2.05-3.536c-1.061-.849-2.317-1.68-3.448-2.493l-6.771-4.827-23.391-16.76a19.806 19.806 0 01-4.173-4.155 65.722 65.722 0 01-3.041-4.261c-1.768-2.705-3.27-5.11-4.42-7.072a142.83 142.83 0 01-2.599-4.597l-.636-1.202a4.813 4.813 0 01-.194-.442c.114.114.209.245.282.389l.708 1.167 2.74 4.508a242.22 242.22 0 004.544 7.072c.919 1.326 1.927 2.741 3.076 4.173a18.358 18.358 0 004.102 3.995l23.497 16.602 6.789 4.791c1.167.849 2.316 1.591 3.536 2.546a7.464 7.464 0 011.884 8.733 7.462 7.462 0 01-7.842 4.28 8.843 8.843 0 01-4.35-2.069c-9.459-6.683-18.511-13.048-26.873-18.794-4.191-2.829-8.186-5.64-12.093-7.868a17.092 17.092 0 00-6.277-1.343 50.044 50.044 0 00-6.099 0h-.584l.23-.531c3.925-8.521 7.072-15.47 9.353-20.349 1.078-2.316 1.909-4.137 2.528-5.446l.654-1.396c.124-.336.195-.495.195-.478z" fill="#263238"/><path d="M939.196 538.798a15.908 15.908 0 01-22.736 3.978l-72.188-56.364 12.818-21.817 77.969 52.245a15.908 15.908 0 014.137 21.958z" fill="#455A64"/><path d="M780.677 415.657l-6.506 20.296-11.899.053 7.391-20.279 11.014-.07z" fill="#263238"/><path d="M761.513 431.498c0-.513 3.925-.937 8.751-.972 4.827-.036 8.84.371 8.84.884 0 .512-3.907.937-8.751.972-4.845.035-8.84-.371-8.84-.884zm2.262-6.471c0-.513 3.925-.955 8.84-.972 4.915-.018 8.84.371 8.84.884s-3.925.937-8.84.954c-4.915.018-8.84-.371-8.84-.866zm1.414-6.188c0-.513 3.908-.937 8.752-.973 4.844-.035 8.84.372 8.84.884 0 .513-3.925.937-8.752.955-4.826.018-8.84-.353-8.84-.866zm-12.022 11.528a44.769 44.769 0 01-2.9 10.608 55.646 55.646 0 01-4.331 10.06 79.648 79.648 0 013.536-10.379c1.927-5.728 3.412-10.342 3.695-10.289z" fill="#263238"/><path d="M977.792 475.486c.159-13.331-14.144-39.603-14.144-39.603l-25.601 16.089 4.155 10.873-57.284 23.567-15.664.725-10.007 14.356 12.871 11.811 33.592-9.282c21.252-3.678 71.887-13.755 72.082-28.536z" fill="#FFBE9D"/><path d="M468.202 554.41l7.072-13.49-25.177-13.543-10.608 19.625 1.521.937c6.736 4.119 34.564 20.491 39.974 21.587 6.029 1.22-12.782-15.116-12.782-15.116z" fill="#407BFF"/><path opacity=".4" d="M448.736 551.705a9.912 9.912 0 00-.318-7.072 9.636 9.636 0 00-4.915-5.004l-3.783 7.072 9.016 5.004z" fill="#000"/><path opacity=".4" d="M477.183 562.772s6.347 6.188 4.738 6.931c-1.609.743-30.339-14.763-42.432-22.701l.354-.548 33.38 18.352s2.475-2.759 3.96-2.034z" fill="#000"/><path d="M439.454 546.312l.407.283 1.202.743 4.473 2.511c3.784 2.21 9.07 5.215 14.957 8.398a476.692 476.692 0 0015.258 7.902l4.668 2.281 1.29.601c.145.08.299.14.46.177l-.442-.247-1.238-.655-4.632-2.369a880.965 880.965 0 01-15.187-7.991 925.831 925.831 0 01-15.01-8.31l-4.526-2.563-1.238-.69-.442-.071z" fill="#263238"/><path d="M472.993 565.195a12.769 12.769 0 012.033-1.768c.8-.401 1.642-.71 2.511-.92a3.82 3.82 0 00-2.687.619 3.976 3.976 0 00-1.857 2.069zm-5.392-7.762c.473-.08.921-.267 1.309-.548.689-.372 1.202-.761 1.149-.831-.053-.071-.637.159-1.308.53-.672.371-1.203.76-1.15.849zm-1.45-2.193c0 .107.548 0 1.202-.106.655-.106 1.15-.353 1.114-.442-.035-.088-.548 0-1.202.107-.654.106-1.149.353-1.114.441zm-.017-3.058c0 .088.512.477 1.22.866.418.293.894.492 1.396.584 0-.089-.495-.478-1.22-.884-.724-.407-1.343-.654-1.396-.566zm.459-1.91s.424.69 1.237 1.203c.465.37 1.034.586 1.627.618a9.094 9.094 0 00-1.432-.901 8.68 8.68 0 00-1.432-.92z" fill="#263238"/><path d="M469.634 555.682a5.468 5.468 0 001.626.867c.624.243 1.269.426 1.927.548.395.088.798.13 1.203.124a.96.96 0 00.672-.283.745.745 0 00.106-.778 3.36 3.36 0 00-4.137-1.114 3.854 3.854 0 00-1.114.796c-.212.247-.283.406-.266.424a4.859 4.859 0 011.468-.99 3.404 3.404 0 011.874-.159 2.813 2.813 0 011.856 1.184c.159.318-.106.566-.477.584-.38.008-.76-.027-1.132-.106a10.98 10.98 0 01-1.891-.46c-1.061-.354-1.68-.672-1.715-.637z" fill="#263238"/><path d="M470.023 556.001c.363-.249.636-.609.778-1.026.186-.446.253-.934.194-1.414a1.773 1.773 0 00-.901-1.556.745.745 0 00-.902.477 1.896 1.896 0 00-.106.867c.022.473.099.941.23 1.396.099.425.299.819.583 1.15 0 0-.177-.46-.336-1.22a5.815 5.815 0 01-.159-1.326c0-.46.141-1.167.583-1.026a1.774 1.774 0 01.69 1.273 2.77 2.77 0 01-.106 1.291 9.912 9.912 0 01-.548 1.114zm-26.255-16.39s.76.319 1.768 1.079a9.153 9.153 0 013.164 3.854 9.292 9.292 0 01.601 4.95 20.009 20.009 0 01-.495 2.051s.124-.159.283-.512c.199-.486.352-.989.46-1.503a8.844 8.844 0 00-.53-5.127 8.984 8.984 0 00-3.342-3.925 7.418 7.418 0 00-1.414-.708 2.058 2.058 0 00-.495-.159zm8.168-9.069a46.64 46.64 0 00-3.005 5.056 50.2 50.2 0 00-2.705 5.216 46.64 46.64 0 003.005-5.056 48.32 48.32 0 002.705-5.216zm1.292 20.42a23.167 23.167 0 007.319 4.031c0-.088-1.662-.866-3.677-1.98-2.016-1.114-3.589-2.122-3.642-2.051z" fill="#263238"/><path d="M448.294 548.293c-.088 0 0 .424-.088.901-.088.478-.124.849 0 .884.124.036.354-.318.389-.866.035-.548-.212-.937-.301-.919zm-.618-3.307c-.088 0 0 .371 0 .778 0 .407.283.707.389.69.106-.018 0-.389 0-.796 0-.407-.283-.707-.389-.672zm-2.14-2.493c0 .089.318.266.601.602.283.335.478.671.566.654.088-.018 0-.495-.301-.884-.3-.389-.866-.46-.866-.372zm-1.573-1.485s0 .265.177.46c.177.194.353.3.424.247.071-.053 0-.283-.159-.477-.159-.195-.371-.336-.442-.23zm180.725 10.361h-63.772v12.818h63.772v-12.818zm27.439 83.997h-63.772v12.818h63.772v-12.818zm29.118 74.469h-76.66v12.818h76.66v-12.818zm-87.444-245.328h-54.242v12.818h54.242v-12.818zm-27.069-86.72H512.49v12.818h54.242v-12.818z" fill="#263238"/><path d="M489.984 291.543L315.199 823.375h16.637L495.8 328.159l124.026 495.216h19.978L505.79 291.543h-15.806z" fill="#263238"/><path d="M530.754 291.543L395.096 823.375h25.795L541.575 328.99l163.133 494.385h22.789L549.584 291.543h-18.83z" fill="#455A64"/><path d="M380.598 646.54a6.383 6.383 0 001.868 4.537 6.401 6.401 0 004.532 1.881h57.919a6.4 6.4 0 006.401-6.418 6.4 6.4 0 00-6.401-6.4h-57.919a6.399 6.399 0 00-6.4 6.4zm-25.23 82.513a6.417 6.417 0 006.418 6.4h57.902a6.404 6.404 0 004.538-10.938 6.417 6.417 0 00-4.538-1.88h-57.99a6.434 6.434 0 00-6.33 6.418zm53.04-167.501a6.401 6.401 0 006.4 6.4h57.92a6.388 6.388 0 004.526-1.874 6.41 6.41 0 001.874-4.526 6.396 6.396 0 00-3.951-5.913 6.407 6.407 0 00-2.449-.487h-57.867a6.39 6.39 0 00-4.56 1.856 6.416 6.416 0 00-1.893 4.544zm88.683-94.446h-54.225a6.4 6.4 0 00-6.4 6.4v.018a6.4 6.4 0 006.4 6.4h54.225a6.4 6.4 0 006.4-6.4v-.018a6.4 6.4 0 00-6.4-6.4zm-34.511-80.692a6.418 6.418 0 006.4 6.418h41.442a6.417 6.417 0 006.4-6.418 6.4 6.4 0 00-6.4-6.4H468.98a6.396 6.396 0 00-4.525 1.875 6.396 6.396 0 00-1.875 4.525z" fill="#455A64"/><path d="M474.372 255.211c.813.265 15.788 33.698 27.828 33.875 12.04.177 73.425-4.685 73.425-4.685l.743-17.91-63.418.177-19.289-26.114-19.289 14.657z" fill="#FFBE9D"/><path d="M568.589 268.736s10.466-3.359 11.616-5.003c1.149-1.645 5.869-9.371 5.869-9.371a6.258 6.258 0 011.167 4.632 274.402 274.402 0 00-1.343 5.304 1.52 1.52 0 001.768 1.875c2.475-.442 6.099-.884 6.524.3.671 1.768-2.21 13.508-4.314 15.665s-16.496 2.192-16.496 2.192l-4.791-15.594z" fill="#FFBE9D"/><path d="M591.52 269.921c0 .088-.654.777-2.121 1.467-.871.403-1.793.683-2.741.831a2.807 2.807 0 01-1.856-.354 1.922 1.922 0 01-.778-1.98 2.773 2.773 0 011.096-1.768 4.843 4.843 0 011.609-.725c1.025-.283 1.927-.442 2.705-.601a6.898 6.898 0 012.528-.318 6.83 6.83 0 01-2.369.937l-2.616.796a2.57 2.57 0 00-2.051 1.768c-.195.972.707 1.432 1.662 1.326a12.24 12.24 0 002.563-.584c.768-.327 1.56-.593 2.369-.795z" fill="#EB996E"/><path d="M589.787 275.225a5.047 5.047 0 01-1.768.937c-.336.13-.686.219-1.043.265a1.647 1.647 0 01-1.326-.495 2.331 2.331 0 01-.531-2.917 4.389 4.389 0 012.352-1.591l1.98-.796c1.149-.459 1.909-.583 1.945-.459.035.123-.619.459-1.68 1.043-.53.3-1.167.636-1.909.99a4.12 4.12 0 00-1.91 1.29 1.523 1.523 0 00.336 1.768.837.837 0 00.708.336 4.97 4.97 0 00.901-.106c1.132-.247 1.91-.424 1.945-.265zm-6.347 3.872c-.124 0-.336-.601-.884-1.485a7.822 7.822 0 00-2.953-2.794l-.583-.318.53-.442c.354-.301.743-.619 1.096-.973a23.423 23.423 0 004.031-6.188c.124 0 0 .902-.406 2.246a12.486 12.486 0 01-2.988 4.597c-.369.371-.765.713-1.185 1.025v-.743a7.072 7.072 0 013.041 3.307c.301 1.06.301 1.75.301 1.768z" fill="#EB996E"/><path d="M590.052 279.344c0 .107-.459.584-1.573.973a2.737 2.737 0 01-2.157-.106 2.39 2.39 0 01-.99-.937 1.76 1.76 0 010-1.591 4.444 4.444 0 011.962-1.768 16.74 16.74 0 011.768-.831c1.043-.407 1.768-.513 1.768-.389 0 .123-.566.442-1.503.972-.459.283-1.025.601-1.626.99a4.497 4.497 0 00-1.556 1.344c-.265.513.124 1.096.619 1.397.486.264 1.05.345 1.591.229.972-.159 1.644-.424 1.697-.283z" fill="#EB996E"/><path d="M412.917 161.861a38.951 38.951 0 01-1.768 9.229 13.473 13.473 0 01-5.711 7.266c-2.617 1.468-6.223 2.087-7.231 4.915-1.008 2.829 1.184 6.471-.884 8.593a6.614 6.614 0 01-3.218 1.379 14.146 14.146 0 00-9.193 7.072 15.22 15.22 0 00.919 13.348 45.36 45.36 0 008.84 10.608l33.592-7.195s-9.936-53.27-9.777-52.899a42.727 42.727 0 01-5.569-2.316z" fill="#263238"/><path d="M457.47 164.672a5.745 5.745 0 002.864 3.925c1.48.794 2.909 1.68 4.279 2.652a10.616 10.616 0 013.341 8.062 31.633 31.633 0 01-1.591 8.84 18.94 18.94 0 0114.144 7.372 24.755 24.755 0 014.986 15.364c0 3.925-.99 8.169-3.996 10.608a16.812 16.812 0 01-8.61 3.059c-6.1.902-12.235 1.432-18.37 1.963-6.135.53-12.747.954-18.192-1.998a22.789 22.789 0 01-9.583-11.793 48.637 48.637 0 01-2.846-22.613 108.564 108.564 0 014.968-22.418m-13.702-11.651a23.781 23.781 0 00-9.6-2.564c-3.342 0-6.878 1.981-7.797 5.198a7.555 7.555 0 00.601 5.181 15.555 15.555 0 003.182 4.243 7.817 7.817 0 004.544 2.67 6.635 6.635 0 003.943-1.114 10.34 10.34 0 004.773-6.135 7.214 7.214 0 00-2.192-7.231" fill="#263238"/><path d="M453.386 148.512s6.029-2.104 6.082-6.046c.053-3.943-44.996-9.565-53.606 12.376 0 0 1.68 1.184 8.646.742" fill="#407BFF"/><path opacity=".5" d="M453.386 148.512s6.029-2.104 6.082-6.046c.053-3.943-44.996-9.565-53.606 12.376 0 0 1.68 1.184 8.646.742" fill="#000"/><path d="M418.874 209.243l27.492-2.192c.177-3.2 0-15.629 0-15.629s11.439-1.768 11.581-13.207c.141-11.439-1.768-37.711-1.768-37.711a39.78 39.78 0 00-39.957 5.021l-1.768 1.308 4.42 62.41z" fill="#FFBE9D"/><path d="M451.441 159.545a1.664 1.664 0 011.007-2.963 1.653 1.653 0 011.221.505 1.664 1.664 0 01-1.007 2.963 1.675 1.675 0 01-1.221-.505z" fill="#263238"/><path d="M456.144 157.547c-.177.194-1.291-.654-2.865-.672-1.573-.018-2.722.813-2.899.601-.177-.212.088-.442.601-.813a3.785 3.785 0 012.298-.743 3.85 3.85 0 012.299.796c.566.389.689.742.566.831zm-19.571.848a1.67 1.67 0 01-1.16 3.06 1.66 1.66 0 01-.608-.231 1.767 1.767 0 01-.548-2.298 1.64 1.64 0 011.703-.775c.219.039.427.122.613.244z" fill="#263238"/><path d="M439.083 158.943c-.194.195-1.308-.671-2.882-.671-1.573 0-2.722.795-2.899.601-.177-.195.106-.442.601-.831a3.796 3.796 0 012.316-.725 3.83 3.83 0 012.281.778c.495.389.672.76.583.848zm6.312 12.995a7.674 7.674 0 012.546-.548c.406 0 .742-.124.76-.353a2.22 2.22 0 00-.283-1.185c-.406-1.043-.831-2.086-1.255-3.2a43.963 43.963 0 01-2.687-8.416 44.852 44.852 0 013.536 8.098c.406 1.114.795 2.174 1.166 3.235.285.544.366 1.17.23 1.768a1.074 1.074 0 01-.707.654 2.15 2.15 0 01-.707 0 7.847 7.847 0 01-2.599-.053z" fill="#263238"/><path d="M446.332 191.263a26.663 26.663 0 01-14.922-4.243s3.536 8.238 14.94 7.195l-.018-2.952z" fill="#EB996E"/><path d="M456.286 143.385a19.076 19.076 0 01-16.054 0c-6.152-2.528-13.171-3.536-14.603-2.157-1.433 1.379 1.06 13.172-4.686 15.4 0 0-1.096 5.887-5.781 5.816-4.685-.07-3.094-18.334-3.094-18.334l10.944-6.4 12.234-3.253 11.811.778 9.229 1.768v6.382z" fill="#263238"/><path d="M415.816 158.678c-.194 0-7.867-2.316-7.602 5.499.265 7.814 8.044 5.958 8.044 5.728 0-.23-.442-11.227-.442-11.227z" fill="#FFBE9D"/><path d="M413.712 167.023s-.142 0-.371.212a1.342 1.342 0 01-1.008 0 3.405 3.405 0 01-1.662-2.97 4.631 4.631 0 01.318-1.962 1.617 1.617 0 01.99-1.079.657.657 0 01.814.336c.123.212 0 .371.123.389.124.018.159-.141 0-.46a.829.829 0 00-.336-.477 1.042 1.042 0 00-.636-.124 1.948 1.948 0 00-1.379 1.256c-.31.718-.443 1.5-.389 2.28a3.534 3.534 0 002.104 3.324 1.457 1.457 0 001.237-.247c.195-.301.283-.46.195-.478z" fill="#EB996E"/><path d="M410.512 134.368c-.106-.23 1.202-.795 2.793-.3 1.592.495 2.334 1.768 2.122 1.768-.212 0-1.096-.566-2.405-.955-1.308-.389-2.457-.177-2.51-.513zm4.438-4.862c.282 0 .283 1.662.654 3.536.371 1.874 1.22 3.236 1.008 3.395-.213.159-1.503-1.079-1.91-3.2a5.304 5.304 0 01.248-3.731zm33.574 25.477c-.265-.424 1.185-1.768 3.536-1.768 2.352 0 3.837 1.061 3.536 1.503-.3.442-1.768.248-3.536.336-1.768.088-3.27.389-3.536-.071zm-23.126-14.002a55.427 55.427 0 016.789 5.109 11.882 11.882 0 007.833 2.864l-.69-1.326a47.283 47.283 0 0012.942 3.13 5.025 5.025 0 004.579-1.202c1.025-1.326-.407-3.696-.566-6.171-.124-1.768-.742-2.245-2.422-2.864a6.104 6.104 0 00-2.404-.212 97.131 97.131 0 01-18.547-1.026 17.98 17.98 0 00-4.349-.335 5.288 5.288 0 00-3.801 1.768" fill="#263238"/><path d="M445.537 173.406a1.522 1.522 0 00-1.768 0 1.76 1.76 0 00-.814 1.503 2.333 2.333 0 00.637 1.626c.307.375.73.636 1.202.743a1.968 1.968 0 002.051-.866 2.143 2.143 0 000-2.246 2.283 2.283 0 00-2.016-1.025" fill="#EB996E"/><path d="M449.479 175.616c0 .106-.459.424-1.343.459a7.753 7.753 0 01-3.307-.689c-2.457-.955-3.995-2.635-3.73-2.847.265-.212 1.768 1.079 4.066 1.998.957.415 1.96.712 2.988.884.796.124 1.291.071 1.326.195zm-10.75-20.792c-.195.177-.566.106-1.043.177-.478.07-1.256.247-2.263.336-1.945.176-3.536 0-3.536-.601 0-.602 1.485-1.061 3.43-1.238a5.872 5.872 0 012.687.23c.743.353.919.954.725 1.096zm-18.652-8.84c.141 6.276 1.361 12.482 1.432 18.741.071 6.259-1.167 12.889-5.304 17.68a8.534 8.534 0 01-5.569 3.288 3.11 3.11 0 01-3.218-1.573 3.87 3.87 0 01.354-2.917 68.223 68.223 0 014.862-8.257 18.987 18.987 0 003.271-8.84 27.905 27.905 0 00-.991-6.931 15.167 15.167 0 01-.265-6.948 6.098 6.098 0 014.668-4.685" fill="#263238"/><path d="M434.716 140.857c20.614-2.246 24.575 1.397 24.752 1.573a4.044 4.044 0 001.06-2.033c.743-6.029-6.647-7.797-6.647-7.797-4.633-21.092-23.585-18.935-23.585-18.935v-.159a3.415 3.415 0 00-3.996-2.705l-2.953.566a3.415 3.415 0 00-2.705 3.995c-22.241 7.408-14.869 27.97-14.869 27.97l-3.253 3.925c-2.882 5.852 3.377 7.62 3.377 7.62s7.673-11.669 28.819-14.02z" fill="#407BFF"/><path opacity=".5" d="M424.32 133.661a46.974 46.974 0 01-2.529-8.84 46.912 46.912 0 01-1.608-9.07 46.91 46.91 0 012.51 8.84 46.406 46.406 0 011.627 9.07zm11.104-2.741a43.354 43.354 0 01-2.882-8.486 43.699 43.699 0 01-1.998-8.716 42.929 42.929 0 012.882 8.468 44.042 44.042 0 011.998 8.734zm17.52 2.547c0 .176-2.652-.602-6.984-.991a52.372 52.372 0 00-16.814 1.344 70.889 70.889 0 00-15.806 6.1c-3.854 2.015-6.135 3.536-6.205 3.359.445-.448.944-.84 1.485-1.167a54.56 54.56 0 014.42-2.758 61.893 61.893 0 0115.912-6.436 48.1 48.1 0 0117.096-1.096c1.726.212 3.433.549 5.11 1.008a7.05 7.05 0 011.786.637z" fill="#000"/><path opacity=".2" d="M425.328 137.392a104.968 104.968 0 00-11.509 4.915 108.477 108.477 0 00-10.379 7.072 11.064 11.064 0 012.564-2.688 41.283 41.283 0 0115.682-8.539 11.238 11.238 0 013.642-.76zm-17.645 2.864c-.601.141-1.591-1.291-1.998-3.978a17.684 17.684 0 019.336-17.68c2.457-1.185 4.19-1.185 4.42-.619.495 1.184-4.703 4.19-7.78 10.166-3.076 5.976-2.705 11.845-3.978 12.111z" fill="#fff"/><path d="M392.496 343.487l83.45 7.532c.141-5.711-1.591-40.54-2.617-63.418-.194-4.332 4.084-11.846 3.925-15.47-.424-9.017-1.768-9.371-1.768-9.371l4.756 8.84 24.752-22.046-21.605-29.19a42.776 42.776 0 00-28.606-16.92c-3.359-.442-5.905-.672-7.567-.884a48.633 48.633 0 01-29.314 0 39.863 39.863 0 00-12.146 2.334 50.021 50.021 0 00-19.448 12.535l-35.36 41.636 32.708 21.146 12.588-13.243 1.627 34.406-5.375 42.113z" fill="#407BFF"/><path d="M469.916 248.51c0 .248-12.376.46-27.475.46-15.098 0-27.474-.212-27.474-.46 0-.247 12.287-.459 27.474-.459 15.188 0 27.475.194 27.475.459zm-1.837-8.946a69.99 69.99 0 01-16.018 0 69.99 69.99 0 0116.018 0z" fill="#fff"/><path d="M408.408 252.135a30.993 30.993 0 01-3.377 4.331c-2.174 2.599-5.304 6.135-8.645 10.025-3.342 3.89-6.542 7.337-8.84 9.83a29.649 29.649 0 01-3.872 3.89 35.174 35.174 0 013.377-4.314c2.192-2.599 5.304-6.153 8.663-10.043 3.359-3.889 6.542-7.354 8.84-9.83a31.886 31.886 0 013.854-3.889z" fill="#263238"/><path d="M402.486 625.165l-2.741 11.457s-18.723 24.31-24.487 23.125c-3.783-.778.867-7.072 7.974-25.601l1.503-7.62 17.751-1.361z" fill="#407BFF"/><path d="M374.498 656.158c.229.409.574.741.99.955a3.54 3.54 0 003.536-.513 101.445 101.445 0 009.317-8.84 115.643 115.643 0 008.434-9.724l2.387-3.076c.229-.283.459-.566.654-.831l.247-.283s0 .124-.177.318l-.601.884c-.53.761-1.308 1.768-2.298 3.165a122.486 122.486 0 01-8.38 9.795 90.427 90.427 0 01-9.424 8.84 4.674 4.674 0 01-2.121.778 3.323 3.323 0 01-1.68-.371 2.109 2.109 0 01-.778-.743 1.044 1.044 0 01-.106-.354z" fill="#263238"/><path d="M377.15 648.343a3.009 3.009 0 011.539-.194 8.263 8.263 0 013.536 1.238 6.442 6.442 0 012.563 2.705c.253.46.387.977.389 1.502 0 0-.177-.565-.619-1.379a7.072 7.072 0 00-2.528-2.528 9.175 9.175 0 00-3.377-1.273c-.919-.124-1.503-.018-1.503-.071zm17.715-5.71a2.439 2.439 0 01-.23-.548 9.55 9.55 0 01-.371-1.574 8.472 8.472 0 01.866-5.216 8.088 8.088 0 013.801-3.677 6.545 6.545 0 011.538-.477h.602c-.697.184-1.377.426-2.034.725a8.183 8.183 0 00-3.536 3.624 8.72 8.72 0 00-.937 5.003c.106 1.291.372 2.122.301 2.14z" fill="#263238"/><path d="M401.336 627.11c.089 0-.318 1.626-.672 3.66a11.53 11.53 0 01-.99 3.536c-.088 0 .283-1.627.619-3.66a11.483 11.483 0 011.043-3.536zm-18.423 8.663a4.011 4.011 0 012.405 0 4.22 4.22 0 012.157 1.043c0 .106-.991-.389-2.246-.672-1.255-.282-2.316-.265-2.316-.371zm-.389 1.963a3.715 3.715 0 013.802.901s-.814-.406-1.768-.636c-.955-.23-2.016-.159-2.034-.265zm-1.502 2.457a3.043 3.043 0 013.872.866 10.473 10.473 0 00-1.768-.796 9.614 9.614 0 00-2.104-.07zm3.182-5.251s.849-.247 2.192-.76a19.461 19.461 0 002.246-1.079l1.255-.795c.371-.283.796-.708.778-1.132-.018-.424-.566-.672-.99-.566-.44.156-.834.417-1.149.761-.69.654-1.273 1.273-1.768 1.768-.955 1.078-1.503 1.768-1.538 1.768.072-.197.173-.382.3-.548.23-.336.584-.814 1.043-1.362a22.11 22.11 0 011.768-1.892c.35-.402.802-.701 1.309-.866a1.092 1.092 0 011.252.457c.086.134.141.286.162.445a1.762 1.762 0 01-.919 1.432c-.417.287-.848.552-1.291.795-.743.421-1.525.771-2.334 1.044-.542.187-1.098.334-1.662.442-.21.073-.432.103-.654.088z" fill="#263238"/><path d="M385.177 634.712s-.141-.813-.353-2.086a8.632 8.632 0 00-.637-2.174 5.164 5.164 0 00-.689-1.097c-.301-.318-.725-.583-1.061-.388-.336.194-.389.707-.336 1.131.072.43.191.851.354 1.255a8.188 8.188 0 001.219 1.874c.867.955 1.539 1.432 1.503 1.485-.035.053-.194 0-.495-.282a8.381 8.381 0 01-1.184-1.026 6.973 6.973 0 01-1.344-1.927 5.168 5.168 0 01-.407-1.344 1.411 1.411 0 01.513-1.485 1.241 1.241 0 011.503.478c.305.355.555.755.742 1.184.297.724.494 1.486.584 2.263 0 .654.106 1.202.106 1.556 0 .354.018.583-.018.583z" fill="#263238"/><path opacity=".4" d="M399.745 636.622l1.326-5.499s-4.597.849-5.781 4.279a14.585 14.585 0 00-.902 5.869l-9.971 10.75s-2.493-4.897-7.072-3.713c0 0-3.536 7.832-3.536 9.795 0 1.962 2.404 1.768 3.217 1.361a40.65 40.65 0 008.929-7.072c5.41-5.445 11.244-12.376 13.79-15.77z" fill="#000"/><path d="M342.479 314.386a27.779 27.779 0 01.142-36.615l13.932-15.011 25.14 16.16c-.795.548-17.361 18.458-17.361 18.458l29.013 36.155a20.797 20.797 0 013.536 19.802l-4.968 20.226-24.169-10.767 1.609-2.475h15.912l.937-3.819-43.723-42.114z" fill="#FFBE9D"/><path d="M358.091 290.925a16.119 16.119 0 013.889 3.324 11.127 11.127 0 013.112 4.066 19.758 19.758 0 01-3.766-3.43 12.956 12.956 0 01-3.235-3.96z" fill="#EB996E"/><path d="M413.871 348.42l4.738-90.628h51.927l3.836 96.074-60.501-5.446z" fill="#263238"/><path d="M463.217 281.254s-.389.389-1.203.955a31.483 31.483 0 01-3.536 2.156 48.952 48.952 0 01-26.714 5.587 35.589 35.589 0 01-4.137-.583 4.705 4.705 0 01-1.485-.407c0-.159 2.174.195 5.675.336 4.536.168 9.076-.2 13.525-1.096a56.722 56.722 0 0012.853-4.332c3.147-1.591 5.022-2.758 5.022-2.616zm-36.333 13.26c-.265 0-.513-.584-.548-1.291-.035-.707.124-1.308.371-1.361.248-.053.495.548.548 1.29.053.743-.123 1.362-.371 1.362zm-1.415 9.954c-.248 0-.266-1.167 0-2.546.265-1.379.636-2.458.884-2.404.247.053.265 1.184 0 2.545-.266 1.362-.637 2.44-.884 2.405zm1.238 9.829c-.213.142-.991-.795-1.38-2.21-.388-1.414-.247-2.581 0-2.599.248-.017.531 1.061.885 2.352.353 1.291.724 2.334.495 2.457zm8.451 4.491c0 .248-1.167.442-2.599.177-1.432-.265-2.422-.99-2.299-1.22.124-.23 1.167.089 2.476.318 1.308.23 2.422.46 2.422.725zm10.061-.088c0 .247-1.132.477-2.511.495-1.379.018-2.528-.177-2.528-.424 0-.248 1.131-.478 2.51-.495 1.379-.018 2.529.159 2.529.424zm10.059-.159c0 .265-1.114.495-2.51.512-1.397.018-2.511-.176-2.529-.424-.017-.248 1.132-.477 2.529-.495 1.396-.018 2.51.106 2.51.407zm8.186-4.526c.212 0 .088 1.308-.884 2.475s-2.298 1.414-2.369 1.184c-.071-.229.849-.813 1.662-1.768.813-.954 1.343-1.98 1.591-1.891zm1.839-9.919c.248 0 .283 1.185.088 2.564-.194 1.379-.583 2.457-.831 2.404-.247-.053-.3-1.184-.088-2.546.212-1.361.513-2.422.831-2.422zm1.006-9.971c.248 0 .354 1.149.248 2.546-.106 1.396-.424 2.493-.672 2.457-.247-.035-.353-1.167-.247-2.546.106-1.379.406-2.475.671-2.457zm.319-7.709c.247 0 .442.619.424 1.344-.017.725-.247 1.326-.495 1.308-.247-.018-.442-.601-.424-1.326.018-.725.23-1.326.495-1.326z" fill="#455A64"/><path d="M402.609 206.149s21.04 5.516 21.393 54.932h8.469s2.227-41.495-20.668-57.796c0 .036-6.612-1.591-9.194 2.864zm44.483-3.518s14.939 7.072 15.311 56.576h7.195s.619-46.269-13.507-55.392a10.144 10.144 0 00-8.999-1.184z" fill="#263238"/><path d="M432.417 257.297a5.8 5.8 0 01.513 2.811 5.303 5.303 0 01-.919 3.077c-.43.521-.97.941-1.581 1.229a4.574 4.574 0 01-1.955.433 4.482 4.482 0 01-3.713-1.415 5.106 5.106 0 01-1.114-3.005 5.919 5.919 0 01.354-2.829c.167.911.267 1.833.3 2.758.112.931.493 1.81 1.096 2.528a4.49 4.49 0 006.012-.23 4.758 4.758 0 00.937-2.581 17.389 17.389 0 01.07-2.776z" fill="#455A64"/><path d="M428.209 258.765c0-.106.46-.389 1.114 0a1.364 1.364 0 01.477 1.29 1.486 1.486 0 01-2.758.442 1.309 1.309 0 010-1.379c.46-.654 1.043-.548 1.008-.442-.035.107-.301.301-.442.743a.751.751 0 00.106.636.769.769 0 00.672.301.746.746 0 00.559-.827.67.67 0 00-.135-.304c-.212-.283-.601-.336-.601-.46zm41.548-1.503c.106 0 .513.849.425 2.405a5.182 5.182 0 01-.884 2.581 4.1 4.1 0 01-2.882 1.768 3.413 3.413 0 01-3.183-1.273 5.802 5.802 0 01-.831-4.968c.16 0 .195.919.478 2.298.147.779.488 1.509.99 2.122a2.683 2.683 0 002.422.919 3.529 3.529 0 002.316-1.414 5.102 5.102 0 00.919-2.175c.248-1.396.089-2.245.23-2.263z" fill="#455A64"/><path d="M465.744 258.464c-.088 0 .23-.53 1.008-.424.234.042.453.146.634.301.18.156.315.357.391.583a1.463 1.463 0 01-.46 1.609 1.43 1.43 0 01-1.679 0 1.236 1.236 0 01-.566-1.238c.159-.795.743-.901.76-.795.018.106-.176.389-.106.813a.6.6 0 00.336.495.696.696 0 00.69 0 .73.73 0 00.212-.672.687.687 0 00-.389-.495c-.407-.177-.76-.071-.831-.177z" fill="#455A64"/><path d="M475.857 351.019l53.04 87.622a12.568 12.568 0 010 13.066l-49.362 101.801-40.488-21.446 40.24-78.534a12.495 12.495 0 00-1.008-13.243l-52.191-63.223 2.121-26.043h47.648z" fill="#263238"/><path d="M392.408 339.403l-25.6 291.508h42.326l36.031-247.396-.548-35.095-52.209-9.017z" fill="#263238"/><path d="M414.579 352.239a7.215 7.215 0 01-.955 3.218 14.652 14.652 0 01-13.278 8.256 7.067 7.067 0 01-3.306-.583c0-.159 1.273 0 3.288 0a16.367 16.367 0 007.355-2.352 16.018 16.018 0 005.304-5.551c1.079-1.803 1.432-3.041 1.592-2.988zm11.067 159.42c.02-.487.079-.972.177-1.45l.725-4.137c.637-3.695 1.503-8.84 2.599-15.24 2.139-12.871 4.862-30.692 7.673-50.406 2.811-19.713 5.163-37.605 6.736-50.564.743-6.418 1.362-11.634 1.768-15.347.195-1.768.354-3.147.478-4.172.047-.488.124-.972.229-1.45a8.18 8.18 0 010 1.468c-.094 1.049-.2 2.445-.318 4.19-.3 3.642-.813 8.84-1.52 15.381-1.397 12.995-3.66 30.887-6.453 50.618-2.794 19.731-5.658 37.535-7.956 50.388-1.15 6.436-2.14 11.616-2.882 15.205-.372 1.768-.672 3.076-.884 4.102-.089.48-.213.952-.372 1.414zm-15.629 112.162c0 .248-9.618.248-21.446 0-11.828-.247-21.428-.672-21.428-.937s9.6-.247 21.445 0c11.846.248 21.429.69 21.429.937zm74.115-76.395a7.324 7.324 0 01-1.768-.619c-1.132-.442-2.758-1.132-4.739-2.033-3.96-1.768-9.37-4.456-15.187-7.709-5.816-3.253-10.891-6.471-14.497-8.84-1.768-1.22-3.253-2.245-4.226-2.97-.972-.725-1.503-1.167-1.45-1.22a9.26 9.26 0 011.662.92l4.367 2.722a367.069 367.069 0 0014.604 8.663c5.764 3.236 11.121 5.976 15.01 7.921l4.615 2.298a8.266 8.266 0 011.609.867z" fill="#455A64"/><path d="M405.88 621.982c.248 0 .389.637.318 1.362-.07.725-.353 1.308-.601 1.273-.247-.036-.389-.637-.318-1.362.071-.725.354-1.29.601-1.273zm1.149-10.536c.248 0 .319 1.237.159 2.687-.159 1.45-.477 2.617-.742 2.581-.265-.035-.318-1.237-.159-2.687.159-1.45.495-2.617.742-2.581zm1.167-10.538c.265 0 .336 1.238.176 2.687-.159 1.45-.512 2.617-.76 2.582-.247-.036-.318-1.238-.159-2.688.159-1.449.495-2.616.743-2.581zm1.22-10.537c.248 0 .318 1.237.159 2.687-.159 1.45-.513 2.617-.778 2.582-.265-.036-.318-1.238-.141-2.688.177-1.45.513-2.599.76-2.581zm1.237-10.467c.266 0 .319 1.238.142 2.688-.177 1.449-.513 2.599-.76 2.581-.248-.018-.319-1.238-.142-2.687.177-1.45.513-2.582.76-2.582zm1.291-10.608c.266 0 .319 1.238.142 2.688-.177 1.449-.53 2.616-.778 2.581-.248-.035-.318-1.238-.141-2.687.176-1.45.512-2.582.777-2.582zm1.291-10.502c.265 0 .318 1.238.141 2.688-.177 1.449-.548 2.616-.796 2.581-.247-.035-.3-1.238-.123-2.688.176-1.449.53-2.599.778-2.581zm1.343-10.502c.248 0 .301 1.22.124 2.688-.177 1.467-.548 2.599-.795 2.563-.248-.035-.301-1.237-.124-2.687.177-1.45.548-2.599.795-2.564zm1.379-10.519c.248 0 .301 1.237.106 2.687-.194 1.45-.548 2.599-.795 2.564-.248-.036-.301-1.238-.124-2.688.177-1.449.548-2.599.813-2.563zm1.397-10.502c.248 0 .301 1.237.106 2.687-.194 1.45-.566 2.599-.813 2.564-.248-.036-.301-1.238-.106-2.688.194-1.449.566-2.599.813-2.563zm1.433-10.502c.265 0 .3 1.237.106 2.687-.195 1.45-.566 2.599-.813 2.564-.248-.036-.301-1.238-.106-2.688.194-1.449.565-2.598.813-2.563zm1.484-10.502c.248 0 .283 1.237 0 2.687-.283 1.45-.566 2.599-.813 2.564-.248-.036-.301-1.238 0-2.688.301-1.449.548-2.598.813-2.563zm1.503-10.502c.248 0 .283 1.238 0 2.688-.283 1.45-.583 2.599-.831 2.563-.247-.035-.283-1.237 0-2.687.283-1.45.566-2.599.831-2.564zm1.521-10.484c.265 0 .283 1.238 0 2.687-.283 1.45-.584 2.599-.831 2.546-.248-.053-.283-1.237 0-2.687.283-1.45.583-2.581.831-2.546zm1.573-10.484c.247 0 .283 1.237 0 2.687-.283 1.45-.584 2.581-.849 2.546-.265-.035-.265-1.238 0-2.687.265-1.45.601-2.582.849-2.546zm1.591-10.485c.265 0 .283 1.238 0 2.688-.283 1.45-.601 2.581-.849 2.546-.247-.036-.283-1.238 0-2.688.283-1.449.601-2.581.849-2.546zm1.645-10.484c.247 0 .265 1.255 0 2.705-.266 1.45-.619 2.581-.867 2.546-.247-.035-.265-1.255 0-2.687.265-1.433.619-2.599.867-2.564zm1.661-10.466c.248 0 .266 1.255 0 2.687-.265 1.432-.618 2.599-.883 2.546-.266-.053-.266-1.238 0-2.687.265-1.45.636-2.582.883-2.546zm1.628-10.467c.247 0 .265 1.255 0 2.687s-.619 2.599-.884 2.546c-.265-.053-.248-1.238 0-2.687.247-1.45.689-2.582.884-2.546zm1.767-10.449c.266 0 .266 1.238 0 2.687-.265 1.45-.636 2.582-.884 2.529-.247-.053-.247-1.238 0-2.688.248-1.449.655-2.581.884-2.528zm1.768-10.502c.247 0 .247 1.256 0 2.705-.248 1.45-.654 2.564-.902 2.529-.247-.036-.265-1.238 0-2.688.266-1.45.672-2.546.902-2.546zm1.768-10.413c.247 0 .247 1.255 0 2.687-.248 1.432-.655 2.581-.92 2.546-.265-.036-.247-1.255 0-2.688.248-1.432.707-2.581.92-2.545zm2.139-10.396c.248 0 .195 1.273-.106 2.687-.3 1.414-.76 2.546-1.025 2.493-.265-.053-.195-1.238.124-2.687.318-1.45.76-2.546 1.007-2.493zm3.164-10.131c.23.089 0 1.273-.424 2.652-.424 1.379-1.043 2.44-1.273 2.369-.23-.07 0-1.272.407-2.669.406-1.397.955-2.458 1.29-2.352zm3.254-7.213c.23.141.142.76-.212 1.397-.353.636-.795 1.06-1.008.954-.212-.106-.141-.725.195-1.379.336-.654.813-1.096 1.025-.972zm3.819 152.331c.212.141 0 .742-.354 1.361-.353.619-.901.99-1.113.849-.213-.142 0-.743.335-1.362.336-.618.92-.99 1.132-.848zm5.764-8.894c.213.142-.247 1.238-1.043 2.476-.795 1.237-1.609 2.121-1.768 1.98-.159-.142.248-1.255 1.043-2.475.796-1.22 1.556-2.122 1.768-1.981zm5.658-8.981c.212.142-.248 1.256-1.026 2.493-.778 1.238-1.573 2.139-1.768 1.998-.194-.141.23-1.238 1.008-2.493s1.556-2.139 1.786-1.998zm5.497-9.052c.23.124-.212 1.238-.972 2.493s-1.538 2.175-1.768 2.033c-.23-.141.23-1.255.99-2.51.76-1.256 1.538-2.157 1.75-2.016zm5.394-9.141c.212.124-.213 1.255-.938 2.511-.724 1.255-1.52 2.192-1.768 2.068-.247-.124.195-1.273.937-2.528.743-1.255 1.539-2.192 1.769-2.051zm5.25-9.158c.212.124-.194 1.255-.919 2.546-.725 1.291-1.468 2.21-1.768 2.069-.301-.142.177-1.256.901-2.529.725-1.273 1.556-2.28 1.786-2.086zm5.11-9.352c.212.106-.177 1.255-.867 2.545-.689 1.291-1.449 2.228-1.679 2.104-.23-.123.159-1.273.866-2.546s1.45-2.227 1.68-2.103zm4.967-9.371c.23.106-.141 1.255-.831 2.564-.689 1.308-1.414 2.245-1.644 2.121-.23-.123.159-1.255.831-2.563.672-1.309 1.415-2.246 1.644-2.122zm3.961-9.812c.248 0 .195 1.273-.3 2.687-.496 1.415-1.15 2.44-1.38 2.334-.229-.106 0-1.255.513-2.634s.902-2.44 1.167-2.387zM489.824 442c.23-.106.937.92 1.308 2.387.372 1.467.195 2.723 0 2.74-.194.018-.512-1.131-.866-2.51-.354-1.379-.672-2.617-.442-2.617zm-6.028-8.716c.177-.159 1.096.619 2.033 1.768.937 1.15 1.521 2.21 1.309 2.352-.213.141-1.114-.637-2.034-1.768-.919-1.132-1.502-2.175-1.308-2.352zm-7.036-7.939c.194-.176 1.131.584 2.104 1.68.972 1.096 1.608 2.122 1.414 2.298-.195.177-1.132-.583-2.104-1.768-.972-1.184-1.609-2.033-1.414-2.21zm-7.038-7.938c.195-.176 1.132.584 2.104 1.68.973 1.096 1.609 2.122 1.415 2.298-.195.177-1.132-.583-2.104-1.768-.972-1.184-1.609-2.033-1.415-2.21zm-7.036-7.938c.195-.177 1.132.583 2.104 1.768.973 1.184 1.609 2.121 1.415 2.298-.195.177-1.132-.583-2.104-1.679-.973-1.097-1.591-2.21-1.415-2.387zm-7.019-7.938c.177-.177 1.131.583 2.104 1.68.972 1.096 1.591 2.121 1.414 2.28-.177.159-1.131-.583-2.104-1.679-.972-1.097-1.609-2.122-1.414-2.281zm-7.037-7.939c.194-.176 1.131.584 2.104 1.68.972 1.096 1.609 2.122 1.414 2.281-.194.159-1.131-.584-2.104-1.768-.972-1.185-1.609-2.033-1.414-2.193zm-5.268-5.958c.194-.159.742.142 1.22.69.477.548.724 1.131.53 1.308-.195.177-.743-.141-1.22-.689-.477-.548-.725-1.132-.53-1.309zm28.34-41.477c.328.367.629.757.902 1.167l2.422 3.412a464.708 464.708 0 018.575 12.853c7.072 10.909 16.336 26.396 26.926 43.228 5.304 8.416 10.608 16.265 15.47 23.355a29.412 29.412 0 015.304 11.139c.326 1.863.362 3.765.106 5.639a23.97 23.97 0 01-1.396 4.986 54.882 54.882 0 01-4.208 7.744l-3.536 5.622-2.192 3.536a8.93 8.93 0 01-.796 1.238c.18-.457.392-.9.636-1.326.442-.866 1.132-2.086 2.051-3.678l3.395-5.693a55.594 55.594 0 003.978-7.779 24.537 24.537 0 001.291-4.862 18.495 18.495 0 00-.142-5.392 28.923 28.923 0 00-5.18-10.803c-4.968-7.072-10.272-14.922-15.558-23.337-10.608-16.849-19.714-32.372-26.697-43.387-3.536-5.516-6.33-9.936-8.328-12.995l-2.28-3.536a7.115 7.115 0 01-.743-1.131z" fill="#455A64"/><path d="M205.159 764.324l-.141-8.486 17.945-26.733 20.526 26.68v8.539h-38.33z" fill="#407BFF"/><path opacity=".3" d="M205.159 764.324l-.141-8.486 17.945-26.733 20.526 26.68v8.539h-38.33z" fill="#000"/><path d="M134.173 732.146c.424-.23 90.504 0 90.504 0v7.532h-84.316l-6.188-7.532z" fill="#407BFF"/><path opacity=".3" d="M134.173 732.146c.424-.23 90.504 0 90.504 0v7.532h-84.316l-6.188-7.532z" fill="#000"/><path d="M129.4 729.105l-21.764 27.44v66.83h42.06V755.06L129.4 729.105z" fill="#407BFF"/><path d="M251.002 823.375v-68.58l-18.811-25.69h-9.282l20.579 26.68v8.539h-86.349v-10.785l-21.286-24.434h-6.454l20.297 25.955v68.315h101.306z" fill="#407BFF"/><path d="M250.578 769.84c0 .248-22.736.46-50.759.46s-50.777-.212-50.777-.46c0-.248 22.719-.46 50.777-.46s50.759.212 50.759.46zm-.317 49.734c0 .265-22.737.46-50.777.46-28.041 0-50.759-.195-50.759-.46s22.718-.46 50.759-.46c28.04 0 50.777.212 50.777.46z" fill="#263238"/><path opacity=".1" d="M129.4 729.105l-21.764 27.44v66.83h42.06V755.06L129.4 729.105z" fill="#fff"/><path d="M1042.38 823.446v-3.536c0-3.906 1.55-7.652 4.31-10.414a14.73 14.73 0 0110.42-4.313h124.09a14.692 14.692 0 0110.41 4.313 14.711 14.711 0 013.2 4.778 14.73 14.73 0 011.12 5.636v3.536h-153.55z" fill="#407BFF"/><path d="M1114.33 666.023l-44.88 139.195h95.87l-41.67-139.089c-.3-.997-.9-1.872-1.74-2.499a4.878 4.878 0 00-5.78-.066 4.919 4.919 0 00-1.8 2.459z" fill="#407BFF"/><path opacity=".5" d="M1099.71 711.373h37.5l16.22 54.118h-71.18l17.46-54.118z" fill="#fff"/><path opacity=".3" d="M1069.43 805.218h95.89l-3.46-11.58-90.56 5.799-1.87 5.781z" fill="#000"/><path opacity=".2" d="M1064.44 810.186c0 .142-1.18-.106-3.06 0-2.42.028-4.81.647-6.94 1.802a14.912 14.912 0 00-5.31 4.828c-1.06 1.556-1.5 2.652-1.63 2.599.1-1.054.46-2.065 1.07-2.935a13.876 13.876 0 015.42-5.303 13.864 13.864 0 017.41-1.645c1.05-.052 2.1.174 3.04.654zm21.8-40.912a92.668 92.668 0 01-4.08 12.376 95.602 95.602 0 01-4.94 12.076 91.028 91.028 0 014.07-12.376 93.958 93.958 0 014.95-12.076zm31.37-102.155c-.46 2-1.05 3.967-1.77 5.888-1.24 3.836-2.81 8.681-4.56 14.038-1.75 5.357-3.27 10.201-4.49 14.055a45.487 45.487 0 01-2.04 5.782c.31-2.028.78-4.027 1.42-5.976.99-3.642 2.47-8.664 4.24-14.144 1.77-5.481 3.54-10.432 4.81-13.985.64-1.947 1.44-3.84 2.39-5.658z" fill="#fff"/></svg>