<svg width="71" height="71" fill="none" xmlns="http://www.w3.org/2000/svg"><circle cx="35.5" cy="35.5" r="35.5" fill="#407BFF"/><g clip-path="url(#clip0)"><path d="M51.082 35.479h-1.056v-4.267c-.002-1.472-1.182-2.665-2.639-2.666H45.89l1.425-2.496c.21-.367.267-.805.158-1.215a1.598 1.598 0 00-.739-.971L34.847 16.93a1.58 1.58 0 00-2.16.587l-6.3 11.029h-4.334c-1.457.001-2.637 1.194-2.639 2.666v14.934c.002 1.472 1.182 2.664 2.639 2.666h25.334c1.457-.002 2.637-1.194 2.64-2.666v-4.267h1.055v-6.4zm-4.68-9.963l-2.95 5.163h-9.544l5.598-9.801 6.703 3.91c.25.15.335.473.193.728zM30.251 30.68l6.515-11.4 1.826 1.067L32.69 30.68h-2.44zm3.354-12.629a.524.524 0 01.72-.195l1.526.891-6.819 11.933h-2.645l7.218-12.629zM48.97 46.146c0 .883-.71 1.6-1.584 1.6H22.053a1.592 1.592 0 01-1.583-1.6V31.212c0-.883.709-1.6 1.583-1.6h3.725l-.611 1.067h-2.586v1.067h24.278v-1.067H44.67l.61-1.067h2.107c.875 0 1.584.717 1.584 1.6v4.267h-5.806c-1.457.002-2.637 1.195-2.64 2.667v1.066c.003 1.472 1.183 2.665 2.64 2.667h5.806v4.267zm1.055-5.334h-6.861a1.592 1.592 0 01-1.584-1.6v-1.066c0-.884.71-1.6 1.584-1.6h6.861v4.266z" fill="#fff"/><path d="M51.082 35.479h-1.056v-4.267c-.002-1.472-1.182-2.665-2.639-2.666H45.89l1.425-2.496c.21-.367.267-.805.158-1.215a1.598 1.598 0 00-.739-.971L34.847 16.93a1.58 1.58 0 00-2.16.587l-6.3 11.029h-4.334c-1.457.001-2.637 1.194-2.639 2.666v14.934c.002 1.472 1.182 2.664 2.639 2.666h25.334c1.457-.002 2.637-1.194 2.64-2.666v-4.267h1.055v-6.4zm-4.68-9.963l-2.95 5.163h-9.544l5.598-9.801 6.703 3.91c.25.15.335.473.193.728zM30.251 30.68l6.515-11.4 1.826 1.067L32.69 30.68h-2.44zm3.354-12.629a.524.524 0 01.72-.195l1.526.891-6.819 11.933h-2.645l7.218-12.629zM48.97 46.146c0 .883-.71 1.6-1.584 1.6H22.053a1.592 1.592 0 01-1.583-1.6V31.212c0-.883.709-1.6 1.583-1.6h3.725l-.611 1.067h-2.586v1.067h24.278v-1.067H44.67l.61-1.067h2.107c.875 0 1.584.717 1.584 1.6v4.267h-5.806c-1.457.002-2.637 1.195-2.64 2.667v1.066c.003 1.472 1.183 2.665 2.64 2.667h5.806v4.267zm1.055-5.334h-6.861a1.592 1.592 0 01-1.584-1.6v-1.066c0-.884.71-1.6 1.584-1.6h6.861v4.266z" stroke="#fff"/><path d="M42.11 38.68c0 .883.708 1.6 1.583 1.6.874 0 1.583-.717 1.583-1.6 0-.885-.71-1.6-1.584-1.6a1.59 1.59 0 00-1.583 1.6zm1.583-.534a.53.53 0 01.527.533.53.53 0 01-.527.533.53.53 0 01-.528-.533.53.53 0 01.528-.533z" fill="#fff"/><path d="M42.11 38.68c0 .883.708 1.6 1.583 1.6.874 0 1.583-.717 1.583-1.6 0-.885-.71-1.6-1.584-1.6a1.59 1.59 0 00-1.583 1.6zm1.583-.534a.53.53 0 01.527.533.53.53 0 01-.527.533.53.53 0 01-.528-.533.53.53 0 01.528-.533z" stroke="#fff"/></g><defs><clipPath id="clip0"><path fill="#fff" transform="translate(18.86 16.086)" d="M0 0h32.727v33.281H0z"/></clipPath></defs></svg>