<svg width="71" height="71" fill="none" xmlns="http://www.w3.org/2000/svg"><circle cx="35.5" cy="35.5" r="35.5" fill="#407BFF"/><mask id="a" fill="#fff"><path d="M51.385 23.167h-3.077V18.85A1.852 1.852 0 0046.462 17h-16a.614.614 0 00-.436.18l-9.846 9.867a.617.617 0 00-.18.436v22.2a1.852 1.852 0 001.846 1.85h14.39l1.056 2.125a.616.616 0 001.102 0l1.063-2.125h3.928v1.85a.617.617 0 00.615.616h7.385a.615.615 0 00.615-.616v-29.6a.617.617 0 00-.615-.616zm-21.539-4.062v7.145a.617.617 0 01-.615.616H22.1l7.745-7.76zm8 32.899l-.725-1.453a1.29 1.29 0 011.45 0l-.725 1.453zm1.279-2.563a2.369 2.369 0 00-2.558 0l-.43-.87 1.71-1.716 1.712 1.718-.434.868zM36 46.961V33.033h1.23v12.695L36 46.96zm3.692 0l-1.23-1.233V33.033h1.23v13.928zm0-15.161H36v-1.233h3.692V31.8zm0-2.467H36v-.616a1.852 1.852 0 011.846-1.85 1.844 1.844 0 011.846 1.85v.616zm3.693-5.55V50.3h-3.312l.788-1.575a.618.618 0 00.062-.276V28.718c0-.818-.324-1.602-.901-2.18a3.074 3.074 0 00-4.352 0 3.086 3.086 0 00-.9 2.18V48.45c0 .095.021.19.064.275l.786 1.575H21.846a.615.615 0 01-.615-.617V28.1h8a1.844 1.844 0 001.846-1.85v-8.017H46.46a.615.615 0 01.616.617v4.317H44a.614.614 0 00-.615.616zm5.538 8.017h1.846v2.466h-1.846a.615.615 0 00-.435 1.053c.115.116.272.18.435.18h1.846v2.467h-1.846a.615.615 0 00-.615.617.617.617 0 00.615.617h1.846v2.466h-1.846a.615.615 0 00-.435 1.053c.115.116.272.18.435.18h1.846v2.467h-1.846a.615.615 0 00-.435 1.053c.115.116.272.18.435.18h1.846v2.467h-1.846a.615.615 0 00-.615.617.617.617 0 00.615.617h1.846v2.466h-6.154V24.4h6.154v2.466h-1.846a.615.615 0 00-.435 1.053c.115.116.272.18.435.18h1.846v2.468h-1.846a.615.615 0 00-.615.616.617.617 0 00.615.617z"/></mask><path d="M51.385 23.167h-3.077V18.85A1.852 1.852 0 0046.462 17h-16a.614.614 0 00-.436.18l-9.846 9.867a.617.617 0 00-.18.436v22.2a1.852 1.852 0 001.846 1.85h14.39l1.056 2.125a.616.616 0 001.102 0l1.063-2.125h3.928v1.85a.617.617 0 00.615.616h7.385a.615.615 0 00.615-.616v-29.6a.617.617 0 00-.615-.616zm-21.539-4.062v7.145a.617.617 0 01-.615.616H22.1l7.745-7.76zm8 32.899l-.725-1.453a1.29 1.29 0 011.45 0l-.725 1.453zm1.279-2.563a2.369 2.369 0 00-2.558 0l-.43-.87 1.71-1.716 1.712 1.718-.434.868zM36 46.961V33.033h1.23v12.695L36 46.96zm3.692 0l-1.23-1.233V33.033h1.23v13.928zm0-15.161H36v-1.233h3.692V31.8zm0-2.467H36v-.616a1.852 1.852 0 011.846-1.85 1.844 1.844 0 011.846 1.85v.616zm3.693-5.55V50.3h-3.312l.788-1.575a.618.618 0 00.062-.276V28.718c0-.818-.324-1.602-.901-2.18a3.074 3.074 0 00-4.352 0 3.086 3.086 0 00-.9 2.18V48.45c0 .095.021.19.064.275l.786 1.575H21.846a.615.615 0 01-.615-.617V28.1h8a1.844 1.844 0 001.846-1.85v-8.017H46.46a.615.615 0 01.616.617v4.317H44a.614.614 0 00-.615.616zm5.538 8.017h1.846v2.466h-1.846a.615.615 0 00-.435 1.053c.115.116.272.18.435.18h1.846v2.467h-1.846a.615.615 0 00-.615.617.617.617 0 00.615.617h1.846v2.466h-1.846a.615.615 0 00-.435 1.053c.115.116.272.18.435.18h1.846v2.467h-1.846a.615.615 0 00-.435 1.053c.115.116.272.18.435.18h1.846v2.467h-1.846a.615.615 0 00-.615.617.617.617 0 00.615.617h1.846v2.466h-6.154V24.4h6.154v2.466h-1.846a.615.615 0 00-.435 1.053c.115.116.272.18.435.18h1.846v2.468h-1.846a.615.615 0 00-.615.616.617.617 0 00.615.617z" fill="#fff" stroke="#407BFF" stroke-width=".2" mask="url(#a)"/></svg>