<svg width="71" height="71" fill="none" xmlns="http://www.w3.org/2000/svg"><circle cx="35.5" cy="35.5" r="35.5" fill="#407BFF"/><path d="M51.248 19.881a.574.574 0 00-.514-.078l-4.348 1.434a6.226 6.226 0 00-2.313-2.709 6.321 6.321 0 00-6.87 0 6.226 6.226 0 00-2.314 2.71l-4.346-1.434v.003a.574.574 0 00-.36-.003l-10.276 3.39a.57.57 0 00-.391.536v27.12c0 .15.06.293.167.4a.574.574 0 00.584.136l10.095-3.33 10.095 3.33c.117.04.244.04.361 0l10.276-3.39a.57.57 0 00.39-.536V20.34a.56.56 0 00-.236-.459zm-10.61-1.236a5.171 5.171 0 013.631 1.49 5.065 5.065 0 011.507 3.595c0 2.188-3.384 6.652-5.138 8.734-1.755-2.081-5.138-6.545-5.138-8.734a5.065 5.065 0 011.507-3.594 5.171 5.171 0 013.63-1.491zm-19.98 31.421v-6.719l.692-.226a.573.573 0 00.39-.496.559.559 0 00-.314-.546.576.576 0 00-.436-.031l-.333.108V24.137l9.134-3.014v18.02l-.137.044a.557.557 0 00-.217.945c.097.09.222.144.354.152v6.768l-9.134 3.014zm20.55 0v-6.719l.693-.226a.573.573 0 00.39-.496.56.56 0 00-.314-.546.577.577 0 00-.436-.031l-.332.108v-6.561a.56.56 0 00-.168-.4.574.574 0 00-.807 0 .562.562 0 00-.167.4v6.607a.563.563 0 00-.137 1.1l.137.045v6.718l-9.134-3.013v-6.719l.332.11a.578.578 0 00.436-.031.567.567 0 00.255-.76.57.57 0 00-.33-.282l-.693-.228V21.124l3.596 1.186c-.112.465-.17.942-.17 1.42 0 3.294 5.61 9.705 5.848 9.976a.57.57 0 00.43.194.575.575 0 00.431-.194c.239-.271 5.85-6.682 5.85-9.976a6.122 6.122 0 00-.172-1.42l3.597-1.186v18.018l-.137.045a.567.567 0 00-.392.605.57.57 0 00.528.492v6.768l-9.133 3.014z" fill="#fff"/><path d="M42.922 23.164a2.24 2.24 0 00-.385-1.255 2.279 2.279 0 00-1.025-.833 2.306 2.306 0 00-2.489.49 2.239 2.239 0 00-.495 2.463c.173.413.466.766.841 1.014a2.3 2.3 0 002.884-.28c.428-.425.669-1 .669-1.599zm-3.426 0a1.139 1.139 0 01.705-1.044 1.153 1.153 0 011.244.245 1.126 1.126 0 01.248 1.232 1.132 1.132 0 01-.42.507 1.15 1.15 0 01-1.442-.14 1.124 1.124 0 01-.335-.8z" fill="#fff"/><path d="M42.922 23.164a2.24 2.24 0 00-.385-1.255 2.279 2.279 0 00-1.025-.833 2.306 2.306 0 00-2.489.49 2.239 2.239 0 00-.495 2.463c.173.413.466.766.841 1.014a2.3 2.3 0 002.884-.28c.428-.425.669-1 .669-1.599zm-3.426 0a1.139 1.139 0 01.705-1.044 1.153 1.153 0 011.244.245 1.126 1.126 0 01.248 1.232 1.132 1.132 0 01-.42.507 1.15 1.15 0 01-1.442-.14 1.124 1.124 0 01-.335-.8z" stroke="#fff"/><path d="M48.04 39.902l-1.085.357a.574.574 0 00-.33.284.562.562 0 00.255.759.577.577 0 00.436.03l1.085-.357a.56.56 0 00.076-1.043.577.577 0 00-.437-.03z" fill="#fff"/><path d="M48.04 39.902l-1.085.357a.574.574 0 00-.33.284.562.562 0 00.255.759.577.577 0 00.436.03l1.085-.357a.56.56 0 00.076-1.043.577.577 0 00-.437-.03v0z" stroke="#fff"/><path d="M44.79 40.974l-1.085.357a.57.57 0 00-.33.284.56.56 0 00.255.759.577.577 0 00.436.03l1.085-.356a.56.56 0 00.076-1.042.577.577 0 00-.437-.032z" fill="#fff"/><path d="M44.79 40.974l-1.085.357a.57.57 0 00-.33.284.56.56 0 00.255.759.577.577 0 00.436.03l1.085-.356a.56.56 0 00.076-1.042.577.577 0 00-.437-.032v0z" stroke="#fff"/><path d="M38.126 41.515l-1.084-.358a.577.577 0 00-.723.359.56.56 0 00.362.715l1.084.357a.577.577 0 00.723-.358.56.56 0 00-.362-.716v.001z" fill="#fff"/><path d="M38.126 41.515l-1.084-.358a.577.577 0 00-.723.359.56.56 0 00.362.715l1.084.357a.577.577 0 00.723-.358.56.56 0 00-.362-.716v.001z" stroke="#fff"/><path d="M34.875 40.443l-1.085-.357a.576.576 0 00-.723.358.561.561 0 00.362.715l1.085.358a.578.578 0 00.612-.167.564.564 0 00-.251-.907z" fill="#fff"/><path d="M34.875 40.443l-1.085-.357a.576.576 0 00-.723.358.561.561 0 00.362.715l1.085.358a.578.578 0 00.612-.167.564.564 0 00-.251-.907v0z" stroke="#fff"/><path d="M27.488 39.902l-1.084.357a.575.575 0 00-.33.284.56.56 0 00.254.759.577.577 0 00.437.03l1.084-.357a.57.57 0 00.33-.284.56.56 0 00-.254-.759.577.577 0 00-.437-.03z" fill="#fff"/><path d="M27.488 39.902l-1.084.357a.575.575 0 00-.33.284.56.56 0 00.254.759.577.577 0 00.437.03l1.084-.357a.57.57 0 00.33-.284.56.56 0 00-.254-.759.577.577 0 00-.437-.03v0z" stroke="#fff"/><path d="M24.238 40.974l-1.084.357a.575.575 0 00-.33.284.56.56 0 00.254.759.575.575 0 00.437.03l1.084-.356a.56.56 0 00.076-1.042.577.577 0 00-.436-.032z" fill="#fff"/><path d="M24.238 40.974l-1.084.357a.575.575 0 00-.33.284.56.56 0 00.254.759.575.575 0 00.437.03l1.084-.356a.56.56 0 00.076-1.042.577.577 0 00-.436-.032v0z" stroke="#fff"/></svg>