<svg width="71" height="71" fill="none" xmlns="http://www.w3.org/2000/svg"><circle cx="35.5" cy="35.5" r="35.5" fill="#407BFF"/><path d="M39.967 38.833h-.624a.558.558 0 01-.524-.366 9.225 9.225 0 00-.224-.534.559.559 0 01.114-.633l.444-.444a1.704 1.704 0 00-.003-2.402l-1.601-1.602a1.704 1.704 0 00-2.403 0l-.444.444a.561.561 0 01-.633.113c-.175-.08-.353-.154-.535-.226a.557.557 0 01-.367-.526v-.624a1.7 1.7 0 00-1.7-1.7H29.2a1.7 1.7 0 00-1.7 1.7v.624a.558.558 0 01-.366.525 8.96 8.96 0 00-.534.223.56.56 0 01-.633-.114l-.445-.444a1.704 1.704 0 00-2.402 0l-1.601 1.607a1.704 1.704 0 000 2.402l.444.444a.559.559 0 01.113.633c-.08.176-.154.353-.224.535a.557.557 0 01-.529.365H20.7a1.7 1.7 0 00-1.7 1.7V42.8a1.7 1.7 0 001.7 1.7h.623c.235 0 .444.146.525.366.07.181.143.359.223.535.1.213.054.466-.113.632l-.444.445a1.704 1.704 0 000 2.402l1.601 1.601c.665.66 1.738.66 2.403 0l.444-.444a.561.561 0 01.633-.113c.175.08.353.154.534.227.223.079.371.29.371.526v.623a1.7 1.7 0 001.7 1.7h2.267a1.7 1.7 0 001.7-1.7v-.623c0-.235.145-.444.366-.525.181-.07.358-.143.534-.223a.56.56 0 01.633.113l.444.444c.666.66 1.739.658 2.402-.003l1.602-1.601c.66-.665.66-1.738 0-2.403l-.444-.444a.559.559 0 01-.113-.632c.08-.176.154-.353.227-.535a.557.557 0 01.525-.368h.624a1.7 1.7 0 001.7-1.7v-2.267a1.7 1.7 0 00-1.7-1.7zm.566 3.967a.567.567 0 01-.566.567h-.624a1.706 1.706 0 00-1.586 1.096c-.06.158-.125.315-.195.468-.292.643-.156 1.4.34 1.902l.443.444a.567.567 0 010 .801l-1.602 1.602a.567.567 0 01-.8 0l-.445-.444a1.703 1.703 0 00-1.902-.34 7.93 7.93 0 01-.467.195 1.705 1.705 0 00-1.096 1.586v.623a.567.567 0 01-.566.567H29.2a.567.567 0 01-.567-.567v-.623a1.706 1.706 0 00-1.096-1.587 7.83 7.83 0 01-.468-.195 1.706 1.706 0 00-1.902.34l-.444.443a.567.567 0 01-.801 0l-1.602-1.6a.567.567 0 010-.8l.444-.445a1.705 1.705 0 00.34-1.902 8.182 8.182 0 01-.195-.467 1.705 1.705 0 00-1.586-1.097H20.7a.567.567 0 01-.567-.567v-2.267c0-.313.254-.566.567-.566h.623a1.706 1.706 0 001.587-1.096 7.86 7.86 0 01.195-.469c.291-.643.156-1.4-.34-1.902l-.445-.443a.567.567 0 010-.802l1.6-1.602a.567.567 0 01.802 0l.444.444a1.703 1.703 0 001.902.34c.154-.07.31-.135.468-.195a1.705 1.705 0 001.097-1.585v-.624c0-.313.254-.566.567-.566h2.267c.313 0 .566.253.566.566v.624a1.706 1.706 0 001.096 1.586c.159.06.315.125.469.195.643.292 1.4.157 1.902-.34l.443-.443a.57.57 0 01.802 0l1.602 1.602a.567.567 0 010 .8l-.444.445a1.705 1.705 0 00-.34 1.902c.07.153.135.31.195.467a1.705 1.705 0 001.585 1.096h.624c.313 0 .566.253.566.566V42.8z" fill="#fff"/><path d="M35.422 41.44a5.15 5.15 0 00-.101-.837c-.02-.092-.046-.183-.071-.275a5.034 5.034 0 00-.194-.58 5.057 5.057 0 00-.25-.53c-.007-.013-.011-.027-.019-.04a5.022 5.022 0 00-.51-.743c-.016-.02-.035-.04-.052-.06a4.755 4.755 0 00-.243-.267 8.79 8.79 0 00-.307-.288 5.401 5.401 0 00-.21-.173l-.093-.07a5.064 5.064 0 00-3.039-1.01c-.056 0-.113.008-.17.01a4.918 4.918 0 00-.556.046 5.163 5.163 0 00-.55.103 5.103 5.103 0 00.005 9.882c.009 0 .018.003.028.005.196.049.394.087.594.113.132.017.264.02.397.026.088.005.17.018.262.018.162 0 .33-.01.5-.028.018 0 .037-.005.057-.007.138-.016.277-.036.42-.064.056-.011.109-.025.163-.038.1-.023.199-.047.301-.077.08-.024.156-.052.234-.079.078-.027.158-.057.239-.087.08-.03.148-.066.22-.1.096-.044.19-.087.284-.138h.003a6.707 6.707 0 001.453-1.049c.117-.11.22-.234.303-.371a6.049 6.049 0 00.892-2.66 5.55 5.55 0 00.016-.306c0-.033.005-.063.005-.096 0-.08-.008-.153-.011-.23zm-1.13.371c0 .047-.003.094-.006.14a3.975 3.975 0 01-2.042 3.189c-.07.037-.14.072-.209.103l-.047.023c-.33.15-.677.255-1.034.313l-.076.012a4.063 4.063 0 01-.486.039h-.118a3.956 3.956 0 01-.401-.025l-.068-.008c-.156-.02-.31-.05-.463-.087a3.967 3.967 0 01-.004-7.685 3.905 3.905 0 011.48-.092c.043.005.085.013.128.019.122.02.244.044.363.074l.117.03a4 4 0 01.864.364l.13.079c.089.056.175.113.261.178a4.082 4.082 0 01.456.385c.04.04.077.086.116.128a3.938 3.938 0 01.31.382c.058.082.114.167.165.253l.086.141c.073.135.138.273.195.415.022.057.042.114.062.17.037.105.069.21.096.316.015.057.03.108.042.163.033.153.057.308.072.464.004.041.004.083.007.124.008.13.01.262.005.393zM51.3 30.9h-1.782a.553.553 0 01-.528-.372 11.8 11.8 0 00-.637-1.536.555.555 0 01.11-.64l1.263-1.265a1.7 1.7 0 000-2.403l-2.41-2.406a1.7 1.7 0 00-2.403 0l-1.263 1.263a.555.555 0 01-.64.11c-.496-.25-1.01-.464-1.536-.64a.553.553 0 01-.374-.529V20.7a1.7 1.7 0 00-1.7-1.7H36a1.7 1.7 0 00-1.7 1.7v1.782a.553.553 0 01-.372.528 11.8 11.8 0 00-1.536.64.553.553 0 01-.64-.11l-1.265-1.263a1.704 1.704 0 00-2.403 0l-2.405 2.405a1.7 1.7 0 000 2.404l1.858 1.861a.567.567 0 00.802-.8l-1.859-1.86a.567.567 0 010-.802l2.405-2.405a.567.567 0 01.801 0l1.266 1.264a1.685 1.685 0 001.947.32c.45-.226.913-.419 1.39-.578a1.686 1.686 0 001.144-1.604V20.7c0-.313.254-.567.567-.567h3.4c.313 0 .567.254.567.567v1.782a1.685 1.685 0 001.145 1.603c.476.16.94.353 1.39.578.65.323 1.433.194 1.946-.32l1.266-1.263a.567.567 0 01.801 0l2.405 2.405c.22.222.22.58 0 .801l-1.264 1.266a1.687 1.687 0 00-.32 1.947c.226.449.418.913.578 1.39a1.685 1.685 0 001.604 1.144H51.3c.313 0 .567.254.567.567V36a.567.567 0 01-.567.567h-1.782a1.685 1.685 0 00-1.603 1.145c-.16.476-.353.94-.578 1.39a1.687 1.687 0 00.32 1.946l1.264 1.266a.567.567 0 010 .801l-2.407 2.405a.567.567 0 01-.8 0l-1.862-1.858a.567.567 0 10-.8.802l1.861 1.858a1.7 1.7 0 002.403 0l2.405-2.404a1.7 1.7 0 000-2.404L48.46 40.25a.555.555 0 01-.11-.64c.25-.496.464-1.01.64-1.536a.553.553 0 01.529-.374H51.3A1.7 1.7 0 0053 36v-3.4a1.7 1.7 0 00-1.7-1.7z" fill="#fff"/><path d="M42.909 29.091a7.374 7.374 0 00-10.418 0 .567.567 0 00.801.801 6.233 6.233 0 118.816 8.816.567.567 0 10.8.8 7.374 7.374 0 000-10.417z" fill="#fff"/></svg>