<svg width="1205" height="940" fill="none" xmlns="http://www.w3.org/2000/svg"><g opacity=".3"><path d="M1036.57 432.111h2.5V565.65h-2.5V432.111zm42.44 2.056h2.51v133.538h-2.51V434.167zm42.45-2.407h2.5v133.538h-2.5V431.76zm42.44 2.407h2.51v133.538h-2.51V434.167z" fill="#E0E0E0"/><path d="M863.531 537.898h304.429v401.719H863.531V537.898z" fill="#EBEBEB"/><path d="M863.531 537.898h142.739v401.719H863.531V537.898z" fill="#E0E0E0"/><path d="M1076.78 592.297h27.36v66.531h-27.36v-66.531zm0 260.384h27.36v66.531h-27.36v-66.531zm-70.51-167.757c0 .753 36.21 1.354 80.84 1.354 44.62 0 80.85-.601 80.85-1.354 0-.752-36.18-1.353-80.85-1.353-44.68 0-80.84.626-80.84 1.353zm70.51 38.555h27.36v66.532h-27.36v-66.532zm-70.51 92.653c0 .727 36.21 1.354 80.84 1.354 44.62 0 80.85-.627 80.85-1.354 0-.727-36.18-1.354-80.85-1.354-44.68 0-80.84.602-80.84 1.354zm-57.674-223.835h27.361v66.531h-27.361v-66.531zm-59.383 0h27.361v66.531h-27.361v-66.531zm59.383 126.244h27.361v66.531h-27.361v-66.531zm-59.383 0h27.361v66.531h-27.361v-66.531zm59.383 126.244h27.361v66.531h-27.361v-66.531zm-59.383 0h27.361v66.531h-27.361v-66.531z" fill="#F5F5F5"/><path d="M1006.27 544.792v-36.223h-30.313V488.69h-41.042v-17.749h-71.384v70.994l142.739 2.857z" fill="#E0E0E0"/><path d="M1005.12 412.006h2.51v133.539h-2.51V412.006zm-30.416 0h2.506v133.539h-2.506V412.006zm-41.042-18.826h2.505v133.539h-2.505V393.18zm-69.279 0h2.505v133.539h-2.505V393.18zm34.651 0h2.506v133.539h-2.506V393.18z" fill="#E0E0E0"/><path d="M1006.3 502.277h157.73v2.507H1006.3v-2.507zm-71.711-32.589H1163.7v2.506H934.589v-2.506zM970.82 43.904h-.15a.827.827 0 01-.752-.828V18.735a13.645 13.645 0 017.184-11.996 13.628 13.628 0 0113.963.64l10.575-2.256a7.429 7.429 0 011.9-3.01 7.5 7.5 0 016.62-1.982c1.18.224 2.3.73 3.24 1.472.95.743 1.7 1.702 2.2 2.797.5 1.095.73 2.294.67 3.496a7.59 7.59 0 01-1.01 3.412 7.616 7.616 0 01-2.47 2.564 7.516 7.516 0 01-4.71 1.103L997.129 27.91v15.191a.831.831 0 01-.501.752.779.779 0 01-.326 0h-.276l5.764 89.82h-3.233l-1.278-19.754-12.528 16.395 2.631 3.359h-2.506l-1.303-1.68-1.277 1.68h-2.506l2.506-3.334-12.729-16.42-1.303 19.829h-3.257l5.813-89.844zm12.102 0l-8.394 17.547h18.366l-8.644-17.673-1.328.126zm-2.255 0h-6.59l-1.052 16.093 7.642-16.093zm9.271 0h-3.433l7.291 14.865-.952-14.865h-2.906zm4.51 25.068l-9.847 15.943 12.052 19.002-2.205-34.945zm-1.278-1.805h-19.819l10.022 15.843 9.797-15.843zm-20.771 2.281l-2.306 35.096 12.002-19.629-9.696-15.467zm11.049 17.372l-11.801 19.153H995.6L983.448 86.82zm13.18 24.743h-26.434l13.43 17.197 13.004-17.197z" fill="#E0E0E0"/><path d="M958.042 191.857h3.232v18.826l13.781-15.216-14.182-15.041h-1.679v-4.613h34.102v4.538h-2.28l-13.731 15.041 14.783 15.843v-19.478h5.963v465.417h-5.913v-3.96h-30.794v3.985h-5.963V191.857h2.681zm32.974 388.784l-13.731 15.041 14.783 15.818v-30.834l-1.052-.025zm-2.23 0h-25.658l13.029 13.938 12.629-13.938zm1.754-4.537l-14.358-15.367-13.906 15.367h28.264zm1.528-.753v-30.984h-1.052l-13.731 15.041 14.783 15.943zm-3.282-30.984h-25.658l13.029 13.938 12.629-13.938zm1.754-4.537l-14.358-15.367-13.906 15.367h28.264zm1.578-.752v-30.985h-1.052l-13.731 15.041 14.783 15.944zm-3.282-30.985h-25.658l13.029 13.938 12.629-13.938zm1.754-4.537l-14.357-15.367-13.907 15.367h28.264zm1.528-.777V471.82h-1.052l-13.731 15.041 14.783 15.918zm-3.282-30.959h-25.658l13.029 13.963 12.629-13.963zm1.754-4.538l-14.357-15.367-13.907 15.342 28.264.025zm1.528-.777v-30.959h-1.052l-13.731 15.041 14.783 15.918zm-3.282-30.959h-25.658l13.029 13.963 12.629-13.963zm1.754-4.538l-14.357-15.366-13.907 15.341 28.264.025zm1.528-.777v-30.959h-1.052l-13.731 15.041 14.783 15.918zm-3.282-30.959h-25.658l13.029 13.963 12.629-13.963zm1.754-4.537l-14.357-15.367-13.907 15.342 28.264.025zm1.528-.777v-30.96h-1.052l-13.731 15.041 14.783 15.919zm-3.282-30.96h-25.658l13.029 13.938 12.629-13.938zm1.754-4.537l-14.357-15.367-13.907 15.342 28.264.025zm1.528-.777v-30.985h-1.052l-13.731 15.167 14.783 15.818zm-3.282-30.985h-25.658l13.029 13.938 12.629-13.938zm1.754-4.537l-14.357-15.367-13.907 15.367h28.264zm1.528-.752v-30.984h-1.052l-13.731 15.041 14.783 15.943zm-3.282-30.984h-25.658l13.029 13.938 12.629-13.938zm1.754-4.538l-14.357-15.367-13.907 15.367h28.264zm1.528-.752v-30.984h-1.052l-13.731 15.041 14.783 15.943zm-3.282-30.984h-25.658l13.029 13.938 12.629-13.938zm1.754 358.25l-14.357-15.366-13.907 15.341 28.264.025zm-15.485-16.595l-13.781-14.74v29.957l13.781-15.217zm0-36.274l-13.781-14.765v30.082l13.781-15.317zm0-36.273l-13.781-14.766v30.082l13.781-15.316zm0-36.274l-13.781-14.765v30.082l13.781-15.317zm0-36.274l-13.781-14.765v30.082l13.781-15.317zm0-36.274l-13.781-14.765v30.082l13.781-15.317zm0-36.299l-13.781-14.74v30.082l13.781-15.342zm0-36.273L961.324 327.1v30.082l13.781-15.316zm0-36.274l-13.781-14.765v30.082l13.781-15.317zm0-36.274l-13.781-14.765v30.082l13.781-15.317zm-13.33-19.729h29.341l-15.034-15.993-14.307 15.993zm13.33-17.171l-13.781-14.766v30.082l13.781-15.316zm17.013 15.868v-31.035h-1.052l-13.731 15.041 14.783 15.994zm0 368.704h-1.052l-13.731 15.041 14.783 15.818V616.99zm-3.282 0h-25.658l13.029 13.963 12.629-13.963zm-27.562.401v30.082l13.781-15.242-13.781-14.84zm14.883-386.051l12.528-13.938h-25.657l13.129 13.938zm0 402.12l-13.906 15.341h28.289l-14.383-15.341zm12.528-452.959h-25.657l13.029 13.938 12.628-13.938zm-27.06 32.363h29.491l-15.034-15.993-14.457 15.993z" fill="#E0E0E0"/><path d="M507.134 170.573l44.775-33.215a12.526 12.526 0 017.517-2.507h586.734v5.966h-2.7v30.809h2.73v5.966H509.264a3.581 3.581 0 01-3.583-3.559v-.602a3.59 3.59 0 011.453-2.858zm72.662-15.968l14.758-13.788h-30.067l15.309 13.788zm-16.562-12.76v28.252l15.46-14.364-15.46-13.888zm31.721.852l-13.931 13.036 13.931 12.534v-25.57zm21.097 11.908l14.758-13.788h-30.067l15.309 13.788zm-16.562-12.76v28.252l15.36-14.364-15.36-13.888zm31.822.852l-13.957 13.036 13.931 12.534.026-25.57zm21.072 11.908l14.758-13.788h-30.068l15.31 13.788zm-16.537-12.76v28.252l15.359-14.364-15.359-13.888zm31.721.852l-13.957 13.036 13.932 12.534.025-25.57zm21.072 11.908l14.758-13.788h-30.067l15.309 13.788zm-16.537-12.76v28.252l15.359-14.364-15.359-13.888zm31.721.852l-13.956 13.036 13.931 12.534.025-25.57zm21.097 11.908l14.733-13.788h-30.067l15.334 13.788zm-16.562-12.76v28.252l15.359-14.364-15.359-13.888zm31.721.852l-13.931 13.036 13.906 12.534.025-25.57zm21.097 11.908l14.758-13.788h-30.067l15.309 13.788zm-16.562-12.76v28.252l15.359-14.364-15.359-13.888zm31.721.852l-13.931 13.036 13.931 12.534v-25.57zm21.097 11.908l14.758-13.788h-30.067l15.309 13.788zm-16.562-12.76v28.252l15.359-14.364-15.359-13.888zm31.721.852l-13.931 13.036 13.931 12.534v-25.57zm21.097 11.908l14.758-13.788H818.38l15.309 13.788zm-16.562-12.76v28.252l15.359-14.364-15.359-13.888zm31.746.852l-13.956 13.036 13.931 12.534.025-25.57zm4.51 27.4l15.36-14.364-15.335-13.888-.025 28.252zm-4.535.476l-15.034-13.712-15.835 14.765h30.844l.025-1.053zm-36.256 0l-15.034-13.712-15.91 14.765h30.919l.025-1.053zm-36.256 0l-15.159-13.712-15.81 14.765h30.944l.025-1.053zm-36.281 0l-15.034-13.712-16.036 14.765h31.045l.025-1.053zm-36.256 0l-15.034-13.712-15.81 14.765h30.819l.025-1.053zm-36.256 0l-15.034-13.712-15.81 14.765h30.819l.025-1.053zm-36.231 0l-15.034-13.712-15.81 14.765h30.844v-1.053zm-36.256 0l-15.034-13.712-15.836 14.765h30.819l.051-1.053zm259.655-29.756l15.209 13.788 14.758-13.788h-30.067.1zm284.209 1.88l-13.95 13.036 13.93 12.534.02-25.57zm-.42-1.88h-30.07l15.21 13.788 14.86-13.788zm-232.324 13.788l14.758-13.788h-30.067l15.309 13.788zm-16.537-12.76v28.252l15.36-14.364-15.36-13.888zm31.721.852l-13.956 13.036 13.931 12.534.025-25.57zm21.072 11.908l14.758-13.788h-30.067l15.309 13.788zm-16.537-12.76v28.252l15.36-14.364-15.36-13.888zm31.721.852l-13.956 13.036 13.931 12.534.025-25.57zm21.097 11.908l14.733-13.788h-29.942l15.209 13.788zm-16.662-12.76v28.252l15.36-14.364-15.36-13.888zm31.721.852l-13.931 13.036 13.931 12.534v-25.57zm21.098 11.908l14.83-13.788h-30.065l15.235 13.788zm-16.563-12.76v28.252l15.333-14.364-15.333-13.888zm31.723.852l-13.93 13.036 13.93 12.534v-25.57zm21.1 11.908l14.75-13.788h-30.06l15.31 13.788zm-16.42-12.76v28.252l15.36-14.364-15.36-13.888zm31.72.852l-13.93 13.036 13.93 12.534v-25.57zm21.1 11.908l14.76-13.788h-30.07l15.31 13.788zm-16.56-12.76v28.252l15.36-14.364-15.36-13.888zm31.75.852l-13.96 13.036 13.93 12.534.03-25.57zm4.53-.852v28.252l15.16-14.364-15.16-13.888zm-4.61 28.728l-15.03-13.712-15.81 14.765h30.84v-1.053zm-36.26 0l-15.03-13.712-15.83 14.765h30.86v-1.053zm-36.25 0l-15.16-13.712-15.811 14.765h30.971v-1.053zm-36.283 0l-15.033-13.712-15.811 14.765h30.844v-1.053zm-36.256 0l-15.033-13.712-15.811 14.765h30.844v-1.053zm-36.256 0l-15.033-13.712-15.811 14.765h30.844v-1.053zm-36.231-27.876l-13.956 13.036 13.931 12.534.025-25.57zm253.796 27.876l-15.04-13.712-15.81 14.765h30.85v-1.053zm-253.821 1.053v-1.053l-15.034-13.712-15.81 14.765h30.844zm-326.33 0v-30.733a13.39 13.39 0 00-6.965 2.356l-40.741 28.377h47.706z" fill="#E0E0E0"/><path d="M1015.4 134.325c-.36 19.854.3 79.792.3 79.792h-71.965l1.93-11.832c.224-1.21.224-2.45 0-3.66l-5.262-26.096 12.904-40.109a6.165 6.165 0 015.788-4.462h50.115c.83-.004 1.65.159 2.41.48a6.12 6.12 0 012.03 1.387 6.143 6.143 0 011.33 2.072c.3.774.44 1.599.42 2.428z" fill="#EBEBEB"/><path d="M982.372 133.748v43.844h-34.427l-3.558-4.738 13.355-39.106h24.63z" fill="#F5F5F5"/><path d="M559.451 134.851s.551 0 1.629-.376l4.71-1.304 18.116-5.013 66.498-19.002L869.72 45.858l136.51-39.532-.56-.126a14952.31 14952.31 0 0095.62 88.993c11.65 10.779 20.89 19.227 27.26 25.068 3.16 2.858 5.64 5.014 7.32 6.493 1.67 1.479 2.5 2.08 2.5 2.08l-.63-.576c-.42-.376-1.07-.878-1.87-1.655l-7.2-6.618-27.03-25.193-95.21-89.344-.26-.25h-.3L869.344 44.605l-219.19 63.548-66.449 19.428-18.04 5.34-4.686 1.403c-1.002.326-1.528.527-1.528.527z" fill="#E0E0E0"/><path d="M1168.69 126.327c1.06.001 2.11.243 3.07.707.96.465 1.8 1.14 2.47 1.976 3.33 4.136 8.36 11.732 8.84 12.534.48.802.23 26.271 0 38.931a7.044 7.044 0 01-2.1 4.95 7.042 7.042 0 01-4.97 2.044h-63.61a7.08 7.08 0 01-5-2.087 7.072 7.072 0 01-2.07-5.007v-47.003c0-1.878.74-3.678 2.07-5.008a7.08 7.08 0 015-2.087l56.3.05zM973.777 20.165a9.498 9.498 0 0011.358 9.316 9.494 9.494 0 007.455-7.478 9.498 9.498 0 00-4.059-9.75 9.494 9.494 0 00-5.283-1.59 9.466 9.466 0 00-8.757 5.868 9.476 9.476 0 00-.714 3.634zM1003.19 7.63a5.28 5.28 0 003.27 4.887c.96.4 2.03.505 3.05.3a5.28 5.28 0 002.71-1.447 5.245 5.245 0 001.44-2.708c.21-1.026.1-2.09-.3-3.056a5.269 5.269 0 00-4.88-3.266 5.29 5.29 0 00-5.29 5.29z" fill="#EBEBEB"/><path d="M6.113 305.992H214.63v633.325H6.113V305.992z" fill="#F5F5F5"/><path d="M6.114 305.992h104.258v631.495H6.114V305.992z" fill="#EBEBEB"/><path d="M117.162 241.09h73.64v64.902h-73.64V241.09z" fill="#F5F5F5"/><path d="M117.187 241.09h17.539v64.902h-17.539V241.09z" fill="#EBEBEB"/><path d="M231.994 305.992v-3.785H0v3.785" fill="#E0E0E0"/><path d="M155.823 334.32h17.639v37.226h-17.639V334.32z" fill="#FAFAFA"/><path d="M110.371 386.16c0 .401 23.327.702 52.117.702 28.789 0 52.141-.301 52.141-.702 0-.401-23.352-.702-52.141-.702-28.79 0-52.117.301-52.117.702zm-59.709-51.84h17.64v37.226h-17.64V334.32zM5.186 386.16c0 .401 23.352.702 52.142.702 28.79 0 52.116-.301 52.116-.702 0-.401-23.327-.702-52.116-.702-28.79 0-52.142.301-52.142.702zm45.476 22.086h17.64v37.226h-17.64v-37.226zM5.186 460.087c0 .401 23.352.727 52.142.727 28.79 0 52.116-.326 52.116-.727 0-.401-23.327-.702-52.116-.702-28.79 0-52.142.326-52.142.702zm45.476 24.316h17.64v37.226h-17.64v-37.226zM5.186 536.245c0 .401 23.352.727 52.142.727 28.79 0 52.116-.326 52.116-.727 0-.401-23.327-.702-52.116-.702-28.79 0-52.142.326-52.142.702zm45.476 24.315h17.64v37.226h-17.64V560.56zM5.186 612.402c0 .401 23.352.727 52.142.727 28.79 0 52.116-.326 52.116-.727 0-.401-23.327-.702-52.116-.702-28.79 0-52.142.326-52.142.702zm45.476 22.135h17.64v37.226h-17.64v-37.226zM5.186 686.379c0 .401 23.352.727 52.142.727 28.79 0 52.116-.326 52.116-.727 0-.401-23.327-.702-52.116-.702-28.79 0-52.142.326-52.142.702zm45.476 22.435h17.64v37.226h-17.64v-37.226zm0 75.255h17.64v37.226h-17.64v-37.226zM5.186 760.68c0 .376 23.352.702 52.142.702 28.79 0 52.116-.326 52.116-.702 0-.376-23.327-.727-52.116-.727-28.79 0-52.142.326-52.142.727z" fill="#E0E0E0"/><path d="M155.823 409.374h17.639V446.6h-17.639v-37.226z" fill="#FAFAFA"/><path d="M110.371 461.215c0 .401 23.327.727 52.117.727 28.789 0 52.141-.326 52.141-.727 0-.401-23.352-.702-52.141-.702-28.79 0-52.117.326-52.117.702z" fill="#E0E0E0"/><path d="M155.823 484.428h17.639v37.227h-17.639v-37.227z" fill="#FAFAFA"/><path d="M110.371 536.269c0 .401 23.327.727 52.117.727 28.789 0 52.141-.326 52.141-.727 0-.401-23.352-.702-52.141-.702-28.79 0-52.117.326-52.117.702z" fill="#E0E0E0"/><path d="M155.823 559.482h17.639v37.227h-17.639v-37.227z" fill="#FAFAFA"/><path d="M110.371 611.324c0 .402 23.327.727 52.117.727 28.789 0 52.141-.325 52.141-.727 0-.401-23.352-.701-52.141-.701-28.79 0-52.117.325-52.117.701z" fill="#E0E0E0"/><path d="M155.823 634.537h17.639v37.226h-17.639v-37.226z" fill="#FAFAFA"/><path d="M110.371 686.379c0 .401 23.327.727 52.117.727 28.789 0 52.141-.326 52.141-.727 0-.401-23.352-.702-52.141-.702-28.79 0-52.117.326-52.117.702z" fill="#E0E0E0"/><path d="M155.823 709.591h17.639v37.227h-17.639v-37.227z" fill="#FAFAFA"/><path d="M110.371 761.457c0 .376 23.327.702 52.117.702 28.789 0 52.141-.326 52.141-.702 0-.376-23.352-.727-52.141-.727-28.79 0-52.117.326-52.117.727z" fill="#E0E0E0"/><path d="M155.823 784.646h17.639v37.226h-17.639v-37.226z" fill="#FAFAFA"/><path d="M330.113 430.005h2.506v133.538h-2.506V430.005zm42.444 2.056h2.505v133.538h-2.505V432.061zm42.446-2.433h2.505v133.539h-2.505V429.628zm42.445 2.433h2.505v133.538h-2.505V432.061z" fill="#E0E0E0"/><path d="M157.075 535.793h304.431v401.719H157.075V535.793z" fill="#EBEBEB"/><path d="M157.075 535.793h142.744v401.719H157.075V535.793z" fill="#E0E0E0"/><path d="M370.302 590.166h27.362v66.531h-27.362v-66.531zm0 260.409h27.362v66.531h-27.362v-66.531zm-70.483-167.756c0 .752 36.181 1.353 80.831 1.353 44.65 0 80.856-.601 80.856-1.353 0-.753-36.206-1.354-80.856-1.354-44.65 0-80.831.501-80.831 1.354zm70.483 38.554h27.362v66.531h-27.362v-66.531zM299.819 814c0 .752 36.181 1.353 80.831 1.353 44.65 0 80.856-.601 80.856-1.353s-36.206-1.354-80.856-1.354c-44.65 0-80.831.627-80.831 1.354zm-57.678-223.834h27.361v66.531h-27.361v-66.531zm-59.382 0h27.361v66.531h-27.361v-66.531zm59.382 126.269h27.361v66.531h-27.361v-66.531zm-59.382 0h27.361v66.531h-27.361v-66.531zm59.382 126.244h27.361v66.531h-27.361v-66.531zm-59.382 0h27.361v66.531h-27.361v-66.531z" fill="#F5F5F5"/><path d="M299.819 542.661v-36.198h-30.318v-19.879H228.46v-17.749h-71.385v70.994l142.744 2.832z" fill="#E0E0E0"/><path d="M298.667 409.875h2.506v133.539h-2.506V409.875zm-30.418 0h2.505v133.539h-2.505V409.875zm-41.066-18.801h2.505v133.539h-2.505V391.074zm-69.255 0h2.506v133.539h-2.506V391.074zm34.627 0h2.506v133.539h-2.506V391.074z" fill="#E0E0E0"/><path d="M299.82 500.171h157.728v2.507H299.82v-2.507zm-71.711-32.589h229.113v2.507H228.109v-2.507z" fill="#E0E0E0"/></g></svg>