<svg width="71" height="71" fill="none" xmlns="http://www.w3.org/2000/svg"><circle cx="35.5" cy="35.5" r="35.5" fill="#407BFF"/><path d="M48.293 39.768c1.47.956 2.165 3.775 2.31 4.783l1.096 7.401 1.146-.134-1.096-7.41c-.023-.164-.603-4.067-2.772-5.467a12.288 12.288 0 00-2.322-1.076.593.593 0 00-.16-.079l-.478-.15a38.49 38.49 0 00-2.196-.684l-.446-.14a.611.611 0 00-.137-.028 63.126 63.126 0 00-2.837-.727v-1.132c1.725-1.103 2.75-2.885 2.749-4.782v-.871c.192.063.396.095.599.098.965 0 1.746-.7 1.746-1.562v-1.394a1.45 1.45 0 00-.437-1.024 1.48 1.48 0 00.273-.886v-.595a1.653 1.653 0 00-.429-1.202 1.246 1.246 0 00-.58-.301c-.137-1.412-.885-5.555-4.88-7.175h-.034a9.581 9.581 0 00-3.288-.63h-.332a10.173 10.173 0 00-3.18.448h-.028c-4.423 1.456-5.22 5.878-5.345 7.343-.222.05-.425.154-.58.3a1.642 1.642 0 00-.463 1.204v.612c-.01.312.085.62.27.884a1.468 1.468 0 00-.435 1.027v1.395c0 .864.782 1.562 1.746 1.562.205 0 .407-.034.598-.098v.874c.004 1.876 1.007 3.638 2.701 4.743v1.161a60.855 60.855 0 00-6.026 1.736h-.026c-.873.292-1.706.675-2.483 1.135-2.17 1.414-2.748 5.313-2.772 5.468l-1.096 7.414 1.146.133 1.095-7.414c.147-1.005.84-3.822 2.292-4.785.461-.275.95-.51 1.462-.7v4.44c-.844.278-1.909 1.055-1.909 2.695v5.71c0 .282.256.512.573.512h24.885c.317 0 .572-.23.572-.512v-5.7c0-1.64-1.072-2.416-1.91-2.693v-4.441a8.72 8.72 0 011.418.714zM44.36 26.414v1.398c-.025.295-.315.516-.645.492-.293-.021-.526-.23-.55-.492v-1.398c-.025-.296.22-.553.55-.578.33-.023.62.197.645.492a.319.319 0 010 .086zm-7.79-10.763a8.368 8.368 0 012.04.398v2.595c-.472.608-1.217.998-2.04 1.07V15.65zm-3.184.256a9.093 9.093 0 012.04-.28v4.1c-.823-.07-1.57-.462-2.04-1.07v-2.75zm-5.03 11.9c-.025.296-.315.517-.644.493-.293-.02-.526-.229-.55-.492v-1.394c-.027-.296.22-.553.55-.578.329-.023.619.197.645.492a.443.443 0 010 .086v1.394zm-.599-2.958c-.109 0-.215.01-.32.027a.492.492 0 01-.115-.372v-.621a.756.756 0 01.134-.462.113.113 0 01.08-.02h.221c.316 0 .574-.23.574-.513 0-.239.075-4.785 3.906-6.569v2.462c0 .076.02.15.056.218.04.072.973 1.777 3.7 1.777 2.726 0 3.664-1.708 3.701-1.777a.444.444 0 00.052-.218v-2.215c3.358 1.918 3.438 6.092 3.438 6.322 0 .284.258.514.573.514h.221c.057 0 .07 0 .08.019a.761.761 0 01.134.473v.61a.474.474 0 01-.122.372c-.562-.1-1.143.06-1.546.425H28.997a1.839 1.839 0 00-1.236-.448l-.004-.004zm1.745 5.303v-3.826h12.525v3.826c-.005 2.687-2.44 4.861-5.441 4.859h-1.65c-2.999-.001-5.43-2.175-5.434-4.859zm9.767 5.368v.758l-3.512 4.019-3.552-4.019v-.78c.857.357 1.789.54 2.731.541h1.65c.926 0 1.841-.177 2.683-.519zm-10.374 2.157a72.073 72.073 0 012.52-.64l4.35 4.92 4.3-4.92c.495.116 1.45.341 2.566.653v5.87H28.883l.012-5.883zm18.746 8.51v5.197H23.9v-5.196c0-1.547 1.279-1.77 1.416-1.791.284-.035.493-.253.493-.508v-5.263c.63-.219 1.298-.427 1.947-.615v6.062c0 .283.257.514.574.514h14.89c.317 0 .574-.23.574-.514v-6.051l1.928.604v5.263c0 .256.213.475.496.508.06.007 1.422.19 1.422 1.79z" fill="#fff"/><path d="M25.226 45.542h3.092v.92h-3.092v-.92zm17.977 0h3.094v.92h-3.094v-.92z" fill="#fff"/></svg>