<svg width="71" height="71" fill="none" xmlns="http://www.w3.org/2000/svg"><circle cx="35.5" cy="35.5" r="35.5" fill="#407BFF"/><mask id="a" fill="#fff"><path d="M25.691 42.777a.667.667 0 00-.47-.471l-3.713-.996a.665.665 0 00-.643.173l-2.717 2.72a.667.667 0 00-.172.644l.994 3.717a.667.667 0 00.47.47l3.713.996a.66.66 0 00.642-.172l2.718-2.72a.666.666 0 00.172-.644l-.994-3.717zm-2.565 5.864l-2.97-.8-.795-2.965 2.174-2.176 2.97.8.798 2.972-2.177 2.17z"/><path d="M54.806 43.317l-3.767-3.772a.658.658 0 00-.472-.193.644.644 0 00-.466.193l-.453.453a6.008 6.008 0 01-1.431-3.272l-.48-4.279a6.036 6.036 0 00-1.71-3.585l-.16-.16.859-.866a.623.623 0 01.473-.193 7.302 7.302 0 006.363-2.999 7.324 7.324 0 00.892-6.984.668.668 0 00-.81-.401.665.665 0 00-.282.167l-4.073 4.086-2.477-.354-.352-2.479 4.08-4.078a.66.66 0 00.034-.902.676.676 0 00-.267-.191 7.302 7.302 0 00-9.289 3.694 7.327 7.327 0 00-.682 3.57.649.649 0 01-.193.473l-2.749 2.752-1.883-1.886a2.649 2.649 0 00-4.527 1.666 2.638 2.638 0 00-3.295 2.275 2.647 2.647 0 00.267 1.47 2.595 2.595 0 00-1.391.714 2.65 2.65 0 00-.679 2.559 2.632 2.632 0 00-2.292 1.715 2.641 2.641 0 00.621 2.796l.939.94-1.91 1.913a.632.632 0 01-.48.193c-.146-.007-.286-.007-.439-.013a7.313 7.313 0 00-5.178 2.144 7.335 7.335 0 00-.005 10.367A7.317 7.317 0 0022.318 53h.02a7.308 7.308 0 005.174-2.148 7.328 7.328 0 002.128-5.616.62.62 0 01.193-.48l1.91-1.912 7.535 7.537-.473.473a.666.666 0 00-.2.473.652.652 0 00.2.467l.939.946a.681.681 0 00.472.193.694.694 0 00.473-.193.672.672 0 000-.946l-.473-.467 10.35-10.37 3.295 3.3a.67.67 0 00.945 0 .667.667 0 000-.94zM41.082 22.185a1.943 1.943 0 00.579-1.493 6 6 0 012.04-4.876 5.985 5.985 0 015.102-1.362l-3.515 3.519a.672.672 0 00-.193.566l.473 3.299a.667.667 0 00.566.566l3.294.474a.67.67 0 00.566-.194l3.514-3.518a6 6 0 01-3.558 6.695 5.98 5.98 0 01-2.672.455 1.947 1.947 0 00-1.49.58l-.866.866-1.883-1.886a2.727 2.727 0 00-3.768 0l-.938-.94 2.749-2.751zm-8.4.866a1.371 1.371 0 011.883 0l3.768 3.772-1.884 1.886-3.767-3.772a1.342 1.342 0 010-1.886zm-3.295 2.359a1.358 1.358 0 011.884 0l4.24 4.238.08.1a1.968 1.968 0 000 1.686l-.08.1a1.371 1.371 0 01-1.884 0l-4.24-4.245a1.328 1.328 0 010-1.879zm-1.877 3.765a1.33 1.33 0 011.877 0l3.295 3.3h.006l.939.945a1.334 1.334 0 01-.942 2.277c-.353 0-.692-.14-.942-.39l-3.767-3.773-.466-.473a1.334 1.334 0 010-1.886zm-2.749 4.245a1.326 1.326 0 01.393-.946 1.341 1.341 0 011.883 0l3.768 3.772.466.473a1.334 1.334 0 01-.942 2.277c-.353 0-.692-.14-.942-.39l-4.233-4.246a1.32 1.32 0 01-.393-.94zm15.455 16.021l-7.534-7.537 7.062-7.07a.672.672 0 000-.947.665.665 0 00-.939 0l-9.917 9.93a1.957 1.957 0 00-.58 1.492c.007.12.014.24.014.36 0 1.59-.63 3.114-1.752 4.24a5.987 5.987 0 01-4.232 1.758h-.02a5.987 5.987 0 01-4.235-1.759 6.002 6.002 0 01.005-8.482 5.987 5.987 0 014.603-1.741 1.978 1.978 0 001.491-.58l1.91-1.92 2.357 2.36a2.654 2.654 0 004.452-2.54 2.633 2.633 0 002.441-2.55 2.64 2.64 0 00-.27-1.248 2.607 2.607 0 001.377-.733c.02-.013.027-.033.047-.046a3.337 3.337 0 004.193-.42.674.674 0 01.938 0 .644.644 0 01.194.466.659.659 0 01-.194.473l-.472.473a4.672 4.672 0 000 6.598l.472.467a.652.652 0 00.939 0 .667.667 0 000-.94l-.466-.473a3.334 3.334 0 010-4.712l.466-.473a1.997 1.997 0 000-2.826 2.045 2.045 0 00-2.822 0 1.996 1.996 0 01-2.822 0 .667.667 0 010-.94l3.294-3.298a1.357 1.357 0 011.884 0l2.982 2.979a4.755 4.755 0 011.338 2.792l.48 4.279a7.36 7.36 0 001.803 4.065l-8.487 8.503z"/></mask><path d="M25.691 42.777a.667.667 0 00-.47-.471l-3.713-.996a.665.665 0 00-.643.173l-2.717 2.72a.667.667 0 00-.172.644l.994 3.717a.667.667 0 00.47.47l3.713.996a.66.66 0 00.642-.172l2.718-2.72a.666.666 0 00.172-.644l-.994-3.717zm-2.565 5.864l-2.97-.8-.795-2.965 2.174-2.176 2.97.8.798 2.972-2.177 2.17z" fill="#fff"/><path d="M54.806 43.317l-3.767-3.772a.658.658 0 00-.472-.193.644.644 0 00-.466.193l-.453.453a6.008 6.008 0 01-1.431-3.272l-.48-4.279a6.036 6.036 0 00-1.71-3.585l-.16-.16.859-.866a.623.623 0 01.473-.193 7.302 7.302 0 006.363-2.999 7.324 7.324 0 00.892-6.984.668.668 0 00-.81-.401.665.665 0 00-.282.167l-4.073 4.086-2.477-.354-.352-2.479 4.08-4.078a.66.66 0 00.034-.902.676.676 0 00-.267-.191 7.302 7.302 0 00-9.289 3.694 7.327 7.327 0 00-.682 3.57.649.649 0 01-.193.473l-2.749 2.752-1.883-1.886a2.649 2.649 0 00-4.527 1.666 2.638 2.638 0 00-3.295 2.275 2.647 2.647 0 00.267 1.47 2.595 2.595 0 00-1.391.714 2.65 2.65 0 00-.679 2.559 2.632 2.632 0 00-2.292 1.715 2.641 2.641 0 00.621 2.796l.939.94-1.91 1.913a.632.632 0 01-.48.193c-.146-.007-.286-.007-.439-.013a7.313 7.313 0 00-5.178 2.144 7.335 7.335 0 00-.005 10.367A7.317 7.317 0 0022.318 53h.02a7.308 7.308 0 005.174-2.148 7.328 7.328 0 002.128-5.616.62.62 0 01.193-.48l1.91-1.912 7.535 7.537-.473.473a.666.666 0 00-.2.473.652.652 0 00.2.467l.939.946a.681.681 0 00.472.193.694.694 0 00.473-.193.672.672 0 000-.946l-.473-.467 10.35-10.37 3.295 3.3a.67.67 0 00.945 0 .667.667 0 000-.94zM41.082 22.185a1.943 1.943 0 00.579-1.493 6 6 0 012.04-4.876 5.985 5.985 0 015.102-1.362l-3.515 3.519a.672.672 0 00-.193.566l.473 3.299a.667.667 0 00.566.566l3.294.474a.67.67 0 00.566-.194l3.514-3.518a6 6 0 01-3.558 6.695 5.98 5.98 0 01-2.672.455 1.947 1.947 0 00-1.49.58l-.866.866-1.883-1.886a2.727 2.727 0 00-3.768 0l-.938-.94 2.749-2.751zm-8.4.866a1.371 1.371 0 011.883 0l3.768 3.772-1.884 1.886-3.767-3.772a1.342 1.342 0 010-1.886zm-3.295 2.359a1.358 1.358 0 011.884 0l4.24 4.238.08.1a1.968 1.968 0 000 1.686l-.08.1a1.371 1.371 0 01-1.884 0l-4.24-4.245a1.328 1.328 0 010-1.879zm-1.877 3.765a1.33 1.33 0 011.877 0l3.295 3.3h.006l.939.945a1.334 1.334 0 01-.942 2.277c-.353 0-.692-.14-.942-.39l-3.767-3.773-.466-.473a1.334 1.334 0 010-1.886zm-2.749 4.245a1.326 1.326 0 01.393-.946 1.341 1.341 0 011.883 0l3.768 3.772.466.473a1.334 1.334 0 01-.942 2.277c-.353 0-.692-.14-.942-.39l-4.233-4.246a1.32 1.32 0 01-.393-.94zm15.455 16.021l-7.534-7.537 7.062-7.07a.672.672 0 000-.947.665.665 0 00-.939 0l-9.917 9.93a1.957 1.957 0 00-.58 1.492c.007.12.014.24.014.36 0 1.59-.63 3.114-1.752 4.24a5.987 5.987 0 01-4.232 1.758h-.02a5.987 5.987 0 01-4.235-1.759 6.002 6.002 0 01.005-8.482 5.987 5.987 0 014.603-1.741 1.978 1.978 0 001.491-.58l1.91-1.92 2.357 2.36a2.654 2.654 0 004.452-2.54 2.633 2.633 0 002.441-2.55 2.64 2.64 0 00-.27-1.248 2.607 2.607 0 001.377-.733c.02-.013.027-.033.047-.046a3.337 3.337 0 004.193-.42.674.674 0 01.938 0 .644.644 0 01.194.466.659.659 0 01-.194.473l-.472.473a4.672 4.672 0 000 6.598l.472.467a.652.652 0 00.939 0 .667.667 0 000-.94l-.466-.473a3.334 3.334 0 010-4.712l.466-.473a1.997 1.997 0 000-2.826 2.045 2.045 0 00-2.822 0 1.996 1.996 0 01-2.822 0 .667.667 0 010-.94l3.294-3.298a1.357 1.357 0 011.884 0l2.982 2.979a4.755 4.755 0 011.338 2.792l.48 4.279a7.36 7.36 0 001.803 4.065l-8.487 8.503z" fill="#fff"/><path d="M25.691 42.777a.667.667 0 00-.47-.471l-3.713-.996a.665.665 0 00-.643.173l-2.717 2.72a.667.667 0 00-.172.644l.994 3.717a.667.667 0 00.47.47l3.713.996a.66.66 0 00.642-.172l2.718-2.72a.666.666 0 00.172-.644l-.994-3.717zm-2.565 5.864l-2.97-.8-.795-2.965 2.174-2.176 2.97.8.798 2.972-2.177 2.17z" stroke="#407BFF" stroke-width=".2" mask="url(#a)"/><path d="M54.806 43.317l-3.767-3.772a.658.658 0 00-.472-.193.644.644 0 00-.466.193l-.453.453a6.008 6.008 0 01-1.431-3.272l-.48-4.279a6.036 6.036 0 00-1.71-3.585l-.16-.16.859-.866a.623.623 0 01.473-.193 7.302 7.302 0 006.363-2.999 7.324 7.324 0 00.892-6.984.668.668 0 00-.81-.401.665.665 0 00-.282.167l-4.073 4.086-2.477-.354-.352-2.479 4.08-4.078a.66.66 0 00.034-.902.676.676 0 00-.267-.191 7.302 7.302 0 00-9.289 3.694 7.327 7.327 0 00-.682 3.57.649.649 0 01-.193.473l-2.749 2.752-1.883-1.886a2.649 2.649 0 00-4.527 1.666 2.638 2.638 0 00-3.295 2.275 2.647 2.647 0 00.267 1.47 2.595 2.595 0 00-1.391.714 2.65 2.65 0 00-.679 2.559 2.632 2.632 0 00-2.292 1.715 2.641 2.641 0 00.621 2.796l.939.94-1.91 1.913a.632.632 0 01-.48.193c-.146-.007-.286-.007-.439-.013a7.313 7.313 0 00-5.178 2.144 7.335 7.335 0 00-.005 10.367A7.317 7.317 0 0022.318 53h.02a7.308 7.308 0 005.174-2.148 7.328 7.328 0 002.128-5.616.62.62 0 01.193-.48l1.91-1.912 7.535 7.537-.473.473a.666.666 0 00-.2.473.652.652 0 00.2.467l.939.946a.681.681 0 00.472.193.694.694 0 00.473-.193.672.672 0 000-.946l-.473-.467 10.35-10.37 3.295 3.3a.67.67 0 00.945 0 .667.667 0 000-.94zM41.082 22.185a1.943 1.943 0 00.579-1.493 6 6 0 012.04-4.876 5.985 5.985 0 015.102-1.362l-3.515 3.519a.672.672 0 00-.193.566l.473 3.299a.667.667 0 00.566.566l3.294.474a.67.67 0 00.566-.194l3.514-3.518a6 6 0 01-3.558 6.695 5.98 5.98 0 01-2.672.455 1.947 1.947 0 00-1.49.58l-.866.866-1.883-1.886a2.727 2.727 0 00-3.768 0l-.938-.94 2.749-2.751zm-8.4.866a1.371 1.371 0 011.883 0l3.768 3.772-1.884 1.886-3.767-3.772a1.342 1.342 0 010-1.886zm-3.295 2.359a1.358 1.358 0 011.884 0l4.24 4.238.08.1a1.968 1.968 0 000 1.686l-.08.1a1.371 1.371 0 01-1.884 0l-4.24-4.245a1.328 1.328 0 010-1.879zm-1.877 3.765a1.33 1.33 0 011.877 0l3.295 3.3h.006l.939.945a1.334 1.334 0 01-.942 2.277c-.353 0-.692-.14-.942-.39l-3.767-3.773-.466-.473a1.334 1.334 0 010-1.886zm-2.749 4.245a1.326 1.326 0 01.393-.946 1.341 1.341 0 011.883 0l3.768 3.772.466.473a1.334 1.334 0 01-.942 2.277c-.353 0-.692-.14-.942-.39l-4.233-4.246a1.32 1.32 0 01-.393-.94zm15.455 16.021l-7.534-7.537 7.062-7.07a.672.672 0 000-.947.665.665 0 00-.939 0l-9.917 9.93a1.957 1.957 0 00-.58 1.492c.007.12.014.24.014.36 0 1.59-.63 3.114-1.752 4.24a5.987 5.987 0 01-4.232 1.758h-.02a5.987 5.987 0 01-4.235-1.759 6.002 6.002 0 01.005-8.482 5.987 5.987 0 014.603-1.741 1.978 1.978 0 001.491-.58l1.91-1.92 2.357 2.36a2.654 2.654 0 004.452-2.54 2.633 2.633 0 002.441-2.55 2.64 2.64 0 00-.27-1.248 2.607 2.607 0 001.377-.733c.02-.013.027-.033.047-.046a3.337 3.337 0 004.193-.42.674.674 0 01.938 0 .644.644 0 01.194.466.659.659 0 01-.194.473l-.472.473a4.672 4.672 0 000 6.598l.472.467a.652.652 0 00.939 0 .667.667 0 000-.94l-.466-.473a3.334 3.334 0 010-4.712l.466-.473a1.997 1.997 0 000-2.826 2.045 2.045 0 00-2.822 0 1.996 1.996 0 01-2.822 0 .667.667 0 010-.94l3.294-3.298a1.357 1.357 0 011.884 0l2.982 2.979a4.755 4.755 0 011.338 2.792l.48 4.279a7.36 7.36 0 001.803 4.065l-8.487 8.503z" stroke="#407BFF" stroke-width=".2" mask="url(#a)"/></svg>