<svg width="64" height="48" fill="none" xmlns="http://www.w3.org/2000/svg"><path d="M60.213.56H3.29C1.545.56.13 2.006.13 3.79v36.602c0 1.783 1.416 3.23 3.162 3.23H5.4v3.23c0 .594.472 1.076 1.053 1.076h8.433c.583 0 1.055-.482 1.055-1.077v-3.23h31.623v3.23c0 .595.472 1.077 1.054 1.077h8.433c.582 0 1.054-.482 1.054-1.077v-3.23h2.108c1.747 0 3.162-1.446 3.162-3.229V3.79c0-1.784-1.415-3.23-3.162-3.23zm-46.38 45.215H7.507V43.62h6.324v2.154zm42.163 0h-6.324V43.62h6.325v2.154zm5.271-5.383c0 .594-.472 1.076-1.054 1.076H3.29a1.065 1.065 0 01-1.054-1.076V3.79c0-.595.472-1.077 1.054-1.077h56.922c.582 0 1.054.482 1.054 1.077v36.602z" fill="#115AD4"/><path d="M55.997 5.943h-12.65c-1.746 0-3.162 1.446-3.162 3.23v25.836c0 1.784 1.416 3.23 3.163 3.23h12.649c1.746 0 3.162-1.446 3.162-3.23V9.172c0-1.783-1.416-3.23-3.162-3.23zM42.293 17.785h14.758v8.612H42.293v-8.612zm1.055-9.69h12.649c.582 0 1.054.483 1.054 1.077v6.46H42.293v-6.46c0-.594.472-1.076 1.055-1.076zm12.649 27.99h-12.65a1.066 1.066 0 01-1.054-1.076V28.55h14.758v6.46c0 .594-.472 1.076-1.054 1.076zM21.211 4.866c-9.315 0-16.866 7.712-16.866 17.225 0 9.513 7.551 17.224 16.866 17.224s16.866-7.711 16.866-17.224C38.066 12.583 30.52 4.878 21.21 4.866zm0 32.296c-8.15 0-14.758-6.747-14.758-15.071S13.061 7.019 21.211 7.019c8.15 0 14.758 6.748 14.758 15.072-.01 8.32-6.611 15.062-14.758 15.071z" fill="#115AD4"/><path d="M24.373 22.09a3.133 3.133 0 00-.033-.386 8.927 8.927 0 002.142-6.072c0-4.226-2.32-7.536-5.27-7.536-.583 0-1.055.482-1.055 1.076v9.895c-.304.106-.591.26-.85.455a8.45 8.45 0 00-6.212 1.14 8.71 8.71 0 00-4.111 5.002 4.496 4.496 0 00.362 3.426c.292.513.935.688 1.438.392l8.387-4.945c.239.215.51.392.802.523a8.744 8.744 0 004.084 4.918 9.296 9.296 0 004.639 1.348 6.33 6.33 0 001.664-.215 4.33 4.33 0 002.72-2.027 1.09 1.09 0 00-.386-1.469l-8.392-4.952c.04-.188.064-.38.071-.572zm-3.337 1.059a1.068 1.068 0 01-.865-1.229c.03-.184.106-.357.221-.503a1.034 1.034 0 011.474-.17c.157.127.276.3.34.494a.91.91 0 01.06.35 1.09 1.09 0 01-.323.775 1.16 1.16 0 01-.138.107.992.992 0 01-.084.06.997.997 0 01-.188.08c-.024.009-.048.018-.073.024a1.13 1.13 0 01-.181.025.953.953 0 01-.211 0c-.01-.01-.017-.01-.032-.013zm1.23-12.578c1.214.754 2.107 2.771 2.107 5.06a7.409 7.409 0 01-1.094 4.02c-.029-.026-.064-.044-.095-.07a3.24 3.24 0 00-.464-.319 3.086 3.086 0 00-.344-.162c-.038-.016-.073-.039-.11-.053v-8.476zM10.917 26.919a3.13 3.13 0 01.105-.699 6.65 6.65 0 013.126-3.691 7.228 7.228 0 013.563-1.056c.133 0 .265 0 .393.014v.028a3.187 3.187 0 00-.003 1.167l-7.184 4.237zm18.893 2.115a6.362 6.362 0 01-4.703-.922 7.168 7.168 0 01-2.86-2.966 3.11 3.11 0 00.544-.255h.007c.167-.1.326-.215.472-.344l7.18 4.235a2.86 2.86 0 01-.64.252z" fill="#115AD4"/></svg>