<svg width="38" height="29" fill="none" xmlns="http://www.w3.org/2000/svg"><path d="M35.752.338H1.953C.917.338.077 1.212.077 2.29v22.114c0 1.077.84 1.95 1.877 1.95h1.252v1.952c0 .36.28.65.626.65h5.007a.639.639 0 00.626-.65v-1.951H28.24v1.95c0 .36.28.651.626.651h5.007a.639.639 0 00.626-.65v-1.951h1.252c1.037 0 1.877-.874 1.877-1.951V2.29c0-1.078-.84-1.952-1.877-1.952zM8.212 27.656H4.458v-1.301h3.755v1.3zm25.035 0h-3.755v-1.301h3.755v1.3zm3.13-3.252c0 .359-.28.65-.627.65H1.955a.638.638 0 01-.626-.65V2.29c0-.36.28-.65.626-.65h33.797c.346 0 .627.29.627.65v22.114z" fill="#D7D7D7"/><path d="M33.248 3.59h-7.51c-1.037 0-1.878.874-1.878 1.952v15.61c0 1.078.84 1.951 1.878 1.951h7.51c1.037 0 1.878-.873 1.878-1.951V5.542c0-1.078-.84-1.951-1.878-1.951zm-8.136 7.155h8.762v5.204h-8.762v-5.204zm.626-5.853h7.51c.346 0 .626.29.626.65v3.903h-8.762V5.542c0-.36.28-.65.626-.65zm7.51 16.91h-7.51a.639.639 0 01-.626-.65v-3.903h8.762v3.903c0 .36-.28.65-.626.65zM12.594 2.94C7.064 2.94 2.58 7.6 2.58 13.347s4.484 10.406 10.014 10.406c5.53 0 10.014-4.659 10.014-10.406-.006-5.745-4.486-10.4-10.014-10.407zm0 19.512c-4.84 0-8.762-4.076-8.762-9.105 0-5.03 3.923-9.106 8.762-9.106 4.84 0 8.762 4.077 8.762 9.106-.005 5.026-3.925 9.1-8.762 9.105z" fill="#D7D7D7"/><path d="M14.472 13.346a1.934 1.934 0 00-.02-.233 5.452 5.452 0 001.271-3.669c0-2.553-1.377-4.553-3.129-4.553a.638.638 0 00-.626.65v5.979a1.85 1.85 0 00-.505.274 4.945 4.945 0 00-3.688.69 5.243 5.243 0 00-2.441 3.021 2.759 2.759 0 00.215 2.07c.173.31.555.416.854.237l4.98-2.988c.141.13.302.237.476.316a5.261 5.261 0 002.425 2.971 5.449 5.449 0 002.754.815c.333.002.665-.042.988-.13a2.575 2.575 0 001.615-1.224.665.665 0 00-.23-.888l-4.982-2.992c.024-.113.038-.23.043-.346zm-1.982.64a.644.644 0 01-.514-.743.66.66 0 01.132-.303.607.607 0 01.875-.104.645.645 0 01.202.299.669.669 0 01-.156.68.703.703 0 01-.082.065.592.592 0 01-.05.035.587.587 0 01-.112.05l-.043.014a.65.65 0 01-.108.014.546.546 0 01-.125 0c-.006-.006-.01-.005-.019-.007zm.73-7.6c.72.456 1.252 1.675 1.252 3.058a4.536 4.536 0 01-.65 2.429c-.017-.016-.038-.027-.056-.043a1.932 1.932 0 00-.276-.192 1.828 1.828 0 00-.204-.098c-.023-.01-.044-.024-.066-.032V6.387zm-6.738 9.877a1.93 1.93 0 01.063-.422A4 4 0 018.4 13.61a4.238 4.238 0 012.116-.639c.078 0 .157 0 .233.01v.016a2.007 2.007 0 00-.034.348c0 .12.011.24.032.357l-4.266 2.56zM17.7 17.54a3.724 3.724 0 01-2.792-.558 4.298 4.298 0 01-1.699-1.792c.113-.04.22-.091.324-.153h.004c.1-.06.193-.13.28-.208l4.263 2.558a1.69 1.69 0 01-.38.153z" fill="#D7D7D7"/></svg>