<svg width="2500" height="966" fill="none" xmlns="http://www.w3.org/2000/svg"><g clip-path="url(#clip0)"><path d="M1345.29 302.861C1556.87-108.969 2053.06 28.974 2211-3.513L2181.7-34 283.5 0H-.5v770L267 795.658c347.178 26.443 771.62 104.105 1078.29-492.797z" fill="#fff"/><mask id="a" maskUnits="userSpaceOnUse" x="292" y="-34" width="1920" height="898"><path d="M1321.15 351.5C1583.98-104.72 1738.52.4 2212 .4L2189.85-34H306.273L292 848.546c268.895 55.807 757.33-25.201 1029.15-497.046z" fill="#fff"/></mask><g opacity=".15" mask="url(#a)"><path d="M735.923 175.503l-11.905-21.171-18.671 2.802-15.418-19.686 7.945-19.59-20.817-14.034-15.535 15.926-20.486-3.64-8.299-24.428-24.871 2.634-1.414 21.386-18.53 9.58-19.496-14.13-19.897 14.729 10.349 22.632-11.787 18.129-21.5-1.15-5.634 26.943 20.486 7.999 1.745 22.656-21.217 12.381 10.137 23.374 21.971-3.448 14.569 17.051-7.614 21.267 20.109 14.37 15.7-17.268 21.807 5.988 6.766 22.847 24.211-1.653 3.135-20.524 20.746-12.118 16.997 13.771 21.476-16.262-10.868-19.159 10.585-19.159 21.783 1.628 6.507-25.17-18.695-10.274-2.499-22.871 18.129-12.358zm-84.35 73.811a48.32 48.32 0 01-27.687 6.483c-9.657-.668-18.902-4.23-26.567-10.235-7.664-6.006-13.403-14.186-16.491-23.505a50.474 50.474 0 01-.859-28.852c2.529-9.491 7.771-18.008 15.065-24.473 7.293-6.465 16.31-10.588 25.91-11.847a48.273 48.273 0 0128.022 4.773c8.67 4.371 15.87 11.256 20.689 19.784 6.446 11.429 8.162 24.989 4.772 37.702-3.391 12.713-11.61 23.538-22.854 30.098v.072z" fill="#EBEBEB"/><path d="M648.886 191.669a58.83 58.83 0 00-4.031-4.982 25.618 25.618 0 00-15.135-7.52 24.958 24.958 0 00-12.436 1.57 25.338 25.338 0 00-10.172 7.435 26.281 26.281 0 00-5.681 13.675 25.942 25.942 0 003.177 15.655 25.35 25.35 0 0011.698 10.689 24.37 24.37 0 007.309 2.036c2.415.309 4.864.244 7.261-.192a25.501 25.501 0 0012.117-5.724 25.623 25.623 0 006.954-9.579 26.737 26.737 0 001.25-17.076 61.182 61.182 0 00-2.216-6.059 21.156 21.156 0 012.664 5.915 26.545 26.545 0 01-.896 17.555 26.53 26.53 0 01-7.796 10.604 25.962 25.962 0 01-11.865 5.466c-2.511.476-5.08.557-7.615.239a24.123 24.123 0 01-7.662-2.107 26.504 26.504 0 01-12.264-11.1 27.125 27.125 0 01-3.413-16.322c.28-2.69.981-5.317 2.075-7.783a25.974 25.974 0 013.937-6.586 26.509 26.509 0 0111.504-7.975 25.703 25.703 0 0112.07-1.174c5.891.818 11.326 3.668 15.394 8.071a20.815 20.815 0 013.772 5.269z" fill="#EBEBEB"/><path d="M672.155 136.298c.283.192-6.342 10.945-14.829 23.949-8.486 13.005-15.559 23.518-15.842 23.351-.283-.168 6.342-10.945 14.829-23.949 8.486-13.005 15.559-23.542 15.842-23.351zm24.046 87.103a42.872 42.872 0 01-6.601-1.844c-4.032-1.246-9.619-2.898-15.866-4.455a271.418 271.418 0 00-16.101-3.473 46.125 46.125 0 01-6.695-1.436 32.455 32.455 0 016.836.55 159.439 159.439 0 0116.243 3.162 150.646 150.646 0 0115.866 4.789 34.188 34.188 0 016.318 2.707zm-58.843 5.676a27.836 27.836 0 012.122 5.796c1.132 3.664 2.523 8.741 3.819 14.369 1.297 5.628 2.358 10.873 2.829 14.657.413 2.025.626 4.087.637 6.155a30.732 30.732 0 01-1.486-6.011c-.801-3.712-1.885-8.861-3.182-14.537a802.672 802.672 0 00-3.442-14.37 33.929 33.929 0 01-1.297-6.059zm-26.498-3.041a167.319 167.319 0 01-9.713 17.554 168.028 168.028 0 01-10.75 16.932 158.99 158.99 0 019.713-17.578 158.31 158.31 0 0110.75-16.908zm-3.677-84.78a157.46 157.46 0 016.247 18.489 156.253 156.253 0 015.069 18.848 155.454 155.454 0 01-6.247-18.489 149.914 149.914 0 01-5.069-18.848zm-5.54 58.531a96.177 96.177 0 01-15.3-.862 95.517 95.517 0 01-15.158-2.083 89.624 89.624 0 0115.276.862 96.678 96.678 0 0115.182 2.083zm42.222-5.124a20.756 20.756 0 012.62 11.597 20.694 20.694 0 01-4.162 11.123 20.19 20.19 0 01-9.543 6.9 19.878 19.878 0 01-11.708.353 20.134 20.134 0 01-9.928-6.314 20.645 20.645 0 01-4.805-10.852c-.51-4.02.165-8.104 1.939-11.735a20.367 20.367 0 018.029-8.664 19.964 19.964 0 017.467-2.553 19.865 19.865 0 017.861.546 20.066 20.066 0 017.056 3.563 20.401 20.401 0 015.174 6.036z" fill="#EBEBEB"/><path d="M636.18 204.912a27.15 27.15 0 00-9.995-3.879 26.65 26.65 0 00-10.609 1.628c0-.144.896-.982 2.806-1.772a16.266 16.266 0 017.921-1.102 16.65 16.65 0 017.52 2.802c1.674 1.198 2.475 2.228 2.357 2.323z" fill="#E0E0E0"/><path d="M628.093 192.914a68.182 68.182 0 00-3.041 9.58 68.869 68.869 0 00-.424 10.01 20.626 20.626 0 01-.779-10.23 20.47 20.47 0 014.244-9.312v-.048zm372.197 409.575l-15.42-27.301-24.14 3.616-19.827-25.458 10.279-25.362-26.946-18.153-20.109 20.596-26.474-4.79-10.844-31.613-32.179 3.449-1.839 27.685-23.905 12.43-25.366-18.273-25.743 19.159 13.39 29.194-15.323 23.446-27.842-1.509-7.261 34.893 26.498 10.346 2.357 29.314-27.44 16.022 13.107 30.247 28.431-4.502 18.86 22.081-9.831 27.517 25.932 18.681 20.321-22.321 28.29 7.736 8.769 29.553 31.331-2.132 4.031-26.559 26.875-15.663 21.971 17.818 27.795-21.051-14.145-24.859 13.697-24.931 28.171 2.108 8.649-32.451-24.208-13.316-3.347-29.577 23.435-16.07zm-109.129 95.509a62.522 62.522 0 01-35.821 8.391c-12.495-.863-24.457-5.471-34.374-13.24-9.917-7.769-17.343-18.352-21.34-30.409a65.295 65.295 0 01-1.114-37.328c3.27-12.281 10.051-23.301 19.487-31.666 9.435-8.366 21.1-13.701 33.52-15.332a62.448 62.448 0 0136.256 6.17c11.219 5.654 20.536 14.56 26.772 25.593 8.357 14.797 10.588 32.361 6.203 48.829-4.385 16.468-15.028 30.493-29.589 38.992z" fill="#E0E0E0"/><path d="M887.696 623.493a64.635 64.635 0 00-5.163-6.491c-5.268-5.429-12.189-8.89-19.638-9.819a32.297 32.297 0 00-15.111 1.629 33.318 33.318 0 00-14.263 10.058 33.81 33.81 0 00-7.52 17.842 33.69 33.69 0 004.129 20.36c3.483 6.164 8.82 11.031 15.226 13.887a30.814 30.814 0 009.43 2.659 31.16 31.16 0 009.429-.264 32.92 32.92 0 0012.71-5.183 33.502 33.502 0 009.572-9.951 34.074 34.074 0 004.805-13.029 34.259 34.259 0 00-.777-13.891 69.684 69.684 0 00-2.924-7.807c.111.149.205.309.283.479l.778 1.412c.438.768.817 1.568 1.132 2.395.476 1.103.87 2.239 1.178 3.401a32.207 32.207 0 011.368 9.819 34.906 34.906 0 01-3.165 14.151 34.384 34.384 0 01-8.623 11.57 33.857 33.857 0 01-16.219 7.784c-3.225.62-6.526.726-9.783.311a31.85 31.85 0 01-9.854-2.706c-6.648-2.957-12.185-8.003-15.797-14.397a34.87 34.87 0 01-4.265-21.119 34.882 34.882 0 017.85-18.441 34.032 34.032 0 0114.805-10.274 33.14 33.14 0 0114.172-1.721 33.276 33.276 0 0113.599 4.403 31.509 31.509 0 017.661 6.131c.852.857 1.64 1.778 2.358 2.754a17.85 17.85 0 011.461 2.179l.802 1.413c.128.144.246.296.354.456z" fill="#E0E0E0"/><path d="M917.8 551.861c.306.192-8.369 14.058-19.331 30.966s-20.086 30.488-20.369 30.296c-.282-.192 8.393-14.058 19.355-30.966s20.062-30.487 20.345-30.296zm31.12 112.584a82.963 82.963 0 01-8.487-2.538 355.297 355.297 0 00-20.534-5.796c-8.062-2.012-15.488-3.496-20.863-4.478a87.275 87.275 0 01-8.699-1.701 7.635 7.635 0 012.357 0c1.533.12 3.725.384 6.46.767 5.422.766 12.872 2.107 21.005 4.119 8.133 2.012 15.347 4.311 20.509 6.179 2.594.934 4.715 1.724 6.059 2.395a8.093 8.093 0 012.193 1.053zm-76.123 7.449a49.708 49.708 0 012.617 7.544 313.843 313.843 0 014.88 18.656c1.673 7.328 2.946 14.082 3.701 18.967.544 2.617.859 5.278.943 7.951a59.525 59.525 0 01-1.792-7.807c-.99-4.79-2.357-11.495-4.055-18.824a1055.17 1055.17 0 00-4.526-18.704 58.977 58.977 0 01-1.768-7.783zm-34.207-3.952c.283.191-5.399 10.322-12.73 22.631a260.625 260.625 0 01-13.768 21.985c-.283-.167 5.399-10.298 12.73-22.631 7.332-12.334 13.485-22.153 13.768-21.985zm-4.856-109.663c.33 0 3.867 10.634 7.921 23.949 4.055 13.316 7.073 24.213 6.719 24.309-.354.095-3.866-10.61-7.897-23.949a255.765 255.765 0 01-6.743-24.309zm-7.167 75.728a160.32 160.32 0 01-19.779-1.294 152.742 152.742 0 01-19.638-2.538c6.605.023 13.203.455 19.756 1.293a158.667 158.667 0 0119.661 2.539zm57.849 10.792c2.371-14.456-7.243-28.128-21.473-30.536-14.229-2.409-27.687 7.357-30.058 21.813-2.371 14.456 7.242 28.127 21.472 30.536 14.23 2.409 27.688-7.358 30.059-21.813z" fill="#E0E0E0"/><path d="M871.264 640.64a38.651 38.651 0 01-3.583-2.156 23.94 23.94 0 00-9.345-3.064 23.842 23.842 0 00-9.774.957c-2.357.742-3.866 1.509-3.961 1.341-.094-.168 1.203-1.173 3.678-2.179a21.397 21.397 0 0110.186-1.366 21.5 21.5 0 019.664 3.545 9.325 9.325 0 013.135 2.922z" fill="#EBEBEB"/><path d="M860.751 625.097a62.919 62.919 0 00-4.126 12.309 64.839 64.839 0 00-.353 13.005 27.949 27.949 0 01-.848-13.221 27.742 27.742 0 015.327-12.093z" fill="#EBEBEB"/><path d="M1009.27 140.992l-7.76-13.722-12.161 1.82-10.042-12.813 5.186-12.765-13.555-9.148-10.114 10.37-13.343-2.395-5.399-15.926-16.195 1.748-.92 13.914-12.023 6.371-12.777-9.173-12.966 9.58 6.742 14.752-7.708 11.783-14.004-.742-3.677 17.554 13.414 5.102 1.155 14.752-13.838 8.047 6.624 15.232 14.286-2.252 9.43 11.113-4.951 13.842 13.108 9.412 10.231-11.256 14.145 3.904 4.408 14.872 15.771-1.078 2.028-13.363 13.532-7.879 11.056 8.957 13.98-10.586-7.073-12.525 6.908-12.525 14.142 1.053 4.41-16.309-12.187-6.706-1.65-14.848 11.787-8.167zm-54.929 48.09a31.465 31.465 0 01-18.031 4.214 31.584 31.584 0 01-17.298-6.671 32.383 32.383 0 01-10.735-15.309 32.874 32.874 0 01-.554-18.788 32.45 32.45 0 019.812-15.935 31.636 31.636 0 0116.873-7.713 31.444 31.444 0 0118.248 3.109 32.088 32.088 0 0113.472 12.883 32.829 32.829 0 013.143 24.575c-2.201 8.291-7.555 15.354-14.883 19.635h-.047z" fill="#F5F5F5"/><path d="M952.69 151.554a28.234 28.234 0 00-2.593-3.281 16.779 16.779 0 00-9.878-4.934 16.108 16.108 0 00-7.614.838 16.512 16.512 0 00-7.073 5.054 16.91 16.91 0 00-3.772 8.981 16.996 16.996 0 002.075 10.25 16.843 16.843 0 007.497 7.041 15.515 15.515 0 004.715 1.317c1.568.207 3.158.167 4.714-.12a16.383 16.383 0 007.921-3.76 16.316 16.316 0 004.527-6.251 17.14 17.14 0 00.778-11.16 31.755 31.755 0 00-1.297-3.975l.142.239.4.719c.216.385.405.785.566 1.197.237.552.433 1.12.589 1.701.479 1.598.71 3.262.684 4.933a17.313 17.313 0 01-1.273 6.466 17.244 17.244 0 01-4.715 6.49 17.087 17.087 0 01-8.18 3.952 15.403 15.403 0 01-4.927.144 15.3 15.3 0 01-4.951-1.365 17.189 17.189 0 01-7.968-7.185 17.906 17.906 0 01-2.145-10.633 17.472 17.472 0 013.96-9.293 17.215 17.215 0 017.45-5.173 16.916 16.916 0 0113.979 1.342 16.51 16.51 0 014.032 3.041c.422.43.808.894 1.155 1.389.278.342.523.711.731 1.102l.424.718c.025.07.041.142.047.216z" fill="#F5F5F5"/><path d="M967.802 115.631c.142 0-4.219 7.184-9.736 15.591-5.516 8.406-10.09 15.351-10.255 15.255-.165-.096 4.22-7.185 9.736-15.591 5.517-8.406 10.114-15.471 10.255-15.255zm15.654 56.567a43.842 43.842 0 01-4.267-1.293 201.52 201.52 0 00-10.35-2.922 149.338 149.338 0 00-10.49-2.227 35.631 35.631 0 01-4.362-.886 5.532 5.532 0 011.179 0c.778 0 1.886.192 3.253.383 2.735.383 6.483 1.078 10.585 2.084a104.727 104.727 0 0110.326 3.113c1.297.455 2.357.862 3.041 1.174.391.128.757.322 1.085.574zm-38.309 3.737a25.171 25.171 0 011.321 3.807c.707 2.395 1.603 5.7 2.357 9.388.754 3.689 1.485 7.185 1.862 9.58a20.78 20.78 0 01.472 4.023 29.106 29.106 0 01-.896-3.927 894.008 894.008 0 00-2.027-9.58 154.554 154.554 0 00-2.358-9.412 27.309 27.309 0 01-.731-3.879zm-17.209-1.988c.141 0-2.735 5.197-6.412 11.4-3.678 6.203-6.79 11.16-6.931 11.064-.142-.096 2.734-5.197 6.412-11.328 3.678-6.131 6.766-11.208 6.931-11.136zm-2.452-55.202c.165 0 1.933 5.364 3.984 11.974s3.56 12.19 3.395 12.238a126.292 126.292 0 01-3.984-11.974 126.835 126.835 0 01-3.395-12.238zm-3.607 38.127a81.304 81.304 0 01-9.948-.647 72.87 72.87 0 01-9.902-1.293c3.327.012 6.65.236 9.949.67 3.323.216 6.629.64 9.901 1.27zm27.535-3.402a13.516 13.516 0 01-1.001 14.783 13.137 13.137 0 01-6.207 4.491 12.925 12.925 0 01-7.617.232 13.102 13.102 0 01-6.462-4.104 13.445 13.445 0 01-3.13-7.059 13.529 13.529 0 011.257-7.636 13.25 13.25 0 015.22-5.64 12.956 12.956 0 014.86-1.673 12.894 12.894 0 015.119.351 13.028 13.028 0 014.595 2.32 13.27 13.27 0 013.366 3.935z" fill="#F5F5F5"/><path d="M944.369 160.199s-.684-.455-1.792-1.077a12.89 12.89 0 00-4.715-1.533 12.301 12.301 0 00-4.927.479c-1.226.359-1.933.742-1.98.671a4.316 4.316 0 011.839-1.102 10.866 10.866 0 015.128-.673c1.738.191 3.406.8 4.867 1.775.63.357 1.17.857 1.58 1.46z" fill="#EBEBEB"/><path d="M939.112 152.393a32.245 32.245 0 00-2.075 6.178 32.642 32.642 0 00-.188 6.562 12.14 12.14 0 01-.424-6.657 11.696 11.696 0 012.687-6.083z" fill="#EBEBEB"/><path d="M681.396 479.272l-19.544-34.583-30.647 4.575-25.271-32.26 13.013-32.115-34.018-23.015-25.484 26.104-33.547-5.987-13.626-40.067-40.76 4.359-2.358 35.061-30.387 15.687-32.156-23.135-32.627 24.141 16.95 37.121-19.425 29.696-35.362-1.892-9.123 44.21 33.57 13.196 2.876 37.145-34.772 20.333 16.502 38.318 36.022-5.676 23.857 27.973-12.494 34.869 33.004 23.662 25.743-28.308 35.715 9.819 11.128 37.457 39.699-2.707 5.116-33.648 34.041-19.854 27.842 22.584 35.22-26.679-17.799-31.493 17.351-31.589 35.692 2.683 11.08-41.36-30.647-16.765-4.078-37.456 29.704-20.404zM543.108 600.286c-13.75 7.998-29.526 11.678-45.333 10.572-15.807-1.105-30.938-6.944-43.479-16.781-12.542-9.837-21.933-23.229-26.986-38.485a82.655 82.655 0 01-1.404-47.229c4.137-15.538 12.715-29.482 24.649-40.07 11.934-10.588 26.69-17.345 42.403-19.418a79.056 79.056 0 0145.878 7.774c14.2 7.14 25.999 18.396 33.905 32.346a82.302 82.302 0 0110.023 30.145 82.678 82.678 0 01-2.113 31.746 81.963 81.963 0 01-13.928 28.499 80.545 80.545 0 01-23.615 20.901z" fill="#F5F5F5"/><path d="M538.7 505.999a77.249 77.249 0 00-6.53-8.238c-6.684-6.864-15.442-11.249-24.871-12.454a41.129 41.129 0 00-20.487 2.582 41.754 41.754 0 00-16.761 12.243 39.779 39.779 0 00-6.294 10.345 39.71 39.71 0 00-3.23 12.262 42.708 42.708 0 005.235 25.794c4.412 7.809 11.169 13.977 19.282 17.602a38.586 38.586 0 0012.047 3.353c3.991.534 8.04.429 11.999-.312a41.683 41.683 0 0016.163-6.547 42.41 42.41 0 0012.17-12.633 43.148 43.148 0 006.096-16.556 43.377 43.377 0 00-1.024-17.646 73.588 73.588 0 00-3.701-9.891s.142.192.377.575c.236.383.59 1.078.991 1.796a21.82 21.82 0 011.414 3.042 29.085 29.085 0 011.509 4.311 40.956 40.956 0 011.721 12.405 44.108 44.108 0 01-3.961 17.927 43.483 43.483 0 01-10.891 14.668 42.927 42.927 0 01-20.534 9.891 42.667 42.667 0 01-24.894-3.042c-8.421-3.748-15.435-10.143-20.01-18.244a44.183 44.183 0 01-5.403-26.756c.96-8.622 4.423-16.758 9.948-23.374 6.473-7.747 15.412-12.946 25.264-14.696a42.238 42.238 0 0128.674 5.116 39.995 39.995 0 019.689 7.784 28.826 28.826 0 012.735 3.424 20.524 20.524 0 011.862 2.778c.425.695.755 1.294 1.038 1.773.158.22.285.462.377.718z" fill="#F5F5F5"/><path d="M576.867 415.112c.353.24-10.609 17.818-24.494 39.253-13.886 21.434-25.461 38.629-25.814 38.318-.354-.311 10.608-17.794 24.517-39.252 13.909-21.458 25.437-38.438 25.791-38.319zm39.416 142.665a98.574 98.574 0 01-10.75-3.209 481.693 481.693 0 00-25.932-7.352c-10.137-2.563-19.638-4.407-26.427-5.652a95.522 95.522 0 01-11.009-2.18 11.63 11.63 0 013.017 0c1.933.168 4.715.503 8.157.982 6.884.958 16.337 2.682 26.615 5.221 10.279 2.539 19.473 5.46 25.932 7.831 3.277 1.174 5.894 2.18 7.686 2.946.963.343 1.875.818 2.711 1.413zm-96.466 9.436a57.348 57.348 0 013.324 9.579c1.791 5.988 4.055 14.37 6.2 23.638 2.145 9.268 3.701 17.842 4.715 23.949a59.11 59.11 0 011.178 10.083 75.121 75.121 0 01-2.357-9.867 1129.098 1129.098 0 00-5.139-23.949c-2.122-9.364-4.196-17.651-5.729-23.71a73.56 73.56 0 01-2.192-9.723zm-43.331-4.982c.354.215-6.86 13.052-16.125 28.739-9.265 15.686-17.068 28.092-17.445 27.876-.377-.215 6.837-13.076 16.125-28.738 9.288-15.663 17.068-28.117 17.445-27.877zm-6.153-138.975c.401 0 4.903 13.459 10.019 30.367 5.116 16.908 8.958 30.703 8.534 30.822-.424.12-4.904-13.459-10.019-30.367-5.116-16.908-8.959-30.702-8.534-30.822zm-9.075 95.964c0 .431-11.269-.312-25.06-1.653-13.791-1.341-24.942-2.754-24.895-3.209.048-.455 11.245.311 25.036 1.652 13.792 1.341 24.942 2.778 24.919 3.21zm72.418 17.43c5.072-17.841-5.053-36.481-22.615-41.634-17.562-5.153-35.91 5.133-40.983 22.974-5.072 17.841 5.053 36.481 22.615 41.634 17.562 5.153 35.911-5.133 40.983-22.974z" fill="#F5F5F5"/><path d="M517.883 527.553a50.24 50.24 0 01-4.55-2.73 31.094 31.094 0 00-11.787-3.88 31.402 31.402 0 00-12.401 1.198 45.193 45.193 0 01-5.021 1.7 11.518 11.518 0 014.715-2.754 27.392 27.392 0 0112.919-1.725 27.229 27.229 0 0112.235 4.503 11.723 11.723 0 013.89 3.688z" fill="#EBEBEB"/><path d="M504.61 507.915c.448.264-3.677 6.61-5.209 15.615-1.533 9.005 0 16.381-.448 16.477-.448.096-2.782-7.376-1.085-16.764 1.698-9.388 6.507-15.615 6.742-15.328z" fill="#EBEBEB"/><path d="M1585.15 458.316l-19.52-34.582-30.65 4.574-25.27-32.259 13.04-32.14-34.14-22.991-25.48 26.176-33.55-5.963-13.6-40.09-40.79 4.382-2.35 35.061-30.39 15.687-32.16-23.135-32.62 24.141 16.95 37.097-19.41 29.721-35.36-1.892-8.98 44.09 33.55 13.124 2.9 37.144-34.8 20.285 16.5 38.319 36.07-5.676 23.86 27.996-12.47 34.846 33 23.685 25.75-28.307 35.73 9.819 11.11 37.456 39.7-2.73 5.11-33.529 34.04-19.854 27.87 22.56 35.2-26.655-17.8-31.517 17.35-31.564 35.71 2.658 10.97-41.12-30.65-16.765-4.08-37.48 29.66-20.572zM1446.84 579.33c-13.75 7.999-29.53 11.678-45.34 10.573-15.8-1.105-30.93-6.945-43.48-16.782-12.54-9.837-21.93-23.229-26.98-38.485a82.75 82.75 0 01-1.41-47.229c4.14-15.538 12.72-29.482 24.65-40.07 11.94-10.588 26.69-17.345 42.41-19.417 15.71-2.073 31.67.632 45.87 7.773 14.2 7.141 26 18.397 33.91 32.346a82.167 82.167 0 0110.02 30.145 82.677 82.677 0 01-2.11 31.746 81.941 81.941 0 01-13.93 28.499 80.588 80.588 0 01-23.61 20.901z" fill="#F5F5F5"/><path d="M1442.43 484.948a73.301 73.301 0 00-6.53-8.238 41.954 41.954 0 00-14.46-9.785 41.312 41.312 0 00-17.11-2.996 41.466 41.466 0 00-16.85 4.306 42.172 42.172 0 00-13.68 10.87c-5.26 6.428-8.54 14.293-9.43 22.607-1 8.932.83 17.957 5.23 25.758 4.39 7.802 11.13 13.973 19.22 17.614a38.83 38.83 0 0012.05 3.353 39.2 39.2 0 0011.97-.311 41.507 41.507 0 0018.85-8.55 42.444 42.444 0 0012.53-16.669 43.624 43.624 0 001.96-28.092 73.636 73.636 0 00-3.73-9.867s.17.168.38.575l.99 1.796c.56.962 1.03 1.971 1.41 3.018a34.353 34.353 0 011.54 4.31 42.135 42.135 0 011.72 12.43 43.97 43.97 0 01-3.97 17.927 43.401 43.401 0 01-10.89 14.668 42.96 42.96 0 01-20.55 9.89 42.338 42.338 0 01-24.87-3.065c-8.44-3.735-15.46-10.126-20.04-18.23a44.085 44.085 0 01-5.4-26.77c.97-8.613 4.43-16.74 9.95-23.35 5.02-5.994 11.53-10.503 18.86-13.053a42.347 42.347 0 0117.96-2.146 42.486 42.486 0 0117.23 5.547 40.186 40.186 0 019.69 7.784 31.09 31.09 0 012.9 3.496c.69.869 1.31 1.79 1.87 2.754l1.01 1.773c.12.407.21.622.19.646z" fill="#F5F5F5"/><path d="M1480.62 394.157c.35.239-10.61 17.818-24.52 39.252s-25.44 38.63-25.79 38.319c-.35-.312 10.61-17.819 24.49-39.253 13.89-21.434 25.44-38.558 25.82-38.318zm39.41 142.665c-3.64-.873-7.24-1.944-10.77-3.21a470.877 470.877 0 00-25.93-7.352c-10.16-2.563-19.62-4.407-26.43-5.652-3.7-.528-7.38-1.255-11.01-2.179 1-.147 2.02-.147 3.02 0 1.93.167 4.72.479 8.16.982a265.534 265.534 0 0126.64 5.22c10.27 2.563 19.45 5.461 25.93 7.808 3.25 1.173 5.89 2.203 7.68 2.97.96.349 1.87.824 2.71 1.413zm-96.46 9.435a57.729 57.729 0 013.3 9.58c1.81 5.987 4.08 14.369 6.2 23.637 2.12 9.269 3.72 17.842 4.71 23.949a61.046 61.046 0 011.21 10.083 71.36 71.36 0 01-2.36-9.891c-1.25-6.107-3-14.561-5.12-23.949-2.12-9.388-4.22-17.65-5.75-23.709a73.029 73.029 0 01-2.19-9.7zm-43.36-5.006c.38.24-6.83 13.076-16.1 28.739-9.26 15.663-17.09 28.092-17.47 27.853-.37-.24 6.86-13.052 16.13-28.739 9.26-15.687 17.09-28.068 17.44-27.853zm-6.15-138.951c.43-.144 4.91 13.459 10.02 30.367 5.12 16.908 8.96 30.703 8.56 30.823-.4.119-4.9-13.46-10.04-30.368-5.14-16.908-8.94-30.702-8.54-30.822zm-9.08 95.939c0 .455-11.26-.288-25.06-1.629-13.79-1.341-24.94-2.778-24.89-3.209.05-.431 11.27.311 25.06 1.629 13.79 1.317 24.94 2.778 24.89 3.209zm72.59 17.078c4.83-17.909-5.54-36.409-23.17-41.322-17.63-4.913-35.84 5.623-40.67 23.531-4.84 17.909 5.53 36.409 23.16 41.322 17.63 4.913 35.84-5.623 40.68-23.531z" fill="#F5F5F5"/><path d="M1421.61 506.669a50.394 50.394 0 01-4.53-2.754 32.008 32.008 0 00-11.78-3.88 31.209 31.209 0 00-12.38 1.222 43.587 43.587 0 01-5.02 1.676 11.78 11.78 0 014.71-2.73 27.145 27.145 0 0112.91-1.723c4.38.484 8.58 2.027 12.25 4.501 2.66 1.892 4.05 3.545 3.84 3.688z" fill="#EBEBEB"/><path d="M1408.36 486.959c.43.24-3.68 6.586-5.23 15.591-1.56 9.005 0 16.405-.45 16.477-.45.072-2.78-7.352-1.06-16.764 1.72-9.412 6.48-15.591 6.74-15.304z" fill="#EBEBEB"/><path d="M1224.27 672.109l-9.6-17.004-15.06 2.227-12.42-15.854 6.41-15.782-16.79-11.328-12.52 12.837-16.5-2.946-6.69-19.71-20.06 2.155-1.14 17.244-14.94 7.711-15.82-11.376-16.03 11.975 8.34 18.249-9.54 14.609-17.35-.934-4.53 21.721 16.5 6.467 1.42 18.249-17.12 9.987 8.18 18.847 17.71-2.802 11.78 13.771-6.13 17.147 16.22 11.64 12.66-13.915 17.57 4.79 5.46 18.417 19.52-1.341 2.53-16.525 16.73-9.771 13.7 11.112 17.3-13.124-8.74-15.495 8.53-15.519 17.57 1.293 5.37-20.213-15.06-8.286-2.01-18.441 14.55-10.082zm-67.99 59.513a38.978 38.978 0 01-22.33 5.235 39.101 39.101 0 01-21.42-8.248c-6.18-4.842-10.81-11.437-13.31-18.952a40.697 40.697 0 01-.69-23.266c2.04-7.654 6.26-14.523 12.14-19.737a39.17 39.17 0 0120.9-9.556c7.74-1.016 15.6.323 22.59 3.847 7 3.525 12.8 9.077 16.69 15.954 5.21 9.219 6.6 20.164 3.87 30.426-2.73 10.262-9.37 19.002-18.44 24.297z" fill="#F5F5F5"/><path d="M1154.11 685.209a35.028 35.028 0 00-3.21-4.071 20.612 20.612 0 00-12.23-6.107 20.29 20.29 0 00-10.06 1.23 20.564 20.564 0 00-8.26 5.954 19.729 19.729 0 00-3.09 5.102 20.15 20.15 0 00-1.6 6.011c-.49 4.399.42 8.843 2.59 12.682a20.533 20.533 0 009.48 8.656c3.7 1.665 7.8 2.19 11.79 1.509 3.61-.642 7-2.245 9.8-4.646a21.234 21.234 0 006.36-9.812 21.494 21.494 0 00.22-11.742 37.103 37.103 0 00-1.81-4.79l.19.264.47.886c.27.482.51.986.7 1.509.3.685.55 1.389.76 2.107.58 1.98.86 4.04.82 6.107 0 2.746-.54 5.464-1.58 7.999a21.127 21.127 0 01-5.7 8.023 21.07 21.07 0 01-10.11 4.79c-2.01.376-4.06.441-6.09.191-2.13-.216-4.21-.79-6.15-1.7a21.163 21.163 0 01-9.85-8.952 21.59 21.59 0 01-2.64-13.153 21.533 21.533 0 014.88-11.495 21.28 21.28 0 019.21-6.419 20.66 20.66 0 019.72-.958 20.97 20.97 0 017.61 2.635 20.447 20.447 0 014.72 3.807c.51.541.98 1.117 1.41 1.725.34.432.65.888.92 1.365l.52.886.21.407z" fill="#F5F5F5"/><path d="M1172.88 640.544c.18.12-5.21 8.766-12.05 19.303-6.84 10.538-12.52 19.016-12.68 18.896-.17-.12 5.21-8.765 12.04-19.303 6.84-10.537 12.52-18.992 12.69-18.896zm19.37 70.17s-2.02-.575-5.28-1.58c-3.25-1.006-7.75-2.395-12.8-3.617-5.04-1.221-9.64-2.179-12.99-2.778a49.232 49.232 0 01-5.42-1.077c.5-.058.99-.058 1.49 0 .94 0 2.35.239 4 .478 3.4.479 8.04 1.318 13.11 2.563s9.57 2.682 12.78 3.856c1.6.575 2.9 1.077 3.77 1.437.48.172.93.414 1.34.718zm-47.43 4.623a27.906 27.906 0 011.63 4.79c.89 2.946 2 7.041 3.06 11.639 1.06 4.599 1.82 8.766 2.36 11.807.34 1.632.54 3.291.59 4.958a39.307 39.307 0 01-1.11-4.79c-.61-3.018-1.48-7.185-2.52-11.735s-2.07-8.694-2.83-11.663c-.51-1.638-.9-3.311-1.18-5.006zm-21.31-2.443c.19.119-3.37 6.418-7.92 14.105-4.55 7.688-8.39 13.795-8.58 13.699-.19-.096 3.37-6.418 7.92-14.106 2.63-4.71 5.5-9.282 8.58-13.698zm-3.02-68.327c.19 0 2.36 6.61 4.93 14.92a158.639 158.639 0 014.2 15.16 156.043 156.043 0 01-4.93-14.92 158.802 158.802 0 01-4.2-15.16zm-4.48 47.18a198.62 198.62 0 01-24.56-2.395c4.12.007 8.24.279 12.33.814 4.11.26 8.19.788 12.23 1.581zm35.5 9.088c2.75-8.688-1.96-17.996-10.51-20.789-8.55-2.793-17.71 1.987-20.46 10.675-2.75 8.689 1.95 17.996 10.5 20.789 8.56 2.793 17.72-1.986 20.47-10.675z" fill="#F5F5F5"/><path d="M1143.88 695.891s-.85-.575-2.36-1.366a15.926 15.926 0 00-5.82-1.892 15.042 15.042 0 00-6.08.599c-.81.321-1.64.593-2.48.814a5.76 5.76 0 012.36-1.341c2.02-.803 4.2-1.099 6.35-.861a13.36 13.36 0 016.03 2.226c.8.437 1.48 1.061 2 1.821z" fill="#EBEBEB"/><path d="M1137.35 686.19a27.262 27.262 0 00-2.78 15.759 14.475 14.475 0 01-.54-8.215 14.719 14.719 0 013.32-7.544z" fill="#EBEBEB"/><path d="M1338.86 193.465l-15.41-27.302-24.21 3.616-19.9-25.409 10.28-25.362-26.92-18.202-20.04 20.596-26.48-4.789L1205.43 85l-32.18 3.449-1.81 27.661-24.05 12.453L1122 110.29l-25.74 19.159 13.37 29.29-15.3 23.446-27.85-1.509-7.28 34.894 26.5 10.226 2.36 29.314-27.47 16.021 13.13 30.248 28.41-4.502 18.86 22.081-9.86 27.517 26.05 18.68 20.3-22.32 28.29 7.735 8.77 29.553 31.33-2.131 4.06-26.56 26.85-15.662 21.97 17.818 27.56-21.027-14.15-24.859 13.7-24.931 28.29 2.107 8.65-32.451-24.19-13.315-3.23-29.553 23.48-16.094zm-109.12 95.508c-10.87 6.339-23.34 9.263-35.84 8.401-12.5-.861-24.46-5.469-34.39-13.24-9.92-7.772-17.35-18.358-21.35-30.419a65.333 65.333 0 01-1.12-37.344c3.27-12.286 10.06-23.311 19.5-31.681 9.44-8.369 21.11-13.707 33.53-15.339a62.46 62.46 0 0136.27 6.173c11.23 5.656 20.55 14.567 26.78 25.605 8.37 14.799 10.6 32.368 6.22 48.842-4.39 16.474-15.03 30.503-29.6 39.002z" fill="#E0E0E0"/><path d="M1226.15 214.468a59.526 59.526 0 00-5.16-6.49c-5.26-5.431-12.17-8.893-19.61-9.819-5.1-.67-10.27-.112-15.11 1.628a33.225 33.225 0 00-14.29 10.059 33.822 33.822 0 00-7.52 17.842c-.8 7.06.65 14.196 4.13 20.359 3.48 6.164 8.82 11.031 15.22 13.888a31.001 31.001 0 009.43 2.658c3.14.389 6.32.301 9.43-.263a32.714 32.714 0 0014.87-6.739 33.577 33.577 0 009.89-13.139 34.518 34.518 0 001.53-22.177 60.033 60.033 0 00-2.92-7.807c.12.144.22.305.3.479l.78 1.413c.44.763.81 1.565 1.11 2.395.48 1.101.89 2.238 1.2 3.401a33.61 33.61 0 011.37 9.819c-.06 8.026-2.89 15.777-7.99 21.904-5.11 6.126-12.16 10.24-19.95 11.624-3.22.621-6.52.726-9.78.312a31.582 31.582 0 01-9.86-2.707c-6.65-2.949-12.19-7.994-15.81-14.389a34.846 34.846 0 01-4.27-21.127 33.988 33.988 0 012.66-10.011 32.642 32.642 0 015.43-8.549 33.941 33.941 0 0114.85-10.203 32.876 32.876 0 0115.56-1.556c4.3.601 8.45 2.032 12.23 4.215a32.407 32.407 0 017.57 6.154c.86.851 1.65 1.772 2.36 2.755.54.682 1.03 1.411 1.46 2.179l.82 1.413c.04.157.07.317.07.479z" fill="#E0E0E0"/><path d="M1256.38 142.837c.28.192-8.37 14.058-19.33 30.966-10.97 16.908-20.09 30.439-20.32 30.295-.24-.143 8.36-14.058 19.33-30.966 10.96-16.908 20.03-30.487 20.32-30.295zm31.07 112.584a85.993 85.993 0 01-8.49-2.539 346.615 346.615 0 00-20.53-5.796 343.644 343.644 0 00-20.87-4.478 85.92 85.92 0 01-8.67-1.7 7.533 7.533 0 012.36 0c1.53 0 3.72.383 6.43.766 5.42.766 12.9 2.107 21.01 4.119 6.94 1.71 13.79 3.772 20.53 6.179 2.57.934 4.72 1.724 6.06 2.395.77.233 1.5.589 2.17 1.054zm-76.1 7.424a45.726 45.726 0 012.62 7.568 336.78 336.78 0 014.9 18.656c1.7 7.328 2.92 14.082 3.7 18.967.55 2.617.85 5.278.92 7.952a59.533 59.533 0 01-1.79-7.808 799.12 799.12 0 00-4.03-18.824 799.487 799.487 0 00-4.55-18.704 57.854 57.854 0 01-1.77-7.807zm-34.21-3.928c.31.192-5.4 10.322-12.7 22.632-7.31 12.31-13.49 22.177-13.77 21.985-.28-.191 5.4-10.298 12.71-22.632 7.3-12.333 13.48-22.152 13.76-21.985zm-4.85-109.758c.33 0 3.86 10.634 7.92 23.949 4.05 13.316 7.07 24.237 6.74 24.332a254.214 254.214 0 01-7.92-23.949c-4.03-13.243-7.1-24.14-6.74-24.332zm-7.17 75.823a314.4 314.4 0 01-39.42-3.832c6.62.023 13.22.455 19.78 1.294 6.59.434 13.15 1.282 19.64 2.538zm35.99 30.819c13.85-3.957 21.92-18.57 18.03-32.639-3.9-14.069-18.28-22.266-32.13-18.309-13.85 3.956-21.92 18.569-18.03 32.638 3.9 14.069 18.28 22.267 32.13 18.31z" fill="#E0E0E0"/><path d="M1209.82 231.615c-.12.144-1.37-.91-3.59-2.155a23.821 23.821 0 00-19.11-2.108c-2.36.742-3.87 1.509-3.96 1.341a8.746 8.746 0 013.67-2.179 21.405 21.405 0 0110.19-1.366c3.45.379 6.77 1.595 9.66 3.545 2.19 1.509 3.26 2.826 3.14 2.922z" fill="#EBEBEB"/><path d="M1199.35 216.073a65.69 65.69 0 00-4.1 12.31 66.5 66.5 0 00-.38 13.004 27.935 27.935 0 01-.85-13.221 27.724 27.724 0 015.33-12.093zm-336.242 29.649l-4.008-7.185-6.247.934-5.304-6.49 2.664-6.586-7.073-4.79-5.21 5.341-6.86-1.222-2.781-8.214-8.346.91-.471 7.185-6.2 3.209-6.578-4.79-6.671 4.933 3.465 7.592-3.984 6.059-7.214-.383-1.886 9.053 6.86 2.682.613 7.592-7.072 4.143 3.395 7.855 7.355-1.173 4.974 5.867-2.546 7.185 6.743 4.79 5.28-5.796 7.308 2.012 2.358 7.664 8.133-.551 1.037-6.898 6.955-4.047 5.705 4.622 7.19-5.46-3.63-6.442 3.559-6.467 7.285.551 2.239-8.406-6.271-3.449-.825-7.663 6.059-4.167zm-28.289 24.739a16.294 16.294 0 01-9.347 2.241 16.352 16.352 0 01-8.993-3.425 16.764 16.764 0 01-5.592-7.932 17.01 17.01 0 01-.298-9.751 16.801 16.801 0 015.097-8.269 16.384 16.384 0 018.766-3.986 16.272 16.272 0 019.465 1.648 16.61 16.61 0 016.96 6.722 16.998 16.998 0 011.571 12.64c-1.134 4.26-3.875 7.893-7.629 10.112z" fill="#EBEBEB"/><path d="M833.804 251.158s-.495-.623-1.462-1.557a8.648 8.648 0 00-5.021-2.395 8.043 8.043 0 00-4.39.719 8.195 8.195 0 00-3.367 2.952 8.391 8.391 0 00-.261 8.689 8.208 8.208 0 003.182 3.154 8.051 8.051 0 008.544-.479 8.256 8.256 0 002.822-3.491 9.101 9.101 0 00.542-5.58c-.306-1.318-.683-2.012-.589-2.06a4.47 4.47 0 011.037 1.94 8.745 8.745 0 01-.188 6.035 9.19 9.19 0 01-2.676 3.718 8.983 8.983 0 01-4.114 1.934 9.067 9.067 0 01-5.554-.691 9.256 9.256 0 01-4.131-3.834 9.467 9.467 0 01-1.178-5.557 9.415 9.415 0 012.211-5.221 9.148 9.148 0 013.722-2.625 9.024 9.024 0 014.506-.489 8.57 8.57 0 015.233 2.898 4.56 4.56 0 011.132 1.94z" fill="#EBEBEB"/><path d="M841.607 232.598a36.769 36.769 0 01-4.715 8.262 35.872 35.872 0 01-5.658 7.616 36.641 36.641 0 014.715-8.287 36.095 36.095 0 015.658-7.591zm8.063 29.122a39.922 39.922 0 01-7.638-1.701 39.277 39.277 0 01-7.544-2.059 29.029 29.029 0 0115.182 3.76zm-19.732 1.988a17.745 17.745 0 012.358 6.681 17.34 17.34 0 01.754 7.065 24.863 24.863 0 01-1.933-6.777 25.135 25.135 0 01-1.179-6.969zm-8.863-1.03a19.277 19.277 0 01-2.9 6.107 19.55 19.55 0 01-3.96 5.46 18.47 18.47 0 012.899-6.107 19.163 19.163 0 013.961-5.46zm-1.251-28.428a18.134 18.134 0 012.476 6.083 18.921 18.921 0 011.32 6.442 18.135 18.135 0 01-2.499-6.083 17.88 17.88 0 01-1.297-6.442zm-1.861 19.638a11.452 11.452 0 01-5.163 0 11.123 11.123 0 01-5.069-1.125 11.586 11.586 0 015.187 0 10.737 10.737 0 015.045 1.125zm14.167-1.748a6.969 6.969 0 01-.512 7.618 6.772 6.772 0 01-3.198 2.316 6.66 6.66 0 01-3.925.121 6.758 6.758 0 01-3.331-2.114 6.934 6.934 0 01-1.613-3.638 6.969 6.969 0 01.648-3.935 6.832 6.832 0 012.69-2.907 6.69 6.69 0 015.138-.676 6.724 6.724 0 012.366 1.193 6.837 6.837 0 011.737 2.022z" fill="#EBEBEB"/><path d="M829.538 255.589c-.236.263-1.556-.695-3.395-.886-1.838-.192-3.347.431-3.512.143-.165-.287 1.296-1.628 3.63-1.389 2.334.24 3.56 1.94 3.277 2.132z" fill="#E0E0E0"/><path d="M826.826 251.565c.283.216-.33 1.557-.612 3.281-.283 1.724-.213 3.185-.543 3.281-.33.096-1.037-1.461-.66-3.496.377-2.036 1.556-3.281 1.815-3.066z" fill="#E0E0E0"/><path d="M1515.74 216.217l-6.5-11.496-10.16 1.509-8.42-10.705 4.24-10.777-11.34-7.664-8.46 8.694-11.15-1.988-4.41-13.34-13.55 1.461-.78 11.663-10.09 5.197-10.7-7.687-10.85 8.022 5.64 12.334-6.46 9.987-11.79-.647-3.04 14.705 11.15 4.359.97 12.357-11.58 6.73 5.52 12.741 11.97-1.892 7.99 9.124-4.14 11.568 10.96 7.879 8.55-9.412 11.79 3.257 3.7 12.454 13.2-.887 1.7-11.184 11.32-6.61 9.26 7.496 11.79-8.861-5.92-10.465 5.78-10.49 11.79.886 3.65-13.675-10.14-5.484-1.36-12.454 9.87-6.705zm-45.97 40.234a26.32 26.32 0 01-15.09 3.54 26.436 26.436 0 01-14.49-5.578 27.154 27.154 0 01-9-12.817 27.55 27.55 0 01-.47-15.733 27.173 27.173 0 018.22-13.347 26.451 26.451 0 0114.12-6.46c5.24-.687 10.56.219 15.29 2.604a26.924 26.924 0 0111.28 10.79c3.5 6.224 4.42 13.603 2.58 20.521-1.85 6.917-6.32 12.809-12.44 16.384v.096z" fill="#EBEBEB"/><path d="M1468.31 224.958c-.12 0-.71-1.053-2.36-2.634a14.177 14.177 0 00-8.2-3.975c-2.5-.311-5.04.092-7.33 1.164a13.601 13.601 0 00-5.63 4.903 13.962 13.962 0 00-2.26 7.178c-.08 2.559.54 5.091 1.8 7.312a13.673 13.673 0 005.3 5.264 13.43 13.43 0 007.24 1.644c2.52-.145 4.95-.999 7.01-2.466a13.735 13.735 0 004.69-5.84c1.24-2.898 1.51-6.13.76-9.197-.57-2.155-1.23-3.257-1.11-3.329.2.232.38.49.52.767.43.754.78 1.558 1.03 2.395.97 3.144.83 6.53-.4 9.579a14.686 14.686 0 01-4.31 5.88 14.387 14.387 0 01-6.55 3.053c-2.86.537-5.81.178-8.47-1.03a14.6 14.6 0 01-6.83-6.189 14.909 14.909 0 01-1.82-9.114 14.74 14.74 0 013.39-7.951 14.618 14.618 0 015.91-4.218 14.348 14.348 0 017.18-.811c3.23.475 6.21 2.074 8.41 4.526.6.646 1.13 1.361 1.56 2.131.2.296.36.619.47.958z" fill="#EBEBEB"/><path d="M1480.99 194.782a95.59 95.59 0 01-7.85 13.267 96.831 96.831 0 01-8.86 12.55 96.578 96.578 0 017.85-13.244 99.41 99.41 0 018.86-12.573zm13.11 47.419c0 .36-5.51-1.484-12.3-3.137-6.79-1.652-12.4-2.61-12.38-2.97 4.28-.066 8.55.523 12.66 1.749a42.83 42.83 0 0112.02 4.358zm-32.06 3.137a42.616 42.616 0 013.51 10.969 42.815 42.815 0 011.61 11.424 74.818 74.818 0 01-2.81-11.137 74.318 74.318 0 01-2.31-11.256zm-14.29-1.652a49.205 49.205 0 01-5.06 9.723 47.088 47.088 0 01-6.11 9.077 49.783 49.783 0 015.07-9.723 47.5 47.5 0 016.1-9.077zm-2.16-46.197a47.775 47.775 0 013.67 9.986 48.594 48.594 0 012.5 10.37 46.51 46.51 0 01-3.68-9.986 46.732 46.732 0 01-2.49-10.37zm-3.02 31.899c-2.79.362-5.61.298-8.37-.192-2.8-.061-5.57-.537-8.23-1.413 5.55-.272 11.11.269 16.5 1.605h.1zm23.05-2.849a11.32 11.32 0 01-.81 12.404 11.038 11.038 0 01-5.2 3.775 10.88 10.88 0 01-6.4.201 10.98 10.98 0 01-5.42-3.442 11.288 11.288 0 01-2.62-5.923c-.28-2.194.08-4.424 1.05-6.406.97-1.982 2.5-3.628 4.39-4.729a10.832 10.832 0 0112.19.833c1.15.896 2.11 2.013 2.82 3.287z" fill="#EBEBEB"/><path d="M1461.38 232.19a27.473 27.473 0 00-5.47-1.844 28.49 28.49 0 00-5.75.599 6.452 6.452 0 012.7-1.68 6.363 6.363 0 013.17-.164c3.65.431 5.66 2.922 5.35 3.089z" fill="#E0E0E0"/><path d="M1457 225.653c.28.191-.9 2.395-1.39 5.245-.5 2.85-.17 5.316-.5 5.412a7.417 7.417 0 01-.94-2.749c-.13-.972-.05-1.96.21-2.903.57-3.209 2.36-5.245 2.62-5.005z" fill="#E0E0E0"/><path d="M674.724 762.469l-6.506-11.495-10.161 1.532-8.416-10.729 4.338-10.681-11.34-7.64-8.463 8.67-11.151-1.988-4.526-13.388-13.555 1.437-.778 11.664-10.09 5.22-10.703-7.687-10.844 8.023 5.634 12.333-6.436 9.867-11.787-.622-3.065 14.68 11.175 4.359.943 12.358-11.552 6.73 5.517 12.74 11.976-1.892 7.921 9.317-4.102 11.639 10.985 7.855 8.558-9.412 11.787 3.281 3.701 12.43 13.202-.887 1.697-11.184 11.316-6.61 9.265 7.52 11.787-8.885-5.917-10.465 5.776-10.49 11.787.886 3.654-13.675-10.208-5.604-1.344-12.453 9.925-6.754zm-45.97 40.234a26.347 26.347 0 01-15.098 3.54 26.44 26.44 0 01-14.489-5.578 27.103 27.103 0 01-8.995-12.816 27.518 27.518 0 01-.47-15.734 27.174 27.174 0 018.214-13.347 26.507 26.507 0 0114.13-6.46 26.325 26.325 0 0115.281 2.604 26.863 26.863 0 0111.281 10.79 27.486 27.486 0 012.614 20.573c-1.848 6.939-6.332 12.848-12.468 16.428z" fill="#EBEBEB"/><path d="M627.363 771.33c-.118 0-.707-1.078-2.357-2.658a14.219 14.219 0 00-8.204-3.976c-2.502-.31-5.04.093-7.329 1.164a13.641 13.641 0 00-5.633 4.903 13.979 13.979 0 00-.463 14.491 13.68 13.68 0 005.309 5.263 13.403 13.403 0 007.239 1.644 13.44 13.44 0 007.009-2.466 13.746 13.746 0 004.688-5.84 14.771 14.771 0 00.755-9.22c-.566-2.156-1.226-3.257-1.108-3.305.209.219.384.469.518.742.427.76.775 1.562 1.038 2.395.963 3.144.822 6.53-.401 9.58a14.799 14.799 0 01-3.206 4.872 14.561 14.561 0 01-4.816 3.227 14.376 14.376 0 01-11.309-.172 14.89 14.89 0 01-6.837-6.227 14.973 14.973 0 01-1.815-9.1 14.886 14.886 0 011.768-5.591 14.658 14.658 0 013.777-4.445 14.409 14.409 0 015.186-2.593 14.295 14.295 0 015.771-.328 13.842 13.842 0 018.44 4.503 10.549 10.549 0 011.556 2.155c.199.298.342.631.424.982z" fill="#EBEBEB"/><path d="M639.975 741.154a97.045 97.045 0 01-7.85 13.244 97.504 97.504 0 01-8.864 12.549 192.492 192.492 0 0116.714-25.793zm13.108 47.443c-.141.336-5.516-1.509-12.306-3.161-6.789-1.653-12.423-2.61-12.376-2.97a42.073 42.073 0 0112.659 1.749 41.686 41.686 0 0112.023 4.382zm-32.062 3.113a41.296 41.296 0 013.489 10.945 42.016 42.016 0 011.627 11.423 261.629 261.629 0 01-5.116-22.368zm-14.403-1.676a49.451 49.451 0 01-5.068 9.723 46.318 46.318 0 01-6.106 9.077 50.284 50.284 0 015.068-9.724 48.185 48.185 0 016.106-9.076zm-2.052-46.174a46.09 46.09 0 013.678 9.987 48.159 48.159 0 012.499 10.346 45.364 45.364 0 01-3.678-9.987 46.824 46.824 0 01-2.499-10.346zm-3.016 31.876a28.023 28.023 0 01-8.369-.167 28.695 28.695 0 01-8.251-1.342 57.073 57.073 0 0116.502 1.605l.118-.096zm23.055-2.85a11.328 11.328 0 01-.816 12.404 11.017 11.017 0 01-5.203 3.775 10.842 10.842 0 01-6.391.201 10.99 10.99 0 01-5.423-3.442 11.273 11.273 0 01-2.626-5.922 11.34 11.34 0 011.058-6.407 11.101 11.101 0 014.384-4.728 10.824 10.824 0 018.349-1.106 10.916 10.916 0 013.846 1.938 11.107 11.107 0 012.822 3.287z" fill="#EBEBEB"/><path d="M620.29 778.538a27.55 27.55 0 00-5.469-1.844c-1.934-.009-3.863.2-5.752.623a6.288 6.288 0 012.698-1.699 6.197 6.197 0 013.172-.145 6.318 6.318 0 013.062.836 6.439 6.439 0 012.289 2.229z" fill="#E0E0E0"/><path d="M615.953 772c.306.192-.896 2.395-1.367 5.245-.472 2.85-.165 5.316-.519 5.412a7.261 7.261 0 01-.924-2.74 7.295 7.295 0 01.217-2.888c.566-3.209 2.357-5.197 2.593-5.029z" fill="#E0E0E0"/></g></g><defs><clipPath id="clip0"><path fill="#fff" d="M0 0h2500v966H0z"/></clipPath></defs></svg>