<svg width="39" height="32" fill="none" xmlns="http://www.w3.org/2000/svg"><path fill-rule="evenodd" clip-rule="evenodd" d="M38.071 30.567h-.71V19.821a.74.74 0 00-.318-.623.56.56 0 00-.632.009l-2.394 1.641v-1.027a.74.74 0 00-.317-.623.56.56 0 00-.632.009l-2.394 1.641v-1.027a.74.74 0 00-.318-.624.56.56 0 00-.631.01l-2.394 1.641v-1.027a.74.74 0 00-.318-.624.56.56 0 00-.631.01l-2.394 1.641v-1.027a.74.74 0 00-.318-.624.56.56 0 00-.631.01l-2.395 1.641v-1.027a.74.74 0 00-.317-.623.56.56 0 00-.632.009l-3.343 2.292a.743.743 0 00-.305.614v8.454h-.777l-.37-10.012c-.013-.355-.25-.64-.551-.68L13.976 4.49H14c.346 0 .627-.321.627-.717V.716C14.627.321 14.346 0 14 0H9.988c-.346 0-.627.32-.627.716v3.057c0 .396.28.717.627.717h.024l-.374 15.384c-.301.041-.539.326-.552.681l-.368 10.012h-.804l-.368-10.012c-.013-.355-.25-.64-.552-.68L6.621 4.49h.024c.346 0 .627-.321.627-.717V.716C7.272.321 6.99 0 6.645 0H2.633c-.346 0-.627.32-.627.716v3.057c0 .396.28.717.627.717h.024l-.374 15.384c-.301.041-.539.326-.552.681l-.368 10.012H.627c-.346 0-.627.32-.627.717 0 .395.28.716.627.716H38.07c.346 0 .627-.32.627-.716 0-.396-.28-.717-.627-.717zm-20.77-8.048l2.09-1.433v1.027a.74.74 0 00.318.624.56.56 0 00.631-.01l2.394-1.64v1.026a.74.74 0 00.318.624.56.56 0 00.632-.01l2.393-1.64v1.026a.74.74 0 00.318.624.56.56 0 00.631-.01l2.395-1.64v1.026a.74.74 0 00.317.624.56.56 0 00.632-.01l2.394-1.64v1.026a.74.74 0 00.318.624.56.56 0 00.631-.01l2.394-1.64v9.48H17.3V22.52zM10.615 1.433h2.758v1.624h-2.758V1.433zm2.107 3.057l.373 15.379h-2.203l.374-15.38h1.456zM10.314 21.3h3.36l.34 9.266h-4.04l.34-9.265zM3.26 1.434h2.758v1.624H3.26V1.433zM5.366 4.49l.374 15.379H3.537l.374-15.38h1.455zM2.96 21.3h3.36l.34 9.266H2.619l.34-9.265zm17.727 6.21H19.35c-.346 0-.627.32-.627.716 0 .396.28.716.627.716h1.337c.346 0 .627-.32.627-.716 0-.396-.28-.716-.627-.716zm2.006 0h1.338c.346 0 .627.32.627.716 0 .396-.281.716-.627.716h-1.338c-.346 0-.627-.32-.627-.716 0-.396.281-.716.627-.716zm4.68 0h-1.337c-.346 0-.627.32-.627.716 0 .396.281.716.627.716h1.338c.346 0 .627-.32.627-.716 0-.396-.281-.716-.627-.716zm2.007 0h1.337c.346 0 .627.32.627.716 0 .396-.28.716-.627.716H29.38c-.347 0-.627-.32-.627-.716 0-.396.28-.716.627-.716zm4.68 0h-1.337c-.346 0-.627.32-.627.716 0 .396.28.716.627.716h1.337c.347 0 .627-.32.627-.716 0-.396-.28-.716-.627-.716zm-14.71-3.057h1.337c.346 0 .627.32.627.716 0 .396-.28.717-.627.717H19.35c-.346 0-.627-.32-.627-.716 0-.396.28-.717.627-.717zm4.68 0h-1.337c-.346 0-.627.32-.627.716 0 .396.281.717.627.717h1.338c.346 0 .627-.32.627-.716 0-.396-.281-.717-.627-.717zm2.006 0h1.338c.346 0 .627.32.627.716 0 .396-.281.717-.627.717h-1.338c-.346 0-.627-.32-.627-.716 0-.396.281-.717.627-.717zm4.681 0H29.38c-.347 0-.627.32-.627.716 0 .396.28.717.627.717h1.337c.346 0 .627-.32.627-.716 0-.396-.28-.717-.627-.717zm3.343 1.433h-1.337c-.346 0-.627-.32-.627-.716 0-.396.28-.717.627-.717h1.337c.347 0 .627.32.627.716 0 .396-.28.717-.627.717z" fill="#D7D7D7"/></svg>