<svg width="57" height="47" fill="none" xmlns="http://www.w3.org/2000/svg"><path fill-rule="evenodd" clip-rule="evenodd" d="M55.846 44.838h-1.043V29.075c0-.379-.178-.728-.466-.915a.822.822 0 00-.926.014l-3.512 2.407v-1.506c0-.379-.178-.728-.466-.915a.822.822 0 00-.926.014l-3.512 2.407v-1.506c0-.379-.178-.728-.466-.915a.821.821 0 00-.926.014L40.09 30.58v-1.506c0-.379-.178-.728-.466-.915a.821.821 0 00-.926.014l-3.512 2.407v-1.506c0-.379-.178-.728-.466-.915a.821.821 0 00-.926.014l-3.512 2.408v-1.507c0-.379-.178-.728-.467-.915a.821.821 0 00-.926.014l-4.904 3.363c-.277.19-.446.532-.446.9v12.401h-1.142l-.54-14.686c-.019-.52-.367-.939-.809-1L20.5 6.587h.036c.508 0 .92-.47.92-1.051V1.05c0-.58-.412-1.051-.92-1.051H14.65c-.508 0-.92.47-.92 1.05v4.485c0 .58.412 1.05.92 1.05h.035l-.548 22.568c-.442.06-.79.478-.81.999l-.54 14.686H11.61l-.54-14.686c-.019-.52-.367-.939-.809-1l-.55-22.564h.036c.508 0 .92-.47.92-1.051V1.05c0-.58-.412-1.051-.92-1.051H3.862c-.508 0-.92.47-.92 1.05v4.485c0 .58.412 1.05.92 1.05h.035l-.547 22.57c-.442.06-.79.478-.81.999L2 44.838H.92c-.507 0-.919.47-.919 1.051 0 .58.412 1.051.92 1.051h54.925c.508 0 .92-.47.92-1.05 0-.581-.412-1.052-.92-1.052zM25.379 33.033l3.065-2.102v1.507c0 .378.178.727.466.914a.821.821 0 00.926-.013l3.512-2.408v1.506c0 .38.178.728.467.915a.821.821 0 00.926-.013l3.511-2.408v1.506c0 .38.178.729.466.915a.821.821 0 00.926-.013l3.512-2.408v1.507c0 .378.178.727.467.914a.822.822 0 00.926-.013l3.511-2.408v1.507c0 .378.178.727.467.914a.822.822 0 00.926-.013l3.511-2.408v13.907H25.38V33.033zM15.57 2.102h4.046v2.382H15.57V2.102zm3.09 4.484l.55 22.559h-3.232l.548-22.56h2.135zm-3.531 24.66h4.929l.5 13.592h-5.929l.5-13.591zM4.78 2.103h4.046v2.382H4.782V2.102zm3.09 4.484l.55 22.559H5.188l.548-22.56h2.135zM4.34 31.246h4.929l.5 13.592H3.84l.5-13.591zm26.004 9.109h-1.961c-.508 0-.92.47-.92 1.05 0 .58.412 1.051.92 1.051h1.961c.508 0 .92-.47.92-1.05 0-.581-.412-1.051-.92-1.051zm2.943 0h1.961c.508 0 .92.47.92 1.05 0 .58-.412 1.051-.92 1.051h-1.961c-.508 0-.92-.47-.92-1.05 0-.581.412-1.051.92-1.051zm6.865 0h-1.961c-.508 0-.92.47-.92 1.05 0 .58.412 1.051.92 1.051h1.961c.508 0 .92-.47.92-1.05 0-.581-.412-1.051-.92-1.051zm2.943 0h1.961c.508 0 .92.47.92 1.05 0 .58-.412 1.051-.92 1.051h-1.961c-.508 0-.92-.47-.92-1.05 0-.581.412-1.051.92-1.051zm6.866 0h-1.962c-.508 0-.92.47-.92 1.05 0 .58.412 1.051.92 1.051h1.962c.508 0 .92-.47.92-1.05 0-.581-.413-1.051-.92-1.051zM28.383 35.87h1.961c.508 0 .92.47.92 1.051 0 .58-.412 1.05-.92 1.05h-1.961c-.508 0-.92-.47-.92-1.05 0-.58.412-1.05.92-1.05zm6.865 0h-1.961c-.508 0-.92.47-.92 1.051 0 .58.412 1.05.92 1.05h1.961c.508 0 .92-.47.92-1.05 0-.58-.412-1.05-.92-1.05zm2.943 0h1.961c.508 0 .92.47.92 1.051 0 .58-.412 1.05-.92 1.05h-1.961c-.508 0-.92-.47-.92-1.05 0-.58.412-1.05.92-1.05zm6.865 0h-1.961c-.508 0-.92.47-.92 1.051 0 .58.412 1.05.92 1.05h1.961c.508 0 .92-.47.92-1.05 0-.58-.412-1.05-.92-1.05zm4.905 2.102h-1.962c-.508 0-.92-.47-.92-1.051 0-.58.412-1.05.92-1.05h1.962c.508 0 .92.47.92 1.05 0 .58-.413 1.05-.92 1.05z" fill="#115AD4"/></svg>