<svg width="763" height="846" fill="none" xmlns="http://www.w3.org/2000/svg"><path d="M47.69 212.287v107.321h154.167l5.556-106.569-159.723-.752z" fill="#E0E0E0"/><path d="M207.413 213.024v106.357H53.245V213.024h154.168z" fill="#fff"/><path d="M52.527 320.115h155.671V212.271H52.576l-.049 107.844zm154.152-1.454H53.981V213.824H206.68v104.837z" fill="#E0E0E0"/><path d="M69.945 226.242h120.769v79.935H69.944v-79.935z" fill="#fff"/><path d="M69.945 226.243h8.954l24.886.098 86.929.179-.343-.359v79.919l.375-.376H69.977l.311.31c0-24.33-.13-44.265-.163-58.154 0-6.944 0-12.369-.082-16.078v-5.703 5.572c0 3.709 0 9.102-.082 16.013 0 13.938-.082 33.939-.147 58.35v.295h.294l120.769.081h.376v-80.638h-.36l-87.157.164-24.804.098h-8.775l-.212.229z" fill="#E0E0E0"/><path d="M207.413 212.73c-.943.44-1.831.988-2.647 1.634-1.634 1.144-3.725 2.761-6.046 4.608a130.238 130.238 0 00-5.8 4.902 12.049 12.049 0 00-2.206 2.255 106.61 106.61 0 008.48-6.536 82.27 82.27 0 008.219-6.863zm-154.167.31a76.025 76.025 0 008.17 6.895 75.626 75.626 0 008.58 6.307 74.705 74.705 0 00-8.171-6.895 70.291 70.291 0 00-8.579-6.307z" fill="#E0E0E0"/><path d="M53.376 319.397l17.19-13.922-17.19 13.922z" fill="#fff"/><path d="M70.565 305.475a82.447 82.447 0 00-8.84 6.667 83.307 83.307 0 00-8.35 7.255 79.843 79.843 0 008.84-6.667 80.934 80.934 0 008.35-7.255zm136.848 13.921a71.133 71.133 0 00-8.023-6.847 73.325 73.325 0 00-8.497-6.225 74.198 74.198 0 008.023 6.83 73.348 73.348 0 008.497 6.242zm-41.225-68.252v26.765H90.207v-26.765h75.981zm327.68-219.02s.131 0 .376-.114l1.095-.425 4.118-1.634 15.098-6.536 49.69-21.65 1.715-.752h-.359l48.693 20.817L629 28.007l4.02 1.634c.458.21.934.38 1.421.506a10.723 10.723 0 00-1.356-.67l-3.938-1.797-14.706-6.536L565.862.082 565.683 0l-.18.082-1.716.751-49.575 21.896-15 6.732-4.053 1.863-1.046.506a2.86 2.86 0 00-.245.294z" fill="#E0E0E0"/><path d="M416.369 25h319.104v238.94H416.369V25z" fill="#E0E0E0"/><path d="M426.32 36.11h297.992v218.008H426.32V36.11z" fill="#FAFAFA"/><path d="M658.495 131.406s-.31 36.601-2.173 47.762l-45.899-2.174s4.036-35.948 2.484-45.588h45.588z" fill="#E0E0E0"/><path d="M635.897 136.537h-.67a10.818 10.818 0 00-1.912.098 11.02 11.02 0 00-2.925.866 9.82 9.82 0 00-3.17 2.517 11.167 11.167 0 00-2.206 4.428 10.687 10.687 0 00.49 5.67c.346.979.778 1.925 1.291 2.827.507.931 1.03 1.846 1.471 2.859a24.379 24.379 0 011.846 6.536v.147h.147l4.526.082h4.919v-.114a13.56 13.56 0 012.189-6.275c.556-.931 1.161-1.814 1.732-2.712.572-.899 1.161-1.634 1.634-2.631a8.765 8.765 0 00.719-5.588 11.8 11.8 0 00-1.764-4.576 9.167 9.167 0 00-2.991-2.696 11.194 11.194 0 00-2.81-1.078 12.076 12.076 0 00-1.879-.311h-.654.654c.623.076 1.24.196 1.846.36.967.252 1.895.631 2.762 1.127a8.78 8.78 0 012.876 2.664 11.631 11.631 0 011.634 4.493 8.567 8.567 0 01-.719 5.409 30.525 30.525 0 01-1.634 2.598c-.556.866-1.177 1.765-1.732 2.712a13.822 13.822 0 00-2.255 6.438l.163-.18h-9.281l.163.164a24.814 24.814 0 00-1.895-6.618c-.441-1.013-.98-1.977-1.487-2.892-.52-.879-.947-1.81-1.275-2.778a10.274 10.274 0 01-.441-5.604 10.869 10.869 0 012.108-4.331 9.706 9.706 0 013.072-2.5 10.67 10.67 0 012.86-.898 14.48 14.48 0 011.895-.164h.67l.033-.049z" fill="#fff"/><path d="M633.527 162.027a.902.902 0 000-.147v-.425c0-.376.147-.931.262-1.634.196-1.422.506-3.497.719-6.062 0-.637 0-1.307.114-2.01.115-.703 0-1.438 0-2.206a6.04 6.04 0 00-.523-2.287 3.378 3.378 0 00-1.748-1.749 2.299 2.299 0 00-1.321-.139 2.299 2.299 0 00-1.179.613 1.779 1.779 0 00-.539 1.258c.015.475.181.933.474 1.307.288.389.67.698 1.111.899a5.49 5.49 0 001.356.441c.951.205 1.919.32 2.892.343.977.034 1.956-.015 2.925-.147a4.905 4.905 0 001.373-.392 3.64 3.64 0 001.16-.817c.328-.341.559-.764.67-1.225a2.194 2.194 0 00-.164-1.373 1.842 1.842 0 00-.964-.931 1.71 1.71 0 00-1.307 0 2.414 2.414 0 00-.98.833 3.25 3.25 0 00-.474 1.144c-.153.77-.235 1.552-.245 2.337 0 1.503-.147 2.908-.213 4.199-.131 2.565-.229 4.64-.31 6.095v2.059a.902.902 0 000 .147.517.517 0 000-.147v-.425c0-.18 0-.932.114-1.634 0-1.438.196-3.53.343-6.095 0-1.275.147-2.68.245-4.199.013-.779.09-1.555.229-2.321.093-.39.253-.76.474-1.095a2.5 2.5 0 01.915-.784 1.63 1.63 0 011.209 0c.396.162.713.473.882.866.202.393.259.844.164 1.275a2.561 2.561 0 01-.637 1.16 4.233 4.233 0 01-2.468 1.176c-1.915.24-3.857.174-5.751-.196a5.587 5.587 0 01-1.34-.441 2.956 2.956 0 01-1.046-.85 2.036 2.036 0 01-.441-1.225 1.529 1.529 0 01.49-1.16 2.21 2.21 0 012.353-.458c.72.336 1.298.915 1.634 1.634a6.14 6.14 0 01.523 2.255v2.173c0 .687 0 1.373-.098 2.026-.196 2.566-.49 4.625-.686 6.046 0 .719-.164 1.258-.213 1.634v.425a.493.493 0 01.016.229z" fill="#fff"/><path d="M639.573 162.273s0 .572-.114 1.52c-.115.947-.131 2.434-.213 3.97v-.098l-3.088 3.562h.147l-3.562-.196h.147l-1.781-2.173-.882-1.095v.147c0-2.091.098-4.085.147-5.882l-.196.18h9.314a3.238 3.238 0 00-.638 0l-1.879-.098-6.797-.262h-.18v.196c0 1.814-.114 3.791-.163 5.883l.882 1.078 1.781 2.173 3.578.18h.099l3.022-3.611v-4.085c.163-.452.288-.917.376-1.389z" fill="#fff"/><path d="M630.358 167.435l.344-.147c.302-.138.613-.258.931-.359a8.815 8.815 0 013.268-.49 8.97 8.97 0 013.186.686c.308.123.608.265.899.425l.343.163a.972.972 0 00-.31-.212 7.805 7.805 0 00-.883-.474 8.747 8.747 0 00-3.268-.735 9.01 9.01 0 00-3.268.539 7.707 7.707 0 00-.915.408 2.082 2.082 0 00-.327.196zm0-1.421l.343-.147c.212-.098.523-.229.931-.376a9.02 9.02 0 016.405.197c.393.163.703.31.915.424.213.115.311.18.327.164l-.31-.213a6.959 6.959 0 00-.883-.457 8.45 8.45 0 00-3.268-.736 8.172 8.172 0 00-3.267.54 6.834 6.834 0 00-.932.408 1.663 1.663 0 00-.261.196zm.081-1.372s.131 0 .343-.131c.212-.131.523-.229.931-.376a9.26 9.26 0 013.268-.49 8.885 8.885 0 013.268.686c.393.164.703.311.915.425.1.071.21.127.327.164l-.31-.213a5.237 5.237 0 00-.883-.457 8.657 8.657 0 00-3.268-.752 8.925 8.925 0 00-3.268.539c-.314.121-.62.263-.915.425l-.408.18z" fill="#fff"/><path d="M709.623 71.521s-.31 36.602-2.173 47.762l-45.899-2.157s4.036-35.948 2.483-45.605h45.589z" fill="#EBEBEB"/><path d="M671.012 86.896a132.365 132.365 0 0015.376 1.372c5.127.464 10.278.627 15.424.49a130.008 130.008 0 00-15.375-1.388 134.243 134.243 0 00-15.425-.474zm-.081 7.761a137.246 137.246 0 0015.376 1.373c5.128.453 10.278.611 15.424.474a132.346 132.346 0 00-15.375-1.373 129.942 129.942 0 00-15.425-.474zm7.81 7.599c2.872.63 5.802.959 8.742.981 2.928.297 5.879.297 8.807 0a43.718 43.718 0 00-8.758-.981 43.48 43.48 0 00-8.791 0z" fill="#fff"/><path d="M711.861 179.201s-.31 36.585-2.173 47.761l-45.899-2.173s4.036-35.948 2.484-45.588h45.588z" fill="#EBEBEB"/><path d="M673.119 194.577a136.752 136.752 0 0015.376 1.372c5.128.454 10.278.612 15.425.474a132.408 132.408 0 00-15.376-1.372 125.665 125.665 0 00-15.425-.474zm-.016 7.744a132.89 132.89 0 0015.376 1.373c5.128.463 10.279.621 15.425.474a132.19 132.19 0 00-15.376-1.373 134.139 134.139 0 00-15.425-.474zm7.811 7.616c2.873.62 5.802.949 8.742.981a44.23 44.23 0 008.807 0 43.062 43.062 0 00-8.758-.964 43.407 43.407 0 00-8.791-.017z" fill="#fff"/><path d="M586.354 81.226l-4.543 105.556-131.782 1.585 5.915-105.752 130.41-1.389z" fill="#EBEBEB"/><path d="M456.973 80.474h130.9v98.841h-130.9v-98.84z" fill="#F5F5F5"/><path d="M456.958 179.314v-7.108c0-4.64 0-11.438.082-20 0-17.239.114-41.896.196-71.733l-.36.36H587.76l-.441-.441v98.84l.408-.408-94.412.196-26.847.114h-9.624 9.444l26.765.098 94.674.196h.409V79.722H456.419v.376c.082 29.934.147 54.673.196 71.895 0 8.579 0 15.295.098 19.919v5.196c0 1.209.245 2.206.245 2.206z" fill="#E0E0E0"/><path d="M519.033 101.406h53.056v66.781h-53.056v-66.781z" fill="#F5F5F5"/><path d="M519.05 168.187a2.804 2.804 0 000-.343v-4.591c0-3.268 0-7.86.114-13.71 0-11.748.115-28.382.196-48.137l-.392.408h53.056c.098.098-.849-.849-.457-.441v66.749l.376-.376-38.416.196-10.784.098h-3.856c.304.024.61.024.915 0h2.794l10.686.098 38.661.196h.375v-66.896l-.457-.457h-53.465v.392c0 19.87.147 36.585.196 48.399 0 5.817 0 10.409.115 13.611v4.478c0 .228.343.343.343.326z" fill="#E0E0E0"/><path d="M468.38 86.128h101.683v9.624H468.38v-9.624z" fill="#F5F5F5"/><path d="M468.395 95.752a2.976 2.976 0 000-.654V93.22c0-1.634 0-4.036.098-7.091l-.18.18c17.157.163 56.243.277 101.684.277l-.457-.457v9.591l.457-.457-72.026.196-21.635.13h-7.974 7.762l21.52.131 72.419.18h.441v-9.74l-.441-.44c-45.442 0-84.527.097-101.684.26h-.18v.18c0 3.105.033 5.507.098 7.206v1.83c0 .474.098.572.098.556z" fill="#E0E0E0"/><path d="M468.363 101.406h44.167v40.245h-44.167v-40.245z" fill="#F5F5F5"/><path d="M468.396 141.652a5.181 5.181 0 000-.768v-2.189c0-1.961 0-4.722.098-8.17 0-7.075.115-17.075.196-29.085l-.392.392h44.118l-.441-.441v40.294l.539-.474-31.863.196-9.036.115h-3.268c.256.023.513.023.768 0h2.337l8.954.098 32.108.212h.392v-40.409l-.457-.457h-44.494v.376c.082 12.108.147 22.189.196 29.412 0 3.431 0 6.16.098 8.17v2.107c.026.212.075.421.147.621z" fill="#E0E0E0"/><path d="M468.363 147.958h44.167v20.229h-44.167v-20.229z" fill="#F5F5F5"/><path d="M468.395 168.187a9.748 9.748 0 000-1.47v-4.053c0-3.578.114-8.562.179-14.706l-.326.327 44.118.131c.408.408-.54-.556-.441-.441v20.18l.424-.425-31.585.196-9.199.131h-3.383c.267.023.535.023.801 0h2.386l9.117.114 31.863.196h.425v-20.605c.098 0-.866-.866-.457-.457l-44.118.114h-.327v.311c.082 6.225.131 11.291.18 14.902 0 1.634 0 2.99.081 3.987.045.529.133 1.053.262 1.568z" fill="#E0E0E0"/><path d="M520.34 101.521c16.422 22.696 35.327 43.987 51.749 66.667l-51.749-66.667z" fill="#fff"/><path d="M572.089 168.189a2.833 2.833 0 00-.441-.736l-1.373-2.042c-1.225-1.765-3.039-4.265-5.31-7.321-4.576-6.143-11.095-14.444-18.399-23.513s-13.906-17.304-18.595-23.333l-5.523-7.141-1.52-1.944c-.359-.425-.555-.654-.588-.638.11.271.258.524.441.752.376.556.817 1.225 1.373 2.026 1.225 1.765 3.039 4.265 5.31 7.337 4.559 6.127 11.095 14.428 18.399 23.513s13.905 17.288 18.595 23.317l5.523 7.157c.621.768 1.111 1.405 1.52 1.928.408.523.555.654.588.638z" fill="#E0E0E0"/><path d="M519.05 168.187c.196.163 12.222-14.706 26.879-33.105 14.657-18.399 26.373-33.513 26.144-33.677-.229-.163-12.222 14.706-26.879 33.121-14.657 18.415-26.357 33.514-26.144 33.661zm62.762-66.634a8.305 8.305 0 009.92 8.141 8.299 8.299 0 006.049-11.318 8.299 8.299 0 00-15.969 3.177zm-135.77-20.147a8.301 8.301 0 1016.603-.001 8.301 8.301 0 00-16.603 0z" fill="#E0E0E0"/><path d="M185.159 776.999v37.206h6.209v4.052h-6.209v24.902H69.031v-22.663h8.594v-4.902h-8.594v-7.402h-3.824v-3.366h4.543v-27.778l115.409-.049z" fill="#F5F5F5"/><path d="M99.863 777.113v65.621H69.03v-22.663h8.594v-4.51l-8.594.147v-7.402h-3.906l.082-3.824 4.543-.114v-27.369l30.114.114z" fill="#E0E0E0"/><path d="M97.673 817.719c0 .228 21.014.408 46.929.408 25.915 0 46.928-.18 46.928-.408 0-.229-21.013-.409-46.928-.409-25.915 0-46.929.18-46.929.409zm0-3.776c0 .229 21.014.408 46.929.408 25.915 0 46.928-.179 46.928-.408 0-.229-21.013-.425-46.928-.425-25.915 0-46.929.196-46.929.425zm-6.029-10.244c0 .229 21.013.409 46.929.409 25.915 0 46.928-.18 46.928-.409 0-.229-21.013-.408-46.928-.408-25.916 0-46.929.245-46.929.408zm-.588 27.777c0 .229 21.014.425 46.929.425 25.915 0 46.945-.196 46.945-.425 0-.228-21.014-.408-46.945-.408-25.932 0-46.929.196-46.929.408z" fill="#E0E0E0"/><path d="M617.505 658.943h-88.596a11.275 11.275 0 01-11.274-11.275v-27.304a19.02 19.02 0 0119.02-19.02h81.52l-.67 57.599z" fill="#EBEBEB"/><path d="M530.396 676.115h174.2a8.596 8.596 0 008.53-8.579 8.616 8.616 0 00-8.595-8.595H530.396a8.595 8.595 0 00-8.579 8.595 8.579 8.579 0 008.579 8.579z" fill="#EBEBEB"/><path d="M740.104 430.232l-95.834-1.634-60.834 229.92 129.691 1.225 49.02-201.537a22.623 22.623 0 00-4.208-19.356 22.61 22.61 0 00-17.835-8.618z" fill="#E0E0E0"/><path d="M692.357 676.115l28.677 166.635h-7.859l-37.697-166.635h16.879z" fill="#EBEBEB"/><path d="M624.76 676.115l30.474 166.635h-7.859l-39.494-166.635h16.879z" fill="#E0E0E0"/><path d="M549.987 676.115L516 842.75h7.86l43.023-166.635h-16.896zm105.247-247.584l-47.386 230.165h-36.372l37.99-203.367a32.761 32.761 0 0132.206-26.798h13.562z" fill="#EBEBEB"/><path d="M38.883 843.667c0 .229 151.161.425 337.601.425 186.439 0 337.633-.196 337.633-.425 0-.229-151.128-.425-337.633-.425s-337.6.18-337.6.425z" fill="#263238"/><path d="M467.138 844.141h124.935l-9.444-90.949-115.491-.752v91.701z" fill="#407BFF"/><path opacity=".4" d="M467.138 844.141h124.935l-9.444-90.949-115.491-.752v91.701z" fill="#000"/><path d="M448.919 752.44h124.935v91.684H448.919V752.44z" fill="#407BFF"/><path opacity=".2" d="M448.919 752.44h124.935v91.684H448.919V752.44z" fill="#000"/><path d="M447.873 796.836c0 .229 28.105.425 62.762.425s62.795-.196 62.795-.425c0-.229-28.105-.441-62.795-.441s-62.762.196-62.762.441z" fill="#263238"/><path d="M551.6 805.66a55.82 55.82 0 000-13.742 55.722 55.722 0 000 13.742zm-86.865-.49a44.481 44.481 0 000-12.272 44.56 44.56 0 000 12.272zm27.517-52.256s0-.997.294-2.713a17.472 17.472 0 012.778-6.781 19.851 19.851 0 018.252-6.928 29.404 29.404 0 0113.072-2.467 31.825 31.825 0 0113.072 2.925 21.7 21.7 0 018.349 6.879c1.447 2 2.485 4.265 3.056 6.667.392 1.715.408 2.696.49 2.696.025-.239.025-.48 0-.719a11.117 11.117 0 00-.196-2.043 17.79 17.79 0 00-2.892-6.944 21.733 21.733 0 00-8.497-7.239 31.87 31.87 0 00-13.317-3.072 29.49 29.49 0 00-13.415 2.615 20.17 20.17 0 00-8.415 7.304 16.496 16.496 0 00-2.598 7.058c-.06.68-.06 1.363 0 2.043a2.119 2.119 0 00-.033.719z" fill="#263238"/><path d="M539.115 398.793a30.795 30.795 0 00-19.151-2.32c-3.48.571-7.107 1.634-9.46 4.215-2.353 2.582-2.811 7.206-.098 9.445a9.081 9.081 0 005.964 1.519c5.065 0 10.67-.947 14.706 2.092 2.304 1.732 3.84 4.624 6.536 5.474a6.535 6.535 0 007.173-3.187 11.078 11.078 0 00.817-8.17 12.579 12.579 0 00-6.487-9.068zm13.333-25.767c-3.562 5.098-10.474 3.415-13.693.31-3.218-3.104-4.558-7.614-5.8-11.895-2.811-9.804-5.654-20.098-3.562-30.082a16.74 16.74 0 013.84-8.17 8.726 8.726 0 018.268-2.745c3.496.915 5.67 4.33 7.238 7.598a71.608 71.608 0 017.075 30.768c0 4.902-.555 10.147-3.366 14.232m9.789 7.288a18.443 18.443 0 01-2.876-17.027 32.788 32.788 0 0110.081-14.706 54.09 54.09 0 0118.073-10.588 19.078 19.078 0 018.17-1.389 8.5 8.5 0 016.813 4.134c1.912 3.628 0 8.023-1.879 11.602a137.88 137.88 0 01-11.879 18.072c-3.546 4.591-7.631 9.117-13.072 11.176-5.441 2.059-11.062 1.83-13.938-1.928" fill="#407BFF"/><path d="M552.694 449.775a12.539 12.539 0 01-.327-2.321c-.163-1.634-.36-3.79-.605-6.307a92.502 92.502 0 00-1.421-9.248 70.052 70.052 0 00-3.366-10.915 40.096 40.096 0 00-5.572-9.886 20.862 20.862 0 00-7.059-5.866 19.758 19.758 0 00-5.883-1.863 11.14 11.14 0 01-2.304-.327 11.017 11.017 0 012.353 0c2.139.181 4.229.734 6.177 1.634a20.832 20.832 0 017.451 5.915 39.029 39.029 0 015.768 10.082 67.101 67.101 0 013.268 11.095 78.11 78.11 0 011.226 9.379c.196 2.68.277 4.902.31 6.34.075.761.07 1.528-.016 2.288z" fill="#263238"/><path d="M552.268 444.922a4.06 4.06 0 010-1.079v-3.071c0-2.648 0-6.536-.13-11.259-.229-9.526-1.062-19.755-2.631-34.199-1.503-13.562-3.513-29.412-5.637-39.641a195.272 195.272 0 00-1.34-6.275c-.425-1.846-.768-3.431-1.111-4.722-.343-1.291-.523-2.189-.719-2.974a4.549 4.549 0 01-.18-1.062c.168.32.294.661.376 1.013l.882 2.925c.392 1.275.801 2.86 1.258 4.706.458 1.846.997 3.922 1.487 6.258a345.755 345.755 0 015.932 36.782c1.634 14.46 2.287 27.63 2.353 37.173 0 4.771 0 8.627-.164 11.291 0 1.242-.13 2.255-.18 3.072a5.643 5.643 0 01-.196 1.062z" fill="#263238"/><path d="M552.204 419.513a19.174 19.174 0 010-3.268c.114-2.059.409-5.033.98-8.676a114.166 114.166 0 012.827-12.648 103.43 103.43 0 015.294-14.967 79.535 79.535 0 0115.523-24.183 37.244 37.244 0 013.661-3.399c.555-.474 1.045-.948 1.634-1.324l1.421-.98a18.769 18.769 0 012.696-1.634 92.743 92.743 0 00-8.84 7.876 84.011 84.011 0 00-15.147 24.101 118.229 118.229 0 00-5.31 14.837 125.287 125.287 0 00-3.007 12.517 117.848 117.848 0 00-1.274 8.594 21.617 21.617 0 01-.458 3.154zm24.542 44.821l-2.533 34.87h-44.804l-2.549-34.87h49.886zm-55.229-13.76h59.559v13.742h-59.559v-13.742z" fill="#263238"/><path d="M581.076 497.863v3.807h-58.579v-3.807h58.579zm-5.538 10.523l2.745-6.716h-53.644l3.203 6.716h47.696z" fill="#455A64"/><path d="M527.693 475.724s0 .114.213.327l.669.882 2.599 3.268.13.163.098-.163 6.422-8.873h-.376l6.324 8.938.196.294.212-.277c2.337-2.762 4.902-5.768 7.484-8.906h-.425l.409.523 6.699 8.383.229.277.196-.294 6.323-8.921h-.375l7.777 8.856.147.163.098-.179 2.435-4.102.621-1.078c.083-.122.149-.253.196-.392-.098.105-.185.22-.261.343l-.687 1.045-2.565 4.02h.245l-7.647-8.971-.196-.228-.18.245c-1.928 2.696-4.068 5.702-6.372 8.889h.441l-6.683-8.415-.409-.507-.212-.278-.229.262c-2.614 3.137-5.131 6.16-7.467 8.938h.425l-6.373-8.906-.196-.261-.18.261-6.274 8.971h.228a179.925 179.925 0 01-2.712-3.268l-.735-.833a1.317 1.317 0 00-.262-.196z" fill="#E0E0E0"/><path d="M526.24 464.105c0 .147 11.226.278 25.066.278 13.84 0 25.082-.131 25.082-.278 0-.147-11.226-.277-25.05-.277-13.823 0-25.098.114-25.098.277z" fill="#455A64"/><path d="M523.968 502.047c0 .164 12.206.278 27.255.278s27.239-.114 27.239-.278c0-.163-12.19-.277-27.239-.277-15.049 0-27.255.13-27.255.277zm-280.518 7.107H112.272v-6.372H243.45v6.372z" fill="#263238"/><path d="M91.945 509.155l-24.608-92.191h102.436l22.271 92.191H91.945z" fill="#263238"/><path d="M185.899 502.178H94.412l-21.308-80.949h91.978l20.817 80.949z" fill="#455A64"/><path d="M93.775 503.043h93.138l-21.242-82.599h-93.66l21.764 82.599zm91.079-1.634h-89.87l-20.866-79.331h90.246l20.49 79.331z" fill="#263238"/><path d="M507.177 527.062h6.618V843.34h-6.618V527.062z" fill="#455A64"/><path d="M500.543 527.962h6.618v315.362h-6.618V527.962z" fill="#263238"/><path d="M99.052 527.062h6.618V843.34h-6.618V527.062z" fill="#455A64"/><path d="M92.435 527.962h6.618v315.362h-6.618V527.962z" fill="#263238"/><path d="M0 508.681h590.576v25.947H0v-25.947zm102.354 25.947h221.521v42.942H102.354v-42.942z" fill="#455A64"/><path d="M203.237 553.126a4.902 4.902 0 109.804.002 4.902 4.902 0 00-9.804-.002zM54.102 534.628c0 .229 76.798.425 171.406.425 94.609 0 171.407-.196 171.407-.425 0-.229-76.798-.425-171.407-.425-94.608 0-171.406.196-171.406.425z" fill="#263238"/><path d="M307.251 229.379c-.882 0-12.827 1.993-12.827 1.993l-16.16 20.36-2.435 3.856 21.798 13.938 9.624-14.248 8.17-5.311a8.32 8.32 0 00-8.628-.898 25.533 25.533 0 01-10.179 1.993l2.875-8.17 8.857-1.765-1.095-11.748z" fill="#FFBE9D"/><path d="M306.237 215.13a2.507 2.507 0 00-2.007.33 2.512 2.512 0 00-1.097 1.713c-1.324 8.35-5.327 33.48-6.536 40.85a2.382 2.382 0 001.732 2.712l19.232 5.376a2.38 2.38 0 001.975-.307 2.392 2.392 0 001.048-1.703l5.262-41.716a2.521 2.521 0 00-1.88-2.761l-17.729-4.494z" fill="#263238"/><path d="M319.146 260.964l-19.608-5.474 5.196-34.706a3.354 3.354 0 012.783-2.817 3.34 3.34 0 011.4.072l15.703 4.167-5.474 38.758z" fill="#EBEBEB"/><path d="M299.947 235.571l8.808 6.536s-.735 2.32-2.075 2.484a54.05 54.05 0 01-8.432-1.798l1.699-7.222z" fill="#FFBE9D"/><path d="M301.009 230.293l9.232 4.052s.588 3.007-2.859 2.582l3.088 2.222s-.768 1.34-4.624 1.504c-3.857.163-7.599-5.197-7.599-5.197l2.762-5.163z" fill="#FFBE9D"/><path d="M291.841 240.572c0 .114 1.128-.098 2.353-1.242a25.244 25.244 0 012.124-1.781 3.011 3.011 0 012.925-.36 55.211 55.211 0 008.007 3.791 39.942 39.942 0 00-7.713-4.591 3.71 3.71 0 00-1.977-.229 4.525 4.525 0 00-1.634.752 13.833 13.833 0 00-2.091 1.993 18.691 18.691 0 01-1.994 1.667zm1.815 23.006a12.614 12.614 0 001.47-13.873c.448 2.325.618 4.694.507 7.059a29.677 29.677 0 01-1.977 6.814zm1.144-29.215c.114.098.604-.605 1.781-.98a6.253 6.253 0 014.689.539c1.732.833 3.268 1.895 4.494 2.402 1.225.506 2.091.621 2.108.523.016-.098-.719-.393-1.83-1.062-1.111-.67-2.549-1.749-4.428-2.631a7.403 7.403 0 00-2.844-.768 5.129 5.129 0 00-2.402.441c-1.225.605-1.568 1.503-1.568 1.536z" fill="#EB996E"/><path d="M295.567 292.255l-48.023 30.833 12.729 36.406s32.86-10.147 32.255-11.209c-.604-1.062 3.039-56.03 3.039-56.03z" fill="#407BFF"/><path d="M307.986 785.036l7.565 34.788s-32.827 19.363-32.059 25.915l67.975-12.222-9.543-54.69-33.938 6.209z" fill="#263238"/><path d="M351.467 833.518l-1.177-5.474-64.739 13.775s-2.777 1.863-2.058 3.922l67.974-12.223z" fill="#455A64"/><path d="M385.307 788.861l1.128 35.572s-35.801 13.072-36.226 19.69l69.069.31.523-55.556-34.494-.016z" fill="#263238"/><path opacity=".6" d="M419.279 844.433l-.163-5.604-66.161 1.813s-3.088 1.324-2.745 3.481l69.069.31z" fill="#455A64"/><path d="M375.29 205.424l-7.042 81.7-40.85-3.268c-.246-4.771.098-23.235.098-23.235s-17.01-2.647-17.223-19.608c-.098-8.268 1.079-25.327 2.32-40.703a31.475 31.475 0 0133.171-28.971 31.461 31.461 0 0121.956 10.812 31.468 31.468 0 017.57 23.273z" fill="#FFBE9D"/><path d="M327.48 260.311a39.606 39.606 0 0022.173-6.307s-5.245 12.239-22.206 10.703l.033-4.396z" fill="#EB996E"/><path d="M319.147 212.189a2.434 2.434 0 002.353 2.451 2.335 2.335 0 001.712-.568 2.334 2.334 0 00.788-1.622 2.432 2.432 0 00-2.337-2.451 2.34 2.34 0 00-2.516 2.19zm-2.942-3.431c.294.326 2.14-1.046 4.755-1.03 2.614.017 4.526 1.307 4.804.997.277-.311-.164-.719-.997-1.324a6.747 6.747 0 00-3.856-1.192 6.404 6.404 0 00-3.791 1.225c-.801.605-1.079 1.193-.915 1.324zm28.04 3.432a2.42 2.42 0 002.336 2.451 2.331 2.331 0 002.281-1.297c.137-.279.217-.582.236-.892a2.449 2.449 0 00-2.353-2.451 2.326 2.326 0 00-1.707.572 2.34 2.34 0 00-.793 1.617zm-2.354-2.941c.294.311 2.141-1.045 4.755-1.029 2.615.016 4.526 1.307 4.804.98.278-.326-.163-.702-.997-1.307a6.54 6.54 0 00-3.856-1.193 6.333 6.333 0 00-3.791 1.226c-.8.604-1.062 1.176-.915 1.323zm-9.509 19.378a17.533 17.533 0 00-4.249-.768c-.653 0-1.291-.196-1.405-.654-.053-.688.1-1.376.441-1.977.638-1.634 1.291-3.268 1.977-5.081 2.745-7.239 4.723-13.187 4.429-13.285-.295-.098-2.746 5.67-5.491 12.892-.653 1.798-1.291 3.497-1.879 5.115a3.92 3.92 0 00-.359 2.631 1.641 1.641 0 001.111.964c.367.103.746.158 1.127.163 1.427.187 2.871.187 4.298 0zm7.713 1.814c-.425 0-.425 2.811-2.859 4.902-2.435 2.092-5.441 1.634-5.474 2.108-.033.474.67.539 1.961.572a7.058 7.058 0 004.558-1.634 6.11 6.11 0 002.272-4.085c0-1.177-.262-1.879-.458-1.863zm1.11-31.437c.261.719 2.876.376 5.948.752 3.072.375 5.539 1.209 5.947.572.18-.311-.245-.981-1.258-1.634a10.309 10.309 0 00-9.052-.997c-1.127.408-1.683.98-1.585 1.307zm-24.052 2.189c.458.605 2.272 0 4.429 0 2.156 0 4.003.409 4.428-.212.179-.311-.115-.899-.915-1.471a6.428 6.428 0 00-7.125.229c-.768.555-1.013 1.176-.817 1.454zm39.738-14.412h.098a13.38 13.38 0 014.902 8.66v.343c.67 4.902.539 9.804 1.258 14.706.719 4.902 2.386 9.804 5.981 13.072 1.47 1.373 4.068 2.321 5.277.719a4.015 4.015 0 00.605-2.222c.915-11.716 4.118-22.108 4.085-34.314a10.293 10.293 0 00-4.232-8.431c-2.565-1.831-5.686-3.742-8.546-2.386-2.859 1.356-6.536 6.683-8.742 8.938" fill="#263238"/><path d="M369.555 213.12c.294-.131 11.683-3.464 11.323 8.17-.359 11.634-11.977 8.856-11.977 8.529 0-.327.654-16.699.654-16.699z" fill="#FFBE9D"/><path d="M372.595 225.524s.196.147.523.31a2.024 2.024 0 001.519.082 5.014 5.014 0 002.467-4.412 6.754 6.754 0 00-.473-2.925 2.353 2.353 0 00-1.471-1.634 1.058 1.058 0 00-1.225.507c-.164.326-.098.555-.164.571-.065.017-.229-.196-.131-.67a1.29 1.29 0 01.491-.718 1.633 1.633 0 011.127-.262 2.91 2.91 0 012.059 1.879 6.813 6.813 0 01.588 3.268c-.147 2.353-1.421 4.494-3.104 4.902a2.173 2.173 0 01-1.847-.376c-.359-.245-.408-.506-.359-.522z" fill="#EB996E"/><path d="M366.696 178.725c2.859-4.657-4.984-11.34-10.719-13.072-5.736-1.732-13.301.981-19.004 2.876-3.611 1.193-7.189 2.86-10.996 2.712a26.567 26.567 0 01-7.37-1.879 18.624 18.624 0 00-7.434-1.47 7 7 0 00-6.112 3.872c-.964 2.353.409 5.589 2.942 5.932a5.706 5.706 0 00-8.105 6.896 5.697 5.697 0 003.853 3.608 5.699 5.699 0 002.716.084c-1.634-1.258-4.183.817-3.971 2.876a5.99 5.99 0 003.971 4.412c4.902 2.124 10.506 1.438 15.523-.245 5.016-1.683 9.673-4.314 14.706-6.128 5.032-1.814 13.317-5.082 18.3-3.268 3.677 1.307 6.242 5.735 8.317 4.755a7.086 7.086 0 003.677-5.229 20.487 20.487 0 00-.229-6.536" fill="#263238"/><path d="M306.614 177.32c.098 0 .588.85 1.846 2.206a15.937 15.937 0 006.455 4.166 14.785 14.785 0 0011.095-.441c3.954-1.781 7.336-5.376 11.274-8.644a24.123 24.123 0 0113.072-6.274 13.377 13.377 0 0111.111 3.84 10.097 10.097 0 012.647 7.516 7.59 7.59 0 01-.506 2.141c-.213.457-.343.686-.376.67.221-.93.368-1.875.441-2.827a10.05 10.05 0 00-2.794-6.945 12.764 12.764 0 00-10.523-3.366 23.513 23.513 0 00-12.418 6.095c-3.824 3.268-7.321 6.912-11.553 8.758a15.785 15.785 0 01-18.317-4.395 10.324 10.324 0 01-1.209-1.798c-.18-.441-.278-.686-.245-.702zm65.915 35.294s-.506-.327-.947-1.242a7.992 7.992 0 01-.589-4.215c.262-3.742 3.579-7.762 4.004-12.942a11.705 11.705 0 00-1.291-6.944 8.924 8.924 0 00-4.314-3.726 7.603 7.603 0 00-3.889-.539c-.931.164-1.438.376-1.487.278.389-.358.87-.601 1.389-.703a7.211 7.211 0 014.265.196 9.453 9.453 0 014.902 3.955 12.422 12.422 0 011.52 7.598 21.493 21.493 0 01-2.239 7.32 22.114 22.114 0 00-2.043 5.637 8.815 8.815 0 00.719 5.327z" fill="#455A64"/><path d="M304.277 814.875s-35.409-173.694-35.441-177.158l63.252-33.366 24.51 203.841-52.321 6.683zm79.641 5.815l-48.906-301.032v-64.935l70.818 5.065c.849 2.533 18.709 361.294 18.709 361.294l-6.895-.392h-33.726z" fill="#263238"/><path d="M296.564 450.133l-27.729 187.583 61.994-15.033 25.262-166.439-59.527-6.111z" fill="#263238"/><path d="M285.878 530.934s-10.784-9.265-11.846-16.242c-1.063-6.977 12.924-119.282 12.924-119.282l7.141-92.844c0 1.634-.196-11.699 1.961-12.5 6.536-2.467 19.967-6.944 19.967-6.944l7.68-6.896s-13.791 58.955-16.471 75.066l-21.356 179.642zm88.546-261.113l11.602 7.729 43.513 17.108-19.33 72.892 2.598 42.354 2.467 26.879s12.958 66.553 24.396 106.994c0 0-12.762 24.183-23.252 27.55l-4.363 2.598L396.5 460.018l-13.35-17.974a72.707 72.707 0 01-3.611-5.343c-3.268-5.343-10.752-17.484-16.716-26.846-7.876-12.37-17.974-40.475-14.984-52.468 2.99-11.994 26.585-87.566 26.585-87.566z" fill="#407BFF"/><path d="M403.983 521.113a99.666 99.666 0 01-24.902-29.935l24.902 29.935z" fill="#263238"/><path d="M374.425 269.821l-10.474 67.207a97.248 97.248 0 004.232 25.327l18.693 60.458s14.706 32.958 9.625 37.173c-5.082 4.216-44.609 0-44.609 0l-53.497-7.761a4.706 4.706 0 01-4.003-5.098l7.941-82.06c2.68-5.67 3.775-17.271 4.902-21.389l16.471-67.435 3.366-.441 7.32 5.016 3.856.311 32.37-15.671 3.807 4.363z" fill="#EBEBEB"/><path d="M384.179 414.036c-8.643-26.944-19.836-70.752-19.836-70.752-3.481 22.876.326 46.324 8.84 67.893 6.96 17.582 15.375 30.882 21.16 48.905l.18.736s3.268.179 3.039-4.641c-.229-4.82-4.902-19.167-8.023-27.108-3.121-7.941-5.36-15.033-5.36-15.033z" fill="#E0E0E0"/><path d="M332.529 286.521h7.271l2.174 9.952-6.357 7.696-6.405-.638-2.091-7.14 1.715-3.987 3.693-5.883zm-42.401 58.104c-2.288.458-27.549 17.451-36.732 15.621-9.184-1.83-16.618-10.49-17.599-11.65-5.212-6.177-1.944-19.004-.441-23.84.366-1.18.865-2.315 1.487-3.383l39.004-66.994 22.99 13.971-23.856 43.514 15.147 32.761zm188.121 80.996a29.95 29.95 0 001.926-12.406 29.956 29.956 0 00-3.331-12.104c-5.294-10.474-13.693-27.386-15.458-32.941-2.614-8.252-27.059-71.57-31.847-73.53l-21.242 71.716 24.674 51.961-28.922 54.494 24.102 25.981s45.604-63.596 49.363-71.455c.261-.567.506-1.139.735-1.716z" fill="#407BFF"/><path d="M402.905 515.329a80.995 80.995 0 01-12.075-14.248.527.527 0 000-.442.701.701 0 00-.491-.294 69.596 69.596 0 01-3.79-6.65c4.036-2.631 9.313-6.536 3.578-7.418-7.075-1.013-12.124-4.445-12.843-6.324-.719-1.879 1.634-3.562 3.497-2.369a25.632 25.632 0 006.797 2.353c1.888.445 3.839.567 5.768.359 2.239-.245 11.438-4.232 13.072-4.526l17.206 18.105s-13.219 14.068-20.719 21.454z" fill="#FFBE9D"/><path d="M290.29 346.618a8.702 8.702 0 00.605-2.009c.343-1.308.768-3.268 1.241-5.605a182.28 182.28 0 002.664-18.709c.562-6.28.791-12.585.686-18.889a76.28 76.28 0 00-.229-5.719 11.76 11.76 0 00-.228-2.092 8.91 8.91 0 00-.098 2.108v5.703c0 4.902-.278 11.438-.932 18.823-.653 7.386-1.634 13.922-2.418 18.677-.376 2.239-.703 4.134-.964 5.637-.174.68-.284 1.375-.327 2.075zm-20 3.875s.196 0 .555-.131a8.864 8.864 0 001.455-.686 12.498 12.498 0 004.15-4.216 26.408 26.408 0 002.974-8.17 99.327 99.327 0 001.944-10.507c.687-7.549 1.259-14.33 1.634-19.265.164-2.336.295-4.297.409-5.849a9.97 9.97 0 000-2.157 11.936 11.936 0 00-.36 2.124c-.163 1.634-.392 3.497-.653 5.817-.539 4.902-1.209 11.748-1.879 19.232-.474 3.726-1.177 7.255-1.879 10.425a27.684 27.684 0 01-2.713 8.17 13.308 13.308 0 01-3.823 4.248c-1.177.638-1.896.899-1.814.965z" fill="#263238"/><path opacity=".3" d="M283.459 299.575a144.08 144.08 0 014.118 22.958 35.034 35.034 0 01-.719 13.873c-1.405 4.444-4.689 8.545-9.199 9.804a1424.523 1424.523 0 005.441-45.573M417.251 446.49s-7.647 15.67-11.879 23.873c-8.824-36.455 2.369-74.821-1.275-112.142l6.373 12.86 1.797 29.755 1.373 17.451s1.307 18.775 3.611 28.203z" fill="#000"/><path d="M411.074 295.328a12.614 12.614 0 00-1.291 2.026c-.408.67-.866 1.504-1.356 2.484-.49.98-1.095 2.108-1.634 3.382a81.107 81.107 0 00-3.448 9.151 80.373 80.373 0 00-3.464 23.627c.009 3.279.233 6.555.67 9.804.131 1.389.392 2.631.588 3.71.196 1.078.393 2.026.572 2.777.146.794.371 1.571.67 2.321a13.722 13.722 0 00-.343-2.386c-.131-.768-.294-1.634-.441-2.794-.147-1.16-.343-2.32-.458-3.693a87.848 87.848 0 01-.473-9.69c.05-3.953.35-7.898.898-11.813a95.7 95.7 0 012.533-11.586 84.553 84.553 0 013.268-9.134c.49-1.29 1.062-2.402 1.503-3.415a37.621 37.621 0 011.226-2.532 12.21 12.21 0 00.98-2.239zm22.126 123.43c.114.082 1.209-1.634 3.268-4.33a42.125 42.125 0 019.657-8.742 9.904 9.904 0 016.666-1.634 13.08 13.08 0 015.278 2.255c2.762 1.896 4.265 3.383 4.379 3.268a4.754 4.754 0 00-.98-1.127 28.497 28.497 0 00-3.056-2.647 13.243 13.243 0 00-5.441-2.435 10.39 10.39 0 00-7.222 1.634 37.602 37.602 0 00-9.69 9.101 33.854 33.854 0 00-2.222 3.366c-.278.395-.493.83-.637 1.291zm5.392-17.171a33.198 33.198 0 00-5.392 16.585c.261 0 .899-3.824 2.402-8.382 1.503-4.559 3.17-8.056 2.99-8.203zm-20.834 43.889a13.714 13.714 0 00-1.225 2.091l-3.105 5.866c-2.598 4.984-6.144 11.928-10.082 19.723l-.147.277.213.213 1.634 1.634c6.421 6.683 12.255 12.712 16.52 17.026l5.081 5.098a16.07 16.07 0 001.945 1.798 15.685 15.685 0 00-1.634-2.027l-4.902-5.277c-4.151-4.445-9.935-10.523-16.34-17.206l-1.634-1.634v.49c3.921-7.811 7.385-14.706 9.804-19.853l2.859-5.981c.41-.711.75-1.461 1.013-2.238zm-31.83-32.875a7.854 7.854 0 000-1.422v-4.036c-.082-3.578-.196-8.644-.343-14.853-.147-6.209-.311-13.726-.654-22.01a119.928 119.928 0 00-3.66-26.765 62.588 62.588 0 00-5.163-12.925l-.311.621a8.877 8.877 0 005.229-2.957 12.858 12.858 0 002.729-5.082 40.406 40.406 0 00.85-10.589V280.23c.038-.358.038-.72 0-1.078-.062.356-.09.717-.082 1.078 0 .785 0 1.83-.082 3.138 0 2.81-.098 6.748-.18 11.634-.081 4.885-.114 10.915-.179 17.581a39.659 39.659 0 01-.883 10.376 12.103 12.103 0 01-2.565 4.739 8.013 8.013 0 01-4.739 2.68l-.588.098.278.523a61.413 61.413 0 015.082 12.745 122.565 122.565 0 013.692 26.569c.376 8.268.589 15.735.85 22.01.262 6.274.458 11.242.605 14.836l.196 4.036c-.051.467-.078.936-.082 1.406zm-70.017-128.516a4.486 4.486 0 00-.392.899 75.967 75.967 0 01-.931 2.631l-3.383 9.804c-1.405 4.199-3.088 9.183-4.902 14.706-.898 2.827-2.01 5.703-2.843 8.889a11.524 11.524 0 00-.212 5.082 6.786 6.786 0 002.908 4.46l-.131-.604c-1.372 2.042-2.826 4.216-4.183 6.536a39.225 39.225 0 00-4.575 10.588 37.109 37.109 0 00-.735 10.719c.392 6.781.833 12.876 1.193 17.974.359 5.098.67 9.183.898 12.141.115 1.356.213 2.451.278 3.268.017.386.072.769.164 1.144a5.775 5.775 0 000-1.161c0-.833-.082-1.944-.131-3.268-.147-2.973-.36-7.107-.621-12.156-.262-5.05-.637-11.259-1.03-17.974a38.33 38.33 0 01.768-10.474 38.923 38.923 0 014.51-10.344c1.34-2.255 2.778-4.411 4.151-6.536l.245-.359-.376-.229a5.918 5.918 0 01-1.665-1.694 5.918 5.918 0 01-.868-2.211 10.804 10.804 0 01.18-4.739c.784-3.072 1.895-6.029 2.778-8.823a3578.383 3578.383 0 014.787-14.821c1.373-4.215 2.37-7.467 3.121-9.804.344-1.095.605-1.993.817-2.679.084-.317.144-.639.18-.965z" fill="#263238"/><path d="M379.506 487.127c.18.483.434.935.752 1.34.523.834 1.307 2.01 2.304 3.448 2.009 2.876 4.902 6.781 8.17 10.997a209.342 209.342 0 008.758 10.523 92.802 92.802 0 002.81 3.055c.687.703 1.079 1.079 1.128 1.046a42.976 42.976 0 00-3.481-4.493c-2.206-2.713-5.245-6.536-8.545-10.654-3.301-4.118-6.226-8.039-8.35-10.833a43.258 43.258 0 00-3.546-4.429zm-25.604-21.08v.915c0 .604.163 1.536.294 2.696.261 2.386.67 5.866 1.176 10.327a3190.651 3190.651 0 004.739 37.974c4.134 32.043 10.408 76.242 17.157 125.066 3.366 24.429 6.536 47.697 9.085 68.906.67 5.294 1.209 10.474 1.96 15.49.752 5.017 1.52 9.804 2.239 14.543l3.954 26.144c2.402 15.981 4.298 28.906 5.54 37.86.62 4.461 1.078 7.941 1.356 10.31.13 1.177.228 2.076.261 2.68.015.229.015.458 0 .686 0 .196-.114 0-.114 0s.131 0 .114-.081a2.55 2.55 0 000-.687c0-.604-.082-1.519-.196-2.696-.212-2.369-.621-5.866-1.193-10.343-1.144-8.971-2.941-21.912-5.261-37.892a9135.497 9135.497 0 01-3.856-26.144c-.719-4.706-1.438-9.559-2.19-14.559s-1.274-10.18-1.944-15.474c-2.582-21.242-5.654-44.494-9.004-68.922-6.748-48.841-13.072-93.008-17.418-125.034-2.108-15.981-3.807-28.938-5-37.925-.572-4.461-1.03-7.925-1.34-10.327a171.04 171.04 0 01-.359-2.68c-.082-.637 0-.833 0-.833zm-37.289 347.21a8.44 8.44 0 00-.114-.882c-.098-.621-.229-1.487-.409-2.615-.408-2.32-.98-5.67-1.634-9.983-1.519-8.71-3.725-21.242-6.438-36.716l-21.634-121.129a28.285 28.285 0 01-.523-8.758c.376-2.909.866-5.85 1.291-8.726.883-5.784 1.76-11.476 2.631-17.075a4385.152 4385.152 0 015.212-32.222c3.416-20.523 6.716-38.971 9.657-54.429 2.942-15.458 5.54-27.925 7.5-36.503.932-4.298 1.782-7.615 2.304-9.804.245-1.095.442-1.961.589-2.566.147-.604.179-.882.179-.882a8.712 8.712 0 00-.261.866l-.686 2.549c-.572 2.238-1.471 5.539-2.451 9.804-2.059 8.546-4.739 21.013-7.762 36.454-3.023 15.442-6.372 33.89-9.804 54.413a3584.44 3584.44 0 00-5.261 32.222c-.872 5.61-1.754 11.302-2.647 17.075-.442 2.909-.915 5.785-1.308 8.759a29.43 29.43 0 00.54 9.036c8.513 47.239 16.209 90.017 21.797 121.014 2.827 15.457 5.115 27.974 6.7 36.667.8 4.313 1.437 7.663 1.862 9.967.213 1.111.392 1.977.507 2.582.114.604.163.882.163.882zm18.4-295.722c-.245 0 2.647 19.477 6.454 43.431 3.807 23.955 7.059 43.383 7.255 43.383.196 0-2.663-19.477-6.454-43.432-3.791-23.954-7.026-43.415-7.255-43.382zm48.316 302.617a7.138 7.138 0 001.634.278c1.03.114 2.533.261 4.396.408 3.709.295 8.856.572 14.542.654 5.686.082 10.85 0 14.575-.18 1.863 0 3.366-.163 4.396-.261a5.322 5.322 0 001.634-.229 49.93 49.93 0 00-6.03-.098c-3.725 0-8.856 0-14.542-.082a575.667 575.667 0 01-14.526-.408 45.176 45.176 0 00-6.079-.082z" fill="#455A64"/><path d="M304.277 814.874a10.44 10.44 0 002.075-.115l5.621-.588c4.739-.539 11.274-1.356 18.497-2.288 7.222-.931 13.758-1.83 18.48-2.516l5.589-.85c.69-.083 1.373-.219 2.042-.408a7.875 7.875 0 00-2.091.081c-1.324.115-3.268.311-5.621.572-4.739.54-11.291 1.34-18.514 2.272-7.222.931-13.742 1.846-18.464 2.532l-5.588.866a8.782 8.782 0 00-2.026.442z" fill="#455A64"/><path d="M373.232 280.687c-.635.328-1.237.716-1.797 1.16l-4.804 3.268c-4.085 2.794-9.804 6.536-16.34 10.262-2.451 1.405-4.902 2.712-7.059 3.889l.588.261a982.456 982.456 0 00-3.464-13.366c-.425-1.536-.784-2.811-1.078-3.856a6.104 6.104 0 00-.474-1.357c.011.481.083.959.212 1.422a810 810 0 01.834 3.905c.768 3.268 1.862 8.007 3.268 13.448l.114.49.458-.229a192.692 192.692 0 007.108-3.872 174.835 174.835 0 0016.242-10.507 126.312 126.312 0 004.656-3.562 9.262 9.262 0 001.536-1.356zm-53.922 12.025a55.545 55.545 0 007.222 4.902l.359.229.196-.392 2.206-4.298c1.634-3.268 3.187-6.372 4.216-8.595a18.758 18.758 0 001.536-3.676 18.289 18.289 0 00-2.059 3.415 285.266 285.266 0 00-4.444 8.464l-2.206 4.396.555-.164a60.167 60.167 0 00-7.581-4.281z" fill="#263238"/><path d="M329.963 291.111c.436.429.918.807 1.438 1.128.899.67 2.173 1.634 3.595 2.532 1.421.899 2.712 1.831 3.66 2.451a10.95 10.95 0 001.634.932 8.574 8.574 0 00-1.438-1.144 230.644 230.644 0 00-3.595-2.516l-3.66-2.451a10.901 10.901 0 00-1.634-.932z" fill="#263238"/><path d="M334.866 294.492a28.535 28.535 0 003.268-3.007 29.067 29.067 0 002.925-3.268 27.559 27.559 0 00-3.17 3.007 28.766 28.766 0 00-3.023 3.268zm30.784 144.955a38.027 38.027 0 01-3.382 11.781 37.577 37.577 0 01-7.615 9.592 10.039 10.039 0 002.99-2.141 25.245 25.245 0 008.007-15.555 10.418 10.418 0 000-3.677zm-9.51 21.535a22.873 22.873 0 0014.363-6.748c-.163-.196-2.974 2.042-6.928 3.889-3.954 1.846-7.484 2.598-7.435 2.859zm-31.928-52.302a6.723 6.723 0 00-.605 1.748c-.343 1.144-.784 2.811-1.274 4.902-1.013 4.134-2.206 9.902-3.154 16.34-.947 6.438-1.487 12.288-1.732 16.552-.114 2.125-.179 3.84-.179 5.033a7.05 7.05 0 000 1.847 8.703 8.703 0 00.261-1.83c.131-1.373.278-3.04.458-5.017a310.087 310.087 0 011.96-16.454c.948-6.406 2.059-12.174 2.909-16.34a473.47 473.47 0 011.013-4.902 8.578 8.578 0 00.343-1.879z" fill="#263238"/><path d="M335.095 305.834c2.124 16.977 3.693 53.922 4.281 71.063.49 14.313.441 28.644.392 42.974 0 4.624 0 9.395-1.977 13.595-3.415 7.565-11.765 11.438-19.428 14.51l16.732-142.142z" fill="#E0E0E0"/><path d="M316.042 445.525l-8.775-21.504 21.945-120.491 6.405.638s-.899 125.229-.604 126.357l-18.971 15z" fill="#407BFF"/><path d="M329.441 303.53c.989.314 2.018.484 3.055.507 1.02.134 2.053.134 3.072 0a20.321 20.321 0 00-3.055-.294 24.67 24.67 0 00-3.072-.213z" fill="#263238"/></svg>