<svg width="62" height="54" fill="none" xmlns="http://www.w3.org/2000/svg"><path d="M33.111 18.544a.882.882 0 00.889-.875v-3.732a.867.867 0 00-.006-.095l-.002-.014a.862.862 0 00-.066-.24l-.005-.01a.868.868 0 00-.053-.098l-.012-.018a.874.874 0 00-.07-.094l-.017-.018a.886.886 0 00-.085-.081l-.004-.004-.003-.002L22.386 4 19.607.35a.893.893 0 00-.712-.35h-3.79c-.28 0-.543.13-.711.35L11.613 4 .323 13.262l-.003.003-.004.004a.9.9 0 00-.085.081l-.016.018a.871.871 0 00-.071.093l-.011.018a.846.846 0 00-.054.098l-.004.01a.871.871 0 00-.041.113l-.005.021a.867.867 0 00-.021.107l-.002.013a.857.857 0 00-.006.096v3.732c0 .484.398.875.889.875.49 0 .888-.391.888-.875v-2.857h9.596v8.046L.323 31.923l-.003.003-.004.004a.89.89 0 00-.085.081l-.016.018a.871.871 0 00-.072.093l-.01.018a.846.846 0 00-.054.098l-.005.01a.871.871 0 00-.04.113l-.006.021a.862.862 0 00-.02.107l-.002.013a.886.886 0 00-.006.096v3.733c0 .483.398.874.889.874.49 0 .888-.391.888-.874v-2.858h9.216L4.057 52.251H2.784a.882.882 0 00-.889.874c0 .483.398.875.889.875h4.739c.49 0 .888-.392.888-.875a.882.882 0 00-.888-.874h-.969L17 39.68l10.446 12.57h-.02a.882.882 0 00-.89.874c0 .483.398.875.89.875h4.738c.49 0 .888-.392.888-.875a.882.882 0 00-.888-.874h-2.221l-6.936-18.778h9.216v2.858c0 .483.398.874.889.874.49 0 .888-.391.888-.874v-3.733a.867.867 0 00-.006-.096l-.002-.013a.86.86 0 00-.066-.24l-.005-.01a.877.877 0 00-.053-.099l-.012-.017a.874.874 0 00-.07-.094l-.017-.018a.886.886 0 00-.085-.081l-.004-.004-.003-.002v-.001l-11.05-9.065v-8.046h9.596v2.857c0 .484.398.875.889.875zM15.744 9.272l-2.593 2.553V6.72l2.593 2.553zm-1.337-3.79h5.188L17 8.035l-2.594-2.553zm0 7.58L17 10.51l2.594 2.554h-5.188zm5.188 1.75L17 17.366l-2.594-2.554h5.188zm-3.85 3.79l-2.594 2.554v-5.107l2.593 2.554zm-1.338 3.791L17 19.84l2.594 2.553h-5.188zm5.188 1.75L17 26.695l-2.594-2.554h5.188zm-3.85 3.79l-2.594 2.553V25.38l2.593 2.553zM17 29.17l2.594 2.553h-5.188L17 29.17zm2.864 4.303L17 36.919l-2.864-3.446h5.728zm-1.607-5.54l2.593-2.553v5.106l-2.593-2.553zm0-9.33l2.593-2.554v5.107l-2.593-2.553zm0-9.33l2.593-2.554v5.106l-2.593-2.553zm-2.708-7.524h2.902l1.51 1.983h-5.923l1.51-1.983zm-4.176 4.726v6.588h-8.03l8.03-6.588zm0 18.66v6.588h-8.03l8.03-6.588zM7.3 48.591l5.263-14.249 3.289 3.958L7.3 48.591zm10.848-10.29l3.29-3.959 5.262 14.25L18.148 38.3zm4.48-6.578v-6.588l8.03 6.588h-8.03zm0-18.66V6.475l8.03 6.588h-8.03zm38.607-.436a.6.6 0 00.605-.596V9.49a.611.611 0 00-.004-.065l-.001-.01a.606.606 0 00-.046-.163c0-.003-.002-.005-.003-.007a.582.582 0 00-.036-.067l-.008-.012a.6.6 0 00-.048-.064l-.011-.012a.613.613 0 00-.058-.055l-.003-.003-.002-.001V9.03l-7.687-6.306L52.04.238A.608.608 0 0051.556 0h-2.582c-.19 0-.37.088-.483.238l-1.894 2.486L38.91 9.03l-.002.002-.003.003a.611.611 0 00-.058.055l-.01.012a.6.6 0 00-.05.064l-.007.012a.566.566 0 00-.036.067l-.003.006a.595.595 0 00-.028.077l-.004.015a.587.587 0 00-.014.073l-.001.008a.589.589 0 00-.004.066v2.541a.6.6 0 00.605.596.6.6 0 00.605-.596v-1.946h6.534v5.479l-7.524 6.172-.002.002-.003.003a.633.633 0 00-.058.055l-.01.012a.602.602 0 00-.05.064l-.007.012a.578.578 0 00-.036.067l-.003.006a.589.589 0 00-.028.077l-.004.015a.592.592 0 00-.014.073l-.001.008a.614.614 0 00-.004.066v2.541a.6.6 0 00.605.596.6.6 0 00.605-.596v-1.946h6.275l-4.723 12.786h-.866a.6.6 0 00-.605.595.6.6 0 00.605.596h3.226a.6.6 0 00.605-.596.6.6 0 00-.605-.595h-.66l7.113-8.558 7.112 8.558h-.014a.6.6 0 00-.605.595.6.6 0 00.605.596h3.227a.6.6 0 00.605-.596.6.6 0 00-.605-.595h-1.512L54.355 22.79h6.275v1.946a.6.6 0 00.605.596.6.6 0 00.605-.596v-2.541a.61.61 0 00-.004-.066l-.001-.008a.604.604 0 00-.046-.165l-.003-.006a.585.585 0 00-.036-.067l-.008-.012a.592.592 0 00-.048-.064l-.011-.012a.607.607 0 00-.058-.055l-.003-.003-.002-.002-7.523-6.172v-5.479h6.533v1.946a.6.6 0 00.605.596zM49.41 6.313l-1.766 1.739V4.575l1.766 1.738zm-.91-2.58h3.531L50.265 5.47l-1.766-1.739zm0 5.161l1.765-1.738 1.766 1.738h-3.532zm3.531 1.191l-1.766 1.739-1.766-1.739h3.532zm-2.621 2.581l-1.766 1.739v-3.477l1.766 1.738zm-.91 2.581l1.765-1.738 1.766 1.738h-3.532zm3.531 1.191l-1.766 1.739-1.766-1.739h3.532zM49.41 19.02l-1.766 1.739V17.28l1.766 1.738zm.855.843l1.766 1.738h-3.532l1.766-1.738zm1.95 2.93l-1.95 2.346-1.95-2.347h3.9zm-1.094-3.773l1.766-1.738v3.477l-1.766-1.739zm0-6.353l1.766-1.738v3.477l-1.766-1.739zm0-6.353l1.766-1.738v3.477l-1.767-1.74zm-1.844-5.122h1.976l1.029 1.35h-4.033l1.028-1.35zm-2.843 3.217v4.486h-5.468l5.468-4.486zm0 12.706V21.6h-5.468l5.468-4.486zm-2.774 15.97l3.584-9.702 2.24 2.695-5.824 7.007zm7.387-7.007l2.24-2.695 3.583 9.702-5.823-7.007zm3.05-4.478v-4.486l5.467 4.486h-5.468zm0-12.706V4.408l5.467 4.486h-5.468z" fill="#115AD4"/><path d="M24.027 14.458c2.582 7.598 18 11.508 19.329-4.353M24.027 32.806c9.37 11.75 17.337 5.184 18.665-10.676" stroke="#115AD4" stroke-width="1.2"/></svg>