<svg width="39" height="35" fill="none" xmlns="http://www.w3.org/2000/svg"><path d="M20.882 11.695c.31 0 .56-.247.56-.552V8.79l-.003-.06-.001-.009a.559.559 0 00-.014-.068l-.003-.013a.54.54 0 00-.026-.07c0-.003-.002-.005-.003-.007a.538.538 0 00-.033-.062l-.007-.011a.554.554 0 00-.045-.06l-.01-.01a.56.56 0 00-.054-.052l-.002-.002-.002-.002-7.12-5.841L12.365.22a.563.563 0 00-.448-.22H9.526a.563.563 0 00-.448.22L7.324 2.524l-7.12 5.84v.001l-.002.002-.003.002a.568.568 0 00-.053.051l-.01.012a.553.553 0 00-.045.059l-.007.01a.536.536 0 00-.034.063l-.003.006a.553.553 0 00-.026.071c0 .005-.002.009-.003.013a.546.546 0 00-.013.068l-.001.008A.54.54 0 000 8.79v2.354c0 .305.25.552.56.552.31 0 .56-.247.56-.552V9.341h6.052v5.075L.204 20.132l-.002.003-.003.002a.564.564 0 00-.053.051l-.01.011a.548.548 0 00-.046.06l-.006.01a.537.537 0 00-.034.062l-.003.007a.552.552 0 00-.026.07c0 .005-.002.01-.003.014a.545.545 0 00-.013.068l-.001.008a.56.56 0 00-.004.06v2.354c0 .305.25.552.56.552.31 0 .56-.247.56-.552V21.11h5.813L2.559 32.952h-.803c-.31 0-.56.247-.56.552 0 .305.25.552.56.552h2.988c.31 0 .56-.247.56-.552a.556.556 0 00-.56-.552h-.61l6.587-7.926 6.588 7.926h-.013c-.31 0-.56.247-.56.552 0 .305.25.552.56.552h2.988c.31 0 .56-.247.56-.552a.556.556 0 00-.56-.552h-1.4L14.51 21.11h5.812v1.802c0 .305.25.552.56.552.31 0 .56-.247.56-.552v-2.354l-.003-.06-.001-.008a.555.555 0 00-.014-.068l-.003-.013a.541.541 0 00-.026-.071c0-.003-.002-.005-.003-.007a.539.539 0 00-.033-.061l-.007-.012a.559.559 0 00-.045-.059l-.01-.01a.542.542 0 00-.054-.052l-.002-.002-.002-.002-6.969-5.717V9.34h6.052v1.802c0 .305.25.552.56.552zM9.929 5.848l-1.636 1.61v-3.22l1.636 1.61zm-.843-2.391h3.27l-1.635 1.61-1.635-1.61zm0 4.781l1.635-1.61 1.636 1.61H9.086zm3.27 1.103l-1.635 1.61-1.635-1.61h3.27zm-2.427 2.39l-1.636 1.611v-3.22l1.636 1.61zm-.843 2.391l1.635-1.61 1.636 1.61H9.086zm3.27 1.104l-1.635 1.61-1.635-1.61h3.27zm-2.427 2.39l-1.636 1.61v-3.22l1.636 1.61zm.792.78l1.636 1.61H9.086l1.635-1.61zm1.806 2.714l-1.806 2.173-1.806-2.173h3.612zm-1.013-3.494l1.635-1.61v3.22l-1.635-1.61zm0-5.884l1.635-1.61v3.22l-1.635-1.61zm0-5.884l1.635-1.61v3.22l-1.635-1.61zM9.806 1.103h1.83l.953 1.25H8.853l.953-1.25zm-2.634 2.98v4.155H2.108l5.064-4.155zm0 11.769v4.155H2.108l5.064-4.155zM4.604 30.644l3.319-8.986 2.074 2.496-5.393 6.49zm6.841-6.49l2.075-2.496 3.319 8.986-5.394-6.49zm2.825-4.147v-4.155l5.064 4.155H14.27zm0-11.769V4.083l5.064 4.155H14.27zm24.348-.275A.38.38 0 0039 7.587V5.985a.273.273 0 00-.003-.041v-.006a.388.388 0 00-.03-.103l-.001-.005a.378.378 0 00-.023-.042l-.005-.007a.374.374 0 00-.03-.04l-.008-.008a.377.377 0 00-.036-.035l-.002-.002-.001-.001-4.848-3.977L32.82.15a.384.384 0 00-.305-.15h-1.628a.384.384 0 00-.305.15l-1.194 1.568-4.848 3.977-.002.001-.001.002a.383.383 0 00-.037.035l-.007.007a.373.373 0 00-.03.04l-.005.008a.378.378 0 00-.023.042l-.002.005a.381.381 0 00-.029.103v.006a.375.375 0 00-.003.04v1.603c0 .208.17.376.381.376s.382-.168.382-.376V6.36h4.12v3.455l-4.744 3.893-.002.001-.001.002a.403.403 0 00-.037.035l-.007.008a.363.363 0 00-.03.04l-.005.007a.347.347 0 00-.023.042l-.002.005a.366.366 0 00-.017.048l-.003.01a.35.35 0 00-.009.045v.006a.375.375 0 00-.003.041v1.603c0 .207.17.375.381.375s.382-.168.382-.375v-1.227h3.957l-2.978 8.063h-.547a.379.379 0 00-.381.375c0 .208.17.376.381.376h2.035a.38.38 0 00.382-.376.379.379 0 00-.382-.375h-.416L31.7 17.04l4.485 5.397h-.009a.379.379 0 00-.381.375c0 .208.17.376.381.376h2.035a.379.379 0 00.382-.376.379.379 0 00-.382-.375h-.953l-2.979-8.063h3.958V15.6c0 .207.17.375.381.375A.38.38 0 0039 15.6v-1.603a.273.273 0 00-.003-.041v-.006a.39.39 0 00-.01-.046l-.002-.009a.367.367 0 00-.017-.048l-.002-.005a.379.379 0 00-.023-.042l-.005-.007a.374.374 0 00-.074-.083l-.002-.002-.001-.001-4.745-3.893V6.36h4.12v1.227a.38.38 0 00.382.376zM31.16 3.982l-1.113 1.096V2.885l1.113 1.097zm-.574-1.628h2.227L31.7 3.45l-1.114-1.096zm0 3.255L31.7 4.513l1.113 1.096h-2.227zm2.227.751L31.7 7.457 30.586 6.36h2.227zM31.16 7.988l-1.113 1.097V6.892l1.113 1.096zm-.574 1.628L31.7 8.519l1.113 1.097h-2.227zm2.227.751L31.7 11.463l-1.114-1.096h2.227zm-1.653 1.628l-1.113 1.096v-2.193l1.113 1.097zm.54.53l1.113 1.097h-2.227l1.114-1.096zm1.23 1.849l-1.23 1.48-1.23-1.48h2.46zm-.69-2.38l1.113-1.096v2.193l-1.114-1.096zm0-4.006l1.113-1.096v2.193L32.24 7.988zm0-4.006l1.113-1.097v2.193L32.24 3.982zM31.076.752h1.246l.649.85h-2.544l.649-.85zM29.283 2.78v2.83h-3.448l3.448-2.83zm0 8.013v2.83h-3.448l3.448-2.83zm-1.749 10.072l2.26-6.118 1.413 1.7-3.673 4.418zm4.659-4.419l1.412-1.7 2.26 6.12-3.672-4.42zm1.923-2.824v-2.829l3.449 2.83h-3.449zm0-8.013V2.78l3.449 2.83h-3.449z" fill="#D7D7D7"/><path d="M15.153 9.118c1.628 4.792 11.352 7.258 12.19-2.745M15.153 20.69c5.908 7.41 10.933 3.27 11.77-6.734" stroke="#D7D7D7" stroke-width="1.2"/></svg>