<svg width="1169" height="657" fill="none" xmlns="http://www.w3.org/2000/svg"><path d="M631.133 164.574v78.291h112.466l4.052-77.742-116.518-.549z" fill="#E0E0E0"/><path d="M747.651 165.112v77.587H635.186v-77.587h112.465z" fill="#fff"/><path d="M634.662 243.235h113.562v-78.672H634.698l-.036 78.672zm112.454-1.06H635.723v-76.479h111.393v76.479z" fill="#E0E0E0"/><path d="M647.369 174.755h88.101v58.313h-88.101v-58.313z" fill="#fff"/><path d="M647.369 174.755h6.532l18.154.072 63.414.131-.25-.263v58.301l.274-.274h-88.1l.226.226c0-17.748-.095-32.291-.119-42.423 0-5.066 0-9.023-.06-11.729v-4.16 4.065c0 2.705 0 6.639-.059 11.681 0 10.168-.06 24.758-.108 42.566v.215h.215l88.101.06h.274v-58.826h-.262l-63.582.12-18.094.071h-6.401l-.155.167z" fill="#E0E0E0"/><path d="M747.651 164.897a9.788 9.788 0 00-1.931 1.192c-1.192.835-2.717 2.015-4.41 3.362a95.276 95.276 0 00-4.232 3.576 8.888 8.888 0 00-1.609 1.645 77.784 77.784 0 006.187-4.768 59.866 59.866 0 005.995-5.007zm-112.464.226a55.222 55.222 0 005.96 5.03 54.983 54.983 0 006.258 4.601 54.484 54.484 0 00-5.96-5.03 51.479 51.479 0 00-6.258-4.601z" fill="#E0E0E0"/><path d="M635.282 242.711l12.54-10.156-12.54 10.156z" fill="#fff"/><path d="M647.822 232.555a60.008 60.008 0 00-6.449 4.863 60.69 60.69 0 00-6.091 5.293 58.192 58.192 0 006.449-4.864 59.16 59.16 0 006.091-5.292zm99.829 10.155a51.783 51.783 0 00-5.852-4.995 53.58 53.58 0 00-6.199-4.541 53.975 53.975 0 005.853 4.982 53.473 53.473 0 006.198 4.554zm-30.074-49.79v19.525h-55.428V192.92h55.428zm224.453-72.234s.096 0 .275-.084l.798-.31 3.004-1.192 11.014-4.768 36.249-15.794 1.251-.548h-.262l35.521 15.186 10.73 4.506 2.93 1.192c.34.153.68.277 1.04.369a8.114 8.114 0 00-.99-.488l-2.87-1.312-10.73-4.768-35.44-15.364-.131-.06-.131.06-1.252.548-36.165 15.973-10.943 4.911-2.956 1.359-.763.369a2.06 2.06 0 00-.179.215z" fill="#E0E0E0"/><path d="M885.495 115.488h232.785v174.306H885.495V115.488z" fill="#E0E0E0"/><path d="M892.754 123.593h217.386v159.036H892.754V123.593z" fill="#FAFAFA"/><path d="M1062.13 193.111s-.23 26.701-1.59 34.842l-33.48-1.585s2.94-26.224 1.81-33.257h33.26z" fill="#E0E0E0"/><path d="M1045.64 196.855h-.49c-.47-.017-.93.007-1.39.072-.74.11-1.46.323-2.14.631a7.21 7.21 0 00-2.31 1.836 8.19 8.19 0 00-1.61 3.23 7.777 7.777 0 00.36 4.137c.25.714.57 1.404.94 2.062.37.679.75 1.347 1.07 2.086a17.604 17.604 0 011.35 4.768v.107h.11l3.3.06h3.59v-.084a9.878 9.878 0 011.59-4.577c.41-.679.85-1.323 1.27-1.979.42-.655.84-1.192 1.19-1.919.62-1.264.8-2.697.52-4.077a8.555 8.555 0 00-1.28-3.337 6.804 6.804 0 00-2.18-1.967 8.352 8.352 0 00-2.05-.787 8.788 8.788 0 00-1.38-.226h-.47.47c.46.055.91.142 1.35.262.71.184 1.38.461 2.02.823a6.399 6.399 0 012.09 1.943 8.558 8.558 0 011.2 3.278 6.25 6.25 0 01-.53 3.945c-.36.651-.76 1.284-1.19 1.895-.41.632-.86 1.288-1.26 1.979a10.033 10.033 0 00-1.65 4.697l.12-.132h-6.77l.12.12c-.24-1.666-.7-3.291-1.38-4.828-.33-.739-.72-1.442-1.09-2.11-.38-.641-.69-1.32-.93-2.026a7.499 7.499 0 01-.32-4.089 7.835 7.835 0 011.54-3.159 6.975 6.975 0 012.24-1.823 7.738 7.738 0 012.08-.656c.46-.07.92-.11 1.39-.119h.49l.02-.036z" fill="#fff"/><path d="M1043.91 215.449v-.417c0-.274.11-.679.19-1.192.15-1.037.37-2.551.53-4.422 0-.465 0-.954.08-1.466.08-.513 0-1.049 0-1.61a4.564 4.564 0 00-.38-1.668 2.484 2.484 0 00-1.28-1.276 1.67 1.67 0 00-1.82.346c-.12.119-.22.262-.29.419-.07.158-.1.327-.1.499.01.346.13.68.34.953.21.284.49.509.81.656.32.15.65.258.99.322.7.149 1.4.233 2.11.25.71.024 1.43-.011 2.14-.107a3.67 3.67 0 001-.286c.31-.142.6-.344.84-.596.24-.25.41-.558.49-.894.07-.338.03-.689-.12-1.002a1.341 1.341 0 00-.7-.679 1.241 1.241 0 00-.95 0 1.77 1.77 0 00-.72.608c-.17.253-.28.537-.35.834a8.873 8.873 0 00-.17 1.705c0 1.096-.11 2.122-.16 3.063-.09 1.872-.17 3.386-.23 4.446v1.61a.198.198 0 000-.108v-.31c0-.131 0-.679.09-1.192 0-1.048.14-2.574.25-4.446 0-.929.11-1.955.18-3.063.01-.568.06-1.134.16-1.693.07-.284.19-.554.35-.798.17-.243.4-.439.67-.573a1.173 1.173 0 011.52.632c.15.287.19.616.12.93-.08.318-.24.61-.46.846-.49.478-1.12.779-1.8.858a13.3 13.3 0 01-4.2-.143 4.035 4.035 0 01-.98-.321 2.212 2.212 0 01-.76-.62c-.2-.255-.31-.569-.32-.894 0-.159.03-.316.09-.462.06-.146.15-.277.27-.385.22-.215.5-.361.81-.42.3-.059.62-.029.9.087.53.245.95.667 1.2 1.192.23.519.36 1.077.38 1.645v1.585c0 .501 0 1.001-.07 1.478a67.158 67.158 0 01-.51 4.41c0 .525-.11.918-.15 1.193v.309c.02.054.02.112.01.167z" fill="#fff"/><path d="M1048.32 215.628s0 .417-.08 1.109c-.09.691-.1 1.776-.16 2.896v-.071l-2.25 2.598h.11l-2.6-.143h.11l-1.3-1.585-.65-.799v.108c0-1.526.08-2.98.11-4.292l-.14.132h6.79a2.21 2.21 0 00-.46 0l-1.37-.072-4.96-.191h-.13v.143c0 1.324-.09 2.766-.12 4.292l.64.786 1.3 1.586 2.61.131h.07l2.21-2.634v-2.981c.12-.329.21-.668.27-1.013z" fill="#fff"/><path d="M1041.6 219.395l.25-.108c.22-.101.45-.189.68-.262.76-.268 1.57-.39 2.38-.358.8.024 1.59.194 2.33.501.22.09.44.193.65.31l.25.119a.677.677 0 00-.22-.155 6.34 6.34 0 00-.65-.346 6.379 6.379 0 00-2.38-.536 6.649 6.649 0 00-2.39.393c-.22.085-.45.184-.66.298-.09.041-.17.088-.24.144zm0-1.037l.25-.107c.15-.072.38-.167.68-.275a6.578 6.578 0 014.67.143c.29.12.51.227.67.31.15.084.23.132.24.12l-.23-.155a6.163 6.163 0 00-3.03-.871 5.944 5.944 0 00-2.38.394c-.23.082-.46.182-.68.298-.07.041-.13.089-.19.143zm.06-1.001s.09 0 .25-.096c.15-.095.38-.167.68-.274a6.706 6.706 0 012.38-.357c.82.014 1.63.184 2.39.5.28.119.51.227.66.31.08.052.16.092.24.119l-.22-.155a3.907 3.907 0 00-.65-.333 6.298 6.298 0 00-2.38-.549 6.564 6.564 0 00-2.39.394c-.23.088-.45.191-.66.31l-.3.131z" fill="#fff"/><path d="M1099.42 149.426s-.22 26.701-1.58 34.842l-33.49-1.574s2.95-26.224 1.82-33.268h33.25z" fill="#EBEBEB"/><path d="M1071.26 160.642c3.71.551 7.46.886 11.21 1.001 3.74.338 7.5.457 11.26.357a95.385 95.385 0 00-11.22-1.013c-3.74-.331-7.5-.446-11.25-.345zm-.06 5.662c3.71.544 7.46.878 11.21 1.001 3.74.331 7.5.446 11.26.346a96.886 96.886 0 00-11.22-1.002c-3.74-.338-7.5-.453-11.25-.345zm5.69 5.543c2.1.46 4.24.7 6.38.715 2.14.218 4.29.218 6.43 0a31.99 31.99 0 00-6.39-.715 31.738 31.738 0 00-6.42 0z" fill="#fff"/><path d="M1101.06 227.978s-.23 26.688-1.59 34.842l-33.48-1.586s2.94-26.224 1.81-33.256h33.26z" fill="#EBEBEB"/><path d="M1072.79 239.194c3.72.545 7.47.879 11.22 1.002 3.74.331 7.5.446 11.25.345a96.517 96.517 0 00-11.21-1.001c-3.74-.345-7.5-.461-11.26-.346zm-.01 5.65c3.72.551 7.46.885 11.22 1.001 3.74.338 7.5.454 11.25.346a96.69 96.69 0 00-11.22-1.002c-3.74-.33-7.49-.446-11.25-.345zm5.7 5.556c2.1.453 4.23.692 6.38.715 2.13.214 4.28.214 6.42 0-2.1-.452-4.24-.688-6.39-.703a31.64 31.64 0 00-6.41-.012z" fill="#fff"/><path d="M1009.5 156.505l-3.32 77.003-96.131 1.156 4.316-77.146 95.135-1.013z" fill="#EBEBEB"/><path d="M915.116 155.957h95.494v72.104h-95.494v-72.104z" fill="#F5F5F5"/><path d="M915.104 228.061v-5.186c0-3.385 0-8.344.06-14.59 0-12.575.083-30.563.143-52.328l-.263.262h95.476l-.32-.322v72.104l.3-.298-68.874.143-19.584.083h-7.021 6.889l19.525.072 69.065.143h.3v-72.736h-96.089v.274c.059 21.838.107 39.885.143 52.448 0 6.258 0 11.157.071 14.531v3.79c0 .882.179 1.61.179 1.61z" fill="#E0E0E0"/><path d="M960.388 171.227h38.704v48.717h-38.704v-48.717z" fill="#F5F5F5"/><path d="M960.4 219.943a2.085 2.085 0 000-.25v-3.35c0-2.384 0-5.733.084-10.001 0-8.57.083-20.705.143-35.116l-.287.298h38.705c.071.071-.62-.62-.334-.322v48.693l.274-.274-28.024.143-7.867.072h-2.813c.222.017.445.017.667 0h2.039l7.795.071 28.203.143h.274v-48.8l-.333-.334h-39.003v.286c0 14.495.108 26.689.143 35.307 0 4.244 0 7.593.084 9.93v3.266c0 .166.25.25.25.238z" fill="#E0E0E0"/><path d="M923.436 160.081h74.178v7.021h-74.178v-7.021z" fill="#F5F5F5"/><path d="M923.448 167.102a2.237 2.237 0 000-.477v-1.371c0-1.192 0-2.944.071-5.173l-.131.131c12.516.12 41.029.203 74.178.203l-.333-.334v6.997l.333-.333-52.543.143-15.782.095h-5.817 5.662l15.699.095 52.829.131h.322v-7.104l-.322-.322c-33.149 0-61.662.072-74.178.191h-.131v.131c0 2.265.024 4.017.071 5.257v1.335c0 .346.072.417.072.405z" fill="#E0E0E0"/><path d="M923.424 171.227h32.22v29.358h-32.22v-29.358z" fill="#F5F5F5"/><path d="M923.448 200.586a3.739 3.739 0 000-.56v-1.597c0-1.431 0-3.445.071-5.96 0-5.162.084-12.457.143-21.218l-.286.286h32.184l-.321-.322v29.395l.393-.346-23.244.143-6.592.084h-2.384c.187.017.374.017.56 0h1.705l6.532.071 23.423.155h.286v-29.478l-.334-.334h-32.458v.274c.06 8.833.107 16.188.143 21.456 0 2.504 0 4.494.072 5.96v1.538c.018.155.054.307.107.453z" fill="#E0E0E0"/><path d="M923.424 205.187h32.22v14.757h-32.22v-14.757z" fill="#F5F5F5"/><path d="M923.448 219.944a7.117 7.117 0 000-1.073v-2.956c0-2.611.083-6.247.131-10.728l-.239.238 32.184.095c.298.298-.393-.405-.321-.322v14.722l.31-.31-23.042.143-6.711.095h-2.467c.194.017.39.017.584 0h1.74l6.652.084 23.244.143h.309v-15.031c.072 0-.631-.632-.333-.334l-32.184.083h-.239v.227c.06 4.541.096 8.236.131 10.871 0 1.192 0 2.181.06 2.908.033.386.097.769.191 1.145z" fill="#E0E0E0"/><path d="M961.342 171.311c11.979 16.556 25.771 32.088 37.75 48.633l-37.75-48.633z" fill="#fff"/><path d="M999.092 219.945a2.039 2.039 0 00-.322-.537l-1.001-1.49c-.894-1.287-2.217-3.111-3.874-5.34-3.337-4.482-8.094-10.537-13.422-17.153-5.328-6.615-10.144-12.623-13.565-17.021l-4.029-5.209-1.108-1.419c-.263-.31-.406-.477-.429-.465.08.198.188.382.321.548.275.406.596.894 1.002 1.479.894 1.287 2.217 3.111 3.874 5.352 3.325 4.47 8.093 10.525 13.422 17.153 5.328 6.627 10.144 12.611 13.565 17.009l4.029 5.221c.453.561.81 1.025 1.108 1.407.298.381.405.477.429.465z" fill="#E0E0E0"/><path d="M960.4 219.943c.143.119 8.916-10.728 19.608-24.15 10.692-13.422 19.239-24.448 19.072-24.567-.167-.12-8.916 10.728-19.608 24.161-10.692 13.434-19.227 24.448-19.072 24.556zm45.78-48.609a6.1 6.1 0 001.02 3.364 6.117 6.117 0 002.72 2.23 6.048 6.048 0 006.6-1.313 6.077 6.077 0 001.66-3.1 6.075 6.075 0 00-.35-3.499 5.974 5.974 0 00-2.23-2.717 6.018 6.018 0 00-3.36-1.021c-1.61 0-3.15.638-4.28 1.774a6.043 6.043 0 00-1.78 4.282zm-99.039-14.698a6.053 6.053 0 007.237 5.939 6.06 6.06 0 004.758-4.757 6.05 6.05 0 00-5.939-7.237 6.054 6.054 0 00-6.056 6.055z" fill="#E0E0E0"/><path d="M731.417 576.53v27.142h4.53v2.956h-4.53v18.166h-84.715v-16.533h6.27v-3.576h-6.27v-5.399h-2.79v-2.456h3.314v-20.264l84.191-.036z" fill="#F5F5F5"/><path d="M669.194 576.614v47.87h-22.493v-16.533h6.27v-3.29l-6.27.108v-5.4h-2.849l.06-2.789 3.314-.084V576.53l21.968.084z" fill="#E0E0E0"/><path d="M667.597 606.235c0 .167 15.329.298 34.234.298s34.234-.131 34.234-.298c0-.166-15.329-.297-34.234-.297s-34.234.131-34.234.297zm0-2.754c0 .167 15.329.298 34.234.298s34.234-.131 34.234-.298c0-.167-15.329-.31-34.234-.31s-34.234.143-34.234.31zm-4.398-7.473c0 .167 15.329.298 34.234.298s34.234-.131 34.234-.298c0-.167-15.329-.298-34.234-.298s-34.234.179-34.234.298zm-.43 20.264c0 .166 15.329.309 34.234.309s34.247-.143 34.247-.309c0-.167-15.33-.298-34.247-.298s-34.234.143-34.234.298z" fill="#E0E0E0"/><path d="M987.196 490.409h-64.63a8.229 8.229 0 01-8.225-8.225v-19.918a13.877 13.877 0 018.566-12.819 13.875 13.875 0 015.309-1.056h59.469l-.489 42.018z" fill="#EBEBEB"/><path d="M923.65 502.936h127.08a6.288 6.288 0 004.4-1.849 6.248 6.248 0 00-.02-8.839 6.276 6.276 0 00-4.43-1.84H923.65a6.267 6.267 0 00-4.425 1.841 6.266 6.266 0 000 8.854 6.258 6.258 0 004.425 1.833z" fill="#EBEBEB"/><path d="M1076.63 323.565l-69.91-1.192-44.377 167.726 94.607.894 35.76-147.021c.6-2.432.63-4.968.1-7.414a16.61 16.61 0 00-3.17-6.706 16.44 16.44 0 00-5.78-4.644 16.466 16.466 0 00-7.23-1.643z" fill="#E0E0E0"/><path d="M1041.8 502.936l20.92 121.56h-5.73l-27.5-121.56h12.31z" fill="#EBEBEB"/><path d="M992.489 502.936l22.231 121.56h-5.73l-28.814-121.56h12.313z" fill="#E0E0E0"/><path d="M937.943 502.936l-24.794 121.56h5.734l31.385-121.56h-12.325zm76.777-180.612l-34.568 167.905h-26.534l27.714-148.356a23.898 23.898 0 0123.498-19.549h9.89z" fill="#EBEBEB"/><path d="M624.709 625.164c0 .167 110.272.31 246.279.31 136.012 0 246.302-.143 246.302-.31 0-.166-110.25-.31-246.302-.31-136.055 0-246.279.132-246.279.31z" fill="#263238"/><path d="M937.12 625.51h91.14l-6.89-66.346-84.25-.549v66.895z" fill="#407BFF"/><path opacity=".4" d="M937.12 625.51h91.14l-6.89-66.346-84.25-.549v66.895z" fill="#000"/><path d="M923.829 558.615h91.141v66.883h-91.141v-66.883z" fill="#407BFF"/><path opacity=".2" d="M923.829 558.615h91.141v66.883h-91.141v-66.883z" fill="#000"/><path d="M923.066 591.001c0 .167 20.503.31 45.785.31 25.282 0 45.809-.143 45.809-.31 0-.166-20.503-.321-45.809-.321-25.306 0-45.785.143-45.785.321z" fill="#263238"/><path d="M998.734 597.439a40.614 40.614 0 000-10.025 40.712 40.712 0 000 10.025zm-63.367-.358c.414-2.97.414-5.982 0-8.952a32.495 32.495 0 000 8.952zm20.074-38.12s0-.727.214-1.979a12.735 12.735 0 012.027-4.947 14.485 14.485 0 016.019-5.054c3-1.32 6.262-1.936 9.536-1.8 3.294.027 6.545.754 9.536 2.134a15.839 15.839 0 016.092 5.018 13.723 13.723 0 012.229 4.864c.286 1.251.298 1.966.357 1.966a2.55 2.55 0 000-.524 8.01 8.01 0 00-.143-1.49 12.965 12.965 0 00-2.11-5.066 15.853 15.853 0 00-6.198-5.281 23.25 23.25 0 00-9.715-2.241 21.51 21.51 0 00-9.786 1.908 14.717 14.717 0 00-6.139 5.328 12.038 12.038 0 00-1.895 5.149 8.426 8.426 0 000 1.49c-.038.172-.046.35-.024.525z" fill="#263238"/><path d="M989.628 300.629a22.473 22.473 0 00-13.97-1.692c-2.539.417-5.186 1.192-6.902 3.075-1.716 1.883-2.05 5.257-.072 6.89a6.631 6.631 0 004.351 1.108c3.695 0 7.784-.691 10.728 1.526 1.681 1.264 2.801 3.374 4.768 3.993a4.764 4.764 0 005.233-2.324 8.08 8.08 0 00.596-5.96 9.17 9.17 0 00-4.732-6.616zm9.726-18.796c-2.599 3.719-7.641 2.491-9.989.226-2.348-2.264-3.326-5.554-4.232-8.677-2.05-7.152-4.124-14.662-2.598-21.945a12.217 12.217 0 012.801-5.96 6.366 6.366 0 016.032-2.003c2.551.668 4.136 3.159 5.28 5.543a52.207 52.207 0 015.162 22.445c0 3.576-.41 7.403-2.456 10.383m7.136 5.316a13.577 13.577 0 01-2.59-5.95 13.53 13.53 0 01.5-6.471c1.41-4.187 3.96-7.9 7.35-10.728a39.506 39.506 0 0113.18-7.724 13.915 13.915 0 015.96-1.013c1.02.058 2 .363 2.87.889a6.265 6.265 0 012.11 2.126c1.39 2.647 0 5.853-1.38 8.464a99.619 99.619 0 01-8.66 13.183c-2.59 3.35-5.57 6.652-9.54 8.153-3.97 1.502-8.07 1.336-10.16-1.406" fill="#407BFF"/><path d="M999.533 337.821a9.12 9.12 0 01-.238-1.693c-.119-1.192-.262-2.765-.441-4.601a67.605 67.605 0 00-1.037-6.746 51.046 51.046 0 00-2.456-7.963 29.235 29.235 0 00-4.065-7.212 15.205 15.205 0 00-5.149-4.279 14.429 14.429 0 00-4.291-1.359 8.227 8.227 0 01-1.681-.238 7.948 7.948 0 011.717 0c1.559.132 3.084.535 4.505 1.192a15.2 15.2 0 015.436 4.315 28.5 28.5 0 014.208 7.354 49.076 49.076 0 012.384 8.094c.435 2.261.734 4.546.894 6.842.143 1.955.202 3.576.226 4.625a7.891 7.891 0 01-.012 1.669z" fill="#263238"/><path d="M999.223 334.28a2.955 2.955 0 010-.786v-2.241c0-1.931 0-4.768-.095-8.213-.167-6.95-.775-14.411-1.919-24.949-1.097-9.893-2.563-21.456-4.113-28.918-.333-1.704-.667-3.23-.977-4.577-.31-1.347-.56-2.503-.811-3.445-.25-.941-.381-1.597-.524-2.169a3.334 3.334 0 01-.131-.775 3.1 3.1 0 01.274.739l.644 2.134c.286.93.584 2.086.918 3.433.333 1.347.727 2.86 1.084 4.565a252.111 252.111 0 014.327 26.832c1.192 10.549 1.669 20.157 1.717 27.118 0 3.481 0 6.294-.119 8.237 0 .906-.096 1.645-.132 2.241a4.154 4.154 0 01-.143.774z" fill="#263238"/><path d="M999.176 315.746a13.956 13.956 0 010-2.384c.083-1.502.298-3.672.715-6.33a82.908 82.908 0 012.059-9.226 75.424 75.424 0 013.87-10.919 57.863 57.863 0 0111.32-17.641c.83-.886 1.73-1.714 2.67-2.48.4-.345.76-.691 1.19-.965l1.04-.715c.62-.452 1.28-.851 1.97-1.192a66.854 66.854 0 00-6.45 5.745 61.065 61.065 0 00-11.05 17.582 86.515 86.515 0 00-3.88 10.823 92.21 92.21 0 00-2.19 9.131 86.216 86.216 0 00-.93 6.27 15.811 15.811 0 01-.334 2.301zm17.904 32.696l-1.85 25.438h-32.683l-1.859-25.438h36.392zm-40.291-10.038h43.451v10.025h-43.451v-10.025z" fill="#263238"/><path d="M1020.24 372.901v2.778h-42.735v-2.778h42.735z" fill="#455A64"/><path d="M1016.2 380.578l2-4.899h-39.133l2.336 4.899h34.797z" fill="#455A64"/><path d="M981.295 356.751s0 .083.155.238l.489.644 1.895 2.384.096.119.071-.119 4.685-6.473h-.275l4.614 6.52.143.215.155-.203c1.704-2.014 3.576-4.207 5.459-6.496h-.31l.298.381 4.89 6.115.16.203.15-.215 4.61-6.508h-.27l5.67 6.461.11.119.07-.131 1.77-2.992.46-.787c.06-.088.11-.185.14-.286-.07.077-.13.161-.19.25l-.5.763-1.87 2.933h.18l-5.58-6.544-.14-.167-.14.178c-1.4 1.967-2.96 4.161-4.64 6.485h.32l-4.878-6.139-.298-.369-.155-.203-.167.191c-1.907 2.288-3.743 4.494-5.447 6.52h.309l-4.648-6.496-.143-.191-.132.191-4.577 6.544h.167c-.834-.99-1.502-1.788-1.979-2.384l-.536-.608a1.024 1.024 0 00-.191-.143z" fill="#E0E0E0"/><path d="M980.235 348.275c0 .107 8.189.203 18.285.203 10.1 0 18.3-.096 18.3-.203 0-.107-8.19-.203-18.276-.203-10.084 0-18.309.084-18.309.203z" fill="#455A64"/><path d="M978.578 375.954c0 .119 8.904.202 19.882.202 10.98 0 19.87-.083 19.87-.202 0-.12-8.89-.203-19.87-.203-10.978 0-19.882.095-19.882.203zm-169.084 5.185H713.8v-4.649h95.694v4.649z" fill="#263238"/><path d="M698.971 381.138l-17.952-67.252h74.727l16.247 67.252h-73.022z" fill="#263238"/><path d="M767.511 376.049h-66.74l-15.543-59.052h67.097l15.186 59.052z" fill="#455A64"/><path d="M700.306 376.68h67.944l-15.496-60.255h-68.325l15.877 60.255zm66.442-1.192h-65.56l-15.222-57.871H751.8l14.948 57.871z" fill="#263238"/><path d="M1001.88 394.202h4.83v230.724h-4.83V394.202z" fill="#455A64"/><path d="M997.043 394.858h4.827v230.056h-4.827V394.858z" fill="#263238"/><path d="M704.156 394.202h4.827v230.724h-4.827V394.202z" fill="#455A64"/><path d="M699.329 394.858h4.827v230.056h-4.827V394.858z" fill="#263238"/><path d="M631.897 380.793h430.823v18.929H631.897v-18.929z" fill="#455A64"/><path d="M706.564 399.721h161.6v31.326h-161.6v-31.326z" fill="#455A64"/><path d="M780.158 413.216a3.574 3.574 0 002.208 3.303 3.572 3.572 0 004.875-2.606 3.573 3.573 0 00-3.507-4.273 3.576 3.576 0 00-3.576 3.576zm-108.793-13.495c0 .167 56.024.31 125.041.31 69.016 0 125.04-.143 125.04-.31s-56.024-.31-125.04-.31c-69.017 0-125.041.143-125.041.31z" fill="#263238"/><path d="M820.482 177.042c-.643 0-9.357 1.454-9.357 1.454l-11.789 14.853-1.776 2.813 15.902 10.167 7.02-10.394 5.96-3.874a6.067 6.067 0 00-6.293-.655 18.617 18.617 0 01-7.427 1.454l2.098-5.96 6.461-1.288-.799-8.57z" fill="#FFBE9D"/><path d="M819.744 166.648a1.82 1.82 0 00-2.265 1.49c-.965 6.091-3.886 24.424-4.768 29.8a1.742 1.742 0 001.264 1.979l14.029 3.922a1.734 1.734 0 001.96-.762 1.74 1.74 0 00.246-.704l3.838-30.432a1.837 1.837 0 00-1.371-2.015l-12.933-3.278z" fill="#263238"/><path d="M829.16 200.084l-14.304-3.993 3.791-25.318c.05-.341.172-.668.358-.958a2.431 2.431 0 011.672-1.098 2.46 2.46 0 011.021.053l11.455 3.04-3.993 28.274z" fill="#EBEBEB"/><path d="M815.155 181.56l6.425 4.768s-.536 1.692-1.514 1.811a39.26 39.26 0 01-6.151-1.311l1.24-5.268z" fill="#FFBE9D"/><path d="M815.929 177.709l6.735 2.956s.429 2.193-2.086 1.884l2.253 1.621s-.561.977-3.374 1.096c-2.813.119-5.543-3.79-5.543-3.79l2.015-3.767z" fill="#FFBE9D"/><path d="M809.242 185.207c0 .084.822-.071 1.716-.905.493-.461 1.01-.895 1.55-1.3a2.195 2.195 0 012.134-.262 40.156 40.156 0 005.84 2.765 29.164 29.164 0 00-5.626-3.349 2.702 2.702 0 00-1.442-.167c-.43.101-.836.288-1.192.548-.558.431-1.069.918-1.526 1.455-.456.438-.942.844-1.454 1.215zm1.323 16.783a9.197 9.197 0 001.073-10.12c.326 1.696.45 3.424.37 5.15a21.677 21.677 0 01-1.443 4.97zm.835-21.312c.083.072.441-.441 1.299-.715a4.57 4.57 0 013.421.393c1.264.608 2.384 1.383 3.278 1.753.894.369 1.526.453 1.538.381.012-.071-.525-.286-1.335-.775-.811-.488-1.86-1.275-3.23-1.919a5.401 5.401 0 00-2.075-.56 3.745 3.745 0 00-1.752.322c-.894.441-1.144 1.096-1.144 1.12z" fill="#EB996E"/><path d="M811.96 222.91l-35.033 22.493 9.286 26.558s23.971-7.402 23.53-8.177c-.441-.775 2.217-40.874 2.217-40.874z" fill="#407BFF"/><path d="M821.019 582.393l5.519 25.378s-23.948 14.125-23.387 18.905l49.587-8.916-6.961-39.897-24.758 4.53z" fill="#263238"/><path d="M852.738 617.761l-.858-3.993-47.227 10.048s-2.027 1.359-1.502 2.861l49.587-8.916z" fill="#455A64"/><path d="M877.424 585.184l.823 25.949s-26.117 9.536-26.427 14.364l50.386.226.381-40.528-25.163-.011z" fill="#263238"/><path opacity=".6" d="M902.207 625.723l-.119-4.088-48.264 1.323s-2.253.965-2.003 2.539l50.386.226z" fill="#455A64"/><path d="M870.118 159.568l-5.138 59.6-29.8-2.384c-.179-3.481.072-16.951.072-16.951s-12.409-1.931-12.564-14.304c-.072-6.031.787-18.476 1.693-29.692a22.959 22.959 0 0124.197-21.135 22.962 22.962 0 0121.54 24.866z" fill="#FFBE9D"/><path d="M835.24 199.607a28.898 28.898 0 0016.175-4.601s-3.826 8.928-16.199 7.807l.024-3.206z" fill="#EB996E"/><path d="M829.16 164.502a1.776 1.776 0 001.717 1.788 1.69 1.69 0 001.656-.948c.099-.203.156-.424.168-.649a1.778 1.778 0 00-1.705-1.788 1.7 1.7 0 00-1.664.946 1.72 1.72 0 00-.172.651zm-2.146-2.503c.215.239 1.562-.763 3.469-.751 1.907.012 3.302.954 3.505.727.202-.226-.119-.524-.727-.965a4.925 4.925 0 00-2.814-.87 4.664 4.664 0 00-2.765.894c-.584.441-.787.87-.668.965zm20.456 2.504a1.76 1.76 0 001.704 1.788 1.7 1.7 0 001.664-.947c.1-.203.158-.424.172-.65a1.79 1.79 0 00-1.717-1.788 1.7 1.7 0 00-1.652.949c-.1.203-.158.423-.171.648zm-1.717-2.145c.214.227 1.561-.763 3.469-.751 1.907.012 3.301.954 3.504.715.203-.238-.119-.512-.727-.953a4.757 4.757 0 00-2.813-.87 4.61 4.61 0 00-2.766.894c-.584.441-.774.858-.667.965zm-6.937 14.136a12.76 12.76 0 00-3.099-.561c-.477 0-.942-.143-1.026-.476a2.54 2.54 0 01.322-1.443c.465-1.192.942-2.384 1.443-3.707 2.002-5.28 3.444-9.619 3.23-9.691-.215-.071-2.003 4.136-4.005 9.405-.477 1.311-.942 2.551-1.371 3.731a2.856 2.856 0 00-.262 1.919 1.185 1.185 0 00.81.703c.268.076.545.116.823.12 1.04.136 2.094.136 3.135 0zm5.626 1.324c-.31 0-.31 2.05-2.086 3.576-1.776 1.525-3.969 1.192-3.993 1.537-.024.346.489.394 1.43.417a5.14 5.14 0 003.326-1.192 4.46 4.46 0 001.657-2.98c0-.858-.191-1.37-.334-1.358zm.81-22.935c.191.525 2.098.274 4.339.549 2.241.274 4.041.882 4.339.417.131-.227-.179-.715-.918-1.192a7.513 7.513 0 00-6.603-.727c-.823.298-1.228.715-1.157.953zm-17.546 1.598c.334.441 1.657 0 3.231 0 1.573 0 2.92.298 3.23-.155.131-.227-.083-.656-.668-1.073a4.69 4.69 0 00-5.197.167c-.56.405-.739.858-.596 1.061zm28.989-10.514h.072a9.765 9.765 0 013.576 6.318v.25c.489 3.576.393 7.152.918 10.728.524 3.576 1.74 7.152 4.362 9.536 1.073 1.002 2.968 1.693 3.851.525.302-.486.455-1.05.441-1.621.667-8.547 3.003-16.128 2.98-25.032a7.51 7.51 0 00-3.088-6.151c-1.871-1.335-4.148-2.73-6.234-1.74-2.086.989-4.768 4.875-6.377 6.52" fill="#263238"/><path d="M865.933 165.181c.215-.095 8.523-2.527 8.261 5.96-.263 8.487-8.738 6.461-8.738 6.222 0-.238.477-12.182.477-12.182z" fill="#FFBE9D"/><path d="M868.151 174.23s.143.107.382.226c.347.164.745.185 1.108.06a3.66 3.66 0 001.8-3.218 4.927 4.927 0 00-.346-2.134 1.714 1.714 0 00-1.072-1.192.776.776 0 00-.894.369c-.12.239-.072.406-.12.418-.047.012-.166-.143-.095-.489a.943.943 0 01.358-.525c.241-.161.534-.229.822-.19a2.12 2.12 0 011.502 1.37c.337.748.485 1.567.429 2.384-.107 1.717-1.037 3.278-2.265 3.576a1.579 1.579 0 01-1.347-.274c-.262-.178-.298-.369-.262-.381z" fill="#EB996E"/><path d="M863.848 140.091c2.086-3.398-3.636-8.273-7.82-9.536-4.184-1.264-9.703.715-13.863 2.097-2.634.871-5.245 2.086-8.022 1.979a19.373 19.373 0 01-5.376-1.371 13.592 13.592 0 00-5.424-1.072 5.1 5.1 0 00-4.458 2.825c-.703 1.716.298 4.076 2.146 4.327a4.149 4.149 0 00-3.85-.065 4.162 4.162 0 002.729 7.789c-1.192-.918-3.051.596-2.896 2.098a4.372 4.372 0 002.896 3.218c3.576 1.55 7.665 1.049 11.324-.179 3.66-1.227 7.057-3.147 10.728-4.47 3.672-1.323 9.715-3.707 13.351-2.384 2.682.954 4.553 4.184 6.067 3.469a5.165 5.165 0 002.682-3.814c.2-1.588.144-3.198-.167-4.768" fill="#263238"/><path d="M820.018 139.065c.071 0 .429.62 1.347 1.609a11.622 11.622 0 004.708 3.04c2.637.948 5.54.833 8.094-.322 2.884-1.299 5.352-3.922 8.225-6.306a17.6 17.6 0 019.536-4.577 9.763 9.763 0 018.105 2.801 7.376 7.376 0 011.931 5.483 5.56 5.56 0 01-.369 1.562c-.155.334-.251.501-.274.489.16-.678.268-1.368.321-2.062a7.323 7.323 0 00-2.038-5.066 9.302 9.302 0 00-7.676-2.456 17.152 17.152 0 00-9.06 4.446c-2.789 2.384-5.34 5.042-8.427 6.389a11.517 11.517 0 01-13.362-3.206 7.56 7.56 0 01-.882-1.311c-.132-.322-.203-.501-.179-.513zm48.086 25.747s-.37-.238-.692-.906a5.828 5.828 0 01-.429-3.075c.191-2.73 2.611-5.662 2.92-9.441a8.533 8.533 0 00-.941-5.066 6.517 6.517 0 00-3.147-2.718 5.544 5.544 0 00-2.837-.393c-.68.119-1.049.274-1.085.203a2.084 2.084 0 011.013-.513 5.256 5.256 0 013.112.143 6.891 6.891 0 013.576 2.885 9.061 9.061 0 011.108 5.543 15.661 15.661 0 01-1.633 5.34 16.148 16.148 0 00-1.49 4.112 6.425 6.425 0 00.525 3.886z" fill="#455A64"/><path d="M818.313 604.161s-25.831-126.709-25.854-129.236l46.142-24.341 17.88 148.702-38.168 4.875zm58.098 4.242l-35.676-219.602v-47.37l51.661 3.695c.62 1.847 13.648 263.563 13.648 263.563l-5.03-.286h-24.603z" fill="#263238"/><path d="M812.687 338.082l-20.228 136.842 45.224-10.967 18.428-121.417-43.424-4.458z" fill="#263238"/><path d="M804.892 397.026s-7.868-6.759-8.642-11.849c-.775-5.09 9.428-87.016 9.428-87.016l5.209-67.729c0 1.192-.143-8.535 1.431-9.119 4.768-1.8 14.566-5.066 14.566-5.066l5.602-5.03s-10.06 43.007-12.015 54.76l-15.579 131.049zm64.593-190.481l8.464 5.638 31.743 12.48-14.102 53.175 1.896 30.897 1.799 19.608s9.453 48.551 17.797 78.053c0 0-9.31 17.641-16.962 20.097l-3.183 1.895-11.348-83.094-9.738-13.112a53.363 53.363 0 01-2.635-3.898c-2.384-3.898-7.843-12.755-12.194-19.585-5.745-9.023-13.112-29.526-10.93-38.275 2.181-8.749 19.393-63.879 19.393-63.879z" fill="#407BFF"/><path d="M891.049 389.862a72.714 72.714 0 01-18.166-21.838l18.166 21.838z" fill="#263238"/><path d="M869.486 206.545l-7.64 49.027a70.872 70.872 0 003.087 18.476l13.636 44.104s10.728 24.043 7.021 27.118c-3.707 3.075-32.541 0-32.541 0l-39.027-5.662a3.435 3.435 0 01-2.92-3.719l5.793-59.862c1.955-4.137 2.754-12.6 3.576-15.604l12.016-49.193 2.455-.322 5.34 3.659 2.813.227 23.614-11.432 2.777 3.183z" fill="#EBEBEB"/><path d="M876.602 311.749c-6.306-19.656-14.471-51.613-14.471-51.613-2.539 16.688.238 33.793 6.449 49.527 5.078 12.826 11.216 22.529 15.436 35.677l.131.536s2.384.131 2.217-3.385c-.167-3.516-3.576-13.982-5.853-19.775a190.72 190.72 0 01-3.909-10.967z" fill="#E0E0E0"/><path d="M838.923 218.728h5.305l1.585 7.259-4.637 5.614-4.672-.465-1.526-5.209 1.251-2.908 2.694-4.291zm-30.932 42.386c-1.669.334-20.097 12.731-26.796 11.396-6.699-1.335-12.123-7.653-12.838-8.499-3.802-4.506-1.419-13.863-.322-17.391.267-.861.631-1.689 1.085-2.468l28.453-48.872 16.771 10.192-17.403 31.743 11.05 23.899zm137.234 59.087a21.826 21.826 0 00-1.025-17.88c-3.862-7.641-9.989-19.978-11.276-24.031-1.907-6.019-19.739-52.209-23.232-53.64l-15.496 52.317 17.999 37.906-21.098 39.753 17.582 18.953s33.269-46.393 36.01-52.126c.191-.414.37-.831.536-1.252z" fill="#407BFF"/><path d="M890.262 385.642a59.088 59.088 0 01-8.809-10.394.371.371 0 000-.322.492.492 0 00-.357-.214 50.936 50.936 0 01-2.766-4.852c2.945-1.919 6.795-4.768 2.611-5.411-5.161-.739-8.845-3.243-9.369-4.613-.525-1.371 1.192-2.599 2.551-1.729a18.705 18.705 0 004.958 1.717c1.378.325 2.801.413 4.208.262 1.633-.179 8.344-3.087 9.536-3.302l12.552 13.208s-9.643 10.263-15.115 15.65z" fill="#FFBE9D"/><path d="M808.11 262.568c.206-.469.354-.961.441-1.466.25-.954.56-2.384.906-4.089a133.245 133.245 0 001.943-13.648c.41-4.581.577-9.181.501-13.78 0-1.764-.096-3.182-.167-4.172a8.587 8.587 0 00-.167-1.525 6.486 6.486 0 00-.072 1.537v4.16c0 3.576-.202 8.344-.679 13.732-.477 5.388-1.192 10.156-1.764 13.625a734.418 734.418 0 01-.704 4.112 8.076 8.076 0 00-.238 1.514zm-14.59 2.827s.143-.001.405-.096a6.501 6.501 0 001.061-.5 9.116 9.116 0 003.027-3.076 19.252 19.252 0 002.17-5.96 72.198 72.198 0 001.418-7.664c.501-5.507.918-10.454 1.192-14.054.12-1.705.215-3.135.298-4.267a7.14 7.14 0 000-1.574 8.747 8.747 0 00-.262 1.55c-.119 1.192-.286 2.551-.477 4.243-.393 3.576-.882 8.571-1.37 14.03-.346 2.718-.859 5.293-1.371 7.605a20.206 20.206 0 01-1.979 5.96 9.706 9.706 0 01-2.789 3.099c-.858.465-1.383.656-1.323.704z" fill="#263238"/><path opacity=".3" d="M803.127 228.25a105.12 105.12 0 013.004 16.748 25.576 25.576 0 01-.524 10.12c-1.026 3.242-3.421 6.234-6.711 7.152a1037.73 1037.73 0 003.969-33.245m97.863 106.399s-5.579 11.431-8.666 17.415c-6.437-26.593 1.728-54.581-.93-81.807l4.649 9.381 1.311 21.707 1.001 12.73s.954 13.696 2.635 20.574z" fill="#000"/><path d="M896.222 225.152c-.36.462-.675.957-.942 1.478a25.381 25.381 0 00-.989 1.812c-.358.715-.799 1.538-1.192 2.468a59.008 59.008 0 00-2.515 6.675 58.615 58.615 0 00-2.527 17.236c.006 2.392.169 4.781.489 7.152.095 1.013.286 1.919.429 2.706.143.787.286 1.478.417 2.026.106.579.27 1.146.489 1.693a9.917 9.917 0 00-.251-1.74c-.095-.56-.214-1.192-.321-2.039-.108-.846-.251-1.692-.334-2.693a64.2 64.2 0 01-.346-7.069 68.46 68.46 0 01.656-8.618 69.67 69.67 0 011.847-8.451 61.937 61.937 0 012.384-6.664c.358-.941.775-1.752 1.097-2.491.322-.739.632-1.347.894-1.848a8.849 8.849 0 00.715-1.633zm16.14 90.042c.083.06.882-1.192 2.384-3.158a30.71 30.71 0 017.045-6.378 7.227 7.227 0 014.863-1.192 9.56 9.56 0 013.85 1.645c2.015 1.383 3.111 2.468 3.195 2.384a3.489 3.489 0 00-.715-.822 20.789 20.789 0 00-2.23-1.931 9.663 9.663 0 00-3.969-1.776 7.578 7.578 0 00-5.268 1.192 27.418 27.418 0 00-7.069 6.639 24.683 24.683 0 00-1.621 2.456c-.203.288-.36.605-.465.941zm3.933-12.526a24.23 24.23 0 00-3.933 12.099c.191 0 .655-2.79 1.752-6.115 1.097-3.326 2.313-5.877 2.181-5.984zm-15.197 32.017c-.342.481-.641.991-.894 1.525l-2.265 4.28a1353.963 1353.963 0 00-7.354 14.387l-.108.203.155.155 1.192 1.192c4.685 4.875 8.94 9.273 12.051 12.42l3.707 3.719c.437.476.911.914 1.419 1.312a11.37 11.37 0 00-1.192-1.478l-3.576-3.851c-3.028-3.242-7.247-7.676-11.92-12.551l-1.192-1.192v.357c2.861-5.698 5.388-10.728 7.152-14.483l2.086-4.362a9.154 9.154 0 00.739-1.633zm-23.22-23.983a5.793 5.793 0 000-1.037v-2.944c-.06-2.611-.143-6.306-.25-10.835-.108-4.53-.227-10.013-.477-16.057a87.529 87.529 0 00-2.67-19.525 45.66 45.66 0 00-3.767-9.428l-.226.453a6.475 6.475 0 003.814-2.158 9.37 9.37 0 001.991-3.707c.545-2.536.754-5.133.619-7.724v-23.602a3.688 3.688 0 000-.786 4.058 4.058 0 00-.059.786c0 .572 0 1.335-.06 2.289 0 2.05-.071 4.923-.131 8.487-.06 3.564-.083 7.963-.131 12.826a28.905 28.905 0 01-.644 7.569 8.838 8.838 0 01-1.871 3.457 5.846 5.846 0 01-3.457 1.955l-.429.071.203.382a44.827 44.827 0 013.707 9.297 89.488 89.488 0 012.694 19.382c.274 6.032.429 11.479.619 16.056.191 4.578.334 8.201.441 10.824l.144 2.944c-.037.341-.057.683-.06 1.025zm-51.077-93.752a3.268 3.268 0 00-.286.656c-.167.5-.406 1.192-.68 1.919l-2.467 7.152c-1.025 3.063-2.253 6.699-3.576 10.728-.656 2.062-1.466 4.16-2.074 6.484a8.414 8.414 0 00-.155 3.708 4.953 4.953 0 002.122 3.254l-.096-.441c-1.001 1.49-2.062 3.075-3.051 4.768a28.59 28.59 0 00-3.338 7.724 27.055 27.055 0 00-.536 7.819c.286 4.947.608 9.393.87 13.112.262 3.719.489 6.699.655 8.857.084.989.155 1.788.203 2.384.012.281.052.561.119.834a4.124 4.124 0 000-.846c0-.608-.059-1.419-.095-2.384-.107-2.169-.262-5.185-.453-8.869-.191-3.683-.465-8.212-.751-13.112-.165-2.56.023-5.131.56-7.64a28.36 28.36 0 013.29-7.546c.978-1.645 2.027-3.218 3.028-4.768l.179-.262-.275-.167a4.315 4.315 0 01-1.847-2.849 7.878 7.878 0 01.131-3.456c.572-2.241 1.383-4.399 2.026-6.437 1.312-4.089 2.492-7.736 3.493-10.812 1.001-3.075 1.728-5.447 2.277-7.152.25-.798.441-1.454.596-1.955.06-.23.104-.465.131-.703z" fill="#263238"/><path d="M873.193 365.069c.131.352.316.682.548.978.381.608.954 1.466 1.681 2.515 1.466 2.098 3.576 4.947 5.96 8.022a152.33 152.33 0 006.389 7.676 67.473 67.473 0 002.05 2.23c.501.512.787.786.823.762a31.69 31.69 0 00-2.539-3.278c-1.61-1.978-3.827-4.768-6.235-7.771-2.407-3.004-4.541-5.865-6.091-7.903a31.385 31.385 0 00-2.586-3.231zm-18.679-15.378v.668c0 .441.12 1.12.215 1.967.191 1.74.489 4.279.858 7.533a2334.98 2334.98 0 003.457 27.702c3.016 23.375 7.593 55.619 12.516 91.236 2.456 17.82 4.768 34.794 6.627 50.267.489 3.862.883 7.64 1.431 11.3.548 3.659 1.108 7.152 1.633 10.609l2.885 19.072c1.752 11.657 3.135 21.086 4.04 27.618.453 3.254.787 5.793.99 7.522.095.858.167 1.514.19 1.955.011.166.011.333 0 .5 0 .143-.083 0-.083 0s.095 0 .083-.059a1.827 1.827 0 000-.501c0-.441-.059-1.109-.143-1.967-.154-1.728-.452-4.279-.87-7.545-.834-6.544-2.145-15.985-3.838-27.643-.87-5.84-1.812-12.218-2.813-19.072-.525-3.433-1.049-6.973-1.597-10.62-.549-3.648-.93-7.427-1.419-11.289-1.883-15.496-4.124-32.458-6.568-50.278-4.923-35.629-9.536-67.849-12.706-91.212-1.538-11.658-2.778-21.11-3.648-27.666-.417-3.255-.751-5.782-.977-7.534-.119-.834-.203-1.49-.263-1.955-.059-.465 0-.608 0-.608zM827.313 602.98a6.351 6.351 0 00-.083-.643c-.072-.453-.167-1.085-.298-1.907a300.198 300.198 0 01-1.192-7.284c-1.109-6.353-2.718-15.496-4.697-26.784l-15.782-88.363a20.591 20.591 0 01-.381-6.389c.274-2.122.631-4.267.941-6.365.644-4.22 1.284-8.372 1.919-12.457 1.288-8.153 2.563-16.02 3.803-23.506 2.491-14.971 4.899-28.429 7.045-39.705 2.145-11.277 4.04-20.372 5.471-26.63.679-3.135 1.299-5.554 1.681-7.152.178-.798.321-1.43.429-1.871.107-.441.131-.644.131-.644a6.048 6.048 0 00-.191.632l-.501 1.86c-.417 1.633-1.072 4.04-1.788 7.152-1.501 6.234-3.456 15.329-5.662 26.593-2.205 11.264-4.648 24.722-7.152 39.694a2620.912 2620.912 0 00-3.838 23.506c-.636 4.092-1.279 8.245-1.931 12.456-.322 2.122-.667 4.22-.953 6.389a21.435 21.435 0 00.393 6.592c6.21 34.461 11.825 65.668 15.901 88.28 2.062 11.276 3.731 20.407 4.887 26.748.584 3.147 1.049 5.591 1.359 7.271.155.811.286 1.443.37 1.884.083.441.119.643.119.643zm13.422-215.728c-.179 0 1.931 14.209 4.708 31.683 2.778 17.475 5.15 31.648 5.293 31.648.143 0-1.943-14.209-4.709-31.683-2.765-17.475-5.125-31.672-5.292-31.648zm35.247 220.758c.388.113.788.181 1.192.202.751.084 1.847.191 3.206.298 2.706.215 6.461.418 10.609.477 4.148.06 7.915 0 10.633-.131 1.358 0 2.455-.119 3.206-.191.404.007.806-.049 1.192-.166a36.26 36.26 0 00-4.398-.072c-2.718 0-6.461 0-10.609-.06-4.148-.059-7.879-.19-10.597-.298a32.974 32.974 0 00-4.434-.059z" fill="#455A64"/><path d="M818.313 604.16a7.594 7.594 0 001.514-.084l4.101-.429c3.456-.393 8.224-.989 13.493-1.669a890.063 890.063 0 0013.482-1.835l4.076-.62a9.801 9.801 0 001.49-.298 5.78 5.78 0 00-1.526.059c-.965.084-2.384.227-4.1.418a949.7 949.7 0 00-13.505 1.657 865.752 865.752 0 00-13.47 1.847l-4.077.632a6.357 6.357 0 00-1.478.322z" fill="#455A64"/><path d="M868.616 214.472a8.077 8.077 0 00-1.311.846l-3.504 2.384c-2.98 2.038-7.153 4.768-11.921 7.486-1.788 1.025-3.576 1.978-5.149 2.837l.429.19a723.795 723.795 0 00-2.527-9.75c-.31-1.121-.572-2.05-.787-2.813a4.505 4.505 0 00-.345-.99c.008.351.06.7.155 1.037.167.775.369 1.717.608 2.849.56 2.384 1.358 5.841 2.384 9.81l.083.358.334-.167a139.88 139.88 0 005.185-2.825 127.594 127.594 0 0011.849-7.664 92.627 92.627 0 003.397-2.599 6.84 6.84 0 001.12-.989zm-39.336 8.772a40.439 40.439 0 005.269 3.576l.262.167.143-.286 1.609-3.135c1.192-2.384 2.324-4.649 3.075-6.27.468-.851.844-1.75 1.121-2.682a13.342 13.342 0 00-1.502 2.492 205.073 205.073 0 00-3.242 6.174l-1.61 3.207.406-.12a43.9 43.9 0 00-5.531-3.123z" fill="#263238"/><path d="M837.051 222.076c.318.313.67.589 1.049.823.656.488 1.586 1.192 2.623 1.847 1.037.656 1.979 1.335 2.67 1.788.377.261.776.488 1.192.68a6.257 6.257 0 00-1.049-.835 173.046 173.046 0 00-2.622-1.835l-2.671-1.788a7.886 7.886 0 00-1.192-.68z" fill="#263238"/><path d="M840.628 224.542a20.88 20.88 0 002.384-2.193c.77-.74 1.483-1.537 2.134-2.384a20.147 20.147 0 00-2.313 2.193 21.077 21.077 0 00-2.205 2.384zm22.457 105.745a27.751 27.751 0 01-2.468 8.594 27.389 27.389 0 01-5.554 6.997 7.317 7.317 0 002.181-1.561 18.419 18.419 0 005.841-11.348 7.6 7.6 0 000-2.682zm-6.938 15.709a16.688 16.688 0 0010.478-4.923c-.12-.143-2.17 1.49-5.055 2.837-2.884 1.347-5.459 1.895-5.423 2.086zm-23.292-38.154a4.93 4.93 0 00-.441 1.275c-.25.835-.572 2.05-.929 3.576-.739 3.016-1.609 7.224-2.301 11.92-.691 4.697-1.084 8.964-1.263 12.075-.084 1.55-.131 2.801-.131 3.672a5.14 5.14 0 000 1.346 6.32 6.32 0 00.19-1.335c.096-1.001.203-2.217.334-3.659.286-3.075.739-7.331 1.43-12.003.692-4.673 1.502-8.881 2.122-11.92.286-1.419.537-2.623.739-3.576a6.27 6.27 0 00.25-1.371z" fill="#263238"/><path d="M840.794 232.816c1.55 12.385 2.694 39.336 3.123 51.84.358 10.442.322 20.896.287 31.35 0 3.373 0 6.854-1.443 9.918-2.491 5.518-8.582 8.344-14.173 10.584l12.206-103.692z" fill="#E0E0E0"/><path d="M826.896 334.721l-6.401-15.687 16.008-87.898 4.673.465s-.656 91.354-.441 92.177l-13.839 10.943z" fill="#407BFF"/><path d="M836.67 231.136a7.96 7.96 0 002.229.369 8.578 8.578 0 002.241 0 14.873 14.873 0 00-2.229-.214 17.676 17.676 0 00-2.241-.155z" fill="#263238"/><path d="M206.273 51.68H64.249v205.852h142.024V51.68z" fill="#E0E0E0"/><path d="M199.148 51.68H57.124v205.852h142.024V51.68z" fill="#F5F5F5"/><path d="M181.502 73.983H74.771v161.258h106.731V73.983z" fill="#fff"/><path d="M181.502 235.241v-11.926c0-7.727 0-18.984-.105-33.22 0-28.431-.092-68.696-.171-116.112l.355.355-106.797.026.393-.38c0 60.837 0 116.925-.078 161.257l-.315-.315 77.683.171 21.465.079h5.707-5.576l-21.399.078-77.88.289h-.302v-.302c0-44.332 0-100.42-.079-161.258v-.393h107.453v.354c-.065 47.508-.131 87.904-.17 116.348 0 14.196-.079 25.427-.092 33.141v11.021c0 .525-.092.787-.092.787z" fill="#E0E0E0"/><path d="M199.542 51.68a23.14 23.14 0 01-2.532 3.686c-1.64 2.205-3.936 5.248-6.652 8.45-2.716 3.201-5.248 6.114-7.019 8.16a24.083 24.083 0 01-3.136 3.189 27.05 27.05 0 012.716-3.543l6.835-8.292 6.836-8.305a28.833 28.833 0 012.952-3.345z" fill="#E0E0E0"/><path d="M182.053 234.717a132.666 132.666 0 0018.604 23.235l-18.604-23.235z" fill="#fff"/><path d="M200.657 257.952a23.07 23.07 0 01-3.24-2.952 105.194 105.194 0 01-7.019-7.872 101.472 101.472 0 01-6.18-8.593 20.546 20.546 0 01-2.165-3.818 30.39 30.39 0 012.624 3.516c1.562 2.191 3.766 5.248 6.337 8.41 2.572 3.162 5.012 6.022 6.809 8.029a28.713 28.713 0 012.834 3.28z" fill="#E0E0E0"/><path d="M57.111 257.375l18.605-22.96-18.605 22.96z" fill="#fff"/><path d="M75.716 234.415a142.366 142.366 0 01-9 11.729 142.183 142.183 0 01-9.605 11.231 139.18 139.18 0 019-11.716 140.68 140.68 0 019.605-11.244zM57.124 51.68c3.206 3.43 6.223 7.03 9.04 10.784a133.81 133.81 0 018.423 11.27c-.17.145-4.211-4.697-9.04-10.784a130.213 130.213 0 01-8.422-11.27zm91.132 55.038h-35.739v101.47h35.739v-101.47zm248.611-36.736v83.732H276.622l-4.343-83.141 124.588-.59z" fill="#E0E0E0"/><path d="M272.279 70.585v82.958h120.245V70.585H272.279z" fill="#fff"/><path d="M393.102 154.107H271.715v-84.1h121.387v84.1zm-120.206-1.115h119.103V71.149H272.896v81.843z" fill="#E0E0E0"/><path d="M379.509 80.885h-94.201v62.346h94.201V80.885z" fill="#fff"/><path d="M379.509 80.832h-26.384l-67.818.145.276-.276v62.333l-.302-.301h94.202l-.236.236c0-18.972.091-34.532.118-45.37 0-5.405 0-9.642.065-12.542v-4.434 4.342c0 2.887 0 7.098.066 12.49 0 10.864 0 26.477.118 45.514v.236h-94.739V80.308h.275l67.988.13 19.47.394h6.901z" fill="#E0E0E0"/><path d="M272.279 70.336c.74.355 1.436.795 2.073 1.312 1.234.892 2.9 2.152 4.71 3.595a95.86 95.86 0 014.527 3.844 9.935 9.935 0 011.718 1.745c-.104.118-3.004-2.257-6.56-5.143a66.15 66.15 0 01-6.468-5.353zm120.258.236a59.76 59.76 0 01-6.337 5.393 57.439 57.439 0 01-6.691 4.92 57.266 57.266 0 016.324-5.393 57.008 57.008 0 016.704-4.92z" fill="#E0E0E0"/><path d="M392.432 153.543l-13.395-10.863 13.395 10.863z" fill="#fff"/><path d="M379.023 142.68a61.256 61.256 0 016.902 5.248 63.137 63.137 0 016.56 5.654 63.998 63.998 0 01-6.888-5.248 64.922 64.922 0 01-6.574-5.654zm-106.744 10.85a60.564 60.564 0 016.272-5.327 55.721 55.721 0 016.625-4.867 56.87 56.87 0 01-6.258 5.34 57.063 57.063 0 01-6.639 4.854zm32.158-53.214v20.873h59.276v-20.873h-59.276z" fill="#E0E0E0"/><path d="M101.444 612.403c-2.217-1.903-7.163-7.872-3.359-14.931 1.404-2.624 4.369-3.844 7.059-4.972a28.76 28.76 0 007.741-4.015c4.185-3.569 5.353-9.486 8.134-14.248 3.188-5.472 9.184-9.565 15.469-9.276 7.216.328 13.225 6.219 15.954 12.949 2.728 6.731 2.833 14.183 2.886 21.438 0 4.015-.144 8.541-3.096 11.244-2.716 2.506-6.81 2.532-10.496 2.414l-39.4-1.207" fill="#F5F5F5"/><path d="M176.871 503.939H73.157L91.84 615.355a12.44 12.44 0 008.856 9.958h.328c.315.078.617.183.932.236.695.143 1.402.227 2.112.249v.105l.498-.079h46.314a13.586 13.586 0 002.545-.249 12.518 12.518 0 0010.496-10.89l9.001-76.765.406-3.057 3.569-30.399-.026-.525zm-19.562 71.072h-10.64l1.075-32.341h12.32l-2.755 32.341zm3.792-32.354h10.194l-3.792 32.34h-9.184l2.782-32.34zm-30.413 68.224l-.642-28.09h15.324l-.932 28.09h-13.75zm-16.544-28.117h14.878l.643 28.117h-13.356l-2.165-28.117zm1.128 28.117h-12.49c-1.181-7.584-2.729-17.45-4.395-28.09h14.707l2.178 28.09zm-1.758-35.844l-2.506-32.38h17.056l.748 32.34-15.298.04zm16.348 0l-.735-32.38h17.581l-1.076 32.354-15.77.026zm-.919-40.095l-.682-29.94h19.68l-.997 29.914-18.001.026zm-1.023 0h-17.515l-2.322-29.94h19.181l.656 29.94zm-18.552 0H90.843c-.656-4.133-1.312-8.056-1.837-11.572-1.928-12.11-2.624-16.662-3.07-18.368h21.11l2.322 29.94zm.604 7.754l2.519 32.341H97.167c-.512-3.28-1.037-6.56-1.561-9.932-1.142-7.649-2.454-15.285-3.53-22.448l17.896.039zm-13.855 32.315H86.12l-5.432-32.354h10.339c1.587 10.01 3.332 21.123 5.09 32.354zm1.22 7.753c1.535 9.749 3.031 19.3 4.409 28.117h-9.617l-4.71-28.09 9.918-.027zm48.138 28.117l.931-28.09h10.247l-2.401 28.09h-8.777zm2.519-75.939l.997-29.94h14.301l-2.559 29.94h-12.739zm-62.976-29.94c.406 2.165 2.296 13.947 4.841 29.94h-10.47l-5.025-29.94h10.654zm78.326 105.879h-8.016l2.401-28.09h8.895l-3.28 28.09zm8.909-75.939h-10.496l2.624-29.94h11.388l-3.516 29.94z" fill="#E0E0E0"/><path d="M482.003 340.386v28.076h-4.697v3.044h4.697v18.788h87.602v-17.056h-6.494v-3.765h6.494v-5.576h2.886v-2.546h-3.424v-20.992l-87.064.027z" fill="#F5F5F5"/><path d="M546.343 340.477v49.501h23.262v-17.095h-6.494v-3.411l6.494.118v-5.589l2.939.013-.053-2.886-3.424-.092v-20.651l-22.724.092z" fill="#E0E0E0"/><path d="M547.996 371.1c0 .183-15.849.314-35.424.314s-35.424-.131-35.424-.314c0-.184 15.849-.302 35.424-.302s35.424.131 35.424.302zm0-2.848c0 .171-15.849.315-35.424.315s-35.424-.144-35.424-.315c0-.17 15.849-.314 35.424-.314s35.424.144 35.424.314zm4.553-7.675c0 .171-15.862.315-35.424.315-19.562 0-35.424-.144-35.424-.315 0-.17 15.849-.302 35.424-.302s35.424.132 35.424.302zm.433 20.913c0 .17-15.849.315-35.424.315s-35.424-.145-35.424-.315c0-.171 15.849-.315 35.424-.315s35.424.105 35.424.315zM364.618 604.675h11.336V468.83h-11.336v135.845z" fill="#E0E0E0"/><path d="M290.057 474.983H452.22a17.592 17.592 0 00-17.607-17.607H307.664a17.594 17.594 0 00-17.607 17.594v.013z" fill="#EBEBEB"/><path d="M452.876 475.639H289.401v-.656a18.278 18.278 0 0118.263-18.25h126.949a18.275 18.275 0 0118.263 18.25v.656zm-162.15-1.312h160.825a16.978 16.978 0 00-16.938-16.282H307.664a16.95 16.95 0 00-16.938 16.282z" fill="#E0E0E0"/><path d="M359.265 475.338c0 .223 4.447.42 9.945.42 5.497 0 9.945-.197 9.945-.42 0-.223-4.448-.42-9.945-.42-5.498 0-9.945.184-9.945.42z" fill="#E0E0E0"/><path d="M320.679 616.981h1.614a48.241 48.241 0 0196.484 0h1.601a49.86 49.86 0 00-14.602-35.254 49.86 49.86 0 00-70.507 0 49.857 49.857 0 00-14.603 35.254h.013z" fill="#EBEBEB"/><path d="M412.099 619.461a7.477 7.477 0 008.937 7.335 7.483 7.483 0 005.876-5.876 7.475 7.475 0 00-7.335-8.938 7.478 7.478 0 00-7.478 7.479zm-98.465-1.037a7.479 7.479 0 1014.958.027 7.479 7.479 0 00-14.958-.027z" fill="#E0E0E0"/><path d="M321.165 604.675c0 .236 21.687.42 48.439.42 26.751 0 48.452-.184 48.452-.42s-21.688-.42-48.452-.42c-26.765 0-48.439.197-48.439.42zm135.818-270.312v100.001a23.748 23.748 0 01-23.748 23.734h-77.053l10.496-123.735a10.588 10.588 0 0110.587-10.588h69.169a10.592 10.592 0 0110.549 10.588z" fill="#EBEBEB"/><path d="M429.746 457.376s0-.105.17-.302l.564-.813a58.153 58.153 0 002.126-3.175 52.713 52.713 0 005.733-12.766 51.43 51.43 0 001.916-9.459c.31-3.692.411-7.397.301-11.1v-25.558c0-18.105.092-34.492.119-46.445 0-5.877.105-10.666.131-14.077 0-1.601.026-2.874.078-3.818-.006-.439.02-.877.079-1.312.059.435.085.873.079 1.312 0 .944.026 2.217.079 3.818 0 3.411.078 8.2.131 14.077 0 11.953 0 28.34.118 46.445v25.558a95.881 95.881 0 01-.394 11.178 51.286 51.286 0 01-8.042 22.304c-.932 1.391-1.706 2.427-2.257 3.097-.28.372-.591.718-.931 1.036z" fill="#E0E0E0"/><path d="M387.788 457.442a14.433 14.433 0 012.44-.145l6.678-.078h22.042c4.29 0 8.397 0 12.123.144 3.33-.059 6.653.302 9.892 1.076a15.277 15.277 0 015.944 3.122c.48.392.92.832 1.312 1.312.275.315.407.499.38.512-.026.013-.63-.616-1.876-1.561a16.15 16.15 0 00-5.904-2.808 41.34 41.34 0 00-9.748-.879l-12.136-.079c-8.594 0-16.374-.17-22.015-.275l-6.678-.184c-.821.02-1.642-.033-2.454-.157z" fill="#E0E0E0"/><path d="M616.26 625.954c0 .184-129.075.341-288.247.341-159.171 0-288.272-.157-288.272-.341 0-.183 129.048-.341 288.272-.341 159.225 0 288.247.158 288.247.341z" fill="#263238"/><path d="M137.013 326.123v9.604h71.91v-9.604h-71.91z" fill="#407BFF"/><path d="M146.813 326.517c.25 0 .459 2.02.459 4.5 0 2.479-.209 4.5-.459 4.5-.249 0-.446-2.007-.446-4.5s.197-4.5.446-4.5zm-1.561-.197c.249 0 .446 2.021.446 4.5 0 2.48-.197 4.501-.446 4.501-.25 0-.46-2.008-.46-4.501 0-2.492.21-4.5.46-4.5zm58.108.197c.249 0 .446 2.02.446 4.5 0 2.479-.197 4.5-.446 4.5s-.459-2.007-.459-4.5.223-4.5.459-4.5zm-1.561-.197c.249 0 .459 2.021.459 4.5 0 2.48-.21 4.54-.459 4.54-.249 0-.446-2.007-.446-4.5s.197-4.54.446-4.54zm-9.394 4.894c0 .249-8.226.459-18.368.459-10.142 0-18.368-.21-18.368-.459 0-.25 8.239-.446 18.368-.446 10.129 0 18.368.196 18.368.446z" fill="#FAFAFA"/><path d="M136.697 369.38v19.208h71.911V369.38h-71.911z" fill="#407BFF"/><path d="M209.54 383.182s-.118.092-.394.223c-.388.204-.786.388-1.194.551a20.315 20.315 0 01-4.88 1.391 12.7 12.7 0 01-7.872-1.116 10.377 10.377 0 01-3.753-3.411 7.954 7.954 0 01-1.312-5.536 5.905 5.905 0 011.312-2.86 3.844 3.844 0 011.358-1.036 3.843 3.843 0 011.673-.342 4.377 4.377 0 013.057 1.653 5.972 5.972 0 011.365 3.332 8.765 8.765 0 01-2.48 6.81 11.014 11.014 0 01-6.914 3.385 18.379 18.379 0 01-8.03-.997 14.887 14.887 0 01-7.006-4.71 7.7 7.7 0 01-1.627-4.146 5.417 5.417 0 011.522-4.317 3.427 3.427 0 012.257-.984 4.061 4.061 0 012.348.656 6.285 6.285 0 012.624 3.871 9.173 9.173 0 01-2.834 8.475 14.294 14.294 0 01-8.095 3.293 20.054 20.054 0 01-8.397-.826 11.628 11.628 0 01-6.389-4.973 8.47 8.47 0 01-.8-7.623 3.932 3.932 0 012.939-2.479 4.585 4.585 0 013.621.866 5.995 5.995 0 011.705 6.481 11.123 11.123 0 01-3.621 5.104 16.337 16.337 0 01-9.853 3.831 16.011 16.011 0 01-11.9-4.802 11.561 11.561 0 01-.853-.997 1.644 1.644 0 01-.249-.368 17.861 17.861 0 005.34 4.067 15.59 15.59 0 007.636 1.588 15.847 15.847 0 009.459-3.805 10.49 10.49 0 003.372-4.828 5.25 5.25 0 00-1.495-5.668 3.942 3.942 0 00-3.018-.721 3.228 3.228 0 00-2.349 2.046 7.717 7.717 0 00.788 6.888 10.844 10.844 0 005.943 4.579 19.286 19.286 0 008.016.761 13.29 13.29 0 007.584-3.083 8.2 8.2 0 002.624-7.597 5.367 5.367 0 00-2.244-3.319 2.783 2.783 0 00-3.516.223 4.48 4.48 0 00-1.312 3.595 6.776 6.776 0 001.443 3.674 13.986 13.986 0 006.56 4.434 17.496 17.496 0 007.636.984 10.103 10.103 0 006.429-3.096 7.987 7.987 0 002.348-6.272 4.604 4.604 0 00-3.726-4.316 3.146 3.146 0 00-2.506 1.128 5.258 5.258 0 00-1.194 2.532 7.3 7.3 0 001.168 5.104 9.934 9.934 0 003.516 3.28 12.475 12.475 0 007.623 1.22 22.44 22.44 0 004.854-1.22c1.116-.367 1.68-.603 1.693-.577z" fill="#FAFAFA"/><path d="M143.126 336.003v33.338h65.495v-33.338h-65.495z" fill="#263238"/><path d="M154.016 337.157c.249 0 .446 7.216.446 16.125 0 8.908-.197 16.137-.446 16.137s-.459-7.229-.459-16.137c0-8.909.21-16.125.459-16.125zm4.959-.42c.25 0 .446 7.138.446 15.928 0 8.79-.196 15.928-.446 15.928-.249 0-.446-7.138-.446-15.928 0-8.79.223-15.928.446-15.928zm42.247-1.076c.249 0 .446 7.518.446 16.781 0 9.262-.197 16.767-.446 16.767-.25 0-.486-7.505-.486-16.794 0-9.289.236-16.754.486-16.754zm-5.839.459c.249 0 .446 7.308.446 16.335 0 9.026-.197 16.347-.446 16.347s-.459-7.321-.459-16.347c0-9.027.21-16.335.459-16.335z" fill="#E0E0E0"/><path d="M550.384 546.802l-2.099 38.665a2.624 2.624 0 01-2.624 2.479l-69.536.499a2.626 2.626 0 01-2.624-2.624l-.223-30.045a2.623 2.623 0 012.624-2.624h42.797a2.552 2.552 0 001.837-.774l7.387-7.374a2.623 2.623 0 011.823-.76l18.04-.132a2.63 2.63 0 012.42 1.672c.126.324.187.67.178 1.018z" fill="#407BFF"/><path opacity=".3" d="M550.384 546.802l-2.099 38.665a2.624 2.624 0 01-2.624 2.479l-69.536.499a2.626 2.626 0 01-2.624-2.624l-.223-30.045a2.623 2.623 0 012.624-2.624h42.797a2.552 2.552 0 001.837-.774l7.387-7.374a2.623 2.623 0 011.823-.76l18.04-.132a2.63 2.63 0 012.42 1.672c.126.324.187.67.178 1.018z" fill="#000"/><path d="M473.557 594.021l76.015-.557-.333-45.433-76.015.557.333 45.433z" fill="#F5F5F5"/><path d="M555.318 552.063l-5.458 47.415a1.683 1.683 0 01-1.654 1.483l-74.088.538a1.653 1.653 0 01-1.68-1.535l-4.054-47.337a1.682 1.682 0 01.425-1.277 1.669 1.669 0 011.229-.547l83.626-.616a1.683 1.683 0 011.246.569 1.676 1.676 0 01.408 1.307z" fill="#407BFF"/><path d="M570.865 539.507l-2.113 38.664a2.623 2.623 0 01-2.624 2.48l-69.536.499a2.624 2.624 0 01-2.624-2.624l-.223-30.098a2.624 2.624 0 012.624-2.624h42.785a2.621 2.621 0 001.849-.774l7.374-7.373a2.623 2.623 0 011.837-.761l18.027-.131a2.62 2.62 0 012.459 1.701c.124.332.181.686.165 1.041z" fill="#407BFF"/><path opacity=".3" d="M570.865 539.507l-2.113 38.664a2.623 2.623 0 01-2.624 2.48l-69.536.499a2.624 2.624 0 01-2.624-2.624l-.223-30.098a2.624 2.624 0 012.624-2.624h42.785a2.621 2.621 0 001.849-.774l7.374-7.373a2.623 2.623 0 011.837-.761l18.027-.131a2.62 2.62 0 012.459 1.701c.124.332.181.686.165 1.041z" fill="#000"/><path d="M494.025 586.706l76.016-.558-.333-45.42-76.016.557.333 45.421z" fill="#F5F5F5"/><path d="M575.784 544.768l-5.457 47.415a1.683 1.683 0 01-1.654 1.483l-74.088.538a1.67 1.67 0 01-1.68-1.535l-4.08-47.39a1.673 1.673 0 01.433-1.277 1.682 1.682 0 011.233-.546l83.614-.617a1.669 1.669 0 011.285.576 1.684 1.684 0 01.394 1.353z" fill="#407BFF"/><path opacity=".3" d="M575.784 544.768l-5.457 47.415a1.683 1.683 0 01-1.654 1.483l-74.088.538a1.67 1.67 0 01-1.68-1.535l-4.08-47.39a1.673 1.673 0 01.433-1.277 1.682 1.682 0 011.233-.546l83.614-.617a1.669 1.669 0 011.285.576 1.684 1.684 0 01.394 1.353z" fill="#000"/><path d="M593.929 548.56l-2.099 38.704a2.624 2.624 0 01-2.624 2.48l-69.536.498a2.623 2.623 0 01-2.624-2.624l-.223-30.097a2.624 2.624 0 012.624-2.624h42.785a2.621 2.621 0 001.849-.774l7.387-7.373a2.622 2.622 0 011.824-.761l18.04-.132a2.638 2.638 0 011.866.806 2.616 2.616 0 01.731 1.897z" fill="#407BFF"/><path d="M517.09 595.771l76.015-.557-.333-45.42-76.015.557.333 45.42z" fill="#F5F5F5"/><path d="M598.862 553.821l-5.457 47.415a1.694 1.694 0 01-1.667 1.483l-74.075.538a1.679 1.679 0 01-1.693-1.535l-4.08-47.337a1.67 1.67 0 01.433-1.277 1.67 1.67 0 011.233-.547l83.614-.617a1.701 1.701 0 011.267.559 1.683 1.683 0 01.425 1.318z" fill="#407BFF"/><path d="M511.89 560.263v65.77h94.884v-65.77H511.89zm30.976 11.808a4.856 4.856 0 014.855-4.855h23.222a4.857 4.857 0 014.855 4.855 4.855 4.855 0 01-4.855 4.854h-23.222a4.828 4.828 0 01-3.427-1.409 4.841 4.841 0 01-1.428-3.419v-.026z" fill="#455A64"/><path d="M460.735 560.263v65.77h51.168v-65.77h-51.168zm127.723-171.675H92.116v15.914h496.342v-15.914z" fill="#263238"/><path d="M116.624 402.547L67.542 626.125h8.305l58.122-221.623-17.345-1.955zm413.227-.473l49.082 224.051h-8.305l-58.121-221.624 17.344-2.427zM169.917 300.093a34.03 34.03 0 01-3.49 2.702 81.385 81.385 0 00-15.088 14.839 33.116 33.116 0 01-2.768 3.438 17.725 17.725 0 012.309-3.779 60.566 60.566 0 016.954-8.147 61.862 61.862 0 018.265-6.823 17.932 17.932 0 013.818-2.23z" fill="#263238"/><path d="M167.07 288.364a47.894 47.894 0 01-1.666 8.462c-1.142 4.632-2.231 8.331-2.44 8.266-.21-.066.524-3.857 1.653-8.476 1.128-4.618 2.23-8.305 2.453-8.252z" fill="#263238"/><path d="M165.824 287.721c-.564.249-.735 1.64-.263 2.296a1.708 1.708 0 002.191.38 1.688 1.688 0 00.969-1.881 1.686 1.686 0 00-.891-1.173 1.697 1.697 0 00-2.072.43" fill="#455A64"/><path d="M171.767 293.048c.105.21-1.312 1.023-3.031 1.837-1.719.813-3.28 1.312-3.385 1.089-.105-.223 1.312-1.024 3.044-1.824a8.118 8.118 0 013.372-1.102z" fill="#263238"/><path d="M171.636 291.723a2.773 2.773 0 00-1.076 1.312 1.203 1.203 0 00.643 1.469 1.13 1.13 0 001.063-.223 2.17 2.17 0 00.629-.944 1.74 1.74 0 000-1.207.836.836 0 00-.984-.538m-.315 6.953a1.651 1.651 0 01.96 2.843 1.654 1.654 0 11-1.314-2.843" fill="#455A64"/><path d="M135.399 252.494c.13.908.195 1.825.196 2.742.066 1.903.145 4.422.25 7.479.17 6.323.341 15.048.485 24.678.144 9.63.236 18.368.263 24.679v7.478c.015.899-.033 1.798-.145 2.69a17.117 17.117 0 01-.197-2.742c0-1.902-.144-4.421-.249-7.478-.17-6.311-.341-15.036-.485-24.679-.145-9.643-.236-18.368-.263-24.679v-7.478c-.015-.899.033-1.798.145-2.69z" fill="#263238"/><path d="M147.692 247.233a12.181 12.181 0 01-6.603 11.802 12.173 12.173 0 01-13.431-1.577 12.177 12.177 0 0111.639-20.854 12.174 12.174 0 018.395 10.629z" fill="#407BFF"/><path opacity=".3" d="M135.057 260.405a23.379 23.379 0 01.092-3.53 19.81 19.81 0 00-1.233-8.186 11.415 11.415 0 00-5.498-5.891 17.5 17.5 0 00-3.332-.932c.306-.112.634-.152.958-.118.9.007 1.79.185 2.624.525a11.132 11.132 0 016.022 6.101 18.26 18.26 0 011.063 8.541 11.666 11.666 0 01-.696 3.49z" fill="#000"/><path opacity=".3" d="M146.406 243.441c0 .236-3.411 0-6.757 2.178-3.345 2.177-4.552 5.392-4.762 5.248.04-.744.285-1.461.708-2.073a11.073 11.073 0 013.621-3.936 10.877 10.877 0 015.012-1.706c1.404-.013 2.191.184 2.178.289z" fill="#000"/><path opacity=".3" d="M140.961 244.399c-.131 0-.288-.801-1.049-1.837a5.487 5.487 0 00-8.528-.709c-.919.893-1.207 1.693-1.312 1.64-.105-.052 0-.918.918-2.033a5.906 5.906 0 014.92-2.113 5.98 5.98 0 014.474 2.861c.708 1.312.656 2.204.577 2.191z" fill="#000"/><path opacity=".3" d="M137.603 246.734c-.237 0-.499-1.64-1.522-3.385-1.024-1.745-2.323-2.821-2.178-3.018.144-.197 1.771.669 2.886 2.624 1.115 1.955.971 3.805.814 3.779z" fill="#000"/><path opacity=".3" d="M136.448 243.113c0 .236-.945.564-1.771 1.377-.827.814-1.417 1.745-1.627 1.627-.21-.118 0-1.181 1.063-2.217 1.062-1.037 2.335-.984 2.335-.787z" fill="#000"/><path d="M109.474 289.859c.209 0 3.555 9.801 7.478 22.016 3.923 12.214 6.914 22.199 6.704 22.304-.21.105-3.568-9.788-7.478-22.016-3.91-12.227-6.928-22.225-6.704-22.304z" fill="#263238"/><path d="M117.253 314.184a91.447 91.447 0 01-7.872-5.839c-4.264-3.306-7.609-6.14-7.465-6.324a63.323 63.323 0 017.964 5.681c4.33 3.294 7.544 6.298 7.373 6.482z" fill="#263238"/><path d="M100.053 301.011a2.02 2.02 0 00.328 2.689 2.215 2.215 0 003.031-.498 1.995 1.995 0 00-.748-2.703 2.191 2.191 0 00-2.768.735" fill="#455A64"/><path d="M117.267 285.058c.236 0-.499 3.555-1.942 7.675-1.443 4.119-2.335 7.491-2.545 7.465-.21-.026.328-3.595 1.771-7.728a69.46 69.46 0 012.716-7.412z" fill="#263238"/><path d="M116.873 282.013c-.8.591-.84.932-1.155 1.877a1.867 1.867 0 001.116 2.401 2.13 2.13 0 002.138-1.444 2.619 2.619 0 000-2.44 1.42 1.42 0 00-2.178-.236" fill="#455A64"/><path d="M102.926 311.153a8.667 8.667 0 013.215-1.784c1.863-.787 3.437-1.312 3.529-1.05a8.715 8.715 0 01-3.214 1.798 8.672 8.672 0 01-3.53 1.036z" fill="#263238"/><path d="M100.027 309.802c-.564.289-.8 1.64-.761 2.204a1.769 1.769 0 00.866 1.378 2.164 2.164 0 10-.105-3.582zm5.851-22.226a2.904 2.904 0 001.509 3.216 2.896 2.896 0 003.49-.657 2.165 2.165 0 00.564-1.654 3.346 3.346 0 00-2.624-2.4 2.982 2.982 0 00-2.939 1.495z" fill="#455A64"/><path d="M147.587 299.7a14.839 14.839 0 01-.971 3.227c-.787 2.257-1.693 4.815-2.624 7.636-.932 2.821-1.942 5.353-2.755 7.609a15.544 15.544 0 01-1.312 3.097c-.236 0 1.141-5.025 3.28-10.982 2.138-5.956 4.159-10.679 4.382-10.587z" fill="#263238"/><path d="M160.51 294.111a10.413 10.413 0 01-18.924 3.507 10.406 10.406 0 01-1.681-5.809 10.415 10.415 0 0112.576-10.057 10.429 10.429 0 018.029 12.359z" fill="#407BFF"/><path opacity=".3" d="M146.944 301.838a16.48 16.48 0 01.892-2.873c.8-2.245 1.126-4.63.958-7.007a9.695 9.695 0 00-3.044-6.14 16.341 16.341 0 00-2.479-1.627 4.427 4.427 0 012.847 1.155 9.623 9.623 0 013.489 6.494c.188 2.496-.235 5-1.233 7.295a8.65 8.65 0 01-1.43 2.703z" fill="#000"/><path opacity=".3" d="M160.379 290.752c0 .236-2.808-.761-6.049.21-3.24.971-5.038 3.28-5.248 3.096-.21-.184.237-.708 1.05-1.548a9.273 9.273 0 018.476-2.493c1.18.197 1.81.577 1.771.735z" fill="#000"/><path opacity=".3" d="M155.682 290.161c-.131 0-.079-.735-.446-1.758a4.683 4.683 0 00-6.77-2.624c-.971.499-1.417 1.076-1.522.984-.105-.092.223-.774 1.22-1.469a4.896 4.896 0 017.61 2.965c.275 1.181-.013 1.928-.092 1.902z" fill="#000"/><path opacity=".3" d="M152.362 291.25c-.236 0 0-1.469-.485-3.136-.486-1.666-1.181-2.873-.997-3.017.183-.145 1.312.944 1.784 2.834.472 1.889-.105 3.398-.302 3.319z" fill="#000"/><path opacity=".3" d="M152.271 287.996c0 .236-.919.289-1.772.735-.852.446-1.587 1.076-1.758.892-.17-.184.289-.997 1.312-1.614 1.024-.616 2.257-.21 2.218-.013z" fill="#000"/><path d="M123.604 277.854c.202.559.334 1.141.393 1.732.223 1.312.486 2.874.8 4.75.643 3.936 1.47 9.551 2.336 15.744.866 6.192 1.6 11.69 2.099 15.744.21 1.876.394 3.477.551 4.775.102.541.137 1.092.105 1.64a7.227 7.227 0 01-.394-1.718c-.223-1.312-.485-2.887-.8-4.75-.643-4.014-1.469-9.564-2.335-15.744-.866-6.179-1.614-11.703-2.099-15.744-.224-1.876-.394-3.477-.552-4.775a6.599 6.599 0 01-.104-1.654z" fill="#263238"/><path d="M132.512 266.9a10.413 10.413 0 01-3.591 11.007 10.419 10.419 0 01-15.729-3.479 10.414 10.414 0 011.386-11.495 10.413 10.413 0 015.103-3.249 10.39 10.39 0 017.911.949 10.387 10.387 0 014.92 6.267z" fill="#407BFF"/><path opacity=".3" d="M124.01 280.046a17.522 17.522 0 01-.525-2.965 17.56 17.56 0 00-2.414-6.652 9.722 9.722 0 00-5.55-4.028 18.55 18.55 0 00-2.938-.275 4.58 4.58 0 013.056-.289 9.54 9.54 0 016.114 4.146 15.46 15.46 0 012.296 7.019 8.2 8.2 0 01-.039 3.044z" fill="#000"/><path opacity=".3" d="M130.754 263.921c0 .236-2.847.63-5.248 3.005-2.401 2.374-2.939 5.248-3.175 5.156-.236-.092-.118-.748.223-1.863a9.18 9.18 0 016.35-6.14c1.102-.302 1.837-.25 1.85-.158z" fill="#000"/><path opacity=".3" d="M126.332 265.64c-.118 0-.406-.617-1.207-1.312a4.965 4.965 0 00-3.805-1.312 5.054 5.054 0 00-3.411 2.125c-.63.893-.761 1.601-.892 1.575-.131-.026-.17-.787.407-1.876a4.9 4.9 0 013.812-2.619 4.903 4.903 0 014.296 1.713c.8.906.892 1.693.8 1.706z" fill="#000"/><path opacity=".3" d="M123.905 268.159c-.223 0-.747-1.312-1.889-2.624-1.141-1.312-2.374-1.981-2.283-2.204.092-.224 1.64.209 2.9 1.679 1.259 1.469 1.482 3.109 1.272 3.149z" fill="#000"/><path opacity=".3" d="M122.305 265.312c.105.21-.669.669-1.22 1.469-.551.801-.906 1.666-1.142 1.666-.236 0-.21-1.01.486-2.059.695-1.05 1.823-1.273 1.876-1.076z" fill="#000"/><path d="M125.086 388.68l-9.46-68.238h40.712l-8.318 68.238h-22.934z" fill="#455A64"/><path d="M153.399 347.167c0 .184-7.636.341-17.056.341-9.42 0-17.056-.157-17.056-.341 0-.183 7.623-.341 17.056-.341s17.056.118 17.056.341zm-.853 4.356c0 .184-7.294.341-16.308.341-9.013 0-16.308-.157-16.308-.341 0-.183 7.308-.354 16.308-.354 9.001 0 16.308.157 16.308.354zm-.512 4.186c0 .197-7.058.341-15.744.341-8.685 0-15.744-.144-15.744-.341 0-.197 7.046-.341 15.744-.341 8.699 0 15.744.158 15.744.341zm-.551 4.578c0 .184-6.796.342-15.166.342-8.371 0-15.167-.158-15.167-.342 0-.183 6.783-.341 15.167-.341 8.383 0 15.166.145 15.166.341zm-.511 4.16c0 .183-6.481.341-14.432.341-7.951 0-14.432-.158-14.432-.341 0-.184 6.481-.342 14.432-.342 7.951 0 14.432.119 14.432.342zm-.814 4.159c-4.631.346-9.277.46-13.92.341-4.647.119-9.297.005-13.933-.341 0-.184 6.232-.341 13.933-.341 7.702 0 13.92.157 13.92.341zm-.196 4.172c0 .184-6.062.341-13.54.341-7.479 0-13.54-.157-13.54-.341 4.504-.346 9.024-.46 13.54-.341 4.516-.119 9.035-.005 13.54.341zm-.512 4.159c-4.32.346-8.656.46-12.989.341-4.337.119-8.677.005-13.002-.341 4.326-.338 8.665-.452 13.002-.341 4.333-.111 8.668.003 12.989.341zm430.021-234.794H439.993v124.784h139.478V142.143z" fill="#FAFAFA"/><path d="M579.471 266.94v-9.001c0-5.864 0-14.432-.078-25.334 0-21.806-.105-52.966-.171-90.463l.328.341H440.084l.381-.393v124.797l-.341-.341 100.88.171 28.457.091h10.142-10.011l-28.379.092-101.089.171h-.341V141.552h140.2v.328c-.066 37.589-.131 68.814-.171 90.672 0 10.877-.065 19.405-.078 25.256v6.56c0 1.456-.263 2.572-.263 2.572z" fill="#263238"/><path d="M579.471 266.939v-9c0-5.865 0-14.432-.091-25.335 0-21.805-.092-52.965-.158-90.462l.315.328H440.071l.368-.381v124.798l-.328-.328 100.879.157 28.458.092h10.141-10.01l-28.379.079-101.089.17h-.328V141.564h140.174v.315c-.066 37.589-.118 68.815-.158 90.66 0 10.876-.065 19.417-.091 25.269v6.56c0 1.456-.237 2.571-.237 2.571z" fill="#263238"/><path d="M493.47 164.315c0 .21-7.334.38-16.4.38-9.066 0-16.387-.17-16.387-.38s7.334-.368 16.387-.368 16.4.171 16.4.368zm59.106 9.381c0 .197-20.179.367-45.041.367-24.863 0-45.055-.17-45.055-.367 0-.197 20.166-.381 45.055-.381 24.888 0 45.041.171 45.041.381zm-85.779 15.862h-5.878v5.877h5.878v-5.877zm14.458 0h-5.878v5.877h5.878v-5.877z" fill="#263238"/><path d="M495.989 189.295h-5.878v5.878h5.878v-5.878z" fill="#407BFF"/><path d="M510.185 189.558h-5.878v5.877h5.878v-5.877zm14.471 0h-5.878v5.877h5.878v-5.877zm14.458 0h-5.878v5.877h5.878v-5.877zm14.471 0h-5.877v5.877h5.877v-5.877zm-86.788 12.504h-5.878v5.877h5.878v-5.877zm14.458 0h-5.878v5.877h5.878v-5.877zm14.471 0h-5.877v5.877h5.877v-5.877zm14.459 0h-5.878v5.877h5.878v-5.877zm14.471 0h-5.878v5.877h5.878v-5.877z" fill="#263238"/><path d="M539.389 201.786h-5.877v5.878h5.877v-5.878z" fill="#407BFF"/><path d="M553.585 202.062h-5.877v5.877h5.877v-5.877zm-86.788 12.49h-5.878v5.877h5.878v-5.877z" fill="#263238"/><path d="M481.531 214.275h-5.878v5.878h5.878v-5.878z" fill="#407BFF"/><path d="M495.726 214.552h-5.877v5.877h5.877v-5.877zm14.459 0h-5.878v5.877h5.878v-5.877zm14.471 0h-5.878v5.877h5.878v-5.877zm14.458 0h-5.878v5.877h5.878v-5.877zm14.471 0h-5.877v5.877h5.877v-5.877zm-86.788 12.49h-5.878v5.878h5.878v-5.878zm14.458 0h-5.878v5.878h5.878v-5.878zm14.471 0h-5.877v5.878h5.877v-5.878z" fill="#263238"/><path d="M510.46 226.779h-5.877v5.878h5.877v-5.878z" fill="#407BFF"/><path d="M524.656 227.042h-5.878v5.878h5.878v-5.878zm14.458 0h-5.878v5.878h5.878v-5.878zm14.471 0h-5.877v5.878h5.877v-5.878zm-86.788 12.49h-5.878v5.878h5.878v-5.878zm14.458 0h-5.878v5.878h5.878v-5.878zm14.471 0h-5.877v5.878h5.877v-5.878zm14.459 0h-5.878v5.878h5.878v-5.878zm14.471 0h-5.878v5.878h5.878v-5.878z" fill="#263238"/><path d="M539.389 239.27h-5.877v5.877h5.877v-5.877z" fill="#407BFF"/><path d="M553.585 239.532h-5.877v5.878h5.877v-5.878z" fill="#263238"/><path d="M270.63 424.212c.619 8.02 13.015 89.991 13.015 89.991l-4.162 31.497 4.86 72.421 24.387-2.464 9.101-101.15 8.448-97.168-55.649 6.873z" fill="#FFBE9D"/><path d="M309.923 610.347s27.818 10.439 28.122 15.591l-53.871-.214V611.64l1.98.462a40.028 40.028 0 0023.769-1.755z" fill="#263238"/><path d="M337.077 624.442c0 .169-11.833.292-26.423.292-14.59 0-26.424-.123-26.424-.292 0-.169 11.834-.293 26.424-.293s26.423.135 26.423.293z" fill="#455A64"/><path d="M254.826 422.57c.618 8.02 9.303 31.632 9.303 31.632l3.824 101.409.619 60.89 24.41-2.486 5.523-82.803 3.577-113.873-47.256 5.231z" fill="#FFBE9D"/><path d="M302.251 460.771c.015.13.015.262 0 .393v1.125c0 1.046-.147 2.52-.248 4.41-.247 3.869-.596 9.404-1.023 16.221-.844 13.701-2.25 32.622-3.308 53.522-1.057 20.901-2.249 39.81-2.958 53.545-.405 6.817-.743 12.374-.967 16.221-.124 1.89-.225 3.375-.293 4.409 0 .484-.067.855-.09 1.125a1.42 1.42 0 01-.056.383 1.886 1.886 0 010-.383v-1.125c0-1.046.112-2.519.191-4.409.18-3.87.45-9.404.776-16.232.72-13.735 1.699-32.622 2.79-53.568 1.091-20.945 2.531-39.81 3.476-53.5.506-6.816.922-12.373 1.215-16.209.146-1.89.27-3.375.36-4.41.045-.472.078-.847.101-1.125 0-.132.012-.263.034-.393z" fill="#EB996E"/><path d="M319.574 252.317l10.394 20.136 15.13 29.247 14.252-6.524 1.688-3.994c5.827 13.308 22.846 21.272 10.124 28.303l-43.815 20.506-17.334-31.024 9.561-56.65z" fill="#407BFF"/><path d="M258.11 181.55a9.516 9.516 0 00-.968 8.56c.597 1.564 1.62 3.296.822 4.77-.799 1.473-2.891 1.53-4.5 2.092a6.32 6.32 0 00-3.993 7.064c.379.994.552 2.054.506 3.116a6.82 6.82 0 01-1.867 2.689 7.868 7.868 0 00-1.387 7.745 7.875 7.875 0 006.01 5.079 10.19 10.19 0 013.622.832c1.226.754 1.755 2.25 2.621 3.375a6.62 6.62 0 0010.638-.086 6.607 6.607 0 001.263-3.851" fill="#263238"/><path d="M278.729 172.551c-2.902-1.845-3.611-6.12-2.036-9.179a11.254 11.254 0 018.324-5.479 15.86 15.86 0 0113.645 4.5c1.879 1.924 3.375 4.5 5.94 5.332 2.249.776 4.713.079 7.064.382a10.667 10.667 0 017.458 5.377 23.031 23.031 0 012.643 9.067c.349 2.891.574 6.074 2.576 8.178 2.003 2.104 5.051 2.497 7.481 3.96a10.256 10.256 0 013.048 13.993c-.967 1.395-2.351 2.689-2.463 4.387-.113 1.699.9 2.936 1.372 4.421a6.908 6.908 0 01-5.917 8.583c-2.013.113-4.173-.675-5.984.225s-2.464 3.071-3.622 4.713a8.626 8.626 0 01-10.529 2.723c-1.485-.732-2.891-1.924-4.5-1.823-1.608.102-2.936 1.519-4.499 1.834-2.126.416-4.14-1.125-5.4-2.902-1.26-1.778-2.137-3.825-3.757-5.254-2.115-1.889-5.084-2.351-7.75-3.273a21.89 21.89 0 01-12.464-30.62" fill="#263238"/><path d="M272.576 177.174a4.841 4.841 0 00-3.132 1.616 4.854 4.854 0 00-1.21 3.311l2.902 65.502c.124 7.739 11.429 12.082 19.697 11.89 8.358-.202 8.628-4.297 8.741-11.654.168-12.283.157-16.873.157-16.873s10.563-1.777 12.723-15.557c1.068-6.862.697-18.088.101-27.279-.54-8.257-6.041-18.392-14.275-17.503l-25.704 6.547z" fill="#FFBE9D"/><path d="M308.426 195.993a1.763 1.763 0 01-1.698 1.789 1.697 1.697 0 01-1.246-.409 1.692 1.692 0 01-.577-1.177 1.764 1.764 0 011.699-1.789 1.681 1.681 0 011.246.409 1.7 1.7 0 01.576 1.177zm1.699-2.024c-.213.236-1.552-.754-3.453-.742-1.901.011-3.296.967-3.498.731-.203-.236.112-.518.719-.968a4.9 4.9 0 012.801-.866c.989-.007 1.954.3 2.756.878.585.45.788.866.675.967zm-20.405 2.025a1.78 1.78 0 01-1.71 1.788 1.685 1.685 0 01-1.778-1.586 1.78 1.78 0 011.699-1.788 1.688 1.688 0 011.789 1.586z" fill="#263238"/><path d="M291.441 194.374c-.225.225-1.564-.765-3.465-.754-1.901.011-3.296.968-3.498.731-.203-.236.112-.517.731-.956a4.774 4.774 0 012.801-.877 4.71 4.71 0 012.756.888c.573.439.776.855.675.968zm6.929 14.083a12.24 12.24 0 013.093-.563c.484 0 .945-.146 1.024-.483a2.483 2.483 0 00-.326-1.44l-1.451-3.69c-2.003-5.264-3.454-9.584-3.24-9.663.214-.078 2.002 4.117 4.016 9.382l1.384 3.712c.301.585.389 1.258.247 1.901a1.223 1.223 0 01-.787.72c-.272.072-.552.11-.833.113a11.904 11.904 0 01-3.127.011z" fill="#263238"/><path d="M299.731 230.955a35.02 35.02 0 01-18.46-4.882s4.68 9.719 18.46 8.403v-3.521zm-2.16-17.908a3.37 3.37 0 00-3.071-1.271 3.184 3.184 0 00-2.159 1.125 2.016 2.016 0 00-.147 2.25 2.311 2.311 0 002.498.63 7.386 7.386 0 002.429-1.462c.213-.153.396-.344.54-.563a.649.649 0 000-.709" fill="#EB996E"/><path d="M292.779 209.784c.304 0 .315 2.048 2.081 3.51 1.767 1.462 3.971 1.226 3.983 1.519.011.292-.484.393-1.418.427a5.14 5.14 0 01-3.318-1.125 4.498 4.498 0 01-1.62-2.947c-.079-.889.146-1.395.292-1.384zm-.494-18.751c-.18.518-2.081.281-4.32.551-2.238.27-4.027.889-4.331.428-.123-.225.18-.709.911-1.215a7.242 7.242 0 013.206-1.125 7.364 7.364 0 013.375.383c.832.337 1.237.742 1.159.978zm17.131-.529c-.337.439-1.642 0-3.217 0-1.575 0-2.913.293-3.217-.157-.135-.225.079-.653.652-1.125a4.666 4.666 0 015.186.157c.563.473.743.923.596 1.125zm-29.281-20.923a9.422 9.422 0 003.376 7.27 9.425 9.425 0 007.749 2.045c2.104-.383 4.41-1.452 6.232-.327 1.823 1.125 2.003 4.072 3.701 5.546 2.43 2.104 6.288.124 9.371 1.046 2.384.698 3.869 2.981 5.455 4.893 1.586 1.913 3.949 3.735 6.333 3.026a28.856 28.856 0 00-.944-6.355 9.417 9.417 0 00-3.611-5.175c-.99-.641-2.126-1.035-3.049-1.766-1.968-1.597-2.43-4.376-3.656-6.603a10.315 10.315 0 00-7.874-5.219c-2.711-.282-5.512.528-8.155-.135-1.946-.495-3.656-1.755-5.625-2.138-3.847-.731-7.435 2.036-10.225 4.792m-10.158 60.136l30.98 3.982-.304 10.698 31.981 40.046-9.123 54.647-25.659-9.404-30.721-52.487.788-40.496 2.058-6.986z" fill="#263238"/><path d="M246.445 395.381l15.04 108.552s31.002 8.718 59.529-3.881L332.769 395.1l-31.216-21.576-55.108 21.857z" fill="#407BFF"/><path d="M266.491 236.186l-5.298 8.762s-14.748 6.221-17.999 13.814c-3.251 7.593 23.263 82.016 23.263 82.016s-20.248 24.421-20.046 54.602c0 0 40.317 12.903 78.338 4.376l-6.221-85.694s-.922-19.821-6.918-27.414-45.119-50.462-45.119-50.462z" fill="#407BFF"/><path d="M299.9 239.336l-.169 6.018s21.463 34.557 22.858 41.621c3.431 17.357-2.509 46.042-2.509 46.042l2.509 66.92 12.284-4.252-7.515-66.706 2.745-15.254s5.624-24.973 2.767-30.777c-2.148-4.308-8.166-21.519-13.341-30.631a11.415 11.415 0 00-8.999-5.748l-4.758-.405-5.872-6.828z" fill="#407BFF"/><path d="M318.325 308.966a5.008 5.008 0 01-.281-.888 43.795 43.795 0 00-.742-2.542 49.752 49.752 0 00-3.814-9 48.824 48.824 0 00-8.65-11.507c-3.825-3.881-8.999-7.076-13.893-11.035h-.078v-.09c-.821-2.846-1.631-5.625-2.408-8.291l.327.203-6.097 1.125h-.146l-.102-.102c-3.116-3.262-6.007-6.288-8.504-9.078l-6.491-7.323-4.274-4.769c-.461-.529-.844-.956-1.125-1.271a3.565 3.565 0 01-.371-.461c.161.113.309.245.438.393l1.204 1.204a208.451 208.451 0 014.387 4.668l6.592 7.233c2.509 2.767 5.433 5.771 8.549 8.999l-.247-.078 6.097-1.125h.258l.068.258c.776 2.666 1.586 5.445 2.418 8.28l-.101-.147c4.905 3.926 10.057 7.143 13.915 11.103a48.435 48.435 0 018.639 11.699 46.207 46.207 0 013.667 9.1c.315 1.125.518 1.991.63 2.588.072.28.117.566.135.854zm5.029 0a4.41 4.41 0 01.09-.742c.101-.551.214-1.249.371-2.126.326-1.912.787-4.567 1.35-7.807.562-3.24 1.181-7.233 1.642-11.631.113-1.125.203-2.25.259-3.375.092-1.162.065-2.33-.079-3.487-.292-2.374-.787-4.815-1.293-7.312a272.452 272.452 0 00-1.969-8.65l.203.202-6.547-1.912-.248-.079.068-.247c.36-1.328.708-2.599 1.035-3.814l.078.248c-4.004-3.375-6.974-6.547-9.134-8.673-1.023-1.046-1.845-1.89-2.463-2.509a7.827 7.827 0 01-.833-.922c.341.238.658.51.945.81.63.607 1.485 1.406 2.554 2.407 2.249 2.07 5.242 5.186 9.258 8.515l.112.102v.146c-.326 1.226-.652 2.497-1.001 3.825l-.18-.327 6.547 1.879h.157v.169a274.614 274.614 0 011.98 8.661c.517 2.509.99 4.961 1.294 7.368.14 1.191.162 2.393.067 3.589a85.055 85.055 0 01-.281 3.374c-.495 4.421-1.181 8.347-1.766 11.643-.585 3.296-1.125 5.951-1.541 7.784-.203.866-.36 1.564-.473 2.104-.034.27-.102.534-.202.787zm-.765 90.937c-.158 0-1.058-18.178-2.014-40.631-.956-22.453-1.586-40.654-1.417-40.654.168 0 1.057 18.178 2.002 40.631.945 22.453 1.586 40.654 1.429 40.654z" fill="#263238"/><path d="M334.873 395.651c-.275.146-.561.27-.855.371l-2.464.945c-1.125.416-2.385.911-3.959 1.361-1.575.45-3.308 1.125-5.321 1.564l-3.127.787c-1.125.281-2.25.461-3.375.709-2.362.528-4.916.866-7.616 1.26a128.654 128.654 0 01-17.638.9 142.424 142.424 0 01-17.604-1.598c-2.678-.45-5.22-.866-7.582-1.406-2.362-.54-4.5-1.024-6.536-1.53-2.036-.506-3.779-1.035-5.343-1.473a74.892 74.892 0 01-3.993-1.26l-2.498-.844a5.428 5.428 0 01-.866-.337c.307.045.608.12.9.225l2.531.742c1.125.338 2.441.742 4.016 1.125 1.575.382 3.375.945 5.354 1.395 1.98.45 4.163 1.012 6.536 1.451 2.374.439 4.893.911 7.571 1.35a148.64 148.64 0 0017.525 1.541c5.866.107 11.732-.178 17.56-.855 2.688-.371 5.242-.697 7.593-1.192 1.181-.237 2.329-.405 3.375-.675l3.172-.743c2.002-.438 3.757-1.035 5.332-1.462 1.575-.428 2.891-.889 3.971-1.271l2.508-.844c.27-.105.548-.184.833-.236z" fill="#263238"/><path d="M243.228 258.762s-8.111 13.881 2.25 32.431c10.36 18.549 40.496 60.643 40.496 60.643a42.164 42.164 0 0012.059 2.913c5.062.315 29.573-13.206 37.47-17.627l1.586-4.994-4.781-8.707-5.051-9.202-28.122 8.189-29.99-59.518s-8.875-12.812-25.917-4.128z" fill="#407BFF"/><path d="M254.826 306.289s.123.146.337.45l.956 1.35 3.634 5.208 13.285 19.258 9.156 13.33 1.238 1.811c.461.563.888 1.125 1.372 1.721a17.393 17.393 0 003.375 2.97 14.466 14.466 0 008.92 2.317c.815-.052 1.626-.15 2.43-.292.304-.09.709-.281 1.125-.439.416-.157.765-.326 1.125-.506a286.948 286.948 0 004.589-2.171l9.416-4.601 19.719-9.832-.146.169.247-.776c.45-1.417.889-2.823 1.339-4.218v.236l-9.82-17.92.326.135-28.123 8.156-.202.067-.101-.191a29607.115 29607.115 0 00-18.212-36.244l-5.062-10.191-1.328-2.7c-.135-.293-.247-.518-.326-.698l-.101-.236a.793.793 0 01.135.225l.371.675 1.384 2.666c1.215 2.351 2.969 5.782 5.197 10.124l18.403 36.143-.304-.124 28.122-8.212.214-.067.113.202c3.172 5.76 6.457 11.756 9.831 17.909l.068.101v.124c-.439 1.395-.889 2.801-1.328 4.218l-.247.776v.124h-.113l-19.73 9.82-9.416 4.59a243.629 243.629 0 01-4.6 2.16l-1.125.517c-.398.184-.808.342-1.226.473a20 20 0 01-2.464.292 14.993 14.993 0 01-9.235-2.43 18.06 18.06 0 01-3.465-3.06c-.495-.573-.934-1.192-1.395-1.777l-1.237-1.822c-3.274-4.803-6.322-9.269-9.101-13.364l-13.273-19.303-3.544-5.276-.911-1.383c-.202-.315-.292-.484-.292-.484z" fill="#263238"/><path d="M294.838 335.491c-.158-.079 1.125-2.891 2.34-6.502 1.215-3.611 1.923-6.614 2.092-6.581a24.261 24.261 0 01-1.53 6.75 23.958 23.958 0 01-2.902 6.333zm-16.075 16.435a8.331 8.331 0 01-2.25-1.237 33.178 33.178 0 01-4.735-3.982 54.413 54.413 0 01-4.106-4.612 10.617 10.617 0 01-1.463-2.104c.147-.124 2.599 2.913 5.985 6.299a49.874 49.874 0 004.499 4.061 19.197 19.197 0 012.07 1.575zm-5.883-152.48a1.547 1.547 0 00-.817 1.68 1.536 1.536 0 001.402 1.234c4.635 1.046 5.242-7.998 4.207-10.574a27.018 27.018 0 004.646-4.927 19.404 19.404 0 002.137-9.359c1.665.101 8.774-2.25 8.021-2.464-1.733-.495-5.265-1.608-6.199-3.116a10.56 10.56 0 00-9.179-5.275 8.725 8.725 0 00-7.874 6.895 12.513 12.513 0 00-10.765 6.93 14.498 14.498 0 00.394 13.498 7.222 7.222 0 011.406 3.375c0 1.53-1.125 2.745-1.913 4.016-2.193 3.464-2.024 8.211-.337 11.98 1.687 3.768 2.88 5.084 5.276 5.838 4.702 1.474-.743 11.159 7.075 11.159" fill="#263238"/><path d="M273.071 203.226a4.009 4.009 0 00-2.011-3.297 4.011 4.011 0 00-3.861-.078c-1.395.81-2.463 2.43-2.34 5.546.338 8.302 8.606 6.243 8.606 6.007 0-.236-.214-4.736-.394-8.178z" fill="#FFBE9D"/><path d="M270.799 208.322s-.135.101-.371.225a1.418 1.418 0 01-1.125.068 3.569 3.569 0 01-1.789-3.139 4.864 4.864 0 01.315-2.092 1.638 1.638 0 011.047-1.125.72.72 0 01.866.36c.123.225.078.394.123.405.045.011.169-.146.09-.484a.9.9 0 00-.348-.506 1.128 1.128 0 00-.81-.18 2.014 2.014 0 00-1.463 1.35 5.053 5.053 0 00-.405 2.328c.124 1.677 1.047 3.206 2.25 3.499a1.597 1.597 0 001.316-.27c.304-.236.338-.428.304-.439z" fill="#EB996E"/><path d="M334.355 208.581s.18-.259.472-.788a6.55 6.55 0 00-.146-6.378 8.282 8.282 0 00-4.308-3.082c-1.868-.754-4.151-1.215-6.153-2.711a10.43 10.43 0 01-3.589-6.75c-.45-2.722-.225-5.624-.439-8.481a14.893 14.893 0 00-.877-4.297 8.677 8.677 0 00-2.463-3.667 7.877 7.877 0 00-4.073-1.654 15.47 15.47 0 00-4.387.135 29.664 29.664 0 01-4.33.596 5.368 5.368 0 01-3.994-1.417 15.784 15.784 0 01-2.25-3.375 7.605 7.605 0 00-2.418-2.643 8.907 8.907 0 00-6.221-1.339 9.43 9.43 0 00-4.814 2.25 12.107 12.107 0 00-2.543 3.217 17.032 17.032 0 00-1.271 3.285v-.237c.026-.228.071-.454.135-.675.21-.856.516-1.686.911-2.474a12.264 12.264 0 012.52-3.375 9.777 9.777 0 014.972-2.475 9.371 9.371 0 016.558 1.35 8.13 8.13 0 012.588 2.79 15.727 15.727 0 002.193 3.183 4.84 4.84 0 003.622 1.249 29.152 29.152 0 004.241-.607c1.486-.254 3-.303 4.5-.147a8.568 8.568 0 014.376 1.789 9.192 9.192 0 012.643 3.914c.517 1.449.82 2.964.9 4.5.214 2.97 0 5.805.405 8.448a9.899 9.899 0 003.375 6.479c1.867 1.44 4.117 1.935 6.006 2.723a8.535 8.535 0 014.444 3.296 6.537 6.537 0 01.821 4.105 6 6 0 01-.855 2.498 3.517 3.517 0 01-.551.765z" fill="#455A64"/><path d="M312.735 187.433c.056 0 0 .675.112 1.867a13.121 13.121 0 001.463 4.814 12.35 12.35 0 002.024 2.824 16.288 16.288 0 003.15 2.463c.632.415 1.217.898 1.744 1.44a4.766 4.766 0 011.124 2.104 16.183 16.183 0 010 4.893 5.804 5.804 0 001.035 4.353 10.686 10.686 0 003.623 2.408 13.695 13.695 0 013.498 2.171c.466.445.847.971 1.125 1.552.239.542.387 1.12.439 1.71a6.034 6.034 0 01-1.744 4.803c-.352.321-.75.587-1.181.788-.293.123-.45.18-.461.157a7.703 7.703 0 001.473-1.125 5.822 5.822 0 001.496-4.589 4.673 4.673 0 00-1.473-2.959 13.493 13.493 0 00-3.375-2.036 11.027 11.027 0 01-3.825-2.52 4.963 4.963 0 01-1.124-2.249 9.378 9.378 0 01-.113-2.509 15.775 15.775 0 000-4.713 5.625 5.625 0 00-2.655-3.24 16.634 16.634 0 01-3.194-2.587 12.242 12.242 0 01-2.025-2.959 12.44 12.44 0 01-1.328-4.983 8.685 8.685 0 010-1.406 1.58 1.58 0 01.192-.472zm-58.956 34.759a1.138 1.138 0 01-.303-.09 6.169 6.169 0 01-.833-.417 7.168 7.168 0 01-2.418-2.531 6.83 6.83 0 01-.664-5.377 7.393 7.393 0 014.961-4.927l-.124.394a11.347 11.347 0 01-2.25-4.162 5.943 5.943 0 01.821-5.006 4.502 4.502 0 012.194-1.687c.912-.25 1.868-.3 2.801-.146.884.154 1.784.192 2.677.112a2.706 2.706 0 002.059-1.372 5.273 5.273 0 00.258-3.802c-.326-1.271-.877-2.498-1.125-3.814a11.064 11.064 0 01.945-7.458 10.714 10.714 0 014.781-4.724 11.041 11.041 0 015.625-1.125l-.203.169a5.906 5.906 0 012.002-3.656 6.417 6.417 0 012.723-1.463 5.177 5.177 0 011.957-.078c.224.027.443.084.652.168a6.631 6.631 0 00-2.564.124c-.98.261-1.88.759-2.621 1.451a5.53 5.53 0 00-1.823 3.465v.18h-.191c-1.856-.1-3.706.288-5.366 1.125a10.234 10.234 0 00-4.499 4.499 10.663 10.663 0 00-.866 7.098c.281 1.238.832 2.453 1.181 3.802a5.752 5.752 0 01-.315 4.219 3.265 3.265 0 01-2.43 1.71c-.945.093-1.899.055-2.835-.113a6.027 6.027 0 00-2.553.113 3.93 3.93 0 00-1.912 1.473 5.416 5.416 0 00-.765 4.5 11.03 11.03 0 002.069 3.982l.225.292-.348.09a6.97 6.97 0 00-4.714 4.579 6.63 6.63 0 00.529 5.118 7.172 7.172 0 002.25 2.542c.619.551 1.024.709 1.012.743z" fill="#455A64"/><path d="M281.047 172.832a4.896 4.896 0 00-1.665 1.384 7.675 7.675 0 00-.608 5.737v.213h-.202a8.007 8.007 0 00-5.343 4.714 6.258 6.258 0 00-.439 2.024c.019.757.105 1.51.259 2.25.163.779.272 1.569.326 2.362a3.939 3.939 0 01-.664 2.453 10.046 10.046 0 01-4.117 3.093 14.295 14.295 0 00-3.858 2.52 10.394 10.394 0 00-3.094 6.963 10.916 10.916 0 001.125 5.13c.551 1.124 1.013 1.664.968 1.709a2.325 2.325 0 01-.36-.382 8.524 8.524 0 01-.81-1.226 10.471 10.471 0 01-1.305-5.242 10.703 10.703 0 013.149-7.301 14.176 14.176 0 013.971-2.643 9.757 9.757 0 003.881-2.981c.923-1.26.506-2.914.27-4.399a13.133 13.133 0 01-.259-2.306 6.92 6.92 0 01.484-2.249 8.428 8.428 0 015.76-4.927l-.158.382c-.495-2.553-.112-4.803.833-5.984.34-.451.784-.813 1.293-1.058a2.05 2.05 0 01.563-.236z" fill="#455A64"/><path d="M332.016 276.412c.257.447.472.918.641 1.406.18.473.427 1.035.652 1.71l.709 2.306c.214.866.416 1.834.641 2.869.183 1.117.306 2.244.371 3.374a28.96 28.96 0 01-.495 7.695 81.595 81.595 0 01-4.263 13.296c-.596 1.586-1.125 2.902-1.496 3.948a7.283 7.283 0 01-.608 1.429 8.181 8.181 0 01.394-1.508c.281-.956.743-2.328 1.328-4.016a97.396 97.396 0 004.06-13.262c.505-2.486.686-5.027.54-7.559 0-1.125-.225-2.25-.315-3.296-.09-1.046-.371-1.98-.562-2.846-.191-.866-.439-1.609-.619-2.306-.18-.698-.416-1.249-.562-1.733a8.29 8.29 0 01-.416-1.507z" fill="#263238"/><path opacity=".3" d="M264.859 320.924c1.407 5.354 5.096 12.182 7.683 18.201a54.943 54.943 0 0010.529 16.355c4.5 4.725 11.069 7.987 17.538 7.02 4.623-.686 8.661-3.375 12.531-5.996l11.339-7.66a13.244 13.244 0 003.678-3.195 4.605 4.605 0 00.585-4.623l-16.806 8.178c-3.948 1.923-7.953 3.869-12.272 4.668-4.32.799-9.067.315-12.622-2.25a24.342 24.342 0 01-5.377-6.198l-16.873-24.444" fill="#000"/><path d="M270.225 267.132c-.079 0-.765-1.125-2.115-2.722a27.143 27.143 0 00-13.645-8.864c-2.047-.574-3.374-.731-3.374-.832.309-.055.625-.055.933 0 .845.08 1.683.219 2.509.416a24.36 24.36 0 0113.87 8.999c.518.672.984 1.383 1.395 2.126.326.551.472.855.427.877z" fill="#263238"/><path opacity=".3" d="M246.659 395.302a82.112 82.112 0 0041.081 15.343c14.995 1.193 28.448-4.117 41.958-10.742v-2.543a122.31 122.31 0 01-44.017 5.31c-23.656-1.811-39.022-7.368-39.022-7.368z" fill="#000"/><path d="M366.336 315.784s10.54-3.161 17.379-26.177l-13.329 15.828-4.05 10.349z" fill="#FFBE9D"/><path d="M336.853 332.453s22.497-59.09 23.049-59.191c.551-.102 27.571-18.1 27.571-18.1l3.217.731-27.02 19.832-23.96 58.236-2.857-1.508z" fill="#E0E0E0"/><path d="M338.934 335.66l24.747-59.98 27.065-19.786c.394 0-24.748 60.744-24.748 60.744l-27.064 19.022z" fill="#263238"/><path d="M336.538 309.799s3.599-8.211 5.5-9.381c2.115-1.305 6.603-4.747 8.055-7.875.978-2.103 2.587-1.406 2.587-1.406l-2.959 8.212 16.379-9.742c.247.829.295 1.705.139 2.555a5.483 5.483 0 01-1.039 2.339c-1.822 2.486-1.215 2.249-1.215 2.249s1.968 1.182.979 2.936a39.009 39.009 0 01-2.655 3.915s1.811 2.25 1.125 4.286a8.993 8.993 0 01.258 4.319c-.427 2.52-4.96 7.29-4.96 7.29l-22.644 10.776-8.505-15.816 8.955-4.657z" fill="#FFBE9D"/><path d="M355.223 296.098a28.309 28.309 0 01-4.725 3.251 29.746 29.746 0 01-5.028 2.778 28.062 28.062 0 014.724-3.262 29.041 29.041 0 015.029-2.767zm9.077-.282a34.7 34.7 0 01-4.23 4.5 33.763 33.763 0 01-4.634 4.162 33.315 33.315 0 014.229-4.567 33.964 33.964 0 014.635-4.095zm-1.215 6.986a10.244 10.244 0 01-1.98 2.767 10.351 10.351 0 01-2.43 2.396 10.795 10.795 0 011.991-2.767 10.173 10.173 0 012.419-2.396zm.416 4.702c.113.101-.382.866-1.024 1.789-.641.922-1.124 1.642-1.327 1.563-.202-.078.202-.956.866-1.901.664-.945 1.361-1.552 1.485-1.451z" fill="#EB996E"/><path d="M370.048 306.874s8.414-6.581 9.573-9.528c.225-.585 5.388-8.819 5.399-12.048v-5.973l-2.047-8.819c-2.88.337-3.375 2.362-3.217 4.927.079 1.125.945 5.152.945 5.152l-.889 4.713a19.243 19.243 0 00-1.743-6.817c-.642-1.125-2.138-.416-2.734.158-1.125 1.125-.529 2.475-.135 5.917.765 6.659.473 7.717.473 7.717a17.298 17.298 0 00-1.834-7.189c-.686-1.192-1.451-1.856-2.25-1.428-.798.427-1.766 2.036-1.012 4.499 1.417 4.691 1.755 7.638 1.62 9a20.15 20.15 0 01-2.34-3.949 1.248 1.248 0 00-2.351 0c-.619 1.598-.349 2.16.9 6.75.607 2.373 1.642 6.918 1.642 6.918z" fill="#FFBE9D"/><path d="M379.092 298.292c.262-.62.578-1.215.945-1.778a11.86 11.86 0 00.844-1.946c.109-.364.155-.745.135-1.125 0-.427-.113-.877-.191-1.338a54.926 54.926 0 01-1.047-6.75 32.182 32.182 0 011.632 6.671c.067.473.146.934.18 1.395.021.466-.048.932-.203 1.372a8.848 8.848 0 01-1.001 1.991c-.686 1.001-1.226 1.553-1.294 1.508zm-5.546-13.567a34.324 34.324 0 012.858 7.311c.63 2.081 1.125 3.983 1.383 5.389a6.32 6.32 0 01.203 2.249 17.325 17.325 0 01-.608-2.249c-.371-1.361-.911-3.24-1.541-5.299-1.248-4.105-2.441-7.401-2.295-7.401zm.428 19.348a15.936 15.936 0 01-.214-1.687 12.928 12.928 0 00-1.406-3.768c-.765-1.407-1.541-2.655-1.98-3.634a4.137 4.137 0 01-.562-1.642c.09 0 .382.551.922 1.451s1.35 2.103 2.138 3.543a10.473 10.473 0 011.293 4.005 3.057 3.057 0 01-.191 1.732z" fill="#EB996E"/><path d="M293.342 611.731s27.436 10.293 27.717 15.366l-53.095-.202v-13.892l1.946.461a39.37 39.37 0 0023.432-1.733z" fill="#263238"/><path d="M320.114 625.635c0 .158-11.665.293-26.041.293-14.376 0-26.052-.135-26.052-.293 0-.157 11.665-.292 26.052-.292s26.041.124 26.041.292z" fill="#455A64"/><path d="M321.104 627.096a22.358 22.358 0 00-2.88-3.644 25.332 25.332 0 00-9.64-5.625c-4.207-1.451-7.874-3.003-10.585-4.139a91.411 91.411 0 01-3.139-1.406 4.99 4.99 0 01-1.125-.596c.413.087.816.215 1.204.382l3.217 1.226c2.711 1.046 6.435 2.542 10.619 3.982a24.028 24.028 0 019.742 5.838 13.843 13.843 0 012.081 2.779c.237.369.408.776.506 1.203z" fill="#455A64"/></svg>