<svg width="57" height="58" fill="none" xmlns="http://www.w3.org/2000/svg"><path d="M19.834 36.137h0a.983.983 0 00-.016 1.39h0a12.04 12.04 0 008.59 3.61c5.23 0 10.055-3.44 11.571-8.71l-.144-.04.144.04c1.835-6.377-1.861-13.057-8.238-14.892l-.042.144.041-.144c-6.377-1.834-13.057 1.862-14.892 8.239l.144.041-.144-.041a11.91 11.91 0 00.436 7.906h0a.983.983 0 001.283.535h0a.983.983 0 00.535-1.284 9.961 9.961 0 01-.365-6.614c1.535-5.335 7.125-8.427 12.46-6.892l.041-.145-.041.145c5.335 1.534 8.427 7.124 6.893 12.46l.144.04-.144-.04c-1.535 5.335-7.124 8.427-12.46 6.892a10.07 10.07 0 01-4.407-2.625.983.983 0 00-1.39-.015z" fill="#115AD4" stroke="#115AD4" stroke-width=".3"/><path d="M33.626 27.294c.327 2.83-.375 4.653-1.444 5.77-1.074 1.121-2.539 1.551-3.768 1.551a5.521 5.521 0 01-5.515-5.514 5.516 5.516 0 0110.727-1.806zm.143 6.815c1.514-1.621 2.439-4.034 1.77-7.224a.993.993 0 00-.048-.214 7.483 7.483 0 00-7.077-5.051c-4.125 0-7.481 3.356-7.481 7.48 0 4.126 3.356 7.481 7.48 7.481 1.675 0 3.818-.825 5.356-2.472z" fill="#115AD4" stroke="#115AD4" stroke-width=".3"/><mask id="a" maskUnits="userSpaceOnUse" x="-.687" y="0" width="58" height="58" fill="#000"><path fill="#fff" d="M-.687 0h58v58h-58z"/><path d="M50.388 25.177a22.306 22.306 0 00-1.001-3.568l4.64-2.679a.834.834 0 00.306-1.138 7.142 7.142 0 00-4.05-3.25 7.145 7.145 0 00-4.953.239 22.597 22.597 0 00-2.572-2.527l2.753-4.768a.833.833 0 00-.305-1.138c-3.156-1.822-7.224-.951-9.36 1.97a22.297 22.297 0 00-3.434-.907V1.833A.838.838 0 0031.58 1a7.104 7.104 0 00-3.012.663.833.833 0 10.701 1.511c.473-.22.967-.368 1.478-.446v4.925c0 .675.482 1.246 1.146 1.358 1.222.207 2.433.526 3.597.95a1.379 1.379 0 001.605-.524c1.452-2.117 4.19-2.913 6.525-2.008l-2.426 4.203a1.371 1.371 0 00.32 1.754 20.897 20.897 0 012.69 2.64 1.387 1.387 0 001.633.353 5.462 5.462 0 016.584 1.555l-4.078 2.355a1.37 1.37 0 00-.598 1.687 20.626 20.626 0 011.045 3.71c.11.599.594 1.049 1.207 1.12a5.493 5.493 0 014.79 4.628H50.25a1.37 1.37 0 00-1.362 1.165 20.626 20.626 0 01-.972 3.835 1.386 1.386 0 00.45 1.56c1.911 1.502 2.58 4.097 1.72 6.312l-3.791-2.188a1.369 1.369 0 00-1.76.324 20.882 20.882 0 01-2.838 2.887 1.39 1.39 0 00-.407 1.555 5.47 5.47 0 01-1.709 6.223l-2.136-3.7a1.37 1.37 0 00-1.68-.601 20.61 20.61 0 01-3.971 1.068 1.384 1.384 0 00-1.132 1.128 5.484 5.484 0 01-4.58 4.471v-4.257c0-.675-.482-1.247-1.146-1.359a20.626 20.626 0 01-3.957-1.084 1.383 1.383 0 00-1.559.407 5.48 5.48 0 01-6.212 1.594l2.167-3.753a1.375 1.375 0 00-.301-1.741 20.9 20.9 0 01-2.828-2.898 1.375 1.375 0 00-1.574-.422 5.46 5.46 0 01-6.263-1.692l3.874-2.237a1.376 1.376 0 00.61-1.652 20.616 20.616 0 01-.96-3.83 1.387 1.387 0 00-1.182-1.165c-2.44-.322-4.342-2.24-4.708-4.615h4.65c.664 0 1.234-.473 1.355-1.124a20.51 20.51 0 011.048-3.697 1.381 1.381 0 00-.471-1.617 5.48 5.48 0 01-1.883-6.436l4.167 2.406a1.376 1.376 0 001.736-.297 20.904 20.904 0 012.698-2.639 1.368 1.368 0 00.367-1.647c-1.083-2.306-.398-5.06 1.54-6.62l2.45 4.247c.334.58 1.032.835 1.66.608a20.633 20.633 0 013.6-.946 1.37 1.37 0 001.137-1.257c.06-.806 2.775-3.873 3.17-4.576a.833.833 0 00-.319-1.134c-.4-.225.652-.604-.382-.207-.479.852-4.009 4.602-4.11 5.571-1.165.208-2.318.51-3.433.9l-2.781-4.816a.833.833 0 00-1.138-.305 7.14 7.14 0 00-3.258 4.075 7.143 7.143 0 00.262 4.964 22.566 22.566 0 00-2.575 2.517l-4.736-2.734a.838.838 0 00-1.138.305 7.144 7.144 0 001.805 9.235 22.28 22.28 0 00-1.011 3.558H1.146a.833.833 0 00-.833.833 7.181 7.181 0 006.004 7.069 22.3 22.3 0 00.926 3.702L2.8 39.273a.838.838 0 00-.305 1.138 7.16 7.16 0 008.582 3.176 22.586 22.586 0 002.736 2.808l-2.496 4.322a.838.838 0 00.305 1.138 7.146 7.146 0 008.946-1.455c1.246.466 2.538.822 3.848 1.058v4.912c0 .46.372.833.832.833a7.15 7.15 0 007.017-5.72 22.286 22.286 0 003.858-1.032l2.462 4.265a.838.838 0 001.138.305 7.135 7.135 0 003.192-8.54 22.578 22.578 0 002.758-2.798L50.03 46.2a.833.833 0 001.138-.305c1.736-3.008 1.035-6.877-1.618-9.085.42-1.204.737-2.45.945-3.709h5.187c.46 0 .833-.373.833-.833a7.161 7.161 0 00-6.127-7.09z"/></mask><path d="M50.388 25.177a22.306 22.306 0 00-1.001-3.568l4.64-2.679a.834.834 0 00.306-1.138 7.142 7.142 0 00-4.05-3.25 7.145 7.145 0 00-4.953.239 22.597 22.597 0 00-2.572-2.527l2.753-4.768a.833.833 0 00-.305-1.138c-3.156-1.822-7.224-.951-9.36 1.97a22.297 22.297 0 00-3.434-.907V1.833A.838.838 0 0031.58 1a7.104 7.104 0 00-3.012.663.833.833 0 10.701 1.511c.473-.22.967-.368 1.478-.446v4.925c0 .675.482 1.246 1.146 1.358 1.222.207 2.433.526 3.597.95a1.379 1.379 0 001.605-.524c1.452-2.117 4.19-2.913 6.525-2.008l-2.426 4.203a1.371 1.371 0 00.32 1.754 20.897 20.897 0 012.69 2.64 1.387 1.387 0 001.633.353 5.462 5.462 0 016.584 1.555l-4.078 2.355a1.37 1.37 0 00-.598 1.687 20.626 20.626 0 011.045 3.71c.11.599.594 1.049 1.207 1.12a5.493 5.493 0 014.79 4.628H50.25a1.37 1.37 0 00-1.362 1.165 20.626 20.626 0 01-.972 3.835 1.386 1.386 0 00.45 1.56c1.911 1.502 2.58 4.097 1.72 6.312l-3.791-2.188a1.369 1.369 0 00-1.76.324 20.882 20.882 0 01-2.838 2.887 1.39 1.39 0 00-.407 1.555 5.47 5.47 0 01-1.709 6.223l-2.136-3.7a1.37 1.37 0 00-1.68-.601 20.61 20.61 0 01-3.971 1.068 1.384 1.384 0 00-1.132 1.128 5.484 5.484 0 01-4.58 4.471v-4.257c0-.675-.482-1.247-1.146-1.359a20.626 20.626 0 01-3.957-1.084 1.383 1.383 0 00-1.559.407 5.48 5.48 0 01-6.212 1.594l2.167-3.753a1.375 1.375 0 00-.301-1.741 20.9 20.9 0 01-2.828-2.898 1.375 1.375 0 00-1.574-.422 5.46 5.46 0 01-6.263-1.692l3.874-2.237a1.376 1.376 0 00.61-1.652 20.616 20.616 0 01-.96-3.83 1.387 1.387 0 00-1.182-1.165c-2.44-.322-4.342-2.24-4.708-4.615h4.65c.664 0 1.234-.473 1.355-1.124a20.51 20.51 0 011.048-3.697 1.381 1.381 0 00-.471-1.617 5.48 5.48 0 01-1.883-6.436l4.167 2.406a1.376 1.376 0 001.736-.297 20.904 20.904 0 012.698-2.639 1.368 1.368 0 00.367-1.647c-1.083-2.306-.398-5.06 1.54-6.62l2.45 4.247c.334.58 1.032.835 1.66.608a20.633 20.633 0 013.6-.946 1.37 1.37 0 001.137-1.257c.06-.806 2.775-3.873 3.17-4.576a.833.833 0 00-.319-1.134c-.4-.225.652-.604-.382-.207-.479.852-4.009 4.602-4.11 5.571-1.165.208-2.318.51-3.433.9l-2.781-4.816a.833.833 0 00-1.138-.305 7.14 7.14 0 00-3.258 4.075 7.143 7.143 0 00.262 4.964 22.566 22.566 0 00-2.575 2.517l-4.736-2.734a.838.838 0 00-1.138.305 7.144 7.144 0 001.805 9.235 22.28 22.28 0 00-1.011 3.558H1.146a.833.833 0 00-.833.833 7.181 7.181 0 006.004 7.069 22.3 22.3 0 00.926 3.702L2.8 39.273a.838.838 0 00-.305 1.138 7.16 7.16 0 008.582 3.176 22.586 22.586 0 002.736 2.808l-2.496 4.322a.838.838 0 00.305 1.138 7.146 7.146 0 008.946-1.455c1.246.466 2.538.822 3.848 1.058v4.912c0 .46.372.833.832.833a7.15 7.15 0 007.017-5.72 22.286 22.286 0 003.858-1.032l2.462 4.265a.838.838 0 001.138.305 7.135 7.135 0 003.192-8.54 22.578 22.578 0 002.758-2.798L50.03 46.2a.833.833 0 001.138-.305c1.736-3.008 1.035-6.877-1.618-9.085.42-1.204.737-2.45.945-3.709h5.187c.46 0 .833-.373.833-.833a7.161 7.161 0 00-6.127-7.09z" fill="#115AD4"/><path d="M50.388 25.177l-.294.057.04.21.211.03.043-.297zm-1.001-3.568l-.15-.26-.22.128.089.237.28-.105zm4.64-2.679l-.15-.26.15.26zm.389-.506l-.29-.078.29.078zm-.083-.632l.26-.15-.26.15zm-4.05-3.25l.09-.286-.09.286zm-4.953.239l-.227.196.143.165.201-.085-.117-.276zm-2.572-2.527l-.26-.15-.126.219.193.161.193-.23zm2.753-4.768l-.26-.15.26.15zm-.305-1.138l.15-.26-.15.26zm-9.36 1.97l-.1.283.21.074.131-.18-.242-.177zm-3.434-.907h-.3v.25l.247.045.053-.295zm0-5.578l-.3-.006v.006h.3zM31.58 1v.3h.006L31.58 1zm-3.012.663l.126.272-.126-.272zm-.405 1.106l.272-.126-.272.126zm2.584-.04h.3v-.35l-.345.053.045.296zm1.146 6.282l.05-.295-.05.295zm3.597.95l.103-.282-.103.281zm1.605-.524l.248.17-.248-.17zM43.62 7.43l.26.15.175-.303-.326-.126-.109.28zm-2.426 4.203l.26.15-.26-.15zm.32 1.754l.189-.232-.19.232zm2.69 2.64l-.229.195.229-.195zm1.633.353l.125.272-.125-.272zm6.584 1.555l.15.26.301-.174-.217-.272-.234.186zm-4.078 2.355l-.15-.26.15.26zm-.598 1.687l.28-.108-.28.108zm1.045 3.71l-.295.054.295-.054zm1.207 1.12l.034-.298-.034.298zm4.79 4.628v.3h.349l-.053-.346-.296.046zM48.888 32.6l-.296-.045.296.045zm-.972 3.835l.282.101-.282-.101zm.45 1.56l.186-.236-.186.236zm1.72 6.312l-.15.26.303.175.127-.326-.28-.109zm-3.791-2.188l-.15.26.15-.26zm-1.76.324l.234.188-.233-.188zm-2.838 2.887l-.193-.23.193.23zm-.407 1.555l.28-.106-.28.106zm-1.709 6.223l-.26.15.175.302.272-.218-.187-.234zm-2.136-3.7l-.26.15.26-.15zm-1.68-.601l-.106-.28.106.28zm-3.971 1.068l-.049-.296.049.296zm-1.132 1.128l.295.052-.295-.052zm-4.58 4.471h-.3v.35l.345-.053-.045-.297zm-1.146-5.616l-.05.296.05-.296zm-3.957-1.084l-.108.28.108-.28zm-1.559.407l.23.192-.23-.192zm-6.212 1.594l-.26-.15-.174.302.325.128.11-.28zm2.167-3.753l-.26-.15.26.15zm-.301-1.741l.193-.23-.193.23zm-2.828-2.898l.234-.188-.234.188zm-1.574-.422l-.107-.28.107.28zm-6.263-1.692l-.15-.26-.302.174.217.273.235-.187zm3.874-2.237l-.15-.26.15.26zm.61-1.652l-.282.1.283-.1zm-.96-3.83l.297-.046-.297.045zM6.75 31.383l.039-.297-.04.297zM2.042 26.77v-.3h-.35l.054.345.296-.045zm6.005-1.124l-.295-.055.295.055zm1.048-3.697l-.28-.109.28.109zm-.471-1.617l.176-.242-.176.242zM6.74 13.895l.15-.26-.302-.174-.127.325.279.11zm4.167 2.406l.15-.26-.15.26zm1.736-.297l-.228-.195.228.195zm2.698-2.639l-.19-.233.19.233zm.367-1.647l.272-.128-.272.128zm1.54-6.62l.26-.15-.176-.304-.273.22.189.234zM19.7 9.345l.26-.15-.26.15zm1.66.608l.102.282-.102-.282zm3.6-.946l-.049-.295.05.295zm1.137-1.257l.299.022-.3-.022zm2.852-5.71l.146-.262-.146.262zm-.383-.207l-.108-.28-.1.039-.054.094.262.147zm-4.11 5.571l.052.295.222-.04.024-.224-.299-.03zm-3.433.9l-.26.15.124.216.235-.083-.1-.283zm-2.781-4.816l-.26.15.26-.15zm-1.138-.305l-.15-.26.15.26zm-3.258 4.075l.287.089-.287-.09zm.262 4.964l.192.23.173-.143-.09-.206-.275.12zm-2.575 2.517l-.15.26.214.123.163-.186-.226-.197zm-4.736-2.734l-.155.256.005.004.15-.26zm-1.138.305l.26.15.003-.005-.263-.145zm1.805 9.235l.281.106.078-.207-.175-.136-.184.237zm-1.011 3.558v.3H6.7l.047-.242-.294-.058zm-.137 7.902l.297-.048-.035-.214-.213-.034-.049.296zm.926 3.702l.15.26.214-.123-.08-.234-.284.097zM2.8 39.273l.145.262.005-.003-.15-.26zm-.305 1.138l.26-.15-.003-.006-.257.156zm3.846 3.182l-.099.283.099-.283zm4.735-.006l.233-.19-.134-.163-.198.07.1.283zm2.736 2.808l.26.15.125-.215-.189-.162-.195.227zm-2.495 4.322l.257.155.003-.005-.26-.15zm.305 1.138l.15-.26-.005-.003-.145.263zm8.946-1.455l.105-.281-.193-.072-.137.154.225.199zm3.848 1.058h.3v-.25l-.247-.045-.053.295zm7.85.026l-.052-.296-.202.035-.04.2.293.06zm3.857-1.033l.26-.15-.127-.219-.236.087.103.282zm2.462 4.265l.263-.145-.003-.005-.26.15zm1.138.305l-.15-.26-.005.003.155.257zm3.192-8.54l-.194-.228-.156.133.067.193.283-.098zm2.758-2.798l.15-.26-.22-.127-.162.196.232.191zM50.03 46.2l-.15.26.15-.26zm1.138-.305l.26.15-.26-.15zM49.55 36.81l-.284-.098-.068.196.16.133.192-.23zm.945-3.709v-.3h-.254l-.042.251.296.05zm6.02-.833h.3-.3zm-5.832-7.147a22.615 22.615 0 00-1.015-3.615l-.562.21c.425 1.14.757 2.323.988 3.519l.589-.114zm-1.146-3.25l4.64-2.68-.3-.52-4.64 2.68.3.52zm4.64-2.68c.261-.15.451-.398.529-.688l-.58-.155a.533.533 0 01-.248.323l.3.52zm.529-.688c.078-.29.037-.6-.113-.86l-.52.3c.07.122.09.268.053.404l.58.156zm-.113-.86a7.442 7.442 0 00-4.22-3.386l-.18.572a6.842 6.842 0 013.88 3.114l.52-.3zm-4.22-3.386a7.445 7.445 0 00-5.16.249l.234.552a6.846 6.846 0 014.745-.229l.18-.572zm-4.817.328a22.891 22.891 0 00-2.606-2.56l-.385.46c.909.76 1.761 1.597 2.538 2.493l.453-.393zm-2.539-2.18l2.753-4.768-.52-.3-2.752 4.768.52.3zm2.753-4.768a1.133 1.133 0 00-.414-1.548l-.3.52a.533.533 0 01.195.727l.52.3zm-.414-1.548c-3.29-1.9-7.525-.992-9.753 2.053l.484.354c2.047-2.798 5.946-3.633 8.969-1.888l.3-.52zm-9.411 1.947a22.598 22.598 0 00-3.48-.92l-.106.591c1.149.207 2.286.508 3.387.895l.199-.566zm-3.233-.624V1.833h-.6v5.578h.6zm0-5.572A1.138 1.138 0 0031.573.7l.012.6a.538.538 0 01.527.527l.6.012zM31.58.7a7.404 7.404 0 00-3.139.69l.253.545A6.804 6.804 0 0131.58 1.3V.7zm-3.139.69a1.133 1.133 0 00-.55 1.505l.544-.252a.533.533 0 01.259-.708l-.253-.544zm-.55 1.505c.263.568.937.815 1.504.551l-.252-.544a.533.533 0 01-.708-.26l-.544.253zm1.504.551a5.127 5.127 0 011.397-.42l-.09-.594a5.729 5.729 0 00-1.56.47l.253.544zm1.052-.718v4.925h.6V2.728h-.6zm0 4.925c0 .82.587 1.518 1.396 1.654l.1-.591a1.073 1.073 0 01-.896-1.063h-.6zm1.396 1.654a20.44 20.44 0 013.544.935l.205-.563a20.926 20.926 0 00-3.65-.963l-.1.591zm3.544.935a1.678 1.678 0 001.956-.635l-.495-.34a1.078 1.078 0 01-1.255.412l-.206.563zm1.956-.635c1.371-2 3.961-2.754 6.169-1.898l.217-.56c-2.462-.954-5.35-.115-6.881 2.119l.495.339zm6.017-2.328l-2.426 4.203.52.3 2.426-4.203-.52-.3zm-2.426 4.203a1.671 1.671 0 00.39 2.137l.379-.465a1.071 1.071 0 01-.25-1.372l-.519-.3zm.39 2.137c.957.782 1.85 1.658 2.651 2.602l.458-.389a21.205 21.205 0 00-2.73-2.678l-.38.465zm2.651 2.602a1.687 1.687 0 001.987.43l-.25-.545a1.09 1.09 0 01-1.28-.274l-.456.389zm1.987.43a5.162 5.162 0 016.224 1.47l.47-.373a5.762 5.762 0 00-6.945-1.642l.251.545zm6.309 1.024l-4.078 2.354.3.52 4.078-2.355-.3-.52zm-4.078 2.354a1.67 1.67 0 00-.728 2.055l.56-.216a1.07 1.07 0 01.468-1.32l-.3-.519zm-.728 2.055a20.32 20.32 0 011.03 3.656l.59-.108a20.933 20.933 0 00-1.06-3.764l-.56.216zm1.03 3.656c.133.73.726 1.278 1.467 1.364l.07-.596a1.077 1.077 0 01-.947-.876l-.59.108zm1.467 1.364a5.193 5.193 0 014.528 4.375l.593-.09a5.793 5.793 0 00-5.052-4.88l-.07.595zm4.825 4.03H50.25v.6h4.537v-.6zm-4.537 0c-.833 0-1.532.597-1.658 1.42l.593.091a1.07 1.07 0 011.065-.911v-.6zm-1.658 1.42a20.317 20.317 0 01-.959 3.778l.565.203a20.97 20.97 0 00.987-3.89l-.593-.091zm-.959 3.778a1.686 1.686 0 00.548 1.898l.37-.472a1.086 1.086 0 01-.353-1.223l-.565-.203zm.548 1.898c1.805 1.418 2.438 3.873 1.626 5.968l.559.217c.906-2.336.203-5.072-1.814-6.657l-.37.472zm2.055 5.817l-3.791-2.19-.3.52 3.791 2.19.3-.52zm-3.791-2.19a1.669 1.669 0 00-2.143.396l.467.377a1.069 1.069 0 011.376-.253l.3-.52zm-2.143.396a20.585 20.585 0 01-2.798 2.846l.385.46a21.175 21.175 0 002.88-2.929l-.467-.377zM41.503 45.1a1.69 1.69 0 00-.495 1.89l.562-.21a1.09 1.09 0 01.318-1.22l-.385-.46zm-.495 1.89a5.17 5.17 0 01-1.615 5.883l.374.47a5.77 5.77 0 001.803-6.564l-.562.212zm-1.168 5.968l-2.136-3.7-.52.3 2.136 3.7.52-.3zm-2.136-3.7a1.67 1.67 0 00-2.046-.732l.213.561a1.07 1.07 0 011.313.47l.52-.3zm-2.046-.732c-1.263.48-2.58.834-3.914 1.053l.097.592c1.374-.226 2.73-.59 4.03-1.084l-.213-.56zm-3.914 1.053a1.684 1.684 0 00-1.379 1.372l.591.104c.081-.457.439-.811.885-.884l-.097-.592zm-1.379 1.372a5.184 5.184 0 01-4.329 4.227l.09.593a5.784 5.784 0 004.83-4.716l-.59-.104zm-3.984 4.523v-4.257h-.6v4.258h.6zm0-4.257c0-.821-.587-1.518-1.396-1.655l-.1.592c.52.088.896.534.896 1.063h.6zm-1.396-1.655a20.324 20.324 0 01-3.899-1.068l-.215.56a20.93 20.93 0 004.014 1.1l.1-.592zm-3.899-1.068a1.683 1.683 0 00-1.897.495l.46.384c.3-.358.79-.485 1.221-.319l.216-.56zm-1.897.495a5.18 5.18 0 01-5.872 1.507l-.219.559a5.78 5.78 0 006.552-1.682l-.461-.384zm-5.722 1.936l2.167-3.753-.52-.3-2.166 3.753.52.3zm2.167-3.753a1.675 1.675 0 00-.368-2.12l-.387.458c.398.335.498.908.236 1.362l.52.3zm-.368-2.12a20.598 20.598 0 01-2.787-2.857l-.468.376a21.198 21.198 0 002.868 2.94l.387-.46zm-2.787-2.857a1.676 1.676 0 00-1.915-.514l.215.56c.443-.17.937-.038 1.232.33l.468-.376zm-1.916-.514a5.16 5.16 0 01-5.92-1.599l-.47.374a5.76 5.76 0 006.606 1.785l-.216-.56zm-6.005-1.152l3.874-2.237-.3-.52-3.874 2.237.3.52zm3.874-2.237a1.676 1.676 0 00.744-2.013l-.566.201a1.076 1.076 0 01-.478 1.292l.3.52zm.744-2.013a20.313 20.313 0 01-.947-3.775l-.594.09c.2 1.32.527 2.628.975 3.886l.566-.201zm-.947-3.775a1.687 1.687 0 00-1.44-1.416l-.079.595c.472.062.854.437.925.91l.594-.089zm-1.44-1.416a5.211 5.211 0 01-4.45-4.364l-.593.091c.385 2.505 2.39 4.528 4.964 4.868l.079-.595zM2.042 27.07h4.65v-.6h-4.65v.6zm4.65 0c.808 0 1.503-.575 1.65-1.37l-.59-.109c-.094.509-.54.879-1.06.879v.6zm1.65-1.37c.23-1.241.577-2.467 1.033-3.643l-.56-.217a20.932 20.932 0 00-1.063 3.751l.59.11zm1.033-3.643c.275-.71.04-1.52-.575-1.967l-.353.485c.393.286.546.807.368 1.265l.56.217zM8.8 20.09a5.18 5.18 0 01-1.78-6.084l-.558-.22a5.78 5.78 0 001.985 6.79l.353-.486zm-2.21-5.934l4.168 2.406.3-.52-4.167-2.405-.3.52zm4.168 2.406c.7.404 1.59.253 2.114-.363l-.456-.389a1.076 1.076 0 01-1.358.232l-.3.52zm2.114-.363c.805-.944 1.7-1.819 2.66-2.6l-.38-.466a21.2 21.2 0 00-2.736 2.677l.456.39zm2.66-2.6a1.67 1.67 0 00.449-2.008l-.543.255c.212.452.092.98-.285 1.287l.378.466zm.449-2.008c-1.024-2.177-.376-4.784 1.456-6.259l-.377-.467c-2.042 1.645-2.766 4.548-1.622 6.981l.543-.255zm1.008-6.342l2.452 4.247.52-.3-2.453-4.248-.52.3zm2.452 4.247a1.675 1.675 0 002.022.74l-.204-.564a1.075 1.075 0 01-1.298-.476l-.52.3zm2.022.74a20.328 20.328 0 013.548-.932l-.099-.591a20.83 20.83 0 00-3.653.959l.204.564zm3.548-.932a1.67 1.67 0 001.386-1.53l-.598-.045a1.07 1.07 0 01-.887.984l.1.591zm1.386-1.53a.954.954 0 01.107-.289c.073-.147.179-.325.31-.526.263-.402.614-.875.981-1.352.368-.477.742-.946 1.056-1.35.306-.391.566-.735.679-.935l-.524-.294c-.084.151-.311.454-.628.86-.308.395-.69.876-1.058 1.353-.37.48-.732.968-1.008 1.39-.138.21-.258.41-.346.587-.083.169-.155.349-.167.51l.598.045zM29.53 3.32a1.133 1.133 0 00-.434-1.543l-.293.523c.256.144.348.47.203.726l.524.294zm-.434-1.543c-.013-.007.024.01.045.067a.18.18 0 010 .13c-.004.012.001-.002.052-.046l.031-.027a.488.488 0 00.023-.023c.006-.006.027-.027.046-.058a.306.306 0 00-.007-.328.302.302 0 00-.265-.133c-.051.002-.098.018-.105.02-.065.02-.209.078-.457.173l.215.56.297-.114a3.11 3.11 0 01.126-.047l-.003.001c-.002 0-.021.006-.05.007a.298.298 0 01-.264-.451c.017-.028.034-.045.035-.046l.005-.005-.022.02a1.146 1.146 0 00-.095.09.618.618 0 00-.113.17.421.421 0 00-.01.317c.044.12.135.197.223.246l.293-.523zm-.79-.092c-.104.185-.394.556-.8 1.05-.387.47-.9 1.077-1.368 1.648-.478.584-.95 1.177-1.31 1.688a7.652 7.652 0 00-.449.706c-.11.202-.202.41-.221.595l.597.062c.006-.058.047-.178.151-.37.1-.183.24-.402.414-.648.346-.492.806-1.07 1.282-1.652.487-.594.954-1.145 1.367-1.648.393-.478.724-.895.86-1.137l-.524-.294zM24.403 7.11c-1.18.21-2.349.517-3.48.912l.199.566a22.16 22.16 0 013.386-.888l-.105-.59zm-3.12 1.045l-2.781-4.816-.52.3 2.781 4.816.52-.3zm-2.781-4.816a1.133 1.133 0 00-1.548-.415l.3.52a.533.533 0 01.728.194l.52-.3zm-1.548-.415A7.44 7.44 0 0013.56 7.17l.573.178a6.84 6.84 0 013.12-3.905l-.3-.52zM13.56 7.169a7.443 7.443 0 00.273 5.172l.55-.238a6.843 6.843 0 01-.25-4.756l-.573-.178zm.356 4.823a22.876 22.876 0 00-2.609 2.55l.453.394a22.264 22.264 0 012.54-2.483l-.384-.461zm-2.232 2.487l-4.737-2.734-.3.52 4.736 2.734.3-.52zm-4.731-2.731a1.138 1.138 0 00-1.556.417l.525.29a.538.538 0 01.72-.194l.31-.513zM5.4 12.16a7.445 7.445 0 001.88 9.622l.368-.474A6.844 6.844 0 015.92 12.46l-.52-.3zm1.783 9.28a22.582 22.582 0 00-1.025 3.605l.59.116c.233-1.194.568-2.373.997-3.51l-.562-.212zm-.73 3.363H1.146v.6h5.308v-.6zm-5.308 0c-.626 0-1.133.507-1.133 1.133h.6c0-.294.239-.533.533-.533v-.6zM.013 25.936c0 3.655 2.673 6.781 6.256 7.365l.097-.592a6.88 6.88 0 01-5.753-6.773h-.6zm6.008 7.116a22.6 22.6 0 00.939 3.753l.567-.195a22.003 22.003 0 01-.913-3.653l-.593.095zm1.072 3.395L2.65 39.014l.3.52 4.443-2.566-.3-.52zM2.655 39.01a1.138 1.138 0 00-.417 1.556l.514-.31a.538.538 0 01.193-.72l-.29-.526zm-.42 1.55a7.46 7.46 0 004.007 3.316l.197-.566a6.86 6.86 0 01-3.684-3.05l-.52.3zm4.007 3.316a7.47 7.47 0 004.934-.006l-.2-.566a6.869 6.869 0 01-4.537.005l-.197.567zm4.602-.1a22.873 22.873 0 002.773 2.846l.391-.454a22.281 22.281 0 01-2.7-2.771l-.464.38zm2.709 2.469l-2.496 4.322.52.3 2.495-4.322-.52-.3zm-2.493 4.317a1.138 1.138 0 00.417 1.556l.29-.526a.538.538 0 01-.193-.72l-.514-.31zm.412 1.553a7.446 7.446 0 009.321-1.517l-.45-.397a6.846 6.846 0 01-8.57 1.394l-.3.52zm8.991-1.434a22.5 22.5 0 003.9 1.072l.106-.59a22.004 22.004 0 01-3.796-1.044l-.21.562zm3.652.777v4.912h.6v-4.912h-.6zm0 4.912c0 .625.508 1.133 1.134 1.133v-.6a.533.533 0 01-.534-.533h-.6zm1.134 1.133a7.45 7.45 0 007.31-5.959l-.588-.12a6.85 6.85 0 01-6.723 5.479v.6zm7.067-5.724a22.47 22.47 0 003.91-1.047l-.206-.563a22.038 22.038 0 01-3.806 1.02l.102.59zm3.547-1.178l2.462 4.265.52-.3-2.462-4.265-.52.3zm2.46 4.26c.298.54 1.026.736 1.555.416l-.31-.513a.538.538 0 01-.72-.193l-.526.29zm1.55.42a7.435 7.435 0 003.326-8.898l-.567.196a6.835 6.835 0 01-3.059 8.182l.3.52zm3.237-8.572a22.88 22.88 0 002.794-2.835l-.463-.382a22.285 22.285 0 01-2.72 2.76l.389.457zm2.413-2.766l4.357 2.515.3-.52-4.357-2.515-.3.52zm4.357 2.515a1.133 1.133 0 001.547-.414l-.52-.3a.533.533 0 01-.727.195l-.3.52zm1.547-.414c1.81-3.135 1.08-7.164-1.685-9.465l-.384.46c2.541 2.116 3.213 5.823 1.55 8.705l.52.3zm-1.594-9.136a22.61 22.61 0 00.958-3.759l-.592-.098a22.016 22.016 0 01-.933 3.66l.567.197zm.662-3.508h5.187v-.6h-5.187v.6zm5.187 0c.626 0 1.133-.507 1.133-1.133h-.6a.533.533 0 01-.533.533v.6zm1.133-1.133a7.461 7.461 0 00-6.383-7.387l-.087.594a6.861 6.861 0 015.87 6.793h.6z" fill="#115AD4" mask="url(#a)"/></svg>