<svg width="34" height="35" fill="none" xmlns="http://www.w3.org/2000/svg"><path d="M11.732 21.587h0a.64.64 0 00-.01.904h0a7.13 7.13 0 005.088 2.138c3.097 0 5.955-2.037 6.853-5.159l-.144-.041.144.042a7.136 7.136 0 00-4.88-8.822l-.041.145.041-.145c-3.777-1.086-7.734 1.103-8.82 4.88h0a7.056 7.056 0 00.258 4.683h0a.64.64 0 00.834.348h0a.64.64 0 00.348-.835 5.786 5.786 0 01-.212-3.842 5.857 5.857 0 017.24-4.005l.04-.144-.04.144a5.857 5.857 0 014.004 7.24l.144.04-.144-.04a5.852 5.852 0 01-9.8 2.48.639.639 0 00-.903-.011z" fill="#D7D7D7" stroke="#D7D7D7" stroke-width=".3"/><path d="M19.812 16.453c.189 1.644-.22 2.692-.831 3.33-.617.645-1.46.893-2.168.893a3.18 3.18 0 01-3.176-3.176 3.177 3.177 0 016.176-1.047zm.19 4.03c.903-.967 1.451-2.403 1.055-4.294a.64.64 0 00-.03-.136 4.455 4.455 0 00-8.669 1.447 4.46 4.46 0 004.455 4.454c1 0 2.275-.492 3.19-1.472z" fill="#D7D7D7" stroke="#D7D7D7" stroke-width=".3"/><mask id="a" maskUnits="userSpaceOnUse" x="-.687" y="0" width="35" height="35" fill="#000"><path fill="#fff" d="M-.687 0h35v35h-35z"/><path d="M29.715 15.196a13.098 13.098 0 00-.588-2.095l2.725-1.573a.49.49 0 00.18-.668 4.193 4.193 0 00-2.379-1.908 4.195 4.195 0 00-2.908.14 13.256 13.256 0 00-1.51-1.484l1.616-2.8a.49.49 0 00-.179-.668 4.225 4.225 0 00-5.496 1.157c-.655-.23-1.332-.41-2.015-.533V1.49A.492.492 0 0018.67 1c-.617 0-1.212.131-1.768.39a.49.49 0 10.411.887 3.14 3.14 0 01.868-.262v2.891c0 .397.283.732.673.798a12.12 12.12 0 012.112.557.81.81 0 00.943-.307 3.244 3.244 0 013.83-1.179l-1.424 2.467c-.2.346-.12.779.188 1.03.57.467 1.102.989 1.58 1.55.233.275.627.36.958.208a3.207 3.207 0 013.866.913l-2.394 1.383a.804.804 0 00-.351.99c.271.704.477 1.437.613 2.179a.808.808 0 00.709.657 3.224 3.224 0 012.812 2.717h-2.663a.804.804 0 00-.8.685 12.12 12.12 0 01-.571 2.251.814.814 0 00.265.916 3.244 3.244 0 011.01 3.707l-2.227-1.285a.804.804 0 00-1.033.19 12.269 12.269 0 01-1.667 1.695.816.816 0 00-.238.913 3.212 3.212 0 01-1.004 3.654l-1.254-2.172a.805.805 0 00-.986-.353c-.753.285-1.537.496-2.332.627a.812.812 0 00-.665.662 3.22 3.22 0 01-2.689 2.626v-2.5a.806.806 0 00-.673-.798 12.113 12.113 0 01-2.323-.636.812.812 0 00-.915.238 3.218 3.218 0 01-3.648.936l1.273-2.203a.807.807 0 00-.178-1.023 12.266 12.266 0 01-1.66-1.701.808.808 0 00-.924-.248 3.206 3.206 0 01-3.678-.993l2.275-1.314a.808.808 0 00.359-.97 12.105 12.105 0 01-.564-2.25.814.814 0 00-.695-.682 3.236 3.236 0 01-2.764-2.71h2.73a.81.81 0 00.796-.66c.137-.74.344-1.47.615-2.171a.811.811 0 00-.276-.95 3.217 3.217 0 01-1.106-3.778l2.447 1.412a.808.808 0 001.02-.174 12.273 12.273 0 011.583-1.55.803.803 0 00.216-.967 3.248 3.248 0 01.904-3.887l1.44 2.494c.196.34.606.49.975.357a12.113 12.113 0 012.114-.555.804.804 0 00.667-.739c.035-.473 1.63-2.274 1.861-2.687a.49.49 0 00-.187-.665c-.235-.133.383-.355-.224-.122-.281.5-2.354 2.702-2.414 3.271-.684.122-1.36.3-2.015.529L10.84 2.46a.49.49 0 00-.668-.18A4.192 4.192 0 008.26 4.675c-.3.964-.245 1.994.154 2.915-.541.45-1.05.947-1.512 1.478L4.12 7.462a.492.492 0 00-.668.179 4.195 4.195 0 001.06 5.422 13.087 13.087 0 00-.594 2.09H.802a.49.49 0 00-.489.489 4.216 4.216 0 003.526 4.15c.118.737.3 1.467.543 2.174l-2.609 1.506a.492.492 0 00-.179.668 4.204 4.204 0 005.039 1.865 13.258 13.258 0 001.606 1.65l-1.465 2.537a.492.492 0 00.18.668 4.196 4.196 0 005.252-.854c.732.274 1.49.482 2.259.621v2.884c0 .27.219.489.49.489a4.198 4.198 0 004.12-3.358c.77-.133 1.53-.337 2.264-.606l1.446 2.504c.127.23.443.315.668.179a4.19 4.19 0 001.874-5.014c.586-.499 1.13-1.05 1.62-1.643l2.558 1.477a.49.49 0 00.668-.18 4.225 4.225 0 00-.95-5.333c.247-.707.433-1.439.555-2.178h3.046a.49.49 0 00.489-.49 4.205 4.205 0 00-3.598-4.162z"/></mask><path d="M29.715 15.196a13.098 13.098 0 00-.588-2.095l2.725-1.573a.49.49 0 00.18-.668 4.193 4.193 0 00-2.379-1.908 4.195 4.195 0 00-2.908.14 13.256 13.256 0 00-1.51-1.484l1.616-2.8a.49.49 0 00-.179-.668 4.225 4.225 0 00-5.496 1.157c-.655-.23-1.332-.41-2.015-.533V1.49A.492.492 0 0018.67 1c-.617 0-1.212.131-1.768.39a.49.49 0 10.411.887 3.14 3.14 0 01.868-.262v2.891c0 .397.283.732.673.798a12.12 12.12 0 012.112.557.81.81 0 00.943-.307 3.244 3.244 0 013.83-1.179l-1.424 2.467c-.2.346-.12.779.188 1.03.57.467 1.102.989 1.58 1.55.233.275.627.36.958.208a3.207 3.207 0 013.866.913l-2.394 1.383a.804.804 0 00-.351.99c.271.704.477 1.437.613 2.179a.808.808 0 00.709.657 3.224 3.224 0 012.812 2.717h-2.663a.804.804 0 00-.8.685 12.12 12.12 0 01-.571 2.251.814.814 0 00.265.916 3.244 3.244 0 011.01 3.707l-2.227-1.285a.804.804 0 00-1.033.19 12.269 12.269 0 01-1.667 1.695.816.816 0 00-.238.913 3.212 3.212 0 01-1.004 3.654l-1.254-2.172a.805.805 0 00-.986-.353c-.753.285-1.537.496-2.332.627a.812.812 0 00-.665.662 3.22 3.22 0 01-2.689 2.626v-2.5a.806.806 0 00-.673-.798 12.113 12.113 0 01-2.323-.636.812.812 0 00-.915.238 3.218 3.218 0 01-3.648.936l1.273-2.203a.807.807 0 00-.178-1.023 12.266 12.266 0 01-1.66-1.701.808.808 0 00-.924-.248 3.206 3.206 0 01-3.678-.993l2.275-1.314a.808.808 0 00.359-.97 12.105 12.105 0 01-.564-2.25.814.814 0 00-.695-.682 3.236 3.236 0 01-2.764-2.71h2.73a.81.81 0 00.796-.66c.137-.74.344-1.47.615-2.171a.811.811 0 00-.276-.95 3.217 3.217 0 01-1.106-3.778l2.447 1.412a.808.808 0 001.02-.174 12.273 12.273 0 011.583-1.55.803.803 0 00.216-.967 3.248 3.248 0 01.904-3.887l1.44 2.494c.196.34.606.49.975.357a12.113 12.113 0 012.114-.555.804.804 0 00.667-.739c.035-.473 1.63-2.274 1.861-2.687a.49.49 0 00-.187-.665c-.235-.133.383-.355-.224-.122-.281.5-2.354 2.702-2.414 3.271-.684.122-1.36.3-2.015.529L10.84 2.46a.49.49 0 00-.668-.18A4.192 4.192 0 008.26 4.675c-.3.964-.245 1.994.154 2.915-.541.45-1.05.947-1.512 1.478L4.12 7.462a.492.492 0 00-.668.179 4.195 4.195 0 001.06 5.422 13.087 13.087 0 00-.594 2.09H.802a.49.49 0 00-.489.489 4.216 4.216 0 003.526 4.15c.118.737.3 1.467.543 2.174l-2.609 1.506a.492.492 0 00-.179.668 4.204 4.204 0 005.039 1.865 13.258 13.258 0 001.606 1.65l-1.465 2.537a.492.492 0 00.18.668 4.196 4.196 0 005.252-.854c.732.274 1.49.482 2.259.621v2.884c0 .27.219.489.49.489a4.198 4.198 0 004.12-3.358c.77-.133 1.53-.337 2.264-.606l1.446 2.504c.127.23.443.315.668.179a4.19 4.19 0 001.874-5.014c.586-.499 1.13-1.05 1.62-1.643l2.558 1.477a.49.49 0 00.668-.18 4.225 4.225 0 00-.95-5.333c.247-.707.433-1.439.555-2.178h3.046a.49.49 0 00.489-.49 4.205 4.205 0 00-3.598-4.162z" fill="#D7D7D7"/><path d="M29.715 15.196l-.294.057.04.21.211.03.043-.297zm-.588-2.095l-.15-.26-.22.127.09.238.28-.105zm2.725-1.573l-.15-.26.15.26zm.228-.297l-.29-.078.29.078zm-.049-.371l.26-.15-.26.15zm-2.378-1.908l.09-.287-.09.287zm-2.908.14l-.227.196.144.165.2-.085-.117-.276zm-1.51-1.484l-.26-.15-.126.218.193.162.193-.23zm1.616-2.8l-.26-.15.26.15zm-.179-.668l.15-.26-.15.26zm-5.496 1.157l-.1.283.21.074.132-.18-.242-.177zm-2.015-.533h-.3v.25l.246.045.053-.295zm0-3.275l-.3-.006v.006h.3zM18.67 1v.3h.006L18.67 1zm-1.768.39l.126.271-.127-.272zm-.238.649l.272-.127-.272.127zm1.517-.024h.3v-.349l-.345.052.045.297zm.673 3.689l.05-.296-.05.296zm2.112.557l.103-.282-.103.282zm.943-.307l.247.17-.247-.17zm3.83-1.179l.26.15.175-.303-.326-.127-.108.28zm-1.424 2.467l.26.15-.26-.15zm.188 1.03l.19-.232-.19.233zm1.58 1.55l-.229.195.229-.194zm.958.208l.126.272-.126-.272zm3.866.913l.15.26.302-.174-.217-.272-.235.186zm-2.394 1.383l-.15-.26.15.26zm-.351.99l.28-.107-.28.107zm.613 2.179l-.295.054.295-.054zm.709.657l.035-.298-.035.298zm2.812 2.717v.3h.35l-.053-.345-.297.045zm-3.463.685l-.296-.046.296.046zm-.571 2.251l.282.102-.282-.102zm.265.916l.185-.236-.185.236zm1.01 3.707l-.15.26.302.175.127-.327-.28-.108zm-2.227-1.285l-.15.26.15-.26zm-1.033.19l.234.189-.234-.189zm-1.667 1.695l-.192-.23.192.23zm-.238.913l.28-.105-.28.105zm-1.004 3.654l-.26.15.175.302.272-.217-.187-.235zm-1.254-2.172l-.26.15.26-.15zm-.986-.353l-.107-.28.107.28zm-2.332.627l-.049-.296.049.296zm-.665.662l.295.052-.295-.052zm-2.689 2.626h-.3v.349l.345-.053-.045-.296zm-.673-3.298l-.05.296.05-.296zm-2.323-.636l-.108.28.108-.28zm-.915.238l.23.193-.23-.193zm-3.648.936l-.26-.15-.174.303.325.127.11-.28zm1.273-2.203l-.26-.15.26.15zm-.178-1.023l.194-.229-.194.23zm-1.66-1.701l.234-.188-.234.188zm-.924-.248l-.108-.28.108.28zm-3.678-.993l-.15-.26-.301.174.216.272.235-.186zm2.275-1.314l-.15-.26.15.26zm.359-.97l-.283.1.283-.1zm-.564-2.25l.296-.044-.296.045zm-.695-.682l.04-.298-.04.298zm-2.764-2.71v-.3h-.35l.054.345.296-.045zm3.526-.66l-.295-.055.295.054zm.615-2.171l-.28-.109.28.109zm-.276-.95l.176-.242-.176.243zM4.087 8.573l.15-.26-.302-.175-.127.325.28.11zm2.447 1.412l.15-.26-.15.26zm1.02-.174l-.23-.195.23.195zm1.583-1.55l-.189-.232.19.232zm.216-.967l.272-.127-.272.127zm.904-3.887l.26-.15-.175-.303-.273.22.188.233zm1.44 2.494l.26-.15-.26.15zm.975.357l.102.282-.102-.282zm2.114-.555l-.05-.296.05.296zm.667-.739l.299.023-.3-.023zm1.674-3.352l.147-.262-.147.262zm-.224-.122l-.108-.28-.101.039-.053.094.262.147zm-2.414 3.27l.053.296.222-.04.023-.224-.298-.032zm-2.015.529l-.26.15.124.215.235-.082-.1-.283zM10.84 2.46l-.26.15.26-.15zm-.668-.18l-.15-.26.15.26zM8.26 4.675l.286.09-.286-.09zm.154 2.915l.191.23.173-.143-.09-.206-.274.12zM6.902 9.067l-.15.26.214.123.162-.186-.226-.197zM4.12 7.462l-.155.256.005.003.15-.26zm-.668.179l.26.15.002-.006-.262-.144zm1.06 5.422l.28.106.078-.207-.175-.136-.183.237zm-.594 2.09v.3h.246l.048-.243-.294-.058zm-.08 4.639l.296-.048-.035-.213-.213-.035-.048.296zm.543 2.174l.15.26.214-.124-.08-.233-.284.097zm-2.609 1.506l.145.263.005-.003-.15-.26zm-.179.668l.26-.15-.003-.005-.257.155zm2.258 1.869l-.098.283.098-.283zm2.78-.004l.233-.19-.133-.163-.199.07.1.283zm1.607 1.65l.26.15.124-.216-.188-.162-.196.227zm-1.465 2.537l.257.155.003-.005-.26-.15zm.18.668l.15-.26-.006-.003-.145.263zm5.252-.854l.105-.281-.193-.073-.137.155.225.199zm2.259.621h.3v-.25l-.247-.045-.053.295zm4.61.015l-.052-.295-.202.035-.04.2.293.06zm2.264-.606l.26-.15-.126-.219-.237.087.103.282zm1.446 2.504l.263-.145-.003-.005-.26.15zm.668.179l-.15-.26-.005.003.155.257zm1.874-5.014l-.194-.229-.156.133.067.194.283-.098zm1.62-1.643l.15-.26-.22-.127-.162.196.231.19zm2.558 1.477l-.15.26.15-.26zm.668-.18l.26.15-.26-.15zm-.95-5.333l-.283-.099-.069.196.16.133.192-.23zm.555-2.178v-.3h-.255l-.04.251.295.049zm3.535-.49h.3-.3zM30.01 15.14a13.39 13.39 0 00-.602-2.143l-.562.21c.248.664.44 1.351.575 2.047l.589-.114zm-.733-1.778l2.725-1.573-.3-.52-2.725 1.573.3.52zm2.725-1.573a.79.79 0 00.368-.48l-.58-.155a.19.19 0 01-.088.115l.3.52zm.368-.48a.789.789 0 00-.079-.598l-.52.3a.189.189 0 01.02.143l.579.156zm-.079-.598a4.493 4.493 0 00-2.548-2.045l-.18.573a3.893 3.893 0 012.209 1.772l.52-.3zm-2.548-2.045a4.496 4.496 0 00-3.115.15l.235.553a3.896 3.896 0 012.7-.13l.18-.573zm-2.771.23a13.565 13.565 0 00-1.545-1.517l-.385.46c.529.442 1.025.929 1.476 1.45l.454-.393zm-1.477-1.137l1.616-2.8-.52-.3-1.616 2.8.52.3zm1.616-2.8a.79.79 0 00-.289-1.078l-.3.52a.19.19 0 01.07.258l.52.3zm-.289-1.078a4.525 4.525 0 00-5.888 1.24l.484.354A3.925 3.925 0 0126.522 4.4l.3-.52zm-5.546 1.134a13.392 13.392 0 00-2.062-.545l-.107.59c.668.121 1.33.296 1.97.521l.199-.566zm-1.816-.25V1.49h-.6v3.275h.6zm0-3.269A.792.792 0 0018.665.7l.012.6a.191.191 0 01.183.183l.6.012zM18.671.7c-.66 0-1.299.14-1.895.417l.253.544a3.871 3.871 0 011.642-.36V.7zm-1.895.417a.79.79 0 00-.383 1.048l.544-.253a.19.19 0 01.092-.25l-.253-.545zm-.383 1.048a.79.79 0 001.048.384l-.253-.545a.189.189 0 01-.251-.092l-.544.253zm1.048.384c.252-.117.515-.196.786-.237l-.09-.594c-.328.05-.646.146-.949.286l.253.545zm.441-.534v2.891h.6V2.015h-.6zm0 2.891c0 .542.388 1.004.923 1.094l.1-.592a.506.506 0 01-.423-.502h-.6zM18.805 6c.7.118 1.393.301 2.06.543l.204-.564a12.41 12.41 0 00-2.164-.57l-.1.59zm2.06.543a1.11 1.11 0 001.292-.42l-.495-.339a.51.51 0 01-.592.195l-.206.564zm1.292-.42a2.944 2.944 0 013.475-1.068l.217-.56a3.543 3.543 0 00-4.187 1.29l.495.339zm3.324-1.498l-1.425 2.467.52.3L26 4.925l-.52-.3zm-1.425 2.467a1.105 1.105 0 00.258 1.413l.38-.465a.505.505 0 01-.118-.647l-.52-.3zm.258 1.413a12.03 12.03 0 011.541 1.512l.457-.388a12.568 12.568 0 00-1.619-1.589l-.38.465zm1.541 1.512c.322.379.861.493 1.313.285l-.251-.545a.514.514 0 01-.605-.128l-.457.388zm1.313.285a2.907 2.907 0 013.505.828l.47-.373a3.507 3.507 0 00-4.226-1l.25.545zm3.59.382l-2.394 1.382.3.52 2.394-1.383-.3-.52zm-2.395 1.382a1.104 1.104 0 00-.48 1.359l.56-.217a.504.504 0 01.22-.623l-.3-.52zm-.48 1.358c.264.686.466 1.401.598 2.125l.59-.108c-.139-.76-.35-1.512-.629-2.232l-.56.216zm.598 2.125c.088.483.48.844.969.901l.07-.596a.508.508 0 01-.449-.413l-.59.108zm.969.901A2.925 2.925 0 0132 18.915l.594-.09a3.525 3.525 0 00-3.075-2.97l-.069.595zm2.847 2.12h-2.663v.6h2.663v-.6zm-2.663 0c-.55 0-1.013.395-1.096.938l.593.091a.504.504 0 01.503-.43v-.6zm-1.097.939a11.796 11.796 0 01-.556 2.195l.564.203c.268-.747.465-1.523.585-2.308l-.593-.09zm-.556 2.195c-.163.452-.017.956.361 1.253l.37-.472a.514.514 0 01-.167-.578l-.565-.203zm.361 1.253a2.944 2.944 0 01.916 3.362l.56.217a3.544 3.544 0 00-1.105-4.05l-.37.471zm1.345 3.211l-2.226-1.285-.3.52 2.226 1.285.3-.52zm-2.226-1.285a1.104 1.104 0 00-1.416.262l.467.377a.504.504 0 01.649-.12l.3-.52zm-1.416.262a11.965 11.965 0 01-1.626 1.653l.385.46a12.566 12.566 0 001.708-1.736l-.467-.377zm-1.626 1.653a1.116 1.116 0 00-.327 1.25l.561-.213a.516.516 0 01.15-.576l-.384-.46zm-.327 1.25a2.912 2.912 0 01-.91 3.313l.374.469a3.512 3.512 0 001.097-3.994l-.561.211zm-.463 3.397l-1.254-2.172-.52.3 1.254 2.172.52-.3zm-1.254-2.172a1.105 1.105 0 00-1.353-.484l.213.561a.505.505 0 01.62.223l.52-.3zm-1.353-.484c-.733.279-1.498.484-2.274.612l.097.592c.815-.134 1.62-.35 2.39-.643l-.213-.56zm-2.274.612a1.11 1.11 0 00-.911.906l.59.105a.513.513 0 01.418-.42l-.097-.591zm-.911.906a2.92 2.92 0 01-2.439 2.381l.09.593a3.52 3.52 0 002.94-2.87l-.591-.104zm-2.094 2.678v-2.5h-.6v2.5h.6zm0-2.5c0-.542-.388-1.003-.923-1.094l-.1.592a.506.506 0 01.423.502h.6zm-.923-1.094a11.83 11.83 0 01-2.265-.62l-.216.56c.768.295 1.57.515 2.38.652l.1-.592zm-2.265-.62a1.112 1.112 0 00-1.254.326l.46.385a.512.512 0 01.578-.151l.216-.56zm-1.254.326a2.918 2.918 0 01-3.307.85l-.22.558a3.518 3.518 0 003.988-1.023l-.46-.385zm-3.157 1.278l1.272-2.203-.52-.3-1.272 2.204.52.3zm1.272-2.203a1.107 1.107 0 00-.243-1.402l-.387.459a.507.507 0 01.11.643l.52.3zm-.243-1.402a11.968 11.968 0 01-1.62-1.66l-.468.376c.508.633 1.08 1.22 1.7 1.743l.388-.459zm-1.62-1.66a1.108 1.108 0 00-1.266-.34l.216.56a.508.508 0 01.582.156l.468-.376zm-1.266-.34a2.906 2.906 0 01-3.335-.9l-.47.373a3.506 3.506 0 004.021 1.087l-.216-.56zm-3.42-.454l2.275-1.313-.3-.52-2.275 1.314.3.52zm2.275-1.313c.463-.267.67-.827.491-1.33l-.565.2a.508.508 0 01-.226.61l.3.52zm.491-1.33a11.804 11.804 0 01-.55-2.194l-.593.09c.118.783.313 1.558.578 2.305l.565-.202zm-.55-2.194a1.114 1.114 0 00-.951-.936l-.079.595c.222.03.403.207.437.43l.593-.089zm-.951-.936a2.936 2.936 0 01-2.507-2.458l-.593.091a3.536 3.536 0 003.021 2.962l.079-.595zM1.328 16.43h2.73v-.6h-2.73v.6zm2.73 0c.534 0 .994-.38 1.09-.905l-.59-.109a.508.508 0 01-.5.415v.6zm1.09-.905a11.86 11.86 0 01.601-2.117l-.56-.217c-.278.718-.49 1.467-.63 2.225l.59.109zm.601-2.117a1.111 1.111 0 00-.38-1.3l-.353.485c.185.135.258.38.174.598l.559.217zm-.38-1.3a2.917 2.917 0 01-1.003-3.427l-.558-.219a3.517 3.517 0 001.208 4.131l.353-.485zM3.937 8.831l2.447 1.413.3-.52-2.447-1.412-.3.52zm2.447 1.413a1.11 1.11 0 001.398-.24l-.457-.389a.508.508 0 01-.641.11l-.3.519zm1.398-.24c.467-.548.987-1.057 1.545-1.511l-.379-.465a12.572 12.572 0 00-1.623 1.587l.457.39zm1.545-1.511c.394-.321.513-.868.298-1.327l-.544.255a.503.503 0 01-.133.607l.379.465zm.298-1.328a2.949 2.949 0 01.82-3.525l-.376-.468C8.826 4.173 8.385 5.94 9.08 7.421l.544-.256zm.372-3.61l1.44 2.495.52-.3-1.44-2.494-.52.3zm1.44 2.495c.269.466.83.672 1.337.489l-.204-.564a.507.507 0 01-.613-.225l-.52.3zm1.337.489c.667-.242 1.36-.424 2.062-.542l-.1-.591c-.736.123-1.465.315-2.167.569l.205.564zm2.062-.542c.503-.084.878-.503.916-1.011l-.598-.045a.504.504 0 01-.418.465l.1.591zm.916-1.011c0 .002.006-.034.05-.123.04-.081.1-.18.175-.297.151-.232.355-.507.57-.786.217-.28.434-.553.62-.792a5.85 5.85 0 00.409-.565l-.523-.293c-.044.078-.17.248-.359.49-.18.23-.406.514-.622.794-.217.282-.432.572-.597.824a3.65 3.65 0 00-.21.357.977.977 0 00-.111.346l.598.045zm1.824-2.563a.79.79 0 00-.302-1.074l-.294.523a.19.19 0 01.073.258l.523.293zm-.302-1.074a.2.2 0 01.082.104.23.23 0 01-.002.168c-.011.026-.023.038-.02.034a.244.244 0 01.018-.016l.02-.018a.383.383 0 00.062-.074.303.303 0 00-.007-.327.301.301 0 00-.262-.132c-.05.002-.093.017-.095.017-.042.014-.134.05-.275.104l.215.56.174-.067a4.96 4.96 0 01.062-.023l.004-.001h-.001l-.008.002a.267.267 0 01-.053.007.294.294 0 01-.258-.13.3.3 0 01.03-.371l.006-.007.002-.002-.003.003-.003.003a.448.448 0 00-.16.202.363.363 0 00-.008.278c.04.107.12.172.187.21l.293-.524zm-.633-.007c-.054.097-.216.305-.457.599-.222.27-.532.637-.803.968-.281.343-.56.694-.774.998a4.462 4.462 0 00-.272.426 1.12 1.12 0 00-.144.396l.596.063s.002-.014.015-.048a1.11 1.11 0 01.06-.124c.055-.101.135-.225.235-.368.2-.285.468-.622.748-.963.29-.354.554-.665.802-.967.228-.278.43-.532.517-.686l-.523-.294zm-2.205 3.123c-.7.125-1.391.306-2.061.54l.198.567a12.7 12.7 0 011.969-.516l-.106-.591zm-1.703.674L11.1 2.31l-.52.3 1.634 2.828.52-.3zM11.1 2.31a.79.79 0 00-1.077-.29l.3.52a.19.19 0 01.258.07l.52-.3zm-1.077-.29a4.492 4.492 0 00-2.05 2.564l.573.178a3.896 3.896 0 011.777-2.222l-.3-.52zm-2.05 2.564a4.494 4.494 0 00.165 3.123l.55-.238a3.894 3.894 0 01-.142-2.707l-.573-.178zm.249 2.774c-.554.46-1.073.968-1.546 1.511l.452.394c.453-.52.949-1.004 1.477-1.444l-.383-.461zm-1.17 1.448L4.27 7.202l-.3.52 2.78 1.605.3-.52zM4.276 7.205a.792.792 0 00-1.086.29l.525.29c.045-.08.172-.114.25-.067l.311-.513zm-1.083.286a4.495 4.495 0 001.136 5.81l.367-.475a3.895 3.895 0 01-.983-5.035l-.52-.3zm1.039 5.466a13.38 13.38 0 00-.608 2.138l.589.115c.136-.694.331-1.38.58-2.041l-.561-.212zm-.313 1.895H.802v.6H3.92v-.6zm-3.117 0a.79.79 0 00-.789.79h.6a.19.19 0 01.19-.19v-.6zm-.789.79a4.516 4.516 0 003.777 4.446l.097-.592a3.916 3.916 0 01-3.274-3.854h-.6zm3.53 4.198c.12.754.307 1.5.555 2.223l.568-.194a12.794 12.794 0 01-.531-2.125l-.593.096zm.69 1.866l-2.61 1.506.3.52 2.61-1.506-.3-.52zM1.627 23.21a.792.792 0 00-.29 1.087l.513-.31a.193.193 0 01.067-.251l-.29-.526zm-.294 1.081c.54.936 1.4 1.647 2.42 2.002l.197-.567a3.904 3.904 0 01-2.097-1.735l-.52.3zm2.42 2.002a4.51 4.51 0 002.979-.004l-.2-.566a3.91 3.91 0 01-2.582.003l-.197.567zm2.647-.097a13.566 13.566 0 001.643 1.686l.391-.454a12.957 12.957 0 01-1.57-1.612l-.464.38zm1.579 1.31l-1.466 2.537.52.3L8.5 27.804l-.52-.3zm-1.463 2.532a.792.792 0 00.291 1.086l.29-.526c-.08-.044-.115-.17-.067-.25l-.514-.31zm.286 1.083a4.496 4.496 0 005.628-.916l-.45-.397a3.896 3.896 0 01-4.878.793l-.3.52zm5.298-.833c.748.28 1.524.493 2.31.635l.107-.59a12.798 12.798 0 01-2.207-.607l-.21.562zm2.064.34v2.884h.6v-2.884h-.6zm0 2.884c0 .436.353.789.79.789v-.6a.19.19 0 01-.19-.19h-.6zm.79.789a4.498 4.498 0 004.413-3.598l-.588-.12a3.898 3.898 0 01-3.826 3.118v.6zm4.17-3.362a13.38 13.38 0 002.317-.62l-.206-.564c-.717.263-1.46.462-2.213.593l.102.59zm1.954-.752l1.446 2.504.52-.3-1.446-2.504-.52.3zm1.443 2.499a.792.792 0 001.086.29l-.31-.513c-.08.048-.206.014-.25-.067l-.526.29zm1.081.294a4.49 4.49 0 002.008-5.373l-.567.197a3.89 3.89 0 01-1.74 4.656l.3.52zm1.919-5.046a13.553 13.553 0 001.656-1.68l-.463-.382a12.96 12.96 0 01-1.582 1.605l.389.457zm1.274-1.611l2.559 1.477.3-.52-2.559-1.477-.3.52zm2.559 1.477a.79.79 0 001.078-.29l-.52-.3a.19.19 0 01-.258.07l-.3.52zm1.078-.29a4.526 4.526 0 00-1.018-5.714l-.384.461a3.925 3.925 0 01.882 4.954l.52.3zm-.927-5.384c.253-.724.443-1.472.568-2.228l-.592-.098a12.8 12.8 0 01-.542 2.128l.566.198zm.272-1.977h3.046v-.6h-3.046v.6zm3.046 0a.79.79 0 00.789-.79h-.6a.19.19 0 01-.19.19v.6zm.789-.79a4.505 4.505 0 00-3.855-4.459l-.086.594a3.905 3.905 0 013.34 3.866h.6z" fill="#D7D7D7" mask="url(#a)"/></svg>