<svg width="52" height="52" fill="none" xmlns="http://www.w3.org/2000/svg"><path d="M7.132 24.26h-.899a.842.842 0 100 1.684h.899a.842.842 0 100-1.685zm3.594 0h-.899a.842.842 0 100 1.684h.899a.842.842 0 100-1.685zm3.594 0h-.9a.842.842 0 100 1.684h.9a.842.842 0 100-1.685z" fill="#115AD4"/><path d="M49.36 5.279A2.642 2.642 0 0052 2.639 2.642 2.642 0 0049.36 0h-3.593l-.02.001a.895.895 0 00-.055.003c-.01 0-.02.002-.031.004a.845.845 0 00-.05.007l-.037.008-.043.011-.042.014-.03.01-30.057 11.768a2.494 2.494 0 00-1.398 1.24l-3.799 7.6H2.64a.842.842 0 00-.842.842v6.345H.842a.842.842 0 00-.842.842v3.594c0 .466.377.843.842.843H6.29v1.909H4.436a2.642 2.642 0 00-2.639 2.64v12.634H.842a.842.842 0 100 1.685h5.391a.842.842 0 00.843-.842V40.32H17.97v10.838c0 .465.377.842.842.842h5.391a.842.842 0 100-1.685h-.955V37.68a2.642 2.642 0 00-2.639-2.639h-1.853v-1.91h5.447a.842.842 0 00.842-.842v-3.594a.842.842 0 00-.842-.842h-2.721l5.793-2.897a.838.838 0 00.22-.157l18.328-18.33v17.438l-3.41 4.262a.843.843 0 00-.184.526v7.188c0 .466.377.843.842.843h7.188a.842.842 0 00.843-.843v-7.188a.842.842 0 00-.185-.526l-3.41-4.262V5.28h1.854zM18.757 21.508v-7.32c0-.621-.228-1.19-.604-1.63l24.17-9.463-23.566 23.567v-5.154zM15.51 13.82a.825.825 0 011.56.368v6.477h-4.98l3.422-6.845zM3.48 22.35h13.59v5.503H3.481V22.35zm4.493 10.782h1.91v1.909h-1.91v-1.91zm5.503 0v1.909h-1.909v-1.91h1.91zM5.391 50.315H3.48V40.32h1.91v9.995zm14.263 0V40.32h1.91v9.995h-1.91zm1.91-12.635v.955H3.482v-.955c0-.526.428-.954.954-.954H20.61c.526 0 .955.428.955.954zm-4.493-2.639h-1.909v-1.91h1.91v1.91zm6.29-3.594H1.685v-1.91H23.36v1.91zm3.039-7.936l-4.22 2.11L46.116 1.685h3.245a.956.956 0 010 1.909h-2.696a.843.843 0 00-.596.247L26.4 23.51zm20.265 2.04l1.842 2.302h-3.683l1.841-2.302zm-2.751 9.49v-5.503h5.503v5.503h-5.503z" fill="#115AD4"/></svg>