<svg width="33" height="33" fill="none" xmlns="http://www.w3.org/2000/svg"><path d="M4.526 15.395h-.57a.535.535 0 000 1.07h.57a.534.534 0 100-1.07zm2.281 0h-.57a.535.535 0 000 1.07h.57a.534.534 0 100-1.07zm2.281 0h-.57a.535.535 0 000 1.07h.57a.534.534 0 100-1.07z" fill="#D7D7D7"/><path d="M31.325 3.35a1.676 1.676 0 000-3.35h-2.294a.57.57 0 00-.034.002c-.007 0-.013.002-.02.003a.54.54 0 00-.032.004l-.023.006-.027.007c-.01.002-.018.006-.027.009l-.019.006L9.774 7.505c-.38.135-.699.412-.887.787l-2.41 4.822H1.674a.534.534 0 00-.535.535v4.027H.535a.535.535 0 00-.535.535v2.28c0 .296.24.535.535.535H3.99v1.212H2.815c-.923 0-1.675.751-1.675 1.675v8.018H.535a.534.534 0 100 1.069h3.42c.296 0 .535-.24.535-.535v-6.878h6.914v6.878c0 .296.24.535.534.535h3.422a.535.535 0 100-1.07h-.606v-8.017c0-.924-.752-1.675-1.675-1.675h-1.176v-1.212h3.457c.295 0 .534-.24.534-.535v-2.28a.535.535 0 00-.534-.535h-1.727l3.676-1.838a.53.53 0 00.14-.1l11.63-11.632v11.066l-2.163 2.705a.535.535 0 00-.117.334v4.561c0 .295.24.535.535.535h4.561c.296 0 .535-.24.535-.535v-4.561a.534.534 0 00-.117-.334l-2.164-2.705V3.35h1.176zM11.903 13.649V9.004c0-.394-.145-.756-.384-1.034l15.34-6.006L11.902 16.92v-3.271zm-2.06-4.878a.523.523 0 01.99.234v4.11h-3.16L9.844 8.77zM2.21 14.184h8.624v3.492H2.21v-3.492zm2.85 6.842h1.212v1.212H5.06v-1.212zm3.493 0v1.212H7.34v-1.212h1.212zM3.42 31.93H2.21v-6.344h1.212v6.344zm9.052 0v-6.344h1.212v6.344h-1.212zm1.212-8.018v.605H2.209v-.605c0-.335.272-.606.606-.606H13.08c.334 0 .606.271.606.606zm-2.851-1.675H9.622v-1.212h1.212v1.212zm3.991-2.281H1.07v-1.212h13.756v1.212zm1.929-5.037l-2.679 1.34 15.19-15.19h2.06a.607.607 0 010 1.21h-1.71a.535.535 0 00-.379.157L16.754 14.92zm12.86 1.295l1.169 1.461h-2.337l1.168-1.46zm-1.746 6.023v-3.493h3.493v3.493h-3.493z" fill="#D7D7D7"/></svg>