<svg width="31" height="33" fill="none" xmlns="http://www.w3.org/2000/svg"><path d="M26.776 12.548V11.28c0-3.037-1.073-5.859-3.019-7.952C21.763 1.178 19.021 0 16.03 0h-1.046c-2.991 0-5.733 1.179-7.727 3.328-1.946 2.093-3.02 4.915-3.02 7.952v1.268A4.55 4.55 0 000 17.082v1.983a4.545 4.545 0 004.535 4.541H7.09a.834.834 0 00.831-.832v-9.408a.834.834 0 00-.83-.832H5.898V11.28c0-5.484 3.906-9.616 9.078-9.616h1.046c5.18 0 9.078 4.132 9.078 9.616v1.255h-1.19a.834.834 0 00-.831.831v9.401c0 .458.373.832.83.832h1.164c-.34 4.34-3.324 5.345-4.709 5.574a2.922 2.922 0 00-2.776-2.017H15.51a2.921 2.921 0 000 5.844h2.085a2.923 2.923 0 002.81-2.15 7.82 7.82 0 002.819-.963c1.503-.88 3.282-2.676 3.518-6.295A4.544 4.544 0 0031 19.058v-1.983a4.527 4.527 0 00-4.224-4.527zM6.273 21.935H4.55a2.877 2.877 0 01-2.873-2.877v-1.983a2.877 2.877 0 012.873-2.877h1.724v7.737zm11.322 9.401H15.51a1.254 1.254 0 01-1.253-1.255c0-.693.56-1.255 1.253-1.255h2.085a1.254 1.254 0 010 2.51zm11.75-12.278a2.877 2.877 0 01-2.873 2.877h-1.725v-7.737h1.724a2.877 2.877 0 012.874 2.877v1.983z" fill="#FFDF7D"/></svg>