<svg width="36" height="39" fill="none" xmlns="http://www.w3.org/2000/svg"><path d="M31.095 14.83v-1.5c0-3.588-1.246-6.923-3.506-9.397C25.273 1.393 22.089 0 18.615 0h-1.214c-3.474 0-6.658 1.393-8.974 3.933-2.26 2.474-3.506 5.809-3.506 9.398v1.499C2.18 15.018 0 17.345 0 20.188v2.344c0 2.957 2.364 5.366 5.267 5.366h2.967c.53 0 .965-.442.965-.983V15.797a.977.977 0 00-.965-.984H6.851v-1.482c0-6.481 4.535-11.365 10.542-11.365h1.214c6.015 0 10.542 4.884 10.542 11.365v1.482h-1.383a.977.977 0 00-.965.984v11.11c0 .54.434.983.965.983h1.35c-.393 5.129-3.859 6.317-5.467 6.587-.442-1.384-1.72-2.384-3.225-2.384h-2.412c-1.866 0-3.385 1.549-3.385 3.45 0 1.9 1.52 3.457 3.385 3.457h2.42c1.56 0 2.871-1.081 3.265-2.54.788-.115 2.035-.401 3.273-1.139 1.745-1.04 3.811-3.162 4.085-7.44C33.813 27.71 36 25.376 36 22.524V20.18c.008-2.835-2.163-5.17-4.905-5.35zM7.285 25.924H5.283c-1.841 0-3.337-1.524-3.337-3.4V20.18c0-1.876 1.496-3.4 3.337-3.4h2.002v9.143zm13.147 11.11h-2.42c-.804 0-1.455-.664-1.455-1.483 0-.82.65-1.483 1.455-1.483h2.42c.805 0 1.456.663 1.456 1.483 0 .819-.652 1.483-1.456 1.483zm13.646-14.51c0 1.876-1.495 3.4-3.337 3.4H28.74V16.78h2.002c1.842 0 3.337 1.524 3.337 3.4v2.343z" fill="#fff"/></svg>