<svg width="52" height="45" fill="none" xmlns="http://www.w3.org/2000/svg"><path d="M36.346 8.654a2.6 2.6 0 00-2.596 2.596v22.5a2.6 2.6 0 002.596 2.596 2.6 2.6 0 002.596-2.596v-22.5a2.6 2.6 0 00-2.596-2.596zm.866 25.096a.866.866 0 01-1.731 0v-22.5a.866.866 0 011.73 0v22.5zm-9.52-25.096a2.6 2.6 0 00-2.596 2.596v22.5a2.6 2.6 0 002.596 2.596 2.6 2.6 0 002.596-2.596v-22.5a2.6 2.6 0 00-2.596-2.596zm.866 25.096a.866.866 0 01-1.731 0v-22.5a.866.866 0 011.73 0v22.5zM10.385 8.654a2.6 2.6 0 00-2.596 2.596v22.5a2.6 2.6 0 002.596 2.596 2.6 2.6 0 002.596-2.596v-22.5a2.6 2.6 0 00-2.596-2.596zm.865 25.096a.866.866 0 01-1.73 0v-22.5a.866.866 0 011.73 0v22.5zm7.788-25.096a2.6 2.6 0 00-2.596 2.596v22.5a2.6 2.6 0 002.596 2.596 2.6 2.6 0 002.597-2.596v-22.5a2.6 2.6 0 00-2.597-2.596zm.866 25.096a.866.866 0 01-1.73 0v-22.5a.866.866 0 011.73 0v22.5z" fill="#115AD4"/><path d="M49.76 11.25c1.193 0 2.163-.97 2.163-2.163V6.49c0-1.193-.97-2.163-2.163-2.163-1.194 0-2.164.97-2.164 2.163v.433h-.865V4.327h-2.596v-.865A3.465 3.465 0 0040.673 0a3.465 3.465 0 00-3.462 3.462v.865a.866.866 0 01-1.73 0v-.865A3.465 3.465 0 0032.019 0a3.465 3.465 0 00-3.461 3.462v.865a.866.866 0 01-1.731 0v-.865A3.465 3.465 0 0023.365 0a3.465 3.465 0 00-3.461 3.462v.865a.866.866 0 01-1.73 0v-.865A3.465 3.465 0 0014.71 0a3.465 3.465 0 00-3.461 3.462v.865a.866.866 0 01-1.73 0v-.865A3.465 3.465 0 006.057 0a3.465 3.465 0 00-3.462 3.462v1.73H0v6.058h2.596v22.5H0v6.058h2.596v1.73A3.465 3.465 0 006.058 45a3.465 3.465 0 003.461-3.462v-.865a.866.866 0 011.731 0v.865A3.465 3.465 0 0014.711 45a3.465 3.465 0 003.462-3.462v-.865a.866.866 0 011.73 0v.865A3.465 3.465 0 0023.366 45a3.465 3.465 0 003.462-3.462v-.865a.866.866 0 011.73 0v.865A3.465 3.465 0 0032.02 45a3.465 3.465 0 003.462-3.462v-.865a.866.866 0 011.73 0v.865A3.465 3.465 0 0040.674 45a3.465 3.465 0 003.462-3.462v-1.73h2.596v-.866h5.192v-4.327h-5.192v-.865h-2.596v-22.5h2.596V8.654h.865v.433c0 1.193.97 2.163 2.164 2.163zM1.73 9.52V6.922h.866V9.52h-.865zm0 28.557V35.48h.866v2.596h-.865zm48.462-1.73v.864h-3.461v-.865h3.461zM45 35.48v2.596h-.865V35.48H45zm-2.596-1.731v7.788a1.732 1.732 0 01-3.462.001v-.866a2.6 2.6 0 00-2.596-2.596 2.6 2.6 0 00-2.596 2.596v.865a1.732 1.732 0 01-3.462.001v-.866a2.6 2.6 0 00-2.596-2.596 2.6 2.6 0 00-2.596 2.596v.865c0 .955-.776 1.731-1.73 1.731a1.732 1.732 0 01-1.731-1.73v-.866a2.6 2.6 0 00-2.597-2.596 2.6 2.6 0 00-2.596 2.596v.865c0 .955-.776 1.731-1.73 1.731a1.732 1.732 0 01-1.731-1.73v-.866a2.6 2.6 0 00-2.596-2.596 2.6 2.6 0 00-2.597 2.596v.865c0 .955-.776 1.731-1.73 1.731a1.732 1.732 0 01-1.731-1.73V3.462c0-.955.776-1.731 1.73-1.731.955 0 1.731.776 1.731 1.73v.866a2.6 2.6 0 002.597 2.596 2.6 2.6 0 002.596-2.596v-.865c0-.955.776-1.731 1.73-1.731.955 0 1.731.776 1.731 1.73v.866a2.6 2.6 0 002.596 2.596 2.6 2.6 0 002.597-2.596v-.865c0-.955.776-1.731 1.73-1.731.955 0 1.731.776 1.731 1.73v.866a2.6 2.6 0 002.596 2.596 2.6 2.6 0 002.596-2.596v-.865a1.732 1.732 0 013.462-.001v.866a2.6 2.6 0 002.596 2.596 2.6 2.6 0 002.596-2.596v-.865a1.731 1.731 0 013.461-.001V33.75zM45 9.52h-.865V6.057H45v3.461zm4.327-3.03a.433.433 0 01.865 0v2.597a.434.434 0 01-.432.432.434.434 0 01-.433-.432V6.49z" fill="#115AD4"/></svg>