<svg width="36" height="31" fill="none" xmlns="http://www.w3.org/2000/svg"><path d="M25.038 5.961A1.79 1.79 0 0023.25 7.75v15.5a1.79 1.79 0 001.788 1.788 1.79 1.79 0 001.789-1.788V7.75a1.79 1.79 0 00-1.789-1.789zm.597 17.289a.596.596 0 01-1.193 0V7.75a.596.596 0 011.193 0v15.5zM19.077 5.961a1.79 1.79 0 00-1.788 1.789v15.5a1.79 1.79 0 001.788 1.788 1.79 1.79 0 001.788-1.788V7.75a1.79 1.79 0 00-1.788-1.789zm.596 17.289a.596.596 0 01-1.192 0V7.75a.596.596 0 011.192 0v15.5zM7.154 5.961A1.79 1.79 0 005.365 7.75v15.5a1.79 1.79 0 001.789 1.788 1.79 1.79 0 001.788-1.788V7.75a1.79 1.79 0 00-1.788-1.79zM7.75 23.25a.596.596 0 01-1.192 0V7.75a.596.596 0 011.192 0v15.5zm5.366-17.289a1.79 1.79 0 00-1.789 1.789v15.5a1.79 1.79 0 001.789 1.788 1.79 1.79 0 001.788-1.788V7.75a1.79 1.79 0 00-1.788-1.789zm.596 17.289a.596.596 0 01-1.192 0V7.75a.596.596 0 011.192 0v15.5z" fill="#D7D7D7"/><path d="M34.279 7.75c.822 0 1.49-.668 1.49-1.49V4.47a1.491 1.491 0 00-2.98 0v.298h-.597V2.981h-1.788v-.596A2.387 2.387 0 0028.019 0a2.387 2.387 0 00-2.384 2.385v.596a.596.596 0 01-1.193 0v-.596A2.387 2.387 0 0022.058 0a2.387 2.387 0 00-2.385 2.385v.596a.596.596 0 01-1.192 0v-.596A2.387 2.387 0 0016.096 0a2.387 2.387 0 00-2.385 2.385v.596a.596.596 0 01-1.192 0v-.596A2.387 2.387 0 0010.135 0 2.387 2.387 0 007.75 2.385v.596a.596.596 0 01-1.192 0v-.596A2.387 2.387 0 004.173 0a2.387 2.387 0 00-2.385 2.385v1.192H0V7.75h1.788v15.5H0v4.173h1.788v1.192A2.387 2.387 0 004.173 31a2.387 2.387 0 002.385-2.385v-.596a.596.596 0 011.192 0v.596A2.387 2.387 0 0010.135 31a2.387 2.387 0 002.384-2.385v-.596a.596.596 0 011.192 0v.596A2.387 2.387 0 0016.096 31a2.387 2.387 0 002.385-2.385v-.596a.596.596 0 011.192 0v.596A2.387 2.387 0 0022.058 31a2.387 2.387 0 002.384-2.385v-.596a.596.596 0 011.193 0v.596A2.387 2.387 0 0028.019 31a2.387 2.387 0 002.385-2.385v-1.192h1.788v-.596h3.577v-2.98h-3.577v-.597h-1.788V7.75h1.788V5.962h.596v.298c0 .822.669 1.49 1.49 1.49zM1.192 6.558V4.769h.596v1.789h-.596zm0 19.673v-1.789h.596v1.789h-.596zm33.385-1.193v.597h-2.385v-.597h2.385zM31 24.442v1.789h-.596v-1.789H31zm-1.788-1.192v5.365a1.194 1.194 0 01-2.385 0v-.596a1.79 1.79 0 00-1.789-1.788 1.79 1.79 0 00-1.788 1.788v.596a1.194 1.194 0 01-2.385 0v-.596a1.79 1.79 0 00-1.788-1.788 1.79 1.79 0 00-1.789 1.788v.596a1.194 1.194 0 01-2.384 0v-.596a1.79 1.79 0 00-1.789-1.788 1.79 1.79 0 00-1.788 1.788v.596a1.194 1.194 0 01-2.385 0v-.596a1.79 1.79 0 00-1.788-1.788 1.79 1.79 0 00-1.789 1.788v.596a1.194 1.194 0 01-2.384 0V2.385a1.194 1.194 0 012.384 0v.596a1.79 1.79 0 001.789 1.788 1.79 1.79 0 001.788-1.788v-.596a1.194 1.194 0 012.385 0v.596a1.79 1.79 0 001.788 1.788 1.79 1.79 0 001.789-1.788v-.596a1.194 1.194 0 012.384 0v.596a1.79 1.79 0 001.789 1.788 1.79 1.79 0 001.788-1.788v-.596a1.193 1.193 0 012.385 0v.596a1.79 1.79 0 001.788 1.788 1.79 1.79 0 001.789-1.788v-.596a1.194 1.194 0 012.384 0V23.25zM31 6.558h-.596V4.173H31v2.385zm2.98-2.087a.299.299 0 01.596 0V6.26a.299.299 0 01-.297.298.299.299 0 01-.298-.298V4.47z" fill="#D7D7D7"/></svg>