<svg width="109" height="112" fill="none" xmlns="http://www.w3.org/2000/svg"><path d="M26.678 93.052l.866-.501-.866.501a2.436 2.436 0 002.108 1.213h50.702c.868 0 1.672-.461 2.108-1.213l25.351-43.756a2.425 2.425 0 000-2.432L81.596 3.108a2.435 2.435 0 00-2.108-1.213H28.786c-.868 0-1.672.461-2.108 1.213L1.327 46.864a2.425 2.425 0 000 2.432l25.351 43.756z" fill="#fff" stroke="#fff" stroke-width="2"/><path opacity=".2" d="M28.366 53.702l4.65-3.607 1.039-3.885-5.689 7.492zm-5.611-9.828l-.344 3.21-1.31 1.856v-2.951l1.654-2.115zm19.68-4.008l-5.688.765 2.406-1.537 3.282.772zM31.213 44.77l-4.371 3.172.765-2.958 3.607-.214zm11.228-22.041l5.987 1.53-3.807 1.383-2.18-2.913zm-15.49 8.821l-3.775 7.824 1.148-5.417 2.627-2.406zm17.424 14.731l-10.32-.071 6.642 2.076 3.678-2.005zM23.19 39.392l2.73 2.919 6.35.688-9.08-3.607z" fill="#263238"/><path opacity=".2" d="M45.179 41.215l-.804 5.066-3.678 2.004 4.482-7.07zm5.468-4.71l-2.477 4.158-2.99.552 5.467-4.71zm.078-3.826l-3.321-2.55 1.057 2.99 2.154 3.387.11-3.827zm-25.713-4.521l2.083 3.282 6.162 3.282-8.244-6.564zm3.795-12.033l2.77 5.067 10.281 5.688-13.05-10.755zm14.439 3.795l-7.22-5.001 1.46 2.737 5.76 2.264z" fill="#263238"/><path opacity=".2" d="M51.309 18.565l-13.823-.908 5.76 2.264 8.063-1.356zm10.197 4.312l-10.197-4.313 5.137 6.064 5.06-1.751zm19.336-1.323l-4.372-3.827-8.465 1.79 12.837 2.037z" fill="#263238"/><path opacity=".2" d="M82.263 27.645l-1.42-6.09-4.373-3.828 5.793 9.918zm3.905 11.163l-3.905-11.163 4.417 3.463-.512 7.7zm2.114 6.416l-.765 2.737-6.817-2.01 7.582-.727zM67.278 69.802l.072 10.573-10.171-7.952 10.1-2.62zm9.99-4.671l-16.794.28 6.805 4.39 9.989-4.67zM53.91 72.52l-4.975-1.149-.604 4.54 5.579-3.392zM30.468 91.94L42.48 76.074l5.85-.162L30.467 91.94z" fill="#263238"/><path opacity=".2" d="M83.768 59.468L67.278 69.8l9.99-4.67 6.5-5.663zm-1.505-31.823L68.57 32.86l12.272-11.306 1.42 6.091zm5.124 6.533l-1.22 4.631-10.65 2.095 11.87-6.726zM67.045 18.966l-3.944 8.86-12.597-1.09 11.073-3.755 5.468-4.015zm-26.471 29.43l-9.516 7.66-12.253 5.248 21.769-12.908zM27.01 31.661l-3.775 7.823 1.148-5.416 2.627-2.407z" fill="#263238"/><path opacity=".2" d="M33.133 34.833l-8.75-.765 2.627-2.407 6.123 3.172zm-1.602-13.836L26.2 23.59l2.562-2.543 2.77-.051zm55.973 27.068l.22 7.44-10.495 9.528 10.275-16.968zm-56.446 7.992L19.16 75.017l-.356-13.926 12.253-5.034zm11.267-22.211l2.076-1.972 3.938 1.207-6.014.765zM31.966 10.644l4.988 1.783 4.028-1.492L36.5 9.684l-4.534.96zm18.538 16.094l-.512-1.57-2.588 4.963 3.1-3.393z" fill="#263238"/><path opacity=".2" d="M33.017 50.096l-2.069 5.993-12.253 5.105 14.322-11.098zm-.649-6.844l8.206 5.144-6.454-2.076-1.752-3.068zM88.71 65.793L83.36 59.5l-6.027 5.63 11.378.662z" fill="#263238"/><path d="M106.107 47.52L80.661 3.47a1.245 1.245 0 00-1.077-.649H28.69a1.246 1.246 0 00-1.076.649L2.167 47.52a1.245 1.245 0 000 1.245l25.447 44.077a1.245 1.245 0 001.076.648h50.894a1.245 1.245 0 001.077-.648l25.446-44.076a1.238 1.238 0 000-1.246zM18.935 75.224L12.61 64.346l.11-.052 6.11 1.298.176 9.541-.046.033a.077.077 0 00-.025.058zM12.94 64.197l2.595-1.297 3.068-1.59h.078l.078 4.132-5.819-1.245zm9.814-20.29h.065a.078.078 0 00.039 0l4.3 1.077-.901 2.984-3.788-.908.285-3.12a.07.07 0 000-.033zM61.928 12.5l3.8 2.225a.077.077 0 000 .065l1.24 3.957-.429.292-4.8.908-.116-7.395h.233a.077.077 0 00.078-.078s-.006.033-.006.026zM24.364 66.78l9.081 1.946a.76.76 0 00.052.246l-14.219 6.013 5.086-8.205zm-5.19 8.12l-.168-9.262 5.19 1.11-5.021 8.153zm12.857-40.15l.46.038.746.376.195.065 2.835 4.878a.649.649 0 00-.247.538v.169l-3.535 1.991a.304.304 0 00-.117-.045l-.298-.032-6.72-7.596.408-.856 6.273.473zm-6.169-.695l1-2.095 5.234 2.646h-.052l-6.182-.551zm31.343-18.35l4.34 4.268-.156 2.666-.078.052-.136.045-9.23-3.944-.331-.402a.286.286 0 00-.046-.032l.798-6.104 4.84 3.45zm-4.612-3.47l8.874.317.078 7.2-4.242-4.17-4.71-3.348zM85.026 51.8l-3.924-5.39a.493.493 0 00.117-.214l6.103 1.797-2.296 3.807zm0 .28l2.49 3.418-4.721.285 2.231-3.704zm-.097-.137l-2.322 3.853-7.784.474a.603.603 0 00-.234-.26l5.838-9.548a.454.454 0 00.512.039l3.99 5.442zm-35.32 5.364l8.99-11.896a.74.74 0 00.442.156.722.722 0 00.162-.033l4.54 13.55a.747.747 0 00-.317.604c0 .196.077.385.214.525l-3.243 5.118-10.67-7.135a.746.746 0 00-.117-.889zM34.956 68.725v-.059a.746.746 0 00-.084-.33l13.622-9.957a.73.73 0 00.26.181L44.42 70.508l-9.464-1.783zm9.412 1.946l-1.946 5.39-9.21-.383.94-6.26h.084a.746.746 0 00.714-.544l9.418 1.797zm3.944-12.811a.739.739 0 00.123.389l-13.621 9.957a.746.746 0 00-.312-.247l6.169-19.33a.31.31 0 00.15-.032l3.716-2.024a.312.312 0 00.156-.227l.765-4.871 2.595-.487.96 16.126a.752.752 0 00-.7.746zM33.393 29.578l7.784-2.73.156.084c.048.076.112.14.188.188l.149.09-1.9 5.488-6.383-2.633a.648.648 0 000-.48l.006-.007zm2.459-7.706l6.227.83a.607.607 0 00-.04.091l-.765 3.38-.577-.324-4.846-3.977zm4.086 3.568l-7.103-3.963 2.718.363 4.385 3.6zm.253-7.492l1.375.973-2.724-1.057 1.349.084zm-1.803-.279l-.571-.22.649-.65 1.44.993-1.518-.123zm2.101.298l1.356.091.882 1.297-.512-.188-1.726-1.2zm1.557.104l1.583.104-.376 1.382-.26-.104-.947-1.382zm1.739.117l5.838.39-6.182.972.344-1.362zm15.911 26.99a.741.741 0 00.104-.363.746.746 0 00-.279-.57l9.03-11.222 6.849 7.926-6.655 11.138-9.049-6.909zm8.971 7.045l-4.249 6.759a.737.737 0 00-.233-.045.752.752 0 00-.305.064l-4.54-13.505a.752.752 0 00.252-.194l9.075 6.92zm-9.276-8.07l-.123-.051 3.743-15.626a.752.752 0 00.389-.188l5.04 4.618-9.049 11.248zm-.279-.084h-.078a.739.739 0 00-.343.091l-7.674-11.118v-.35a.312.312 0 00-.123-.253l-3.01-2.31 2.763-3.035.513-.182 10.975.947a.747.747 0 00.707.649l-3.73 15.561zm-13.706-3.243h-.149l-4.067-2.822 1.057-.596a.649.649 0 00.123.136l3.283 2.406a.65.65 0 00.37.124h.084a.649.649 0 00.408-.247l1.752-2.406a.65.65 0 00.11-.266l.526-3.14 1.388 2.186v.35l-.24.396-4.645 3.879zm4.385-3.51l-1.848 3.043-2.232.415 4.08-3.457zm-7.7 8.907l2.647-4.178-.649 4.003a.3.3 0 00-.077.09l-.182.104-1.738-.02zm1.46.169l-2.387 1.297.83-1.297h1.557zm.195-3.069l.045-.078a.649.649 0 00.065-.467l-.649-2.549 1.628 1.129-.045.298-1.044 1.667zm-1.427-9.477l5.922-.752.104.032v.072l.045.071-.649 3.82-1.751 2.407-3.243-2.367v-.052l-.428-3.23zm.168-.181l1.946-1.7 3.438 1.012-5.384.688zm2.206-2.413a.617.617 0 00-.422 0L42.325 27.6l4.54 2.653a.65.65 0 00.273.078l.143.084.175.136.649 1.823-3.412-1.122zm2.484-1.602l-5.19-3.042-.064-.033 6.13-2.153-.876 5.228zm-5.105-2.18l2.089 3.892h-.052l-2.283 1.946a.652.652 0 00-.13.162l-1.803-.746 1.894-5.468.285.214zm6.882 6.357l.098-.57a.65.65 0 00-.416-.695l-.37-.123-.602-1.726L50.4 32.81l-.085 3.14-1.362-2.122zm-.901-4.82l1.764-3.386.311 1.116-2.075 2.27zm2.64-2.594l-1.395-4.962 6.616 3.1-5.221 1.862zm4.988-2.14L49.24 21.25l-.04-.15a.316.316 0 000-.058l2.076-2.076 4.405 5.306zm-3.542-5.235l8.816 3.755-4.405 1.538-4.41-5.293zm-3.042 1.861l-.98-1.453 2.907-.454-1.927 1.907zm-1.66-1.342l1.187 1.77 1.148 4.087-1.843 3.529.772-4.658a.649.649 0 00-.454-.707l-.298-.065-4.34-3.347 3.828-.61zm.648 4.625v.064l-3.503 1.233L42.636 23v-.058l5.45 1.238zm-3.639 1.342l-2.594.908.733-3.243 1.861 2.335zm-4.599 7.382l1.79.74a.651.651 0 000 .259l.493 3.295c.012.047.03.093.052.136l-1.128.649-2.14-1.486-.079-.038-.188-.065 1.2-3.49zm1.505 6.02l-1.33-.195.578-.325.752.52zm.474.869l-4.8.648 1.946-1.102 2.854.454zm.538.084a.078.078 0 100-.156l-.649-.103.733.11.805 3.21-1.946 3.296h-.195l-4.138-2.024v-.039l-.286-3.529 5.676-.765zm-2.692 6.337H37.24l-1.602-1.005.83-.597a.65.65 0 00.175.136l3.03 1.466zm-4.177-1.109L32.9 43.486l-.292-.552 3.419-1.946.266 3.243a.65.65 0 00.077.247l-.875.63zm-.136.097l-1.103.792-1.2-2.245 2.303 1.453zm.142.091l1.44.902h-2.095l-.415-.15 1.07-.752zm1.693 1.064l1.778 1.116-3.652-1.148 1.874.032zm.299 0h2.503l1.006.493a.59.59 0 00.506 0l-.649.973-.266.143-1.031-.325-2.07-1.284zm10.748-5.39a.312.312 0 00.175-.13l2.458-4.048a.316.316 0 000-.058.292.292 0 00.04-.143.287.287 0 000-.045l.09-3.243 7.563 10.936a.727.727 0 00-.084 1.077l-8.997 11.928a.74.74 0 00-.318-.116l-.927-16.158zM63.77 60.312a.74.74 0 00.415.142l1.615 4.833-5.19.084 3.16-5.06zm2.095 5.124l1.245 3.71a.486.486 0 00-.246.195l-6.143-3.82 5.144-.085zm-1.518-5.014a.74.74 0 00.208-1.369l4.255-6.74 5.033 3.847a.584.584 0 00.078.85l-4.242 8.212-3.684.058-1.648-4.858zm5.403 4.956l4.645-.078-5.585 3.464-1.084.505 2.024-3.891zm4.943-.078h1.68l-6.396 2.964 4.716-2.964zm.26-.162l3.308-2.063-1.09 1.816-.422.195-1.796.052zm3.587-2.251l3.243-2.011-4.23 3.671.987-1.66zm-.117-.11l-3.775 2.354-4.82.078 4.17-8.115a.596.596 0 00.685-.12.61.61 0 00.179-.431.565.565 0 000-.084l7.66-.448-4.1 6.765zm1.9-16.398l-5.87 9.593a.525.525 0 00-.525.078l-5.073-3.892 6.655-11.066 4.846 4.729a.46.46 0 000 .59l-.033-.032zM75.458 40.8l-6.778-7.868 13.401-5.105L75.458 40.8zm-6.934-8.03l-5.033-4.612a.739.739 0 00.136-.415.746.746 0 00-.188-.487l3.6-7.823.097-.064.649.389a.311.311 0 00.253 0l.318-.104 6.454 1.025-6.286 12.09zm6.448-12.033l3.438.545.914 1.57-10.514 9.684 6.162-11.799zm-10.904 4.787l-.746 1.622a.739.739 0 00-.448-.162h-.038l-1.161-3.776 5.13-3.586-2.737 5.902zm-2.517-3.01l.123-2.419 4.541-.843-4.664 3.263zm1.129 4.509a.747.747 0 00-.558.648l-10.586-.888 5.02-1.797 4.963-1.706 1.16 3.743zm-11.267-8.699a.315.315 0 00-.091 0l-1.038.162-6.486-.434 1.258-4.625.097-.046a.649.649 0 00.357-.415.612.612 0 000-.13l6.668-.596-.765 6.084zm-7.745-.292l-1.732-.116-1.667-2.427 4.605-1.99-1.206 4.533zm-1.946-.13l-1.453-.103-1.635-1.122 1.207-1.188a.65.65 0 00.233.052h.072l1.576 2.361zm-3.243-1.297l-1.907-1.297-.195-.39.422-1.777 2.854 2.264-1.174 1.2zm-.11.11l-.695.675-.934-1.83 1.628 1.155zm-1.051 1.233l5.837 2.264c.053.014.11.014.163 0h.11l4.19 3.243-4.813-1.09h-.136a.597.597 0 00-.493.247l-6.558-.921-2.017-1.66 3.554-2.239a.31.31 0 00.156.136l.007.02zm-1.992 3.684l-2.841-.363-.441-.246 1.44-.909 1.842 1.518zm-3.49-.694l-.227-.13.052-2.153 1.641 1.356-1.466.927zm9.081 5.838l-7.602 2.64a.747.747 0 00-.648-.376.724.724 0 00-.143 0l-.856-7.505 9.25 5.241zm-7.595 3.431l6.383 2.64-1.2 3.47h-.072l-5.26-5.902a.747.747 0 00.149-.207zm5.273 6.798l1.862 1.298-.688.389-.648-.097h-.091a.65.65 0 00-.311.084l-2.342 1.336-2.737-4.71 4.955 1.7zm-6.486 6.357l1.589 2.92-.11.42-1.635 2.174v-4.041a.648.648 0 00-.649-.649h-.038l-1.739.15 2.225-.993.357.02zm-1.155 1.48l-4.047 3.152.875-2.906.117-.052 3.055-.195zm.28 0h.038l.039 4.845-.039.058h-.065l-2.536 1.194h-.013l-1.784-2.712 4.36-3.386zm.33 5.565a.649.649 0 00.37-.578v-.72l1.53-2.01-.758 2.84-3.01 2.141.98-1.297.888-.376zm1.336.168l.247-.175a.311.311 0 00.123-.175l.953-3.568 5.838 1.836-8.101 4.8.94-2.718zm6.72-1.628l-8.432 6.811.778-2.25 7.654-4.56zm-8.705 6.96l-1.79.753-8.523 3.684-.753.311L31.7 53.624l-.785 2.283zm.04.292a.078.078 0 00.045-.045l.038-.123 9.296-7.48.162.052-6.169 19.33a.705.705 0 00-.123 0 .746.746 0 00-.74.649l-9.022-1.946 6.44-10.41.072-.027zM33.6 69.094a.74.74 0 00.376.286l-.94 6.285-13.622-.564L33.6 69.094zm-.467 6.727l9.126.376-11.442 15.049 2.316-15.425zm9.32.376h.04l5.578-.156L36.63 86.317l-.156.136-.045.046-5.436 4.871 11.462-15.172zm.085-.175l1.946-5.345 3.892.733a.46.46 0 000 .078.492.492 0 00.37.473l-.52 3.892-5.688.169zm6.344-4.041a.486.486 0 00.467-.402l4.32.999-5.273 3.21.486-3.807zm.46-.558a.486.486 0 00-.92-.162l-3.892-.733 4.404-11.922a.72.72 0 00.136 0 .747.747 0 00.603-.318l10.658 7.135-6.441 7.044-4.547-1.044zm11.093-5.89l6.292 4.067-9.672 2.524-3.042.395 6.422-6.986zm-2.277 6.94l8.945 2.349.058 5.364-1.946-1.55-7.356-6.065.299-.097zm.311-.077l8.68-2.264v4.54l-8.68-2.276zm7.557-6.966l3.548-.059-1.998 3.892a.493.493 0 00-.318-.123l-1.232-3.71zm1.343 4.657h.078l5.461 6.324-5.507 3.775-.071-10.073.039-.026zm.233-.078l9.769-4.54.57 7.459-4.91 3.367-5.429-6.286zm10.379 3.114l.746 9.73-5.566-6.448 4.82-3.282zm-.422-7.577l8.51 1.842-7.978 5.488-.532-7.33zm0-.155l.253-.221 10.605.61-2.179 1.492-8.679-1.881zm11.092.421l.065.078 4.1 2.815-6.364-1.381 2.2-1.512zm-10.67-.785l5.747-4.994 4.54 5.325.22.28-10.507-.61zm5.345-5.474l-.779.648-3.794 2.361 3.956-6.551 4.872-.298-4.281 3.853.026-.013zm1.816-7.583l2.231-3.71.247 7.102-2.478-3.392zm2.38-3.892l1.298 3.542-1.077 3.742-.22-7.284zm-.071-.169l-6.201-1.822a.474.474 0 000-.059l6.927-.648-.726 2.53zm-6.266-2.036l-.032-.052 7.05-4.035.072 3.412-7.09.675zm-.15-.163a.447.447 0 00-.55 0l-4.82-4.702 10.495-2.07 1.946 2.718-7.07 4.054zm5.015-6.914l-10.106 1.972 8.997-5.099 1.109 3.127zm-.954-3.192l1.226-.72-.24 3.568-.986-2.848zm1.402-.791l.752-.428-.967 3.671.215-3.243zm0-.188l.2-3.003.61 2.549-.81.454zm-.163.09l-1.297.74-2.608-7.55 4.171 3.243-.266 3.568zm-1.44.818l-9.217 5.222 6.545-12.863 2.672 7.641zM68.9 32.659l10.509-9.665 2.718 4.645-13.227 5.02zm10.632-9.794l1.245-1.148 1.298 5.455-2.543-4.307zm-.078-.136l-.837-1.427 2.037.324-1.2 1.102zm-.914-1.583l-1.758-3.01 3.814 3.334-2.056-.324zm-.202 0l-3.243-.52 1.395-2.672 1.848 3.192zM74.92 20.6l-6.201-.986.934-.298 6.668-1.408L74.92 20.6zm-6.908-1.414l-.7-.422a.305.305 0 00-.176-.045l-1.187-3.788 2.472 2.808.92.967-1.33.48zM52.366 12.07l-.992-4.774 2.166 1.05 8.251 4.087-9.425-.363zm-.155 0l-6.662.597a.644.644 0 00-.039-.084l5.721-5.222.98 4.71zm-6.753.37l-1.868-2.387 4.073-2.42 3.49-.35-5.695 5.157zm-.545.305a.071.071 0 00-.032.065l-4.82 2.088-3.08-2.413 6.038-2.134 1.894 2.394zm-8.14-.844a.646.646 0 00-.214.137.303.303 0 00-.17.194l-4.423-1.582 4.54-.85 3.724.882-3.457 1.22zm-.429.487l-.616 2.497a.311.311 0 000 .214l1.298 2.556-3.607 2.27-1.777-1.466.188-7.673 4.514 1.602zm-4.8 5.955l-2.704-2.232 2.886-5.28-.182 7.512zm0 .2l-.051 2.193-.176-.097-2.27-4.152 2.497 2.057zm-.506 2.654l-4.475 2.238 2.212-2.212 1.706-.033h.564l-.007.007zm.163.09l.298.17.882 7.68a.752.752 0 00-.26.18l-5.928-5.467v-.078l5.008-2.485zm.836 8.128a.758.758 0 00.642 1.168.738.738 0 00.364-.104l5.092 5.708-4.67-1.583-.87-.434-7.557-6.052 1.11-4.12 5.89 5.417zm-.123 4.366l-4.813-2.42-1.803-2.847 6.616 5.267zm-6.24.22l-1.187-.045 2.199-2.018-1.012 2.063zm-.11.227l-.357.746-.733-.824 1.09.078zm-.428.895l-1.875 3.938 1.012-4.91.863.972zm.11.124l6.59 7.453-.324-.04-8.218-3.243 1.952-4.17zm5.663 7.303l-4.735-.557h-.04l-2.594-2.381 7.369 2.938zm-4.807.065l5.339.649-2.355 1.07-1.297.084a.65.65 0 00-.545.422l-4.177-1.044 2.931-1.194a.306.306 0 00.117.052l-.013-.039zm-3.8 4.437l-1.149 1.823-.136-2.783 1.589-2.07-.305 3.03zm-1.09 1.992l1.2-1.875 3.82.92a.61.61 0 00.084.39l1.576 2.38h-4.644l-2.043-1.783.006-.032zm6.784 1.945l.182.273a.649.649 0 00.772.227l1.336-.597-1.044 1.518-1.356.966-2.368-1.258-2.069-1.129h4.547zm-.155 3.094l.48-.337h.045l.396-.305 3.892-2.782-.87 2.756-12.519 7.402 8.517-6.643a.293.293 0 00.078-.026l-.02-.065zm-3.789 4.995l6.604-2.75-6.357 10.275-5.306-1.13-.078-4.15 5.137-2.245zm6.487 32.945h-.052l.123-.11-.071.11zm0-.376a.072.072 0 000 .072l-.156.207a.078.078 0 000 .09l-1.744-.096-9.665-16.626h.084l.071-.051 13.881.57-2.354 15.691-.117.143zm.227.13l.882-.791-.888.836.006-.045zm.493.428l5.637-5.306 11.831-10.45 5.456-3.328 2.594-.343c.03.004.06.004.09 0l9.887 8.037 9.638 11.364-45.133.026zm45.763-.292l-9.698-11.436a.078.078 0 00.046-.071v-.052l5.604-3.84 5.67 6.57.817 9.024-2.44-.195zm2.66.104l-.799-8.828 4.54 2.186-3.742 6.642zm4.092-7.31l-.298.525-4.606-2.231v-.046l-.759-9.944 8.147-5.585 6.669 1.447-9.153 15.834zm9.587-16.366l-.045-.046-4.197-2.88-4.95-5.837 3.925-3.536a.647.647 0 00.182-.291l1.167-4.01a.648.648 0 000-.388l-1.245-3.393.649-2.594a.653.653 0 000-.17l-.072-3.573a.649.649 0 00-.116-.35l-1.875-2.595 1.096-4.385a.65.65 0 000-.298l-.726-3.062a.649.649 0 00-.22-.344L82.8 27.295l-1.336-5.838a.65.65 0 00-.195-.33l-4.378-3.893a.65.65 0 00-.415-.155h-.123l-6.442 1.297-1.076-1.135-2.595-2.97a.647.647 0 00-.156-.13l-3.892-2.264h-.038l-8.336-4.094-2.264-1.07a.649.649 0 00-.272-.065h-.065l-3.645.364a.65.65 0 00-.253.084l-4.54 2.698-1.642.487-4.521-1.083h-.259l-4.67.875a.647.647 0 00-.435.312l-2.984 5.461a.65.65 0 000 .597l2.27 4.112h-1.797a.648.648 0 00-.434.176l-2.478 2.406a.649.649 0 00-.169.286l-1.239 4.592a.647.647 0 00.072.493l1.777 2.854-2.4 2.277a.649.649 0 00-.182.324l-1.096 5.326a.65.65 0 00.188.584l2.569 2.322-2.874 1.16a.649.649 0 00-.26.202l-1.68 2.186a.65.65 0 00-.129.408l.143 2.92a.64.64 0 00.214.44l2.264 1.947.11.077 4.125 2.245-8.847 6.914-3.14 1.628-2.945 1.473h-.03L3.218 48.117 28.69 4.067h50.894l25.447 44.076-11.67 20.199z" fill="#263238"/><path opacity=".05" d="M88.775 65.798L83.8 59.694l-5.858 5.254 10.833.85z" fill="#263238"/><path d="M21.435 100.695v4.281h3.862l2.93-4.275h2.34l-3.528 5.113 3.79 5.944h-2.4l-3.07-4.945H21.45v4.939h-2.06v-11.057h2.044zm23.71.045v11.057H43.08v-9.221h-4.94l-1.233 6.475a3.037 3.037 0 01-3.265 2.735h-1.117v-1.898h.983a1.286 1.286 0 00.943-.263 1.288 1.288 0 00.48-.853l1.535-8.06 8.679.028zm10.929.022l4.677 11.068h-2.137l-.782-1.747h-7.54l-.765 1.736h-2.155l4.879-11.069 3.823.012zm-4.995 7.507h5.96l-2.31-5.705h-1.256l-2.395 5.705zm19.032-7.479c1.998 0 3.377 1.116 3.35 2.868a2.28 2.28 0 01-.944 2.015 2.87 2.87 0 011.713 2.791c0 1.859-1.484 3.399-3.667 3.394h-7.557v-11.057l7.105-.011zm-5.023 9.209h5.442c1.16 0 1.763-.675 1.763-1.535a1.436 1.436 0 00-1.557-1.501H65.1l-.011 3.036zm0-4.822h5.202a1.208 1.208 0 001.222-1.256c0-.681-.357-1.301-1.518-1.301h-4.9l-.006 2.557zm19.112-4.365l4.676 11.069H86.74l-.76-1.742h-7.54l-.765 1.736h-2.182l4.861-11.051 3.846-.012zm-4.996 7.508h5.96l-2.31-5.705h-1.261l-2.39 5.705z" fill="#fff"/></svg>