<svg width="80" height="81" fill="none" xmlns="http://www.w3.org/2000/svg"><path d="M2.035 35.885l.862-.5-.862.5 18.091 31.226a2.024 2.024 0 001.752 1.009H58.06c.721 0 1.39-.384 1.752-1.01l18.091-31.225a2.017 2.017 0 000-2.023l-.865.502.865-.502-18.09-31.225a2.024 2.024 0 00-1.752-1.01H21.878c-.721 0-1.39.384-1.752 1.01L2.035 33.862l.861.5-.861-.5a2.017 2.017 0 000 2.023z" fill="#407BFF" stroke="#407BFF" stroke-width="2"/><path opacity=".2" d="M21.578 38.886l3.32-2.574.74-2.772-4.06 5.346zm-4.003-7.013l-.245 2.29-.935 1.325v-2.106l1.18-1.51zm14.045-2.861l-4.06.546 1.718-1.097 2.342.55zm-8.01 3.5l-3.12 2.264.547-2.111 2.573-.153zm8.013-15.73l4.273 1.093-2.718.986-1.555-2.079zM20.57 23.078l-2.695 5.583.82-3.866 1.874-1.717zM33.003 33.59l-7.364-.05 4.74 1.48 2.624-1.43zm-15.119-4.916l1.949 2.083 4.531.49-6.48-2.573z" fill="#fff"/><path opacity=".2" d="M33.577 29.975l-.574 3.615-2.625 1.43 3.199-5.045zm3.903-3.361l-1.769 2.967-2.134.394 3.902-3.36zm.054-2.731l-2.37-1.82.755 2.135 1.536 2.416.08-2.731zm-18.348-3.226L20.672 23l4.397 2.342-5.883-4.685zm2.708-8.587l1.976 3.615 7.337 4.06-9.313-7.675zm10.303 2.708l-5.152-3.569 1.041 1.953 4.111 1.616z" fill="#fff"/><path opacity=".2" d="M37.951 13.811l-9.864-.648 4.11 1.616 5.754-.968zm7.277 3.077l-7.277-3.078 3.666 4.328 3.611-1.25zm13.799-.944l-3.12-2.73-6.04 1.277 9.16 1.454z" fill="#fff"/><path opacity=".2" d="M60.04 20.291l-1.013-4.347-3.12-2.73 4.134 7.077z" fill="#fff"/><path opacity=".2" d="M62.828 28.257L60.04 20.29l3.152 2.472-.365 5.495zm1.508 4.578l-.546 1.954-4.865-1.435 5.411-.519zM49.347 50.376l.05 7.545-7.257-5.675 7.207-1.87zm7.129-3.334l-11.985.199 4.856 3.134 7.129-3.333zm-16.67 5.273l-3.55-.82-.43 3.24 3.98-2.42zM23.078 66.173l8.573-11.322 4.175-.116-12.748 11.438z" fill="#fff"/><path opacity=".2" d="M61.115 43l-11.767 7.374 7.128-3.332L61.115 43zM60.04 20.291l-9.771 3.722 8.758-8.069 1.013 4.347zm3.658 4.662l-.87 3.305-7.601 1.495 8.47-4.8zM49.18 14.097l-2.813 6.323-8.99-.777 7.902-2.68 3.902-2.866zM30.29 35.1l-6.79 5.466-8.744 3.745 15.535-9.212zm-9.68-11.943l-2.694 5.582.82-3.865 1.874-1.717z" fill="#fff"/><path opacity=".2" d="M24.98 25.42l-6.245-.546 1.875-1.717 4.37 2.263zm-1.144-9.874l-3.805 1.852 1.829-1.815 1.976-.037zM63.78 34.862l.158 5.31-7.49 6.8 7.333-12.11zM23.5 40.566l-8.49 13.531-.254-9.939 8.744-3.592zm8.04-15.85l1.481-1.407 2.81.861-4.291.546zM24.148 8.158l3.56 1.273 2.874-1.064-3.199-.894-3.235.685zm13.229 11.486l-.366-1.12-1.847 3.54 2.213-2.42z" fill="#fff"/><path opacity=".2" d="M24.898 36.313L23.42 40.59l-8.744 3.643 10.22-7.92zm-.463-4.884l5.855 3.67-4.606-1.48-1.25-2.19zm40.207 16.086l-3.82-4.49-4.3 4.017 8.12.473z" fill="#fff"/><path d="M77.057 34.474L58.897 3.04a.889.889 0 00-.768-.463H21.81a.89.89 0 00-.768.463L2.881 34.474a.889.889 0 000 .889l18.16 31.454a.89.89 0 00.769.463h36.32a.89.89 0 00.767-.463l18.16-31.454a.889.889 0 000-.889zm-62.21 19.77l-4.512-7.762.078-.037 4.36.926.126 6.809-.033.023a.055.055 0 00-.018.042zm-4.276-7.869l1.851-.925 2.19-1.135h.055l.056 2.95-4.152-.89zm7.003-14.48h.047a.042.042 0 00.027 0l3.07.77-.644 2.129-2.703-.648.203-2.227a.053.053 0 000-.023zM45.53 9.483l2.712 1.588a.056.056 0 000 .046l.885 2.824-.306.208-3.425.648-.084-5.277h.167a.056.056 0 00.055-.055s-.004.023-.004.018zM18.722 48.218l6.48 1.388a.56.56 0 00.038.176l-10.147 4.292 3.63-5.856zm-3.703 5.795l-.12-6.61 3.703.792-3.583 5.818zm9.175-28.653l.328.027.533.269.139.046 2.023 3.481a.462.462 0 00-.176.384v.12l-2.523 1.422a.22.22 0 00-.084-.033l-.213-.023-4.795-5.42.292-.611 4.476.338zm-4.402-.496l.712-1.495 3.736 1.889h-.037l-4.411-.394zM42.159 11.77l3.097 3.046-.111 1.902-.056.037-.097.033-6.587-2.815-.236-.287a.21.21 0 00-.033-.023l.57-4.356 3.453 2.463zm-3.291-2.477l6.332.227.056 5.138-3.028-2.976-3.36-2.389zM62.013 37.53l-2.8-3.846a.353.353 0 00.083-.153l4.355 1.282-1.638 2.717zm0 .2l1.777 2.439-3.37.204 1.593-2.644zm-.07-.098l-1.657 2.75-5.555.338a.43.43 0 00-.166-.185l4.166-6.814a.324.324 0 00.365.028l2.847 3.883zM36.738 41.46l6.416-8.49c.09.07.2.11.315.112a.52.52 0 00.116-.023l3.24 9.67a.532.532 0 00-.227.43c0 .14.055.275.153.375l-2.314 3.652-7.615-5.091a.532.532 0 00-.084-.635zm-10.457 8.147v-.041a.532.532 0 00-.06-.236l9.721-7.106c.052.056.115.1.185.13l-3.092 8.526-6.754-1.273zm6.717 1.39l-1.389 3.846-6.573-.273.671-4.467h.06a.533.533 0 00.51-.389l6.721 1.282zm2.815-9.143a.528.528 0 00.087.278l-9.72 7.105a.531.531 0 00-.223-.176l4.403-13.794a.223.223 0 00.106-.023l2.652-1.445a.222.222 0 00.112-.162l.546-3.476 1.851-.347.685 11.508a.537.537 0 00-.5.532zM25.166 21.67l5.555-1.948.11.06c.035.054.08.1.135.134l.107.065-1.357 3.916-4.555-1.88a.463.463 0 000-.342l.005-.005zm1.754-5.499l4.444.593a.436.436 0 00-.028.064l-.546 2.412-.412-.231-3.458-2.838zm2.916 2.546l-5.068-2.828 1.94.259 3.129 2.57zm.181-5.346l.981.694-1.944-.755.963.06zm-1.287-.2l-.407-.157.463-.463 1.027.708-1.083-.088zm1.5.213l.968.065.629.926-.366-.134-1.231-.857zm1.111.075l1.13.074-.269.986-.185-.075-.676-.986zm1.24.083l4.167.278-4.412.694.245-.972zm11.355 19.261a.528.528 0 00.075-.26.533.533 0 00-.2-.406l6.444-8.009 4.888 5.657-4.749 7.948-6.457-4.93zm6.402 5.027l-3.032 4.824a.527.527 0 00-.166-.033.537.537 0 00-.218.047l-3.24-9.638a.538.538 0 00.18-.139l6.476 4.94zm-6.619-5.758l-.088-.037 2.67-11.152a.536.536 0 00.279-.134l3.596 3.296-6.457 8.027zm-.2-.06h-.055a.528.528 0 00-.245.064l-5.476-7.934v-.25a.223.223 0 00-.088-.18l-2.148-1.648 1.972-2.166.366-.13 7.832.676a.532.532 0 00.505.463L43.52 32.012zm-9.78-2.315h-.107l-2.902-2.014.755-.425a.472.472 0 00.087.097l2.343 1.717a.464.464 0 00.264.088h.06a.463.463 0 00.291-.176l1.25-1.717a.464.464 0 00.079-.19l.375-2.24.99 1.56v.25l-.17.282-3.315 2.768zm3.129-2.504l-1.32 2.17-1.592.297 2.912-2.467zm-5.495 6.355l1.889-2.98-.463 2.855a.212.212 0 00-.055.065l-.13.074-1.24-.014zm1.042.12l-1.704.927.593-.926h1.11zm.139-2.189l.032-.055a.463.463 0 00.047-.334l-.463-1.819 1.161.806-.032.213-.745 1.19zm-1.019-6.763l4.227-.537.074.023v.051l.032.051-.463 2.727-1.25 1.717-2.314-1.69v-.037l-.306-2.305zm.12-.13l1.39-1.212 2.453.722-3.842.49zm1.575-1.721a.44.44 0 00-.301 0l-1.389-2.606 3.24 1.893c.06.032.127.051.195.055l.102.06.125.098.462 1.3-2.434-.8zm1.773-1.144l-3.704-2.17-.046-.024 4.374-1.537-.625 3.731zm-3.643-1.555l1.49 2.777h-.037l-1.63 1.39a.46.46 0 00-.092.115l-1.287-.533 1.352-3.902.204.153zm4.91 4.536l.07-.407a.463.463 0 00-.296-.495l-.264-.088-.43-1.232 1.953 1.496-.06 2.24-.972-1.514zm-.643-3.439l1.26-2.416.222.796-1.482 1.62zm1.884-1.852l-.995-3.54 4.722 2.212-3.727 1.328zm3.56-1.527l-4.596-2.157-.028-.107a.242.242 0 000-.041l1.481-1.482 3.143 3.787zm-2.527-3.736l6.29 2.68-3.143 1.098-3.147-3.778zm-2.171 1.329l-.7-1.037 2.075-.324-1.375 1.36zm-1.185-.959l.847 1.264.82 2.916-1.316 2.519.551-3.324a.463.463 0 00-.324-.505l-.213-.046-3.096-2.388 2.73-.436zm.463 3.301v.046l-2.5.88-1.389-1.768v-.042l3.889.884zm-2.597.958l-1.852.648.523-2.314 1.329 1.666zm-3.282 5.268l1.277.528a.465.465 0 000 .185l.352 2.352a.44.44 0 00.037.097l-.805.463-1.528-1.06-.055-.028-.135-.047.857-2.49zm1.074 4.296l-.95-.14.413-.23.537.37zm.338.62l-3.426.463 1.389-.787 2.037.324zm.384.06a.056.056 0 00.055-.055.056.056 0 00-.055-.056l-.463-.074.523.079.574 2.291-1.389 2.352h-.139l-2.953-1.445v-.027l-.204-2.518 4.05-.547zm-1.921 4.523H27.91l-1.144-.718.593-.426c.036.04.078.073.125.098l2.162 1.046zm-2.981-.792l-1.852-1.157-.208-.393 2.44-1.39.189 2.315a.463.463 0 00.056.176l-.625.45zm-.098.07l-.787.564-.856-1.601 1.643 1.037zm.102.064l1.028.644h-1.495l-.296-.107.763-.537zm1.208.76l1.269.796-2.606-.82 1.337.024zm.213 0h1.787l.718.351a.42.42 0 00.36 0l-.462.695-.19.102-.736-.232-1.477-.916zm7.67-3.847a.223.223 0 00.126-.093l1.754-2.888a.222.222 0 000-.042.208.208 0 00.028-.102v-.032l.065-2.315 5.397 7.805a.518.518 0 00-.06.768l-6.42 8.513a.528.528 0 00-.227-.083l-.662-11.531zm11.082 13.804a.54.54 0 00.297.102l1.152 3.448-3.703.06 2.255-3.61zm1.496 3.657l.889 2.647a.347.347 0 00-.176.14l-4.384-2.727 3.67-.06zm-1.084-3.579a.528.528 0 00.149-.976l3.036-4.81 3.592 2.745a.417.417 0 00.056.606l-3.027 5.86-2.63.042-1.175-3.467zm3.856 3.537l3.315-.056-3.986 2.472-.773.361 1.444-2.777zm3.528-.056h1.199l-4.565 2.116 3.366-2.116zm.185-.115l2.36-1.472-.777 1.296-.3.139-1.283.037zm2.56-1.607l2.314-1.435-3.018 2.62.704-1.185zm-.084-.078l-2.694 1.68-3.439.056 2.977-5.791a.426.426 0 00.488-.086.435.435 0 00.127-.308.403.403 0 000-.06l5.467-.32-2.925 4.829zm1.357-11.703l-4.19 6.847a.376.376 0 00-.374.055l-3.62-2.777 4.75-7.897 3.457 3.374a.329.329 0 000 .422l-.023-.023zm-3.472-3.98l-4.837-5.615 9.563-3.643-4.726 9.258zm-4.948-5.731l-3.593-3.291a.527.527 0 00.098-.297.533.533 0 00-.134-.347l2.569-5.582.069-.047.463.278a.221.221 0 00.18 0l.227-.074 4.606.731-4.485 8.629zm4.6-8.587l2.454.389.653 1.12-7.504 6.911 4.398-8.42zm-7.78 3.416l-.533 1.157a.528.528 0 00-.32-.115h-.027l-.829-2.694 3.662-2.56-1.953 4.212zM45.26 16.63l.088-1.726 3.24-.602-3.328 2.328zm.806 3.217a.532.532 0 00-.398.463l-7.555-.634 3.583-1.282 3.541-1.217.829 2.67zm-8.04-6.207a.227.227 0 00-.066 0l-.74.116-4.63-.31.899-3.3.07-.033a.462.462 0 00.254-.297.434.434 0 000-.092l4.758-.426-.546 4.342zm-5.528-.208l-1.236-.084-1.19-1.73 3.287-1.422-.86 3.236zm-1.388-.093l-1.037-.074-1.167-.8.861-.848a.46.46 0 00.167.037h.05l1.125 1.685zm-2.315-.926l-1.36-.926-.14-.277.301-1.269 2.037 1.616-.838.856zm-.079.079l-.495.482-.667-1.306 1.162.824zm-.75.88l4.166 1.615c.038.01.078.01.116 0h.079l2.99 2.315-3.434-.778h-.098a.427.427 0 00-.352.176l-4.68-.658-1.439-1.184 2.537-1.598a.223.223 0 00.11.098l.005.014zM26.546 16l-2.028-.26-.315-.175 1.028-.648L26.545 16zm-2.491-.495l-.162-.093.037-1.537 1.171.968-1.046.662zm6.48 4.166l-5.425 1.884a.533.533 0 00-.463-.269.51.51 0 00-.101 0l-.611-5.356 6.6 3.74zm-5.42 2.448l4.555 1.884-.857 2.477h-.05l-3.755-4.213a.534.534 0 00.107-.148zm3.763 4.852l1.329.925-.49.278-.464-.07h-.064a.462.462 0 00-.223.06l-1.67.954-1.954-3.36 3.536 1.213zm-4.629 4.536l1.134 2.083-.078.301-1.167 1.55v-2.883a.463.463 0 00-.463-.463h-.027l-1.241.106 1.588-.708.254.014zm-.824 1.055l-2.888 2.25.625-2.074.083-.037 2.18-.139zm.2 0h.027l.028 3.458-.028.042h-.046l-1.81.852h-.01l-1.272-1.935 3.11-2.416zm.235 3.972a.463.463 0 00.264-.412v-.514l1.093-1.435-.542 2.028-2.148 1.527.7-.925.633-.269zm.954.12l.176-.125a.222.222 0 00.088-.125l.68-2.545 4.166 1.31-5.781 3.425.671-1.94zm4.796-1.161l-6.018 4.86.556-1.606 5.462-3.254zm-6.212 4.967l-1.278.536-6.083 2.63-.536.222 8.457-5.018-.56 1.63zm.027.208a.056.056 0 00.033-.032l.027-.089 6.634-5.337.116.037-4.403 13.795a.496.496 0 00-.088 0 .532.532 0 00-.527.463l-6.44-1.39 4.597-7.429.051-.018zm1.889 9.202c.065.096.16.167.268.204l-.67 4.486-9.722-.403 10.124-4.287zm-.333 4.8l6.513.27-8.166 10.738 1.653-11.007zm6.652.27h.027l3.981-.112-8.165 7.332-.111.098-.033.032-3.879 3.476 8.18-10.827zm.06-.126L33.08 51l2.778.523a.344.344 0 000 .055.352.352 0 00.264.338l-.37 2.778-4.06.12zm4.527-2.884a.347.347 0 00.333-.287l3.083.713-3.763 2.291.347-2.717zm.329-.398a.347.347 0 00-.658-.116l-2.777-.523 3.143-8.508a.51.51 0 00.097 0 .532.532 0 00.43-.227l7.606 5.092-4.596 5.027-3.245-.745zm7.915-4.203l4.49 2.902-6.901 1.801-2.171.283 4.582-4.986zm-1.625 4.953l6.384 1.676.041 3.828-1.388-1.106-5.25-4.328.213-.07zm.223-.055l6.193-1.616v3.24l-6.193-1.624zm5.392-4.972l2.532-.042-1.425 2.778a.352.352 0 00-.227-.088l-.88-2.648zm.959 3.324h.055l3.898 4.513-3.93 2.694-.051-7.189.028-.018zm.166-.056l6.972-3.24.407 5.323-3.504 2.403-3.875-4.486zm7.407 2.222l.532 6.944-3.972-4.602 3.44-2.342zm-.301-5.407l6.073 1.315-5.694 3.916-.38-5.23zm0-.11l.18-.158 7.569.435-1.555 1.065-6.194-1.343zm7.915.3l.047.056 2.925 2.009-4.54-.986 1.569-1.079zm-7.614-.56l4.101-3.564 3.24 3.8.158.2-7.5-.436zm3.814-3.907l-.555.463-2.708 1.685 2.823-4.675 3.477-.213-3.056 2.75.019-.01zm1.296-5.411l1.593-2.648.175 5.069-1.768-2.421zm1.699-2.778l.926 2.528-.769 2.67-.157-5.198zm-.05-.12l-4.426-1.3a.32.32 0 000-.042l4.944-.463-.519 1.805zm-4.472-1.454l-.024-.037 5.032-2.879.051 2.435-5.06.481zm-.107-.115a.32.32 0 00-.393 0l-3.44-3.356 7.49-1.477 1.389 1.94-5.046 2.893zm3.578-4.935l-7.212 1.407 6.42-3.638.792 2.231zm-.68-2.277l.875-.514-.172 2.546-.703-2.032zm1-.565l.537-.305-.69 2.62.153-2.315zm0-.134l.143-2.143.435 1.819-.578.324zm-.116.065l-.926.527-1.86-5.388 2.976 2.315-.19 2.546zm-1.028.583l-6.578 3.726 4.671-9.18 1.907 5.454zm-11.415-2.05l7.5-6.898 1.939 3.314-9.439 3.583zm7.587-6.99l.889-.82.926 3.893-1.815-3.074zm-.056-.098l-.597-1.018 1.454.231-.857.787zm-.652-1.13l-1.255-2.147 2.722 2.38-1.467-.232zm-.144 0l-2.314-.37.995-1.907 1.32 2.278zm-2.44-.388l-4.424-.704.666-.213 4.759-1.004-1 1.92zm-4.93-1.01l-.499-.3a.217.217 0 00-.125-.033l-.847-2.703 1.764 2.004.657.69-.95.343zM38.707 9.178l-.709-3.407 1.547.75 5.888 2.916-6.726-.26zm-.111 0l-4.754.426a.473.473 0 00-.028-.06l4.083-3.727.699 3.36zm-4.82.264l-1.332-1.704L35.35 6.01l2.49-.25-4.064 3.68zm-.388.217a.05.05 0 00-.023.046l-3.44 1.49-2.198-1.721 4.31-1.523 1.351 1.708zm-5.81-.602a.463.463 0 00-.152.098.216.216 0 00-.12.138l-3.157-1.13 3.24-.605 2.657.629-2.467.87zm-.305.347l-.44 1.783a.221.221 0 000 .152l.926 1.824-2.574 1.62-1.268-1.046.134-5.476 3.222 1.143zm-3.425 4.25l-1.93-1.593 2.06-3.767-.13 5.36zm0 .143l-.037 1.565-.125-.07-1.62-2.962 1.782 1.467zm-.362 1.894l-3.194 1.597 1.579-1.579 1.217-.023h.403l-.005.005zm.116.065l.213.12.63 5.48a.538.538 0 00-.185.13l-4.231-3.902v-.056l3.573-1.773zm.597 5.8a.541.541 0 00.458.833.529.529 0 00.26-.074l3.634 4.073-3.333-1.13-.62-.31-5.393-4.318.791-2.94 4.203 3.866zm-.088 3.115l-3.434-1.727-1.287-2.032 4.721 3.759zm-4.453.157l-.847-.032 1.57-1.44-.723 1.472zm-.078.162l-.255.533-.523-.588.778.055zm-.306.64l-1.338 2.809.723-3.504.615.694zm.079.087l4.703 5.319-.232-.028-5.864-2.314 1.393-2.977zm4.04 5.212l-3.378-.398h-.028l-1.852-1.699 5.259 2.097zm-3.43.047l3.81.463-1.68.763-.926.06a.463.463 0 00-.389.301l-2.98-.745 2.092-.852a.232.232 0 00.083.038l-.01-.028zM17.25 34.14l-.82 1.3-.096-1.985 1.134-1.477-.218 2.162zm-.777 1.421l.856-1.338 2.726.658a.435.435 0 00.06.277l1.125 1.7h-3.314l-1.458-1.274.005-.023zm4.841 1.389l.13.194a.463.463 0 00.551.162l.954-.426-.746 1.084-.967.69-1.69-.899-1.476-.805h3.244zm-.11 2.208l.342-.24h.032l.283-.218 2.777-1.986-.62 1.967-8.934 5.282 6.078-4.74a.208.208 0 00.055-.019l-.014-.046zM18.5 42.723l4.712-1.963-4.536 7.333-3.787-.806-.055-2.962 3.666-1.602zm4.63 23.51h-.038l.088-.078-.05.079zm0-.268a.051.051 0 000 .051l-.112.148a.055.055 0 000 .065l-1.245-.07-6.897-11.863h.06l.05-.037 9.907.407-1.68 11.198-.084.101zm.161.093l.63-.565-.634.597.004-.032zm.352.305l4.023-3.786 8.443-7.457 3.893-2.375 1.851-.245a.213.213 0 00.065 0l7.055 5.735 6.879 8.11-32.21.019zm32.658-.208l-6.92-8.16a.056.056 0 00.032-.05v-.039l4-2.74 4.045 4.69.583 6.438-1.74-.139zm1.898.074l-.57-6.3 3.24 1.56-2.67 4.74zm2.92-5.217l-.212.375-3.287-1.592v-.032l-.542-7.097 5.814-3.985 4.759 1.032-6.532 11.3zm6.842-11.679l-.032-.032-2.995-2.055-3.532-4.166 2.8-2.523a.464.464 0 00.13-.209l.833-2.86a.463.463 0 000-.278l-.889-2.421.463-1.852a.458.458 0 000-.12l-.05-2.55a.463.463 0 00-.084-.25l-1.338-1.852.783-3.13a.464.464 0 000-.212l-.519-2.185a.463.463 0 00-.157-.246l-2.949-2.351-.953-4.166a.462.462 0 00-.14-.236l-3.124-2.778a.462.462 0 00-.296-.11h-.088l-4.597.925-.768-.81-1.852-2.12a.464.464 0 00-.11-.093l-2.778-1.615h-.028l-5.948-2.921-1.616-.764a.463.463 0 00-.194-.046h-.047l-2.601.259a.462.462 0 00-.18.06l-3.241 1.926-1.171.347-3.227-.773h-.185l-3.333.625a.463.463 0 00-.31.222l-2.13 3.898a.463.463 0 000 .426l1.621 2.934h-1.282a.463.463 0 00-.31.125l-1.769 1.718a.463.463 0 00-.12.203l-.884 3.278a.462.462 0 00.05.352l1.27 2.036-1.713 1.625a.463.463 0 00-.13.232l-.782 3.8a.464.464 0 00.134.417l1.833 1.657-2.05.828a.463.463 0 00-.186.144l-1.199 1.56a.463.463 0 00-.092.291L16 35.582c.008.12.063.233.153.314l1.616 1.389.078.056 2.944 1.601-6.314 4.935-2.24 1.162-2.102 1.05h-.023L3.632 34.9 21.81 3.464h36.32L76.288 34.92 67.96 49.333z" fill="#fff"/><path opacity=".05" d="M64.688 47.519l-3.551-4.356-4.18 3.75 7.73.606z" fill="#fff"/><path d="M16.632 72.421v3.055h2.756l2.091-3.05h1.67l-2.518 3.648 2.704 4.242h-1.712l-2.191-3.53h-2.788v3.526h-1.47v-7.89h1.458zm16.921.033v7.89h-1.474v-6.58h-3.525l-.88 4.62a2.167 2.167 0 01-2.33 1.952h-.797v-1.354h.7a.91.91 0 001.017-.797l1.095-5.751 6.194.02zm7.798.016l3.338 7.898h-1.525l-.558-1.247h-5.381l-.546 1.24h-1.537l3.48-7.9 2.73.008zm-3.565 5.357h4.255l-1.65-4.071h-.896l-1.709 4.07zm13.584-5.338c1.425 0 2.41.796 2.39 2.047a1.626 1.626 0 01-.674 1.438 2.048 2.048 0 011.223 1.992c0 1.326-1.06 2.425-2.617 2.421h-5.393v-7.89l5.07-.008zm-3.585 6.572h3.883c.829 0 1.259-.482 1.259-1.095a1.023 1.023 0 00-1.111-1.072h-4.024l-.007 2.167zm0-3.442h3.712a.86.86 0 00.872-.896c0-.486-.255-.928-1.083-.928h-3.498l-.003 1.825zm13.638-3.114l3.338 7.899h-1.526l-.542-1.243h-5.38l-.547 1.239H55.21l3.47-7.887 2.744-.008zm-3.565 5.358h4.254l-1.65-4.071h-.9l-1.704 4.07z" fill="#407BFF"/></svg>