<svg width="36" height="25" fill="none" xmlns="http://www.w3.org/2000/svg"><path d="M35.93 4.07a4.055 4.055 0 00-1.14-2.829 3.87 3.87 0 00-2.787-1.19H3.926C1.761.05 0 1.854 0 4.07v16.858c0 1.067.408 2.036 1.073 2.757l.004.006a3.868 3.868 0 002.849 1.257h28.078a3.862 3.862 0 002.667-1.074 1.064 1.064 0 00.286-.302 4.057 4.057 0 00.973-2.644V4.07zM3.926 2.206h28.078l.059.002-13.446 10.358c-.388.291-.91.291-1.299 0L3.873 2.208l.053-.002zM2.106 20.93V4.07c0-.166.021-.326.061-.48l10.732 8.268-10.751 9.47a1.908 1.908 0 01-.042-.399zm29.897 1.864H3.926c-.068 0-.135-.004-.201-.011l10.896-9.597 1.436 1.106.008.006c.57.43 1.236.646 1.903.646a3.15 3.15 0 001.903-.646l1.451-1.118 10.9 9.6a1.805 1.805 0 01-.219.014zm1.821-1.864c0 .132-.013.26-.039.384l-10.74-9.46 10.719-8.258c.04.151.06.31.06.475v16.86z" fill="#fff"/></svg>