<svg width="32" height="32" fill="none" xmlns="http://www.w3.org/2000/svg"><path d="M25.25 20.054h0l4.356 3.044-.057.082.057-.082c1.289.9 1.824 2.527 1.295 3.957h0a6.157 6.157 0 01-.546 1.122l-.002.004h0l-.424.605-.003.004h0c-.14.18-.27.323-.406.46-.747.747-1.692 1.276-2.805 1.573h0a8.685 8.685 0 01-2.237.277h0c-4.647 0-10.6-3.087-15.544-8.031-2.946-2.946-5.2-6.202-6.56-9.314-1.359-3.11-1.83-6.086-1.195-8.467h0c.298-1.113.827-2.057 1.574-2.804l22.497 17.57zm0 0a3.451 3.451 0 00-1.983-.625m1.983.625l-1.983-.625M3.845 3.576h0c-.55.55-.946 1.26-1.174 2.111-.55 2.06-.08 4.766 1.218 7.647 1.297 2.879 3.413 5.92 6.137 8.643 4.684 4.683 10.224 7.578 14.452 7.578.664 0 1.283-.076 1.838-.224.852-.227 1.561-.623 2.111-1.173.092-.093.18-.187.259-.289l.381-.543a4.63 4.63 0 00.385-.807c.283-.765-.013-1.654-.731-2.156 0 0 0 0 0 0l-4.355-3.042c-.84-.586-2.088-.361-2.67.474h0l-1.384 1.983L3.845 3.576zm0 0a3.44 3.44 0 01.262-.24l.54-.38c.25-.156.53-.292.836-.405.19-.07.39-.106.594-.106.61 0 1.195.311 1.562.836 0 0 0 0 0 0l3.042 4.355s0 0 0 0a1.913 1.913 0 01-.473 2.671h0M3.845 3.576l6.363 6.731m0 0l-1.983 1.384h0m1.983-1.384l-1.983 1.384m0 0a.773.773 0 00-.212 1.044h0m.212-1.044l-.212 1.044m0 0c1.205 1.917 3.008 4.11 5.076 6.178m-5.076-6.178l5.076 6.178m6.178 5.077h0c-1.916-1.205-4.11-3.008-6.178-5.077 0 0 0 0 0 0m6.178 5.077l-6.107-5.147-.07.07m6.177 5.077a.774.774 0 001.045-.212l-1.045.212zm4-4.56a3.46 3.46 0 00-2.838 1.482l2.838-1.483zM3.187 2.095c-.155.12-.298.252-.434.388l17.676 18.428-.955 1.368c-1.668-1.128-3.522-2.689-5.293-4.459-1.77-1.77-3.33-3.625-4.458-5.292l1.368-.955a3.435 3.435 0 001.43-2.232h0a3.449 3.449 0 00-.573-2.59h0L8.906 2.398h0A3.466 3.466 0 006.076.9c-.387 0-.767.068-1.128.202h0a6.18 6.18 0 00-1.152.565h0l-.004.003-.602.424h0l-.004.002z" fill="#fff" stroke="#fff" stroke-width=".2"/></svg>