<svg width="31" height="30" viewBox="0 0 31 30" fill="none" xmlns="http://www.w3.org/2000/svg">
<path d="M28.5487 22.1796L24.1927 19.1361C23.6231 18.7388 22.9572 18.5294 22.2668 18.5294C21.1689 18.5294 20.1383 19.0678 19.5106 19.9687L18.4994 21.4179C16.8046 20.2813 14.9135 18.6942 13.1108 16.8917C11.3083 15.0893 9.72159 13.1982 8.5853 11.5035L10.0338 10.4923C10.7722 9.97811 11.2653 9.20789 11.4219 8.32407C11.5782 7.4409 11.3812 6.54855 10.8664 5.80984L7.82361 1.45377C7.18734 0.543688 6.1607 0 5.07694 0C4.70135 0 4.33298 0.0663194 3.98234 0.195675C3.5841 0.34276 3.2131 0.523332 2.84933 0.751839L2.24786 1.17536C2.09749 1.29224 1.95763 1.42029 1.82368 1.55424C1.0899 2.28769 0.56919 3.21616 0.275349 4.31404C-0.978481 9.01418 2.1277 16.1215 8.00451 21.9983C12.9397 26.9335 18.8687 29.9993 23.4773 30H23.4776C24.2669 30 25.0108 29.9081 25.6891 29.7268C26.787 29.4333 27.7155 28.9126 28.4496 28.1785C28.5829 28.0452 28.7103 27.9054 28.8469 27.7287L29.2707 27.124C29.4779 26.793 29.6581 26.422 29.8072 26.0208C30.3197 24.6354 29.8023 23.0555 28.5487 22.1796ZM28.5461 25.554C28.4292 25.8685 28.2897 26.1568 28.1505 26.3807L27.7664 26.929C27.6833 27.036 27.592 27.1338 27.4981 27.2284C26.9338 27.7924 26.2082 28.1962 25.3421 28.428C24.7771 28.5784 24.15 28.6552 23.4776 28.6552C19.2122 28.6546 13.6476 25.7398 8.95531 21.0475C3.49315 15.5851 0.45822 8.84674 1.57449 4.6614C1.80628 3.79465 2.2101 3.06908 2.77447 2.50503C2.86903 2.41048 2.96687 2.31921 3.04697 2.25617L3.5923 1.87205C3.84806 1.71183 4.13599 1.57262 4.44855 1.45706C4.6498 1.38286 4.86124 1.34477 5.07694 1.34477C5.72175 1.34477 6.33635 1.67374 6.72113 2.224L9.76362 6.57875C10.0729 7.02329 10.1917 7.5591 10.0978 8.08899C10.0039 8.61889 9.70846 9.0805 9.26491 9.38912L7.28222 10.7726C6.98805 10.9782 6.90663 11.378 7.09771 11.6821C8.2977 13.5909 10.0955 15.7788 12.16 17.8425C14.2244 19.907 16.4123 21.7048 18.3205 22.9051C18.6245 23.0949 19.025 23.0141 19.2296 22.7206L20.6134 20.7376C21.2274 19.8571 22.5377 19.6213 23.4234 20.2386L27.7782 23.2814C28.5307 23.8073 28.8462 24.7424 28.5461 25.554Z" fill="white"/>
<path d="M28.5487 22.1796L24.1927 19.1361C23.6231 18.7388 22.9572 18.5294 22.2668 18.5294C21.1689 18.5294 20.1383 19.0678 19.5106 19.9687L18.4994 21.4179C16.8046 20.2813 14.9135 18.6942 13.1108 16.8917C11.3083 15.0893 9.72159 13.1982 8.5853 11.5035L10.0338 10.4923C10.7722 9.97811 11.2653 9.20789 11.4219 8.32407C11.5782 7.4409 11.3812 6.54855 10.8664 5.80984L7.82361 1.45377C7.18734 0.543688 6.1607 0 5.07694 0C4.70135 0 4.33298 0.0663194 3.98234 0.195675C3.5841 0.34276 3.2131 0.523332 2.84933 0.751839L2.24786 1.17536C2.09749 1.29224 1.95763 1.42029 1.82368 1.55424C1.0899 2.28769 0.56919 3.21616 0.275349 4.31404C-0.978481 9.01418 2.1277 16.1215 8.00451 21.9983C12.9397 26.9335 18.8687 29.9993 23.4773 30H23.4776C24.2669 30 25.0108 29.9081 25.6891 29.7268C26.787 29.4333 27.7155 28.9126 28.4496 28.1785C28.5829 28.0452 28.7103 27.9054 28.8469 27.7287L29.2707 27.124C29.4779 26.793 29.6581 26.422 29.8072 26.0208C30.3197 24.6354 29.8023 23.0555 28.5487 22.1796ZM28.5461 25.554C28.4292 25.8685 28.2897 26.1568 28.1505 26.3807L27.7664 26.929C27.6833 27.036 27.592 27.1338 27.4981 27.2284C26.9338 27.7924 26.2082 28.1962 25.3421 28.428C24.7771 28.5784 24.15 28.6552 23.4776 28.6552C19.2122 28.6546 13.6476 25.7398 8.95531 21.0475C3.49315 15.5851 0.45822 8.84674 1.57449 4.6614C1.80628 3.79465 2.2101 3.06908 2.77447 2.50503C2.86903 2.41048 2.96687 2.31921 3.04697 2.25617L3.5923 1.87205C3.84806 1.71183 4.13599 1.57262 4.44855 1.45706C4.6498 1.38286 4.86124 1.34477 5.07694 1.34477C5.72175 1.34477 6.33635 1.67374 6.72113 2.224L9.76362 6.57875C10.0729 7.02329 10.1917 7.5591 10.0978 8.08899C10.0039 8.61889 9.70846 9.0805 9.26491 9.38912L7.28222 10.7726C6.98805 10.9782 6.90663 11.378 7.09771 11.6821C8.2977 13.5909 10.0955 15.7788 12.16 17.8425C14.2244 19.907 16.4123 21.7048 18.3205 22.9051C18.6245 23.0949 19.025 23.0141 19.2296 22.7206L20.6134 20.7376C21.2274 19.8571 22.5377 19.6213 23.4234 20.2386L27.7782 23.2814C28.5307 23.8073 28.8462 24.7424 28.5461 25.554Z" stroke="white"/>
</svg>
