<svg width="33" height="33" fill="none" xmlns="http://www.w3.org/2000/svg"><path d="M32.45 9.9h-5.049a1.656 1.656 0 00-1.551-1.1h-1.1a1.656 1.656 0 00-1.551 1.1h-.649a9.356 9.356 0 00-9.328 8.894A1.646 1.646 0 0012.1 20.35v1.1a1.656 1.656 0 001.1 1.551v.649a2.75 2.75 0 11-5.5 0V4.301A1.656 1.656 0 008.8 2.75v-1.1A1.655 1.655 0 007.15 0h-5.5A1.655 1.655 0 000 1.65v1.1a1.656 1.656 0 001.1 1.551V23.65a9.35 9.35 0 1018.7 0v-.649a1.656 1.656 0 001.1-1.551v-1.1a1.65 1.65 0 00-1.056-1.535A2.745 2.745 0 0122.55 16.5h.649a1.656 1.656 0 001.551 1.1h1.1a1.656 1.656 0 001.551-1.1h5.049a.55.55 0 00.55-.55v-5.5a.55.55 0 00-.55-.55zM1.1 2.75v-1.1a.55.55 0 01.55-.55h5.5a.55.55 0 01.55.55v1.1a.55.55 0 01-.55.55h-5.5a.55.55 0 01-.55-.55zm17.6 20.9a8.25 8.25 0 11-16.5 0V4.4h4.4v19.25a3.85 3.85 0 007.7 0v-.55h4.4v.55zm1.1-2.2a.55.55 0 01-.55.55h-5.5a.55.55 0 01-.55-.55v-1.1a.55.55 0 01.55-.55h5.5a.55.55 0 01.55.55v1.1zm3.3-6.05h-.55a3.85 3.85 0 00-3.806 3.3h-4.416A8.258 8.258 0 0122.55 11h.55v4.4zm3.3.55a.55.55 0 01-.55.55h-1.1a.55.55 0 01-.55-.55v-5.5a.55.55 0 01.55-.55h1.1a.55.55 0 01.55.55v5.5zm5.5-.55h-4.4V11h4.4v4.4z" fill="#D7D7D7"/><path d="M6.496 29.608A7.118 7.118 0 0010.45 30.8v-1.1a6.024 6.024 0 01-3.345-1.008l-.609.916zm4.963.009l.181 1.084c.406-.067.805-.17 1.193-.308l-.366-1.037a6.103 6.103 0 01-1.008.26z" fill="#D7D7D7"/></svg>