<svg width="58" height="58" fill="none" xmlns="http://www.w3.org/2000/svg"><path d="M57.033 17.4H48.16a2.91 2.91 0 00-2.726-1.933H43.5a2.91 2.91 0 00-2.726 1.933h-1.14a16.444 16.444 0 00-16.395 15.631 2.893 2.893 0 00-1.972 2.736V37.7a2.909 2.909 0 001.933 2.726v1.14a4.833 4.833 0 11-9.667 0V7.56a2.91 2.91 0 001.934-2.726V2.9a2.909 2.909 0 00-2.9-2.9H2.9A2.909 2.909 0 000 2.9v1.933A2.91 2.91 0 001.933 7.56v34.008a16.433 16.433 0 0032.867 0v-1.141a2.91 2.91 0 001.933-2.726v-1.933a2.9 2.9 0 00-1.856-2.697A4.825 4.825 0 0139.633 29h1.141a2.91 2.91 0 002.726 1.933h1.933A2.91 2.91 0 0048.16 29h8.874a.967.967 0 00.967-.967v-9.666a.967.967 0 00-.967-.967zM1.933 4.833V2.9a.967.967 0 01.967-.967h9.667a.967.967 0 01.966.967v1.933a.967.967 0 01-.966.967H2.9a.967.967 0 01-.967-.967zm30.934 36.734a14.5 14.5 0 01-29 0V7.733H11.6v33.834a6.767 6.767 0 0013.533 0V40.6h7.734v.967zM34.8 37.7a.966.966 0 01-.967.967h-9.666a.967.967 0 01-.967-.967v-1.933a.967.967 0 01.967-.967h9.666a.967.967 0 01.967.967V37.7zm5.8-10.633h-.967a6.767 6.767 0 00-6.689 5.8h-7.762a14.515 14.515 0 0114.451-13.534h.967v7.734zm5.8.966a.967.967 0 01-.967.967H43.5a.966.966 0 01-.967-.967v-9.666a.967.967 0 01.967-.967h1.933a.967.967 0 01.967.967v9.666zm9.667-.966h-7.734v-7.734h7.734v7.734z" fill="#115AD4"/><path d="M11.418 52.039a12.512 12.512 0 006.949 2.094V52.2a10.586 10.586 0 01-5.88-1.772l-1.07 1.61zm8.722.014l.32 1.906a12.41 12.41 0 002.095-.541l-.643-1.822c-.577.202-1.17.355-1.771.457z" fill="#115AD4"/></svg>