<svg width="56" height="58" fill="none" xmlns="http://www.w3.org/2000/svg"><mask id="a" maskUnits="userSpaceOnUse" x="0" y="0" width="56" height="58" fill="#000"><path fill="#fff" d="M0 0h56v58H0z"/><path d="M44.2 18.265h-9v-.907a2.71 2.71 0 00-2.7-2.72h-2.7V9.754c.133-.15.253-.31.36-.48l9.383 1.719.157.015a3.595 3.595 0 003.29-2.149 3.646 3.646 0 00-.615-3.901 3.577 3.577 0 00-3.787-1.017l-7.97 1.46a3.642 3.642 0 00-1.5-3.778 3.576 3.576 0 00-4.036 0 3.642 3.642 0 00-1.5 3.778l-7.97-1.46a3.577 3.577 0 00-3.787 1.017 3.646 3.646 0 00-.615 3.901 3.595 3.595 0 003.29 2.15h.08l9.46-1.734c.107.17.227.33.36.48v4.881h-1.8a2.71 2.71 0 00-2.7 2.721v.907H6.4V11.01H2.8V4.66H1v41.723h1.8v-7.256h3.6v-8.163h14.29a8.926 8.926 0 006.41 2.721 8.926 8.926 0 006.41-2.721h8.72c1.088 0 1.97.889 1.97 1.985v8.9h4.236l-2.742 10.096a3.715 3.715 0 00.18 3.253c.505.919 1.459 2.133 2.49 2.277.16.02.323.032.484.032.163 0 2.326-.011 2.488-.032 1.032-.145 1.888-1.36 2.392-2.28a3.712 3.712 0 00.18-3.252l-2.742-10.095H55V29.15c-.007-6.009-4.838-10.878-10.8-10.884zm7.96 36.037c-.226.424-.588 1.304-1.06 1.374-.165.022-2.33.022-2.495 0-.473-.07-.935-.949-1.162-1.373a1.877 1.877 0 01-.09-1.644l2.453-8.416 2.453 8.417c.222.533.186 1.14-.099 1.642zM25.3 7.382c0-1.003.806-1.815 1.8-1.815s1.8.812 1.8 1.814a1.807 1.807 0 01-1.8 1.814c-.994 0-1.8-.812-1.8-1.814zm5.4-.15l8.274-1.518.136-.036a1.807 1.807 0 012.427 1.666 1.808 1.808 0 01-1.764 1.851L30.7 7.531v-.3zm-3.6-4.386a1.8 1.8 0 011.742 1.38 3.448 3.448 0 00-3.484 0 1.802 1.802 0 011.742-1.38zm-3.6 4.685l-9.073 1.664a1.808 1.808 0 01-1.763-1.85 1.807 1.807 0 012.426-1.667l8.41 1.553v.3zm2.7 3.35a3.206 3.206 0 001.8 0v3.756h-1.8V10.88zM4.6 37.312H2.8v-24.49h1.8v24.49zm48.6 2.721H46V32.95c-.003-2.098-1.688-3.797-3.77-3.8h-9.51l-.27.302a7.14 7.14 0 01-5.352 2.42 7.141 7.141 0 01-5.351-2.42l-.27-.301H6.4v-9.07h15.3V17.36c0-.501.403-.908.9-.908h9.9c.497 0 .9.407.9.907v2.722h10.8c4.968.005 8.995 4.063 9 9.07v10.884z"/></mask><path d="M44.2 18.265h-9v-.907a2.71 2.71 0 00-2.7-2.72h-2.7V9.754c.133-.15.253-.31.36-.48l9.383 1.719.157.015a3.595 3.595 0 003.29-2.149 3.646 3.646 0 00-.615-3.901 3.577 3.577 0 00-3.787-1.017l-7.97 1.46a3.642 3.642 0 00-1.5-3.778 3.576 3.576 0 00-4.036 0 3.642 3.642 0 00-1.5 3.778l-7.97-1.46a3.577 3.577 0 00-3.787 1.017 3.646 3.646 0 00-.615 3.901 3.595 3.595 0 003.29 2.15h.08l9.46-1.734c.107.17.227.33.36.48v4.881h-1.8a2.71 2.71 0 00-2.7 2.721v.907H6.4V11.01H2.8V4.66H1v41.723h1.8v-7.256h3.6v-8.163h14.29a8.926 8.926 0 006.41 2.721 8.926 8.926 0 006.41-2.721h8.72c1.088 0 1.97.889 1.97 1.985v8.9h4.236l-2.742 10.096a3.715 3.715 0 00.18 3.253c.505.919 1.459 2.133 2.49 2.277.16.02.323.032.484.032.163 0 2.326-.011 2.488-.032 1.032-.145 1.888-1.36 2.392-2.28a3.712 3.712 0 00.18-3.252l-2.742-10.095H55V29.15c-.007-6.009-4.838-10.878-10.8-10.884zm7.96 36.037c-.226.424-.588 1.304-1.06 1.374-.165.022-2.33.022-2.495 0-.473-.07-.935-.949-1.162-1.373a1.877 1.877 0 01-.09-1.644l2.453-8.416 2.453 8.417c.222.533.186 1.14-.099 1.642zM25.3 7.382c0-1.003.806-1.815 1.8-1.815s1.8.812 1.8 1.814a1.807 1.807 0 01-1.8 1.814c-.994 0-1.8-.812-1.8-1.814zm5.4-.15l8.274-1.518.136-.036a1.807 1.807 0 012.427 1.666 1.808 1.808 0 01-1.764 1.851L30.7 7.531v-.3zm-3.6-4.386a1.8 1.8 0 011.742 1.38 3.448 3.448 0 00-3.484 0 1.802 1.802 0 011.742-1.38zm-3.6 4.685l-9.073 1.664a1.808 1.808 0 01-1.763-1.85 1.807 1.807 0 012.426-1.667l8.41 1.553v.3zm2.7 3.35a3.206 3.206 0 001.8 0v3.756h-1.8V10.88zM4.6 37.312H2.8v-24.49h1.8v24.49zm48.6 2.721H46V32.95c-.003-2.098-1.688-3.797-3.77-3.8h-9.51l-.27.302a7.14 7.14 0 01-5.352 2.42 7.141 7.141 0 01-5.351-2.42l-.27-.301H6.4v-9.07h15.3V17.36c0-.501.403-.908.9-.908h9.9c.497 0 .9.407.9.907v2.722h10.8c4.968.005 8.995 4.063 9 9.07v10.884z" fill="#115AD4"/><path d="M44.2 18.265h-9v-.907a2.71 2.71 0 00-2.7-2.72h-2.7V9.754c.133-.15.253-.31.36-.48l9.383 1.719.157.015a3.595 3.595 0 003.29-2.149 3.646 3.646 0 00-.615-3.901 3.577 3.577 0 00-3.787-1.017l-7.97 1.46a3.642 3.642 0 00-1.5-3.778 3.576 3.576 0 00-4.036 0 3.642 3.642 0 00-1.5 3.778l-7.97-1.46a3.577 3.577 0 00-3.787 1.017 3.646 3.646 0 00-.615 3.901 3.595 3.595 0 003.29 2.15h.08l9.46-1.734c.107.17.227.33.36.48v4.881h-1.8a2.71 2.71 0 00-2.7 2.721v.907H6.4V11.01H2.8V4.66H1v41.723h1.8v-7.256h3.6v-8.163h14.29a8.926 8.926 0 006.41 2.721 8.926 8.926 0 006.41-2.721h8.72c1.088 0 1.97.889 1.97 1.985v8.9h4.236l-2.742 10.096a3.715 3.715 0 00.18 3.253c.505.919 1.459 2.133 2.49 2.277.16.02.323.032.484.032.163 0 2.326-.011 2.488-.032 1.032-.145 1.888-1.36 2.392-2.28a3.712 3.712 0 00.18-3.252l-2.742-10.095H55V29.15c-.007-6.009-4.838-10.878-10.8-10.884zm7.96 36.037c-.226.424-.588 1.304-1.06 1.374-.165.022-2.33.022-2.495 0-.473-.07-.935-.949-1.162-1.373a1.877 1.877 0 01-.09-1.644l2.453-8.416 2.453 8.417c.222.533.186 1.14-.099 1.642zM25.3 7.382c0-1.003.806-1.815 1.8-1.815s1.8.812 1.8 1.814a1.807 1.807 0 01-1.8 1.814c-.994 0-1.8-.812-1.8-1.814zm5.4-.15l8.274-1.518.136-.036a1.807 1.807 0 012.427 1.666 1.808 1.808 0 01-1.764 1.851L30.7 7.531v-.3zm-3.6-4.386a1.8 1.8 0 011.742 1.38 3.448 3.448 0 00-3.484 0 1.802 1.802 0 011.742-1.38zm-3.6 4.685l-9.073 1.664a1.808 1.808 0 01-1.763-1.85 1.807 1.807 0 012.426-1.667l8.41 1.553v.3zm2.7 3.35a3.206 3.206 0 001.8 0v3.756h-1.8V10.88zM4.6 37.312H2.8v-24.49h1.8v24.49zm48.6 2.721H46V32.95c-.003-2.098-1.688-3.797-3.77-3.8h-9.51l-.27.302a7.14 7.14 0 01-5.352 2.42 7.141 7.141 0 01-5.351-2.42l-.27-.301H6.4v-9.07h15.3V17.36c0-.501.403-.908.9-.908h9.9c.497 0 .9.407.9.907v2.722h10.8c4.968.005 8.995 4.063 9 9.07v10.884z" stroke="#115AD4" stroke-width=".2" mask="url(#a)"/><path d="M8.2 25.38h-.05v1.913h11.8V25.38H8.2zm26.1 0h-.05v1.913h7.3V25.38H34.3z" fill="#115AD4" stroke="#115AD4" stroke-width=".1"/></svg>