<svg width="34" height="36" fill="none" xmlns="http://www.w3.org/2000/svg"><mask id="a" maskUnits="userSpaceOnUse" x="0" y="0" width="34" height="36" fill="#000"><path fill="#fff" d="M0 0h34v36H0z"/><path d="M26.6 11.389h-5.333v-.546c0-.905-.717-1.637-1.6-1.637h-1.6V6.268c.078-.09.15-.186.213-.288l5.56 1.033.093.01a2.13 2.13 0 001.95-1.293 2.22 2.22 0 00-.364-2.348 2.098 2.098 0 00-2.245-.612l-4.723.879a2.207 2.207 0 00-.888-2.273 2.091 2.091 0 00-2.392 0c-.723.5-1.075 1.4-.889 2.273L9.66 2.77a2.099 2.099 0 00-2.244.612A2.22 2.22 0 007.05 5.73 2.13 2.13 0 009 7.023h.048l5.605-1.043c.064.102.135.198.214.288v2.938H13.8c-.884 0-1.6.732-1.6 1.637v.546h-8V7.023H2.067v-3.82H1v25.104h1.067V23.94H4.2v-4.912h8.468a5.251 5.251 0 003.799 1.637c1.43 0 2.8-.59 3.799-1.637h5.167c.644 0 1.166.535 1.167 1.194v5.355h2.51l-1.625 6.075a2.266 2.266 0 00.107 1.957c.299.553.864 1.284 1.476 1.37.095.013.19.02.287.02.096 0 1.378-.007 1.474-.02.611-.087 1.118-.818 1.417-1.371.33-.6.37-1.323.106-1.957l-1.624-6.074H33v-7.64c-.004-3.616-2.867-6.546-6.4-6.55zm4.717 21.683c-.134.255-.349.784-.629.826-.097.013-1.38.013-1.477 0-.28-.042-.555-.57-.69-.826a1.144 1.144 0 01-.053-.99l1.454-5.063 1.453 5.064c.132.321.11.686-.058.989zM15.4 4.84a1.08 1.08 0 011.067-1.092 1.08 1.08 0 011.066 1.092 1.08 1.08 0 01-1.066 1.091A1.08 1.08 0 0115.4 4.84zm3.2-.09l4.903-.914.08-.021a1.05 1.05 0 01.35-.067 1.078 1.078 0 011.089 1.07 1.08 1.08 0 01-1.045 1.113L18.6 4.93v-.18zm-2.133-2.64c.49.002.915.344 1.032.83a2.017 2.017 0 00-2.065 0 1.071 1.071 0 011.033-.83zm-2.134 2.82l-5.376 1a1.08 1.08 0 01-1.045-1.114A1.077 1.077 0 019 3.748c.12.002.238.025.35.067l4.983.934v.18zm1.6 2.015a1.88 1.88 0 001.067 0v2.26h-1.067v-2.26zm-12.8 15.904H2.067V8.114h1.066v14.735zm28.8 1.637h-4.266v-4.263c-.002-1.262-1-2.284-2.234-2.285h-5.636l-.16.18a4.204 4.204 0 01-3.171 1.457 4.204 4.204 0 01-3.172-1.456l-.16-.181H4.2V12.48h9.067v-1.637a.54.54 0 01.533-.546h5.867a.54.54 0 01.533.546v1.637h6.4c2.944.003 5.33 2.445 5.333 5.457v6.55z"/></mask><path d="M26.6 11.389h-5.333v-.546c0-.905-.717-1.637-1.6-1.637h-1.6V6.268c.078-.09.15-.186.213-.288l5.56 1.033.093.01a2.13 2.13 0 001.95-1.293 2.22 2.22 0 00-.364-2.348 2.098 2.098 0 00-2.245-.612l-4.723.879a2.207 2.207 0 00-.888-2.273 2.091 2.091 0 00-2.392 0c-.723.5-1.075 1.4-.889 2.273L9.66 2.77a2.099 2.099 0 00-2.244.612A2.22 2.22 0 007.05 5.73 2.13 2.13 0 009 7.023h.048l5.605-1.043c.064.102.135.198.214.288v2.938H13.8c-.884 0-1.6.732-1.6 1.637v.546h-8V7.023H2.067v-3.82H1v25.104h1.067V23.94H4.2v-4.912h8.468a5.251 5.251 0 003.799 1.637c1.43 0 2.8-.59 3.799-1.637h5.167c.644 0 1.166.535 1.167 1.194v5.355h2.51l-1.625 6.075a2.266 2.266 0 00.107 1.957c.299.553.864 1.284 1.476 1.37.095.013.19.02.287.02.096 0 1.378-.007 1.474-.02.611-.087 1.118-.818 1.417-1.371.33-.6.37-1.323.106-1.957l-1.624-6.074H33v-7.64c-.004-3.616-2.867-6.546-6.4-6.55zm4.717 21.683c-.134.255-.349.784-.629.826-.097.013-1.38.013-1.477 0-.28-.042-.555-.57-.69-.826a1.144 1.144 0 01-.053-.99l1.454-5.063 1.453 5.064c.132.321.11.686-.058.989zM15.4 4.84a1.08 1.08 0 011.067-1.092 1.08 1.08 0 011.066 1.092 1.08 1.08 0 01-1.066 1.091A1.08 1.08 0 0115.4 4.84zm3.2-.09l4.903-.914.08-.021a1.05 1.05 0 01.35-.067 1.078 1.078 0 011.089 1.07 1.08 1.08 0 01-1.045 1.113L18.6 4.93v-.18zm-2.133-2.64c.49.002.915.344 1.032.83a2.017 2.017 0 00-2.065 0 1.071 1.071 0 011.033-.83zm-2.134 2.82l-5.376 1a1.08 1.08 0 01-1.045-1.114A1.077 1.077 0 019 3.748c.12.002.238.025.35.067l4.983.934v.18zm1.6 2.015a1.88 1.88 0 001.067 0v2.26h-1.067v-2.26zm-12.8 15.904H2.067V8.114h1.066v14.735zm28.8 1.637h-4.266v-4.263c-.002-1.262-1-2.284-2.234-2.285h-5.636l-.16.18a4.204 4.204 0 01-3.171 1.457 4.204 4.204 0 01-3.172-1.456l-.16-.181H4.2V12.48h9.067v-1.637a.54.54 0 01.533-.546h5.867a.54.54 0 01.533.546v1.637h6.4c2.944.003 5.33 2.445 5.333 5.457v6.55z" fill="#D7D7D7"/><path d="M26.6 11.389h-5.333v-.546c0-.905-.717-1.637-1.6-1.637h-1.6V6.268c.078-.09.15-.186.213-.288l5.56 1.033.093.01a2.13 2.13 0 001.95-1.293 2.22 2.22 0 00-.364-2.348 2.098 2.098 0 00-2.245-.612l-4.723.879a2.207 2.207 0 00-.888-2.273 2.091 2.091 0 00-2.392 0c-.723.5-1.075 1.4-.889 2.273L9.66 2.77a2.099 2.099 0 00-2.244.612A2.22 2.22 0 007.05 5.73 2.13 2.13 0 009 7.023h.048l5.605-1.043c.064.102.135.198.214.288v2.938H13.8c-.884 0-1.6.732-1.6 1.637v.546h-8V7.023H2.067v-3.82H1v25.104h1.067V23.94H4.2v-4.912h8.468a5.251 5.251 0 003.799 1.637c1.43 0 2.8-.59 3.799-1.637h5.167c.644 0 1.166.535 1.167 1.194v5.355h2.51l-1.625 6.075a2.266 2.266 0 00.107 1.957c.299.553.864 1.284 1.476 1.37.095.013.19.02.287.02.096 0 1.378-.007 1.474-.02.611-.087 1.118-.818 1.417-1.371.33-.6.37-1.323.106-1.957l-1.624-6.074H33v-7.64c-.004-3.616-2.867-6.546-6.4-6.55zm4.717 21.683c-.134.255-.349.784-.629.826-.097.013-1.38.013-1.477 0-.28-.042-.555-.57-.69-.826a1.144 1.144 0 01-.053-.99l1.454-5.063 1.453 5.064c.132.321.11.686-.058.989zM15.4 4.84a1.08 1.08 0 011.067-1.092 1.08 1.08 0 011.066 1.092 1.08 1.08 0 01-1.066 1.091A1.08 1.08 0 0115.4 4.84zm3.2-.09l4.903-.914.08-.021a1.05 1.05 0 01.35-.067 1.078 1.078 0 011.089 1.07 1.08 1.08 0 01-1.045 1.113L18.6 4.93v-.18zm-2.133-2.64c.49.002.915.344 1.032.83a2.017 2.017 0 00-2.065 0 1.071 1.071 0 011.033-.83zm-2.134 2.82l-5.376 1a1.08 1.08 0 01-1.045-1.114A1.077 1.077 0 019 3.748c.12.002.238.025.35.067l4.983.934v.18zm1.6 2.015a1.88 1.88 0 001.067 0v2.26h-1.067v-2.26zm-12.8 15.904H2.067V8.114h1.066v14.735zm28.8 1.637h-4.266v-4.263c-.002-1.262-1-2.284-2.234-2.285h-5.636l-.16.18a4.204 4.204 0 01-3.171 1.457 4.204 4.204 0 01-3.172-1.456l-.16-.181H4.2V12.48h9.067v-1.637a.54.54 0 01.533-.546h5.867a.54.54 0 01.533.546v1.637h6.4c2.944.003 5.33 2.445 5.333 5.457v6.55z" stroke="#D7D7D7" stroke-width=".2" mask="url(#a)"/></svg>