<svg width="36" height="36" fill="none" xmlns="http://www.w3.org/2000/svg"><path d="M30.393 0H5.607A5.613 5.613 0 000 5.607v24.786A5.613 5.613 0 005.607 36h24.786A5.613 5.613 0 0036 30.393V5.607A5.613 5.613 0 0030.393 0zm4.552 30.393a4.557 4.557 0 01-4.552 4.552H5.607a4.557 4.557 0 01-4.552-4.552V5.607a4.557 4.557 0 014.552-4.552h24.786a4.557 4.557 0 014.552 4.552v24.786z" fill="#D7D7D7"/><path d="M30.393 2.504H5.607a3.107 3.107 0 00-3.103 3.103v1.598a.527.527 0 001.055 0V5.607A2.05 2.05 0 015.607 3.56h24.786a2.05 2.05 0 012.049 2.048v24.786a2.05 2.05 0 01-2.049 2.049H5.607a2.05 2.05 0 01-2.048-2.049V5.595a.527.527 0 00-1.055 0v24.798a3.107 3.107 0 003.103 3.103h24.786a3.107 3.107 0 003.103-3.103V5.607a3.107 3.107 0 00-3.103-3.103z" fill="#D7D7D7"/><path d="M27.422 17.334c-1.637-1.156-4.393-1.596-6.6-1.093a3.388 3.388 0 00-.854-.895c.44-.907 1.204-1.575 2.528-2.231.696-.345 1.563-.775 1.563-1.914 0-3.112-3.132-5.038-6.034-5.038-3.326 0-6.033 2.26-6.033 5.038 0 1.38.676 3.219 1.722 4.686.336.47.693.885 1.064 1.238a3.343 3.343 0 00-.132.773c-.927-.068-1.8-.485-2.88-1.358l-.015-.012c-.598-.483-1.342-1.084-2.378-.608-2.826 1.3-3.268 4.95-2.056 7.586 1.282 2.787 4.384 4.625 7.098 3.377 1.913-.88 3.798-3.3 4.366-5.537.17-.04.334-.093.492-.158.554.826.81 1.81.529 3.624-.12.768-.268 1.724.663 2.38 2.47 1.745 5.859.435 7.594-2.024.869-1.23 1.33-2.747 1.267-4.16-.069-1.552-.745-2.857-1.904-3.674zm-12.754-2.128c-.9-1.262-1.504-2.871-1.504-4.005 0-2.132 2.18-3.866 4.861-3.866 3.003 0 4.862 2.006 4.862 3.865 0 .364-.183.504-.912.865-1.563.775-2.51 1.625-3.063 2.77a3.352 3.352 0 00-3.574 1.192 7.834 7.834 0 01-.67-.82zm-.743 10.612c-2.105.969-4.538-.615-5.543-2.802-1.255-2.728-.208-5.255 1.481-6.032.331-.152.531-.046 1.152.456l.014.011c1.354 1.094 2.509 1.598 3.765 1.627a3.373 3.373 0 002.752 2.327c-.618 1.93-2.296 3.804-3.62 4.413zm4.08-5.553a2.194 2.194 0 01-2.192-2.191c0-1.209.983-2.192 2.191-2.192 1.209 0 2.192.983 2.192 2.192 0 1.22-.998 2.191-2.192 2.191zm9.097 4.227c-1.38 1.957-4.058 3.087-5.962 1.743-.297-.21-.305-.44-.18-1.243.294-1.893.093-3.223-.697-4.428a3.354 3.354 0 001.024-3.222c1.834-.35 4.164.035 5.46.95.856.603 1.356 1.586 1.409 2.767.052 1.16-.332 2.41-1.054 3.433zm.156 5.285c0 1.144.93 2.075 2.074 2.075a2.077 2.077 0 002.074-2.075c0-1.143-.93-2.074-2.074-2.074-1.144 0-2.074.93-2.074 2.074zm3.094 0a1.02 1.02 0 01-2.04 0 1.02 1.02 0 012.04 0z" fill="#D7D7D7"/></svg>