<svg width="53" height="53" fill="none" xmlns="http://www.w3.org/2000/svg"><path d="M44.745 0H8.255C3.703 0 0 3.703 0 8.255v36.49C0 49.297 3.703 53 8.255 53h36.49C49.297 53 53 49.297 53 44.745V8.255C53 3.703 49.297 0 44.745 0zm6.702 44.745a6.71 6.71 0 01-6.702 6.702H8.255a6.71 6.71 0 01-6.702-6.702V8.255a6.71 6.71 0 016.702-6.702h36.49a6.71 6.71 0 016.702 6.702v36.49z" fill="#115AD4"/><path d="M44.745 3.686H8.255a4.574 4.574 0 00-4.569 4.569v2.352a.776.776 0 101.553 0V8.255a3.02 3.02 0 013.016-3.016h36.49a3.02 3.02 0 013.016 3.016v36.49a3.02 3.02 0 01-3.016 3.016H8.255a3.02 3.02 0 01-3.016-3.016V8.237a.776.776 0 00-1.553 0v36.508c0 2.52 2.05 4.569 4.569 4.569h36.49c2.52 0 4.569-2.05 4.569-4.569V8.255c0-2.52-2.05-4.569-4.569-4.569z" fill="#115AD4"/><path d="M40.371 25.52c-2.41-1.702-6.467-2.35-9.716-1.61a4.99 4.99 0 00-1.258-1.317c.647-1.335 1.773-2.319 3.722-3.285 1.025-.508 2.3-1.14 2.3-2.818 0-4.58-4.61-7.416-8.882-7.416-4.898 0-8.882 3.327-8.882 7.416 0 2.031.995 4.74 2.535 6.899a12.65 12.65 0 001.567 1.824 4.916 4.916 0 00-.195 1.136c-1.364-.099-2.65-.713-4.24-1.998l-.022-.017c-.88-.712-1.976-1.598-3.5-.896-4.162 1.913-4.812 7.287-3.027 11.168 1.886 4.103 6.454 6.809 10.448 4.972 2.817-1.295 5.593-4.858 6.429-8.152.25-.06.491-.137.724-.232.816 1.216 1.194 2.665.778 5.335-.175 1.13-.394 2.538.976 3.505 3.638 2.568 8.627.639 11.181-2.981 1.279-1.812 1.959-4.045 1.866-6.126-.102-2.283-1.098-4.204-2.804-5.408zm-18.777-3.133C20.27 20.53 19.38 18.16 19.38 16.49c0-3.138 3.21-5.691 7.157-5.691 4.421 0 7.158 2.954 7.158 5.691 0 .536-.27.741-1.342 1.273-2.302 1.14-3.697 2.391-4.51 4.079a4.945 4.945 0 00-5.262 1.754c-.339-.36-.669-.763-.987-1.209zm-1.093 15.624c-3.1 1.425-6.68-.907-8.161-4.126-1.847-4.016-.306-7.737 2.18-8.88.488-.224.782-.068 1.696.67l.022.018c1.993 1.61 3.693 2.35 5.543 2.395a4.965 4.965 0 004.05 3.425c-.909 2.842-3.38 5.601-5.33 6.498zm6.005-8.175a3.23 3.23 0 01-3.226-3.227 3.23 3.23 0 013.226-3.227 3.23 3.23 0 013.227 3.227 3.233 3.233 0 01-3.227 3.227zM39.9 36.058c-2.033 2.88-5.975 4.544-8.777 2.567-.438-.31-.45-.648-.266-1.83.434-2.787.137-4.745-1.025-6.52a4.938 4.938 0 001.507-4.744c2.7-.514 6.13.051 8.038 1.398 1.26.89 1.997 2.337 2.075 4.075.076 1.707-.49 3.549-1.552 5.054zm.23 7.781a3.057 3.057 0 003.053 3.054 3.057 3.057 0 003.054-3.054 3.057 3.057 0 00-3.054-3.054 3.057 3.057 0 00-3.054 3.054zm4.554 0c0 .828-.673 1.5-1.5 1.5a1.503 1.503 0 01-1.502-1.5 1.502 1.502 0 013.002-.001z" fill="#115AD4"/></svg>