<svg width="58" height="58" fill="none" xmlns="http://www.w3.org/2000/svg"><path fill-rule="evenodd" clip-rule="evenodd" d="M48.16 17.4a2.91 2.91 0 00-2.727-1.933H43.5a2.91 2.91 0 00-2.726 1.933h-1.14a16.444 16.444 0 00-16.395 15.631 2.893 2.893 0 00-1.972 2.736V37.7a2.909 2.909 0 001.933 2.726v1.14a4.833 4.833 0 11-9.667 0V7.56a2.91 2.91 0 001.934-2.726V2.9a2.909 2.909 0 00-2.9-2.9H2.9A2.909 2.909 0 000 2.9v1.933A2.91 2.91 0 001.933 7.56v34.008a16.433 16.433 0 0032.867 0v-1.141a2.91 2.91 0 001.933-2.726v-1.933a2.9 2.9 0 00-1.856-2.697A4.825 4.825 0 0139.633 29h1.141a2.91 2.91 0 002.726 1.933h1.933A2.91 2.91 0 0048.16 29h.001V17.4zM1.933 2.9v1.933A.967.967 0 002.9 5.8h9.667a.967.967 0 00.966-.967V2.9a.967.967 0 00-.966-.967H2.9a.967.967 0 00-.967.967zM28.62 51.82a14.5 14.5 0 004.247-10.253V40.6h-7.734v.967a6.767 6.767 0 01-13.533 0V7.733H3.867v33.834A14.5 14.5 0 0028.62 51.82zm5.897-13.437a.966.966 0 00.283-.683v-1.933a.967.967 0 00-.967-.967h-9.666a.967.967 0 00-.967.967V37.7a.966.966 0 00.967.967h9.666a.967.967 0 00.684-.284zm5.116-11.316h.967v-7.734h-.967a14.514 14.514 0 00-14.451 13.534h7.762a6.767 6.767 0 016.69-5.8zm6.484 1.65a.967.967 0 00.283-.684v-9.666a.967.967 0 00-.967-.967H43.5a.966.966 0 00-.967.967v9.666A.967.967 0 0043.5 29h1.933a.967.967 0 00.684-.283z" fill="#000"/><path d="M11.739 41.654V6H14V1.5H1.5V6h2l.126 35.654C4.71 52.094 11 55.5 18.142 56.472c5.255.715 14.881-3.942 14.881-15.702L35 38v-2.5l-1.977-2.253c.696-3.4 3.615-6.024 7.577-5.622L43 29.5h4V17h-4.5l-1.9 2.082C28.686 18.573 24.84 29.74 25 33.247L22.5 35.5V38l2.5 2.77s-1.342 7.9-7.5 7.23c-4.926-.535-5.797-4.303-5.761-6.346z" fill="#ccc"/><path fill-rule="evenodd" clip-rule="evenodd" d="M48 29.1h8.686a.967.967 0 00.967-.967v-9.666a.967.967 0 00-.967-.967H48v1.933h7.72v7.734H48V29.1z" fill="#115AD4"/></svg>